<?xml version="1.0" encoding="utf-8" standalone="no"?>
<!DOCTYPE svg PUBLIC "-//W3C//DTD SVG 1.1//EN"
  "http://www.w3.org/Graphics/SVG/1.1/DTD/svg11.dtd">
<svg xmlns:xlink="http://www.w3.org/1999/xlink" width="684pt" height="568.8pt" viewBox="0 0 684 568.8" xmlns="http://www.w3.org/2000/svg" version="1.1">
 <metadata>
  <rdf:RDF xmlns:dc="http://purl.org/dc/elements/1.1/" xmlns:cc="http://creativecommons.org/ns#" xmlns:rdf="http://www.w3.org/1999/02/22-rdf-syntax-ns#">
   <cc:Work>
    <dc:type rdf:resource="http://purl.org/dc/dcmitype/StillImage"/>
    <dc:date>2025-12-27T10:17:08.885542</dc:date>
    <dc:format>image/svg+xml</dc:format>
    <dc:creator>
     <cc:Agent>
      <dc:title>Matplotlib v3.10.8, https://matplotlib.org/</dc:title>
     </cc:Agent>
    </dc:creator>
   </cc:Work>
  </rdf:RDF>
 </metadata>
 <defs>
  <style type="text/css">*{stroke-linejoin: round; stroke-linecap: butt}</style>
 </defs>
 <g id="figure_1">
  <g id="patch_1">
   <path d="M 0 568.8 
L 684 568.8 
L 684 0 
L 0 0 
z
" style="fill: #f8f9fa"/>
  </g>
  <g id="axes_1">
   <g id="patch_2">
    <path d="M 148.535706 384.121379 
Q 202.501699 360.553104 254.930812 337.656022 
" clip-path="url(#pc7ec90f156)" style="fill: none; opacity: 0.7; stroke: #f59e0b; stroke-width: 1.5; stroke-linecap: round"/>
    <path d="M 243.76552 337.076155 
L 254.930812 337.656022 
L 247.767743 346.240336 
" clip-path="url(#pc7ec90f156)" style="fill: none; opacity: 0.7; stroke: #f59e0b; stroke-width: 1.5; stroke-linecap: round"/>
   </g>
   <g id="patch_3">
    <path d="M 535.464294 384.121379 
Q 481.498301 360.553104 429.069188 337.656022 
" clip-path="url(#pc7ec90f156)" style="fill: none; opacity: 0.7; stroke: #f59e0b; stroke-width: 1.5; stroke-linecap: round"/>
    <path d="M 436.232257 346.240336 
L 429.069188 337.656022 
L 440.23448 337.076155 
" clip-path="url(#pc7ec90f156)" style="fill: none; opacity: 0.7; stroke: #f59e0b; stroke-width: 1.5; stroke-linecap: round"/>
   </g>
   <g id="patch_4">
    <path d="M 342 446.890666 
Q 342 406.245543 342 367.277471 
" clip-path="url(#pc7ec90f156)" style="fill: none; opacity: 0.7; stroke: #f59e0b; stroke-width: 1.5; stroke-linecap: round"/>
    <path d="M 337 377.277471 
L 342 367.277471 
L 347 377.277471 
" clip-path="url(#pc7ec90f156)" style="fill: none; opacity: 0.7; stroke: #f59e0b; stroke-width: 1.5; stroke-linecap: round"/>
   </g>
   <g id="patch_5">
    <path d="M 197.141885 194.192274 
Q 237.375587 223.477351 276.253386 251.7755 
" clip-path="url(#pc7ec90f156)" style="fill: none; opacity: 0.7; stroke: #f59e0b; stroke-width: 1.5; stroke-linecap: round"/>
    <path d="M 271.110788 241.848079 
L 276.253386 251.7755 
L 265.22589 249.933126 
" clip-path="url(#pc7ec90f156)" style="fill: none; opacity: 0.7; stroke: #f59e0b; stroke-width: 1.5; stroke-linecap: round"/>
   </g>
   <g id="patch_6">
    <path d="M 342 372.738462 
C 364.197499 372.738462 385.488835 365.035374 401.184838 351.325714 
C 416.88084 337.616055 425.7 319.019156 425.7 299.630769 
C 425.7 280.242383 416.88084 261.645484 401.184838 247.935824 
C 385.488835 234.226165 364.197499 226.523077 342 226.523077 
C 319.802501 226.523077 298.511165 234.226165 282.815162 247.935824 
C 267.11916 261.645484 258.3 280.242383 258.3 299.630769 
C 258.3 319.019156 267.11916 337.616055 282.815162 351.325714 
C 298.511165 365.035374 319.802501 372.738462 342 372.738462 
z
" clip-path="url(#pc7ec90f156)" style="fill: #10b981; opacity: 0.3; stroke: #10b981; stroke-width: 2; stroke-linejoin: miter"/>
   </g>
   <g id="patch_7">
    <path d="M 63 487.273846 
C 82.97775 487.273846 102.139952 480.341067 116.266354 468.002374 
C 130.392756 455.66368 138.33 438.926471 138.33 421.476923 
C 138.33 404.027375 130.392756 387.290166 116.266354 374.951473 
C 102.139952 362.612779 82.97775 355.68 63 355.68 
C 43.02225 355.68 23.860048 362.612779 9.733646 374.951473 
C -4.392756 387.290166 -12.33 404.027375 -12.33 421.476923 
C -12.33 438.926471 -4.392756 455.66368 9.733646 468.002374 
C 23.860048 480.341067 43.02225 487.273846 63 487.273846 
z
" clip-path="url(#pc7ec90f156)" style="fill: #2563eb; opacity: 0.3; stroke: #2563eb; stroke-width: 1.5; stroke-linejoin: miter"/>
   </g>
   <g id="patch_8">
    <path d="M 621 487.273846 
C 640.97775 487.273846 660.139952 480.341067 674.266354 468.002374 
C 688.392756 455.66368 696.33 438.926471 696.33 421.476923 
C 696.33 404.027375 688.392756 387.290166 674.266354 374.951473 
C 660.139952 362.612779 640.97775 355.68 621 355.68 
C 601.02225 355.68 581.860048 362.612779 567.733646 374.951473 
C 553.607244 387.290166 545.67 404.027375 545.67 421.476923 
C 545.67 438.926471 553.607244 455.66368 567.733646 468.002374 
C 581.860048 480.341067 601.02225 487.273846 621 487.273846 
z
" clip-path="url(#pc7ec90f156)" style="fill: #2563eb; opacity: 0.3; stroke: #2563eb; stroke-width: 1.5; stroke-linejoin: miter"/>
   </g>
   <g id="patch_9">
    <path d="M 342 578.658462 
C 361.97775 578.658462 381.139952 571.725683 395.266354 559.386989 
C 409.392756 547.048295 417.33 530.311086 417.33 512.861538 
C 417.33 495.41199 409.392756 478.674782 395.266354 466.336088 
C 381.139952 453.997394 361.97775 447.064615 342 447.064615 
C 322.02225 447.064615 302.860048 453.997394 288.733646 466.336088 
C 274.607244 478.674782 266.67 495.41199 266.67 512.861538 
C 266.67 530.311086 274.607244 547.048295 288.733646 559.386989 
C 302.860048 571.725683 322.02225 578.658462 342 578.658462 
z
" clip-path="url(#pc7ec90f156)" style="fill: #2563eb; opacity: 0.3; stroke: #2563eb; stroke-width: 1.5; stroke-linejoin: miter"/>
   </g>
   <g id="patch_10">
    <path d="M 132.75 213.12 
C 152.72775 213.12 171.889952 206.187221 186.016354 193.848527 
C 200.142756 181.509834 208.08 164.772625 208.08 147.323077 
C 208.08 129.873529 200.142756 113.13632 186.016354 100.797626 
C 171.889952 88.458933 152.72775 81.526154 132.75 81.526154 
C 112.77225 81.526154 93.610048 88.458933 79.483646 100.797626 
C 65.357244 113.13632 57.42 129.873529 57.42 147.323077 
C 57.42 164.772625 65.357244 181.509834 79.483646 193.848527 
C 93.610048 206.187221 112.77225 213.12 132.75 213.12 
z
" clip-path="url(#pc7ec90f156)" style="fill: #2563eb; opacity: 0.3; stroke: #2563eb; stroke-width: 1.5; stroke-linejoin: miter"/>
   </g>
   <g id="text_1">
    <!-- Your -->
    <g style="fill: #10b981" transform="translate(326.850937 296.176457) scale(0.12 -0.12)">
     <defs>
      <path id="DejaVuSans-Bold-59" d="M -63 4666 
L 1253 4666 
L 2316 3003 
L 3378 4666 
L 4697 4666 
L 2919 1966 
L 2919 0 
L 1716 0 
L 1716 1966 
L -63 4666 
z
" transform="scale(0.015625)"/>
      <path id="DejaVuSans-Bold-6f" d="M 2203 2784 
Q 1831 2784 1636 2517 
Q 1441 2250 1441 1747 
Q 1441 1244 1636 976 
Q 1831 709 2203 709 
Q 2569 709 2762 976 
Q 2956 1244 2956 1747 
Q 2956 2250 2762 2517 
Q 2569 2784 2203 2784 
z
M 2203 3584 
Q 3106 3584 3614 3096 
Q 4122 2609 4122 1747 
Q 4122 884 3614 396 
Q 3106 -91 2203 -91 
Q 1297 -91 786 396 
Q 275 884 275 1747 
Q 275 2609 786 3096 
Q 1297 3584 2203 3584 
z
" transform="scale(0.015625)"/>
      <path id="DejaVuSans-Bold-75" d="M 500 1363 
L 500 3500 
L 1625 3500 
L 1625 3150 
Q 1625 2866 1622 2436 
Q 1619 2006 1619 1863 
Q 1619 1441 1641 1255 
Q 1663 1069 1716 984 
Q 1784 875 1895 815 
Q 2006 756 2150 756 
Q 2500 756 2700 1025 
Q 2900 1294 2900 1772 
L 2900 3500 
L 4019 3500 
L 4019 0 
L 2900 0 
L 2900 506 
Q 2647 200 2364 54 
Q 2081 -91 1741 -91 
Q 1134 -91 817 281 
Q 500 653 500 1363 
z
" transform="scale(0.015625)"/>
      <path id="DejaVuSans-Bold-72" d="M 3138 2547 
Q 2991 2616 2845 2648 
Q 2700 2681 2553 2681 
Q 2122 2681 1889 2404 
Q 1656 2128 1656 1613 
L 1656 0 
L 538 0 
L 538 3500 
L 1656 3500 
L 1656 2925 
Q 1872 3269 2151 3426 
Q 2431 3584 2822 3584 
Q 2878 3584 2943 3579 
Q 3009 3575 3134 3559 
L 3138 2547 
z
" transform="scale(0.015625)"/>
     </defs>
     <use xlink:href="#DejaVuSans-Bold-59"/>
     <use xlink:href="#DejaVuSans-Bold-6f" transform="translate(63.287109 0)"/>
     <use xlink:href="#DejaVuSans-Bold-75" transform="translate(131.988281 0)"/>
     <use xlink:href="#DejaVuSans-Bold-72" transform="translate(203.179688 0)"/>
    </g>
    <!-- Page -->
    <g style="fill: #10b981" transform="translate(325.34625 309.613832) scale(0.12 -0.12)">
     <defs>
      <path id="DejaVuSans-Bold-50" d="M 588 4666 
L 2584 4666 
Q 3475 4666 3951 4270 
Q 4428 3875 4428 3144 
Q 4428 2409 3951 2014 
Q 3475 1619 2584 1619 
L 1791 1619 
L 1791 0 
L 588 0 
L 588 4666 
z
M 1791 3794 
L 1791 2491 
L 2456 2491 
Q 2806 2491 2997 2661 
Q 3188 2831 3188 3144 
Q 3188 3456 2997 3625 
Q 2806 3794 2456 3794 
L 1791 3794 
z
" transform="scale(0.015625)"/>
      <path id="DejaVuSans-Bold-61" d="M 2106 1575 
Q 1756 1575 1579 1456 
Q 1403 1338 1403 1106 
Q 1403 894 1545 773 
Q 1688 653 1941 653 
Q 2256 653 2472 879 
Q 2688 1106 2688 1447 
L 2688 1575 
L 2106 1575 
z
M 3816 1997 
L 3816 0 
L 2688 0 
L 2688 519 
Q 2463 200 2181 54 
Q 1900 -91 1497 -91 
Q 953 -91 614 226 
Q 275 544 275 1050 
Q 275 1666 698 1953 
Q 1122 2241 2028 2241 
L 2688 2241 
L 2688 2328 
Q 2688 2594 2478 2717 
Q 2269 2841 1825 2841 
Q 1466 2841 1156 2769 
Q 847 2697 581 2553 
L 581 3406 
Q 941 3494 1303 3539 
Q 1666 3584 2028 3584 
Q 2975 3584 3395 3211 
Q 3816 2838 3816 1997 
z
" transform="scale(0.015625)"/>
      <path id="DejaVuSans-Bold-67" d="M 2919 594 
Q 2688 288 2409 144 
Q 2131 0 1766 0 
Q 1125 0 706 504 
Q 288 1009 288 1791 
Q 288 2575 706 3076 
Q 1125 3578 1766 3578 
Q 2131 3578 2409 3434 
Q 2688 3291 2919 2981 
L 2919 3500 
L 4044 3500 
L 4044 353 
Q 4044 -491 3511 -936 
Q 2978 -1381 1966 -1381 
Q 1638 -1381 1331 -1331 
Q 1025 -1281 716 -1178 
L 716 -306 
Q 1009 -475 1290 -558 
Q 1572 -641 1856 -641 
Q 2406 -641 2662 -400 
Q 2919 -159 2919 353 
L 2919 594 
z
M 2181 2772 
Q 1834 2772 1640 2515 
Q 1447 2259 1447 1791 
Q 1447 1309 1634 1061 
Q 1822 813 2181 813 
Q 2531 813 2725 1069 
Q 2919 1325 2919 1791 
Q 2919 2259 2725 2515 
Q 2531 2772 2181 2772 
z
" transform="scale(0.015625)"/>
      <path id="DejaVuSans-Bold-65" d="M 4031 1759 
L 4031 1441 
L 1416 1441 
Q 1456 1047 1700 850 
Q 1944 653 2381 653 
Q 2734 653 3104 758 
Q 3475 863 3866 1075 
L 3866 213 
Q 3469 63 3072 -14 
Q 2675 -91 2278 -91 
Q 1328 -91 801 392 
Q 275 875 275 1747 
Q 275 2603 792 3093 
Q 1309 3584 2216 3584 
Q 3041 3584 3536 3087 
Q 4031 2591 4031 1759 
z
M 2881 2131 
Q 2881 2450 2695 2645 
Q 2509 2841 2209 2841 
Q 1884 2841 1681 2658 
Q 1478 2475 1428 2131 
L 2881 2131 
z
" transform="scale(0.015625)"/>
     </defs>
     <use xlink:href="#DejaVuSans-Bold-50"/>
     <use xlink:href="#DejaVuSans-Bold-61" transform="translate(70.666016 0)"/>
     <use xlink:href="#DejaVuSans-Bold-67" transform="translate(138.146484 0)"/>
     <use xlink:href="#DejaVuSans-Bold-65" transform="translate(209.728516 0)"/>
    </g>
   </g>
   <g id="text_2">
    <!-- High -->
    <g style="fill: #2563eb" transform="translate(49.963281 412.960361) scale(0.1 -0.1)">
     <defs>
      <path id="DejaVuSans-Bold-48" d="M 588 4666 
L 1791 4666 
L 1791 2888 
L 3566 2888 
L 3566 4666 
L 4769 4666 
L 4769 0 
L 3566 0 
L 3566 1978 
L 1791 1978 
L 1791 0 
L 588 0 
L 588 4666 
z
" transform="scale(0.015625)"/>
      <path id="DejaVuSans-Bold-69" d="M 538 3500 
L 1656 3500 
L 1656 0 
L 538 0 
L 538 3500 
z
M 538 4863 
L 1656 4863 
L 1656 3950 
L 538 3950 
L 538 4863 
z
" transform="scale(0.015625)"/>
      <path id="DejaVuSans-Bold-68" d="M 4056 2131 
L 4056 0 
L 2931 0 
L 2931 347 
L 2931 1625 
Q 2931 2084 2911 2256 
Q 2891 2428 2841 2509 
Q 2775 2619 2662 2680 
Q 2550 2741 2406 2741 
Q 2056 2741 1856 2470 
Q 1656 2200 1656 1722 
L 1656 0 
L 538 0 
L 538 4863 
L 1656 4863 
L 1656 2988 
Q 1909 3294 2193 3439 
Q 2478 3584 2822 3584 
Q 3428 3584 3742 3212 
Q 4056 2841 4056 2131 
z
" transform="scale(0.015625)"/>
     </defs>
     <use xlink:href="#DejaVuSans-Bold-48"/>
     <use xlink:href="#DejaVuSans-Bold-69" transform="translate(83.691406 0)"/>
     <use xlink:href="#DejaVuSans-Bold-67" transform="translate(117.96875 0)"/>
     <use xlink:href="#DejaVuSans-Bold-68" transform="translate(189.550781 0)"/>
    </g>
    <!-- Authority -->
    <g style="fill: #2563eb" transform="translate(36.357813 424.236298) scale(0.1 -0.1)">
     <defs>
      <path id="DejaVuSans-Bold-41" d="M 3419 850 
L 1538 850 
L 1241 0 
L 31 0 
L 1759 4666 
L 3194 4666 
L 4922 0 
L 3713 0 
L 3419 850 
z
M 1838 1716 
L 3116 1716 
L 2478 3572 
L 1838 1716 
z
" transform="scale(0.015625)"/>
      <path id="DejaVuSans-Bold-74" d="M 1759 4494 
L 1759 3500 
L 2913 3500 
L 2913 2700 
L 1759 2700 
L 1759 1216 
Q 1759 972 1856 886 
Q 1953 800 2241 800 
L 2816 800 
L 2816 0 
L 1856 0 
Q 1194 0 917 276 
Q 641 553 641 1216 
L 641 2700 
L 84 2700 
L 84 3500 
L 641 3500 
L 641 4494 
L 1759 4494 
z
" transform="scale(0.015625)"/>
      <path id="DejaVuSans-Bold-79" d="M 78 3500 
L 1197 3500 
L 2138 1125 
L 2938 3500 
L 4056 3500 
L 2584 -331 
Q 2363 -916 2067 -1148 
Q 1772 -1381 1288 -1381 
L 641 -1381 
L 641 -647 
L 991 -647 
Q 1275 -647 1404 -556 
Q 1534 -466 1606 -231 
L 1638 -134 
L 78 3500 
z
" transform="scale(0.015625)"/>
     </defs>
     <use xlink:href="#DejaVuSans-Bold-41"/>
     <use xlink:href="#DejaVuSans-Bold-75" transform="translate(77.392578 0)"/>
     <use xlink:href="#DejaVuSans-Bold-74" transform="translate(148.583984 0)"/>
     <use xlink:href="#DejaVuSans-Bold-68" transform="translate(196.386719 0)"/>
     <use xlink:href="#DejaVuSans-Bold-6f" transform="translate(267.578125 0)"/>
     <use xlink:href="#DejaVuSans-Bold-72" transform="translate(336.279297 0)"/>
     <use xlink:href="#DejaVuSans-Bold-69" transform="translate(385.595703 0)"/>
     <use xlink:href="#DejaVuSans-Bold-74" transform="translate(419.873047 0)"/>
     <use xlink:href="#DejaVuSans-Bold-79" transform="translate(467.675781 0)"/>
    </g>
    <!-- Source 1 -->
    <g style="fill: #2563eb" transform="translate(38.364063 435.512236) scale(0.1 -0.1)">
     <defs>
      <path id="DejaVuSans-Bold-53" d="M 3834 4519 
L 3834 3531 
Q 3450 3703 3084 3790 
Q 2719 3878 2394 3878 
Q 1963 3878 1756 3759 
Q 1550 3641 1550 3391 
Q 1550 3203 1689 3098 
Q 1828 2994 2194 2919 
L 2706 2816 
Q 3484 2659 3812 2340 
Q 4141 2022 4141 1434 
Q 4141 663 3683 286 
Q 3225 -91 2284 -91 
Q 1841 -91 1394 -6 
Q 947 78 500 244 
L 500 1259 
Q 947 1022 1364 901 
Q 1781 781 2169 781 
Q 2563 781 2772 912 
Q 2981 1044 2981 1288 
Q 2981 1506 2839 1625 
Q 2697 1744 2272 1838 
L 1806 1941 
Q 1106 2091 782 2419 
Q 459 2747 459 3303 
Q 459 4000 909 4375 
Q 1359 4750 2203 4750 
Q 2588 4750 2994 4692 
Q 3400 4634 3834 4519 
z
" transform="scale(0.015625)"/>
      <path id="DejaVuSans-Bold-63" d="M 3366 3391 
L 3366 2478 
Q 3138 2634 2908 2709 
Q 2678 2784 2431 2784 
Q 1963 2784 1702 2511 
Q 1441 2238 1441 1747 
Q 1441 1256 1702 982 
Q 1963 709 2431 709 
Q 2694 709 2930 787 
Q 3166 866 3366 1019 
L 3366 103 
Q 3103 6 2833 -42 
Q 2563 -91 2291 -91 
Q 1344 -91 809 395 
Q 275 881 275 1747 
Q 275 2613 809 3098 
Q 1344 3584 2291 3584 
Q 2566 3584 2833 3536 
Q 3100 3488 3366 3391 
z
" transform="scale(0.015625)"/>
      <path id="DejaVuSans-Bold-20" transform="scale(0.015625)"/>
      <path id="DejaVuSans-Bold-31" d="M 750 831 
L 1813 831 
L 1813 3847 
L 722 3622 
L 722 4441 
L 1806 4666 
L 2950 4666 
L 2950 831 
L 4013 831 
L 4013 0 
L 750 0 
L 750 831 
z
" transform="scale(0.015625)"/>
     </defs>
     <use xlink:href="#DejaVuSans-Bold-53"/>
     <use xlink:href="#DejaVuSans-Bold-6f" transform="translate(72.021484 0)"/>
     <use xlink:href="#DejaVuSans-Bold-75" transform="translate(140.722656 0)"/>
     <use xlink:href="#DejaVuSans-Bold-72" transform="translate(211.914062 0)"/>
     <use xlink:href="#DejaVuSans-Bold-63" transform="translate(261.230469 0)"/>
     <use xlink:href="#DejaVuSans-Bold-65" transform="translate(320.507812 0)"/>
     <use xlink:href="#DejaVuSans-Bold-20" transform="translate(388.330078 0)"/>
     <use xlink:href="#DejaVuSans-Bold-31" transform="translate(423.144531 0)"/>
    </g>
   </g>
   <g id="text_3">
    <g id="patch_11">
     <path d="M 177.34625 366.056346 
L 227.65375 366.056346 
Q 229.25375 366.056346 229.25375 364.456346 
L 229.25375 356.651346 
Q 229.25375 355.051346 227.65375 355.051346 
L 177.34625 355.051346 
Q 175.74625 355.051346 175.74625 356.651346 
L 175.74625 364.456346 
Q 175.74625 366.056346 177.34625 366.056346 
z
" style="fill: #ffffff; opacity: 0.8; stroke: #000000; stroke-linejoin: miter"/>
    </g>
    <!-- Link Equity -->
    <g style="fill: #f59e0b" transform="translate(177.34625 362.730096) scale(0.08 -0.08)">
     <defs>
      <path id="DejaVuSans-Bold-4c" d="M 588 4666 
L 1791 4666 
L 1791 909 
L 3903 909 
L 3903 0 
L 588 0 
L 588 4666 
z
" transform="scale(0.015625)"/>
      <path id="DejaVuSans-Bold-6e" d="M 4056 2131 
L 4056 0 
L 2931 0 
L 2931 347 
L 2931 1631 
Q 2931 2084 2911 2256 
Q 2891 2428 2841 2509 
Q 2775 2619 2662 2680 
Q 2550 2741 2406 2741 
Q 2056 2741 1856 2470 
Q 1656 2200 1656 1722 
L 1656 0 
L 538 0 
L 538 3500 
L 1656 3500 
L 1656 2988 
Q 1909 3294 2193 3439 
Q 2478 3584 2822 3584 
Q 3428 3584 3742 3212 
Q 4056 2841 4056 2131 
z
" transform="scale(0.015625)"/>
      <path id="DejaVuSans-Bold-6b" d="M 538 4863 
L 1656 4863 
L 1656 2216 
L 2944 3500 
L 4244 3500 
L 2534 1894 
L 4378 0 
L 3022 0 
L 1656 1459 
L 1656 0 
L 538 0 
L 538 4863 
z
" transform="scale(0.015625)"/>
      <path id="DejaVuSans-Bold-45" d="M 588 4666 
L 3834 4666 
L 3834 3756 
L 1791 3756 
L 1791 2888 
L 3713 2888 
L 3713 1978 
L 1791 1978 
L 1791 909 
L 3903 909 
L 3903 0 
L 588 0 
L 588 4666 
z
" transform="scale(0.015625)"/>
      <path id="DejaVuSans-Bold-71" d="M 2181 2772 
Q 1825 2772 1636 2509 
Q 1447 2247 1447 1747 
Q 1447 1247 1636 984 
Q 1825 722 2181 722 
Q 2541 722 2730 984 
Q 2919 1247 2919 1747 
Q 2919 2247 2730 2509 
Q 2541 2772 2181 2772 
z
M 2919 506 
Q 2688 197 2409 53 
Q 2131 -91 1766 -91 
Q 1119 -91 703 423 
Q 288 938 288 1747 
Q 288 2556 703 3067 
Q 1119 3578 1766 3578 
Q 2131 3578 2409 3434 
Q 2688 3291 2919 2981 
L 2919 3500 
L 4044 3500 
L 4044 -1331 
L 2919 -1331 
L 2919 506 
z
" transform="scale(0.015625)"/>
     </defs>
     <use xlink:href="#DejaVuSans-Bold-4c"/>
     <use xlink:href="#DejaVuSans-Bold-69" transform="translate(63.720703 0)"/>
     <use xlink:href="#DejaVuSans-Bold-6e" transform="translate(97.998047 0)"/>
     <use xlink:href="#DejaVuSans-Bold-6b" transform="translate(169.189453 0)"/>
     <use xlink:href="#DejaVuSans-Bold-20" transform="translate(235.693359 0)"/>
     <use xlink:href="#DejaVuSans-Bold-45" transform="translate(270.507812 0)"/>
     <use xlink:href="#DejaVuSans-Bold-71" transform="translate(338.818359 0)"/>
     <use xlink:href="#DejaVuSans-Bold-75" transform="translate(410.400391 0)"/>
     <use xlink:href="#DejaVuSans-Bold-69" transform="translate(481.591797 0)"/>
     <use xlink:href="#DejaVuSans-Bold-74" transform="translate(515.869141 0)"/>
     <use xlink:href="#DejaVuSans-Bold-79" transform="translate(563.671875 0)"/>
    </g>
   </g>
   <g id="text_4">
    <!-- High -->
    <g style="fill: #2563eb" transform="translate(607.963281 412.960361) scale(0.1 -0.1)">
     <use xlink:href="#DejaVuSans-Bold-48"/>
     <use xlink:href="#DejaVuSans-Bold-69" transform="translate(83.691406 0)"/>
     <use xlink:href="#DejaVuSans-Bold-67" transform="translate(117.96875 0)"/>
     <use xlink:href="#DejaVuSans-Bold-68" transform="translate(189.550781 0)"/>
    </g>
    <!-- Authority -->
    <g style="fill: #2563eb" transform="translate(594.357813 424.236298) scale(0.1 -0.1)">
     <use xlink:href="#DejaVuSans-Bold-41"/>
     <use xlink:href="#DejaVuSans-Bold-75" transform="translate(77.392578 0)"/>
     <use xlink:href="#DejaVuSans-Bold-74" transform="translate(148.583984 0)"/>
     <use xlink:href="#DejaVuSans-Bold-68" transform="translate(196.386719 0)"/>
     <use xlink:href="#DejaVuSans-Bold-6f" transform="translate(267.578125 0)"/>
     <use xlink:href="#DejaVuSans-Bold-72" transform="translate(336.279297 0)"/>
     <use xlink:href="#DejaVuSans-Bold-69" transform="translate(385.595703 0)"/>
     <use xlink:href="#DejaVuSans-Bold-74" transform="translate(419.873047 0)"/>
     <use xlink:href="#DejaVuSans-Bold-79" transform="translate(467.675781 0)"/>
    </g>
    <!-- Source 2 -->
    <g style="fill: #2563eb" transform="translate(596.364063 435.512236) scale(0.1 -0.1)">
     <defs>
      <path id="DejaVuSans-Bold-32" d="M 1844 884 
L 3897 884 
L 3897 0 
L 506 0 
L 506 884 
L 2209 2388 
Q 2438 2594 2547 2791 
Q 2656 2988 2656 3200 
Q 2656 3528 2436 3728 
Q 2216 3928 1850 3928 
Q 1569 3928 1234 3808 
Q 900 3688 519 3450 
L 519 4475 
Q 925 4609 1322 4679 
Q 1719 4750 2100 4750 
Q 2938 4750 3402 4381 
Q 3866 4013 3866 3353 
Q 3866 2972 3669 2642 
Q 3472 2313 2841 1759 
L 1844 884 
z
" transform="scale(0.015625)"/>
     </defs>
     <use xlink:href="#DejaVuSans-Bold-53"/>
     <use xlink:href="#DejaVuSans-Bold-6f" transform="translate(72.021484 0)"/>
     <use xlink:href="#DejaVuSans-Bold-75" transform="translate(140.722656 0)"/>
     <use xlink:href="#DejaVuSans-Bold-72" transform="translate(211.914062 0)"/>
     <use xlink:href="#DejaVuSans-Bold-63" transform="translate(261.230469 0)"/>
     <use xlink:href="#DejaVuSans-Bold-65" transform="translate(320.507812 0)"/>
     <use xlink:href="#DejaVuSans-Bold-20" transform="translate(388.330078 0)"/>
     <use xlink:href="#DejaVuSans-Bold-32" transform="translate(423.144531 0)"/>
    </g>
   </g>
   <g id="text_5">
    <g id="patch_12">
     <path d="M 456.34625 366.056346 
L 506.65375 366.056346 
Q 508.25375 366.056346 508.25375 364.456346 
L 508.25375 356.651346 
Q 508.25375 355.051346 506.65375 355.051346 
L 456.34625 355.051346 
Q 454.74625 355.051346 454.74625 356.651346 
L 454.74625 364.456346 
Q 454.74625 366.056346 456.34625 366.056346 
z
" style="fill: #ffffff; opacity: 0.8; stroke: #000000; stroke-linejoin: miter"/>
    </g>
    <!-- Link Equity -->
    <g style="fill: #f59e0b" transform="translate(456.34625 362.730096) scale(0.08 -0.08)">
     <use xlink:href="#DejaVuSans-Bold-4c"/>
     <use xlink:href="#DejaVuSans-Bold-69" transform="translate(63.720703 0)"/>
     <use xlink:href="#DejaVuSans-Bold-6e" transform="translate(97.998047 0)"/>
     <use xlink:href="#DejaVuSans-Bold-6b" transform="translate(169.189453 0)"/>
     <use xlink:href="#DejaVuSans-Bold-20" transform="translate(235.693359 0)"/>
     <use xlink:href="#DejaVuSans-Bold-45" transform="translate(270.507812 0)"/>
     <use xlink:href="#DejaVuSans-Bold-71" transform="translate(338.818359 0)"/>
     <use xlink:href="#DejaVuSans-Bold-75" transform="translate(410.400391 0)"/>
     <use xlink:href="#DejaVuSans-Bold-69" transform="translate(481.591797 0)"/>
     <use xlink:href="#DejaVuSans-Bold-74" transform="translate(515.869141 0)"/>
     <use xlink:href="#DejaVuSans-Bold-79" transform="translate(563.671875 0)"/>
    </g>
   </g>
   <g id="text_6">
    <!-- High -->
    <g style="fill: #2563eb" transform="translate(328.963281 504.344976) scale(0.1 -0.1)">
     <use xlink:href="#DejaVuSans-Bold-48"/>
     <use xlink:href="#DejaVuSans-Bold-69" transform="translate(83.691406 0)"/>
     <use xlink:href="#DejaVuSans-Bold-67" transform="translate(117.96875 0)"/>
     <use xlink:href="#DejaVuSans-Bold-68" transform="translate(189.550781 0)"/>
    </g>
    <!-- Authority -->
    <g style="fill: #2563eb" transform="translate(315.357813 515.620913) scale(0.1 -0.1)">
     <use xlink:href="#DejaVuSans-Bold-41"/>
     <use xlink:href="#DejaVuSans-Bold-75" transform="translate(77.392578 0)"/>
     <use xlink:href="#DejaVuSans-Bold-74" transform="translate(148.583984 0)"/>
     <use xlink:href="#DejaVuSans-Bold-68" transform="translate(196.386719 0)"/>
     <use xlink:href="#DejaVuSans-Bold-6f" transform="translate(267.578125 0)"/>
     <use xlink:href="#DejaVuSans-Bold-72" transform="translate(336.279297 0)"/>
     <use xlink:href="#DejaVuSans-Bold-69" transform="translate(385.595703 0)"/>
     <use xlink:href="#DejaVuSans-Bold-74" transform="translate(419.873047 0)"/>
     <use xlink:href="#DejaVuSans-Bold-79" transform="translate(467.675781 0)"/>
    </g>
    <!-- Source 3 -->
    <g style="fill: #2563eb" transform="translate(317.364062 526.896851) scale(0.1 -0.1)">
     <defs>
      <path id="DejaVuSans-Bold-33" d="M 2981 2516 
Q 3453 2394 3698 2092 
Q 3944 1791 3944 1325 
Q 3944 631 3412 270 
Q 2881 -91 1863 -91 
Q 1503 -91 1142 -33 
Q 781 25 428 141 
L 428 1069 
Q 766 900 1098 814 
Q 1431 728 1753 728 
Q 2231 728 2486 893 
Q 2741 1059 2741 1369 
Q 2741 1688 2480 1852 
Q 2219 2016 1709 2016 
L 1228 2016 
L 1228 2791 
L 1734 2791 
Q 2188 2791 2409 2933 
Q 2631 3075 2631 3366 
Q 2631 3634 2415 3781 
Q 2200 3928 1806 3928 
Q 1516 3928 1219 3862 
Q 922 3797 628 3669 
L 628 4550 
Q 984 4650 1334 4700 
Q 1684 4750 2022 4750 
Q 2931 4750 3382 4451 
Q 3834 4153 3834 3553 
Q 3834 3144 3618 2883 
Q 3403 2622 2981 2516 
z
" transform="scale(0.015625)"/>
     </defs>
     <use xlink:href="#DejaVuSans-Bold-53"/>
     <use xlink:href="#DejaVuSans-Bold-6f" transform="translate(72.021484 0)"/>
     <use xlink:href="#DejaVuSans-Bold-75" transform="translate(140.722656 0)"/>
     <use xlink:href="#DejaVuSans-Bold-72" transform="translate(211.914062 0)"/>
     <use xlink:href="#DejaVuSans-Bold-63" transform="translate(261.230469 0)"/>
     <use xlink:href="#DejaVuSans-Bold-65" transform="translate(320.507812 0)"/>
     <use xlink:href="#DejaVuSans-Bold-20" transform="translate(388.330078 0)"/>
     <use xlink:href="#DejaVuSans-Bold-33" transform="translate(423.144531 0)"/>
    </g>
   </g>
   <g id="text_7">
    <g id="patch_13">
     <path d="M 316.84625 411.748654 
L 367.15375 411.748654 
Q 368.75375 411.748654 368.75375 410.148654 
L 368.75375 402.343654 
Q 368.75375 400.743654 367.15375 400.743654 
L 316.84625 400.743654 
Q 315.24625 400.743654 315.24625 402.343654 
L 315.24625 410.148654 
Q 315.24625 411.748654 316.84625 411.748654 
z
" style="fill: #ffffff; opacity: 0.8; stroke: #000000; stroke-linejoin: miter"/>
    </g>
    <!-- Link Equity -->
    <g style="fill: #f59e0b" transform="translate(316.84625 408.422404) scale(0.08 -0.08)">
     <use xlink:href="#DejaVuSans-Bold-4c"/>
     <use xlink:href="#DejaVuSans-Bold-69" transform="translate(63.720703 0)"/>
     <use xlink:href="#DejaVuSans-Bold-6e" transform="translate(97.998047 0)"/>
     <use xlink:href="#DejaVuSans-Bold-6b" transform="translate(169.189453 0)"/>
     <use xlink:href="#DejaVuSans-Bold-20" transform="translate(235.693359 0)"/>
     <use xlink:href="#DejaVuSans-Bold-45" transform="translate(270.507812 0)"/>
     <use xlink:href="#DejaVuSans-Bold-71" transform="translate(338.818359 0)"/>
     <use xlink:href="#DejaVuSans-Bold-75" transform="translate(410.400391 0)"/>
     <use xlink:href="#DejaVuSans-Bold-69" transform="translate(481.591797 0)"/>
     <use xlink:href="#DejaVuSans-Bold-74" transform="translate(515.869141 0)"/>
     <use xlink:href="#DejaVuSans-Bold-79" transform="translate(563.671875 0)"/>
    </g>
   </g>
   <g id="text_8">
    <!-- High -->
    <g style="fill: #2563eb" transform="translate(119.713281 138.806514) scale(0.1 -0.1)">
     <use xlink:href="#DejaVuSans-Bold-48"/>
     <use xlink:href="#DejaVuSans-Bold-69" transform="translate(83.691406 0)"/>
     <use xlink:href="#DejaVuSans-Bold-67" transform="translate(117.96875 0)"/>
     <use xlink:href="#DejaVuSans-Bold-68" transform="translate(189.550781 0)"/>
    </g>
    <!-- Authority -->
    <g style="fill: #2563eb" transform="translate(106.107812 150.082452) scale(0.1 -0.1)">
     <use xlink:href="#DejaVuSans-Bold-41"/>
     <use xlink:href="#DejaVuSans-Bold-75" transform="translate(77.392578 0)"/>
     <use xlink:href="#DejaVuSans-Bold-74" transform="translate(148.583984 0)"/>
     <use xlink:href="#DejaVuSans-Bold-68" transform="translate(196.386719 0)"/>
     <use xlink:href="#DejaVuSans-Bold-6f" transform="translate(267.578125 0)"/>
     <use xlink:href="#DejaVuSans-Bold-72" transform="translate(336.279297 0)"/>
     <use xlink:href="#DejaVuSans-Bold-69" transform="translate(385.595703 0)"/>
     <use xlink:href="#DejaVuSans-Bold-74" transform="translate(419.873047 0)"/>
     <use xlink:href="#DejaVuSans-Bold-79" transform="translate(467.675781 0)"/>
    </g>
    <!-- Source 4 -->
    <g style="fill: #2563eb" transform="translate(108.114063 161.358389) scale(0.1 -0.1)">
     <defs>
      <path id="DejaVuSans-Bold-34" d="M 2356 3675 
L 1038 1722 
L 2356 1722 
L 2356 3675 
z
M 2156 4666 
L 3494 4666 
L 3494 1722 
L 4159 1722 
L 4159 850 
L 3494 850 
L 3494 0 
L 2356 0 
L 2356 850 
L 288 850 
L 288 1881 
L 2156 4666 
z
" transform="scale(0.015625)"/>
     </defs>
     <use xlink:href="#DejaVuSans-Bold-53"/>
     <use xlink:href="#DejaVuSans-Bold-6f" transform="translate(72.021484 0)"/>
     <use xlink:href="#DejaVuSans-Bold-75" transform="translate(140.722656 0)"/>
     <use xlink:href="#DejaVuSans-Bold-72" transform="translate(211.914062 0)"/>
     <use xlink:href="#DejaVuSans-Bold-63" transform="translate(261.230469 0)"/>
     <use xlink:href="#DejaVuSans-Bold-65" transform="translate(320.507812 0)"/>
     <use xlink:href="#DejaVuSans-Bold-20" transform="translate(388.330078 0)"/>
     <use xlink:href="#DejaVuSans-Bold-34" transform="translate(423.144531 0)"/>
    </g>
   </g>
   <g id="text_9">
    <g id="patch_14">
     <path d="M 212.22125 228.979423 
L 262.52875 228.979423 
Q 264.12875 228.979423 264.12875 227.379423 
L 264.12875 219.574423 
Q 264.12875 217.974423 262.52875 217.974423 
L 212.22125 217.974423 
Q 210.62125 217.974423 210.62125 219.574423 
L 210.62125 227.379423 
Q 210.62125 228.979423 212.22125 228.979423 
z
" style="fill: #ffffff; opacity: 0.8; stroke: #000000; stroke-linejoin: miter"/>
    </g>
    <!-- Link Equity -->
    <g style="fill: #f59e0b" transform="translate(212.22125 225.653173) scale(0.08 -0.08)">
     <use xlink:href="#DejaVuSans-Bold-4c"/>
     <use xlink:href="#DejaVuSans-Bold-69" transform="translate(63.720703 0)"/>
     <use xlink:href="#DejaVuSans-Bold-6e" transform="translate(97.998047 0)"/>
     <use xlink:href="#DejaVuSans-Bold-6b" transform="translate(169.189453 0)"/>
     <use xlink:href="#DejaVuSans-Bold-20" transform="translate(235.693359 0)"/>
     <use xlink:href="#DejaVuSans-Bold-45" transform="translate(270.507812 0)"/>
     <use xlink:href="#DejaVuSans-Bold-71" transform="translate(338.818359 0)"/>
     <use xlink:href="#DejaVuSans-Bold-75" transform="translate(410.400391 0)"/>
     <use xlink:href="#DejaVuSans-Bold-69" transform="translate(481.591797 0)"/>
     <use xlink:href="#DejaVuSans-Bold-74" transform="translate(515.869141 0)"/>
     <use xlink:href="#DejaVuSans-Bold-79" transform="translate(563.671875 0)"/>
    </g>
   </g>
   <g id="text_10">
    <!-- Link Equity Flow -->
    <g style="fill: #1f2937" transform="translate(267.8125 52.485962) scale(0.16 -0.16)">
     <defs>
      <path id="DejaVuSans-Bold-46" d="M 588 4666 
L 3834 4666 
L 3834 3756 
L 1791 3756 
L 1791 2888 
L 3713 2888 
L 3713 1978 
L 1791 1978 
L 1791 0 
L 588 0 
L 588 4666 
z
" transform="scale(0.015625)"/>
      <path id="DejaVuSans-Bold-6c" d="M 538 4863 
L 1656 4863 
L 1656 0 
L 538 0 
L 538 4863 
z
" transform="scale(0.015625)"/>
      <path id="DejaVuSans-Bold-77" d="M 225 3500 
L 1313 3500 
L 1900 1088 
L 2491 3500 
L 3425 3500 
L 4013 1113 
L 4603 3500 
L 5691 3500 
L 4769 0 
L 3547 0 
L 2956 2406 
L 2369 0 
L 1147 0 
L 225 3500 
z
" transform="scale(0.015625)"/>
     </defs>
     <use xlink:href="#DejaVuSans-Bold-4c"/>
     <use xlink:href="#DejaVuSans-Bold-69" transform="translate(63.720703 0)"/>
     <use xlink:href="#DejaVuSans-Bold-6e" transform="translate(97.998047 0)"/>
     <use xlink:href="#DejaVuSans-Bold-6b" transform="translate(169.189453 0)"/>
     <use xlink:href="#DejaVuSans-Bold-20" transform="translate(235.693359 0)"/>
     <use xlink:href="#DejaVuSans-Bold-45" transform="translate(270.507812 0)"/>
     <use xlink:href="#DejaVuSans-Bold-71" transform="translate(338.818359 0)"/>
     <use xlink:href="#DejaVuSans-Bold-75" transform="translate(410.400391 0)"/>
     <use xlink:href="#DejaVuSans-Bold-69" transform="translate(481.591797 0)"/>
     <use xlink:href="#DejaVuSans-Bold-74" transform="translate(515.869141 0)"/>
     <use xlink:href="#DejaVuSans-Bold-79" transform="translate(563.671875 0)"/>
     <use xlink:href="#DejaVuSans-Bold-20" transform="translate(628.857422 0)"/>
     <use xlink:href="#DejaVuSans-Bold-46" transform="translate(663.671875 0)"/>
     <use xlink:href="#DejaVuSans-Bold-6c" transform="translate(731.982422 0)"/>
     <use xlink:href="#DejaVuSans-Bold-6f" transform="translate(766.259766 0)"/>
     <use xlink:href="#DejaVuSans-Bold-77" transform="translate(834.960938 0)"/>
    </g>
   </g>
  </g>
 </g>
 <defs>
  <clipPath id="pc7ec90f156">
   <rect x="7.2" y="7.2" width="669.6" height="554.4"/>
  </clipPath>
 </defs>
</svg>
