<?xml version="1.0" encoding="utf-8" standalone="no"?>
<!DOCTYPE svg PUBLIC "-//W3C//DTD SVG 1.1//EN"
  "http://www.w3.org/Graphics/SVG/1.1/DTD/svg11.dtd">
<svg xmlns:xlink="http://www.w3.org/1999/xlink" width="684pt" height="568.8pt" viewBox="0 0 684 568.8" xmlns="http://www.w3.org/2000/svg" version="1.1">
 <metadata>
  <rdf:RDF xmlns:dc="http://purl.org/dc/elements/1.1/" xmlns:cc="http://creativecommons.org/ns#" xmlns:rdf="http://www.w3.org/1999/02/22-rdf-syntax-ns#">
   <cc:Work>
    <dc:type rdf:resource="http://purl.org/dc/dcmitype/StillImage"/>
    <dc:date>2025-12-27T10:17:09.824313</dc:date>
    <dc:format>image/svg+xml</dc:format>
    <dc:creator>
     <cc:Agent>
      <dc:title>Matplotlib v3.10.8, https://matplotlib.org/</dc:title>
     </cc:Agent>
    </dc:creator>
   </cc:Work>
  </rdf:RDF>
 </metadata>
 <defs>
  <style type="text/css">*{stroke-linejoin: round; stroke-linecap: butt}</style>
 </defs>
 <g id="figure_1">
  <g id="patch_1">
   <path d="M 0 568.8 
L 684 568.8 
L 684 0 
L 0 0 
z
" style="fill: #f8f9fa"/>
  </g>
  <g id="axes_1">
   <g id="patch_2">
    <path d="M 51.471074 178.411765 
L 300.495868 178.411765 
Q 306.029752 178.411765 306.029752 170.258824 
L 306.029752 113.188235 
Q 306.029752 105.035294 300.495868 105.035294 
L 51.471074 105.035294 
Q 45.93719 105.035294 45.93719 113.188235 
L 45.93719 170.258824 
Q 45.93719 178.411765 51.471074 178.411765 
z
" clip-path="url(#p3722d36c06)" style="fill: #10b981; opacity: 0.15; stroke: #10b981; stroke-width: 1.5; stroke-linejoin: miter"/>
   </g>
   <g id="patch_3">
    <path d="M 383.504132 178.411765 
L 632.528926 178.411765 
Q 638.06281 178.411765 638.06281 170.258824 
L 638.06281 113.188235 
Q 638.06281 105.035294 632.528926 105.035294 
L 383.504132 105.035294 
Q 377.970248 105.035294 377.970248 113.188235 
L 377.970248 170.258824 
Q 377.970248 178.411765 383.504132 178.411765 
z
" clip-path="url(#p3722d36c06)" style="fill: #ef4444; opacity: 0.15; stroke: #ef4444; stroke-width: 1.5; stroke-linejoin: miter"/>
   </g>
   <g id="patch_4">
    <path d="M 51.471074 259.941176 
L 300.495868 259.941176 
Q 306.029752 259.941176 306.029752 251.788235 
L 306.029752 194.717647 
Q 306.029752 186.564706 300.495868 186.564706 
L 51.471074 186.564706 
Q 45.93719 186.564706 45.93719 194.717647 
L 45.93719 251.788235 
Q 45.93719 259.941176 51.471074 259.941176 
z
" clip-path="url(#p3722d36c06)" style="fill: #10b981; opacity: 0.15; stroke: #10b981; stroke-width: 1.5; stroke-linejoin: miter"/>
   </g>
   <g id="patch_5">
    <path d="M 383.504132 259.941176 
L 632.528926 259.941176 
Q 638.06281 259.941176 638.06281 251.788235 
L 638.06281 194.717647 
Q 638.06281 186.564706 632.528926 186.564706 
L 383.504132 186.564706 
Q 377.970248 186.564706 377.970248 194.717647 
L 377.970248 251.788235 
Q 377.970248 259.941176 383.504132 259.941176 
z
" clip-path="url(#p3722d36c06)" style="fill: #ef4444; opacity: 0.15; stroke: #ef4444; stroke-width: 1.5; stroke-linejoin: miter"/>
   </g>
   <g id="patch_6">
    <path d="M 51.471074 341.470588 
L 300.495868 341.470588 
Q 306.029752 341.470588 306.029752 333.317647 
L 306.029752 276.247059 
Q 306.029752 268.094118 300.495868 268.094118 
L 51.471074 268.094118 
Q 45.93719 268.094118 45.93719 276.247059 
L 45.93719 333.317647 
Q 45.93719 341.470588 51.471074 341.470588 
z
" clip-path="url(#p3722d36c06)" style="fill: #10b981; opacity: 0.15; stroke: #10b981; stroke-width: 1.5; stroke-linejoin: miter"/>
   </g>
   <g id="patch_7">
    <path d="M 383.504132 341.470588 
L 632.528926 341.470588 
Q 638.06281 341.470588 638.06281 333.317647 
L 638.06281 276.247059 
Q 638.06281 268.094118 632.528926 268.094118 
L 383.504132 268.094118 
Q 377.970248 268.094118 377.970248 276.247059 
L 377.970248 333.317647 
Q 377.970248 341.470588 383.504132 341.470588 
z
" clip-path="url(#p3722d36c06)" style="fill: #ef4444; opacity: 0.15; stroke: #ef4444; stroke-width: 1.5; stroke-linejoin: miter"/>
   </g>
   <g id="patch_8">
    <path d="M 51.471074 423 
L 300.495868 423 
Q 306.029752 423 306.029752 414.847059 
L 306.029752 357.776471 
Q 306.029752 349.623529 300.495868 349.623529 
L 51.471074 349.623529 
Q 45.93719 349.623529 45.93719 357.776471 
L 45.93719 414.847059 
Q 45.93719 423 51.471074 423 
z
" clip-path="url(#p3722d36c06)" style="fill: #10b981; opacity: 0.15; stroke: #10b981; stroke-width: 1.5; stroke-linejoin: miter"/>
   </g>
   <g id="patch_9">
    <path d="M 383.504132 423 
L 632.528926 423 
Q 638.06281 423 638.06281 414.847059 
L 638.06281 357.776471 
Q 638.06281 349.623529 632.528926 349.623529 
L 383.504132 349.623529 
Q 377.970248 349.623529 377.970248 357.776471 
L 377.970248 414.847059 
Q 377.970248 423 383.504132 423 
z
" clip-path="url(#p3722d36c06)" style="fill: #ef4444; opacity: 0.15; stroke: #ef4444; stroke-width: 1.5; stroke-linejoin: miter"/>
   </g>
   <g id="patch_10">
    <path d="M 51.471074 504.529412 
L 300.495868 504.529412 
Q 306.029752 504.529412 306.029752 496.376471 
L 306.029752 439.305882 
Q 306.029752 431.152941 300.495868 431.152941 
L 51.471074 431.152941 
Q 45.93719 431.152941 45.93719 439.305882 
L 45.93719 496.376471 
Q 45.93719 504.529412 51.471074 504.529412 
z
" clip-path="url(#p3722d36c06)" style="fill: #10b981; opacity: 0.15; stroke: #10b981; stroke-width: 1.5; stroke-linejoin: miter"/>
   </g>
   <g id="patch_11">
    <path d="M 383.504132 504.529412 
L 632.528926 504.529412 
Q 638.06281 504.529412 638.06281 496.376471 
L 638.06281 439.305882 
Q 638.06281 431.152941 632.528926 431.152941 
L 383.504132 431.152941 
Q 377.970248 431.152941 377.970248 439.305882 
L 377.970248 496.376471 
Q 377.970248 504.529412 383.504132 504.529412 
z
" clip-path="url(#p3722d36c06)" style="fill: #ef4444; opacity: 0.15; stroke: #ef4444; stroke-width: 1.5; stroke-linejoin: miter"/>
   </g>
   <g id="text_1">
    <!-- Create valuable content -->
    <g style="fill: #10b981" transform="translate(94.601909 145.034779) scale(0.12 -0.12)">
     <defs>
      <path id="DejaVuSans-Bold-43" d="M 4288 256 
Q 3956 84 3597 -3 
Q 3238 -91 2847 -91 
Q 1681 -91 1000 561 
Q 319 1213 319 2328 
Q 319 3447 1000 4098 
Q 1681 4750 2847 4750 
Q 3238 4750 3597 4662 
Q 3956 4575 4288 4403 
L 4288 3438 
Q 3953 3666 3628 3772 
Q 3303 3878 2944 3878 
Q 2300 3878 1931 3465 
Q 1563 3053 1563 2328 
Q 1563 1606 1931 1193 
Q 2300 781 2944 781 
Q 3303 781 3628 887 
Q 3953 994 4288 1222 
L 4288 256 
z
" transform="scale(0.015625)"/>
      <path id="DejaVuSans-Bold-72" d="M 3138 2547 
Q 2991 2616 2845 2648 
Q 2700 2681 2553 2681 
Q 2122 2681 1889 2404 
Q 1656 2128 1656 1613 
L 1656 0 
L 538 0 
L 538 3500 
L 1656 3500 
L 1656 2925 
Q 1872 3269 2151 3426 
Q 2431 3584 2822 3584 
Q 2878 3584 2943 3579 
Q 3009 3575 3134 3559 
L 3138 2547 
z
" transform="scale(0.015625)"/>
      <path id="DejaVuSans-Bold-65" d="M 4031 1759 
L 4031 1441 
L 1416 1441 
Q 1456 1047 1700 850 
Q 1944 653 2381 653 
Q 2734 653 3104 758 
Q 3475 863 3866 1075 
L 3866 213 
Q 3469 63 3072 -14 
Q 2675 -91 2278 -91 
Q 1328 -91 801 392 
Q 275 875 275 1747 
Q 275 2603 792 3093 
Q 1309 3584 2216 3584 
Q 3041 3584 3536 3087 
Q 4031 2591 4031 1759 
z
M 2881 2131 
Q 2881 2450 2695 2645 
Q 2509 2841 2209 2841 
Q 1884 2841 1681 2658 
Q 1478 2475 1428 2131 
L 2881 2131 
z
" transform="scale(0.015625)"/>
      <path id="DejaVuSans-Bold-61" d="M 2106 1575 
Q 1756 1575 1579 1456 
Q 1403 1338 1403 1106 
Q 1403 894 1545 773 
Q 1688 653 1941 653 
Q 2256 653 2472 879 
Q 2688 1106 2688 1447 
L 2688 1575 
L 2106 1575 
z
M 3816 1997 
L 3816 0 
L 2688 0 
L 2688 519 
Q 2463 200 2181 54 
Q 1900 -91 1497 -91 
Q 953 -91 614 226 
Q 275 544 275 1050 
Q 275 1666 698 1953 
Q 1122 2241 2028 2241 
L 2688 2241 
L 2688 2328 
Q 2688 2594 2478 2717 
Q 2269 2841 1825 2841 
Q 1466 2841 1156 2769 
Q 847 2697 581 2553 
L 581 3406 
Q 941 3494 1303 3539 
Q 1666 3584 2028 3584 
Q 2975 3584 3395 3211 
Q 3816 2838 3816 1997 
z
" transform="scale(0.015625)"/>
      <path id="DejaVuSans-Bold-74" d="M 1759 4494 
L 1759 3500 
L 2913 3500 
L 2913 2700 
L 1759 2700 
L 1759 1216 
Q 1759 972 1856 886 
Q 1953 800 2241 800 
L 2816 800 
L 2816 0 
L 1856 0 
Q 1194 0 917 276 
Q 641 553 641 1216 
L 641 2700 
L 84 2700 
L 84 3500 
L 641 3500 
L 641 4494 
L 1759 4494 
z
" transform="scale(0.015625)"/>
      <path id="DejaVuSans-Bold-20" transform="scale(0.015625)"/>
      <path id="DejaVuSans-Bold-76" d="M 97 3500 
L 1216 3500 
L 2088 1081 
L 2956 3500 
L 4078 3500 
L 2700 0 
L 1472 0 
L 97 3500 
z
" transform="scale(0.015625)"/>
      <path id="DejaVuSans-Bold-6c" d="M 538 4863 
L 1656 4863 
L 1656 0 
L 538 0 
L 538 4863 
z
" transform="scale(0.015625)"/>
      <path id="DejaVuSans-Bold-75" d="M 500 1363 
L 500 3500 
L 1625 3500 
L 1625 3150 
Q 1625 2866 1622 2436 
Q 1619 2006 1619 1863 
Q 1619 1441 1641 1255 
Q 1663 1069 1716 984 
Q 1784 875 1895 815 
Q 2006 756 2150 756 
Q 2500 756 2700 1025 
Q 2900 1294 2900 1772 
L 2900 3500 
L 4019 3500 
L 4019 0 
L 2900 0 
L 2900 506 
Q 2647 200 2364 54 
Q 2081 -91 1741 -91 
Q 1134 -91 817 281 
Q 500 653 500 1363 
z
" transform="scale(0.015625)"/>
      <path id="DejaVuSans-Bold-62" d="M 2400 722 
Q 2759 722 2948 984 
Q 3138 1247 3138 1747 
Q 3138 2247 2948 2509 
Q 2759 2772 2400 2772 
Q 2041 2772 1848 2508 
Q 1656 2244 1656 1747 
Q 1656 1250 1848 986 
Q 2041 722 2400 722 
z
M 1656 2988 
Q 1888 3294 2169 3439 
Q 2450 3584 2816 3584 
Q 3463 3584 3878 3070 
Q 4294 2556 4294 1747 
Q 4294 938 3878 423 
Q 3463 -91 2816 -91 
Q 2450 -91 2169 54 
Q 1888 200 1656 506 
L 1656 0 
L 538 0 
L 538 4863 
L 1656 4863 
L 1656 2988 
z
" transform="scale(0.015625)"/>
      <path id="DejaVuSans-Bold-63" d="M 3366 3391 
L 3366 2478 
Q 3138 2634 2908 2709 
Q 2678 2784 2431 2784 
Q 1963 2784 1702 2511 
Q 1441 2238 1441 1747 
Q 1441 1256 1702 982 
Q 1963 709 2431 709 
Q 2694 709 2930 787 
Q 3166 866 3366 1019 
L 3366 103 
Q 3103 6 2833 -42 
Q 2563 -91 2291 -91 
Q 1344 -91 809 395 
Q 275 881 275 1747 
Q 275 2613 809 3098 
Q 1344 3584 2291 3584 
Q 2566 3584 2833 3536 
Q 3100 3488 3366 3391 
z
" transform="scale(0.015625)"/>
      <path id="DejaVuSans-Bold-6f" d="M 2203 2784 
Q 1831 2784 1636 2517 
Q 1441 2250 1441 1747 
Q 1441 1244 1636 976 
Q 1831 709 2203 709 
Q 2569 709 2762 976 
Q 2956 1244 2956 1747 
Q 2956 2250 2762 2517 
Q 2569 2784 2203 2784 
z
M 2203 3584 
Q 3106 3584 3614 3096 
Q 4122 2609 4122 1747 
Q 4122 884 3614 396 
Q 3106 -91 2203 -91 
Q 1297 -91 786 396 
Q 275 884 275 1747 
Q 275 2609 786 3096 
Q 1297 3584 2203 3584 
z
" transform="scale(0.015625)"/>
      <path id="DejaVuSans-Bold-6e" d="M 4056 2131 
L 4056 0 
L 2931 0 
L 2931 347 
L 2931 1631 
Q 2931 2084 2911 2256 
Q 2891 2428 2841 2509 
Q 2775 2619 2662 2680 
Q 2550 2741 2406 2741 
Q 2056 2741 1856 2470 
Q 1656 2200 1656 1722 
L 1656 0 
L 538 0 
L 538 3500 
L 1656 3500 
L 1656 2988 
Q 1909 3294 2193 3439 
Q 2478 3584 2822 3584 
Q 3428 3584 3742 3212 
Q 4056 2841 4056 2131 
z
" transform="scale(0.015625)"/>
     </defs>
     <use xlink:href="#DejaVuSans-Bold-43"/>
     <use xlink:href="#DejaVuSans-Bold-72" transform="translate(73.388672 0)"/>
     <use xlink:href="#DejaVuSans-Bold-65" transform="translate(122.705078 0)"/>
     <use xlink:href="#DejaVuSans-Bold-61" transform="translate(190.527344 0)"/>
     <use xlink:href="#DejaVuSans-Bold-74" transform="translate(258.007812 0)"/>
     <use xlink:href="#DejaVuSans-Bold-65" transform="translate(305.810547 0)"/>
     <use xlink:href="#DejaVuSans-Bold-20" transform="translate(373.632812 0)"/>
     <use xlink:href="#DejaVuSans-Bold-76" transform="translate(408.447266 0)"/>
     <use xlink:href="#DejaVuSans-Bold-61" transform="translate(473.632812 0)"/>
     <use xlink:href="#DejaVuSans-Bold-6c" transform="translate(541.113281 0)"/>
     <use xlink:href="#DejaVuSans-Bold-75" transform="translate(575.390625 0)"/>
     <use xlink:href="#DejaVuSans-Bold-61" transform="translate(646.582031 0)"/>
     <use xlink:href="#DejaVuSans-Bold-62" transform="translate(714.0625 0)"/>
     <use xlink:href="#DejaVuSans-Bold-6c" transform="translate(785.644531 0)"/>
     <use xlink:href="#DejaVuSans-Bold-65" transform="translate(819.921875 0)"/>
     <use xlink:href="#DejaVuSans-Bold-20" transform="translate(887.744141 0)"/>
     <use xlink:href="#DejaVuSans-Bold-63" transform="translate(922.558594 0)"/>
     <use xlink:href="#DejaVuSans-Bold-6f" transform="translate(981.835938 0)"/>
     <use xlink:href="#DejaVuSans-Bold-6e" transform="translate(1050.537109 0)"/>
     <use xlink:href="#DejaVuSans-Bold-74" transform="translate(1121.728516 0)"/>
     <use xlink:href="#DejaVuSans-Bold-65" transform="translate(1169.53125 0)"/>
     <use xlink:href="#DejaVuSans-Bold-6e" transform="translate(1237.353516 0)"/>
     <use xlink:href="#DejaVuSans-Bold-74" transform="translate(1308.544922 0)"/>
    </g>
   </g>
   <g id="text_2">
    <!-- Purchase links -->
    <g style="fill: #ef4444" transform="translate(458.836216 145.034779) scale(0.12 -0.12)">
     <defs>
      <path id="DejaVuSans-Bold-50" d="M 588 4666 
L 2584 4666 
Q 3475 4666 3951 4270 
Q 4428 3875 4428 3144 
Q 4428 2409 3951 2014 
Q 3475 1619 2584 1619 
L 1791 1619 
L 1791 0 
L 588 0 
L 588 4666 
z
M 1791 3794 
L 1791 2491 
L 2456 2491 
Q 2806 2491 2997 2661 
Q 3188 2831 3188 3144 
Q 3188 3456 2997 3625 
Q 2806 3794 2456 3794 
L 1791 3794 
z
" transform="scale(0.015625)"/>
      <path id="DejaVuSans-Bold-68" d="M 4056 2131 
L 4056 0 
L 2931 0 
L 2931 347 
L 2931 1625 
Q 2931 2084 2911 2256 
Q 2891 2428 2841 2509 
Q 2775 2619 2662 2680 
Q 2550 2741 2406 2741 
Q 2056 2741 1856 2470 
Q 1656 2200 1656 1722 
L 1656 0 
L 538 0 
L 538 4863 
L 1656 4863 
L 1656 2988 
Q 1909 3294 2193 3439 
Q 2478 3584 2822 3584 
Q 3428 3584 3742 3212 
Q 4056 2841 4056 2131 
z
" transform="scale(0.015625)"/>
      <path id="DejaVuSans-Bold-73" d="M 3272 3391 
L 3272 2541 
Q 2913 2691 2578 2766 
Q 2244 2841 1947 2841 
Q 1628 2841 1473 2761 
Q 1319 2681 1319 2516 
Q 1319 2381 1436 2309 
Q 1553 2238 1856 2203 
L 2053 2175 
Q 2913 2066 3209 1816 
Q 3506 1566 3506 1031 
Q 3506 472 3093 190 
Q 2681 -91 1863 -91 
Q 1516 -91 1145 -36 
Q 775 19 384 128 
L 384 978 
Q 719 816 1070 734 
Q 1422 653 1784 653 
Q 2113 653 2278 743 
Q 2444 834 2444 1013 
Q 2444 1163 2330 1236 
Q 2216 1309 1875 1350 
L 1678 1375 
Q 931 1469 631 1722 
Q 331 1975 331 2491 
Q 331 3047 712 3315 
Q 1094 3584 1881 3584 
Q 2191 3584 2531 3537 
Q 2872 3491 3272 3391 
z
" transform="scale(0.015625)"/>
      <path id="DejaVuSans-Bold-69" d="M 538 3500 
L 1656 3500 
L 1656 0 
L 538 0 
L 538 3500 
z
M 538 4863 
L 1656 4863 
L 1656 3950 
L 538 3950 
L 538 4863 
z
" transform="scale(0.015625)"/>
      <path id="DejaVuSans-Bold-6b" d="M 538 4863 
L 1656 4863 
L 1656 2216 
L 2944 3500 
L 4244 3500 
L 2534 1894 
L 4378 0 
L 3022 0 
L 1656 1459 
L 1656 0 
L 538 0 
L 538 4863 
z
" transform="scale(0.015625)"/>
     </defs>
     <use xlink:href="#DejaVuSans-Bold-50"/>
     <use xlink:href="#DejaVuSans-Bold-75" transform="translate(73.291016 0)"/>
     <use xlink:href="#DejaVuSans-Bold-72" transform="translate(144.482422 0)"/>
     <use xlink:href="#DejaVuSans-Bold-63" transform="translate(193.798828 0)"/>
     <use xlink:href="#DejaVuSans-Bold-68" transform="translate(253.076172 0)"/>
     <use xlink:href="#DejaVuSans-Bold-61" transform="translate(324.267578 0)"/>
     <use xlink:href="#DejaVuSans-Bold-73" transform="translate(391.748047 0)"/>
     <use xlink:href="#DejaVuSans-Bold-65" transform="translate(451.269531 0)"/>
     <use xlink:href="#DejaVuSans-Bold-20" transform="translate(519.091797 0)"/>
     <use xlink:href="#DejaVuSans-Bold-6c" transform="translate(553.90625 0)"/>
     <use xlink:href="#DejaVuSans-Bold-69" transform="translate(588.183594 0)"/>
     <use xlink:href="#DejaVuSans-Bold-6e" transform="translate(622.460938 0)"/>
     <use xlink:href="#DejaVuSans-Bold-6b" transform="translate(693.652344 0)"/>
     <use xlink:href="#DejaVuSans-Bold-73" transform="translate(760.15625 0)"/>
    </g>
   </g>
   <g id="text_3">
    <!-- Build relationships -->
    <g style="fill: #10b981" transform="translate(112.424721 226.564191) scale(0.12 -0.12)">
     <defs>
      <path id="DejaVuSans-Bold-42" d="M 2456 2859 
Q 2741 2859 2887 2984 
Q 3034 3109 3034 3353 
Q 3034 3594 2887 3720 
Q 2741 3847 2456 3847 
L 1791 3847 
L 1791 2859 
L 2456 2859 
z
M 2497 819 
Q 2859 819 3042 972 
Q 3225 1125 3225 1434 
Q 3225 1738 3044 1889 
Q 2863 2041 2497 2041 
L 1791 2041 
L 1791 819 
L 2497 819 
z
M 3616 2497 
Q 4003 2384 4215 2081 
Q 4428 1778 4428 1338 
Q 4428 663 3972 331 
Q 3516 0 2584 0 
L 588 0 
L 588 4666 
L 2394 4666 
Q 3366 4666 3802 4372 
Q 4238 4078 4238 3431 
Q 4238 3091 4078 2852 
Q 3919 2613 3616 2497 
z
" transform="scale(0.015625)"/>
      <path id="DejaVuSans-Bold-64" d="M 2919 2988 
L 2919 4863 
L 4044 4863 
L 4044 0 
L 2919 0 
L 2919 506 
Q 2688 197 2409 53 
Q 2131 -91 1766 -91 
Q 1119 -91 703 423 
Q 288 938 288 1747 
Q 288 2556 703 3070 
Q 1119 3584 1766 3584 
Q 2128 3584 2408 3439 
Q 2688 3294 2919 2988 
z
M 2181 722 
Q 2541 722 2730 984 
Q 2919 1247 2919 1747 
Q 2919 2247 2730 2509 
Q 2541 2772 2181 2772 
Q 1825 2772 1636 2509 
Q 1447 2247 1447 1747 
Q 1447 1247 1636 984 
Q 1825 722 2181 722 
z
" transform="scale(0.015625)"/>
      <path id="DejaVuSans-Bold-70" d="M 1656 506 
L 1656 -1331 
L 538 -1331 
L 538 3500 
L 1656 3500 
L 1656 2988 
Q 1888 3294 2169 3439 
Q 2450 3584 2816 3584 
Q 3463 3584 3878 3070 
Q 4294 2556 4294 1747 
Q 4294 938 3878 423 
Q 3463 -91 2816 -91 
Q 2450 -91 2169 54 
Q 1888 200 1656 506 
z
M 2400 2772 
Q 2041 2772 1848 2508 
Q 1656 2244 1656 1747 
Q 1656 1250 1848 986 
Q 2041 722 2400 722 
Q 2759 722 2948 984 
Q 3138 1247 3138 1747 
Q 3138 2247 2948 2509 
Q 2759 2772 2400 2772 
z
" transform="scale(0.015625)"/>
     </defs>
     <use xlink:href="#DejaVuSans-Bold-42"/>
     <use xlink:href="#DejaVuSans-Bold-75" transform="translate(76.220703 0)"/>
     <use xlink:href="#DejaVuSans-Bold-69" transform="translate(147.412109 0)"/>
     <use xlink:href="#DejaVuSans-Bold-6c" transform="translate(181.689453 0)"/>
     <use xlink:href="#DejaVuSans-Bold-64" transform="translate(215.966797 0)"/>
     <use xlink:href="#DejaVuSans-Bold-20" transform="translate(287.548828 0)"/>
     <use xlink:href="#DejaVuSans-Bold-72" transform="translate(322.363281 0)"/>
     <use xlink:href="#DejaVuSans-Bold-65" transform="translate(371.679688 0)"/>
     <use xlink:href="#DejaVuSans-Bold-6c" transform="translate(439.501953 0)"/>
     <use xlink:href="#DejaVuSans-Bold-61" transform="translate(473.779297 0)"/>
     <use xlink:href="#DejaVuSans-Bold-74" transform="translate(541.259766 0)"/>
     <use xlink:href="#DejaVuSans-Bold-69" transform="translate(589.0625 0)"/>
     <use xlink:href="#DejaVuSans-Bold-6f" transform="translate(623.339844 0)"/>
     <use xlink:href="#DejaVuSans-Bold-6e" transform="translate(692.041016 0)"/>
     <use xlink:href="#DejaVuSans-Bold-73" transform="translate(763.232422 0)"/>
     <use xlink:href="#DejaVuSans-Bold-68" transform="translate(822.753906 0)"/>
     <use xlink:href="#DejaVuSans-Bold-69" transform="translate(893.945312 0)"/>
     <use xlink:href="#DejaVuSans-Bold-70" transform="translate(928.222656 0)"/>
     <use xlink:href="#DejaVuSans-Bold-73" transform="translate(999.804688 0)"/>
    </g>
   </g>
   <g id="text_4">
    <!-- Link schemes/farms -->
    <g style="fill: #ef4444" transform="translate(440.792154 226.564191) scale(0.12 -0.12)">
     <defs>
      <path id="DejaVuSans-Bold-4c" d="M 588 4666 
L 1791 4666 
L 1791 909 
L 3903 909 
L 3903 0 
L 588 0 
L 588 4666 
z
" transform="scale(0.015625)"/>
      <path id="DejaVuSans-Bold-6d" d="M 3781 2919 
Q 3994 3244 4286 3414 
Q 4578 3584 4928 3584 
Q 5531 3584 5847 3212 
Q 6163 2841 6163 2131 
L 6163 0 
L 5038 0 
L 5038 1825 
Q 5041 1866 5042 1909 
Q 5044 1953 5044 2034 
Q 5044 2406 4934 2573 
Q 4825 2741 4581 2741 
Q 4263 2741 4089 2478 
Q 3916 2216 3909 1719 
L 3909 0 
L 2784 0 
L 2784 1825 
Q 2784 2406 2684 2573 
Q 2584 2741 2328 2741 
Q 2006 2741 1831 2477 
Q 1656 2213 1656 1722 
L 1656 0 
L 531 0 
L 531 3500 
L 1656 3500 
L 1656 2988 
Q 1863 3284 2130 3434 
Q 2397 3584 2719 3584 
Q 3081 3584 3359 3409 
Q 3638 3234 3781 2919 
z
" transform="scale(0.015625)"/>
      <path id="DejaVuSans-Bold-2f" d="M 1644 4666 
L 2338 4666 
L 691 -594 
L 0 -594 
L 1644 4666 
z
" transform="scale(0.015625)"/>
      <path id="DejaVuSans-Bold-66" d="M 2841 4863 
L 2841 4128 
L 2222 4128 
Q 1984 4128 1890 4042 
Q 1797 3956 1797 3744 
L 1797 3500 
L 2753 3500 
L 2753 2700 
L 1797 2700 
L 1797 0 
L 678 0 
L 678 2700 
L 122 2700 
L 122 3500 
L 678 3500 
L 678 3744 
Q 678 4316 997 4589 
Q 1316 4863 1984 4863 
L 2841 4863 
z
" transform="scale(0.015625)"/>
     </defs>
     <use xlink:href="#DejaVuSans-Bold-4c"/>
     <use xlink:href="#DejaVuSans-Bold-69" transform="translate(63.720703 0)"/>
     <use xlink:href="#DejaVuSans-Bold-6e" transform="translate(97.998047 0)"/>
     <use xlink:href="#DejaVuSans-Bold-6b" transform="translate(169.189453 0)"/>
     <use xlink:href="#DejaVuSans-Bold-20" transform="translate(235.693359 0)"/>
     <use xlink:href="#DejaVuSans-Bold-73" transform="translate(270.507812 0)"/>
     <use xlink:href="#DejaVuSans-Bold-63" transform="translate(330.029297 0)"/>
     <use xlink:href="#DejaVuSans-Bold-68" transform="translate(389.306641 0)"/>
     <use xlink:href="#DejaVuSans-Bold-65" transform="translate(460.498047 0)"/>
     <use xlink:href="#DejaVuSans-Bold-6d" transform="translate(528.320312 0)"/>
     <use xlink:href="#DejaVuSans-Bold-65" transform="translate(632.519531 0)"/>
     <use xlink:href="#DejaVuSans-Bold-73" transform="translate(700.341797 0)"/>
     <use xlink:href="#DejaVuSans-Bold-2f" transform="translate(759.863281 0)"/>
     <use xlink:href="#DejaVuSans-Bold-66" transform="translate(796.386719 0)"/>
     <use xlink:href="#DejaVuSans-Bold-61" transform="translate(839.892578 0)"/>
     <use xlink:href="#DejaVuSans-Bold-72" transform="translate(907.373047 0)"/>
     <use xlink:href="#DejaVuSans-Bold-6d" transform="translate(956.689453 0)"/>
     <use xlink:href="#DejaVuSans-Bold-73" transform="translate(1060.888672 0)"/>
    </g>
   </g>
   <g id="text_5">
    <!-- Legitimate outreach -->
    <g style="fill: #10b981" transform="translate(107.320034 308.046728) scale(0.12 -0.12)">
     <defs>
      <path id="DejaVuSans-Bold-67" d="M 2919 594 
Q 2688 288 2409 144 
Q 2131 0 1766 0 
Q 1125 0 706 504 
Q 288 1009 288 1791 
Q 288 2575 706 3076 
Q 1125 3578 1766 3578 
Q 2131 3578 2409 3434 
Q 2688 3291 2919 2981 
L 2919 3500 
L 4044 3500 
L 4044 353 
Q 4044 -491 3511 -936 
Q 2978 -1381 1966 -1381 
Q 1638 -1381 1331 -1331 
Q 1025 -1281 716 -1178 
L 716 -306 
Q 1009 -475 1290 -558 
Q 1572 -641 1856 -641 
Q 2406 -641 2662 -400 
Q 2919 -159 2919 353 
L 2919 594 
z
M 2181 2772 
Q 1834 2772 1640 2515 
Q 1447 2259 1447 1791 
Q 1447 1309 1634 1061 
Q 1822 813 2181 813 
Q 2531 813 2725 1069 
Q 2919 1325 2919 1791 
Q 2919 2259 2725 2515 
Q 2531 2772 2181 2772 
z
" transform="scale(0.015625)"/>
     </defs>
     <use xlink:href="#DejaVuSans-Bold-4c"/>
     <use xlink:href="#DejaVuSans-Bold-65" transform="translate(63.720703 0)"/>
     <use xlink:href="#DejaVuSans-Bold-67" transform="translate(131.542969 0)"/>
     <use xlink:href="#DejaVuSans-Bold-69" transform="translate(203.125 0)"/>
     <use xlink:href="#DejaVuSans-Bold-74" transform="translate(237.402344 0)"/>
     <use xlink:href="#DejaVuSans-Bold-69" transform="translate(285.205078 0)"/>
     <use xlink:href="#DejaVuSans-Bold-6d" transform="translate(319.482422 0)"/>
     <use xlink:href="#DejaVuSans-Bold-61" transform="translate(423.681641 0)"/>
     <use xlink:href="#DejaVuSans-Bold-74" transform="translate(491.162109 0)"/>
     <use xlink:href="#DejaVuSans-Bold-65" transform="translate(538.964844 0)"/>
     <use xlink:href="#DejaVuSans-Bold-20" transform="translate(606.787109 0)"/>
     <use xlink:href="#DejaVuSans-Bold-6f" transform="translate(641.601562 0)"/>
     <use xlink:href="#DejaVuSans-Bold-75" transform="translate(710.302734 0)"/>
     <use xlink:href="#DejaVuSans-Bold-74" transform="translate(781.494141 0)"/>
     <use xlink:href="#DejaVuSans-Bold-72" transform="translate(829.296875 0)"/>
     <use xlink:href="#DejaVuSans-Bold-65" transform="translate(878.613281 0)"/>
     <use xlink:href="#DejaVuSans-Bold-61" transform="translate(946.435547 0)"/>
     <use xlink:href="#DejaVuSans-Bold-63" transform="translate(1013.916016 0)"/>
     <use xlink:href="#DejaVuSans-Bold-68" transform="translate(1073.193359 0)"/>
    </g>
   </g>
   <g id="text_6">
    <!-- Automated link tools -->
    <g style="fill: #ef4444" transform="translate(437.285904 308.093603) scale(0.12 -0.12)">
     <defs>
      <path id="DejaVuSans-Bold-41" d="M 3419 850 
L 1538 850 
L 1241 0 
L 31 0 
L 1759 4666 
L 3194 4666 
L 4922 0 
L 3713 0 
L 3419 850 
z
M 1838 1716 
L 3116 1716 
L 2478 3572 
L 1838 1716 
z
" transform="scale(0.015625)"/>
     </defs>
     <use xlink:href="#DejaVuSans-Bold-41"/>
     <use xlink:href="#DejaVuSans-Bold-75" transform="translate(77.392578 0)"/>
     <use xlink:href="#DejaVuSans-Bold-74" transform="translate(148.583984 0)"/>
     <use xlink:href="#DejaVuSans-Bold-6f" transform="translate(196.386719 0)"/>
     <use xlink:href="#DejaVuSans-Bold-6d" transform="translate(265.087891 0)"/>
     <use xlink:href="#DejaVuSans-Bold-61" transform="translate(369.287109 0)"/>
     <use xlink:href="#DejaVuSans-Bold-74" transform="translate(436.767578 0)"/>
     <use xlink:href="#DejaVuSans-Bold-65" transform="translate(484.570312 0)"/>
     <use xlink:href="#DejaVuSans-Bold-64" transform="translate(552.392578 0)"/>
     <use xlink:href="#DejaVuSans-Bold-20" transform="translate(623.974609 0)"/>
     <use xlink:href="#DejaVuSans-Bold-6c" transform="translate(658.789062 0)"/>
     <use xlink:href="#DejaVuSans-Bold-69" transform="translate(693.066406 0)"/>
     <use xlink:href="#DejaVuSans-Bold-6e" transform="translate(727.34375 0)"/>
     <use xlink:href="#DejaVuSans-Bold-6b" transform="translate(798.535156 0)"/>
     <use xlink:href="#DejaVuSans-Bold-20" transform="translate(865.039062 0)"/>
     <use xlink:href="#DejaVuSans-Bold-74" transform="translate(899.853516 0)"/>
     <use xlink:href="#DejaVuSans-Bold-6f" transform="translate(947.65625 0)"/>
     <use xlink:href="#DejaVuSans-Bold-6f" transform="translate(1016.357422 0)"/>
     <use xlink:href="#DejaVuSans-Bold-6c" transform="translate(1085.058594 0)"/>
     <use xlink:href="#DejaVuSans-Bold-73" transform="translate(1119.335938 0)"/>
    </g>
   </g>
   <g id="text_7">
    <!-- Earn citations -->
    <g style="fill: #10b981" transform="translate(129.097221 389.623015) scale(0.12 -0.12)">
     <defs>
      <path id="DejaVuSans-Bold-45" d="M 588 4666 
L 3834 4666 
L 3834 3756 
L 1791 3756 
L 1791 2888 
L 3713 2888 
L 3713 1978 
L 1791 1978 
L 1791 909 
L 3903 909 
L 3903 0 
L 588 0 
L 588 4666 
z
" transform="scale(0.015625)"/>
     </defs>
     <use xlink:href="#DejaVuSans-Bold-45"/>
     <use xlink:href="#DejaVuSans-Bold-61" transform="translate(68.310547 0)"/>
     <use xlink:href="#DejaVuSans-Bold-72" transform="translate(135.791016 0)"/>
     <use xlink:href="#DejaVuSans-Bold-6e" transform="translate(185.107422 0)"/>
     <use xlink:href="#DejaVuSans-Bold-20" transform="translate(256.298828 0)"/>
     <use xlink:href="#DejaVuSans-Bold-63" transform="translate(291.113281 0)"/>
     <use xlink:href="#DejaVuSans-Bold-69" transform="translate(350.390625 0)"/>
     <use xlink:href="#DejaVuSans-Bold-74" transform="translate(384.667969 0)"/>
     <use xlink:href="#DejaVuSans-Bold-61" transform="translate(432.470703 0)"/>
     <use xlink:href="#DejaVuSans-Bold-74" transform="translate(499.951172 0)"/>
     <use xlink:href="#DejaVuSans-Bold-69" transform="translate(547.753906 0)"/>
     <use xlink:href="#DejaVuSans-Bold-6f" transform="translate(582.03125 0)"/>
     <use xlink:href="#DejaVuSans-Bold-6e" transform="translate(650.732422 0)"/>
     <use xlink:href="#DejaVuSans-Bold-73" transform="translate(721.923828 0)"/>
    </g>
   </g>
   <g id="text_8">
    <!-- Fake websites/pages -->
    <g style="fill: #ef4444" transform="translate(437.715279 389.57614) scale(0.12 -0.12)">
     <defs>
      <path id="DejaVuSans-Bold-46" d="M 588 4666 
L 3834 4666 
L 3834 3756 
L 1791 3756 
L 1791 2888 
L 3713 2888 
L 3713 1978 
L 1791 1978 
L 1791 0 
L 588 0 
L 588 4666 
z
" transform="scale(0.015625)"/>
      <path id="DejaVuSans-Bold-77" d="M 225 3500 
L 1313 3500 
L 1900 1088 
L 2491 3500 
L 3425 3500 
L 4013 1113 
L 4603 3500 
L 5691 3500 
L 4769 0 
L 3547 0 
L 2956 2406 
L 2369 0 
L 1147 0 
L 225 3500 
z
" transform="scale(0.015625)"/>
     </defs>
     <use xlink:href="#DejaVuSans-Bold-46"/>
     <use xlink:href="#DejaVuSans-Bold-61" transform="translate(62.435547 0)"/>
     <use xlink:href="#DejaVuSans-Bold-6b" transform="translate(129.916016 0)"/>
     <use xlink:href="#DejaVuSans-Bold-65" transform="translate(193.794922 0)"/>
     <use xlink:href="#DejaVuSans-Bold-20" transform="translate(261.617188 0)"/>
     <use xlink:href="#DejaVuSans-Bold-77" transform="translate(296.431641 0)"/>
     <use xlink:href="#DejaVuSans-Bold-65" transform="translate(388.814453 0)"/>
     <use xlink:href="#DejaVuSans-Bold-62" transform="translate(456.636719 0)"/>
     <use xlink:href="#DejaVuSans-Bold-73" transform="translate(528.21875 0)"/>
     <use xlink:href="#DejaVuSans-Bold-69" transform="translate(587.740234 0)"/>
     <use xlink:href="#DejaVuSans-Bold-74" transform="translate(622.017578 0)"/>
     <use xlink:href="#DejaVuSans-Bold-65" transform="translate(669.820312 0)"/>
     <use xlink:href="#DejaVuSans-Bold-73" transform="translate(737.642578 0)"/>
     <use xlink:href="#DejaVuSans-Bold-2f" transform="translate(797.164062 0)"/>
     <use xlink:href="#DejaVuSans-Bold-70" transform="translate(833.6875 0)"/>
     <use xlink:href="#DejaVuSans-Bold-61" transform="translate(905.269531 0)"/>
     <use xlink:href="#DejaVuSans-Bold-67" transform="translate(972.75 0)"/>
     <use xlink:href="#DejaVuSans-Bold-65" transform="translate(1044.332031 0)"/>
     <use xlink:href="#DejaVuSans-Bold-73" transform="translate(1112.154297 0)"/>
    </g>
   </g>
   <g id="text_9">
    <!-- Natural anchor text -->
    <g style="fill: #10b981" transform="translate(109.627221 471.152426) scale(0.12 -0.12)">
     <defs>
      <path id="DejaVuSans-Bold-4e" d="M 588 4666 
L 1931 4666 
L 3628 1466 
L 3628 4666 
L 4769 4666 
L 4769 0 
L 3425 0 
L 1728 3200 
L 1728 0 
L 588 0 
L 588 4666 
z
" transform="scale(0.015625)"/>
      <path id="DejaVuSans-Bold-78" d="M 1422 1791 
L 159 3500 
L 1344 3500 
L 2059 2463 
L 2784 3500 
L 3969 3500 
L 2706 1797 
L 4031 0 
L 2847 0 
L 2059 1106 
L 1281 0 
L 97 0 
L 1422 1791 
z
" transform="scale(0.015625)"/>
     </defs>
     <use xlink:href="#DejaVuSans-Bold-4e"/>
     <use xlink:href="#DejaVuSans-Bold-61" transform="translate(83.691406 0)"/>
     <use xlink:href="#DejaVuSans-Bold-74" transform="translate(151.171875 0)"/>
     <use xlink:href="#DejaVuSans-Bold-75" transform="translate(198.974609 0)"/>
     <use xlink:href="#DejaVuSans-Bold-72" transform="translate(270.166016 0)"/>
     <use xlink:href="#DejaVuSans-Bold-61" transform="translate(319.482422 0)"/>
     <use xlink:href="#DejaVuSans-Bold-6c" transform="translate(386.962891 0)"/>
     <use xlink:href="#DejaVuSans-Bold-20" transform="translate(421.240234 0)"/>
     <use xlink:href="#DejaVuSans-Bold-61" transform="translate(456.054688 0)"/>
     <use xlink:href="#DejaVuSans-Bold-6e" transform="translate(523.535156 0)"/>
     <use xlink:href="#DejaVuSans-Bold-63" transform="translate(594.726562 0)"/>
     <use xlink:href="#DejaVuSans-Bold-68" transform="translate(654.003906 0)"/>
     <use xlink:href="#DejaVuSans-Bold-6f" transform="translate(725.195312 0)"/>
     <use xlink:href="#DejaVuSans-Bold-72" transform="translate(793.896484 0)"/>
     <use xlink:href="#DejaVuSans-Bold-20" transform="translate(843.212891 0)"/>
     <use xlink:href="#DejaVuSans-Bold-74" transform="translate(878.027344 0)"/>
     <use xlink:href="#DejaVuSans-Bold-65" transform="translate(925.830078 0)"/>
     <use xlink:href="#DejaVuSans-Bold-78" transform="translate(993.652344 0)"/>
     <use xlink:href="#DejaVuSans-Bold-74" transform="translate(1058.154297 0)"/>
    </g>
   </g>
   <g id="text_10">
    <!-- Excessive exact match -->
    <g style="fill: #ef4444" transform="translate(431.653404 471.152426) scale(0.12 -0.12)">
     <use xlink:href="#DejaVuSans-Bold-45"/>
     <use xlink:href="#DejaVuSans-Bold-78" transform="translate(68.310547 0)"/>
     <use xlink:href="#DejaVuSans-Bold-63" transform="translate(132.8125 0)"/>
     <use xlink:href="#DejaVuSans-Bold-65" transform="translate(192.089844 0)"/>
     <use xlink:href="#DejaVuSans-Bold-73" transform="translate(259.912109 0)"/>
     <use xlink:href="#DejaVuSans-Bold-73" transform="translate(319.433594 0)"/>
     <use xlink:href="#DejaVuSans-Bold-69" transform="translate(378.955078 0)"/>
     <use xlink:href="#DejaVuSans-Bold-76" transform="translate(413.232422 0)"/>
     <use xlink:href="#DejaVuSans-Bold-65" transform="translate(478.417969 0)"/>
     <use xlink:href="#DejaVuSans-Bold-20" transform="translate(546.240234 0)"/>
     <use xlink:href="#DejaVuSans-Bold-65" transform="translate(581.054688 0)"/>
     <use xlink:href="#DejaVuSans-Bold-78" transform="translate(648.876953 0)"/>
     <use xlink:href="#DejaVuSans-Bold-61" transform="translate(713.378906 0)"/>
     <use xlink:href="#DejaVuSans-Bold-63" transform="translate(780.859375 0)"/>
     <use xlink:href="#DejaVuSans-Bold-74" transform="translate(840.136719 0)"/>
     <use xlink:href="#DejaVuSans-Bold-20" transform="translate(887.939453 0)"/>
     <use xlink:href="#DejaVuSans-Bold-6d" transform="translate(922.753906 0)"/>
     <use xlink:href="#DejaVuSans-Bold-61" transform="translate(1026.953125 0)"/>
     <use xlink:href="#DejaVuSans-Bold-74" transform="translate(1094.433594 0)"/>
     <use xlink:href="#DejaVuSans-Bold-63" transform="translate(1142.236328 0)"/>
     <use xlink:href="#DejaVuSans-Bold-68" transform="translate(1201.513672 0)"/>
    </g>
   </g>
   <g id="text_11">
    <!-- Ethical Practices -->
    <g style="fill: #10b981" transform="translate(110.497377 53.725654) scale(0.14 -0.14)">
     <use xlink:href="#DejaVuSans-Bold-45"/>
     <use xlink:href="#DejaVuSans-Bold-74" transform="translate(68.310547 0)"/>
     <use xlink:href="#DejaVuSans-Bold-68" transform="translate(116.113281 0)"/>
     <use xlink:href="#DejaVuSans-Bold-69" transform="translate(187.304688 0)"/>
     <use xlink:href="#DejaVuSans-Bold-63" transform="translate(221.582031 0)"/>
     <use xlink:href="#DejaVuSans-Bold-61" transform="translate(280.859375 0)"/>
     <use xlink:href="#DejaVuSans-Bold-6c" transform="translate(348.339844 0)"/>
     <use xlink:href="#DejaVuSans-Bold-20" transform="translate(382.617188 0)"/>
     <use xlink:href="#DejaVuSans-Bold-50" transform="translate(417.431641 0)"/>
     <use xlink:href="#DejaVuSans-Bold-72" transform="translate(490.722656 0)"/>
     <use xlink:href="#DejaVuSans-Bold-61" transform="translate(540.039062 0)"/>
     <use xlink:href="#DejaVuSans-Bold-63" transform="translate(607.519531 0)"/>
     <use xlink:href="#DejaVuSans-Bold-74" transform="translate(666.796875 0)"/>
     <use xlink:href="#DejaVuSans-Bold-69" transform="translate(714.599609 0)"/>
     <use xlink:href="#DejaVuSans-Bold-63" transform="translate(748.876953 0)"/>
     <use xlink:href="#DejaVuSans-Bold-65" transform="translate(808.154297 0)"/>
     <use xlink:href="#DejaVuSans-Bold-73" transform="translate(875.976562 0)"/>
    </g>
    <!-- (Earn through value) -->
    <g style="fill: #10b981" transform="translate(93.785971 69.402592) scale(0.14 -0.14)">
     <defs>
      <path id="DejaVuSans-Bold-28" d="M 2413 -844 
L 1484 -844 
Q 1006 -72 778 623 
Q 550 1319 550 2003 
Q 550 2688 779 3389 
Q 1009 4091 1484 4856 
L 2413 4856 
Q 2013 4116 1813 3408 
Q 1613 2700 1613 2009 
Q 1613 1319 1811 609 
Q 2009 -100 2413 -844 
z
" transform="scale(0.015625)"/>
      <path id="DejaVuSans-Bold-29" d="M 513 -844 
Q 913 -100 1113 609 
Q 1313 1319 1313 2009 
Q 1313 2700 1113 3408 
Q 913 4116 513 4856 
L 1441 4856 
Q 1916 4091 2145 3389 
Q 2375 2688 2375 2003 
Q 2375 1319 2147 623 
Q 1919 -72 1441 -844 
L 513 -844 
z
" transform="scale(0.015625)"/>
     </defs>
     <use xlink:href="#DejaVuSans-Bold-28"/>
     <use xlink:href="#DejaVuSans-Bold-45" transform="translate(45.703125 0)"/>
     <use xlink:href="#DejaVuSans-Bold-61" transform="translate(114.013672 0)"/>
     <use xlink:href="#DejaVuSans-Bold-72" transform="translate(181.494141 0)"/>
     <use xlink:href="#DejaVuSans-Bold-6e" transform="translate(230.810547 0)"/>
     <use xlink:href="#DejaVuSans-Bold-20" transform="translate(302.001953 0)"/>
     <use xlink:href="#DejaVuSans-Bold-74" transform="translate(336.816406 0)"/>
     <use xlink:href="#DejaVuSans-Bold-68" transform="translate(384.619141 0)"/>
     <use xlink:href="#DejaVuSans-Bold-72" transform="translate(455.810547 0)"/>
     <use xlink:href="#DejaVuSans-Bold-6f" transform="translate(505.126953 0)"/>
     <use xlink:href="#DejaVuSans-Bold-75" transform="translate(573.828125 0)"/>
     <use xlink:href="#DejaVuSans-Bold-67" transform="translate(645.019531 0)"/>
     <use xlink:href="#DejaVuSans-Bold-68" transform="translate(716.601562 0)"/>
     <use xlink:href="#DejaVuSans-Bold-20" transform="translate(787.792969 0)"/>
     <use xlink:href="#DejaVuSans-Bold-76" transform="translate(822.607422 0)"/>
     <use xlink:href="#DejaVuSans-Bold-61" transform="translate(887.792969 0)"/>
     <use xlink:href="#DejaVuSans-Bold-6c" transform="translate(955.273438 0)"/>
     <use xlink:href="#DejaVuSans-Bold-75" transform="translate(989.550781 0)"/>
     <use xlink:href="#DejaVuSans-Bold-65" transform="translate(1060.742188 0)"/>
     <use xlink:href="#DejaVuSans-Bold-29" transform="translate(1128.564453 0)"/>
    </g>
   </g>
   <g id="text_12">
    <!-- Manipulative Practices -->
    <g style="fill: #ef4444" transform="translate(418.067623 53.725654) scale(0.14 -0.14)">
     <defs>
      <path id="DejaVuSans-Bold-4d" d="M 588 4666 
L 2119 4666 
L 3181 2169 
L 4250 4666 
L 5778 4666 
L 5778 0 
L 4641 0 
L 4641 3413 
L 3566 897 
L 2803 897 
L 1728 3413 
L 1728 0 
L 588 0 
L 588 4666 
z
" transform="scale(0.015625)"/>
     </defs>
     <use xlink:href="#DejaVuSans-Bold-4d"/>
     <use xlink:href="#DejaVuSans-Bold-61" transform="translate(99.511719 0)"/>
     <use xlink:href="#DejaVuSans-Bold-6e" transform="translate(166.992188 0)"/>
     <use xlink:href="#DejaVuSans-Bold-69" transform="translate(238.183594 0)"/>
     <use xlink:href="#DejaVuSans-Bold-70" transform="translate(272.460938 0)"/>
     <use xlink:href="#DejaVuSans-Bold-75" transform="translate(344.042969 0)"/>
     <use xlink:href="#DejaVuSans-Bold-6c" transform="translate(415.234375 0)"/>
     <use xlink:href="#DejaVuSans-Bold-61" transform="translate(449.511719 0)"/>
     <use xlink:href="#DejaVuSans-Bold-74" transform="translate(516.992188 0)"/>
     <use xlink:href="#DejaVuSans-Bold-69" transform="translate(564.794922 0)"/>
     <use xlink:href="#DejaVuSans-Bold-76" transform="translate(599.072266 0)"/>
     <use xlink:href="#DejaVuSans-Bold-65" transform="translate(664.257812 0)"/>
     <use xlink:href="#DejaVuSans-Bold-20" transform="translate(732.080078 0)"/>
     <use xlink:href="#DejaVuSans-Bold-50" transform="translate(766.894531 0)"/>
     <use xlink:href="#DejaVuSans-Bold-72" transform="translate(840.185547 0)"/>
     <use xlink:href="#DejaVuSans-Bold-61" transform="translate(889.501953 0)"/>
     <use xlink:href="#DejaVuSans-Bold-63" transform="translate(956.982422 0)"/>
     <use xlink:href="#DejaVuSans-Bold-74" transform="translate(1016.259766 0)"/>
     <use xlink:href="#DejaVuSans-Bold-69" transform="translate(1064.0625 0)"/>
     <use xlink:href="#DejaVuSans-Bold-63" transform="translate(1098.339844 0)"/>
     <use xlink:href="#DejaVuSans-Bold-65" transform="translate(1157.617188 0)"/>
     <use xlink:href="#DejaVuSans-Bold-73" transform="translate(1225.439453 0)"/>
    </g>
    <!-- (Violate guidelines) -->
    <g style="fill: #ef4444" transform="translate(430.611841 69.402592) scale(0.14 -0.14)">
     <defs>
      <path id="DejaVuSans-Bold-56" d="M 31 4666 
L 1241 4666 
L 2478 1222 
L 3713 4666 
L 4922 4666 
L 3194 0 
L 1759 0 
L 31 4666 
z
" transform="scale(0.015625)"/>
     </defs>
     <use xlink:href="#DejaVuSans-Bold-28"/>
     <use xlink:href="#DejaVuSans-Bold-56" transform="translate(45.703125 0)"/>
     <use xlink:href="#DejaVuSans-Bold-69" transform="translate(121.345703 0)"/>
     <use xlink:href="#DejaVuSans-Bold-6f" transform="translate(155.623047 0)"/>
     <use xlink:href="#DejaVuSans-Bold-6c" transform="translate(224.324219 0)"/>
     <use xlink:href="#DejaVuSans-Bold-61" transform="translate(258.601562 0)"/>
     <use xlink:href="#DejaVuSans-Bold-74" transform="translate(326.082031 0)"/>
     <use xlink:href="#DejaVuSans-Bold-65" transform="translate(373.884766 0)"/>
     <use xlink:href="#DejaVuSans-Bold-20" transform="translate(441.707031 0)"/>
     <use xlink:href="#DejaVuSans-Bold-67" transform="translate(476.521484 0)"/>
     <use xlink:href="#DejaVuSans-Bold-75" transform="translate(548.103516 0)"/>
     <use xlink:href="#DejaVuSans-Bold-69" transform="translate(619.294922 0)"/>
     <use xlink:href="#DejaVuSans-Bold-64" transform="translate(653.572266 0)"/>
     <use xlink:href="#DejaVuSans-Bold-65" transform="translate(725.154297 0)"/>
     <use xlink:href="#DejaVuSans-Bold-6c" transform="translate(792.976562 0)"/>
     <use xlink:href="#DejaVuSans-Bold-69" transform="translate(827.253906 0)"/>
     <use xlink:href="#DejaVuSans-Bold-6e" transform="translate(861.53125 0)"/>
     <use xlink:href="#DejaVuSans-Bold-65" transform="translate(932.722656 0)"/>
     <use xlink:href="#DejaVuSans-Bold-73" transform="translate(1000.544922 0)"/>
     <use xlink:href="#DejaVuSans-Bold-29" transform="translate(1060.066406 0)"/>
    </g>
   </g>
  </g>
 </g>
 <defs>
  <clipPath id="p3722d36c06">
   <rect x="7.2" y="7.2" width="669.6" height="554.4"/>
  </clipPath>
 </defs>
</svg>
