<?xml version="1.0" encoding="utf-8" standalone="no"?>
<!DOCTYPE svg PUBLIC "-//W3C//DTD SVG 1.1//EN"
  "http://www.w3.org/Graphics/SVG/1.1/DTD/svg11.dtd">
<svg xmlns:xlink="http://www.w3.org/1999/xlink" width="864pt" height="720pt" viewBox="0 0 864 720" xmlns="http://www.w3.org/2000/svg" version="1.1">
 <metadata>
  <rdf:RDF xmlns:dc="http://purl.org/dc/elements/1.1/" xmlns:cc="http://creativecommons.org/ns#" xmlns:rdf="http://www.w3.org/1999/02/22-rdf-syntax-ns#">
   <cc:Work>
    <dc:type rdf:resource="http://purl.org/dc/dcmitype/StillImage"/>
    <dc:date>2025-12-26T12:55:29.787799</dc:date>
    <dc:format>image/svg+xml</dc:format>
    <dc:creator>
     <cc:Agent>
      <dc:title>Matplotlib v3.10.8, https://matplotlib.org/</dc:title>
     </cc:Agent>
    </dc:creator>
   </cc:Work>
  </rdf:RDF>
 </metadata>
 <defs>
  <style type="text/css">*{stroke-linejoin: round; stroke-linecap: butt}</style>
 </defs>
 <g id="figure_1">
  <g id="patch_1">
   <path d="M 0 720 
L 864 720 
L 864 0 
L 0 0 
z
" style="fill: #f8f9fa"/>
  </g>
  <g id="axes_1">
   <g id="patch_2">
    <path d="M 485.462543 166.601163 
Q 464.827819 187.886974 444.971291 208.370034 
" clip-path="url(#pde86badcfc)" style="fill: none; opacity: 0.4; stroke: #f59e0b; stroke-linecap: round"/>
    <path d="M 445.393308 208.222041 
L 444.971291 208.370034 
L 445.106107 207.943625 
" clip-path="url(#pde86badcfc)" style="fill: none; opacity: 0.4; stroke: #f59e0b; stroke-linecap: round"/>
   </g>
   <g id="patch_3">
    <path d="M 332.668421 197.462983 
Q 332.668421 210.610275 332.668421 222.080515 
" clip-path="url(#pde86badcfc)" style="fill: none; opacity: 0.5; stroke: #6b7280; stroke-width: 1.5; stroke-linecap: round"/>
    <path d="M 332.868421 221.680515 
L 332.668421 222.080515 
L 332.468421 221.680515 
" clip-path="url(#pde86badcfc)" style="fill: none; opacity: 0.5; stroke: #6b7280; stroke-width: 1.5; stroke-linecap: round"/>
   </g>
   <g id="patch_4">
    <path d="M 485.462543 257.486409 
Q 464.827819 278.77222 444.971291 299.25528 
" clip-path="url(#pde86badcfc)" style="fill: none; opacity: 0.4; stroke: #f59e0b; stroke-linecap: round"/>
    <path d="M 445.393308 299.107287 
L 444.971291 299.25528 
L 445.106107 298.828871 
" clip-path="url(#pde86badcfc)" style="fill: none; opacity: 0.4; stroke: #f59e0b; stroke-linecap: round"/>
   </g>
   <g id="patch_5">
    <path d="M 332.668421 288.348229 
Q 332.668421 301.495521 332.668421 312.965761 
" clip-path="url(#pde86badcfc)" style="fill: none; opacity: 0.5; stroke: #6b7280; stroke-width: 1.5; stroke-linecap: round"/>
    <path d="M 332.868421 312.565761 
L 332.668421 312.965761 
L 332.468421 312.565761 
" clip-path="url(#pde86badcfc)" style="fill: none; opacity: 0.5; stroke: #6b7280; stroke-width: 1.5; stroke-linecap: round"/>
   </g>
   <g id="patch_6">
    <path d="M 485.462543 348.371655 
Q 464.827819 369.657466 444.971291 390.140526 
" clip-path="url(#pde86badcfc)" style="fill: none; opacity: 0.4; stroke: #f59e0b; stroke-linecap: round"/>
    <path d="M 445.393308 389.992533 
L 444.971291 390.140526 
L 445.106107 389.714117 
" clip-path="url(#pde86badcfc)" style="fill: none; opacity: 0.4; stroke: #f59e0b; stroke-linecap: round"/>
   </g>
   <g id="patch_7">
    <path d="M 332.668421 379.233475 
Q 332.668421 392.380766 332.668421 403.851007 
" clip-path="url(#pde86badcfc)" style="fill: none; opacity: 0.5; stroke: #6b7280; stroke-width: 1.5; stroke-linecap: round"/>
    <path d="M 332.868421 403.451007 
L 332.668421 403.851007 
L 332.468421 403.451007 
" clip-path="url(#pde86badcfc)" style="fill: none; opacity: 0.5; stroke: #6b7280; stroke-width: 1.5; stroke-linecap: round"/>
   </g>
   <g id="patch_8">
    <path d="M 485.462543 439.256901 
Q 464.827819 460.542712 444.971291 481.025772 
" clip-path="url(#pde86badcfc)" style="fill: none; opacity: 0.4; stroke: #f59e0b; stroke-linecap: round"/>
    <path d="M 445.393308 480.877779 
L 444.971291 481.025772 
L 445.106107 480.599363 
" clip-path="url(#pde86badcfc)" style="fill: none; opacity: 0.4; stroke: #f59e0b; stroke-linecap: round"/>
   </g>
   <g id="patch_9">
    <path d="M 332.668421 470.118721 
Q 332.668421 483.266012 332.668421 494.736253 
" clip-path="url(#pde86badcfc)" style="fill: none; opacity: 0.5; stroke: #6b7280; stroke-width: 1.5; stroke-linecap: round"/>
    <path d="M 332.868421 494.336253 
L 332.668421 494.736253 
L 332.468421 494.336253 
" clip-path="url(#pde86badcfc)" style="fill: none; opacity: 0.5; stroke: #6b7280; stroke-width: 1.5; stroke-linecap: round"/>
   </g>
   <g id="patch_10">
    <path d="M 485.462543 530.142147 
Q 464.827819 551.427958 444.971291 571.911018 
" clip-path="url(#pde86badcfc)" style="fill: none; opacity: 0.4; stroke: #f59e0b; stroke-linecap: round"/>
    <path d="M 445.393308 571.763025 
L 444.971291 571.911018 
L 445.106107 571.484608 
" clip-path="url(#pde86badcfc)" style="fill: none; opacity: 0.4; stroke: #f59e0b; stroke-linecap: round"/>
   </g>
   <g id="patch_11">
    <path d="M 178.484211 204.55082 
L 486.852632 204.55082 
Q 500.068421 204.55082 500.068421 195.462295 
L 500.068421 134.872131 
Q 500.068421 125.783607 486.852632 125.783607 
L 178.484211 125.783607 
Q 165.268421 125.783607 165.268421 134.872131 
L 165.268421 195.462295 
Q 165.268421 204.55082 178.484211 204.55082 
z
" clip-path="url(#pde86badcfc)" style="fill: #2563eb; opacity: 0.2; stroke: #2563eb; stroke-width: 1.5; stroke-linejoin: miter"/>
   </g>
   <g id="patch_12">
    <path d="M 442.8 234.845902 
L 707.115789 234.845902 
Q 715.926316 234.845902 715.926316 228.786885 
L 715.926316 192.432787 
Q 715.926316 186.37377 707.115789 186.37377 
L 442.8 186.37377 
Q 433.989474 186.37377 433.989474 192.432787 
L 433.989474 228.786885 
Q 433.989474 234.845902 442.8 234.845902 
z
" clip-path="url(#pde86badcfc)" style="fill: #f59e0b; opacity: 0.15; stroke: #f59e0b; stroke-linejoin: miter"/>
   </g>
   <g id="patch_13">
    <path d="M 178.484211 295.436066 
L 486.852632 295.436066 
Q 500.068421 295.436066 500.068421 286.347541 
L 500.068421 225.757377 
Q 500.068421 216.668852 486.852632 216.668852 
L 178.484211 216.668852 
Q 165.268421 216.668852 165.268421 225.757377 
L 165.268421 286.347541 
Q 165.268421 295.436066 178.484211 295.436066 
z
" clip-path="url(#pde86badcfc)" style="fill: #2563eb; opacity: 0.2; stroke: #2563eb; stroke-width: 1.5; stroke-linejoin: miter"/>
   </g>
   <g id="patch_14">
    <path d="M 442.8 325.731148 
L 707.115789 325.731148 
Q 715.926316 325.731148 715.926316 319.672131 
L 715.926316 283.318033 
Q 715.926316 277.259016 707.115789 277.259016 
L 442.8 277.259016 
Q 433.989474 277.259016 433.989474 283.318033 
L 433.989474 319.672131 
Q 433.989474 325.731148 442.8 325.731148 
z
" clip-path="url(#pde86badcfc)" style="fill: #f59e0b; opacity: 0.15; stroke: #f59e0b; stroke-linejoin: miter"/>
   </g>
   <g id="patch_15">
    <path d="M 178.484211 386.321311 
L 486.852632 386.321311 
Q 500.068421 386.321311 500.068421 377.232787 
L 500.068421 316.642623 
Q 500.068421 307.554098 486.852632 307.554098 
L 178.484211 307.554098 
Q 165.268421 307.554098 165.268421 316.642623 
L 165.268421 377.232787 
Q 165.268421 386.321311 178.484211 386.321311 
z
" clip-path="url(#pde86badcfc)" style="fill: #2563eb; opacity: 0.2; stroke: #2563eb; stroke-width: 1.5; stroke-linejoin: miter"/>
   </g>
   <g id="patch_16">
    <path d="M 442.8 416.616393 
L 707.115789 416.616393 
Q 715.926316 416.616393 715.926316 410.557377 
L 715.926316 374.203279 
Q 715.926316 368.144262 707.115789 368.144262 
L 442.8 368.144262 
Q 433.989474 368.144262 433.989474 374.203279 
L 433.989474 410.557377 
Q 433.989474 416.616393 442.8 416.616393 
z
" clip-path="url(#pde86badcfc)" style="fill: #f59e0b; opacity: 0.15; stroke: #f59e0b; stroke-linejoin: miter"/>
   </g>
   <g id="patch_17">
    <path d="M 178.484211 477.206557 
L 486.852632 477.206557 
Q 500.068421 477.206557 500.068421 468.118033 
L 500.068421 407.527869 
Q 500.068421 398.439344 486.852632 398.439344 
L 178.484211 398.439344 
Q 165.268421 398.439344 165.268421 407.527869 
L 165.268421 468.118033 
Q 165.268421 477.206557 178.484211 477.206557 
z
" clip-path="url(#pde86badcfc)" style="fill: #2563eb; opacity: 0.2; stroke: #2563eb; stroke-width: 1.5; stroke-linejoin: miter"/>
   </g>
   <g id="patch_18">
    <path d="M 442.8 507.501639 
L 707.115789 507.501639 
Q 715.926316 507.501639 715.926316 501.442623 
L 715.926316 465.088525 
Q 715.926316 459.029508 707.115789 459.029508 
L 442.8 459.029508 
Q 433.989474 459.029508 433.989474 465.088525 
L 433.989474 501.442623 
Q 433.989474 507.501639 442.8 507.501639 
z
" clip-path="url(#pde86badcfc)" style="fill: #f59e0b; opacity: 0.15; stroke: #f59e0b; stroke-linejoin: miter"/>
   </g>
   <g id="patch_19">
    <path d="M 178.484211 568.091803 
L 486.852632 568.091803 
Q 500.068421 568.091803 500.068421 559.003279 
L 500.068421 498.413115 
Q 500.068421 489.32459 486.852632 489.32459 
L 178.484211 489.32459 
Q 165.268421 489.32459 165.268421 498.413115 
L 165.268421 559.003279 
Q 165.268421 568.091803 178.484211 568.091803 
z
" clip-path="url(#pde86badcfc)" style="fill: #2563eb; opacity: 0.2; stroke: #2563eb; stroke-width: 1.5; stroke-linejoin: miter"/>
   </g>
   <g id="patch_20">
    <path d="M 442.8 598.386885 
L 707.115789 598.386885 
Q 715.926316 598.386885 715.926316 592.327869 
L 715.926316 555.97377 
Q 715.926316 549.914754 707.115789 549.914754 
L 442.8 549.914754 
Q 433.989474 549.914754 433.989474 555.97377 
L 433.989474 592.327869 
Q 433.989474 598.386885 442.8 598.386885 
z
" clip-path="url(#pde86badcfc)" style="fill: #f59e0b; opacity: 0.15; stroke: #f59e0b; stroke-linejoin: miter"/>
   </g>
   <g id="text_1">
    <!-- Examine SERP -->
    <g style="fill: #2563eb" transform="translate(284.474359 161.759776) scale(0.12 -0.12)">
     <defs>
      <path id="DejaVuSans-Bold-45" d="M 588 4666 
L 3834 4666 
L 3834 3756 
L 1791 3756 
L 1791 2888 
L 3713 2888 
L 3713 1978 
L 1791 1978 
L 1791 909 
L 3903 909 
L 3903 0 
L 588 0 
L 588 4666 
z
" transform="scale(0.015625)"/>
      <path id="DejaVuSans-Bold-78" d="M 1422 1791 
L 159 3500 
L 1344 3500 
L 2059 2463 
L 2784 3500 
L 3969 3500 
L 2706 1797 
L 4031 0 
L 2847 0 
L 2059 1106 
L 1281 0 
L 97 0 
L 1422 1791 
z
" transform="scale(0.015625)"/>
      <path id="DejaVuSans-Bold-61" d="M 2106 1575 
Q 1756 1575 1579 1456 
Q 1403 1338 1403 1106 
Q 1403 894 1545 773 
Q 1688 653 1941 653 
Q 2256 653 2472 879 
Q 2688 1106 2688 1447 
L 2688 1575 
L 2106 1575 
z
M 3816 1997 
L 3816 0 
L 2688 0 
L 2688 519 
Q 2463 200 2181 54 
Q 1900 -91 1497 -91 
Q 953 -91 614 226 
Q 275 544 275 1050 
Q 275 1666 698 1953 
Q 1122 2241 2028 2241 
L 2688 2241 
L 2688 2328 
Q 2688 2594 2478 2717 
Q 2269 2841 1825 2841 
Q 1466 2841 1156 2769 
Q 847 2697 581 2553 
L 581 3406 
Q 941 3494 1303 3539 
Q 1666 3584 2028 3584 
Q 2975 3584 3395 3211 
Q 3816 2838 3816 1997 
z
" transform="scale(0.015625)"/>
      <path id="DejaVuSans-Bold-6d" d="M 3781 2919 
Q 3994 3244 4286 3414 
Q 4578 3584 4928 3584 
Q 5531 3584 5847 3212 
Q 6163 2841 6163 2131 
L 6163 0 
L 5038 0 
L 5038 1825 
Q 5041 1866 5042 1909 
Q 5044 1953 5044 2034 
Q 5044 2406 4934 2573 
Q 4825 2741 4581 2741 
Q 4263 2741 4089 2478 
Q 3916 2216 3909 1719 
L 3909 0 
L 2784 0 
L 2784 1825 
Q 2784 2406 2684 2573 
Q 2584 2741 2328 2741 
Q 2006 2741 1831 2477 
Q 1656 2213 1656 1722 
L 1656 0 
L 531 0 
L 531 3500 
L 1656 3500 
L 1656 2988 
Q 1863 3284 2130 3434 
Q 2397 3584 2719 3584 
Q 3081 3584 3359 3409 
Q 3638 3234 3781 2919 
z
" transform="scale(0.015625)"/>
      <path id="DejaVuSans-Bold-69" d="M 538 3500 
L 1656 3500 
L 1656 0 
L 538 0 
L 538 3500 
z
M 538 4863 
L 1656 4863 
L 1656 3950 
L 538 3950 
L 538 4863 
z
" transform="scale(0.015625)"/>
      <path id="DejaVuSans-Bold-6e" d="M 4056 2131 
L 4056 0 
L 2931 0 
L 2931 347 
L 2931 1631 
Q 2931 2084 2911 2256 
Q 2891 2428 2841 2509 
Q 2775 2619 2662 2680 
Q 2550 2741 2406 2741 
Q 2056 2741 1856 2470 
Q 1656 2200 1656 1722 
L 1656 0 
L 538 0 
L 538 3500 
L 1656 3500 
L 1656 2988 
Q 1909 3294 2193 3439 
Q 2478 3584 2822 3584 
Q 3428 3584 3742 3212 
Q 4056 2841 4056 2131 
z
" transform="scale(0.015625)"/>
      <path id="DejaVuSans-Bold-65" d="M 4031 1759 
L 4031 1441 
L 1416 1441 
Q 1456 1047 1700 850 
Q 1944 653 2381 653 
Q 2734 653 3104 758 
Q 3475 863 3866 1075 
L 3866 213 
Q 3469 63 3072 -14 
Q 2675 -91 2278 -91 
Q 1328 -91 801 392 
Q 275 875 275 1747 
Q 275 2603 792 3093 
Q 1309 3584 2216 3584 
Q 3041 3584 3536 3087 
Q 4031 2591 4031 1759 
z
M 2881 2131 
Q 2881 2450 2695 2645 
Q 2509 2841 2209 2841 
Q 1884 2841 1681 2658 
Q 1478 2475 1428 2131 
L 2881 2131 
z
" transform="scale(0.015625)"/>
      <path id="DejaVuSans-Bold-20" transform="scale(0.015625)"/>
      <path id="DejaVuSans-Bold-53" d="M 3834 4519 
L 3834 3531 
Q 3450 3703 3084 3790 
Q 2719 3878 2394 3878 
Q 1963 3878 1756 3759 
Q 1550 3641 1550 3391 
Q 1550 3203 1689 3098 
Q 1828 2994 2194 2919 
L 2706 2816 
Q 3484 2659 3812 2340 
Q 4141 2022 4141 1434 
Q 4141 663 3683 286 
Q 3225 -91 2284 -91 
Q 1841 -91 1394 -6 
Q 947 78 500 244 
L 500 1259 
Q 947 1022 1364 901 
Q 1781 781 2169 781 
Q 2563 781 2772 912 
Q 2981 1044 2981 1288 
Q 2981 1506 2839 1625 
Q 2697 1744 2272 1838 
L 1806 1941 
Q 1106 2091 782 2419 
Q 459 2747 459 3303 
Q 459 4000 909 4375 
Q 1359 4750 2203 4750 
Q 2588 4750 2994 4692 
Q 3400 4634 3834 4519 
z
" transform="scale(0.015625)"/>
      <path id="DejaVuSans-Bold-52" d="M 2297 2597 
Q 2675 2597 2839 2737 
Q 3003 2878 3003 3200 
Q 3003 3519 2839 3656 
Q 2675 3794 2297 3794 
L 1791 3794 
L 1791 2597 
L 2297 2597 
z
M 1791 1766 
L 1791 0 
L 588 0 
L 588 4666 
L 2425 4666 
Q 3347 4666 3776 4356 
Q 4206 4047 4206 3378 
Q 4206 2916 3982 2619 
Q 3759 2322 3309 2181 
Q 3556 2125 3751 1926 
Q 3947 1728 4147 1325 
L 4800 0 
L 3519 0 
L 2950 1159 
Q 2778 1509 2601 1637 
Q 2425 1766 2131 1766 
L 1791 1766 
z
" transform="scale(0.015625)"/>
      <path id="DejaVuSans-Bold-50" d="M 588 4666 
L 2584 4666 
Q 3475 4666 3951 4270 
Q 4428 3875 4428 3144 
Q 4428 2409 3951 2014 
Q 3475 1619 2584 1619 
L 1791 1619 
L 1791 0 
L 588 0 
L 588 4666 
z
M 1791 3794 
L 1791 2491 
L 2456 2491 
Q 2806 2491 2997 2661 
Q 3188 2831 3188 3144 
Q 3188 3456 2997 3625 
Q 2806 3794 2456 3794 
L 1791 3794 
z
" transform="scale(0.015625)"/>
     </defs>
     <use xlink:href="#DejaVuSans-Bold-45"/>
     <use xlink:href="#DejaVuSans-Bold-78" transform="translate(68.310547 0)"/>
     <use xlink:href="#DejaVuSans-Bold-61" transform="translate(132.8125 0)"/>
     <use xlink:href="#DejaVuSans-Bold-6d" transform="translate(200.292969 0)"/>
     <use xlink:href="#DejaVuSans-Bold-69" transform="translate(304.492188 0)"/>
     <use xlink:href="#DejaVuSans-Bold-6e" transform="translate(338.769531 0)"/>
     <use xlink:href="#DejaVuSans-Bold-65" transform="translate(409.960938 0)"/>
     <use xlink:href="#DejaVuSans-Bold-20" transform="translate(477.783203 0)"/>
     <use xlink:href="#DejaVuSans-Bold-53" transform="translate(512.597656 0)"/>
     <use xlink:href="#DejaVuSans-Bold-45" transform="translate(584.619141 0)"/>
     <use xlink:href="#DejaVuSans-Bold-52" transform="translate(652.929688 0)"/>
     <use xlink:href="#DejaVuSans-Bold-50" transform="translate(729.931641 0)"/>
    </g>
    <!-- Composition -->
    <g style="fill: #2563eb" transform="translate(290.527796 175.197151) scale(0.12 -0.12)">
     <defs>
      <path id="DejaVuSans-Bold-43" d="M 4288 256 
Q 3956 84 3597 -3 
Q 3238 -91 2847 -91 
Q 1681 -91 1000 561 
Q 319 1213 319 2328 
Q 319 3447 1000 4098 
Q 1681 4750 2847 4750 
Q 3238 4750 3597 4662 
Q 3956 4575 4288 4403 
L 4288 3438 
Q 3953 3666 3628 3772 
Q 3303 3878 2944 3878 
Q 2300 3878 1931 3465 
Q 1563 3053 1563 2328 
Q 1563 1606 1931 1193 
Q 2300 781 2944 781 
Q 3303 781 3628 887 
Q 3953 994 4288 1222 
L 4288 256 
z
" transform="scale(0.015625)"/>
      <path id="DejaVuSans-Bold-6f" d="M 2203 2784 
Q 1831 2784 1636 2517 
Q 1441 2250 1441 1747 
Q 1441 1244 1636 976 
Q 1831 709 2203 709 
Q 2569 709 2762 976 
Q 2956 1244 2956 1747 
Q 2956 2250 2762 2517 
Q 2569 2784 2203 2784 
z
M 2203 3584 
Q 3106 3584 3614 3096 
Q 4122 2609 4122 1747 
Q 4122 884 3614 396 
Q 3106 -91 2203 -91 
Q 1297 -91 786 396 
Q 275 884 275 1747 
Q 275 2609 786 3096 
Q 1297 3584 2203 3584 
z
" transform="scale(0.015625)"/>
      <path id="DejaVuSans-Bold-70" d="M 1656 506 
L 1656 -1331 
L 538 -1331 
L 538 3500 
L 1656 3500 
L 1656 2988 
Q 1888 3294 2169 3439 
Q 2450 3584 2816 3584 
Q 3463 3584 3878 3070 
Q 4294 2556 4294 1747 
Q 4294 938 3878 423 
Q 3463 -91 2816 -91 
Q 2450 -91 2169 54 
Q 1888 200 1656 506 
z
M 2400 2772 
Q 2041 2772 1848 2508 
Q 1656 2244 1656 1747 
Q 1656 1250 1848 986 
Q 2041 722 2400 722 
Q 2759 722 2948 984 
Q 3138 1247 3138 1747 
Q 3138 2247 2948 2509 
Q 2759 2772 2400 2772 
z
" transform="scale(0.015625)"/>
      <path id="DejaVuSans-Bold-73" d="M 3272 3391 
L 3272 2541 
Q 2913 2691 2578 2766 
Q 2244 2841 1947 2841 
Q 1628 2841 1473 2761 
Q 1319 2681 1319 2516 
Q 1319 2381 1436 2309 
Q 1553 2238 1856 2203 
L 2053 2175 
Q 2913 2066 3209 1816 
Q 3506 1566 3506 1031 
Q 3506 472 3093 190 
Q 2681 -91 1863 -91 
Q 1516 -91 1145 -36 
Q 775 19 384 128 
L 384 978 
Q 719 816 1070 734 
Q 1422 653 1784 653 
Q 2113 653 2278 743 
Q 2444 834 2444 1013 
Q 2444 1163 2330 1236 
Q 2216 1309 1875 1350 
L 1678 1375 
Q 931 1469 631 1722 
Q 331 1975 331 2491 
Q 331 3047 712 3315 
Q 1094 3584 1881 3584 
Q 2191 3584 2531 3537 
Q 2872 3491 3272 3391 
z
" transform="scale(0.015625)"/>
      <path id="DejaVuSans-Bold-74" d="M 1759 4494 
L 1759 3500 
L 2913 3500 
L 2913 2700 
L 1759 2700 
L 1759 1216 
Q 1759 972 1856 886 
Q 1953 800 2241 800 
L 2816 800 
L 2816 0 
L 1856 0 
Q 1194 0 917 276 
Q 641 553 641 1216 
L 641 2700 
L 84 2700 
L 84 3500 
L 641 3500 
L 641 4494 
L 1759 4494 
z
" transform="scale(0.015625)"/>
     </defs>
     <use xlink:href="#DejaVuSans-Bold-43"/>
     <use xlink:href="#DejaVuSans-Bold-6f" transform="translate(73.388672 0)"/>
     <use xlink:href="#DejaVuSans-Bold-6d" transform="translate(142.089844 0)"/>
     <use xlink:href="#DejaVuSans-Bold-70" transform="translate(246.289062 0)"/>
     <use xlink:href="#DejaVuSans-Bold-6f" transform="translate(317.871094 0)"/>
     <use xlink:href="#DejaVuSans-Bold-73" transform="translate(386.572266 0)"/>
     <use xlink:href="#DejaVuSans-Bold-69" transform="translate(446.09375 0)"/>
     <use xlink:href="#DejaVuSans-Bold-74" transform="translate(480.371094 0)"/>
     <use xlink:href="#DejaVuSans-Bold-69" transform="translate(528.173828 0)"/>
     <use xlink:href="#DejaVuSans-Bold-6f" transform="translate(562.451172 0)"/>
     <use xlink:href="#DejaVuSans-Bold-6e" transform="translate(631.152344 0)"/>
    </g>
   </g>
   <g id="text_2">
    <!-- Organic results, Ads, Features -->
    <g style="fill: #4b5563" transform="translate(515.15977 212.817336) scale(0.08 -0.08)">
     <defs>
      <path id="DejaVuSans-4f" d="M 2522 4238 
Q 1834 4238 1429 3725 
Q 1025 3213 1025 2328 
Q 1025 1447 1429 934 
Q 1834 422 2522 422 
Q 3209 422 3611 934 
Q 4013 1447 4013 2328 
Q 4013 3213 3611 3725 
Q 3209 4238 2522 4238 
z
M 2522 4750 
Q 3503 4750 4090 4092 
Q 4678 3434 4678 2328 
Q 4678 1225 4090 567 
Q 3503 -91 2522 -91 
Q 1538 -91 948 565 
Q 359 1222 359 2328 
Q 359 3434 948 4092 
Q 1538 4750 2522 4750 
z
" transform="scale(0.015625)"/>
      <path id="DejaVuSans-72" d="M 2631 2963 
Q 2534 3019 2420 3045 
Q 2306 3072 2169 3072 
Q 1681 3072 1420 2755 
Q 1159 2438 1159 1844 
L 1159 0 
L 581 0 
L 581 3500 
L 1159 3500 
L 1159 2956 
Q 1341 3275 1631 3429 
Q 1922 3584 2338 3584 
Q 2397 3584 2469 3576 
Q 2541 3569 2628 3553 
L 2631 2963 
z
" transform="scale(0.015625)"/>
      <path id="DejaVuSans-67" d="M 2906 1791 
Q 2906 2416 2648 2759 
Q 2391 3103 1925 3103 
Q 1463 3103 1205 2759 
Q 947 2416 947 1791 
Q 947 1169 1205 825 
Q 1463 481 1925 481 
Q 2391 481 2648 825 
Q 2906 1169 2906 1791 
z
M 3481 434 
Q 3481 -459 3084 -895 
Q 2688 -1331 1869 -1331 
Q 1566 -1331 1297 -1286 
Q 1028 -1241 775 -1147 
L 775 -588 
Q 1028 -725 1275 -790 
Q 1522 -856 1778 -856 
Q 2344 -856 2625 -561 
Q 2906 -266 2906 331 
L 2906 616 
Q 2728 306 2450 153 
Q 2172 0 1784 0 
Q 1141 0 747 490 
Q 353 981 353 1791 
Q 353 2603 747 3093 
Q 1141 3584 1784 3584 
Q 2172 3584 2450 3431 
Q 2728 3278 2906 2969 
L 2906 3500 
L 3481 3500 
L 3481 434 
z
" transform="scale(0.015625)"/>
      <path id="DejaVuSans-61" d="M 2194 1759 
Q 1497 1759 1228 1600 
Q 959 1441 959 1056 
Q 959 750 1161 570 
Q 1363 391 1709 391 
Q 2188 391 2477 730 
Q 2766 1069 2766 1631 
L 2766 1759 
L 2194 1759 
z
M 3341 1997 
L 3341 0 
L 2766 0 
L 2766 531 
Q 2569 213 2275 61 
Q 1981 -91 1556 -91 
Q 1019 -91 701 211 
Q 384 513 384 1019 
Q 384 1609 779 1909 
Q 1175 2209 1959 2209 
L 2766 2209 
L 2766 2266 
Q 2766 2663 2505 2880 
Q 2244 3097 1772 3097 
Q 1472 3097 1187 3025 
Q 903 2953 641 2809 
L 641 3341 
Q 956 3463 1253 3523 
Q 1550 3584 1831 3584 
Q 2591 3584 2966 3190 
Q 3341 2797 3341 1997 
z
" transform="scale(0.015625)"/>
      <path id="DejaVuSans-6e" d="M 3513 2113 
L 3513 0 
L 2938 0 
L 2938 2094 
Q 2938 2591 2744 2837 
Q 2550 3084 2163 3084 
Q 1697 3084 1428 2787 
Q 1159 2491 1159 1978 
L 1159 0 
L 581 0 
L 581 3500 
L 1159 3500 
L 1159 2956 
Q 1366 3272 1645 3428 
Q 1925 3584 2291 3584 
Q 2894 3584 3203 3211 
Q 3513 2838 3513 2113 
z
" transform="scale(0.015625)"/>
      <path id="DejaVuSans-69" d="M 603 3500 
L 1178 3500 
L 1178 0 
L 603 0 
L 603 3500 
z
M 603 4863 
L 1178 4863 
L 1178 4134 
L 603 4134 
L 603 4863 
z
" transform="scale(0.015625)"/>
      <path id="DejaVuSans-63" d="M 3122 3366 
L 3122 2828 
Q 2878 2963 2633 3030 
Q 2388 3097 2138 3097 
Q 1578 3097 1268 2742 
Q 959 2388 959 1747 
Q 959 1106 1268 751 
Q 1578 397 2138 397 
Q 2388 397 2633 464 
Q 2878 531 3122 666 
L 3122 134 
Q 2881 22 2623 -34 
Q 2366 -91 2075 -91 
Q 1284 -91 818 406 
Q 353 903 353 1747 
Q 353 2603 823 3093 
Q 1294 3584 2113 3584 
Q 2378 3584 2631 3529 
Q 2884 3475 3122 3366 
z
" transform="scale(0.015625)"/>
      <path id="DejaVuSans-20" transform="scale(0.015625)"/>
      <path id="DejaVuSans-65" d="M 3597 1894 
L 3597 1613 
L 953 1613 
Q 991 1019 1311 708 
Q 1631 397 2203 397 
Q 2534 397 2845 478 
Q 3156 559 3463 722 
L 3463 178 
Q 3153 47 2828 -22 
Q 2503 -91 2169 -91 
Q 1331 -91 842 396 
Q 353 884 353 1716 
Q 353 2575 817 3079 
Q 1281 3584 2069 3584 
Q 2775 3584 3186 3129 
Q 3597 2675 3597 1894 
z
M 3022 2063 
Q 3016 2534 2758 2815 
Q 2500 3097 2075 3097 
Q 1594 3097 1305 2825 
Q 1016 2553 972 2059 
L 3022 2063 
z
" transform="scale(0.015625)"/>
      <path id="DejaVuSans-73" d="M 2834 3397 
L 2834 2853 
Q 2591 2978 2328 3040 
Q 2066 3103 1784 3103 
Q 1356 3103 1142 2972 
Q 928 2841 928 2578 
Q 928 2378 1081 2264 
Q 1234 2150 1697 2047 
L 1894 2003 
Q 2506 1872 2764 1633 
Q 3022 1394 3022 966 
Q 3022 478 2636 193 
Q 2250 -91 1575 -91 
Q 1294 -91 989 -36 
Q 684 19 347 128 
L 347 722 
Q 666 556 975 473 
Q 1284 391 1588 391 
Q 1994 391 2212 530 
Q 2431 669 2431 922 
Q 2431 1156 2273 1281 
Q 2116 1406 1581 1522 
L 1381 1569 
Q 847 1681 609 1914 
Q 372 2147 372 2553 
Q 372 3047 722 3315 
Q 1072 3584 1716 3584 
Q 2034 3584 2315 3537 
Q 2597 3491 2834 3397 
z
" transform="scale(0.015625)"/>
      <path id="DejaVuSans-75" d="M 544 1381 
L 544 3500 
L 1119 3500 
L 1119 1403 
Q 1119 906 1312 657 
Q 1506 409 1894 409 
Q 2359 409 2629 706 
Q 2900 1003 2900 1516 
L 2900 3500 
L 3475 3500 
L 3475 0 
L 2900 0 
L 2900 538 
Q 2691 219 2414 64 
Q 2138 -91 1772 -91 
Q 1169 -91 856 284 
Q 544 659 544 1381 
z
M 1991 3584 
L 1991 3584 
z
" transform="scale(0.015625)"/>
      <path id="DejaVuSans-6c" d="M 603 4863 
L 1178 4863 
L 1178 0 
L 603 0 
L 603 4863 
z
" transform="scale(0.015625)"/>
      <path id="DejaVuSans-74" d="M 1172 4494 
L 1172 3500 
L 2356 3500 
L 2356 3053 
L 1172 3053 
L 1172 1153 
Q 1172 725 1289 603 
Q 1406 481 1766 481 
L 2356 481 
L 2356 0 
L 1766 0 
Q 1100 0 847 248 
Q 594 497 594 1153 
L 594 3053 
L 172 3053 
L 172 3500 
L 594 3500 
L 594 4494 
L 1172 4494 
z
" transform="scale(0.015625)"/>
      <path id="DejaVuSans-2c" d="M 750 794 
L 1409 794 
L 1409 256 
L 897 -744 
L 494 -744 
L 750 256 
L 750 794 
z
" transform="scale(0.015625)"/>
      <path id="DejaVuSans-41" d="M 2188 4044 
L 1331 1722 
L 3047 1722 
L 2188 4044 
z
M 1831 4666 
L 2547 4666 
L 4325 0 
L 3669 0 
L 3244 1197 
L 1141 1197 
L 716 0 
L 50 0 
L 1831 4666 
z
" transform="scale(0.015625)"/>
      <path id="DejaVuSans-64" d="M 2906 2969 
L 2906 4863 
L 3481 4863 
L 3481 0 
L 2906 0 
L 2906 525 
Q 2725 213 2448 61 
Q 2172 -91 1784 -91 
Q 1150 -91 751 415 
Q 353 922 353 1747 
Q 353 2572 751 3078 
Q 1150 3584 1784 3584 
Q 2172 3584 2448 3432 
Q 2725 3281 2906 2969 
z
M 947 1747 
Q 947 1113 1208 752 
Q 1469 391 1925 391 
Q 2381 391 2643 752 
Q 2906 1113 2906 1747 
Q 2906 2381 2643 2742 
Q 2381 3103 1925 3103 
Q 1469 3103 1208 2742 
Q 947 2381 947 1747 
z
" transform="scale(0.015625)"/>
      <path id="DejaVuSans-46" d="M 628 4666 
L 3309 4666 
L 3309 4134 
L 1259 4134 
L 1259 2759 
L 3109 2759 
L 3109 2228 
L 1259 2228 
L 1259 0 
L 628 0 
L 628 4666 
z
" transform="scale(0.015625)"/>
     </defs>
     <use xlink:href="#DejaVuSans-4f"/>
     <use xlink:href="#DejaVuSans-72" transform="translate(78.710938 0)"/>
     <use xlink:href="#DejaVuSans-67" transform="translate(118.074219 0)"/>
     <use xlink:href="#DejaVuSans-61" transform="translate(181.550781 0)"/>
     <use xlink:href="#DejaVuSans-6e" transform="translate(242.830078 0)"/>
     <use xlink:href="#DejaVuSans-69" transform="translate(306.208984 0)"/>
     <use xlink:href="#DejaVuSans-63" transform="translate(333.992188 0)"/>
     <use xlink:href="#DejaVuSans-20" transform="translate(388.972656 0)"/>
     <use xlink:href="#DejaVuSans-72" transform="translate(420.759766 0)"/>
     <use xlink:href="#DejaVuSans-65" transform="translate(459.623047 0)"/>
     <use xlink:href="#DejaVuSans-73" transform="translate(521.146484 0)"/>
     <use xlink:href="#DejaVuSans-75" transform="translate(573.246094 0)"/>
     <use xlink:href="#DejaVuSans-6c" transform="translate(636.625 0)"/>
     <use xlink:href="#DejaVuSans-74" transform="translate(664.408203 0)"/>
     <use xlink:href="#DejaVuSans-73" transform="translate(703.617188 0)"/>
     <use xlink:href="#DejaVuSans-2c" transform="translate(755.716797 0)"/>
     <use xlink:href="#DejaVuSans-20" transform="translate(787.503906 0)"/>
     <use xlink:href="#DejaVuSans-41" transform="translate(819.291016 0)"/>
     <use xlink:href="#DejaVuSans-64" transform="translate(885.949219 0)"/>
     <use xlink:href="#DejaVuSans-73" transform="translate(949.425781 0)"/>
     <use xlink:href="#DejaVuSans-2c" transform="translate(1001.525391 0)"/>
     <use xlink:href="#DejaVuSans-20" transform="translate(1033.3125 0)"/>
     <use xlink:href="#DejaVuSans-46" transform="translate(1065.099609 0)"/>
     <use xlink:href="#DejaVuSans-65" transform="translate(1117.119141 0)"/>
     <use xlink:href="#DejaVuSans-61" transform="translate(1178.642578 0)"/>
     <use xlink:href="#DejaVuSans-74" transform="translate(1239.921875 0)"/>
     <use xlink:href="#DejaVuSans-75" transform="translate(1279.130859 0)"/>
     <use xlink:href="#DejaVuSans-72" transform="translate(1342.509766 0)"/>
     <use xlink:href="#DejaVuSans-65" transform="translate(1381.373047 0)"/>
     <use xlink:href="#DejaVuSans-73" transform="translate(1442.896484 0)"/>
    </g>
   </g>
   <g id="text_3">
    <!-- Identify Content -->
    <g style="fill: #2563eb" transform="translate(277.392484 252.551272) scale(0.12 -0.12)">
     <defs>
      <path id="DejaVuSans-Bold-49" d="M 588 4666 
L 1791 4666 
L 1791 0 
L 588 0 
L 588 4666 
z
" transform="scale(0.015625)"/>
      <path id="DejaVuSans-Bold-64" d="M 2919 2988 
L 2919 4863 
L 4044 4863 
L 4044 0 
L 2919 0 
L 2919 506 
Q 2688 197 2409 53 
Q 2131 -91 1766 -91 
Q 1119 -91 703 423 
Q 288 938 288 1747 
Q 288 2556 703 3070 
Q 1119 3584 1766 3584 
Q 2128 3584 2408 3439 
Q 2688 3294 2919 2988 
z
M 2181 722 
Q 2541 722 2730 984 
Q 2919 1247 2919 1747 
Q 2919 2247 2730 2509 
Q 2541 2772 2181 2772 
Q 1825 2772 1636 2509 
Q 1447 2247 1447 1747 
Q 1447 1247 1636 984 
Q 1825 722 2181 722 
z
" transform="scale(0.015625)"/>
      <path id="DejaVuSans-Bold-66" d="M 2841 4863 
L 2841 4128 
L 2222 4128 
Q 1984 4128 1890 4042 
Q 1797 3956 1797 3744 
L 1797 3500 
L 2753 3500 
L 2753 2700 
L 1797 2700 
L 1797 0 
L 678 0 
L 678 2700 
L 122 2700 
L 122 3500 
L 678 3500 
L 678 3744 
Q 678 4316 997 4589 
Q 1316 4863 1984 4863 
L 2841 4863 
z
" transform="scale(0.015625)"/>
      <path id="DejaVuSans-Bold-79" d="M 78 3500 
L 1197 3500 
L 2138 1125 
L 2938 3500 
L 4056 3500 
L 2584 -331 
Q 2363 -916 2067 -1148 
Q 1772 -1381 1288 -1381 
L 641 -1381 
L 641 -647 
L 991 -647 
Q 1275 -647 1404 -556 
Q 1534 -466 1606 -231 
L 1638 -134 
L 78 3500 
z
" transform="scale(0.015625)"/>
     </defs>
     <use xlink:href="#DejaVuSans-Bold-49"/>
     <use xlink:href="#DejaVuSans-Bold-64" transform="translate(37.207031 0)"/>
     <use xlink:href="#DejaVuSans-Bold-65" transform="translate(108.789062 0)"/>
     <use xlink:href="#DejaVuSans-Bold-6e" transform="translate(176.611328 0)"/>
     <use xlink:href="#DejaVuSans-Bold-74" transform="translate(247.802734 0)"/>
     <use xlink:href="#DejaVuSans-Bold-69" transform="translate(295.605469 0)"/>
     <use xlink:href="#DejaVuSans-Bold-66" transform="translate(329.882812 0)"/>
     <use xlink:href="#DejaVuSans-Bold-79" transform="translate(373.388672 0)"/>
     <use xlink:href="#DejaVuSans-Bold-20" transform="translate(438.574219 0)"/>
     <use xlink:href="#DejaVuSans-Bold-43" transform="translate(473.388672 0)"/>
     <use xlink:href="#DejaVuSans-Bold-6f" transform="translate(546.777344 0)"/>
     <use xlink:href="#DejaVuSans-Bold-6e" transform="translate(615.478516 0)"/>
     <use xlink:href="#DejaVuSans-Bold-74" transform="translate(686.669922 0)"/>
     <use xlink:href="#DejaVuSans-Bold-65" transform="translate(734.472656 0)"/>
     <use xlink:href="#DejaVuSans-Bold-6e" transform="translate(802.294922 0)"/>
     <use xlink:href="#DejaVuSans-Bold-74" transform="translate(873.486328 0)"/>
    </g>
    <!-- Types -->
    <g style="fill: #2563eb" transform="translate(313.441234 266.082397) scale(0.12 -0.12)">
     <defs>
      <path id="DejaVuSans-Bold-54" d="M 31 4666 
L 4331 4666 
L 4331 3756 
L 2784 3756 
L 2784 0 
L 1581 0 
L 1581 3756 
L 31 3756 
L 31 4666 
z
" transform="scale(0.015625)"/>
     </defs>
     <use xlink:href="#DejaVuSans-Bold-54"/>
     <use xlink:href="#DejaVuSans-Bold-79" transform="translate(56.337891 0)"/>
     <use xlink:href="#DejaVuSans-Bold-70" transform="translate(121.523438 0)"/>
     <use xlink:href="#DejaVuSans-Bold-65" transform="translate(193.105469 0)"/>
     <use xlink:href="#DejaVuSans-Bold-73" transform="translate(260.927734 0)"/>
    </g>
   </g>
   <g id="text_4">
    <!-- Articles, Products, Brand pages -->
    <g style="fill: #4b5563" transform="translate(512.42727 303.702582) scale(0.08 -0.08)">
     <defs>
      <path id="DejaVuSans-50" d="M 1259 4147 
L 1259 2394 
L 2053 2394 
Q 2494 2394 2734 2622 
Q 2975 2850 2975 3272 
Q 2975 3691 2734 3919 
Q 2494 4147 2053 4147 
L 1259 4147 
z
M 628 4666 
L 2053 4666 
Q 2838 4666 3239 4311 
Q 3641 3956 3641 3272 
Q 3641 2581 3239 2228 
Q 2838 1875 2053 1875 
L 1259 1875 
L 1259 0 
L 628 0 
L 628 4666 
z
" transform="scale(0.015625)"/>
      <path id="DejaVuSans-6f" d="M 1959 3097 
Q 1497 3097 1228 2736 
Q 959 2375 959 1747 
Q 959 1119 1226 758 
Q 1494 397 1959 397 
Q 2419 397 2687 759 
Q 2956 1122 2956 1747 
Q 2956 2369 2687 2733 
Q 2419 3097 1959 3097 
z
M 1959 3584 
Q 2709 3584 3137 3096 
Q 3566 2609 3566 1747 
Q 3566 888 3137 398 
Q 2709 -91 1959 -91 
Q 1206 -91 779 398 
Q 353 888 353 1747 
Q 353 2609 779 3096 
Q 1206 3584 1959 3584 
z
" transform="scale(0.015625)"/>
      <path id="DejaVuSans-42" d="M 1259 2228 
L 1259 519 
L 2272 519 
Q 2781 519 3026 730 
Q 3272 941 3272 1375 
Q 3272 1813 3026 2020 
Q 2781 2228 2272 2228 
L 1259 2228 
z
M 1259 4147 
L 1259 2741 
L 2194 2741 
Q 2656 2741 2882 2914 
Q 3109 3088 3109 3444 
Q 3109 3797 2882 3972 
Q 2656 4147 2194 4147 
L 1259 4147 
z
M 628 4666 
L 2241 4666 
Q 2963 4666 3353 4366 
Q 3744 4066 3744 3513 
Q 3744 3084 3544 2831 
Q 3344 2578 2956 2516 
Q 3422 2416 3680 2098 
Q 3938 1781 3938 1306 
Q 3938 681 3513 340 
Q 3088 0 2303 0 
L 628 0 
L 628 4666 
z
" transform="scale(0.015625)"/>
      <path id="DejaVuSans-70" d="M 1159 525 
L 1159 -1331 
L 581 -1331 
L 581 3500 
L 1159 3500 
L 1159 2969 
Q 1341 3281 1617 3432 
Q 1894 3584 2278 3584 
Q 2916 3584 3314 3078 
Q 3713 2572 3713 1747 
Q 3713 922 3314 415 
Q 2916 -91 2278 -91 
Q 1894 -91 1617 61 
Q 1341 213 1159 525 
z
M 3116 1747 
Q 3116 2381 2855 2742 
Q 2594 3103 2138 3103 
Q 1681 3103 1420 2742 
Q 1159 2381 1159 1747 
Q 1159 1113 1420 752 
Q 1681 391 2138 391 
Q 2594 391 2855 752 
Q 3116 1113 3116 1747 
z
" transform="scale(0.015625)"/>
     </defs>
     <use xlink:href="#DejaVuSans-41"/>
     <use xlink:href="#DejaVuSans-72" transform="translate(68.408203 0)"/>
     <use xlink:href="#DejaVuSans-74" transform="translate(109.521484 0)"/>
     <use xlink:href="#DejaVuSans-69" transform="translate(148.730469 0)"/>
     <use xlink:href="#DejaVuSans-63" transform="translate(176.513672 0)"/>
     <use xlink:href="#DejaVuSans-6c" transform="translate(231.494141 0)"/>
     <use xlink:href="#DejaVuSans-65" transform="translate(259.277344 0)"/>
     <use xlink:href="#DejaVuSans-73" transform="translate(320.800781 0)"/>
     <use xlink:href="#DejaVuSans-2c" transform="translate(372.900391 0)"/>
     <use xlink:href="#DejaVuSans-20" transform="translate(404.6875 0)"/>
     <use xlink:href="#DejaVuSans-50" transform="translate(436.474609 0)"/>
     <use xlink:href="#DejaVuSans-72" transform="translate(495.027344 0)"/>
     <use xlink:href="#DejaVuSans-6f" transform="translate(533.890625 0)"/>
     <use xlink:href="#DejaVuSans-64" transform="translate(595.072266 0)"/>
     <use xlink:href="#DejaVuSans-75" transform="translate(658.548828 0)"/>
     <use xlink:href="#DejaVuSans-63" transform="translate(721.927734 0)"/>
     <use xlink:href="#DejaVuSans-74" transform="translate(776.908203 0)"/>
     <use xlink:href="#DejaVuSans-73" transform="translate(816.117188 0)"/>
     <use xlink:href="#DejaVuSans-2c" transform="translate(868.216797 0)"/>
     <use xlink:href="#DejaVuSans-20" transform="translate(900.003906 0)"/>
     <use xlink:href="#DejaVuSans-42" transform="translate(931.791016 0)"/>
     <use xlink:href="#DejaVuSans-72" transform="translate(1000.394531 0)"/>
     <use xlink:href="#DejaVuSans-61" transform="translate(1041.507812 0)"/>
     <use xlink:href="#DejaVuSans-6e" transform="translate(1102.787109 0)"/>
     <use xlink:href="#DejaVuSans-64" transform="translate(1166.166016 0)"/>
     <use xlink:href="#DejaVuSans-20" transform="translate(1229.642578 0)"/>
     <use xlink:href="#DejaVuSans-70" transform="translate(1261.429688 0)"/>
     <use xlink:href="#DejaVuSans-61" transform="translate(1324.90625 0)"/>
     <use xlink:href="#DejaVuSans-67" transform="translate(1386.185547 0)"/>
     <use xlink:href="#DejaVuSans-65" transform="translate(1449.662109 0)"/>
     <use xlink:href="#DejaVuSans-73" transform="translate(1511.185547 0)"/>
    </g>
   </g>
   <g id="text_5">
    <!-- Identify SERP -->
    <g style="fill: #2563eb" transform="translate(286.828421 343.483392) scale(0.12 -0.12)">
     <use xlink:href="#DejaVuSans-Bold-49"/>
     <use xlink:href="#DejaVuSans-Bold-64" transform="translate(37.207031 0)"/>
     <use xlink:href="#DejaVuSans-Bold-65" transform="translate(108.789062 0)"/>
     <use xlink:href="#DejaVuSans-Bold-6e" transform="translate(176.611328 0)"/>
     <use xlink:href="#DejaVuSans-Bold-74" transform="translate(247.802734 0)"/>
     <use xlink:href="#DejaVuSans-Bold-69" transform="translate(295.605469 0)"/>
     <use xlink:href="#DejaVuSans-Bold-66" transform="translate(329.882812 0)"/>
     <use xlink:href="#DejaVuSans-Bold-79" transform="translate(373.388672 0)"/>
     <use xlink:href="#DejaVuSans-Bold-20" transform="translate(438.574219 0)"/>
     <use xlink:href="#DejaVuSans-Bold-53" transform="translate(473.388672 0)"/>
     <use xlink:href="#DejaVuSans-Bold-45" transform="translate(545.410156 0)"/>
     <use xlink:href="#DejaVuSans-Bold-52" transform="translate(613.720703 0)"/>
     <use xlink:href="#DejaVuSans-Bold-50" transform="translate(690.722656 0)"/>
    </g>
    <!-- Features -->
    <g style="fill: #2563eb" transform="translate(302.952484 357.014517) scale(0.12 -0.12)">
     <defs>
      <path id="DejaVuSans-Bold-46" d="M 588 4666 
L 3834 4666 
L 3834 3756 
L 1791 3756 
L 1791 2888 
L 3713 2888 
L 3713 1978 
L 1791 1978 
L 1791 0 
L 588 0 
L 588 4666 
z
" transform="scale(0.015625)"/>
      <path id="DejaVuSans-Bold-75" d="M 500 1363 
L 500 3500 
L 1625 3500 
L 1625 3150 
Q 1625 2866 1622 2436 
Q 1619 2006 1619 1863 
Q 1619 1441 1641 1255 
Q 1663 1069 1716 984 
Q 1784 875 1895 815 
Q 2006 756 2150 756 
Q 2500 756 2700 1025 
Q 2900 1294 2900 1772 
L 2900 3500 
L 4019 3500 
L 4019 0 
L 2900 0 
L 2900 506 
Q 2647 200 2364 54 
Q 2081 -91 1741 -91 
Q 1134 -91 817 281 
Q 500 653 500 1363 
z
" transform="scale(0.015625)"/>
      <path id="DejaVuSans-Bold-72" d="M 3138 2547 
Q 2991 2616 2845 2648 
Q 2700 2681 2553 2681 
Q 2122 2681 1889 2404 
Q 1656 2128 1656 1613 
L 1656 0 
L 538 0 
L 538 3500 
L 1656 3500 
L 1656 2925 
Q 1872 3269 2151 3426 
Q 2431 3584 2822 3584 
Q 2878 3584 2943 3579 
Q 3009 3575 3134 3559 
L 3138 2547 
z
" transform="scale(0.015625)"/>
     </defs>
     <use xlink:href="#DejaVuSans-Bold-46"/>
     <use xlink:href="#DejaVuSans-Bold-65" transform="translate(64.310547 0)"/>
     <use xlink:href="#DejaVuSans-Bold-61" transform="translate(132.132812 0)"/>
     <use xlink:href="#DejaVuSans-Bold-74" transform="translate(199.613281 0)"/>
     <use xlink:href="#DejaVuSans-Bold-75" transform="translate(247.416016 0)"/>
     <use xlink:href="#DejaVuSans-Bold-72" transform="translate(318.607422 0)"/>
     <use xlink:href="#DejaVuSans-Bold-65" transform="translate(367.923828 0)"/>
     <use xlink:href="#DejaVuSans-Bold-73" transform="translate(435.746094 0)"/>
    </g>
   </g>
   <g id="text_6">
    <!-- Snippets, Carousels, PAA -->
    <g style="fill: #4b5563" transform="translate(525.23477 394.587828) scale(0.08 -0.08)">
     <defs>
      <path id="DejaVuSans-53" d="M 3425 4513 
L 3425 3897 
Q 3066 4069 2747 4153 
Q 2428 4238 2131 4238 
Q 1616 4238 1336 4038 
Q 1056 3838 1056 3469 
Q 1056 3159 1242 3001 
Q 1428 2844 1947 2747 
L 2328 2669 
Q 3034 2534 3370 2195 
Q 3706 1856 3706 1288 
Q 3706 609 3251 259 
Q 2797 -91 1919 -91 
Q 1588 -91 1214 -16 
Q 841 59 441 206 
L 441 856 
Q 825 641 1194 531 
Q 1563 422 1919 422 
Q 2459 422 2753 634 
Q 3047 847 3047 1241 
Q 3047 1584 2836 1778 
Q 2625 1972 2144 2069 
L 1759 2144 
Q 1053 2284 737 2584 
Q 422 2884 422 3419 
Q 422 4038 858 4394 
Q 1294 4750 2059 4750 
Q 2388 4750 2728 4690 
Q 3069 4631 3425 4513 
z
" transform="scale(0.015625)"/>
      <path id="DejaVuSans-43" d="M 4122 4306 
L 4122 3641 
Q 3803 3938 3442 4084 
Q 3081 4231 2675 4231 
Q 1875 4231 1450 3742 
Q 1025 3253 1025 2328 
Q 1025 1406 1450 917 
Q 1875 428 2675 428 
Q 3081 428 3442 575 
Q 3803 722 4122 1019 
L 4122 359 
Q 3791 134 3420 21 
Q 3050 -91 2638 -91 
Q 1578 -91 968 557 
Q 359 1206 359 2328 
Q 359 3453 968 4101 
Q 1578 4750 2638 4750 
Q 3056 4750 3426 4639 
Q 3797 4528 4122 4306 
z
" transform="scale(0.015625)"/>
     </defs>
     <use xlink:href="#DejaVuSans-53"/>
     <use xlink:href="#DejaVuSans-6e" transform="translate(63.476562 0)"/>
     <use xlink:href="#DejaVuSans-69" transform="translate(126.855469 0)"/>
     <use xlink:href="#DejaVuSans-70" transform="translate(154.638672 0)"/>
     <use xlink:href="#DejaVuSans-70" transform="translate(218.115234 0)"/>
     <use xlink:href="#DejaVuSans-65" transform="translate(281.591797 0)"/>
     <use xlink:href="#DejaVuSans-74" transform="translate(343.115234 0)"/>
     <use xlink:href="#DejaVuSans-73" transform="translate(382.324219 0)"/>
     <use xlink:href="#DejaVuSans-2c" transform="translate(434.423828 0)"/>
     <use xlink:href="#DejaVuSans-20" transform="translate(466.210938 0)"/>
     <use xlink:href="#DejaVuSans-43" transform="translate(497.998047 0)"/>
     <use xlink:href="#DejaVuSans-61" transform="translate(567.822266 0)"/>
     <use xlink:href="#DejaVuSans-72" transform="translate(629.101562 0)"/>
     <use xlink:href="#DejaVuSans-6f" transform="translate(667.964844 0)"/>
     <use xlink:href="#DejaVuSans-75" transform="translate(729.146484 0)"/>
     <use xlink:href="#DejaVuSans-73" transform="translate(792.525391 0)"/>
     <use xlink:href="#DejaVuSans-65" transform="translate(844.625 0)"/>
     <use xlink:href="#DejaVuSans-6c" transform="translate(906.148438 0)"/>
     <use xlink:href="#DejaVuSans-73" transform="translate(933.931641 0)"/>
     <use xlink:href="#DejaVuSans-2c" transform="translate(986.03125 0)"/>
     <use xlink:href="#DejaVuSans-20" transform="translate(1017.818359 0)"/>
     <use xlink:href="#DejaVuSans-50" transform="translate(1049.605469 0)"/>
     <use xlink:href="#DejaVuSans-41" transform="translate(1103.533203 0)"/>
     <use xlink:href="#DejaVuSans-41" transform="translate(1174.691406 0)"/>
    </g>
   </g>
   <g id="text_7">
    <!-- Identify Patterns -->
    <g style="fill: #2563eb" transform="translate(275.370296 441.087326) scale(0.12 -0.12)">
     <use xlink:href="#DejaVuSans-Bold-49"/>
     <use xlink:href="#DejaVuSans-Bold-64" transform="translate(37.207031 0)"/>
     <use xlink:href="#DejaVuSans-Bold-65" transform="translate(108.789062 0)"/>
     <use xlink:href="#DejaVuSans-Bold-6e" transform="translate(176.611328 0)"/>
     <use xlink:href="#DejaVuSans-Bold-74" transform="translate(247.802734 0)"/>
     <use xlink:href="#DejaVuSans-Bold-69" transform="translate(295.605469 0)"/>
     <use xlink:href="#DejaVuSans-Bold-66" transform="translate(329.882812 0)"/>
     <use xlink:href="#DejaVuSans-Bold-79" transform="translate(373.388672 0)"/>
     <use xlink:href="#DejaVuSans-Bold-20" transform="translate(438.574219 0)"/>
     <use xlink:href="#DejaVuSans-Bold-50" transform="translate(473.388672 0)"/>
     <use xlink:href="#DejaVuSans-Bold-61" transform="translate(544.054688 0)"/>
     <use xlink:href="#DejaVuSans-Bold-74" transform="translate(611.535156 0)"/>
     <use xlink:href="#DejaVuSans-Bold-74" transform="translate(659.337891 0)"/>
     <use xlink:href="#DejaVuSans-Bold-65" transform="translate(707.140625 0)"/>
     <use xlink:href="#DejaVuSans-Bold-72" transform="translate(774.962891 0)"/>
     <use xlink:href="#DejaVuSans-Bold-6e" transform="translate(824.279297 0)"/>
     <use xlink:href="#DejaVuSans-Bold-73" transform="translate(895.470703 0)"/>
    </g>
   </g>
   <g id="text_8">
    <!-- What dominates?, What's missing? -->
    <g style="fill: #4b5563" transform="translate(504.970395 485.473074) scale(0.08 -0.08)">
     <defs>
      <path id="DejaVuSans-57" d="M 213 4666 
L 850 4666 
L 1831 722 
L 2809 4666 
L 3519 4666 
L 4500 722 
L 5478 4666 
L 6119 4666 
L 4947 0 
L 4153 0 
L 3169 4050 
L 2175 0 
L 1381 0 
L 213 4666 
z
" transform="scale(0.015625)"/>
      <path id="DejaVuSans-68" d="M 3513 2113 
L 3513 0 
L 2938 0 
L 2938 2094 
Q 2938 2591 2744 2837 
Q 2550 3084 2163 3084 
Q 1697 3084 1428 2787 
Q 1159 2491 1159 1978 
L 1159 0 
L 581 0 
L 581 4863 
L 1159 4863 
L 1159 2956 
Q 1366 3272 1645 3428 
Q 1925 3584 2291 3584 
Q 2894 3584 3203 3211 
Q 3513 2838 3513 2113 
z
" transform="scale(0.015625)"/>
      <path id="DejaVuSans-6d" d="M 3328 2828 
Q 3544 3216 3844 3400 
Q 4144 3584 4550 3584 
Q 5097 3584 5394 3201 
Q 5691 2819 5691 2113 
L 5691 0 
L 5113 0 
L 5113 2094 
Q 5113 2597 4934 2840 
Q 4756 3084 4391 3084 
Q 3944 3084 3684 2787 
Q 3425 2491 3425 1978 
L 3425 0 
L 2847 0 
L 2847 2094 
Q 2847 2600 2669 2842 
Q 2491 3084 2119 3084 
Q 1678 3084 1418 2786 
Q 1159 2488 1159 1978 
L 1159 0 
L 581 0 
L 581 3500 
L 1159 3500 
L 1159 2956 
Q 1356 3278 1631 3431 
Q 1906 3584 2284 3584 
Q 2666 3584 2933 3390 
Q 3200 3197 3328 2828 
z
" transform="scale(0.015625)"/>
      <path id="DejaVuSans-3f" d="M 1222 794 
L 1856 794 
L 1856 0 
L 1222 0 
L 1222 794 
z
M 1838 1253 
L 1241 1253 
L 1241 1734 
Q 1241 2050 1328 2253 
Q 1416 2456 1697 2725 
L 1978 3003 
Q 2156 3169 2236 3316 
Q 2316 3463 2316 3616 
Q 2316 3894 2111 4066 
Q 1906 4238 1569 4238 
Q 1322 4238 1042 4128 
Q 763 4019 459 3809 
L 459 4397 
Q 753 4575 1054 4662 
Q 1356 4750 1678 4750 
Q 2253 4750 2601 4447 
Q 2950 4144 2950 3647 
Q 2950 3409 2837 3195 
Q 2725 2981 2444 2713 
L 2169 2444 
Q 2022 2297 1961 2214 
Q 1900 2131 1875 2053 
Q 1856 1988 1847 1894 
Q 1838 1800 1838 1638 
L 1838 1253 
z
" transform="scale(0.015625)"/>
      <path id="DejaVuSans-27" d="M 1147 4666 
L 1147 2931 
L 616 2931 
L 616 4666 
L 1147 4666 
z
" transform="scale(0.015625)"/>
     </defs>
     <use xlink:href="#DejaVuSans-57"/>
     <use xlink:href="#DejaVuSans-68" transform="translate(98.876953 0)"/>
     <use xlink:href="#DejaVuSans-61" transform="translate(162.255859 0)"/>
     <use xlink:href="#DejaVuSans-74" transform="translate(223.535156 0)"/>
     <use xlink:href="#DejaVuSans-20" transform="translate(262.744141 0)"/>
     <use xlink:href="#DejaVuSans-64" transform="translate(294.53125 0)"/>
     <use xlink:href="#DejaVuSans-6f" transform="translate(358.007812 0)"/>
     <use xlink:href="#DejaVuSans-6d" transform="translate(419.189453 0)"/>
     <use xlink:href="#DejaVuSans-69" transform="translate(516.601562 0)"/>
     <use xlink:href="#DejaVuSans-6e" transform="translate(544.384766 0)"/>
     <use xlink:href="#DejaVuSans-61" transform="translate(607.763672 0)"/>
     <use xlink:href="#DejaVuSans-74" transform="translate(669.042969 0)"/>
     <use xlink:href="#DejaVuSans-65" transform="translate(708.251953 0)"/>
     <use xlink:href="#DejaVuSans-73" transform="translate(769.775391 0)"/>
     <use xlink:href="#DejaVuSans-3f" transform="translate(821.875 0)"/>
     <use xlink:href="#DejaVuSans-2c" transform="translate(874.951172 0)"/>
     <use xlink:href="#DejaVuSans-20" transform="translate(906.738281 0)"/>
     <use xlink:href="#DejaVuSans-57" transform="translate(938.525391 0)"/>
     <use xlink:href="#DejaVuSans-68" transform="translate(1037.402344 0)"/>
     <use xlink:href="#DejaVuSans-61" transform="translate(1100.78125 0)"/>
     <use xlink:href="#DejaVuSans-74" transform="translate(1162.060547 0)"/>
     <use xlink:href="#DejaVuSans-27" transform="translate(1201.269531 0)"/>
     <use xlink:href="#DejaVuSans-73" transform="translate(1228.759766 0)"/>
     <use xlink:href="#DejaVuSans-20" transform="translate(1280.859375 0)"/>
     <use xlink:href="#DejaVuSans-6d" transform="translate(1312.646484 0)"/>
     <use xlink:href="#DejaVuSans-69" transform="translate(1410.058594 0)"/>
     <use xlink:href="#DejaVuSans-73" transform="translate(1437.841797 0)"/>
     <use xlink:href="#DejaVuSans-73" transform="translate(1489.941406 0)"/>
     <use xlink:href="#DejaVuSans-69" transform="translate(1542.041016 0)"/>
     <use xlink:href="#DejaVuSans-6e" transform="translate(1569.824219 0)"/>
     <use xlink:href="#DejaVuSans-67" transform="translate(1633.203125 0)"/>
     <use xlink:href="#DejaVuSans-3f" transform="translate(1696.679688 0)"/>
    </g>
   </g>
   <g id="text_9">
    <!-- Determine Intent -->
    <g style="fill: #2563eb" transform="translate(274.402796 532.019447) scale(0.12 -0.12)">
     <defs>
      <path id="DejaVuSans-Bold-44" d="M 1791 3756 
L 1791 909 
L 2222 909 
Q 2959 909 3348 1275 
Q 3738 1641 3738 2338 
Q 3738 3031 3350 3393 
Q 2963 3756 2222 3756 
L 1791 3756 
z
M 588 4666 
L 1856 4666 
Q 2919 4666 3439 4514 
Q 3959 4363 4331 4000 
Q 4659 3684 4818 3271 
Q 4978 2859 4978 2338 
Q 4978 1809 4818 1395 
Q 4659 981 4331 666 
Q 3956 303 3431 151 
Q 2906 0 1856 0 
L 588 0 
L 588 4666 
z
" transform="scale(0.015625)"/>
     </defs>
     <use xlink:href="#DejaVuSans-Bold-44"/>
     <use xlink:href="#DejaVuSans-Bold-65" transform="translate(83.007812 0)"/>
     <use xlink:href="#DejaVuSans-Bold-74" transform="translate(150.830078 0)"/>
     <use xlink:href="#DejaVuSans-Bold-65" transform="translate(198.632812 0)"/>
     <use xlink:href="#DejaVuSans-Bold-72" transform="translate(266.455078 0)"/>
     <use xlink:href="#DejaVuSans-Bold-6d" transform="translate(315.771484 0)"/>
     <use xlink:href="#DejaVuSans-Bold-69" transform="translate(419.970703 0)"/>
     <use xlink:href="#DejaVuSans-Bold-6e" transform="translate(454.248047 0)"/>
     <use xlink:href="#DejaVuSans-Bold-65" transform="translate(525.439453 0)"/>
     <use xlink:href="#DejaVuSans-Bold-20" transform="translate(593.261719 0)"/>
     <use xlink:href="#DejaVuSans-Bold-49" transform="translate(628.076172 0)"/>
     <use xlink:href="#DejaVuSans-Bold-6e" transform="translate(665.283203 0)"/>
     <use xlink:href="#DejaVuSans-Bold-74" transform="translate(736.474609 0)"/>
     <use xlink:href="#DejaVuSans-Bold-65" transform="translate(784.277344 0)"/>
     <use xlink:href="#DejaVuSans-Bold-6e" transform="translate(852.099609 0)"/>
     <use xlink:href="#DejaVuSans-Bold-74" transform="translate(923.291016 0)"/>
    </g>
   </g>
   <g id="text_10">
    <!-- Informational, Commercial, Transactional -->
    <g style="fill: #4b5563" transform="translate(492.791645 576.35832) scale(0.08 -0.08)">
     <defs>
      <path id="DejaVuSans-49" d="M 628 4666 
L 1259 4666 
L 1259 0 
L 628 0 
L 628 4666 
z
" transform="scale(0.015625)"/>
      <path id="DejaVuSans-66" d="M 2375 4863 
L 2375 4384 
L 1825 4384 
Q 1516 4384 1395 4259 
Q 1275 4134 1275 3809 
L 1275 3500 
L 2222 3500 
L 2222 3053 
L 1275 3053 
L 1275 0 
L 697 0 
L 697 3053 
L 147 3053 
L 147 3500 
L 697 3500 
L 697 3744 
Q 697 4328 969 4595 
Q 1241 4863 1831 4863 
L 2375 4863 
z
" transform="scale(0.015625)"/>
      <path id="DejaVuSans-54" d="M -19 4666 
L 3928 4666 
L 3928 4134 
L 2272 4134 
L 2272 0 
L 1638 0 
L 1638 4134 
L -19 4134 
L -19 4666 
z
" transform="scale(0.015625)"/>
     </defs>
     <use xlink:href="#DejaVuSans-49"/>
     <use xlink:href="#DejaVuSans-6e" transform="translate(29.492188 0)"/>
     <use xlink:href="#DejaVuSans-66" transform="translate(92.871094 0)"/>
     <use xlink:href="#DejaVuSans-6f" transform="translate(128.076172 0)"/>
     <use xlink:href="#DejaVuSans-72" transform="translate(189.257812 0)"/>
     <use xlink:href="#DejaVuSans-6d" transform="translate(228.621094 0)"/>
     <use xlink:href="#DejaVuSans-61" transform="translate(326.033203 0)"/>
     <use xlink:href="#DejaVuSans-74" transform="translate(387.3125 0)"/>
     <use xlink:href="#DejaVuSans-69" transform="translate(426.521484 0)"/>
     <use xlink:href="#DejaVuSans-6f" transform="translate(454.304688 0)"/>
     <use xlink:href="#DejaVuSans-6e" transform="translate(515.486328 0)"/>
     <use xlink:href="#DejaVuSans-61" transform="translate(578.865234 0)"/>
     <use xlink:href="#DejaVuSans-6c" transform="translate(640.144531 0)"/>
     <use xlink:href="#DejaVuSans-2c" transform="translate(667.927734 0)"/>
     <use xlink:href="#DejaVuSans-20" transform="translate(699.714844 0)"/>
     <use xlink:href="#DejaVuSans-43" transform="translate(731.501953 0)"/>
     <use xlink:href="#DejaVuSans-6f" transform="translate(801.326172 0)"/>
     <use xlink:href="#DejaVuSans-6d" transform="translate(862.507812 0)"/>
     <use xlink:href="#DejaVuSans-6d" transform="translate(959.919922 0)"/>
     <use xlink:href="#DejaVuSans-65" transform="translate(1057.332031 0)"/>
     <use xlink:href="#DejaVuSans-72" transform="translate(1118.855469 0)"/>
     <use xlink:href="#DejaVuSans-63" transform="translate(1157.71875 0)"/>
     <use xlink:href="#DejaVuSans-69" transform="translate(1212.699219 0)"/>
     <use xlink:href="#DejaVuSans-61" transform="translate(1240.482422 0)"/>
     <use xlink:href="#DejaVuSans-6c" transform="translate(1301.761719 0)"/>
     <use xlink:href="#DejaVuSans-2c" transform="translate(1329.544922 0)"/>
     <use xlink:href="#DejaVuSans-20" transform="translate(1361.332031 0)"/>
     <use xlink:href="#DejaVuSans-54" transform="translate(1393.119141 0)"/>
     <use xlink:href="#DejaVuSans-72" transform="translate(1439.453125 0)"/>
     <use xlink:href="#DejaVuSans-61" transform="translate(1480.566406 0)"/>
     <use xlink:href="#DejaVuSans-6e" transform="translate(1541.845703 0)"/>
     <use xlink:href="#DejaVuSans-73" transform="translate(1605.224609 0)"/>
     <use xlink:href="#DejaVuSans-61" transform="translate(1657.324219 0)"/>
     <use xlink:href="#DejaVuSans-63" transform="translate(1718.603516 0)"/>
     <use xlink:href="#DejaVuSans-74" transform="translate(1773.583984 0)"/>
     <use xlink:href="#DejaVuSans-69" transform="translate(1812.792969 0)"/>
     <use xlink:href="#DejaVuSans-6f" transform="translate(1840.576172 0)"/>
     <use xlink:href="#DejaVuSans-6e" transform="translate(1901.757812 0)"/>
     <use xlink:href="#DejaVuSans-61" transform="translate(1965.136719 0)"/>
     <use xlink:href="#DejaVuSans-6c" transform="translate(2026.416016 0)"/>
    </g>
   </g>
  </g>
 </g>
 <defs>
  <clipPath id="pde86badcfc">
   <rect x="108" y="86.4" width="669.6" height="554.4"/>
  </clipPath>
 </defs>
</svg>
