<?xml version="1.0" encoding="utf-8" standalone="no"?>
<!DOCTYPE svg PUBLIC "-//W3C//DTD SVG 1.1//EN"
  "http://www.w3.org/Graphics/SVG/1.1/DTD/svg11.dtd">
<svg xmlns:xlink="http://www.w3.org/1999/xlink" width="864pt" height="648pt" viewBox="0 0 864 648" xmlns="http://www.w3.org/2000/svg" version="1.1">
 <metadata>
  <rdf:RDF xmlns:dc="http://purl.org/dc/elements/1.1/" xmlns:cc="http://creativecommons.org/ns#" xmlns:rdf="http://www.w3.org/1999/02/22-rdf-syntax-ns#">
   <cc:Work>
    <dc:type rdf:resource="http://purl.org/dc/dcmitype/StillImage"/>
    <dc:date>2025-12-26T12:55:27.112170</dc:date>
    <dc:format>image/svg+xml</dc:format>
    <dc:creator>
     <cc:Agent>
      <dc:title>Matplotlib v3.10.8, https://matplotlib.org/</dc:title>
     </cc:Agent>
    </dc:creator>
   </cc:Work>
  </rdf:RDF>
 </metadata>
 <defs>
  <style type="text/css">*{stroke-linejoin: round; stroke-linecap: butt}</style>
 </defs>
 <g id="figure_1">
  <g id="patch_1">
   <path d="M 0 648 
L 864 648 
L 864 0 
L 0 0 
z
" style="fill: #f8f9fa"/>
  </g>
  <g id="axes_1">
   <g id="patch_2">
    <path d="M 442.8 168.68268 
Q 442.8 179.034591 442.8 187.70945 
" clip-path="url(#p268250e5d2)" style="fill: none; opacity: 0.6; stroke: #6b7280; stroke-width: 1.5; stroke-linecap: round"/>
    <path d="M 443 187.30945 
L 442.8 187.70945 
L 442.6 187.30945 
" clip-path="url(#p268250e5d2)" style="fill: none; opacity: 0.6; stroke: #6b7280; stroke-width: 1.5; stroke-linecap: round"/>
   </g>
   <g id="patch_3">
    <path d="M 442.8 242.78565 
Q 442.8 253.137561 442.8 261.812421 
" clip-path="url(#p268250e5d2)" style="fill: none; opacity: 0.6; stroke: #6b7280; stroke-width: 1.5; stroke-linecap: round"/>
    <path d="M 443 261.412421 
L 442.8 261.812421 
L 442.6 261.412421 
" clip-path="url(#p268250e5d2)" style="fill: none; opacity: 0.6; stroke: #6b7280; stroke-width: 1.5; stroke-linecap: round"/>
   </g>
   <g id="patch_4">
    <path d="M 442.8 316.888621 
Q 442.8 327.240531 442.8 335.915391 
" clip-path="url(#p268250e5d2)" style="fill: none; opacity: 0.6; stroke: #6b7280; stroke-width: 1.5; stroke-linecap: round"/>
    <path d="M 443 335.515391 
L 442.8 335.915391 
L 442.6 335.515391 
" clip-path="url(#p268250e5d2)" style="fill: none; opacity: 0.6; stroke: #6b7280; stroke-width: 1.5; stroke-linecap: round"/>
   </g>
   <g id="patch_5">
    <path d="M 442.8 390.991591 
Q 442.8 401.343502 442.8 410.018361 
" clip-path="url(#p268250e5d2)" style="fill: none; opacity: 0.6; stroke: #6b7280; stroke-width: 1.5; stroke-linecap: round"/>
    <path d="M 443 409.618361 
L 442.8 410.018361 
L 442.6 409.618361 
" clip-path="url(#p268250e5d2)" style="fill: none; opacity: 0.6; stroke: #6b7280; stroke-width: 1.5; stroke-linecap: round"/>
   </g>
   <g id="patch_6">
    <path d="M 442.8 465.094561 
Q 442.8 475.446472 442.8 484.121332 
" clip-path="url(#p268250e5d2)" style="fill: none; opacity: 0.6; stroke: #6b7280; stroke-width: 1.5; stroke-linecap: round"/>
    <path d="M 443 483.721332 
L 442.8 484.121332 
L 442.6 483.721332 
" clip-path="url(#p268250e5d2)" style="fill: none; opacity: 0.6; stroke: #6b7280; stroke-width: 1.5; stroke-linecap: round"/>
   </g>
   <g id="patch_7">
    <path d="M 224.452174 174.093861 
L 661.147826 174.093861 
Q 682.982609 174.093861 682.982609 166.683564 
L 682.982609 117.281584 
Q 682.982609 109.871287 661.147826 109.871287 
L 224.452174 109.871287 
Q 202.617391 109.871287 202.617391 117.281584 
L 202.617391 166.683564 
Q 202.617391 174.093861 224.452174 174.093861 
z
" clip-path="url(#p268250e5d2)" style="fill: #2563eb; opacity: 0.2; stroke: #2563eb; stroke-width: 1.5; stroke-linejoin: miter"/>
   </g>
   <g id="patch_8">
    <path d="M 224.452174 248.196832 
L 661.147826 248.196832 
Q 682.982609 248.196832 682.982609 240.786535 
L 682.982609 191.384554 
Q 682.982609 183.974257 661.147826 183.974257 
L 224.452174 183.974257 
Q 202.617391 183.974257 202.617391 191.384554 
L 202.617391 240.786535 
Q 202.617391 248.196832 224.452174 248.196832 
z
" clip-path="url(#p268250e5d2)" style="fill: #10b981; opacity: 0.2; stroke: #10b981; stroke-width: 1.5; stroke-linejoin: miter"/>
   </g>
   <g id="patch_9">
    <path d="M 224.452174 322.299802 
L 661.147826 322.299802 
Q 682.982609 322.299802 682.982609 314.889505 
L 682.982609 265.487525 
Q 682.982609 258.077228 661.147826 258.077228 
L 224.452174 258.077228 
Q 202.617391 258.077228 202.617391 265.487525 
L 202.617391 314.889505 
Q 202.617391 322.299802 224.452174 322.299802 
z
" clip-path="url(#p268250e5d2)" style="fill: #8b5cf6; opacity: 0.2; stroke: #8b5cf6; stroke-width: 1.5; stroke-linejoin: miter"/>
   </g>
   <g id="patch_10">
    <path d="M 224.452174 396.402772 
L 661.147826 396.402772 
Q 682.982609 396.402772 682.982609 388.992475 
L 682.982609 339.590495 
Q 682.982609 332.180198 661.147826 332.180198 
L 224.452174 332.180198 
Q 202.617391 332.180198 202.617391 339.590495 
L 202.617391 388.992475 
Q 202.617391 396.402772 224.452174 396.402772 
z
" clip-path="url(#p268250e5d2)" style="fill: #f59e0b; opacity: 0.2; stroke: #f59e0b; stroke-width: 1.5; stroke-linejoin: miter"/>
   </g>
   <g id="patch_11">
    <path d="M 224.452174 470.505743 
L 661.147826 470.505743 
Q 682.982609 470.505743 682.982609 463.095446 
L 682.982609 413.693465 
Q 682.982609 406.283168 661.147826 406.283168 
L 224.452174 406.283168 
Q 202.617391 406.283168 202.617391 413.693465 
L 202.617391 463.095446 
Q 202.617391 470.505743 224.452174 470.505743 
z
" clip-path="url(#p268250e5d2)" style="fill: #2563eb; opacity: 0.2; stroke: #2563eb; stroke-width: 1.5; stroke-linejoin: miter"/>
   </g>
   <g id="patch_12">
    <path d="M 224.452174 544.608713 
L 661.147826 544.608713 
Q 682.982609 544.608713 682.982609 537.198416 
L 682.982609 487.796436 
Q 682.982609 480.386139 661.147826 480.386139 
L 224.452174 480.386139 
Q 202.617391 480.386139 202.617391 487.796436 
L 202.617391 537.198416 
Q 202.617391 544.608713 224.452174 544.608713 
z
" clip-path="url(#p268250e5d2)" style="fill: #10b981; opacity: 0.2; stroke: #10b981; stroke-width: 1.5; stroke-linejoin: miter"/>
   </g>
   <g id="text_1">
    <!-- Start with -->
    <g style="fill: #2563eb" transform="translate(408.9075 131.117965) scale(0.12 -0.12)">
     <defs>
      <path id="DejaVuSans-Bold-53" d="M 3834 4519 
L 3834 3531 
Q 3450 3703 3084 3790 
Q 2719 3878 2394 3878 
Q 1963 3878 1756 3759 
Q 1550 3641 1550 3391 
Q 1550 3203 1689 3098 
Q 1828 2994 2194 2919 
L 2706 2816 
Q 3484 2659 3812 2340 
Q 4141 2022 4141 1434 
Q 4141 663 3683 286 
Q 3225 -91 2284 -91 
Q 1841 -91 1394 -6 
Q 947 78 500 244 
L 500 1259 
Q 947 1022 1364 901 
Q 1781 781 2169 781 
Q 2563 781 2772 912 
Q 2981 1044 2981 1288 
Q 2981 1506 2839 1625 
Q 2697 1744 2272 1838 
L 1806 1941 
Q 1106 2091 782 2419 
Q 459 2747 459 3303 
Q 459 4000 909 4375 
Q 1359 4750 2203 4750 
Q 2588 4750 2994 4692 
Q 3400 4634 3834 4519 
z
" transform="scale(0.015625)"/>
      <path id="DejaVuSans-Bold-74" d="M 1759 4494 
L 1759 3500 
L 2913 3500 
L 2913 2700 
L 1759 2700 
L 1759 1216 
Q 1759 972 1856 886 
Q 1953 800 2241 800 
L 2816 800 
L 2816 0 
L 1856 0 
Q 1194 0 917 276 
Q 641 553 641 1216 
L 641 2700 
L 84 2700 
L 84 3500 
L 641 3500 
L 641 4494 
L 1759 4494 
z
" transform="scale(0.015625)"/>
      <path id="DejaVuSans-Bold-61" d="M 2106 1575 
Q 1756 1575 1579 1456 
Q 1403 1338 1403 1106 
Q 1403 894 1545 773 
Q 1688 653 1941 653 
Q 2256 653 2472 879 
Q 2688 1106 2688 1447 
L 2688 1575 
L 2106 1575 
z
M 3816 1997 
L 3816 0 
L 2688 0 
L 2688 519 
Q 2463 200 2181 54 
Q 1900 -91 1497 -91 
Q 953 -91 614 226 
Q 275 544 275 1050 
Q 275 1666 698 1953 
Q 1122 2241 2028 2241 
L 2688 2241 
L 2688 2328 
Q 2688 2594 2478 2717 
Q 2269 2841 1825 2841 
Q 1466 2841 1156 2769 
Q 847 2697 581 2553 
L 581 3406 
Q 941 3494 1303 3539 
Q 1666 3584 2028 3584 
Q 2975 3584 3395 3211 
Q 3816 2838 3816 1997 
z
" transform="scale(0.015625)"/>
      <path id="DejaVuSans-Bold-72" d="M 3138 2547 
Q 2991 2616 2845 2648 
Q 2700 2681 2553 2681 
Q 2122 2681 1889 2404 
Q 1656 2128 1656 1613 
L 1656 0 
L 538 0 
L 538 3500 
L 1656 3500 
L 1656 2925 
Q 1872 3269 2151 3426 
Q 2431 3584 2822 3584 
Q 2878 3584 2943 3579 
Q 3009 3575 3134 3559 
L 3138 2547 
z
" transform="scale(0.015625)"/>
      <path id="DejaVuSans-Bold-20" transform="scale(0.015625)"/>
      <path id="DejaVuSans-Bold-77" d="M 225 3500 
L 1313 3500 
L 1900 1088 
L 2491 3500 
L 3425 3500 
L 4013 1113 
L 4603 3500 
L 5691 3500 
L 4769 0 
L 3547 0 
L 2956 2406 
L 2369 0 
L 1147 0 
L 225 3500 
z
" transform="scale(0.015625)"/>
      <path id="DejaVuSans-Bold-69" d="M 538 3500 
L 1656 3500 
L 1656 0 
L 538 0 
L 538 3500 
z
M 538 4863 
L 1656 4863 
L 1656 3950 
L 538 3950 
L 538 4863 
z
" transform="scale(0.015625)"/>
      <path id="DejaVuSans-Bold-68" d="M 4056 2131 
L 4056 0 
L 2931 0 
L 2931 347 
L 2931 1625 
Q 2931 2084 2911 2256 
Q 2891 2428 2841 2509 
Q 2775 2619 2662 2680 
Q 2550 2741 2406 2741 
Q 2056 2741 1856 2470 
Q 1656 2200 1656 1722 
L 1656 0 
L 538 0 
L 538 4863 
L 1656 4863 
L 1656 2988 
Q 1909 3294 2193 3439 
Q 2478 3584 2822 3584 
Q 3428 3584 3742 3212 
Q 4056 2841 4056 2131 
z
" transform="scale(0.015625)"/>
     </defs>
     <use xlink:href="#DejaVuSans-Bold-53"/>
     <use xlink:href="#DejaVuSans-Bold-74" transform="translate(72.021484 0)"/>
     <use xlink:href="#DejaVuSans-Bold-61" transform="translate(119.824219 0)"/>
     <use xlink:href="#DejaVuSans-Bold-72" transform="translate(187.304688 0)"/>
     <use xlink:href="#DejaVuSans-Bold-74" transform="translate(236.621094 0)"/>
     <use xlink:href="#DejaVuSans-Bold-20" transform="translate(284.423828 0)"/>
     <use xlink:href="#DejaVuSans-Bold-77" transform="translate(319.238281 0)"/>
     <use xlink:href="#DejaVuSans-Bold-69" transform="translate(411.621094 0)"/>
     <use xlink:href="#DejaVuSans-Bold-74" transform="translate(445.898438 0)"/>
     <use xlink:href="#DejaVuSans-Bold-68" transform="translate(493.701172 0)"/>
    </g>
    <!-- Seed Keywords -->
    <g style="fill: #2563eb" transform="translate(390.94125 144.55534) scale(0.12 -0.12)">
     <defs>
      <path id="DejaVuSans-Bold-65" d="M 4031 1759 
L 4031 1441 
L 1416 1441 
Q 1456 1047 1700 850 
Q 1944 653 2381 653 
Q 2734 653 3104 758 
Q 3475 863 3866 1075 
L 3866 213 
Q 3469 63 3072 -14 
Q 2675 -91 2278 -91 
Q 1328 -91 801 392 
Q 275 875 275 1747 
Q 275 2603 792 3093 
Q 1309 3584 2216 3584 
Q 3041 3584 3536 3087 
Q 4031 2591 4031 1759 
z
M 2881 2131 
Q 2881 2450 2695 2645 
Q 2509 2841 2209 2841 
Q 1884 2841 1681 2658 
Q 1478 2475 1428 2131 
L 2881 2131 
z
" transform="scale(0.015625)"/>
      <path id="DejaVuSans-Bold-64" d="M 2919 2988 
L 2919 4863 
L 4044 4863 
L 4044 0 
L 2919 0 
L 2919 506 
Q 2688 197 2409 53 
Q 2131 -91 1766 -91 
Q 1119 -91 703 423 
Q 288 938 288 1747 
Q 288 2556 703 3070 
Q 1119 3584 1766 3584 
Q 2128 3584 2408 3439 
Q 2688 3294 2919 2988 
z
M 2181 722 
Q 2541 722 2730 984 
Q 2919 1247 2919 1747 
Q 2919 2247 2730 2509 
Q 2541 2772 2181 2772 
Q 1825 2772 1636 2509 
Q 1447 2247 1447 1747 
Q 1447 1247 1636 984 
Q 1825 722 2181 722 
z
" transform="scale(0.015625)"/>
      <path id="DejaVuSans-Bold-4b" d="M 588 4666 
L 1791 4666 
L 1791 2963 
L 3525 4666 
L 4922 4666 
L 2675 2456 
L 5153 0 
L 3647 0 
L 1791 1838 
L 1791 0 
L 588 0 
L 588 4666 
z
" transform="scale(0.015625)"/>
      <path id="DejaVuSans-Bold-79" d="M 78 3500 
L 1197 3500 
L 2138 1125 
L 2938 3500 
L 4056 3500 
L 2584 -331 
Q 2363 -916 2067 -1148 
Q 1772 -1381 1288 -1381 
L 641 -1381 
L 641 -647 
L 991 -647 
Q 1275 -647 1404 -556 
Q 1534 -466 1606 -231 
L 1638 -134 
L 78 3500 
z
" transform="scale(0.015625)"/>
      <path id="DejaVuSans-Bold-6f" d="M 2203 2784 
Q 1831 2784 1636 2517 
Q 1441 2250 1441 1747 
Q 1441 1244 1636 976 
Q 1831 709 2203 709 
Q 2569 709 2762 976 
Q 2956 1244 2956 1747 
Q 2956 2250 2762 2517 
Q 2569 2784 2203 2784 
z
M 2203 3584 
Q 3106 3584 3614 3096 
Q 4122 2609 4122 1747 
Q 4122 884 3614 396 
Q 3106 -91 2203 -91 
Q 1297 -91 786 396 
Q 275 884 275 1747 
Q 275 2609 786 3096 
Q 1297 3584 2203 3584 
z
" transform="scale(0.015625)"/>
      <path id="DejaVuSans-Bold-73" d="M 3272 3391 
L 3272 2541 
Q 2913 2691 2578 2766 
Q 2244 2841 1947 2841 
Q 1628 2841 1473 2761 
Q 1319 2681 1319 2516 
Q 1319 2381 1436 2309 
Q 1553 2238 1856 2203 
L 2053 2175 
Q 2913 2066 3209 1816 
Q 3506 1566 3506 1031 
Q 3506 472 3093 190 
Q 2681 -91 1863 -91 
Q 1516 -91 1145 -36 
Q 775 19 384 128 
L 384 978 
Q 719 816 1070 734 
Q 1422 653 1784 653 
Q 2113 653 2278 743 
Q 2444 834 2444 1013 
Q 2444 1163 2330 1236 
Q 2216 1309 1875 1350 
L 1678 1375 
Q 931 1469 631 1722 
Q 331 1975 331 2491 
Q 331 3047 712 3315 
Q 1094 3584 1881 3584 
Q 2191 3584 2531 3537 
Q 2872 3491 3272 3391 
z
" transform="scale(0.015625)"/>
     </defs>
     <use xlink:href="#DejaVuSans-Bold-53"/>
     <use xlink:href="#DejaVuSans-Bold-65" transform="translate(72.021484 0)"/>
     <use xlink:href="#DejaVuSans-Bold-65" transform="translate(139.84375 0)"/>
     <use xlink:href="#DejaVuSans-Bold-64" transform="translate(207.666016 0)"/>
     <use xlink:href="#DejaVuSans-Bold-20" transform="translate(279.248047 0)"/>
     <use xlink:href="#DejaVuSans-Bold-4b" transform="translate(314.0625 0)"/>
     <use xlink:href="#DejaVuSans-Bold-65" transform="translate(389.802734 0)"/>
     <use xlink:href="#DejaVuSans-Bold-79" transform="translate(457.625 0)"/>
     <use xlink:href="#DejaVuSans-Bold-77" transform="translate(522.810547 0)"/>
     <use xlink:href="#DejaVuSans-Bold-6f" transform="translate(615.193359 0)"/>
     <use xlink:href="#DejaVuSans-Bold-72" transform="translate(683.894531 0)"/>
     <use xlink:href="#DejaVuSans-Bold-64" transform="translate(733.210938 0)"/>
     <use xlink:href="#DejaVuSans-Bold-73" transform="translate(804.792969 0)"/>
    </g>
   </g>
   <g id="text_2">
    <!-- Autocomplete -->
    <g style="fill: #10b981" transform="translate(395.605312 211.986498) scale(0.12 -0.12)">
     <defs>
      <path id="DejaVuSans-Bold-41" d="M 3419 850 
L 1538 850 
L 1241 0 
L 31 0 
L 1759 4666 
L 3194 4666 
L 4922 0 
L 3713 0 
L 3419 850 
z
M 1838 1716 
L 3116 1716 
L 2478 3572 
L 1838 1716 
z
" transform="scale(0.015625)"/>
      <path id="DejaVuSans-Bold-75" d="M 500 1363 
L 500 3500 
L 1625 3500 
L 1625 3150 
Q 1625 2866 1622 2436 
Q 1619 2006 1619 1863 
Q 1619 1441 1641 1255 
Q 1663 1069 1716 984 
Q 1784 875 1895 815 
Q 2006 756 2150 756 
Q 2500 756 2700 1025 
Q 2900 1294 2900 1772 
L 2900 3500 
L 4019 3500 
L 4019 0 
L 2900 0 
L 2900 506 
Q 2647 200 2364 54 
Q 2081 -91 1741 -91 
Q 1134 -91 817 281 
Q 500 653 500 1363 
z
" transform="scale(0.015625)"/>
      <path id="DejaVuSans-Bold-63" d="M 3366 3391 
L 3366 2478 
Q 3138 2634 2908 2709 
Q 2678 2784 2431 2784 
Q 1963 2784 1702 2511 
Q 1441 2238 1441 1747 
Q 1441 1256 1702 982 
Q 1963 709 2431 709 
Q 2694 709 2930 787 
Q 3166 866 3366 1019 
L 3366 103 
Q 3103 6 2833 -42 
Q 2563 -91 2291 -91 
Q 1344 -91 809 395 
Q 275 881 275 1747 
Q 275 2613 809 3098 
Q 1344 3584 2291 3584 
Q 2566 3584 2833 3536 
Q 3100 3488 3366 3391 
z
" transform="scale(0.015625)"/>
      <path id="DejaVuSans-Bold-6d" d="M 3781 2919 
Q 3994 3244 4286 3414 
Q 4578 3584 4928 3584 
Q 5531 3584 5847 3212 
Q 6163 2841 6163 2131 
L 6163 0 
L 5038 0 
L 5038 1825 
Q 5041 1866 5042 1909 
Q 5044 1953 5044 2034 
Q 5044 2406 4934 2573 
Q 4825 2741 4581 2741 
Q 4263 2741 4089 2478 
Q 3916 2216 3909 1719 
L 3909 0 
L 2784 0 
L 2784 1825 
Q 2784 2406 2684 2573 
Q 2584 2741 2328 2741 
Q 2006 2741 1831 2477 
Q 1656 2213 1656 1722 
L 1656 0 
L 531 0 
L 531 3500 
L 1656 3500 
L 1656 2988 
Q 1863 3284 2130 3434 
Q 2397 3584 2719 3584 
Q 3081 3584 3359 3409 
Q 3638 3234 3781 2919 
z
" transform="scale(0.015625)"/>
      <path id="DejaVuSans-Bold-70" d="M 1656 506 
L 1656 -1331 
L 538 -1331 
L 538 3500 
L 1656 3500 
L 1656 2988 
Q 1888 3294 2169 3439 
Q 2450 3584 2816 3584 
Q 3463 3584 3878 3070 
Q 4294 2556 4294 1747 
Q 4294 938 3878 423 
Q 3463 -91 2816 -91 
Q 2450 -91 2169 54 
Q 1888 200 1656 506 
z
M 2400 2772 
Q 2041 2772 1848 2508 
Q 1656 2244 1656 1747 
Q 1656 1250 1848 986 
Q 2041 722 2400 722 
Q 2759 722 2948 984 
Q 3138 1247 3138 1747 
Q 3138 2247 2948 2509 
Q 2759 2772 2400 2772 
z
" transform="scale(0.015625)"/>
      <path id="DejaVuSans-Bold-6c" d="M 538 4863 
L 1656 4863 
L 1656 0 
L 538 0 
L 538 4863 
z
" transform="scale(0.015625)"/>
     </defs>
     <use xlink:href="#DejaVuSans-Bold-41"/>
     <use xlink:href="#DejaVuSans-Bold-75" transform="translate(77.392578 0)"/>
     <use xlink:href="#DejaVuSans-Bold-74" transform="translate(148.583984 0)"/>
     <use xlink:href="#DejaVuSans-Bold-6f" transform="translate(196.386719 0)"/>
     <use xlink:href="#DejaVuSans-Bold-63" transform="translate(265.087891 0)"/>
     <use xlink:href="#DejaVuSans-Bold-6f" transform="translate(324.365234 0)"/>
     <use xlink:href="#DejaVuSans-Bold-6d" transform="translate(393.066406 0)"/>
     <use xlink:href="#DejaVuSans-Bold-70" transform="translate(497.265625 0)"/>
     <use xlink:href="#DejaVuSans-Bold-6c" transform="translate(568.847656 0)"/>
     <use xlink:href="#DejaVuSans-Bold-65" transform="translate(603.125 0)"/>
     <use xlink:href="#DejaVuSans-Bold-74" transform="translate(670.947266 0)"/>
     <use xlink:href="#DejaVuSans-Bold-65" transform="translate(718.75 0)"/>
    </g>
   </g>
   <g id="text_3">
    <!-- (Google) -->
    <g style="fill: #4b5563" transform="translate(421.265625 226.255217) scale(0.1 -0.1)">
     <defs>
      <path id="DejaVuSans-Oblique-28" d="M 2731 4856 
Q 1903 3822 1495 2892 
Q 1088 1963 1088 1100 
Q 1088 606 1206 120 
Q 1325 -366 1563 -844 
L 1063 -844 
Q 775 -306 634 201 
Q 494 709 494 1197 
Q 494 2125 923 3036 
Q 1353 3947 2222 4856 
L 2731 4856 
z
" transform="scale(0.015625)"/>
      <path id="DejaVuSans-Oblique-47" d="M 3494 697 
L 3738 1919 
L 2700 1919 
L 2797 2438 
L 4453 2438 
L 4050 384 
Q 3634 156 3143 32 
Q 2653 -91 2156 -91 
Q 1278 -91 783 396 
Q 288 884 288 1753 
Q 288 2475 589 3126 
Q 891 3778 1422 4213 
Q 1756 4484 2153 4617 
Q 2550 4750 3034 4750 
Q 3472 4750 3873 4639 
Q 4275 4528 4641 4306 
L 4513 3634 
Q 4231 3928 3853 4083 
Q 3475 4238 3047 4238 
Q 2550 4238 2172 4048 
Q 1794 3859 1497 3463 
Q 1244 3125 1098 2667 
Q 953 2209 953 1734 
Q 953 1081 1287 751 
Q 1622 422 2284 422 
Q 2616 422 2925 492 
Q 3234 563 3494 697 
z
" transform="scale(0.015625)"/>
      <path id="DejaVuSans-Oblique-6f" d="M 1625 -91 
Q 1009 -91 651 289 
Q 294 669 294 1325 
Q 294 1706 417 2101 
Q 541 2497 738 2766 
Q 1047 3184 1428 3384 
Q 1809 3584 2291 3584 
Q 2888 3584 3255 3212 
Q 3622 2841 3622 2241 
Q 3622 1825 3500 1412 
Q 3378 1000 3181 728 
Q 2875 309 2494 109 
Q 2113 -91 1625 -91 
z
M 891 1344 
Q 891 869 1089 633 
Q 1288 397 1691 397 
Q 2269 397 2648 901 
Q 3028 1406 3028 2181 
Q 3028 2634 2825 2865 
Q 2622 3097 2228 3097 
Q 1903 3097 1650 2945 
Q 1397 2794 1197 2484 
Q 1050 2253 970 1956 
Q 891 1659 891 1344 
z
" transform="scale(0.015625)"/>
      <path id="DejaVuSans-Oblique-67" d="M 3816 3500 
L 3219 434 
Q 3047 -456 2561 -893 
Q 2075 -1331 1253 -1331 
Q 950 -1331 690 -1286 
Q 431 -1241 206 -1147 
L 313 -588 
Q 525 -725 762 -790 
Q 1000 -856 1269 -856 
Q 1816 -856 2167 -557 
Q 2519 -259 2631 300 
L 2681 563 
Q 2441 288 2122 144 
Q 1803 0 1434 0 
Q 903 0 598 351 
Q 294 703 294 1319 
Q 294 1803 478 2267 
Q 663 2731 997 3091 
Q 1219 3328 1514 3456 
Q 1809 3584 2131 3584 
Q 2484 3584 2746 3420 
Q 3009 3256 3138 2956 
L 3238 3500 
L 3816 3500 
z
M 2950 2216 
Q 2950 2641 2750 2872 
Q 2550 3103 2181 3103 
Q 1953 3103 1747 3012 
Q 1541 2922 1394 2759 
Q 1156 2491 1023 2127 
Q 891 1763 891 1375 
Q 891 944 1092 712 
Q 1294 481 1672 481 
Q 2219 481 2584 976 
Q 2950 1472 2950 2216 
z
" transform="scale(0.015625)"/>
      <path id="DejaVuSans-Oblique-6c" d="M 1172 4863 
L 1747 4863 
L 800 0 
L 225 0 
L 1172 4863 
z
" transform="scale(0.015625)"/>
      <path id="DejaVuSans-Oblique-65" d="M 3078 2063 
Q 3088 2113 3092 2166 
Q 3097 2219 3097 2272 
Q 3097 2653 2873 2875 
Q 2650 3097 2266 3097 
Q 1838 3097 1509 2826 
Q 1181 2556 1013 2059 
L 3078 2063 
z
M 3578 1613 
L 903 1613 
Q 884 1494 878 1425 
Q 872 1356 872 1306 
Q 872 872 1139 634 
Q 1406 397 1894 397 
Q 2269 397 2603 481 
Q 2938 566 3225 728 
L 3116 159 
Q 2806 34 2476 -28 
Q 2147 -91 1806 -91 
Q 1078 -91 686 257 
Q 294 606 294 1247 
Q 294 1794 489 2264 
Q 684 2734 1063 3103 
Q 1306 3334 1642 3459 
Q 1978 3584 2356 3584 
Q 2950 3584 3301 3228 
Q 3653 2872 3653 2272 
Q 3653 2128 3634 1964 
Q 3616 1800 3578 1613 
z
" transform="scale(0.015625)"/>
      <path id="DejaVuSans-Oblique-29" d="M -397 -844 
Q 434 191 840 1120 
Q 1247 2050 1247 2913 
Q 1247 3406 1130 3892 
Q 1013 4378 775 4856 
L 1275 4856 
Q 1563 4316 1703 3812 
Q 1844 3309 1844 2822 
Q 1844 1891 1411 973 
Q 978 56 116 -844 
L -397 -844 
z
" transform="scale(0.015625)"/>
     </defs>
     <use xlink:href="#DejaVuSans-Oblique-28"/>
     <use xlink:href="#DejaVuSans-Oblique-47" transform="translate(39.013672 0)"/>
     <use xlink:href="#DejaVuSans-Oblique-6f" transform="translate(116.503906 0)"/>
     <use xlink:href="#DejaVuSans-Oblique-6f" transform="translate(177.685547 0)"/>
     <use xlink:href="#DejaVuSans-Oblique-67" transform="translate(238.867188 0)"/>
     <use xlink:href="#DejaVuSans-Oblique-6c" transform="translate(302.34375 0)"/>
     <use xlink:href="#DejaVuSans-Oblique-65" transform="translate(330.126953 0)"/>
     <use xlink:href="#DejaVuSans-Oblique-29" transform="translate(391.650391 0)"/>
    </g>
   </g>
   <g id="text_4">
    <!-- People Also Ask -->
    <g style="fill: #8b5cf6" transform="translate(389.01375 286.089468) scale(0.12 -0.12)">
     <defs>
      <path id="DejaVuSans-Bold-50" d="M 588 4666 
L 2584 4666 
Q 3475 4666 3951 4270 
Q 4428 3875 4428 3144 
Q 4428 2409 3951 2014 
Q 3475 1619 2584 1619 
L 1791 1619 
L 1791 0 
L 588 0 
L 588 4666 
z
M 1791 3794 
L 1791 2491 
L 2456 2491 
Q 2806 2491 2997 2661 
Q 3188 2831 3188 3144 
Q 3188 3456 2997 3625 
Q 2806 3794 2456 3794 
L 1791 3794 
z
" transform="scale(0.015625)"/>
      <path id="DejaVuSans-Bold-6b" d="M 538 4863 
L 1656 4863 
L 1656 2216 
L 2944 3500 
L 4244 3500 
L 2534 1894 
L 4378 0 
L 3022 0 
L 1656 1459 
L 1656 0 
L 538 0 
L 538 4863 
z
" transform="scale(0.015625)"/>
     </defs>
     <use xlink:href="#DejaVuSans-Bold-50"/>
     <use xlink:href="#DejaVuSans-Bold-65" transform="translate(73.291016 0)"/>
     <use xlink:href="#DejaVuSans-Bold-6f" transform="translate(141.113281 0)"/>
     <use xlink:href="#DejaVuSans-Bold-70" transform="translate(209.814453 0)"/>
     <use xlink:href="#DejaVuSans-Bold-6c" transform="translate(281.396484 0)"/>
     <use xlink:href="#DejaVuSans-Bold-65" transform="translate(315.673828 0)"/>
     <use xlink:href="#DejaVuSans-Bold-20" transform="translate(383.496094 0)"/>
     <use xlink:href="#DejaVuSans-Bold-41" transform="translate(418.310547 0)"/>
     <use xlink:href="#DejaVuSans-Bold-6c" transform="translate(495.703125 0)"/>
     <use xlink:href="#DejaVuSans-Bold-73" transform="translate(529.980469 0)"/>
     <use xlink:href="#DejaVuSans-Bold-6f" transform="translate(589.501953 0)"/>
     <use xlink:href="#DejaVuSans-Bold-20" transform="translate(658.203125 0)"/>
     <use xlink:href="#DejaVuSans-Bold-41" transform="translate(693.017578 0)"/>
     <use xlink:href="#DejaVuSans-Bold-73" transform="translate(770.410156 0)"/>
     <use xlink:href="#DejaVuSans-Bold-6b" transform="translate(829.931641 0)"/>
    </g>
   </g>
   <g id="text_5">
    <!-- (Google) -->
    <g style="fill: #4b5563" transform="translate(421.265625 300.358187) scale(0.1 -0.1)">
     <use xlink:href="#DejaVuSans-Oblique-28"/>
     <use xlink:href="#DejaVuSans-Oblique-47" transform="translate(39.013672 0)"/>
     <use xlink:href="#DejaVuSans-Oblique-6f" transform="translate(116.503906 0)"/>
     <use xlink:href="#DejaVuSans-Oblique-6f" transform="translate(177.685547 0)"/>
     <use xlink:href="#DejaVuSans-Oblique-67" transform="translate(238.867188 0)"/>
     <use xlink:href="#DejaVuSans-Oblique-6c" transform="translate(302.34375 0)"/>
     <use xlink:href="#DejaVuSans-Oblique-65" transform="translate(330.126953 0)"/>
     <use xlink:href="#DejaVuSans-Oblique-29" transform="translate(391.650391 0)"/>
    </g>
   </g>
   <g id="text_6">
    <!-- Related Searches -->
    <g style="fill: #f59e0b" transform="translate(383.81625 360.192438) scale(0.12 -0.12)">
     <defs>
      <path id="DejaVuSans-Bold-52" d="M 2297 2597 
Q 2675 2597 2839 2737 
Q 3003 2878 3003 3200 
Q 3003 3519 2839 3656 
Q 2675 3794 2297 3794 
L 1791 3794 
L 1791 2597 
L 2297 2597 
z
M 1791 1766 
L 1791 0 
L 588 0 
L 588 4666 
L 2425 4666 
Q 3347 4666 3776 4356 
Q 4206 4047 4206 3378 
Q 4206 2916 3982 2619 
Q 3759 2322 3309 2181 
Q 3556 2125 3751 1926 
Q 3947 1728 4147 1325 
L 4800 0 
L 3519 0 
L 2950 1159 
Q 2778 1509 2601 1637 
Q 2425 1766 2131 1766 
L 1791 1766 
z
" transform="scale(0.015625)"/>
     </defs>
     <use xlink:href="#DejaVuSans-Bold-52"/>
     <use xlink:href="#DejaVuSans-Bold-65" transform="translate(77.001953 0)"/>
     <use xlink:href="#DejaVuSans-Bold-6c" transform="translate(144.824219 0)"/>
     <use xlink:href="#DejaVuSans-Bold-61" transform="translate(179.101562 0)"/>
     <use xlink:href="#DejaVuSans-Bold-74" transform="translate(246.582031 0)"/>
     <use xlink:href="#DejaVuSans-Bold-65" transform="translate(294.384766 0)"/>
     <use xlink:href="#DejaVuSans-Bold-64" transform="translate(362.207031 0)"/>
     <use xlink:href="#DejaVuSans-Bold-20" transform="translate(433.789062 0)"/>
     <use xlink:href="#DejaVuSans-Bold-53" transform="translate(468.603516 0)"/>
     <use xlink:href="#DejaVuSans-Bold-65" transform="translate(540.625 0)"/>
     <use xlink:href="#DejaVuSans-Bold-61" transform="translate(608.447266 0)"/>
     <use xlink:href="#DejaVuSans-Bold-72" transform="translate(675.927734 0)"/>
     <use xlink:href="#DejaVuSans-Bold-63" transform="translate(725.244141 0)"/>
     <use xlink:href="#DejaVuSans-Bold-68" transform="translate(784.521484 0)"/>
     <use xlink:href="#DejaVuSans-Bold-65" transform="translate(855.712891 0)"/>
     <use xlink:href="#DejaVuSans-Bold-73" transform="translate(923.535156 0)"/>
    </g>
   </g>
   <g id="text_7">
    <!-- (Google) -->
    <g style="fill: #4b5563" transform="translate(421.265625 374.461157) scale(0.1 -0.1)">
     <use xlink:href="#DejaVuSans-Oblique-28"/>
     <use xlink:href="#DejaVuSans-Oblique-47" transform="translate(39.013672 0)"/>
     <use xlink:href="#DejaVuSans-Oblique-6f" transform="translate(116.503906 0)"/>
     <use xlink:href="#DejaVuSans-Oblique-6f" transform="translate(177.685547 0)"/>
     <use xlink:href="#DejaVuSans-Oblique-67" transform="translate(238.867188 0)"/>
     <use xlink:href="#DejaVuSans-Oblique-6c" transform="translate(302.34375 0)"/>
     <use xlink:href="#DejaVuSans-Oblique-65" transform="translate(330.126953 0)"/>
     <use xlink:href="#DejaVuSans-Oblique-29" transform="translate(391.650391 0)"/>
    </g>
   </g>
   <g id="text_8">
    <!-- Keyword Planner -->
    <g style="fill: #2563eb" transform="translate(385.1925 434.248533) scale(0.12 -0.12)">
     <defs>
      <path id="DejaVuSans-Bold-6e" d="M 4056 2131 
L 4056 0 
L 2931 0 
L 2931 347 
L 2931 1631 
Q 2931 2084 2911 2256 
Q 2891 2428 2841 2509 
Q 2775 2619 2662 2680 
Q 2550 2741 2406 2741 
Q 2056 2741 1856 2470 
Q 1656 2200 1656 1722 
L 1656 0 
L 538 0 
L 538 3500 
L 1656 3500 
L 1656 2988 
Q 1909 3294 2193 3439 
Q 2478 3584 2822 3584 
Q 3428 3584 3742 3212 
Q 4056 2841 4056 2131 
z
" transform="scale(0.015625)"/>
     </defs>
     <use xlink:href="#DejaVuSans-Bold-4b"/>
     <use xlink:href="#DejaVuSans-Bold-65" transform="translate(75.740234 0)"/>
     <use xlink:href="#DejaVuSans-Bold-79" transform="translate(143.5625 0)"/>
     <use xlink:href="#DejaVuSans-Bold-77" transform="translate(208.748047 0)"/>
     <use xlink:href="#DejaVuSans-Bold-6f" transform="translate(301.130859 0)"/>
     <use xlink:href="#DejaVuSans-Bold-72" transform="translate(369.832031 0)"/>
     <use xlink:href="#DejaVuSans-Bold-64" transform="translate(419.148438 0)"/>
     <use xlink:href="#DejaVuSans-Bold-20" transform="translate(490.730469 0)"/>
     <use xlink:href="#DejaVuSans-Bold-50" transform="translate(525.544922 0)"/>
     <use xlink:href="#DejaVuSans-Bold-6c" transform="translate(598.835938 0)"/>
     <use xlink:href="#DejaVuSans-Bold-61" transform="translate(633.113281 0)"/>
     <use xlink:href="#DejaVuSans-Bold-6e" transform="translate(700.59375 0)"/>
     <use xlink:href="#DejaVuSans-Bold-6e" transform="translate(771.785156 0)"/>
     <use xlink:href="#DejaVuSans-Bold-65" transform="translate(842.976562 0)"/>
     <use xlink:href="#DejaVuSans-Bold-72" transform="translate(910.798828 0)"/>
    </g>
   </g>
   <g id="text_9">
    <!-- (Google Ads) -->
    <g style="fill: #4b5563" transform="translate(410.477344 448.564127) scale(0.1 -0.1)">
     <defs>
      <path id="DejaVuSans-Oblique-20" transform="scale(0.015625)"/>
      <path id="DejaVuSans-Oblique-41" d="M 2356 4666 
L 3072 4666 
L 3938 0 
L 3278 0 
L 3084 1197 
L 984 1197 
L 325 0 
L -341 0 
L 2356 4666 
z
M 2584 4044 
L 1275 1722 
L 2988 1722 
L 2584 4044 
z
" transform="scale(0.015625)"/>
      <path id="DejaVuSans-Oblique-64" d="M 2675 525 
Q 2444 222 2128 65 
Q 1813 -91 1428 -91 
Q 903 -91 598 267 
Q 294 625 294 1247 
Q 294 1766 478 2236 
Q 663 2706 1013 3078 
Q 1244 3325 1534 3454 
Q 1825 3584 2144 3584 
Q 2481 3584 2739 3421 
Q 2997 3259 3138 2956 
L 3513 4863 
L 4091 4863 
L 3144 0 
L 2566 0 
L 2675 525 
z
M 891 1350 
Q 891 897 1095 644 
Q 1300 391 1663 391 
Q 1931 391 2161 520 
Q 2391 650 2566 903 
Q 2750 1166 2856 1509 
Q 2963 1853 2963 2188 
Q 2963 2622 2758 2865 
Q 2553 3109 2194 3109 
Q 1922 3109 1687 2981 
Q 1453 2853 1288 2613 
Q 1106 2353 998 2009 
Q 891 1666 891 1350 
z
" transform="scale(0.015625)"/>
      <path id="DejaVuSans-Oblique-73" d="M 3200 3397 
L 3091 2853 
Q 2863 2978 2609 3040 
Q 2356 3103 2088 3103 
Q 1634 3103 1373 2948 
Q 1113 2794 1113 2528 
Q 1113 2219 1719 2053 
Q 1766 2041 1788 2034 
L 1972 1978 
Q 2547 1819 2739 1644 
Q 2931 1469 2931 1166 
Q 2931 609 2489 259 
Q 2047 -91 1331 -91 
Q 1053 -91 747 -37 
Q 441 16 72 128 
L 184 722 
Q 500 559 806 475 
Q 1113 391 1394 391 
Q 1816 391 2080 572 
Q 2344 753 2344 1031 
Q 2344 1331 1650 1516 
L 1591 1531 
L 1394 1581 
Q 956 1697 753 1886 
Q 550 2075 550 2369 
Q 550 2928 970 3256 
Q 1391 3584 2113 3584 
Q 2397 3584 2667 3537 
Q 2938 3491 3200 3397 
z
" transform="scale(0.015625)"/>
     </defs>
     <use xlink:href="#DejaVuSans-Oblique-28"/>
     <use xlink:href="#DejaVuSans-Oblique-47" transform="translate(39.013672 0)"/>
     <use xlink:href="#DejaVuSans-Oblique-6f" transform="translate(116.503906 0)"/>
     <use xlink:href="#DejaVuSans-Oblique-6f" transform="translate(177.685547 0)"/>
     <use xlink:href="#DejaVuSans-Oblique-67" transform="translate(238.867188 0)"/>
     <use xlink:href="#DejaVuSans-Oblique-6c" transform="translate(302.34375 0)"/>
     <use xlink:href="#DejaVuSans-Oblique-65" transform="translate(330.126953 0)"/>
     <use xlink:href="#DejaVuSans-Oblique-20" transform="translate(391.650391 0)"/>
     <use xlink:href="#DejaVuSans-Oblique-41" transform="translate(423.4375 0)"/>
     <use xlink:href="#DejaVuSans-Oblique-64" transform="translate(491.845703 0)"/>
     <use xlink:href="#DejaVuSans-Oblique-73" transform="translate(555.322266 0)"/>
     <use xlink:href="#DejaVuSans-Oblique-29" transform="translate(607.421875 0)"/>
    </g>
   </g>
   <g id="text_10">
    <!-- Combine Results -->
    <g style="fill: #10b981" transform="translate(386.213437 508.398379) scale(0.12 -0.12)">
     <defs>
      <path id="DejaVuSans-Bold-43" d="M 4288 256 
Q 3956 84 3597 -3 
Q 3238 -91 2847 -91 
Q 1681 -91 1000 561 
Q 319 1213 319 2328 
Q 319 3447 1000 4098 
Q 1681 4750 2847 4750 
Q 3238 4750 3597 4662 
Q 3956 4575 4288 4403 
L 4288 3438 
Q 3953 3666 3628 3772 
Q 3303 3878 2944 3878 
Q 2300 3878 1931 3465 
Q 1563 3053 1563 2328 
Q 1563 1606 1931 1193 
Q 2300 781 2944 781 
Q 3303 781 3628 887 
Q 3953 994 4288 1222 
L 4288 256 
z
" transform="scale(0.015625)"/>
      <path id="DejaVuSans-Bold-62" d="M 2400 722 
Q 2759 722 2948 984 
Q 3138 1247 3138 1747 
Q 3138 2247 2948 2509 
Q 2759 2772 2400 2772 
Q 2041 2772 1848 2508 
Q 1656 2244 1656 1747 
Q 1656 1250 1848 986 
Q 2041 722 2400 722 
z
M 1656 2988 
Q 1888 3294 2169 3439 
Q 2450 3584 2816 3584 
Q 3463 3584 3878 3070 
Q 4294 2556 4294 1747 
Q 4294 938 3878 423 
Q 3463 -91 2816 -91 
Q 2450 -91 2169 54 
Q 1888 200 1656 506 
L 1656 0 
L 538 0 
L 538 4863 
L 1656 4863 
L 1656 2988 
z
" transform="scale(0.015625)"/>
     </defs>
     <use xlink:href="#DejaVuSans-Bold-43"/>
     <use xlink:href="#DejaVuSans-Bold-6f" transform="translate(73.388672 0)"/>
     <use xlink:href="#DejaVuSans-Bold-6d" transform="translate(142.089844 0)"/>
     <use xlink:href="#DejaVuSans-Bold-62" transform="translate(246.289062 0)"/>
     <use xlink:href="#DejaVuSans-Bold-69" transform="translate(317.871094 0)"/>
     <use xlink:href="#DejaVuSans-Bold-6e" transform="translate(352.148438 0)"/>
     <use xlink:href="#DejaVuSans-Bold-65" transform="translate(423.339844 0)"/>
     <use xlink:href="#DejaVuSans-Bold-20" transform="translate(491.162109 0)"/>
     <use xlink:href="#DejaVuSans-Bold-52" transform="translate(525.976562 0)"/>
     <use xlink:href="#DejaVuSans-Bold-65" transform="translate(602.978516 0)"/>
     <use xlink:href="#DejaVuSans-Bold-73" transform="translate(670.800781 0)"/>
     <use xlink:href="#DejaVuSans-Bold-75" transform="translate(730.322266 0)"/>
     <use xlink:href="#DejaVuSans-Bold-6c" transform="translate(801.513672 0)"/>
     <use xlink:href="#DejaVuSans-Bold-74" transform="translate(835.791016 0)"/>
     <use xlink:href="#DejaVuSans-Bold-73" transform="translate(883.59375 0)"/>
    </g>
   </g>
  </g>
 </g>
 <defs>
  <clipPath id="p268250e5d2">
   <rect x="108" y="77.76" width="669.6" height="498.96"/>
  </clipPath>
 </defs>
</svg>
