<?xml version="1.0" encoding="utf-8" standalone="no"?>
<!DOCTYPE svg PUBLIC "-//W3C//DTD SVG 1.1//EN"
  "http://www.w3.org/Graphics/SVG/1.1/DTD/svg11.dtd">
<svg xmlns:xlink="http://www.w3.org/1999/xlink" width="1008pt" height="576pt" viewBox="0 0 1008 576" xmlns="http://www.w3.org/2000/svg" version="1.1">
 <metadata>
  <rdf:RDF xmlns:dc="http://purl.org/dc/elements/1.1/" xmlns:cc="http://creativecommons.org/ns#" xmlns:rdf="http://www.w3.org/1999/02/22-rdf-syntax-ns#">
   <cc:Work>
    <dc:type rdf:resource="http://purl.org/dc/dcmitype/StillImage"/>
    <dc:date>2025-12-26T12:55:26.579130</dc:date>
    <dc:format>image/svg+xml</dc:format>
    <dc:creator>
     <cc:Agent>
      <dc:title>Matplotlib v3.10.8, https://matplotlib.org/</dc:title>
     </cc:Agent>
    </dc:creator>
   </cc:Work>
  </rdf:RDF>
 </metadata>
 <defs>
  <style type="text/css">*{stroke-linejoin: round; stroke-linecap: butt}</style>
 </defs>
 <g id="figure_1">
  <g id="patch_1">
   <path d="M 0 576 
L 1008 576 
L 1008 0 
L 0 0 
z
" style="fill: #f8f9fa"/>
  </g>
  <g id="axes_1">
   <g id="patch_2">
    <path d="M 270.275676 248.53037 
Q 270.275676 260.177213 270.275676 270.147004 
" clip-path="url(#p8afbb9cf4a)" style="fill: none; opacity: 0.6; stroke: #ef4444; stroke-width: 1.5; stroke-linecap: round"/>
    <path d="M 270.475676 269.747004 
L 270.275676 270.147004 
L 270.075676 269.747004 
" clip-path="url(#p8afbb9cf4a)" style="fill: none; opacity: 0.6; stroke: #ef4444; stroke-width: 1.5; stroke-linecap: round"/>
   </g>
   <g id="patch_3">
    <path d="M 270.275676 330.410986 
Q 270.275676 342.057828 270.275676 352.027619 
" clip-path="url(#p8afbb9cf4a)" style="fill: none; opacity: 0.6; stroke: #ef4444; stroke-width: 1.5; stroke-linecap: round"/>
    <path d="M 270.475676 351.627619 
L 270.275676 352.027619 
L 270.075676 351.627619 
" clip-path="url(#p8afbb9cf4a)" style="fill: none; opacity: 0.6; stroke: #ef4444; stroke-width: 1.5; stroke-linecap: round"/>
   </g>
   <g id="patch_4">
    <path d="M 762.924324 214.413447 
Q 762.924324 226.060289 762.924324 236.030081 
" clip-path="url(#p8afbb9cf4a)" style="fill: none; opacity: 0.6; stroke: #2563eb; stroke-width: 1.5; stroke-linecap: round"/>
    <path d="M 763.124324 235.630081 
L 762.924324 236.030081 
L 762.724324 235.630081 
" clip-path="url(#p8afbb9cf4a)" style="fill: none; opacity: 0.6; stroke: #2563eb; stroke-width: 1.5; stroke-linecap: round"/>
   </g>
   <g id="patch_5">
    <path d="M 762.924324 296.294063 
Q 762.924324 307.940905 762.924324 317.910696 
" clip-path="url(#p8afbb9cf4a)" style="fill: none; opacity: 0.6; stroke: #2563eb; stroke-width: 1.5; stroke-linecap: round"/>
    <path d="M 763.124324 317.510696 
L 762.924324 317.910696 
L 762.724324 317.510696 
" clip-path="url(#p8afbb9cf4a)" style="fill: none; opacity: 0.6; stroke: #2563eb; stroke-width: 1.5; stroke-linecap: round"/>
   </g>
   <g id="patch_6">
    <path d="M 762.924324 378.174678 
Q 762.924324 389.82152 762.924324 399.791312 
" clip-path="url(#p8afbb9cf4a)" style="fill: none; opacity: 0.6; stroke: #2563eb; stroke-width: 1.5; stroke-linecap: round"/>
    <path d="M 763.124324 399.391312 
L 762.924324 399.791312 
L 762.724324 399.391312 
" clip-path="url(#p8afbb9cf4a)" style="fill: none; opacity: 0.6; stroke: #2563eb; stroke-width: 1.5; stroke-linecap: round"/>
   </g>
   <g id="patch_7">
    <path d="M 182.302703 256.763077 
L 358.248649 256.763077 
Q 368.805405 256.763077 368.805405 246.528 
L 368.805405 191.940923 
Q 368.805405 181.705846 358.248649 181.705846 
L 182.302703 181.705846 
Q 171.745946 181.705846 171.745946 191.940923 
L 171.745946 246.528 
Q 171.745946 256.763077 182.302703 256.763077 
z
" clip-path="url(#p8afbb9cf4a)" style="fill: #ef4444; opacity: 0.2; stroke: #ef4444; stroke-width: 1.5; stroke-linejoin: miter"/>
   </g>
   <g id="patch_8">
    <path d="M 182.302703 338.643692 
L 358.248649 338.643692 
Q 368.805405 338.643692 368.805405 328.408615 
L 368.805405 273.821538 
Q 368.805405 263.586462 358.248649 263.586462 
L 182.302703 263.586462 
Q 171.745946 263.586462 171.745946 273.821538 
L 171.745946 328.408615 
Q 171.745946 338.643692 182.302703 338.643692 
z
" clip-path="url(#p8afbb9cf4a)" style="fill: #ef4444; opacity: 0.2; stroke: #ef4444; stroke-width: 1.5; stroke-linejoin: miter"/>
   </g>
   <g id="patch_9">
    <path d="M 182.302703 420.524308 
L 358.248649 420.524308 
Q 368.805405 420.524308 368.805405 410.289231 
L 368.805405 355.702154 
Q 368.805405 345.467077 358.248649 345.467077 
L 182.302703 345.467077 
Q 171.745946 345.467077 171.745946 355.702154 
L 171.745946 410.289231 
Q 171.745946 420.524308 182.302703 420.524308 
z
" clip-path="url(#p8afbb9cf4a)" style="fill: #ef4444; opacity: 0.2; stroke: #ef4444; stroke-width: 1.5; stroke-linejoin: miter"/>
   </g>
   <g id="patch_10">
    <path d="M 674.951351 222.646154 
L 850.897297 222.646154 
Q 861.454054 222.646154 861.454054 212.411077 
L 861.454054 157.824 
Q 861.454054 147.588923 850.897297 147.588923 
L 674.951351 147.588923 
Q 664.394595 147.588923 664.394595 157.824 
L 664.394595 212.411077 
Q 664.394595 222.646154 674.951351 222.646154 
z
" clip-path="url(#p8afbb9cf4a)" style="fill: #2563eb; opacity: 0.2; stroke: #2563eb; stroke-width: 1.5; stroke-linejoin: miter"/>
   </g>
   <g id="patch_11">
    <path d="M 674.951351 304.526769 
L 850.897297 304.526769 
Q 861.454054 304.526769 861.454054 294.291692 
L 861.454054 239.704615 
Q 861.454054 229.469538 850.897297 229.469538 
L 674.951351 229.469538 
Q 664.394595 229.469538 664.394595 239.704615 
L 664.394595 294.291692 
Q 664.394595 304.526769 674.951351 304.526769 
z
" clip-path="url(#p8afbb9cf4a)" style="fill: #2563eb; opacity: 0.2; stroke: #2563eb; stroke-width: 1.5; stroke-linejoin: miter"/>
   </g>
   <g id="patch_12">
    <path d="M 674.951351 386.407385 
L 850.897297 386.407385 
Q 861.454054 386.407385 861.454054 376.172308 
L 861.454054 321.585231 
Q 861.454054 311.350154 850.897297 311.350154 
L 674.951351 311.350154 
Q 664.394595 311.350154 664.394595 321.585231 
L 664.394595 376.172308 
Q 664.394595 386.407385 674.951351 386.407385 
z
" clip-path="url(#p8afbb9cf4a)" style="fill: #2563eb; opacity: 0.2; stroke: #2563eb; stroke-width: 1.5; stroke-linejoin: miter"/>
   </g>
   <g id="patch_13">
    <path d="M 674.951351 468.288 
L 850.897297 468.288 
Q 861.454054 468.288 861.454054 458.052923 
L 861.454054 403.465846 
Q 861.454054 393.230769 850.897297 393.230769 
L 674.951351 393.230769 
Q 664.394595 393.230769 664.394595 403.465846 
L 664.394595 458.052923 
Q 664.394595 468.288 674.951351 468.288 
z
" clip-path="url(#p8afbb9cf4a)" style="fill: #2563eb; opacity: 0.2; stroke: #2563eb; stroke-width: 1.5; stroke-linejoin: miter"/>
   </g>
   <g id="text_1">
    <!-- Keywords -->
    <g style="fill: #ef4444" transform="translate(237.260676 222.498837) scale(0.12 -0.12)">
     <defs>
      <path id="DejaVuSans-Bold-4b" d="M 588 4666 
L 1791 4666 
L 1791 2963 
L 3525 4666 
L 4922 4666 
L 2675 2456 
L 5153 0 
L 3647 0 
L 1791 1838 
L 1791 0 
L 588 0 
L 588 4666 
z
" transform="scale(0.015625)"/>
      <path id="DejaVuSans-Bold-65" d="M 4031 1759 
L 4031 1441 
L 1416 1441 
Q 1456 1047 1700 850 
Q 1944 653 2381 653 
Q 2734 653 3104 758 
Q 3475 863 3866 1075 
L 3866 213 
Q 3469 63 3072 -14 
Q 2675 -91 2278 -91 
Q 1328 -91 801 392 
Q 275 875 275 1747 
Q 275 2603 792 3093 
Q 1309 3584 2216 3584 
Q 3041 3584 3536 3087 
Q 4031 2591 4031 1759 
z
M 2881 2131 
Q 2881 2450 2695 2645 
Q 2509 2841 2209 2841 
Q 1884 2841 1681 2658 
Q 1478 2475 1428 2131 
L 2881 2131 
z
" transform="scale(0.015625)"/>
      <path id="DejaVuSans-Bold-79" d="M 78 3500 
L 1197 3500 
L 2138 1125 
L 2938 3500 
L 4056 3500 
L 2584 -331 
Q 2363 -916 2067 -1148 
Q 1772 -1381 1288 -1381 
L 641 -1381 
L 641 -647 
L 991 -647 
Q 1275 -647 1404 -556 
Q 1534 -466 1606 -231 
L 1638 -134 
L 78 3500 
z
" transform="scale(0.015625)"/>
      <path id="DejaVuSans-Bold-77" d="M 225 3500 
L 1313 3500 
L 1900 1088 
L 2491 3500 
L 3425 3500 
L 4013 1113 
L 4603 3500 
L 5691 3500 
L 4769 0 
L 3547 0 
L 2956 2406 
L 2369 0 
L 1147 0 
L 225 3500 
z
" transform="scale(0.015625)"/>
      <path id="DejaVuSans-Bold-6f" d="M 2203 2784 
Q 1831 2784 1636 2517 
Q 1441 2250 1441 1747 
Q 1441 1244 1636 976 
Q 1831 709 2203 709 
Q 2569 709 2762 976 
Q 2956 1244 2956 1747 
Q 2956 2250 2762 2517 
Q 2569 2784 2203 2784 
z
M 2203 3584 
Q 3106 3584 3614 3096 
Q 4122 2609 4122 1747 
Q 4122 884 3614 396 
Q 3106 -91 2203 -91 
Q 1297 -91 786 396 
Q 275 884 275 1747 
Q 275 2609 786 3096 
Q 1297 3584 2203 3584 
z
" transform="scale(0.015625)"/>
      <path id="DejaVuSans-Bold-72" d="M 3138 2547 
Q 2991 2616 2845 2648 
Q 2700 2681 2553 2681 
Q 2122 2681 1889 2404 
Q 1656 2128 1656 1613 
L 1656 0 
L 538 0 
L 538 3500 
L 1656 3500 
L 1656 2925 
Q 1872 3269 2151 3426 
Q 2431 3584 2822 3584 
Q 2878 3584 2943 3579 
Q 3009 3575 3134 3559 
L 3138 2547 
z
" transform="scale(0.015625)"/>
      <path id="DejaVuSans-Bold-64" d="M 2919 2988 
L 2919 4863 
L 4044 4863 
L 4044 0 
L 2919 0 
L 2919 506 
Q 2688 197 2409 53 
Q 2131 -91 1766 -91 
Q 1119 -91 703 423 
Q 288 938 288 1747 
Q 288 2556 703 3070 
Q 1119 3584 1766 3584 
Q 2128 3584 2408 3439 
Q 2688 3294 2919 2988 
z
M 2181 722 
Q 2541 722 2730 984 
Q 2919 1247 2919 1747 
Q 2919 2247 2730 2509 
Q 2541 2772 2181 2772 
Q 1825 2772 1636 2509 
Q 1447 2247 1447 1747 
Q 1447 1247 1636 984 
Q 1825 722 2181 722 
z
" transform="scale(0.015625)"/>
      <path id="DejaVuSans-Bold-73" d="M 3272 3391 
L 3272 2541 
Q 2913 2691 2578 2766 
Q 2244 2841 1947 2841 
Q 1628 2841 1473 2761 
Q 1319 2681 1319 2516 
Q 1319 2381 1436 2309 
Q 1553 2238 1856 2203 
L 2053 2175 
Q 2913 2066 3209 1816 
Q 3506 1566 3506 1031 
Q 3506 472 3093 190 
Q 2681 -91 1863 -91 
Q 1516 -91 1145 -36 
Q 775 19 384 128 
L 384 978 
Q 719 816 1070 734 
Q 1422 653 1784 653 
Q 2113 653 2278 743 
Q 2444 834 2444 1013 
Q 2444 1163 2330 1236 
Q 2216 1309 1875 1350 
L 1678 1375 
Q 931 1469 631 1722 
Q 331 1975 331 2491 
Q 331 3047 712 3315 
Q 1094 3584 1881 3584 
Q 2191 3584 2531 3537 
Q 2872 3491 3272 3391 
z
" transform="scale(0.015625)"/>
     </defs>
     <use xlink:href="#DejaVuSans-Bold-4b"/>
     <use xlink:href="#DejaVuSans-Bold-65" transform="translate(75.740234 0)"/>
     <use xlink:href="#DejaVuSans-Bold-79" transform="translate(143.5625 0)"/>
     <use xlink:href="#DejaVuSans-Bold-77" transform="translate(208.748047 0)"/>
     <use xlink:href="#DejaVuSans-Bold-6f" transform="translate(301.130859 0)"/>
     <use xlink:href="#DejaVuSans-Bold-72" transform="translate(369.832031 0)"/>
     <use xlink:href="#DejaVuSans-Bold-64" transform="translate(419.148438 0)"/>
     <use xlink:href="#DejaVuSans-Bold-73" transform="translate(490.730469 0)"/>
    </g>
   </g>
   <g id="text_2">
    <!-- Volume -->
    <g style="fill: #ef4444" transform="translate(245.190051 304.426327) scale(0.12 -0.12)">
     <defs>
      <path id="DejaVuSans-Bold-56" d="M 31 4666 
L 1241 4666 
L 2478 1222 
L 3713 4666 
L 4922 4666 
L 3194 0 
L 1759 0 
L 31 4666 
z
" transform="scale(0.015625)"/>
      <path id="DejaVuSans-Bold-6c" d="M 538 4863 
L 1656 4863 
L 1656 0 
L 538 0 
L 538 4863 
z
" transform="scale(0.015625)"/>
      <path id="DejaVuSans-Bold-75" d="M 500 1363 
L 500 3500 
L 1625 3500 
L 1625 3150 
Q 1625 2866 1622 2436 
Q 1619 2006 1619 1863 
Q 1619 1441 1641 1255 
Q 1663 1069 1716 984 
Q 1784 875 1895 815 
Q 2006 756 2150 756 
Q 2500 756 2700 1025 
Q 2900 1294 2900 1772 
L 2900 3500 
L 4019 3500 
L 4019 0 
L 2900 0 
L 2900 506 
Q 2647 200 2364 54 
Q 2081 -91 1741 -91 
Q 1134 -91 817 281 
Q 500 653 500 1363 
z
" transform="scale(0.015625)"/>
      <path id="DejaVuSans-Bold-6d" d="M 3781 2919 
Q 3994 3244 4286 3414 
Q 4578 3584 4928 3584 
Q 5531 3584 5847 3212 
Q 6163 2841 6163 2131 
L 6163 0 
L 5038 0 
L 5038 1825 
Q 5041 1866 5042 1909 
Q 5044 1953 5044 2034 
Q 5044 2406 4934 2573 
Q 4825 2741 4581 2741 
Q 4263 2741 4089 2478 
Q 3916 2216 3909 1719 
L 3909 0 
L 2784 0 
L 2784 1825 
Q 2784 2406 2684 2573 
Q 2584 2741 2328 2741 
Q 2006 2741 1831 2477 
Q 1656 2213 1656 1722 
L 1656 0 
L 531 0 
L 531 3500 
L 1656 3500 
L 1656 2988 
Q 1863 3284 2130 3434 
Q 2397 3584 2719 3584 
Q 3081 3584 3359 3409 
Q 3638 3234 3781 2919 
z
" transform="scale(0.015625)"/>
     </defs>
     <use xlink:href="#DejaVuSans-Bold-56"/>
     <use xlink:href="#DejaVuSans-Bold-6f" transform="translate(71.892578 0)"/>
     <use xlink:href="#DejaVuSans-Bold-6c" transform="translate(140.59375 0)"/>
     <use xlink:href="#DejaVuSans-Bold-75" transform="translate(174.871094 0)"/>
     <use xlink:href="#DejaVuSans-Bold-6d" transform="translate(246.0625 0)"/>
     <use xlink:href="#DejaVuSans-Bold-65" transform="translate(350.261719 0)"/>
    </g>
   </g>
   <g id="text_3">
    <!-- Target -->
    <g style="fill: #ef4444" transform="translate(248.715051 386.213192) scale(0.12 -0.12)">
     <defs>
      <path id="DejaVuSans-Bold-54" d="M 31 4666 
L 4331 4666 
L 4331 3756 
L 2784 3756 
L 2784 0 
L 1581 0 
L 1581 3756 
L 31 3756 
L 31 4666 
z
" transform="scale(0.015625)"/>
      <path id="DejaVuSans-Bold-61" d="M 2106 1575 
Q 1756 1575 1579 1456 
Q 1403 1338 1403 1106 
Q 1403 894 1545 773 
Q 1688 653 1941 653 
Q 2256 653 2472 879 
Q 2688 1106 2688 1447 
L 2688 1575 
L 2106 1575 
z
M 3816 1997 
L 3816 0 
L 2688 0 
L 2688 519 
Q 2463 200 2181 54 
Q 1900 -91 1497 -91 
Q 953 -91 614 226 
Q 275 544 275 1050 
Q 275 1666 698 1953 
Q 1122 2241 2028 2241 
L 2688 2241 
L 2688 2328 
Q 2688 2594 2478 2717 
Q 2269 2841 1825 2841 
Q 1466 2841 1156 2769 
Q 847 2697 581 2553 
L 581 3406 
Q 941 3494 1303 3539 
Q 1666 3584 2028 3584 
Q 2975 3584 3395 3211 
Q 3816 2838 3816 1997 
z
" transform="scale(0.015625)"/>
      <path id="DejaVuSans-Bold-67" d="M 2919 594 
Q 2688 288 2409 144 
Q 2131 0 1766 0 
Q 1125 0 706 504 
Q 288 1009 288 1791 
Q 288 2575 706 3076 
Q 1125 3578 1766 3578 
Q 2131 3578 2409 3434 
Q 2688 3291 2919 2981 
L 2919 3500 
L 4044 3500 
L 4044 353 
Q 4044 -491 3511 -936 
Q 2978 -1381 1966 -1381 
Q 1638 -1381 1331 -1331 
Q 1025 -1281 716 -1178 
L 716 -306 
Q 1009 -475 1290 -558 
Q 1572 -641 1856 -641 
Q 2406 -641 2662 -400 
Q 2919 -159 2919 353 
L 2919 594 
z
M 2181 2772 
Q 1834 2772 1640 2515 
Q 1447 2259 1447 1791 
Q 1447 1309 1634 1061 
Q 1822 813 2181 813 
Q 2531 813 2725 1069 
Q 2919 1325 2919 1791 
Q 2919 2259 2725 2515 
Q 2531 2772 2181 2772 
z
" transform="scale(0.015625)"/>
      <path id="DejaVuSans-Bold-74" d="M 1759 4494 
L 1759 3500 
L 2913 3500 
L 2913 2700 
L 1759 2700 
L 1759 1216 
Q 1759 972 1856 886 
Q 1953 800 2241 800 
L 2816 800 
L 2816 0 
L 1856 0 
Q 1194 0 917 276 
Q 641 553 641 1216 
L 641 2700 
L 84 2700 
L 84 3500 
L 641 3500 
L 641 4494 
L 1759 4494 
z
" transform="scale(0.015625)"/>
     </defs>
     <use xlink:href="#DejaVuSans-Bold-54"/>
     <use xlink:href="#DejaVuSans-Bold-61" transform="translate(55.337891 0)"/>
     <use xlink:href="#DejaVuSans-Bold-72" transform="translate(122.818359 0)"/>
     <use xlink:href="#DejaVuSans-Bold-67" transform="translate(172.134766 0)"/>
     <use xlink:href="#DejaVuSans-Bold-65" transform="translate(243.716797 0)"/>
     <use xlink:href="#DejaVuSans-Bold-74" transform="translate(311.539062 0)"/>
    </g>
   </g>
   <g id="text_4">
    <!-- Tool-Driven Approach -->
    <g style="fill: #ef4444" transform="translate(185.554894 154.912438) scale(0.14 -0.14)">
     <defs>
      <path id="DejaVuSans-Bold-2d" d="M 347 2297 
L 2309 2297 
L 2309 1388 
L 347 1388 
L 347 2297 
z
" transform="scale(0.015625)"/>
      <path id="DejaVuSans-Bold-44" d="M 1791 3756 
L 1791 909 
L 2222 909 
Q 2959 909 3348 1275 
Q 3738 1641 3738 2338 
Q 3738 3031 3350 3393 
Q 2963 3756 2222 3756 
L 1791 3756 
z
M 588 4666 
L 1856 4666 
Q 2919 4666 3439 4514 
Q 3959 4363 4331 4000 
Q 4659 3684 4818 3271 
Q 4978 2859 4978 2338 
Q 4978 1809 4818 1395 
Q 4659 981 4331 666 
Q 3956 303 3431 151 
Q 2906 0 1856 0 
L 588 0 
L 588 4666 
z
" transform="scale(0.015625)"/>
      <path id="DejaVuSans-Bold-69" d="M 538 3500 
L 1656 3500 
L 1656 0 
L 538 0 
L 538 3500 
z
M 538 4863 
L 1656 4863 
L 1656 3950 
L 538 3950 
L 538 4863 
z
" transform="scale(0.015625)"/>
      <path id="DejaVuSans-Bold-76" d="M 97 3500 
L 1216 3500 
L 2088 1081 
L 2956 3500 
L 4078 3500 
L 2700 0 
L 1472 0 
L 97 3500 
z
" transform="scale(0.015625)"/>
      <path id="DejaVuSans-Bold-6e" d="M 4056 2131 
L 4056 0 
L 2931 0 
L 2931 347 
L 2931 1631 
Q 2931 2084 2911 2256 
Q 2891 2428 2841 2509 
Q 2775 2619 2662 2680 
Q 2550 2741 2406 2741 
Q 2056 2741 1856 2470 
Q 1656 2200 1656 1722 
L 1656 0 
L 538 0 
L 538 3500 
L 1656 3500 
L 1656 2988 
Q 1909 3294 2193 3439 
Q 2478 3584 2822 3584 
Q 3428 3584 3742 3212 
Q 4056 2841 4056 2131 
z
" transform="scale(0.015625)"/>
      <path id="DejaVuSans-Bold-20" transform="scale(0.015625)"/>
      <path id="DejaVuSans-Bold-41" d="M 3419 850 
L 1538 850 
L 1241 0 
L 31 0 
L 1759 4666 
L 3194 4666 
L 4922 0 
L 3713 0 
L 3419 850 
z
M 1838 1716 
L 3116 1716 
L 2478 3572 
L 1838 1716 
z
" transform="scale(0.015625)"/>
      <path id="DejaVuSans-Bold-70" d="M 1656 506 
L 1656 -1331 
L 538 -1331 
L 538 3500 
L 1656 3500 
L 1656 2988 
Q 1888 3294 2169 3439 
Q 2450 3584 2816 3584 
Q 3463 3584 3878 3070 
Q 4294 2556 4294 1747 
Q 4294 938 3878 423 
Q 3463 -91 2816 -91 
Q 2450 -91 2169 54 
Q 1888 200 1656 506 
z
M 2400 2772 
Q 2041 2772 1848 2508 
Q 1656 2244 1656 1747 
Q 1656 1250 1848 986 
Q 2041 722 2400 722 
Q 2759 722 2948 984 
Q 3138 1247 3138 1747 
Q 3138 2247 2948 2509 
Q 2759 2772 2400 2772 
z
" transform="scale(0.015625)"/>
      <path id="DejaVuSans-Bold-63" d="M 3366 3391 
L 3366 2478 
Q 3138 2634 2908 2709 
Q 2678 2784 2431 2784 
Q 1963 2784 1702 2511 
Q 1441 2238 1441 1747 
Q 1441 1256 1702 982 
Q 1963 709 2431 709 
Q 2694 709 2930 787 
Q 3166 866 3366 1019 
L 3366 103 
Q 3103 6 2833 -42 
Q 2563 -91 2291 -91 
Q 1344 -91 809 395 
Q 275 881 275 1747 
Q 275 2613 809 3098 
Q 1344 3584 2291 3584 
Q 2566 3584 2833 3536 
Q 3100 3488 3366 3391 
z
" transform="scale(0.015625)"/>
      <path id="DejaVuSans-Bold-68" d="M 4056 2131 
L 4056 0 
L 2931 0 
L 2931 347 
L 2931 1625 
Q 2931 2084 2911 2256 
Q 2891 2428 2841 2509 
Q 2775 2619 2662 2680 
Q 2550 2741 2406 2741 
Q 2056 2741 1856 2470 
Q 1656 2200 1656 1722 
L 1656 0 
L 538 0 
L 538 4863 
L 1656 4863 
L 1656 2988 
Q 1909 3294 2193 3439 
Q 2478 3584 2822 3584 
Q 3428 3584 3742 3212 
Q 4056 2841 4056 2131 
z
" transform="scale(0.015625)"/>
     </defs>
     <use xlink:href="#DejaVuSans-Bold-54"/>
     <use xlink:href="#DejaVuSans-Bold-6f" transform="translate(54.962891 0)"/>
     <use xlink:href="#DejaVuSans-Bold-6f" transform="translate(123.664062 0)"/>
     <use xlink:href="#DejaVuSans-Bold-6c" transform="translate(192.365234 0)"/>
     <use xlink:href="#DejaVuSans-Bold-2d" transform="translate(226.642578 0)"/>
     <use xlink:href="#DejaVuSans-Bold-44" transform="translate(268.146484 0)"/>
     <use xlink:href="#DejaVuSans-Bold-72" transform="translate(351.154297 0)"/>
     <use xlink:href="#DejaVuSans-Bold-69" transform="translate(400.470703 0)"/>
     <use xlink:href="#DejaVuSans-Bold-76" transform="translate(434.748047 0)"/>
     <use xlink:href="#DejaVuSans-Bold-65" transform="translate(499.933594 0)"/>
     <use xlink:href="#DejaVuSans-Bold-6e" transform="translate(567.755859 0)"/>
     <use xlink:href="#DejaVuSans-Bold-20" transform="translate(638.947266 0)"/>
     <use xlink:href="#DejaVuSans-Bold-41" transform="translate(673.761719 0)"/>
     <use xlink:href="#DejaVuSans-Bold-70" transform="translate(751.154297 0)"/>
     <use xlink:href="#DejaVuSans-Bold-70" transform="translate(822.736328 0)"/>
     <use xlink:href="#DejaVuSans-Bold-72" transform="translate(894.318359 0)"/>
     <use xlink:href="#DejaVuSans-Bold-6f" transform="translate(943.634766 0)"/>
     <use xlink:href="#DejaVuSans-Bold-61" transform="translate(1012.335938 0)"/>
     <use xlink:href="#DejaVuSans-Bold-63" transform="translate(1079.816406 0)"/>
     <use xlink:href="#DejaVuSans-Bold-68" transform="translate(1139.09375 0)"/>
    </g>
   </g>
   <g id="text_5">
    <!-- Demand -->
    <g style="fill: #2563eb" transform="translate(735.006512 188.428788) scale(0.12 -0.12)">
     <use xlink:href="#DejaVuSans-Bold-44"/>
     <use xlink:href="#DejaVuSans-Bold-65" transform="translate(83.007812 0)"/>
     <use xlink:href="#DejaVuSans-Bold-6d" transform="translate(150.830078 0)"/>
     <use xlink:href="#DejaVuSans-Bold-61" transform="translate(255.029297 0)"/>
     <use xlink:href="#DejaVuSans-Bold-6e" transform="translate(322.509766 0)"/>
     <use xlink:href="#DejaVuSans-Bold-64" transform="translate(393.701172 0)"/>
    </g>
   </g>
   <g id="text_6">
    <!-- Intent -->
    <g style="fill: #2563eb" transform="translate(742.344324 270.309404) scale(0.12 -0.12)">
     <defs>
      <path id="DejaVuSans-Bold-49" d="M 588 4666 
L 1791 4666 
L 1791 0 
L 588 0 
L 588 4666 
z
" transform="scale(0.015625)"/>
     </defs>
     <use xlink:href="#DejaVuSans-Bold-49"/>
     <use xlink:href="#DejaVuSans-Bold-6e" transform="translate(37.207031 0)"/>
     <use xlink:href="#DejaVuSans-Bold-74" transform="translate(108.398438 0)"/>
     <use xlink:href="#DejaVuSans-Bold-65" transform="translate(156.201172 0)"/>
     <use xlink:href="#DejaVuSans-Bold-6e" transform="translate(224.023438 0)"/>
     <use xlink:href="#DejaVuSans-Bold-74" transform="translate(295.214844 0)"/>
    </g>
   </g>
   <g id="text_7">
    <!-- Keywords -->
    <g style="fill: #2563eb" transform="translate(729.909324 352.143144) scale(0.12 -0.12)">
     <use xlink:href="#DejaVuSans-Bold-4b"/>
     <use xlink:href="#DejaVuSans-Bold-65" transform="translate(75.740234 0)"/>
     <use xlink:href="#DejaVuSans-Bold-79" transform="translate(143.5625 0)"/>
     <use xlink:href="#DejaVuSans-Bold-77" transform="translate(208.748047 0)"/>
     <use xlink:href="#DejaVuSans-Bold-6f" transform="translate(301.130859 0)"/>
     <use xlink:href="#DejaVuSans-Bold-72" transform="translate(369.832031 0)"/>
     <use xlink:href="#DejaVuSans-Bold-64" transform="translate(419.148438 0)"/>
     <use xlink:href="#DejaVuSans-Bold-73" transform="translate(490.730469 0)"/>
    </g>
   </g>
   <g id="text_8">
    <!-- Content -->
    <g style="fill: #2563eb" transform="translate(736.050887 434.070635) scale(0.12 -0.12)">
     <defs>
      <path id="DejaVuSans-Bold-43" d="M 4288 256 
Q 3956 84 3597 -3 
Q 3238 -91 2847 -91 
Q 1681 -91 1000 561 
Q 319 1213 319 2328 
Q 319 3447 1000 4098 
Q 1681 4750 2847 4750 
Q 3238 4750 3597 4662 
Q 3956 4575 4288 4403 
L 4288 3438 
Q 3953 3666 3628 3772 
Q 3303 3878 2944 3878 
Q 2300 3878 1931 3465 
Q 1563 3053 1563 2328 
Q 1563 1606 1931 1193 
Q 2300 781 2944 781 
Q 3303 781 3628 887 
Q 3953 994 4288 1222 
L 4288 256 
z
" transform="scale(0.015625)"/>
     </defs>
     <use xlink:href="#DejaVuSans-Bold-43"/>
     <use xlink:href="#DejaVuSans-Bold-6f" transform="translate(73.388672 0)"/>
     <use xlink:href="#DejaVuSans-Bold-6e" transform="translate(142.089844 0)"/>
     <use xlink:href="#DejaVuSans-Bold-74" transform="translate(213.28125 0)"/>
     <use xlink:href="#DejaVuSans-Bold-65" transform="translate(261.083984 0)"/>
     <use xlink:href="#DejaVuSans-Bold-6e" transform="translate(328.90625 0)"/>
     <use xlink:href="#DejaVuSans-Bold-74" transform="translate(400.097656 0)"/>
    </g>
   </g>
   <g id="text_9">
    <!-- Demand-Driven Approach -->
    <g style="fill: #2563eb" transform="translate(661.498699 120.795514) scale(0.14 -0.14)">
     <use xlink:href="#DejaVuSans-Bold-44"/>
     <use xlink:href="#DejaVuSans-Bold-65" transform="translate(83.007812 0)"/>
     <use xlink:href="#DejaVuSans-Bold-6d" transform="translate(150.830078 0)"/>
     <use xlink:href="#DejaVuSans-Bold-61" transform="translate(255.029297 0)"/>
     <use xlink:href="#DejaVuSans-Bold-6e" transform="translate(322.509766 0)"/>
     <use xlink:href="#DejaVuSans-Bold-64" transform="translate(393.701172 0)"/>
     <use xlink:href="#DejaVuSans-Bold-2d" transform="translate(465.283203 0)"/>
     <use xlink:href="#DejaVuSans-Bold-44" transform="translate(506.787109 0)"/>
     <use xlink:href="#DejaVuSans-Bold-72" transform="translate(589.794922 0)"/>
     <use xlink:href="#DejaVuSans-Bold-69" transform="translate(639.111328 0)"/>
     <use xlink:href="#DejaVuSans-Bold-76" transform="translate(673.388672 0)"/>
     <use xlink:href="#DejaVuSans-Bold-65" transform="translate(738.574219 0)"/>
     <use xlink:href="#DejaVuSans-Bold-6e" transform="translate(806.396484 0)"/>
     <use xlink:href="#DejaVuSans-Bold-20" transform="translate(877.587891 0)"/>
     <use xlink:href="#DejaVuSans-Bold-41" transform="translate(912.402344 0)"/>
     <use xlink:href="#DejaVuSans-Bold-70" transform="translate(989.794922 0)"/>
     <use xlink:href="#DejaVuSans-Bold-70" transform="translate(1061.376953 0)"/>
     <use xlink:href="#DejaVuSans-Bold-72" transform="translate(1132.958984 0)"/>
     <use xlink:href="#DejaVuSans-Bold-6f" transform="translate(1182.275391 0)"/>
     <use xlink:href="#DejaVuSans-Bold-61" transform="translate(1250.976562 0)"/>
     <use xlink:href="#DejaVuSans-Bold-63" transform="translate(1318.457031 0)"/>
     <use xlink:href="#DejaVuSans-Bold-68" transform="translate(1377.734375 0)"/>
    </g>
   </g>
  </g>
 </g>
 <defs>
  <clipPath id="p8afbb9cf4a">
   <rect x="126" y="69.12" width="781.2" height="443.52"/>
  </clipPath>
 </defs>
</svg>
