<?xml version="1.0" encoding="utf-8" standalone="no"?>
<!DOCTYPE svg PUBLIC "-//W3C//DTD SVG 1.1//EN"
  "http://www.w3.org/Graphics/SVG/1.1/DTD/svg11.dtd">
<svg xmlns:xlink="http://www.w3.org/1999/xlink" width="684pt" height="457.92pt" viewBox="0 0 684 457.92" xmlns="http://www.w3.org/2000/svg" version="1.1">
 <metadata>
  <rdf:RDF xmlns:dc="http://purl.org/dc/elements/1.1/" xmlns:cc="http://creativecommons.org/ns#" xmlns:rdf="http://www.w3.org/1999/02/22-rdf-syntax-ns#">
   <cc:Work>
    <dc:type rdf:resource="http://purl.org/dc/dcmitype/StillImage"/>
    <dc:date>2025-12-26T12:55:22.957596</dc:date>
    <dc:format>image/svg+xml</dc:format>
    <dc:creator>
     <cc:Agent>
      <dc:title>Matplotlib v3.10.8, https://matplotlib.org/</dc:title>
     </cc:Agent>
    </dc:creator>
   </cc:Work>
  </rdf:RDF>
 </metadata>
 <defs>
  <style type="text/css">*{stroke-linejoin: round; stroke-linecap: butt}</style>
 </defs>
 <g id="figure_1">
  <g id="patch_1">
   <path d="M 0 457.92 
L 684 457.92 
L 684 0 
L 0 0 
z
" style="fill: #f8f9fa"/>
  </g>
  <g id="axes_1">
   <g id="patch_2">
    <path d="M 375.48 89.568 
L 363.305455 94.32 
L 363.305455 89.59968 
L 320.694545 89.59968 
L 320.694545 89.53632 
L 363.305455 89.53632 
L 363.305455 84.816 
z
" clip-path="url(#p26bf93ffb2)" style="fill: #1f2937; stroke: #1f2937; stroke-width: 1.5; stroke-linejoin: miter"/>
   </g>
   <g id="patch_3">
    <path d="M 375.48 165.6 
L 363.305455 170.352 
L 363.305455 165.63168 
L 320.694545 165.63168 
L 320.694545 165.56832 
L 363.305455 165.56832 
L 363.305455 160.848 
z
" clip-path="url(#p26bf93ffb2)" style="fill: #1f2937; stroke: #1f2937; stroke-width: 1.5; stroke-linejoin: miter"/>
   </g>
   <g id="patch_4">
    <path d="M 375.48 241.632 
L 363.305455 246.384 
L 363.305455 241.66368 
L 320.694545 241.66368 
L 320.694545 241.60032 
L 363.305455 241.60032 
L 363.305455 236.88 
z
" clip-path="url(#p26bf93ffb2)" style="fill: #1f2937; stroke: #1f2937; stroke-width: 1.5; stroke-linejoin: miter"/>
   </g>
   <g id="patch_5">
    <path d="M 375.48 317.664 
L 363.305455 322.416 
L 363.305455 317.69568 
L 320.694545 317.69568 
L 320.694545 317.63232 
L 363.305455 317.63232 
L 363.305455 312.912 
z
" clip-path="url(#p26bf93ffb2)" style="fill: #1f2937; stroke: #1f2937; stroke-width: 1.5; stroke-linejoin: miter"/>
   </g>
   <g id="patch_6">
    <path d="M 375.48 393.696 
L 363.305455 398.448 
L 363.305455 393.72768 
L 320.694545 393.72768 
L 320.694545 393.66432 
L 363.305455 393.66432 
L 363.305455 388.944 
z
" clip-path="url(#p26bf93ffb2)" style="fill: #1f2937; stroke: #1f2937; stroke-width: 1.5; stroke-linejoin: miter"/>
   </g>
   <g id="patch_7">
    <path d="M 37.636364 121.248 
L 311.563636 121.248 
Q 317.650909 121.248 317.650909 114.912 
L 317.650909 64.224 
Q 317.650909 57.888 311.563636 57.888 
L 37.636364 57.888 
Q 31.549091 57.888 31.549091 64.224 
L 31.549091 114.912 
Q 31.549091 121.248 37.636364 121.248 
z
" clip-path="url(#p26bf93ffb2)" style="fill: #ef4444; opacity: 0.2; stroke: #ef4444; stroke-width: 1.5; stroke-linejoin: miter"/>
   </g>
   <g id="patch_8">
    <path d="M 372.436364 121.248 
L 646.363636 121.248 
Q 652.450909 121.248 652.450909 114.912 
L 652.450909 64.224 
Q 652.450909 57.888 646.363636 57.888 
L 372.436364 57.888 
Q 366.349091 57.888 366.349091 64.224 
L 366.349091 114.912 
Q 366.349091 121.248 372.436364 121.248 
z
" clip-path="url(#p26bf93ffb2)" style="fill: #10b981; opacity: 0.2; stroke: #10b981; stroke-width: 1.5; stroke-linejoin: miter"/>
   </g>
   <g id="patch_9">
    <path d="M 37.636364 197.28 
L 311.563636 197.28 
Q 317.650909 197.28 317.650909 190.944 
L 317.650909 140.256 
Q 317.650909 133.92 311.563636 133.92 
L 37.636364 133.92 
Q 31.549091 133.92 31.549091 140.256 
L 31.549091 190.944 
Q 31.549091 197.28 37.636364 197.28 
z
" clip-path="url(#p26bf93ffb2)" style="fill: #ef4444; opacity: 0.2; stroke: #ef4444; stroke-width: 1.5; stroke-linejoin: miter"/>
   </g>
   <g id="patch_10">
    <path d="M 372.436364 197.28 
L 646.363636 197.28 
Q 652.450909 197.28 652.450909 190.944 
L 652.450909 140.256 
Q 652.450909 133.92 646.363636 133.92 
L 372.436364 133.92 
Q 366.349091 133.92 366.349091 140.256 
L 366.349091 190.944 
Q 366.349091 197.28 372.436364 197.28 
z
" clip-path="url(#p26bf93ffb2)" style="fill: #10b981; opacity: 0.2; stroke: #10b981; stroke-width: 1.5; stroke-linejoin: miter"/>
   </g>
   <g id="patch_11">
    <path d="M 37.636364 273.312 
L 311.563636 273.312 
Q 317.650909 273.312 317.650909 266.976 
L 317.650909 216.288 
Q 317.650909 209.952 311.563636 209.952 
L 37.636364 209.952 
Q 31.549091 209.952 31.549091 216.288 
L 31.549091 266.976 
Q 31.549091 273.312 37.636364 273.312 
z
" clip-path="url(#p26bf93ffb2)" style="fill: #ef4444; opacity: 0.2; stroke: #ef4444; stroke-width: 1.5; stroke-linejoin: miter"/>
   </g>
   <g id="patch_12">
    <path d="M 372.436364 273.312 
L 646.363636 273.312 
Q 652.450909 273.312 652.450909 266.976 
L 652.450909 216.288 
Q 652.450909 209.952 646.363636 209.952 
L 372.436364 209.952 
Q 366.349091 209.952 366.349091 216.288 
L 366.349091 266.976 
Q 366.349091 273.312 372.436364 273.312 
z
" clip-path="url(#p26bf93ffb2)" style="fill: #10b981; opacity: 0.2; stroke: #10b981; stroke-width: 1.5; stroke-linejoin: miter"/>
   </g>
   <g id="patch_13">
    <path d="M 37.636364 349.344 
L 311.563636 349.344 
Q 317.650909 349.344 317.650909 343.008 
L 317.650909 292.32 
Q 317.650909 285.984 311.563636 285.984 
L 37.636364 285.984 
Q 31.549091 285.984 31.549091 292.32 
L 31.549091 343.008 
Q 31.549091 349.344 37.636364 349.344 
z
" clip-path="url(#p26bf93ffb2)" style="fill: #ef4444; opacity: 0.2; stroke: #ef4444; stroke-width: 1.5; stroke-linejoin: miter"/>
   </g>
   <g id="patch_14">
    <path d="M 372.436364 349.344 
L 646.363636 349.344 
Q 652.450909 349.344 652.450909 343.008 
L 652.450909 292.32 
Q 652.450909 285.984 646.363636 285.984 
L 372.436364 285.984 
Q 366.349091 285.984 366.349091 292.32 
L 366.349091 343.008 
Q 366.349091 349.344 372.436364 349.344 
z
" clip-path="url(#p26bf93ffb2)" style="fill: #10b981; opacity: 0.2; stroke: #10b981; stroke-width: 1.5; stroke-linejoin: miter"/>
   </g>
   <g id="patch_15">
    <path d="M 37.636364 425.376 
L 311.563636 425.376 
Q 317.650909 425.376 317.650909 419.04 
L 317.650909 368.352 
Q 317.650909 362.016 311.563636 362.016 
L 37.636364 362.016 
Q 31.549091 362.016 31.549091 368.352 
L 31.549091 419.04 
Q 31.549091 425.376 37.636364 425.376 
z
" clip-path="url(#p26bf93ffb2)" style="fill: #ef4444; opacity: 0.2; stroke: #ef4444; stroke-width: 1.5; stroke-linejoin: miter"/>
   </g>
   <g id="patch_16">
    <path d="M 372.436364 425.376 
L 646.363636 425.376 
Q 652.450909 425.376 652.450909 419.04 
L 652.450909 368.352 
Q 652.450909 362.016 646.363636 362.016 
L 372.436364 362.016 
Q 366.349091 362.016 366.349091 368.352 
L 366.349091 419.04 
Q 366.349091 425.376 372.436364 425.376 
z
" clip-path="url(#p26bf93ffb2)" style="fill: #10b981; opacity: 0.2; stroke: #10b981; stroke-width: 1.5; stroke-linejoin: miter"/>
   </g>
   <g id="text_1">
    <!-- Myth: Instant results -->
    <g style="fill: #1f2937" transform="translate(112.904063 92.87925) scale(0.12 -0.12)">
     <defs>
      <path id="DejaVuSans-4d" d="M 628 4666 
L 1569 4666 
L 2759 1491 
L 3956 4666 
L 4897 4666 
L 4897 0 
L 4281 0 
L 4281 4097 
L 3078 897 
L 2444 897 
L 1241 4097 
L 1241 0 
L 628 0 
L 628 4666 
z
" transform="scale(0.015625)"/>
      <path id="DejaVuSans-79" d="M 2059 -325 
Q 1816 -950 1584 -1140 
Q 1353 -1331 966 -1331 
L 506 -1331 
L 506 -850 
L 844 -850 
Q 1081 -850 1212 -737 
Q 1344 -625 1503 -206 
L 1606 56 
L 191 3500 
L 800 3500 
L 1894 763 
L 2988 3500 
L 3597 3500 
L 2059 -325 
z
" transform="scale(0.015625)"/>
      <path id="DejaVuSans-74" d="M 1172 4494 
L 1172 3500 
L 2356 3500 
L 2356 3053 
L 1172 3053 
L 1172 1153 
Q 1172 725 1289 603 
Q 1406 481 1766 481 
L 2356 481 
L 2356 0 
L 1766 0 
Q 1100 0 847 248 
Q 594 497 594 1153 
L 594 3053 
L 172 3053 
L 172 3500 
L 594 3500 
L 594 4494 
L 1172 4494 
z
" transform="scale(0.015625)"/>
      <path id="DejaVuSans-68" d="M 3513 2113 
L 3513 0 
L 2938 0 
L 2938 2094 
Q 2938 2591 2744 2837 
Q 2550 3084 2163 3084 
Q 1697 3084 1428 2787 
Q 1159 2491 1159 1978 
L 1159 0 
L 581 0 
L 581 4863 
L 1159 4863 
L 1159 2956 
Q 1366 3272 1645 3428 
Q 1925 3584 2291 3584 
Q 2894 3584 3203 3211 
Q 3513 2838 3513 2113 
z
" transform="scale(0.015625)"/>
      <path id="DejaVuSans-3a" d="M 750 794 
L 1409 794 
L 1409 0 
L 750 0 
L 750 794 
z
M 750 3309 
L 1409 3309 
L 1409 2516 
L 750 2516 
L 750 3309 
z
" transform="scale(0.015625)"/>
      <path id="DejaVuSans-20" transform="scale(0.015625)"/>
      <path id="DejaVuSans-49" d="M 628 4666 
L 1259 4666 
L 1259 0 
L 628 0 
L 628 4666 
z
" transform="scale(0.015625)"/>
      <path id="DejaVuSans-6e" d="M 3513 2113 
L 3513 0 
L 2938 0 
L 2938 2094 
Q 2938 2591 2744 2837 
Q 2550 3084 2163 3084 
Q 1697 3084 1428 2787 
Q 1159 2491 1159 1978 
L 1159 0 
L 581 0 
L 581 3500 
L 1159 3500 
L 1159 2956 
Q 1366 3272 1645 3428 
Q 1925 3584 2291 3584 
Q 2894 3584 3203 3211 
Q 3513 2838 3513 2113 
z
" transform="scale(0.015625)"/>
      <path id="DejaVuSans-73" d="M 2834 3397 
L 2834 2853 
Q 2591 2978 2328 3040 
Q 2066 3103 1784 3103 
Q 1356 3103 1142 2972 
Q 928 2841 928 2578 
Q 928 2378 1081 2264 
Q 1234 2150 1697 2047 
L 1894 2003 
Q 2506 1872 2764 1633 
Q 3022 1394 3022 966 
Q 3022 478 2636 193 
Q 2250 -91 1575 -91 
Q 1294 -91 989 -36 
Q 684 19 347 128 
L 347 722 
Q 666 556 975 473 
Q 1284 391 1588 391 
Q 1994 391 2212 530 
Q 2431 669 2431 922 
Q 2431 1156 2273 1281 
Q 2116 1406 1581 1522 
L 1381 1569 
Q 847 1681 609 1914 
Q 372 2147 372 2553 
Q 372 3047 722 3315 
Q 1072 3584 1716 3584 
Q 2034 3584 2315 3537 
Q 2597 3491 2834 3397 
z
" transform="scale(0.015625)"/>
      <path id="DejaVuSans-61" d="M 2194 1759 
Q 1497 1759 1228 1600 
Q 959 1441 959 1056 
Q 959 750 1161 570 
Q 1363 391 1709 391 
Q 2188 391 2477 730 
Q 2766 1069 2766 1631 
L 2766 1759 
L 2194 1759 
z
M 3341 1997 
L 3341 0 
L 2766 0 
L 2766 531 
Q 2569 213 2275 61 
Q 1981 -91 1556 -91 
Q 1019 -91 701 211 
Q 384 513 384 1019 
Q 384 1609 779 1909 
Q 1175 2209 1959 2209 
L 2766 2209 
L 2766 2266 
Q 2766 2663 2505 2880 
Q 2244 3097 1772 3097 
Q 1472 3097 1187 3025 
Q 903 2953 641 2809 
L 641 3341 
Q 956 3463 1253 3523 
Q 1550 3584 1831 3584 
Q 2591 3584 2966 3190 
Q 3341 2797 3341 1997 
z
" transform="scale(0.015625)"/>
      <path id="DejaVuSans-72" d="M 2631 2963 
Q 2534 3019 2420 3045 
Q 2306 3072 2169 3072 
Q 1681 3072 1420 2755 
Q 1159 2438 1159 1844 
L 1159 0 
L 581 0 
L 581 3500 
L 1159 3500 
L 1159 2956 
Q 1341 3275 1631 3429 
Q 1922 3584 2338 3584 
Q 2397 3584 2469 3576 
Q 2541 3569 2628 3553 
L 2631 2963 
z
" transform="scale(0.015625)"/>
      <path id="DejaVuSans-65" d="M 3597 1894 
L 3597 1613 
L 953 1613 
Q 991 1019 1311 708 
Q 1631 397 2203 397 
Q 2534 397 2845 478 
Q 3156 559 3463 722 
L 3463 178 
Q 3153 47 2828 -22 
Q 2503 -91 2169 -91 
Q 1331 -91 842 396 
Q 353 884 353 1716 
Q 353 2575 817 3079 
Q 1281 3584 2069 3584 
Q 2775 3584 3186 3129 
Q 3597 2675 3597 1894 
z
M 3022 2063 
Q 3016 2534 2758 2815 
Q 2500 3097 2075 3097 
Q 1594 3097 1305 2825 
Q 1016 2553 972 2059 
L 3022 2063 
z
" transform="scale(0.015625)"/>
      <path id="DejaVuSans-75" d="M 544 1381 
L 544 3500 
L 1119 3500 
L 1119 1403 
Q 1119 906 1312 657 
Q 1506 409 1894 409 
Q 2359 409 2629 706 
Q 2900 1003 2900 1516 
L 2900 3500 
L 3475 3500 
L 3475 0 
L 2900 0 
L 2900 538 
Q 2691 219 2414 64 
Q 2138 -91 1772 -91 
Q 1169 -91 856 284 
Q 544 659 544 1381 
z
M 1991 3584 
L 1991 3584 
z
" transform="scale(0.015625)"/>
      <path id="DejaVuSans-6c" d="M 603 4863 
L 1178 4863 
L 1178 0 
L 603 0 
L 603 4863 
z
" transform="scale(0.015625)"/>
     </defs>
     <use xlink:href="#DejaVuSans-4d"/>
     <use xlink:href="#DejaVuSans-79" transform="translate(86.279297 0)"/>
     <use xlink:href="#DejaVuSans-74" transform="translate(145.458984 0)"/>
     <use xlink:href="#DejaVuSans-68" transform="translate(184.667969 0)"/>
     <use xlink:href="#DejaVuSans-3a" transform="translate(248.046875 0)"/>
     <use xlink:href="#DejaVuSans-20" transform="translate(281.738281 0)"/>
     <use xlink:href="#DejaVuSans-49" transform="translate(313.525391 0)"/>
     <use xlink:href="#DejaVuSans-6e" transform="translate(343.017578 0)"/>
     <use xlink:href="#DejaVuSans-73" transform="translate(406.396484 0)"/>
     <use xlink:href="#DejaVuSans-74" transform="translate(458.496094 0)"/>
     <use xlink:href="#DejaVuSans-61" transform="translate(497.705078 0)"/>
     <use xlink:href="#DejaVuSans-6e" transform="translate(558.984375 0)"/>
     <use xlink:href="#DejaVuSans-74" transform="translate(622.363281 0)"/>
     <use xlink:href="#DejaVuSans-20" transform="translate(661.572266 0)"/>
     <use xlink:href="#DejaVuSans-72" transform="translate(693.359375 0)"/>
     <use xlink:href="#DejaVuSans-65" transform="translate(732.222656 0)"/>
     <use xlink:href="#DejaVuSans-73" transform="translate(793.746094 0)"/>
     <use xlink:href="#DejaVuSans-75" transform="translate(845.845703 0)"/>
     <use xlink:href="#DejaVuSans-6c" transform="translate(909.224609 0)"/>
     <use xlink:href="#DejaVuSans-74" transform="translate(937.007812 0)"/>
     <use xlink:href="#DejaVuSans-73" transform="translate(976.216797 0)"/>
    </g>
   </g>
   <g id="text_2">
    <!-- Reality: Long-term investment -->
    <g style="fill: #1f2937" transform="translate(418.678125 92.87925) scale(0.12 -0.12)">
     <defs>
      <path id="DejaVuSans-52" d="M 2841 2188 
Q 3044 2119 3236 1894 
Q 3428 1669 3622 1275 
L 4263 0 
L 3584 0 
L 2988 1197 
Q 2756 1666 2539 1819 
Q 2322 1972 1947 1972 
L 1259 1972 
L 1259 0 
L 628 0 
L 628 4666 
L 2053 4666 
Q 2853 4666 3247 4331 
Q 3641 3997 3641 3322 
Q 3641 2881 3436 2590 
Q 3231 2300 2841 2188 
z
M 1259 4147 
L 1259 2491 
L 2053 2491 
Q 2509 2491 2742 2702 
Q 2975 2913 2975 3322 
Q 2975 3731 2742 3939 
Q 2509 4147 2053 4147 
L 1259 4147 
z
" transform="scale(0.015625)"/>
      <path id="DejaVuSans-69" d="M 603 3500 
L 1178 3500 
L 1178 0 
L 603 0 
L 603 3500 
z
M 603 4863 
L 1178 4863 
L 1178 4134 
L 603 4134 
L 603 4863 
z
" transform="scale(0.015625)"/>
      <path id="DejaVuSans-4c" d="M 628 4666 
L 1259 4666 
L 1259 531 
L 3531 531 
L 3531 0 
L 628 0 
L 628 4666 
z
" transform="scale(0.015625)"/>
      <path id="DejaVuSans-6f" d="M 1959 3097 
Q 1497 3097 1228 2736 
Q 959 2375 959 1747 
Q 959 1119 1226 758 
Q 1494 397 1959 397 
Q 2419 397 2687 759 
Q 2956 1122 2956 1747 
Q 2956 2369 2687 2733 
Q 2419 3097 1959 3097 
z
M 1959 3584 
Q 2709 3584 3137 3096 
Q 3566 2609 3566 1747 
Q 3566 888 3137 398 
Q 2709 -91 1959 -91 
Q 1206 -91 779 398 
Q 353 888 353 1747 
Q 353 2609 779 3096 
Q 1206 3584 1959 3584 
z
" transform="scale(0.015625)"/>
      <path id="DejaVuSans-67" d="M 2906 1791 
Q 2906 2416 2648 2759 
Q 2391 3103 1925 3103 
Q 1463 3103 1205 2759 
Q 947 2416 947 1791 
Q 947 1169 1205 825 
Q 1463 481 1925 481 
Q 2391 481 2648 825 
Q 2906 1169 2906 1791 
z
M 3481 434 
Q 3481 -459 3084 -895 
Q 2688 -1331 1869 -1331 
Q 1566 -1331 1297 -1286 
Q 1028 -1241 775 -1147 
L 775 -588 
Q 1028 -725 1275 -790 
Q 1522 -856 1778 -856 
Q 2344 -856 2625 -561 
Q 2906 -266 2906 331 
L 2906 616 
Q 2728 306 2450 153 
Q 2172 0 1784 0 
Q 1141 0 747 490 
Q 353 981 353 1791 
Q 353 2603 747 3093 
Q 1141 3584 1784 3584 
Q 2172 3584 2450 3431 
Q 2728 3278 2906 2969 
L 2906 3500 
L 3481 3500 
L 3481 434 
z
" transform="scale(0.015625)"/>
      <path id="DejaVuSans-2d" d="M 313 2009 
L 1997 2009 
L 1997 1497 
L 313 1497 
L 313 2009 
z
" transform="scale(0.015625)"/>
      <path id="DejaVuSans-6d" d="M 3328 2828 
Q 3544 3216 3844 3400 
Q 4144 3584 4550 3584 
Q 5097 3584 5394 3201 
Q 5691 2819 5691 2113 
L 5691 0 
L 5113 0 
L 5113 2094 
Q 5113 2597 4934 2840 
Q 4756 3084 4391 3084 
Q 3944 3084 3684 2787 
Q 3425 2491 3425 1978 
L 3425 0 
L 2847 0 
L 2847 2094 
Q 2847 2600 2669 2842 
Q 2491 3084 2119 3084 
Q 1678 3084 1418 2786 
Q 1159 2488 1159 1978 
L 1159 0 
L 581 0 
L 581 3500 
L 1159 3500 
L 1159 2956 
Q 1356 3278 1631 3431 
Q 1906 3584 2284 3584 
Q 2666 3584 2933 3390 
Q 3200 3197 3328 2828 
z
" transform="scale(0.015625)"/>
      <path id="DejaVuSans-76" d="M 191 3500 
L 800 3500 
L 1894 563 
L 2988 3500 
L 3597 3500 
L 2284 0 
L 1503 0 
L 191 3500 
z
" transform="scale(0.015625)"/>
     </defs>
     <use xlink:href="#DejaVuSans-52"/>
     <use xlink:href="#DejaVuSans-65" transform="translate(64.982422 0)"/>
     <use xlink:href="#DejaVuSans-61" transform="translate(126.505859 0)"/>
     <use xlink:href="#DejaVuSans-6c" transform="translate(187.785156 0)"/>
     <use xlink:href="#DejaVuSans-69" transform="translate(215.568359 0)"/>
     <use xlink:href="#DejaVuSans-74" transform="translate(243.351562 0)"/>
     <use xlink:href="#DejaVuSans-79" transform="translate(282.560547 0)"/>
     <use xlink:href="#DejaVuSans-3a" transform="translate(334.490234 0)"/>
     <use xlink:href="#DejaVuSans-20" transform="translate(368.181641 0)"/>
     <use xlink:href="#DejaVuSans-4c" transform="translate(399.96875 0)"/>
     <use xlink:href="#DejaVuSans-6f" transform="translate(453.931641 0)"/>
     <use xlink:href="#DejaVuSans-6e" transform="translate(515.113281 0)"/>
     <use xlink:href="#DejaVuSans-67" transform="translate(578.492188 0)"/>
     <use xlink:href="#DejaVuSans-2d" transform="translate(641.96875 0)"/>
     <use xlink:href="#DejaVuSans-74" transform="translate(678.052734 0)"/>
     <use xlink:href="#DejaVuSans-65" transform="translate(717.261719 0)"/>
     <use xlink:href="#DejaVuSans-72" transform="translate(778.785156 0)"/>
     <use xlink:href="#DejaVuSans-6d" transform="translate(818.148438 0)"/>
     <use xlink:href="#DejaVuSans-20" transform="translate(915.560547 0)"/>
     <use xlink:href="#DejaVuSans-69" transform="translate(947.347656 0)"/>
     <use xlink:href="#DejaVuSans-6e" transform="translate(975.130859 0)"/>
     <use xlink:href="#DejaVuSans-76" transform="translate(1038.509766 0)"/>
     <use xlink:href="#DejaVuSans-65" transform="translate(1097.689453 0)"/>
     <use xlink:href="#DejaVuSans-73" transform="translate(1159.212891 0)"/>
     <use xlink:href="#DejaVuSans-74" transform="translate(1211.3125 0)"/>
     <use xlink:href="#DejaVuSans-6d" transform="translate(1250.521484 0)"/>
     <use xlink:href="#DejaVuSans-65" transform="translate(1347.933594 0)"/>
     <use xlink:href="#DejaVuSans-6e" transform="translate(1409.457031 0)"/>
     <use xlink:href="#DejaVuSans-74" transform="translate(1472.835938 0)"/>
    </g>
   </g>
   <g id="text_3">
    <!-- Myth: Rankings alone -->
    <g style="fill: #1f2937" transform="translate(109.980938 168.91125) scale(0.12 -0.12)">
     <defs>
      <path id="DejaVuSans-6b" d="M 581 4863 
L 1159 4863 
L 1159 1991 
L 2875 3500 
L 3609 3500 
L 1753 1863 
L 3688 0 
L 2938 0 
L 1159 1709 
L 1159 0 
L 581 0 
L 581 4863 
z
" transform="scale(0.015625)"/>
     </defs>
     <use xlink:href="#DejaVuSans-4d"/>
     <use xlink:href="#DejaVuSans-79" transform="translate(86.279297 0)"/>
     <use xlink:href="#DejaVuSans-74" transform="translate(145.458984 0)"/>
     <use xlink:href="#DejaVuSans-68" transform="translate(184.667969 0)"/>
     <use xlink:href="#DejaVuSans-3a" transform="translate(248.046875 0)"/>
     <use xlink:href="#DejaVuSans-20" transform="translate(281.738281 0)"/>
     <use xlink:href="#DejaVuSans-52" transform="translate(313.525391 0)"/>
     <use xlink:href="#DejaVuSans-61" transform="translate(380.757812 0)"/>
     <use xlink:href="#DejaVuSans-6e" transform="translate(442.037109 0)"/>
     <use xlink:href="#DejaVuSans-6b" transform="translate(505.416016 0)"/>
     <use xlink:href="#DejaVuSans-69" transform="translate(563.326172 0)"/>
     <use xlink:href="#DejaVuSans-6e" transform="translate(591.109375 0)"/>
     <use xlink:href="#DejaVuSans-67" transform="translate(654.488281 0)"/>
     <use xlink:href="#DejaVuSans-73" transform="translate(717.964844 0)"/>
     <use xlink:href="#DejaVuSans-20" transform="translate(770.064453 0)"/>
     <use xlink:href="#DejaVuSans-61" transform="translate(801.851562 0)"/>
     <use xlink:href="#DejaVuSans-6c" transform="translate(863.130859 0)"/>
     <use xlink:href="#DejaVuSans-6f" transform="translate(890.914062 0)"/>
     <use xlink:href="#DejaVuSans-6e" transform="translate(952.095703 0)"/>
     <use xlink:href="#DejaVuSans-65" transform="translate(1015.474609 0)"/>
    </g>
   </g>
   <g id="text_4">
    <!-- Reality: Multiple SERP features -->
    <g style="fill: #1f2937" transform="translate(417.583125 168.91125) scale(0.12 -0.12)">
     <defs>
      <path id="DejaVuSans-70" d="M 1159 525 
L 1159 -1331 
L 581 -1331 
L 581 3500 
L 1159 3500 
L 1159 2969 
Q 1341 3281 1617 3432 
Q 1894 3584 2278 3584 
Q 2916 3584 3314 3078 
Q 3713 2572 3713 1747 
Q 3713 922 3314 415 
Q 2916 -91 2278 -91 
Q 1894 -91 1617 61 
Q 1341 213 1159 525 
z
M 3116 1747 
Q 3116 2381 2855 2742 
Q 2594 3103 2138 3103 
Q 1681 3103 1420 2742 
Q 1159 2381 1159 1747 
Q 1159 1113 1420 752 
Q 1681 391 2138 391 
Q 2594 391 2855 752 
Q 3116 1113 3116 1747 
z
" transform="scale(0.015625)"/>
      <path id="DejaVuSans-53" d="M 3425 4513 
L 3425 3897 
Q 3066 4069 2747 4153 
Q 2428 4238 2131 4238 
Q 1616 4238 1336 4038 
Q 1056 3838 1056 3469 
Q 1056 3159 1242 3001 
Q 1428 2844 1947 2747 
L 2328 2669 
Q 3034 2534 3370 2195 
Q 3706 1856 3706 1288 
Q 3706 609 3251 259 
Q 2797 -91 1919 -91 
Q 1588 -91 1214 -16 
Q 841 59 441 206 
L 441 856 
Q 825 641 1194 531 
Q 1563 422 1919 422 
Q 2459 422 2753 634 
Q 3047 847 3047 1241 
Q 3047 1584 2836 1778 
Q 2625 1972 2144 2069 
L 1759 2144 
Q 1053 2284 737 2584 
Q 422 2884 422 3419 
Q 422 4038 858 4394 
Q 1294 4750 2059 4750 
Q 2388 4750 2728 4690 
Q 3069 4631 3425 4513 
z
" transform="scale(0.015625)"/>
      <path id="DejaVuSans-45" d="M 628 4666 
L 3578 4666 
L 3578 4134 
L 1259 4134 
L 1259 2753 
L 3481 2753 
L 3481 2222 
L 1259 2222 
L 1259 531 
L 3634 531 
L 3634 0 
L 628 0 
L 628 4666 
z
" transform="scale(0.015625)"/>
      <path id="DejaVuSans-50" d="M 1259 4147 
L 1259 2394 
L 2053 2394 
Q 2494 2394 2734 2622 
Q 2975 2850 2975 3272 
Q 2975 3691 2734 3919 
Q 2494 4147 2053 4147 
L 1259 4147 
z
M 628 4666 
L 2053 4666 
Q 2838 4666 3239 4311 
Q 3641 3956 3641 3272 
Q 3641 2581 3239 2228 
Q 2838 1875 2053 1875 
L 1259 1875 
L 1259 0 
L 628 0 
L 628 4666 
z
" transform="scale(0.015625)"/>
      <path id="DejaVuSans-66" d="M 2375 4863 
L 2375 4384 
L 1825 4384 
Q 1516 4384 1395 4259 
Q 1275 4134 1275 3809 
L 1275 3500 
L 2222 3500 
L 2222 3053 
L 1275 3053 
L 1275 0 
L 697 0 
L 697 3053 
L 147 3053 
L 147 3500 
L 697 3500 
L 697 3744 
Q 697 4328 969 4595 
Q 1241 4863 1831 4863 
L 2375 4863 
z
" transform="scale(0.015625)"/>
     </defs>
     <use xlink:href="#DejaVuSans-52"/>
     <use xlink:href="#DejaVuSans-65" transform="translate(64.982422 0)"/>
     <use xlink:href="#DejaVuSans-61" transform="translate(126.505859 0)"/>
     <use xlink:href="#DejaVuSans-6c" transform="translate(187.785156 0)"/>
     <use xlink:href="#DejaVuSans-69" transform="translate(215.568359 0)"/>
     <use xlink:href="#DejaVuSans-74" transform="translate(243.351562 0)"/>
     <use xlink:href="#DejaVuSans-79" transform="translate(282.560547 0)"/>
     <use xlink:href="#DejaVuSans-3a" transform="translate(334.490234 0)"/>
     <use xlink:href="#DejaVuSans-20" transform="translate(368.181641 0)"/>
     <use xlink:href="#DejaVuSans-4d" transform="translate(399.96875 0)"/>
     <use xlink:href="#DejaVuSans-75" transform="translate(486.248047 0)"/>
     <use xlink:href="#DejaVuSans-6c" transform="translate(549.626953 0)"/>
     <use xlink:href="#DejaVuSans-74" transform="translate(577.410156 0)"/>
     <use xlink:href="#DejaVuSans-69" transform="translate(616.619141 0)"/>
     <use xlink:href="#DejaVuSans-70" transform="translate(644.402344 0)"/>
     <use xlink:href="#DejaVuSans-6c" transform="translate(707.878906 0)"/>
     <use xlink:href="#DejaVuSans-65" transform="translate(735.662109 0)"/>
     <use xlink:href="#DejaVuSans-20" transform="translate(797.185547 0)"/>
     <use xlink:href="#DejaVuSans-53" transform="translate(828.972656 0)"/>
     <use xlink:href="#DejaVuSans-45" transform="translate(892.449219 0)"/>
     <use xlink:href="#DejaVuSans-52" transform="translate(955.632812 0)"/>
     <use xlink:href="#DejaVuSans-50" transform="translate(1025.115234 0)"/>
     <use xlink:href="#DejaVuSans-20" transform="translate(1085.417969 0)"/>
     <use xlink:href="#DejaVuSans-66" transform="translate(1117.205078 0)"/>
     <use xlink:href="#DejaVuSans-65" transform="translate(1152.410156 0)"/>
     <use xlink:href="#DejaVuSans-61" transform="translate(1213.933594 0)"/>
     <use xlink:href="#DejaVuSans-74" transform="translate(1275.212891 0)"/>
     <use xlink:href="#DejaVuSans-75" transform="translate(1314.421875 0)"/>
     <use xlink:href="#DejaVuSans-72" transform="translate(1377.800781 0)"/>
     <use xlink:href="#DejaVuSans-65" transform="translate(1416.664062 0)"/>
     <use xlink:href="#DejaVuSans-73" transform="translate(1478.1875 0)"/>
    </g>
   </g>
   <g id="text_5">
    <!-- Myth: Traffic only KPI -->
    <g style="fill: #1f2937" transform="translate(111.8475 244.94325) scale(0.12 -0.12)">
     <defs>
      <path id="DejaVuSans-54" d="M -19 4666 
L 3928 4666 
L 3928 4134 
L 2272 4134 
L 2272 0 
L 1638 0 
L 1638 4134 
L -19 4134 
L -19 4666 
z
" transform="scale(0.015625)"/>
      <path id="DejaVuSans-63" d="M 3122 3366 
L 3122 2828 
Q 2878 2963 2633 3030 
Q 2388 3097 2138 3097 
Q 1578 3097 1268 2742 
Q 959 2388 959 1747 
Q 959 1106 1268 751 
Q 1578 397 2138 397 
Q 2388 397 2633 464 
Q 2878 531 3122 666 
L 3122 134 
Q 2881 22 2623 -34 
Q 2366 -91 2075 -91 
Q 1284 -91 818 406 
Q 353 903 353 1747 
Q 353 2603 823 3093 
Q 1294 3584 2113 3584 
Q 2378 3584 2631 3529 
Q 2884 3475 3122 3366 
z
" transform="scale(0.015625)"/>
      <path id="DejaVuSans-4b" d="M 628 4666 
L 1259 4666 
L 1259 2694 
L 3353 4666 
L 4166 4666 
L 1850 2491 
L 4331 0 
L 3500 0 
L 1259 2247 
L 1259 0 
L 628 0 
L 628 4666 
z
" transform="scale(0.015625)"/>
     </defs>
     <use xlink:href="#DejaVuSans-4d"/>
     <use xlink:href="#DejaVuSans-79" transform="translate(86.279297 0)"/>
     <use xlink:href="#DejaVuSans-74" transform="translate(145.458984 0)"/>
     <use xlink:href="#DejaVuSans-68" transform="translate(184.667969 0)"/>
     <use xlink:href="#DejaVuSans-3a" transform="translate(248.046875 0)"/>
     <use xlink:href="#DejaVuSans-20" transform="translate(281.738281 0)"/>
     <use xlink:href="#DejaVuSans-54" transform="translate(313.525391 0)"/>
     <use xlink:href="#DejaVuSans-72" transform="translate(359.859375 0)"/>
     <use xlink:href="#DejaVuSans-61" transform="translate(400.972656 0)"/>
     <use xlink:href="#DejaVuSans-66" transform="translate(462.251953 0)"/>
     <use xlink:href="#DejaVuSans-66" transform="translate(497.457031 0)"/>
     <use xlink:href="#DejaVuSans-69" transform="translate(532.662109 0)"/>
     <use xlink:href="#DejaVuSans-63" transform="translate(560.445312 0)"/>
     <use xlink:href="#DejaVuSans-20" transform="translate(615.425781 0)"/>
     <use xlink:href="#DejaVuSans-6f" transform="translate(647.212891 0)"/>
     <use xlink:href="#DejaVuSans-6e" transform="translate(708.394531 0)"/>
     <use xlink:href="#DejaVuSans-6c" transform="translate(771.773438 0)"/>
     <use xlink:href="#DejaVuSans-79" transform="translate(799.556641 0)"/>
     <use xlink:href="#DejaVuSans-20" transform="translate(858.736328 0)"/>
     <use xlink:href="#DejaVuSans-4b" transform="translate(890.523438 0)"/>
     <use xlink:href="#DejaVuSans-50" transform="translate(956.099609 0)"/>
     <use xlink:href="#DejaVuSans-49" transform="translate(1016.402344 0)"/>
    </g>
   </g>
   <g id="text_6">
    <!-- Reality: Business outcomes matter -->
    <g style="fill: #1f2937" transform="translate(405.28875 244.94325) scale(0.12 -0.12)">
     <defs>
      <path id="DejaVuSans-42" d="M 1259 2228 
L 1259 519 
L 2272 519 
Q 2781 519 3026 730 
Q 3272 941 3272 1375 
Q 3272 1813 3026 2020 
Q 2781 2228 2272 2228 
L 1259 2228 
z
M 1259 4147 
L 1259 2741 
L 2194 2741 
Q 2656 2741 2882 2914 
Q 3109 3088 3109 3444 
Q 3109 3797 2882 3972 
Q 2656 4147 2194 4147 
L 1259 4147 
z
M 628 4666 
L 2241 4666 
Q 2963 4666 3353 4366 
Q 3744 4066 3744 3513 
Q 3744 3084 3544 2831 
Q 3344 2578 2956 2516 
Q 3422 2416 3680 2098 
Q 3938 1781 3938 1306 
Q 3938 681 3513 340 
Q 3088 0 2303 0 
L 628 0 
L 628 4666 
z
" transform="scale(0.015625)"/>
     </defs>
     <use xlink:href="#DejaVuSans-52"/>
     <use xlink:href="#DejaVuSans-65" transform="translate(64.982422 0)"/>
     <use xlink:href="#DejaVuSans-61" transform="translate(126.505859 0)"/>
     <use xlink:href="#DejaVuSans-6c" transform="translate(187.785156 0)"/>
     <use xlink:href="#DejaVuSans-69" transform="translate(215.568359 0)"/>
     <use xlink:href="#DejaVuSans-74" transform="translate(243.351562 0)"/>
     <use xlink:href="#DejaVuSans-79" transform="translate(282.560547 0)"/>
     <use xlink:href="#DejaVuSans-3a" transform="translate(334.490234 0)"/>
     <use xlink:href="#DejaVuSans-20" transform="translate(368.181641 0)"/>
     <use xlink:href="#DejaVuSans-42" transform="translate(399.96875 0)"/>
     <use xlink:href="#DejaVuSans-75" transform="translate(468.572266 0)"/>
     <use xlink:href="#DejaVuSans-73" transform="translate(531.951172 0)"/>
     <use xlink:href="#DejaVuSans-69" transform="translate(584.050781 0)"/>
     <use xlink:href="#DejaVuSans-6e" transform="translate(611.833984 0)"/>
     <use xlink:href="#DejaVuSans-65" transform="translate(675.212891 0)"/>
     <use xlink:href="#DejaVuSans-73" transform="translate(736.736328 0)"/>
     <use xlink:href="#DejaVuSans-73" transform="translate(788.835938 0)"/>
     <use xlink:href="#DejaVuSans-20" transform="translate(840.935547 0)"/>
     <use xlink:href="#DejaVuSans-6f" transform="translate(872.722656 0)"/>
     <use xlink:href="#DejaVuSans-75" transform="translate(933.904297 0)"/>
     <use xlink:href="#DejaVuSans-74" transform="translate(997.283203 0)"/>
     <use xlink:href="#DejaVuSans-63" transform="translate(1036.492188 0)"/>
     <use xlink:href="#DejaVuSans-6f" transform="translate(1091.472656 0)"/>
     <use xlink:href="#DejaVuSans-6d" transform="translate(1152.654297 0)"/>
     <use xlink:href="#DejaVuSans-65" transform="translate(1250.066406 0)"/>
     <use xlink:href="#DejaVuSans-73" transform="translate(1311.589844 0)"/>
     <use xlink:href="#DejaVuSans-20" transform="translate(1363.689453 0)"/>
     <use xlink:href="#DejaVuSans-6d" transform="translate(1395.476562 0)"/>
     <use xlink:href="#DejaVuSans-61" transform="translate(1492.888672 0)"/>
     <use xlink:href="#DejaVuSans-74" transform="translate(1554.167969 0)"/>
     <use xlink:href="#DejaVuSans-74" transform="translate(1593.376953 0)"/>
     <use xlink:href="#DejaVuSans-65" transform="translate(1632.585938 0)"/>
     <use xlink:href="#DejaVuSans-72" transform="translate(1694.109375 0)"/>
    </g>
   </g>
   <g id="text_7">
    <!-- Myth: SEO is dead -->
    <g style="fill: #1f2937" transform="translate(119.8725 320.97525) scale(0.12 -0.12)">
     <defs>
      <path id="DejaVuSans-4f" d="M 2522 4238 
Q 1834 4238 1429 3725 
Q 1025 3213 1025 2328 
Q 1025 1447 1429 934 
Q 1834 422 2522 422 
Q 3209 422 3611 934 
Q 4013 1447 4013 2328 
Q 4013 3213 3611 3725 
Q 3209 4238 2522 4238 
z
M 2522 4750 
Q 3503 4750 4090 4092 
Q 4678 3434 4678 2328 
Q 4678 1225 4090 567 
Q 3503 -91 2522 -91 
Q 1538 -91 948 565 
Q 359 1222 359 2328 
Q 359 3434 948 4092 
Q 1538 4750 2522 4750 
z
" transform="scale(0.015625)"/>
      <path id="DejaVuSans-64" d="M 2906 2969 
L 2906 4863 
L 3481 4863 
L 3481 0 
L 2906 0 
L 2906 525 
Q 2725 213 2448 61 
Q 2172 -91 1784 -91 
Q 1150 -91 751 415 
Q 353 922 353 1747 
Q 353 2572 751 3078 
Q 1150 3584 1784 3584 
Q 2172 3584 2448 3432 
Q 2725 3281 2906 2969 
z
M 947 1747 
Q 947 1113 1208 752 
Q 1469 391 1925 391 
Q 2381 391 2643 752 
Q 2906 1113 2906 1747 
Q 2906 2381 2643 2742 
Q 2381 3103 1925 3103 
Q 1469 3103 1208 2742 
Q 947 2381 947 1747 
z
" transform="scale(0.015625)"/>
     </defs>
     <use xlink:href="#DejaVuSans-4d"/>
     <use xlink:href="#DejaVuSans-79" transform="translate(86.279297 0)"/>
     <use xlink:href="#DejaVuSans-74" transform="translate(145.458984 0)"/>
     <use xlink:href="#DejaVuSans-68" transform="translate(184.667969 0)"/>
     <use xlink:href="#DejaVuSans-3a" transform="translate(248.046875 0)"/>
     <use xlink:href="#DejaVuSans-20" transform="translate(281.738281 0)"/>
     <use xlink:href="#DejaVuSans-53" transform="translate(313.525391 0)"/>
     <use xlink:href="#DejaVuSans-45" transform="translate(377.001953 0)"/>
     <use xlink:href="#DejaVuSans-4f" transform="translate(440.185547 0)"/>
     <use xlink:href="#DejaVuSans-20" transform="translate(518.896484 0)"/>
     <use xlink:href="#DejaVuSans-69" transform="translate(550.683594 0)"/>
     <use xlink:href="#DejaVuSans-73" transform="translate(578.466797 0)"/>
     <use xlink:href="#DejaVuSans-20" transform="translate(630.566406 0)"/>
     <use xlink:href="#DejaVuSans-64" transform="translate(662.353516 0)"/>
     <use xlink:href="#DejaVuSans-65" transform="translate(725.830078 0)"/>
     <use xlink:href="#DejaVuSans-61" transform="translate(787.353516 0)"/>
     <use xlink:href="#DejaVuSans-64" transform="translate(848.632812 0)"/>
    </g>
   </g>
   <g id="text_8">
    <!-- Reality: SEO is evolving -->
    <g style="fill: #1f2937" transform="translate(439.06125 320.97525) scale(0.12 -0.12)">
     <use xlink:href="#DejaVuSans-52"/>
     <use xlink:href="#DejaVuSans-65" transform="translate(64.982422 0)"/>
     <use xlink:href="#DejaVuSans-61" transform="translate(126.505859 0)"/>
     <use xlink:href="#DejaVuSans-6c" transform="translate(187.785156 0)"/>
     <use xlink:href="#DejaVuSans-69" transform="translate(215.568359 0)"/>
     <use xlink:href="#DejaVuSans-74" transform="translate(243.351562 0)"/>
     <use xlink:href="#DejaVuSans-79" transform="translate(282.560547 0)"/>
     <use xlink:href="#DejaVuSans-3a" transform="translate(334.490234 0)"/>
     <use xlink:href="#DejaVuSans-20" transform="translate(368.181641 0)"/>
     <use xlink:href="#DejaVuSans-53" transform="translate(399.96875 0)"/>
     <use xlink:href="#DejaVuSans-45" transform="translate(463.445312 0)"/>
     <use xlink:href="#DejaVuSans-4f" transform="translate(526.628906 0)"/>
     <use xlink:href="#DejaVuSans-20" transform="translate(605.339844 0)"/>
     <use xlink:href="#DejaVuSans-69" transform="translate(637.126953 0)"/>
     <use xlink:href="#DejaVuSans-73" transform="translate(664.910156 0)"/>
     <use xlink:href="#DejaVuSans-20" transform="translate(717.009766 0)"/>
     <use xlink:href="#DejaVuSans-65" transform="translate(748.796875 0)"/>
     <use xlink:href="#DejaVuSans-76" transform="translate(810.320312 0)"/>
     <use xlink:href="#DejaVuSans-6f" transform="translate(869.5 0)"/>
     <use xlink:href="#DejaVuSans-6c" transform="translate(930.681641 0)"/>
     <use xlink:href="#DejaVuSans-76" transform="translate(958.464844 0)"/>
     <use xlink:href="#DejaVuSans-69" transform="translate(1017.644531 0)"/>
     <use xlink:href="#DejaVuSans-6e" transform="translate(1045.427734 0)"/>
     <use xlink:href="#DejaVuSans-67" transform="translate(1108.806641 0)"/>
    </g>
   </g>
   <g id="text_9">
    <!-- Myth: Quick and easy -->
    <g style="fill: #1f2937" transform="translate(109.675313 397.00725) scale(0.12 -0.12)">
     <defs>
      <path id="DejaVuSans-51" d="M 2522 4238 
Q 1834 4238 1429 3725 
Q 1025 3213 1025 2328 
Q 1025 1447 1429 934 
Q 1834 422 2522 422 
Q 3209 422 3611 934 
Q 4013 1447 4013 2328 
Q 4013 3213 3611 3725 
Q 3209 4238 2522 4238 
z
M 3406 84 
L 4238 -825 
L 3475 -825 
L 2784 -78 
Q 2681 -84 2626 -87 
Q 2572 -91 2522 -91 
Q 1538 -91 948 567 
Q 359 1225 359 2328 
Q 359 3434 948 4092 
Q 1538 4750 2522 4750 
Q 3503 4750 4090 4092 
Q 4678 3434 4678 2328 
Q 4678 1516 4351 937 
Q 4025 359 3406 84 
z
" transform="scale(0.015625)"/>
     </defs>
     <use xlink:href="#DejaVuSans-4d"/>
     <use xlink:href="#DejaVuSans-79" transform="translate(86.279297 0)"/>
     <use xlink:href="#DejaVuSans-74" transform="translate(145.458984 0)"/>
     <use xlink:href="#DejaVuSans-68" transform="translate(184.667969 0)"/>
     <use xlink:href="#DejaVuSans-3a" transform="translate(248.046875 0)"/>
     <use xlink:href="#DejaVuSans-20" transform="translate(281.738281 0)"/>
     <use xlink:href="#DejaVuSans-51" transform="translate(313.525391 0)"/>
     <use xlink:href="#DejaVuSans-75" transform="translate(392.236328 0)"/>
     <use xlink:href="#DejaVuSans-69" transform="translate(455.615234 0)"/>
     <use xlink:href="#DejaVuSans-63" transform="translate(483.398438 0)"/>
     <use xlink:href="#DejaVuSans-6b" transform="translate(538.378906 0)"/>
     <use xlink:href="#DejaVuSans-20" transform="translate(596.289062 0)"/>
     <use xlink:href="#DejaVuSans-61" transform="translate(628.076172 0)"/>
     <use xlink:href="#DejaVuSans-6e" transform="translate(689.355469 0)"/>
     <use xlink:href="#DejaVuSans-64" transform="translate(752.734375 0)"/>
     <use xlink:href="#DejaVuSans-20" transform="translate(816.210938 0)"/>
     <use xlink:href="#DejaVuSans-65" transform="translate(847.998047 0)"/>
     <use xlink:href="#DejaVuSans-61" transform="translate(909.521484 0)"/>
     <use xlink:href="#DejaVuSans-73" transform="translate(970.800781 0)"/>
     <use xlink:href="#DejaVuSans-79" transform="translate(1022.900391 0)"/>
    </g>
   </g>
   <g id="text_10">
    <!-- Reality: Requires expertise -->
    <g style="fill: #1f2937" transform="translate(429.534375 397.00725) scale(0.12 -0.12)">
     <defs>
      <path id="DejaVuSans-71" d="M 947 1747 
Q 947 1113 1208 752 
Q 1469 391 1925 391 
Q 2381 391 2643 752 
Q 2906 1113 2906 1747 
Q 2906 2381 2643 2742 
Q 2381 3103 1925 3103 
Q 1469 3103 1208 2742 
Q 947 2381 947 1747 
z
M 2906 525 
Q 2725 213 2448 61 
Q 2172 -91 1784 -91 
Q 1150 -91 751 415 
Q 353 922 353 1747 
Q 353 2572 751 3078 
Q 1150 3584 1784 3584 
Q 2172 3584 2448 3432 
Q 2725 3281 2906 2969 
L 2906 3500 
L 3481 3500 
L 3481 -1331 
L 2906 -1331 
L 2906 525 
z
" transform="scale(0.015625)"/>
      <path id="DejaVuSans-78" d="M 3513 3500 
L 2247 1797 
L 3578 0 
L 2900 0 
L 1881 1375 
L 863 0 
L 184 0 
L 1544 1831 
L 300 3500 
L 978 3500 
L 1906 2253 
L 2834 3500 
L 3513 3500 
z
" transform="scale(0.015625)"/>
     </defs>
     <use xlink:href="#DejaVuSans-52"/>
     <use xlink:href="#DejaVuSans-65" transform="translate(64.982422 0)"/>
     <use xlink:href="#DejaVuSans-61" transform="translate(126.505859 0)"/>
     <use xlink:href="#DejaVuSans-6c" transform="translate(187.785156 0)"/>
     <use xlink:href="#DejaVuSans-69" transform="translate(215.568359 0)"/>
     <use xlink:href="#DejaVuSans-74" transform="translate(243.351562 0)"/>
     <use xlink:href="#DejaVuSans-79" transform="translate(282.560547 0)"/>
     <use xlink:href="#DejaVuSans-3a" transform="translate(334.490234 0)"/>
     <use xlink:href="#DejaVuSans-20" transform="translate(368.181641 0)"/>
     <use xlink:href="#DejaVuSans-52" transform="translate(399.96875 0)"/>
     <use xlink:href="#DejaVuSans-65" transform="translate(464.951172 0)"/>
     <use xlink:href="#DejaVuSans-71" transform="translate(526.474609 0)"/>
     <use xlink:href="#DejaVuSans-75" transform="translate(589.951172 0)"/>
     <use xlink:href="#DejaVuSans-69" transform="translate(653.330078 0)"/>
     <use xlink:href="#DejaVuSans-72" transform="translate(681.113281 0)"/>
     <use xlink:href="#DejaVuSans-65" transform="translate(719.976562 0)"/>
     <use xlink:href="#DejaVuSans-73" transform="translate(781.5 0)"/>
     <use xlink:href="#DejaVuSans-20" transform="translate(833.599609 0)"/>
     <use xlink:href="#DejaVuSans-65" transform="translate(865.386719 0)"/>
     <use xlink:href="#DejaVuSans-78" transform="translate(925.160156 0)"/>
     <use xlink:href="#DejaVuSans-70" transform="translate(984.339844 0)"/>
     <use xlink:href="#DejaVuSans-65" transform="translate(1047.816406 0)"/>
     <use xlink:href="#DejaVuSans-72" transform="translate(1109.339844 0)"/>
     <use xlink:href="#DejaVuSans-74" transform="translate(1150.453125 0)"/>
     <use xlink:href="#DejaVuSans-69" transform="translate(1189.662109 0)"/>
     <use xlink:href="#DejaVuSans-73" transform="translate(1217.445312 0)"/>
     <use xlink:href="#DejaVuSans-65" transform="translate(1269.544922 0)"/>
    </g>
   </g>
   <g id="text_11">
    <!-- Myth -->
    <g style="fill: #ef4444" transform="translate(154.741875 35.859062) scale(0.14 -0.14)">
     <defs>
      <path id="DejaVuSans-Bold-4d" d="M 588 4666 
L 2119 4666 
L 3181 2169 
L 4250 4666 
L 5778 4666 
L 5778 0 
L 4641 0 
L 4641 3413 
L 3566 897 
L 2803 897 
L 1728 3413 
L 1728 0 
L 588 0 
L 588 4666 
z
" transform="scale(0.015625)"/>
      <path id="DejaVuSans-Bold-79" d="M 78 3500 
L 1197 3500 
L 2138 1125 
L 2938 3500 
L 4056 3500 
L 2584 -331 
Q 2363 -916 2067 -1148 
Q 1772 -1381 1288 -1381 
L 641 -1381 
L 641 -647 
L 991 -647 
Q 1275 -647 1404 -556 
Q 1534 -466 1606 -231 
L 1638 -134 
L 78 3500 
z
" transform="scale(0.015625)"/>
      <path id="DejaVuSans-Bold-74" d="M 1759 4494 
L 1759 3500 
L 2913 3500 
L 2913 2700 
L 1759 2700 
L 1759 1216 
Q 1759 972 1856 886 
Q 1953 800 2241 800 
L 2816 800 
L 2816 0 
L 1856 0 
Q 1194 0 917 276 
Q 641 553 641 1216 
L 641 2700 
L 84 2700 
L 84 3500 
L 641 3500 
L 641 4494 
L 1759 4494 
z
" transform="scale(0.015625)"/>
      <path id="DejaVuSans-Bold-68" d="M 4056 2131 
L 4056 0 
L 2931 0 
L 2931 347 
L 2931 1625 
Q 2931 2084 2911 2256 
Q 2891 2428 2841 2509 
Q 2775 2619 2662 2680 
Q 2550 2741 2406 2741 
Q 2056 2741 1856 2470 
Q 1656 2200 1656 1722 
L 1656 0 
L 538 0 
L 538 4863 
L 1656 4863 
L 1656 2988 
Q 1909 3294 2193 3439 
Q 2478 3584 2822 3584 
Q 3428 3584 3742 3212 
Q 4056 2841 4056 2131 
z
" transform="scale(0.015625)"/>
     </defs>
     <use xlink:href="#DejaVuSans-Bold-4d"/>
     <use xlink:href="#DejaVuSans-Bold-79" transform="translate(99.511719 0)"/>
     <use xlink:href="#DejaVuSans-Bold-74" transform="translate(164.697266 0)"/>
     <use xlink:href="#DejaVuSans-Bold-68" transform="translate(212.5 0)"/>
    </g>
   </g>
   <g id="text_12">
    <!-- Reality -->
    <g style="fill: #10b981" transform="translate(481.829844 35.859062) scale(0.14 -0.14)">
     <defs>
      <path id="DejaVuSans-Bold-52" d="M 2297 2597 
Q 2675 2597 2839 2737 
Q 3003 2878 3003 3200 
Q 3003 3519 2839 3656 
Q 2675 3794 2297 3794 
L 1791 3794 
L 1791 2597 
L 2297 2597 
z
M 1791 1766 
L 1791 0 
L 588 0 
L 588 4666 
L 2425 4666 
Q 3347 4666 3776 4356 
Q 4206 4047 4206 3378 
Q 4206 2916 3982 2619 
Q 3759 2322 3309 2181 
Q 3556 2125 3751 1926 
Q 3947 1728 4147 1325 
L 4800 0 
L 3519 0 
L 2950 1159 
Q 2778 1509 2601 1637 
Q 2425 1766 2131 1766 
L 1791 1766 
z
" transform="scale(0.015625)"/>
      <path id="DejaVuSans-Bold-65" d="M 4031 1759 
L 4031 1441 
L 1416 1441 
Q 1456 1047 1700 850 
Q 1944 653 2381 653 
Q 2734 653 3104 758 
Q 3475 863 3866 1075 
L 3866 213 
Q 3469 63 3072 -14 
Q 2675 -91 2278 -91 
Q 1328 -91 801 392 
Q 275 875 275 1747 
Q 275 2603 792 3093 
Q 1309 3584 2216 3584 
Q 3041 3584 3536 3087 
Q 4031 2591 4031 1759 
z
M 2881 2131 
Q 2881 2450 2695 2645 
Q 2509 2841 2209 2841 
Q 1884 2841 1681 2658 
Q 1478 2475 1428 2131 
L 2881 2131 
z
" transform="scale(0.015625)"/>
      <path id="DejaVuSans-Bold-61" d="M 2106 1575 
Q 1756 1575 1579 1456 
Q 1403 1338 1403 1106 
Q 1403 894 1545 773 
Q 1688 653 1941 653 
Q 2256 653 2472 879 
Q 2688 1106 2688 1447 
L 2688 1575 
L 2106 1575 
z
M 3816 1997 
L 3816 0 
L 2688 0 
L 2688 519 
Q 2463 200 2181 54 
Q 1900 -91 1497 -91 
Q 953 -91 614 226 
Q 275 544 275 1050 
Q 275 1666 698 1953 
Q 1122 2241 2028 2241 
L 2688 2241 
L 2688 2328 
Q 2688 2594 2478 2717 
Q 2269 2841 1825 2841 
Q 1466 2841 1156 2769 
Q 847 2697 581 2553 
L 581 3406 
Q 941 3494 1303 3539 
Q 1666 3584 2028 3584 
Q 2975 3584 3395 3211 
Q 3816 2838 3816 1997 
z
" transform="scale(0.015625)"/>
      <path id="DejaVuSans-Bold-6c" d="M 538 4863 
L 1656 4863 
L 1656 0 
L 538 0 
L 538 4863 
z
" transform="scale(0.015625)"/>
      <path id="DejaVuSans-Bold-69" d="M 538 3500 
L 1656 3500 
L 1656 0 
L 538 0 
L 538 3500 
z
M 538 4863 
L 1656 4863 
L 1656 3950 
L 538 3950 
L 538 4863 
z
" transform="scale(0.015625)"/>
     </defs>
     <use xlink:href="#DejaVuSans-Bold-52"/>
     <use xlink:href="#DejaVuSans-Bold-65" transform="translate(77.001953 0)"/>
     <use xlink:href="#DejaVuSans-Bold-61" transform="translate(144.824219 0)"/>
     <use xlink:href="#DejaVuSans-Bold-6c" transform="translate(212.304688 0)"/>
     <use xlink:href="#DejaVuSans-Bold-69" transform="translate(246.582031 0)"/>
     <use xlink:href="#DejaVuSans-Bold-74" transform="translate(280.859375 0)"/>
     <use xlink:href="#DejaVuSans-Bold-79" transform="translate(328.662109 0)"/>
    </g>
   </g>
  </g>
 </g>
 <defs>
  <clipPath id="p26bf93ffb2">
   <rect x="7.2" y="7.2" width="669.6" height="443.52"/>
  </clipPath>
 </defs>
</svg>
