<?xml version="1.0" encoding="utf-8" standalone="no"?>
<!DOCTYPE svg PUBLIC "-//W3C//DTD SVG 1.1//EN"
  "http://www.w3.org/Graphics/SVG/1.1/DTD/svg11.dtd">
<svg xmlns:xlink="http://www.w3.org/1999/xlink" width="572.4pt" height="464.412551pt" viewBox="0 0 572.4 464.412551" xmlns="http://www.w3.org/2000/svg" version="1.1">
 <metadata>
  <rdf:RDF xmlns:dc="http://purl.org/dc/elements/1.1/" xmlns:cc="http://creativecommons.org/ns#" xmlns:rdf="http://www.w3.org/1999/02/22-rdf-syntax-ns#">
   <cc:Work>
    <dc:type rdf:resource="http://purl.org/dc/dcmitype/StillImage"/>
    <dc:date>2025-12-26T12:55:20.143214</dc:date>
    <dc:format>image/svg+xml</dc:format>
    <dc:creator>
     <cc:Agent>
      <dc:title>Matplotlib v3.10.8, https://matplotlib.org/</dc:title>
     </cc:Agent>
    </dc:creator>
   </cc:Work>
  </rdf:RDF>
 </metadata>
 <defs>
  <style type="text/css">*{stroke-linejoin: round; stroke-linecap: butt}</style>
 </defs>
 <g id="figure_1">
  <g id="patch_1">
   <path d="M 0 464.412551 
L 572.4 464.412551 
L 572.4 0 
L 0 0 
z
" style="fill: #f8f9fa"/>
  </g>
  <g id="axes_1">
   <g id="patch_2">
    <path d="M 204.141176 323.409842 
C 247.665685 323.409842 289.413402 309.665117 320.189878 285.202783 
C 350.966353 260.740449 368.258824 227.557747 368.258824 192.962783 
C 368.258824 158.367819 350.966353 125.185117 320.189878 100.722783 
C 289.413402 76.260449 247.665685 62.515724 204.141176 62.515724 
C 160.616668 62.515724 118.868951 76.260449 88.092475 100.722783 
C 57.316 125.185117 40.023529 158.367819 40.023529 192.962783 
C 40.023529 227.557747 57.316 260.740449 88.092475 285.202783 
C 118.868951 309.665117 160.616668 323.409842 204.141176 323.409842 
z
" clip-path="url(#pe23e6650b3)" style="fill: #2563eb; opacity: 0.4; stroke: #2563eb; stroke-width: 1.5; stroke-linejoin: miter"/>
   </g>
   <g id="patch_3">
    <path d="M 368.258824 323.409842 
C 411.783332 323.409842 453.531049 309.665117 484.307525 285.202783 
C 515.084 260.740449 532.376471 227.557747 532.376471 192.962783 
C 532.376471 158.367819 515.084 125.185117 484.307525 100.722783 
C 453.531049 76.260449 411.783332 62.515724 368.258824 62.515724 
C 324.734315 62.515724 282.986598 76.260449 252.210122 100.722783 
C 221.433647 125.185117 204.141176 158.367819 204.141176 192.962783 
C 204.141176 227.557747 221.433647 260.740449 252.210122 285.202783 
C 282.986598 309.665117 324.734315 323.409842 368.258824 323.409842 
z
" clip-path="url(#pe23e6650b3)" style="fill: #10b981; opacity: 0.4; stroke: #10b981; stroke-width: 1.5; stroke-linejoin: miter"/>
   </g>
   <g id="patch_4">
    <path d="M 286.2 401.678077 
C 329.724509 401.678077 371.472226 387.933352 402.248701 363.471018 
C 433.025176 339.008684 450.317647 305.825983 450.317647 271.231018 
C 450.317647 236.636054 433.025176 203.453352 402.248701 178.991019 
C 371.472226 154.528685 329.724509 140.78396 286.2 140.78396 
C 242.675491 140.78396 200.927774 154.528685 170.151299 178.991019 
C 139.374824 203.453352 122.082353 236.636054 122.082353 271.231018 
C 122.082353 305.825983 139.374824 339.008684 170.151299 363.471018 
C 200.927774 387.933352 242.675491 401.678077 286.2 401.678077 
z
" clip-path="url(#pe23e6650b3)" style="fill: #f59e0b; opacity: 0.4; stroke: #f59e0b; stroke-width: 1.5; stroke-linejoin: miter"/>
   </g>
   <g id="text_1">
    <!-- Content -->
    <g style="fill: #1f2937" transform="translate(172.788833 17.837812) scale(0.14 -0.14)">
     <defs>
      <path id="DejaVuSans-Bold-43" d="M 4288 256 
Q 3956 84 3597 -3 
Q 3238 -91 2847 -91 
Q 1681 -91 1000 561 
Q 319 1213 319 2328 
Q 319 3447 1000 4098 
Q 1681 4750 2847 4750 
Q 3238 4750 3597 4662 
Q 3956 4575 4288 4403 
L 4288 3438 
Q 3953 3666 3628 3772 
Q 3303 3878 2944 3878 
Q 2300 3878 1931 3465 
Q 1563 3053 1563 2328 
Q 1563 1606 1931 1193 
Q 2300 781 2944 781 
Q 3303 781 3628 887 
Q 3953 994 4288 1222 
L 4288 256 
z
" transform="scale(0.015625)"/>
      <path id="DejaVuSans-Bold-6f" d="M 2203 2784 
Q 1831 2784 1636 2517 
Q 1441 2250 1441 1747 
Q 1441 1244 1636 976 
Q 1831 709 2203 709 
Q 2569 709 2762 976 
Q 2956 1244 2956 1747 
Q 2956 2250 2762 2517 
Q 2569 2784 2203 2784 
z
M 2203 3584 
Q 3106 3584 3614 3096 
Q 4122 2609 4122 1747 
Q 4122 884 3614 396 
Q 3106 -91 2203 -91 
Q 1297 -91 786 396 
Q 275 884 275 1747 
Q 275 2609 786 3096 
Q 1297 3584 2203 3584 
z
" transform="scale(0.015625)"/>
      <path id="DejaVuSans-Bold-6e" d="M 4056 2131 
L 4056 0 
L 2931 0 
L 2931 347 
L 2931 1631 
Q 2931 2084 2911 2256 
Q 2891 2428 2841 2509 
Q 2775 2619 2662 2680 
Q 2550 2741 2406 2741 
Q 2056 2741 1856 2470 
Q 1656 2200 1656 1722 
L 1656 0 
L 538 0 
L 538 3500 
L 1656 3500 
L 1656 2988 
Q 1909 3294 2193 3439 
Q 2478 3584 2822 3584 
Q 3428 3584 3742 3212 
Q 4056 2841 4056 2131 
z
" transform="scale(0.015625)"/>
      <path id="DejaVuSans-Bold-74" d="M 1759 4494 
L 1759 3500 
L 2913 3500 
L 2913 2700 
L 1759 2700 
L 1759 1216 
Q 1759 972 1856 886 
Q 1953 800 2241 800 
L 2816 800 
L 2816 0 
L 1856 0 
Q 1194 0 917 276 
Q 641 553 641 1216 
L 641 2700 
L 84 2700 
L 84 3500 
L 641 3500 
L 641 4494 
L 1759 4494 
z
" transform="scale(0.015625)"/>
      <path id="DejaVuSans-Bold-65" d="M 4031 1759 
L 4031 1441 
L 1416 1441 
Q 1456 1047 1700 850 
Q 1944 653 2381 653 
Q 2734 653 3104 758 
Q 3475 863 3866 1075 
L 3866 213 
Q 3469 63 3072 -14 
Q 2675 -91 2278 -91 
Q 1328 -91 801 392 
Q 275 875 275 1747 
Q 275 2603 792 3093 
Q 1309 3584 2216 3584 
Q 3041 3584 3536 3087 
Q 4031 2591 4031 1759 
z
M 2881 2131 
Q 2881 2450 2695 2645 
Q 2509 2841 2209 2841 
Q 1884 2841 1681 2658 
Q 1478 2475 1428 2131 
L 2881 2131 
z
" transform="scale(0.015625)"/>
     </defs>
     <use xlink:href="#DejaVuSans-Bold-43"/>
     <use xlink:href="#DejaVuSans-Bold-6f" transform="translate(73.388672 0)"/>
     <use xlink:href="#DejaVuSans-Bold-6e" transform="translate(142.089844 0)"/>
     <use xlink:href="#DejaVuSans-Bold-74" transform="translate(213.28125 0)"/>
     <use xlink:href="#DejaVuSans-Bold-65" transform="translate(261.083984 0)"/>
     <use xlink:href="#DejaVuSans-Bold-6e" transform="translate(328.90625 0)"/>
     <use xlink:href="#DejaVuSans-Bold-74" transform="translate(400.097656 0)"/>
    </g>
    <!-- (Solves Problems) -->
    <g style="fill: #1f2937" transform="translate(132.568364 33.51475) scale(0.14 -0.14)">
     <defs>
      <path id="DejaVuSans-Bold-28" d="M 2413 -844 
L 1484 -844 
Q 1006 -72 778 623 
Q 550 1319 550 2003 
Q 550 2688 779 3389 
Q 1009 4091 1484 4856 
L 2413 4856 
Q 2013 4116 1813 3408 
Q 1613 2700 1613 2009 
Q 1613 1319 1811 609 
Q 2009 -100 2413 -844 
z
" transform="scale(0.015625)"/>
      <path id="DejaVuSans-Bold-53" d="M 3834 4519 
L 3834 3531 
Q 3450 3703 3084 3790 
Q 2719 3878 2394 3878 
Q 1963 3878 1756 3759 
Q 1550 3641 1550 3391 
Q 1550 3203 1689 3098 
Q 1828 2994 2194 2919 
L 2706 2816 
Q 3484 2659 3812 2340 
Q 4141 2022 4141 1434 
Q 4141 663 3683 286 
Q 3225 -91 2284 -91 
Q 1841 -91 1394 -6 
Q 947 78 500 244 
L 500 1259 
Q 947 1022 1364 901 
Q 1781 781 2169 781 
Q 2563 781 2772 912 
Q 2981 1044 2981 1288 
Q 2981 1506 2839 1625 
Q 2697 1744 2272 1838 
L 1806 1941 
Q 1106 2091 782 2419 
Q 459 2747 459 3303 
Q 459 4000 909 4375 
Q 1359 4750 2203 4750 
Q 2588 4750 2994 4692 
Q 3400 4634 3834 4519 
z
" transform="scale(0.015625)"/>
      <path id="DejaVuSans-Bold-6c" d="M 538 4863 
L 1656 4863 
L 1656 0 
L 538 0 
L 538 4863 
z
" transform="scale(0.015625)"/>
      <path id="DejaVuSans-Bold-76" d="M 97 3500 
L 1216 3500 
L 2088 1081 
L 2956 3500 
L 4078 3500 
L 2700 0 
L 1472 0 
L 97 3500 
z
" transform="scale(0.015625)"/>
      <path id="DejaVuSans-Bold-73" d="M 3272 3391 
L 3272 2541 
Q 2913 2691 2578 2766 
Q 2244 2841 1947 2841 
Q 1628 2841 1473 2761 
Q 1319 2681 1319 2516 
Q 1319 2381 1436 2309 
Q 1553 2238 1856 2203 
L 2053 2175 
Q 2913 2066 3209 1816 
Q 3506 1566 3506 1031 
Q 3506 472 3093 190 
Q 2681 -91 1863 -91 
Q 1516 -91 1145 -36 
Q 775 19 384 128 
L 384 978 
Q 719 816 1070 734 
Q 1422 653 1784 653 
Q 2113 653 2278 743 
Q 2444 834 2444 1013 
Q 2444 1163 2330 1236 
Q 2216 1309 1875 1350 
L 1678 1375 
Q 931 1469 631 1722 
Q 331 1975 331 2491 
Q 331 3047 712 3315 
Q 1094 3584 1881 3584 
Q 2191 3584 2531 3537 
Q 2872 3491 3272 3391 
z
" transform="scale(0.015625)"/>
      <path id="DejaVuSans-Bold-20" transform="scale(0.015625)"/>
      <path id="DejaVuSans-Bold-50" d="M 588 4666 
L 2584 4666 
Q 3475 4666 3951 4270 
Q 4428 3875 4428 3144 
Q 4428 2409 3951 2014 
Q 3475 1619 2584 1619 
L 1791 1619 
L 1791 0 
L 588 0 
L 588 4666 
z
M 1791 3794 
L 1791 2491 
L 2456 2491 
Q 2806 2491 2997 2661 
Q 3188 2831 3188 3144 
Q 3188 3456 2997 3625 
Q 2806 3794 2456 3794 
L 1791 3794 
z
" transform="scale(0.015625)"/>
      <path id="DejaVuSans-Bold-72" d="M 3138 2547 
Q 2991 2616 2845 2648 
Q 2700 2681 2553 2681 
Q 2122 2681 1889 2404 
Q 1656 2128 1656 1613 
L 1656 0 
L 538 0 
L 538 3500 
L 1656 3500 
L 1656 2925 
Q 1872 3269 2151 3426 
Q 2431 3584 2822 3584 
Q 2878 3584 2943 3579 
Q 3009 3575 3134 3559 
L 3138 2547 
z
" transform="scale(0.015625)"/>
      <path id="DejaVuSans-Bold-62" d="M 2400 722 
Q 2759 722 2948 984 
Q 3138 1247 3138 1747 
Q 3138 2247 2948 2509 
Q 2759 2772 2400 2772 
Q 2041 2772 1848 2508 
Q 1656 2244 1656 1747 
Q 1656 1250 1848 986 
Q 2041 722 2400 722 
z
M 1656 2988 
Q 1888 3294 2169 3439 
Q 2450 3584 2816 3584 
Q 3463 3584 3878 3070 
Q 4294 2556 4294 1747 
Q 4294 938 3878 423 
Q 3463 -91 2816 -91 
Q 2450 -91 2169 54 
Q 1888 200 1656 506 
L 1656 0 
L 538 0 
L 538 4863 
L 1656 4863 
L 1656 2988 
z
" transform="scale(0.015625)"/>
      <path id="DejaVuSans-Bold-6d" d="M 3781 2919 
Q 3994 3244 4286 3414 
Q 4578 3584 4928 3584 
Q 5531 3584 5847 3212 
Q 6163 2841 6163 2131 
L 6163 0 
L 5038 0 
L 5038 1825 
Q 5041 1866 5042 1909 
Q 5044 1953 5044 2034 
Q 5044 2406 4934 2573 
Q 4825 2741 4581 2741 
Q 4263 2741 4089 2478 
Q 3916 2216 3909 1719 
L 3909 0 
L 2784 0 
L 2784 1825 
Q 2784 2406 2684 2573 
Q 2584 2741 2328 2741 
Q 2006 2741 1831 2477 
Q 1656 2213 1656 1722 
L 1656 0 
L 531 0 
L 531 3500 
L 1656 3500 
L 1656 2988 
Q 1863 3284 2130 3434 
Q 2397 3584 2719 3584 
Q 3081 3584 3359 3409 
Q 3638 3234 3781 2919 
z
" transform="scale(0.015625)"/>
      <path id="DejaVuSans-Bold-29" d="M 513 -844 
Q 913 -100 1113 609 
Q 1313 1319 1313 2009 
Q 1313 2700 1113 3408 
Q 913 4116 513 4856 
L 1441 4856 
Q 1916 4091 2145 3389 
Q 2375 2688 2375 2003 
Q 2375 1319 2147 623 
Q 1919 -72 1441 -844 
L 513 -844 
z
" transform="scale(0.015625)"/>
     </defs>
     <use xlink:href="#DejaVuSans-Bold-28"/>
     <use xlink:href="#DejaVuSans-Bold-53" transform="translate(45.703125 0)"/>
     <use xlink:href="#DejaVuSans-Bold-6f" transform="translate(117.724609 0)"/>
     <use xlink:href="#DejaVuSans-Bold-6c" transform="translate(186.425781 0)"/>
     <use xlink:href="#DejaVuSans-Bold-76" transform="translate(220.703125 0)"/>
     <use xlink:href="#DejaVuSans-Bold-65" transform="translate(285.888672 0)"/>
     <use xlink:href="#DejaVuSans-Bold-73" transform="translate(353.710938 0)"/>
     <use xlink:href="#DejaVuSans-Bold-20" transform="translate(413.232422 0)"/>
     <use xlink:href="#DejaVuSans-Bold-50" transform="translate(448.046875 0)"/>
     <use xlink:href="#DejaVuSans-Bold-72" transform="translate(521.337891 0)"/>
     <use xlink:href="#DejaVuSans-Bold-6f" transform="translate(570.654297 0)"/>
     <use xlink:href="#DejaVuSans-Bold-62" transform="translate(639.355469 0)"/>
     <use xlink:href="#DejaVuSans-Bold-6c" transform="translate(710.9375 0)"/>
     <use xlink:href="#DejaVuSans-Bold-65" transform="translate(745.214844 0)"/>
     <use xlink:href="#DejaVuSans-Bold-6d" transform="translate(813.037109 0)"/>
     <use xlink:href="#DejaVuSans-Bold-73" transform="translate(917.236328 0)"/>
     <use xlink:href="#DejaVuSans-Bold-29" transform="translate(976.757812 0)"/>
    </g>
   </g>
   <g id="text_2">
    <!-- User Intent -->
    <g style="fill: #1f2937" transform="translate(323.761792 17.837812) scale(0.14 -0.14)">
     <defs>
      <path id="DejaVuSans-Bold-55" d="M 588 4666 
L 1791 4666 
L 1791 1869 
Q 1791 1291 1980 1042 
Q 2169 794 2597 794 
Q 3028 794 3217 1042 
Q 3406 1291 3406 1869 
L 3406 4666 
L 4609 4666 
L 4609 1869 
Q 4609 878 4112 393 
Q 3616 -91 2597 -91 
Q 1581 -91 1084 393 
Q 588 878 588 1869 
L 588 4666 
z
" transform="scale(0.015625)"/>
      <path id="DejaVuSans-Bold-49" d="M 588 4666 
L 1791 4666 
L 1791 0 
L 588 0 
L 588 4666 
z
" transform="scale(0.015625)"/>
     </defs>
     <use xlink:href="#DejaVuSans-Bold-55"/>
     <use xlink:href="#DejaVuSans-Bold-73" transform="translate(81.201172 0)"/>
     <use xlink:href="#DejaVuSans-Bold-65" transform="translate(140.722656 0)"/>
     <use xlink:href="#DejaVuSans-Bold-72" transform="translate(208.544922 0)"/>
     <use xlink:href="#DejaVuSans-Bold-20" transform="translate(257.861328 0)"/>
     <use xlink:href="#DejaVuSans-Bold-49" transform="translate(292.675781 0)"/>
     <use xlink:href="#DejaVuSans-Bold-6e" transform="translate(329.882812 0)"/>
     <use xlink:href="#DejaVuSans-Bold-74" transform="translate(401.074219 0)"/>
     <use xlink:href="#DejaVuSans-Bold-65" transform="translate(448.876953 0)"/>
     <use xlink:href="#DejaVuSans-Bold-6e" transform="translate(516.699219 0)"/>
     <use xlink:href="#DejaVuSans-Bold-74" transform="translate(587.890625 0)"/>
    </g>
    <!-- (What Users Seek) -->
    <g style="fill: #1f2937" transform="translate(294.804761 33.51475) scale(0.14 -0.14)">
     <defs>
      <path id="DejaVuSans-Bold-57" d="M 191 4666 
L 1344 4666 
L 2150 1275 
L 2950 4666 
L 4109 4666 
L 4909 1275 
L 5716 4666 
L 6859 4666 
L 5759 0 
L 4372 0 
L 3525 3547 
L 2688 0 
L 1300 0 
L 191 4666 
z
" transform="scale(0.015625)"/>
      <path id="DejaVuSans-Bold-68" d="M 4056 2131 
L 4056 0 
L 2931 0 
L 2931 347 
L 2931 1625 
Q 2931 2084 2911 2256 
Q 2891 2428 2841 2509 
Q 2775 2619 2662 2680 
Q 2550 2741 2406 2741 
Q 2056 2741 1856 2470 
Q 1656 2200 1656 1722 
L 1656 0 
L 538 0 
L 538 4863 
L 1656 4863 
L 1656 2988 
Q 1909 3294 2193 3439 
Q 2478 3584 2822 3584 
Q 3428 3584 3742 3212 
Q 4056 2841 4056 2131 
z
" transform="scale(0.015625)"/>
      <path id="DejaVuSans-Bold-61" d="M 2106 1575 
Q 1756 1575 1579 1456 
Q 1403 1338 1403 1106 
Q 1403 894 1545 773 
Q 1688 653 1941 653 
Q 2256 653 2472 879 
Q 2688 1106 2688 1447 
L 2688 1575 
L 2106 1575 
z
M 3816 1997 
L 3816 0 
L 2688 0 
L 2688 519 
Q 2463 200 2181 54 
Q 1900 -91 1497 -91 
Q 953 -91 614 226 
Q 275 544 275 1050 
Q 275 1666 698 1953 
Q 1122 2241 2028 2241 
L 2688 2241 
L 2688 2328 
Q 2688 2594 2478 2717 
Q 2269 2841 1825 2841 
Q 1466 2841 1156 2769 
Q 847 2697 581 2553 
L 581 3406 
Q 941 3494 1303 3539 
Q 1666 3584 2028 3584 
Q 2975 3584 3395 3211 
Q 3816 2838 3816 1997 
z
" transform="scale(0.015625)"/>
      <path id="DejaVuSans-Bold-6b" d="M 538 4863 
L 1656 4863 
L 1656 2216 
L 2944 3500 
L 4244 3500 
L 2534 1894 
L 4378 0 
L 3022 0 
L 1656 1459 
L 1656 0 
L 538 0 
L 538 4863 
z
" transform="scale(0.015625)"/>
     </defs>
     <use xlink:href="#DejaVuSans-Bold-28"/>
     <use xlink:href="#DejaVuSans-Bold-57" transform="translate(45.703125 0)"/>
     <use xlink:href="#DejaVuSans-Bold-68" transform="translate(156.005859 0)"/>
     <use xlink:href="#DejaVuSans-Bold-61" transform="translate(227.197266 0)"/>
     <use xlink:href="#DejaVuSans-Bold-74" transform="translate(294.677734 0)"/>
     <use xlink:href="#DejaVuSans-Bold-20" transform="translate(342.480469 0)"/>
     <use xlink:href="#DejaVuSans-Bold-55" transform="translate(377.294922 0)"/>
     <use xlink:href="#DejaVuSans-Bold-73" transform="translate(458.496094 0)"/>
     <use xlink:href="#DejaVuSans-Bold-65" transform="translate(518.017578 0)"/>
     <use xlink:href="#DejaVuSans-Bold-72" transform="translate(585.839844 0)"/>
     <use xlink:href="#DejaVuSans-Bold-73" transform="translate(635.15625 0)"/>
     <use xlink:href="#DejaVuSans-Bold-20" transform="translate(694.677734 0)"/>
     <use xlink:href="#DejaVuSans-Bold-53" transform="translate(729.492188 0)"/>
     <use xlink:href="#DejaVuSans-Bold-65" transform="translate(801.513672 0)"/>
     <use xlink:href="#DejaVuSans-Bold-65" transform="translate(869.335938 0)"/>
     <use xlink:href="#DejaVuSans-Bold-6b" transform="translate(937.158203 0)"/>
     <use xlink:href="#DejaVuSans-Bold-29" transform="translate(1003.662109 0)"/>
    </g>
   </g>
   <g id="text_3">
    <!-- Search Engine Goals -->
    <g style="fill: #1f2937" transform="translate(205.477969 438.405301) scale(0.14 -0.14)">
     <defs>
      <path id="DejaVuSans-Bold-63" d="M 3366 3391 
L 3366 2478 
Q 3138 2634 2908 2709 
Q 2678 2784 2431 2784 
Q 1963 2784 1702 2511 
Q 1441 2238 1441 1747 
Q 1441 1256 1702 982 
Q 1963 709 2431 709 
Q 2694 709 2930 787 
Q 3166 866 3366 1019 
L 3366 103 
Q 3103 6 2833 -42 
Q 2563 -91 2291 -91 
Q 1344 -91 809 395 
Q 275 881 275 1747 
Q 275 2613 809 3098 
Q 1344 3584 2291 3584 
Q 2566 3584 2833 3536 
Q 3100 3488 3366 3391 
z
" transform="scale(0.015625)"/>
      <path id="DejaVuSans-Bold-45" d="M 588 4666 
L 3834 4666 
L 3834 3756 
L 1791 3756 
L 1791 2888 
L 3713 2888 
L 3713 1978 
L 1791 1978 
L 1791 909 
L 3903 909 
L 3903 0 
L 588 0 
L 588 4666 
z
" transform="scale(0.015625)"/>
      <path id="DejaVuSans-Bold-67" d="M 2919 594 
Q 2688 288 2409 144 
Q 2131 0 1766 0 
Q 1125 0 706 504 
Q 288 1009 288 1791 
Q 288 2575 706 3076 
Q 1125 3578 1766 3578 
Q 2131 3578 2409 3434 
Q 2688 3291 2919 2981 
L 2919 3500 
L 4044 3500 
L 4044 353 
Q 4044 -491 3511 -936 
Q 2978 -1381 1966 -1381 
Q 1638 -1381 1331 -1331 
Q 1025 -1281 716 -1178 
L 716 -306 
Q 1009 -475 1290 -558 
Q 1572 -641 1856 -641 
Q 2406 -641 2662 -400 
Q 2919 -159 2919 353 
L 2919 594 
z
M 2181 2772 
Q 1834 2772 1640 2515 
Q 1447 2259 1447 1791 
Q 1447 1309 1634 1061 
Q 1822 813 2181 813 
Q 2531 813 2725 1069 
Q 2919 1325 2919 1791 
Q 2919 2259 2725 2515 
Q 2531 2772 2181 2772 
z
" transform="scale(0.015625)"/>
      <path id="DejaVuSans-Bold-69" d="M 538 3500 
L 1656 3500 
L 1656 0 
L 538 0 
L 538 3500 
z
M 538 4863 
L 1656 4863 
L 1656 3950 
L 538 3950 
L 538 4863 
z
" transform="scale(0.015625)"/>
      <path id="DejaVuSans-Bold-47" d="M 4781 347 
Q 4331 128 3847 18 
Q 3363 -91 2847 -91 
Q 1681 -91 1000 561 
Q 319 1213 319 2328 
Q 319 3456 1012 4103 
Q 1706 4750 2913 4750 
Q 3378 4750 3804 4662 
Q 4231 4575 4609 4403 
L 4609 3438 
Q 4219 3659 3833 3768 
Q 3447 3878 3059 3878 
Q 2341 3878 1952 3476 
Q 1563 3075 1563 2328 
Q 1563 1588 1938 1184 
Q 2313 781 3003 781 
Q 3191 781 3352 804 
Q 3513 828 3641 878 
L 3641 1784 
L 2906 1784 
L 2906 2591 
L 4781 2591 
L 4781 347 
z
" transform="scale(0.015625)"/>
     </defs>
     <use xlink:href="#DejaVuSans-Bold-53"/>
     <use xlink:href="#DejaVuSans-Bold-65" transform="translate(72.021484 0)"/>
     <use xlink:href="#DejaVuSans-Bold-61" transform="translate(139.84375 0)"/>
     <use xlink:href="#DejaVuSans-Bold-72" transform="translate(207.324219 0)"/>
     <use xlink:href="#DejaVuSans-Bold-63" transform="translate(256.640625 0)"/>
     <use xlink:href="#DejaVuSans-Bold-68" transform="translate(315.917969 0)"/>
     <use xlink:href="#DejaVuSans-Bold-20" transform="translate(387.109375 0)"/>
     <use xlink:href="#DejaVuSans-Bold-45" transform="translate(421.923828 0)"/>
     <use xlink:href="#DejaVuSans-Bold-6e" transform="translate(490.234375 0)"/>
     <use xlink:href="#DejaVuSans-Bold-67" transform="translate(561.425781 0)"/>
     <use xlink:href="#DejaVuSans-Bold-69" transform="translate(633.007812 0)"/>
     <use xlink:href="#DejaVuSans-Bold-6e" transform="translate(667.285156 0)"/>
     <use xlink:href="#DejaVuSans-Bold-65" transform="translate(738.476562 0)"/>
     <use xlink:href="#DejaVuSans-Bold-20" transform="translate(806.298828 0)"/>
     <use xlink:href="#DejaVuSans-Bold-47" transform="translate(841.113281 0)"/>
     <use xlink:href="#DejaVuSans-Bold-6f" transform="translate(923.193359 0)"/>
     <use xlink:href="#DejaVuSans-Bold-61" transform="translate(991.894531 0)"/>
     <use xlink:href="#DejaVuSans-Bold-6c" transform="translate(1059.375 0)"/>
     <use xlink:href="#DejaVuSans-Bold-73" transform="translate(1093.652344 0)"/>
    </g>
    <!-- (Satisfying Users) -->
    <g style="fill: #1f2937" transform="translate(215.470469 454.191614) scale(0.14 -0.14)">
     <defs>
      <path id="DejaVuSans-Bold-66" d="M 2841 4863 
L 2841 4128 
L 2222 4128 
Q 1984 4128 1890 4042 
Q 1797 3956 1797 3744 
L 1797 3500 
L 2753 3500 
L 2753 2700 
L 1797 2700 
L 1797 0 
L 678 0 
L 678 2700 
L 122 2700 
L 122 3500 
L 678 3500 
L 678 3744 
Q 678 4316 997 4589 
Q 1316 4863 1984 4863 
L 2841 4863 
z
" transform="scale(0.015625)"/>
      <path id="DejaVuSans-Bold-79" d="M 78 3500 
L 1197 3500 
L 2138 1125 
L 2938 3500 
L 4056 3500 
L 2584 -331 
Q 2363 -916 2067 -1148 
Q 1772 -1381 1288 -1381 
L 641 -1381 
L 641 -647 
L 991 -647 
Q 1275 -647 1404 -556 
Q 1534 -466 1606 -231 
L 1638 -134 
L 78 3500 
z
" transform="scale(0.015625)"/>
     </defs>
     <use xlink:href="#DejaVuSans-Bold-28"/>
     <use xlink:href="#DejaVuSans-Bold-53" transform="translate(45.703125 0)"/>
     <use xlink:href="#DejaVuSans-Bold-61" transform="translate(117.724609 0)"/>
     <use xlink:href="#DejaVuSans-Bold-74" transform="translate(185.205078 0)"/>
     <use xlink:href="#DejaVuSans-Bold-69" transform="translate(233.007812 0)"/>
     <use xlink:href="#DejaVuSans-Bold-73" transform="translate(267.285156 0)"/>
     <use xlink:href="#DejaVuSans-Bold-66" transform="translate(326.806641 0)"/>
     <use xlink:href="#DejaVuSans-Bold-79" transform="translate(370.3125 0)"/>
     <use xlink:href="#DejaVuSans-Bold-69" transform="translate(435.498047 0)"/>
     <use xlink:href="#DejaVuSans-Bold-6e" transform="translate(469.775391 0)"/>
     <use xlink:href="#DejaVuSans-Bold-67" transform="translate(540.966797 0)"/>
     <use xlink:href="#DejaVuSans-Bold-20" transform="translate(612.548828 0)"/>
     <use xlink:href="#DejaVuSans-Bold-55" transform="translate(647.363281 0)"/>
     <use xlink:href="#DejaVuSans-Bold-73" transform="translate(728.564453 0)"/>
     <use xlink:href="#DejaVuSans-Bold-65" transform="translate(788.085938 0)"/>
     <use xlink:href="#DejaVuSans-Bold-72" transform="translate(855.908203 0)"/>
     <use xlink:href="#DejaVuSans-Bold-73" transform="translate(905.224609 0)"/>
     <use xlink:href="#DejaVuSans-Bold-29" transform="translate(964.746094 0)"/>
    </g>
   </g>
   <g id="text_4">
    <g id="patch_5">
     <path d="M 250.31 243.752945 
L 322.09 243.752945 
Q 330.09 243.752945 330.09 235.752945 
L 330.09 202.351445 
Q 330.09 194.351445 322.09 194.351445 
L 250.31 194.351445 
Q 242.31 194.351445 242.31 202.351445 
L 242.31 235.752945 
Q 242.31 243.752945 250.31 243.752945 
z
" style="fill: #ffffff; opacity: 0.9"/>
    </g>
    <!-- SEO -->
    <g style="fill: #1f2937" transform="translate(268.1725 214.508945) scale(0.16 -0.16)">
     <defs>
      <path id="DejaVuSans-Bold-4f" d="M 2719 3878 
Q 2169 3878 1866 3472 
Q 1563 3066 1563 2328 
Q 1563 1594 1866 1187 
Q 2169 781 2719 781 
Q 3272 781 3575 1187 
Q 3878 1594 3878 2328 
Q 3878 3066 3575 3472 
Q 3272 3878 2719 3878 
z
M 2719 4750 
Q 3844 4750 4481 4106 
Q 5119 3463 5119 2328 
Q 5119 1197 4481 553 
Q 3844 -91 2719 -91 
Q 1597 -91 958 553 
Q 319 1197 319 2328 
Q 319 3463 958 4106 
Q 1597 4750 2719 4750 
z
" transform="scale(0.015625)"/>
     </defs>
     <use xlink:href="#DejaVuSans-Bold-53"/>
     <use xlink:href="#DejaVuSans-Bold-45" transform="translate(72.021484 0)"/>
     <use xlink:href="#DejaVuSans-Bold-4f" transform="translate(140.332031 0)"/>
    </g>
    <!-- Success -->
    <g style="fill: #1f2937" transform="translate(250.31 232.425445) scale(0.16 -0.16)">
     <defs>
      <path id="DejaVuSans-Bold-75" d="M 500 1363 
L 500 3500 
L 1625 3500 
L 1625 3150 
Q 1625 2866 1622 2436 
Q 1619 2006 1619 1863 
Q 1619 1441 1641 1255 
Q 1663 1069 1716 984 
Q 1784 875 1895 815 
Q 2006 756 2150 756 
Q 2500 756 2700 1025 
Q 2900 1294 2900 1772 
L 2900 3500 
L 4019 3500 
L 4019 0 
L 2900 0 
L 2900 506 
Q 2647 200 2364 54 
Q 2081 -91 1741 -91 
Q 1134 -91 817 281 
Q 500 653 500 1363 
z
" transform="scale(0.015625)"/>
     </defs>
     <use xlink:href="#DejaVuSans-Bold-53"/>
     <use xlink:href="#DejaVuSans-Bold-75" transform="translate(72.021484 0)"/>
     <use xlink:href="#DejaVuSans-Bold-63" transform="translate(143.212891 0)"/>
     <use xlink:href="#DejaVuSans-Bold-63" transform="translate(202.490234 0)"/>
     <use xlink:href="#DejaVuSans-Bold-65" transform="translate(261.767578 0)"/>
     <use xlink:href="#DejaVuSans-Bold-73" transform="translate(329.589844 0)"/>
     <use xlink:href="#DejaVuSans-Bold-73" transform="translate(389.111328 0)"/>
    </g>
   </g>
  </g>
 </g>
 <defs>
  <clipPath id="pe23e6650b3">
   <rect x="7.2" y="10.336901" width="558" height="443.52"/>
  </clipPath>
 </defs>
</svg>
