<?xml version="1.0" encoding="utf-8" standalone="no"?>
<!DOCTYPE svg PUBLIC "-//W3C//DTD SVG 1.1//EN"
  "http://www.w3.org/Graphics/SVG/1.1/DTD/svg11.dtd">
<svg xmlns:xlink="http://www.w3.org/1999/xlink" width="572.4pt" height="347.04pt" viewBox="0 0 572.4 347.04" xmlns="http://www.w3.org/2000/svg" version="1.1">
 <metadata>
  <rdf:RDF xmlns:dc="http://purl.org/dc/elements/1.1/" xmlns:cc="http://creativecommons.org/ns#" xmlns:rdf="http://www.w3.org/1999/02/22-rdf-syntax-ns#">
   <cc:Work>
    <dc:type rdf:resource="http://purl.org/dc/dcmitype/StillImage"/>
    <dc:date>2025-12-26T12:55:21.584789</dc:date>
    <dc:format>image/svg+xml</dc:format>
    <dc:creator>
     <cc:Agent>
      <dc:title>Matplotlib v3.10.8, https://matplotlib.org/</dc:title>
     </cc:Agent>
    </dc:creator>
   </cc:Work>
  </rdf:RDF>
 </metadata>
 <defs>
  <style type="text/css">*{stroke-linejoin: round; stroke-linecap: butt}</style>
 </defs>
 <g id="figure_1">
  <g id="patch_1">
   <path d="M 0 347.04 
L 572.4 347.04 
L 572.4 -0 
L 0 -0 
z
" style="fill: #f8f9fa"/>
  </g>
  <g id="axes_1">
   <g id="line2d_1">
    <path d="M 48.229412 134.784443 
L 524.170588 134.784443 
" clip-path="url(#pc2a81f6285)" style="fill: none; stroke: #1f2937; stroke-width: 2; stroke-linecap: square"/>
   </g>
   <g id="patch_2">
    <path d="M 247.169971 134.784443 
Q 253.375106 134.784443 257.903191 134.784443 
" clip-path="url(#pc2a81f6285)" style="fill: none; stroke: #1f2937; stroke-width: 1.5; stroke-linecap: round"/>
    <path d="M 257.503191 134.584443 
L 257.903191 134.784443 
L 257.503191 134.984443 
" clip-path="url(#pc2a81f6285)" style="fill: none; stroke: #1f2937; stroke-width: 1.5; stroke-linecap: round"/>
   </g>
   <g id="patch_3">
    <path d="M 279.9935 134.784443 
Q 286.198636 134.784443 290.726721 134.784443 
" clip-path="url(#pc2a81f6285)" style="fill: none; stroke: #1f2937; stroke-width: 1.5; stroke-linecap: round"/>
    <path d="M 290.326721 134.584443 
L 290.726721 134.784443 
L 290.326721 134.984443 
" clip-path="url(#pc2a81f6285)" style="fill: none; stroke: #1f2937; stroke-width: 1.5; stroke-linecap: round"/>
   </g>
   <g id="patch_4">
    <path d="M 81.052941 166.744473 
L 245.170588 166.744473 
L 245.170588 102.824412 
L 81.052941 102.824412 
z
" clip-path="url(#pc2a81f6285)" style="fill: #6b7280; opacity: 0.7; stroke: #1f2937; stroke-width: 1.5; stroke-linejoin: miter"/>
   </g>
   <g id="patch_5">
    <path d="M 261.582353 166.744473 
L 277.994118 166.744473 
L 277.994118 102.824412 
L 261.582353 102.824412 
z
" clip-path="url(#pc2a81f6285)" style="fill: #fbbf24; opacity: 0.7; stroke: #1f2937; stroke-width: 1.5; stroke-linejoin: miter"/>
   </g>
   <g id="patch_6">
    <path d="M 294.405882 166.744473 
L 491.347059 166.744473 
L 491.347059 102.824412 
L 294.405882 102.824412 
z
" clip-path="url(#pc2a81f6285)" style="fill: #10b981; opacity: 0.7; stroke: #1f2937; stroke-width: 1.5; stroke-linejoin: miter"/>
   </g>
   <g id="text_1">
    <!-- Early (2000-2010) -->
    <g style="fill: #1f2937" transform="translate(92.487233 67.843444) scale(0.14 -0.14)">
     <defs>
      <path id="DejaVuSans-Bold-45" d="M 588 4666 
L 3834 4666 
L 3834 3756 
L 1791 3756 
L 1791 2888 
L 3713 2888 
L 3713 1978 
L 1791 1978 
L 1791 909 
L 3903 909 
L 3903 0 
L 588 0 
L 588 4666 
z
" transform="scale(0.015625)"/>
      <path id="DejaVuSans-Bold-61" d="M 2106 1575 
Q 1756 1575 1579 1456 
Q 1403 1338 1403 1106 
Q 1403 894 1545 773 
Q 1688 653 1941 653 
Q 2256 653 2472 879 
Q 2688 1106 2688 1447 
L 2688 1575 
L 2106 1575 
z
M 3816 1997 
L 3816 0 
L 2688 0 
L 2688 519 
Q 2463 200 2181 54 
Q 1900 -91 1497 -91 
Q 953 -91 614 226 
Q 275 544 275 1050 
Q 275 1666 698 1953 
Q 1122 2241 2028 2241 
L 2688 2241 
L 2688 2328 
Q 2688 2594 2478 2717 
Q 2269 2841 1825 2841 
Q 1466 2841 1156 2769 
Q 847 2697 581 2553 
L 581 3406 
Q 941 3494 1303 3539 
Q 1666 3584 2028 3584 
Q 2975 3584 3395 3211 
Q 3816 2838 3816 1997 
z
" transform="scale(0.015625)"/>
      <path id="DejaVuSans-Bold-72" d="M 3138 2547 
Q 2991 2616 2845 2648 
Q 2700 2681 2553 2681 
Q 2122 2681 1889 2404 
Q 1656 2128 1656 1613 
L 1656 0 
L 538 0 
L 538 3500 
L 1656 3500 
L 1656 2925 
Q 1872 3269 2151 3426 
Q 2431 3584 2822 3584 
Q 2878 3584 2943 3579 
Q 3009 3575 3134 3559 
L 3138 2547 
z
" transform="scale(0.015625)"/>
      <path id="DejaVuSans-Bold-6c" d="M 538 4863 
L 1656 4863 
L 1656 0 
L 538 0 
L 538 4863 
z
" transform="scale(0.015625)"/>
      <path id="DejaVuSans-Bold-79" d="M 78 3500 
L 1197 3500 
L 2138 1125 
L 2938 3500 
L 4056 3500 
L 2584 -331 
Q 2363 -916 2067 -1148 
Q 1772 -1381 1288 -1381 
L 641 -1381 
L 641 -647 
L 991 -647 
Q 1275 -647 1404 -556 
Q 1534 -466 1606 -231 
L 1638 -134 
L 78 3500 
z
" transform="scale(0.015625)"/>
      <path id="DejaVuSans-Bold-20" transform="scale(0.015625)"/>
      <path id="DejaVuSans-Bold-28" d="M 2413 -844 
L 1484 -844 
Q 1006 -72 778 623 
Q 550 1319 550 2003 
Q 550 2688 779 3389 
Q 1009 4091 1484 4856 
L 2413 4856 
Q 2013 4116 1813 3408 
Q 1613 2700 1613 2009 
Q 1613 1319 1811 609 
Q 2009 -100 2413 -844 
z
" transform="scale(0.015625)"/>
      <path id="DejaVuSans-Bold-32" d="M 1844 884 
L 3897 884 
L 3897 0 
L 506 0 
L 506 884 
L 2209 2388 
Q 2438 2594 2547 2791 
Q 2656 2988 2656 3200 
Q 2656 3528 2436 3728 
Q 2216 3928 1850 3928 
Q 1569 3928 1234 3808 
Q 900 3688 519 3450 
L 519 4475 
Q 925 4609 1322 4679 
Q 1719 4750 2100 4750 
Q 2938 4750 3402 4381 
Q 3866 4013 3866 3353 
Q 3866 2972 3669 2642 
Q 3472 2313 2841 1759 
L 1844 884 
z
" transform="scale(0.015625)"/>
      <path id="DejaVuSans-Bold-30" d="M 2944 2338 
Q 2944 3213 2780 3570 
Q 2616 3928 2228 3928 
Q 1841 3928 1675 3570 
Q 1509 3213 1509 2338 
Q 1509 1453 1675 1090 
Q 1841 728 2228 728 
Q 2613 728 2778 1090 
Q 2944 1453 2944 2338 
z
M 4147 2328 
Q 4147 1169 3647 539 
Q 3147 -91 2228 -91 
Q 1306 -91 806 539 
Q 306 1169 306 2328 
Q 306 3491 806 4120 
Q 1306 4750 2228 4750 
Q 3147 4750 3647 4120 
Q 4147 3491 4147 2328 
z
" transform="scale(0.015625)"/>
      <path id="DejaVuSans-Bold-2d" d="M 347 2297 
L 2309 2297 
L 2309 1388 
L 347 1388 
L 347 2297 
z
" transform="scale(0.015625)"/>
      <path id="DejaVuSans-Bold-31" d="M 750 831 
L 1813 831 
L 1813 3847 
L 722 3622 
L 722 4441 
L 1806 4666 
L 2950 4666 
L 2950 831 
L 4013 831 
L 4013 0 
L 750 0 
L 750 831 
z
" transform="scale(0.015625)"/>
      <path id="DejaVuSans-Bold-29" d="M 513 -844 
Q 913 -100 1113 609 
Q 1313 1319 1313 2009 
Q 1313 2700 1113 3408 
Q 913 4116 513 4856 
L 1441 4856 
Q 1916 4091 2145 3389 
Q 2375 2688 2375 2003 
Q 2375 1319 2147 623 
Q 1919 -72 1441 -844 
L 513 -844 
z
" transform="scale(0.015625)"/>
     </defs>
     <use xlink:href="#DejaVuSans-Bold-45"/>
     <use xlink:href="#DejaVuSans-Bold-61" transform="translate(68.310547 0)"/>
     <use xlink:href="#DejaVuSans-Bold-72" transform="translate(135.791016 0)"/>
     <use xlink:href="#DejaVuSans-Bold-6c" transform="translate(185.107422 0)"/>
     <use xlink:href="#DejaVuSans-Bold-79" transform="translate(219.384766 0)"/>
     <use xlink:href="#DejaVuSans-Bold-20" transform="translate(284.570312 0)"/>
     <use xlink:href="#DejaVuSans-Bold-28" transform="translate(319.384766 0)"/>
     <use xlink:href="#DejaVuSans-Bold-32" transform="translate(365.087891 0)"/>
     <use xlink:href="#DejaVuSans-Bold-30" transform="translate(434.667969 0)"/>
     <use xlink:href="#DejaVuSans-Bold-30" transform="translate(504.248047 0)"/>
     <use xlink:href="#DejaVuSans-Bold-30" transform="translate(573.828125 0)"/>
     <use xlink:href="#DejaVuSans-Bold-2d" transform="translate(643.408203 0)"/>
     <use xlink:href="#DejaVuSans-Bold-32" transform="translate(684.912109 0)"/>
     <use xlink:href="#DejaVuSans-Bold-30" transform="translate(754.492188 0)"/>
     <use xlink:href="#DejaVuSans-Bold-31" transform="translate(824.072266 0)"/>
     <use xlink:href="#DejaVuSans-Bold-30" transform="translate(893.652344 0)"/>
     <use xlink:href="#DejaVuSans-Bold-29" transform="translate(963.232422 0)"/>
    </g>
   </g>
   <g id="text_2">
    <!-- Link-focused -->
    <g style="fill: #1f2937" transform="translate(125.14864 207.822629) scale(0.12 -0.12)">
     <defs>
      <path id="DejaVuSans-4c" d="M 628 4666 
L 1259 4666 
L 1259 531 
L 3531 531 
L 3531 0 
L 628 0 
L 628 4666 
z
" transform="scale(0.015625)"/>
      <path id="DejaVuSans-69" d="M 603 3500 
L 1178 3500 
L 1178 0 
L 603 0 
L 603 3500 
z
M 603 4863 
L 1178 4863 
L 1178 4134 
L 603 4134 
L 603 4863 
z
" transform="scale(0.015625)"/>
      <path id="DejaVuSans-6e" d="M 3513 2113 
L 3513 0 
L 2938 0 
L 2938 2094 
Q 2938 2591 2744 2837 
Q 2550 3084 2163 3084 
Q 1697 3084 1428 2787 
Q 1159 2491 1159 1978 
L 1159 0 
L 581 0 
L 581 3500 
L 1159 3500 
L 1159 2956 
Q 1366 3272 1645 3428 
Q 1925 3584 2291 3584 
Q 2894 3584 3203 3211 
Q 3513 2838 3513 2113 
z
" transform="scale(0.015625)"/>
      <path id="DejaVuSans-6b" d="M 581 4863 
L 1159 4863 
L 1159 1991 
L 2875 3500 
L 3609 3500 
L 1753 1863 
L 3688 0 
L 2938 0 
L 1159 1709 
L 1159 0 
L 581 0 
L 581 4863 
z
" transform="scale(0.015625)"/>
      <path id="DejaVuSans-2d" d="M 313 2009 
L 1997 2009 
L 1997 1497 
L 313 1497 
L 313 2009 
z
" transform="scale(0.015625)"/>
      <path id="DejaVuSans-66" d="M 2375 4863 
L 2375 4384 
L 1825 4384 
Q 1516 4384 1395 4259 
Q 1275 4134 1275 3809 
L 1275 3500 
L 2222 3500 
L 2222 3053 
L 1275 3053 
L 1275 0 
L 697 0 
L 697 3053 
L 147 3053 
L 147 3500 
L 697 3500 
L 697 3744 
Q 697 4328 969 4595 
Q 1241 4863 1831 4863 
L 2375 4863 
z
" transform="scale(0.015625)"/>
      <path id="DejaVuSans-6f" d="M 1959 3097 
Q 1497 3097 1228 2736 
Q 959 2375 959 1747 
Q 959 1119 1226 758 
Q 1494 397 1959 397 
Q 2419 397 2687 759 
Q 2956 1122 2956 1747 
Q 2956 2369 2687 2733 
Q 2419 3097 1959 3097 
z
M 1959 3584 
Q 2709 3584 3137 3096 
Q 3566 2609 3566 1747 
Q 3566 888 3137 398 
Q 2709 -91 1959 -91 
Q 1206 -91 779 398 
Q 353 888 353 1747 
Q 353 2609 779 3096 
Q 1206 3584 1959 3584 
z
" transform="scale(0.015625)"/>
      <path id="DejaVuSans-63" d="M 3122 3366 
L 3122 2828 
Q 2878 2963 2633 3030 
Q 2388 3097 2138 3097 
Q 1578 3097 1268 2742 
Q 959 2388 959 1747 
Q 959 1106 1268 751 
Q 1578 397 2138 397 
Q 2388 397 2633 464 
Q 2878 531 3122 666 
L 3122 134 
Q 2881 22 2623 -34 
Q 2366 -91 2075 -91 
Q 1284 -91 818 406 
Q 353 903 353 1747 
Q 353 2603 823 3093 
Q 1294 3584 2113 3584 
Q 2378 3584 2631 3529 
Q 2884 3475 3122 3366 
z
" transform="scale(0.015625)"/>
      <path id="DejaVuSans-75" d="M 544 1381 
L 544 3500 
L 1119 3500 
L 1119 1403 
Q 1119 906 1312 657 
Q 1506 409 1894 409 
Q 2359 409 2629 706 
Q 2900 1003 2900 1516 
L 2900 3500 
L 3475 3500 
L 3475 0 
L 2900 0 
L 2900 538 
Q 2691 219 2414 64 
Q 2138 -91 1772 -91 
Q 1169 -91 856 284 
Q 544 659 544 1381 
z
M 1991 3584 
L 1991 3584 
z
" transform="scale(0.015625)"/>
      <path id="DejaVuSans-73" d="M 2834 3397 
L 2834 2853 
Q 2591 2978 2328 3040 
Q 2066 3103 1784 3103 
Q 1356 3103 1142 2972 
Q 928 2841 928 2578 
Q 928 2378 1081 2264 
Q 1234 2150 1697 2047 
L 1894 2003 
Q 2506 1872 2764 1633 
Q 3022 1394 3022 966 
Q 3022 478 2636 193 
Q 2250 -91 1575 -91 
Q 1294 -91 989 -36 
Q 684 19 347 128 
L 347 722 
Q 666 556 975 473 
Q 1284 391 1588 391 
Q 1994 391 2212 530 
Q 2431 669 2431 922 
Q 2431 1156 2273 1281 
Q 2116 1406 1581 1522 
L 1381 1569 
Q 847 1681 609 1914 
Q 372 2147 372 2553 
Q 372 3047 722 3315 
Q 1072 3584 1716 3584 
Q 2034 3584 2315 3537 
Q 2597 3491 2834 3397 
z
" transform="scale(0.015625)"/>
      <path id="DejaVuSans-65" d="M 3597 1894 
L 3597 1613 
L 953 1613 
Q 991 1019 1311 708 
Q 1631 397 2203 397 
Q 2534 397 2845 478 
Q 3156 559 3463 722 
L 3463 178 
Q 3153 47 2828 -22 
Q 2503 -91 2169 -91 
Q 1331 -91 842 396 
Q 353 884 353 1716 
Q 353 2575 817 3079 
Q 1281 3584 2069 3584 
Q 2775 3584 3186 3129 
Q 3597 2675 3597 1894 
z
M 3022 2063 
Q 3016 2534 2758 2815 
Q 2500 3097 2075 3097 
Q 1594 3097 1305 2825 
Q 1016 2553 972 2059 
L 3022 2063 
z
" transform="scale(0.015625)"/>
      <path id="DejaVuSans-64" d="M 2906 2969 
L 2906 4863 
L 3481 4863 
L 3481 0 
L 2906 0 
L 2906 525 
Q 2725 213 2448 61 
Q 2172 -91 1784 -91 
Q 1150 -91 751 415 
Q 353 922 353 1747 
Q 353 2572 751 3078 
Q 1150 3584 1784 3584 
Q 2172 3584 2448 3432 
Q 2725 3281 2906 2969 
z
M 947 1747 
Q 947 1113 1208 752 
Q 1469 391 1925 391 
Q 2381 391 2643 752 
Q 2906 1113 2906 1747 
Q 2906 2381 2643 2742 
Q 2381 3103 1925 3103 
Q 1469 3103 1208 2742 
Q 947 2381 947 1747 
z
" transform="scale(0.015625)"/>
     </defs>
     <use xlink:href="#DejaVuSans-4c"/>
     <use xlink:href="#DejaVuSans-69" transform="translate(55.712891 0)"/>
     <use xlink:href="#DejaVuSans-6e" transform="translate(83.496094 0)"/>
     <use xlink:href="#DejaVuSans-6b" transform="translate(146.875 0)"/>
     <use xlink:href="#DejaVuSans-2d" transform="translate(204.785156 0)"/>
     <use xlink:href="#DejaVuSans-66" transform="translate(240.869141 0)"/>
     <use xlink:href="#DejaVuSans-6f" transform="translate(276.074219 0)"/>
     <use xlink:href="#DejaVuSans-63" transform="translate(337.255859 0)"/>
     <use xlink:href="#DejaVuSans-75" transform="translate(392.236328 0)"/>
     <use xlink:href="#DejaVuSans-73" transform="translate(455.615234 0)"/>
     <use xlink:href="#DejaVuSans-65" transform="translate(507.714844 0)"/>
     <use xlink:href="#DejaVuSans-64" transform="translate(569.238281 0)"/>
    </g>
   </g>
   <g id="text_3">
    <!-- Transition (2011-2012) -->
    <g style="fill: #1f2937" transform="translate(179.81636 67.952819) scale(0.14 -0.14)">
     <defs>
      <path id="DejaVuSans-Bold-54" d="M 31 4666 
L 4331 4666 
L 4331 3756 
L 2784 3756 
L 2784 0 
L 1581 0 
L 1581 3756 
L 31 3756 
L 31 4666 
z
" transform="scale(0.015625)"/>
      <path id="DejaVuSans-Bold-6e" d="M 4056 2131 
L 4056 0 
L 2931 0 
L 2931 347 
L 2931 1631 
Q 2931 2084 2911 2256 
Q 2891 2428 2841 2509 
Q 2775 2619 2662 2680 
Q 2550 2741 2406 2741 
Q 2056 2741 1856 2470 
Q 1656 2200 1656 1722 
L 1656 0 
L 538 0 
L 538 3500 
L 1656 3500 
L 1656 2988 
Q 1909 3294 2193 3439 
Q 2478 3584 2822 3584 
Q 3428 3584 3742 3212 
Q 4056 2841 4056 2131 
z
" transform="scale(0.015625)"/>
      <path id="DejaVuSans-Bold-73" d="M 3272 3391 
L 3272 2541 
Q 2913 2691 2578 2766 
Q 2244 2841 1947 2841 
Q 1628 2841 1473 2761 
Q 1319 2681 1319 2516 
Q 1319 2381 1436 2309 
Q 1553 2238 1856 2203 
L 2053 2175 
Q 2913 2066 3209 1816 
Q 3506 1566 3506 1031 
Q 3506 472 3093 190 
Q 2681 -91 1863 -91 
Q 1516 -91 1145 -36 
Q 775 19 384 128 
L 384 978 
Q 719 816 1070 734 
Q 1422 653 1784 653 
Q 2113 653 2278 743 
Q 2444 834 2444 1013 
Q 2444 1163 2330 1236 
Q 2216 1309 1875 1350 
L 1678 1375 
Q 931 1469 631 1722 
Q 331 1975 331 2491 
Q 331 3047 712 3315 
Q 1094 3584 1881 3584 
Q 2191 3584 2531 3537 
Q 2872 3491 3272 3391 
z
" transform="scale(0.015625)"/>
      <path id="DejaVuSans-Bold-69" d="M 538 3500 
L 1656 3500 
L 1656 0 
L 538 0 
L 538 3500 
z
M 538 4863 
L 1656 4863 
L 1656 3950 
L 538 3950 
L 538 4863 
z
" transform="scale(0.015625)"/>
      <path id="DejaVuSans-Bold-74" d="M 1759 4494 
L 1759 3500 
L 2913 3500 
L 2913 2700 
L 1759 2700 
L 1759 1216 
Q 1759 972 1856 886 
Q 1953 800 2241 800 
L 2816 800 
L 2816 0 
L 1856 0 
Q 1194 0 917 276 
Q 641 553 641 1216 
L 641 2700 
L 84 2700 
L 84 3500 
L 641 3500 
L 641 4494 
L 1759 4494 
z
" transform="scale(0.015625)"/>
      <path id="DejaVuSans-Bold-6f" d="M 2203 2784 
Q 1831 2784 1636 2517 
Q 1441 2250 1441 1747 
Q 1441 1244 1636 976 
Q 1831 709 2203 709 
Q 2569 709 2762 976 
Q 2956 1244 2956 1747 
Q 2956 2250 2762 2517 
Q 2569 2784 2203 2784 
z
M 2203 3584 
Q 3106 3584 3614 3096 
Q 4122 2609 4122 1747 
Q 4122 884 3614 396 
Q 3106 -91 2203 -91 
Q 1297 -91 786 396 
Q 275 884 275 1747 
Q 275 2609 786 3096 
Q 1297 3584 2203 3584 
z
" transform="scale(0.015625)"/>
     </defs>
     <use xlink:href="#DejaVuSans-Bold-54"/>
     <use xlink:href="#DejaVuSans-Bold-72" transform="translate(57.212891 0)"/>
     <use xlink:href="#DejaVuSans-Bold-61" transform="translate(106.529297 0)"/>
     <use xlink:href="#DejaVuSans-Bold-6e" transform="translate(174.009766 0)"/>
     <use xlink:href="#DejaVuSans-Bold-73" transform="translate(245.201172 0)"/>
     <use xlink:href="#DejaVuSans-Bold-69" transform="translate(304.722656 0)"/>
     <use xlink:href="#DejaVuSans-Bold-74" transform="translate(339 0)"/>
     <use xlink:href="#DejaVuSans-Bold-69" transform="translate(386.802734 0)"/>
     <use xlink:href="#DejaVuSans-Bold-6f" transform="translate(421.080078 0)"/>
     <use xlink:href="#DejaVuSans-Bold-6e" transform="translate(489.78125 0)"/>
     <use xlink:href="#DejaVuSans-Bold-20" transform="translate(560.972656 0)"/>
     <use xlink:href="#DejaVuSans-Bold-28" transform="translate(595.787109 0)"/>
     <use xlink:href="#DejaVuSans-Bold-32" transform="translate(641.490234 0)"/>
     <use xlink:href="#DejaVuSans-Bold-30" transform="translate(711.070312 0)"/>
     <use xlink:href="#DejaVuSans-Bold-31" transform="translate(780.650391 0)"/>
     <use xlink:href="#DejaVuSans-Bold-31" transform="translate(850.230469 0)"/>
     <use xlink:href="#DejaVuSans-Bold-2d" transform="translate(919.810547 0)"/>
     <use xlink:href="#DejaVuSans-Bold-32" transform="translate(961.314453 0)"/>
     <use xlink:href="#DejaVuSans-Bold-30" transform="translate(1030.894531 0)"/>
     <use xlink:href="#DejaVuSans-Bold-31" transform="translate(1100.474609 0)"/>
     <use xlink:href="#DejaVuSans-Bold-32" transform="translate(1170.054688 0)"/>
     <use xlink:href="#DejaVuSans-Bold-29" transform="translate(1239.634766 0)"/>
    </g>
   </g>
   <g id="text_4">
    <!-- Algorithm Updates -->
    <g style="fill: #1f2937" transform="translate(213.64136 207.822629) scale(0.12 -0.12)">
     <defs>
      <path id="DejaVuSans-41" d="M 2188 4044 
L 1331 1722 
L 3047 1722 
L 2188 4044 
z
M 1831 4666 
L 2547 4666 
L 4325 0 
L 3669 0 
L 3244 1197 
L 1141 1197 
L 716 0 
L 50 0 
L 1831 4666 
z
" transform="scale(0.015625)"/>
      <path id="DejaVuSans-6c" d="M 603 4863 
L 1178 4863 
L 1178 0 
L 603 0 
L 603 4863 
z
" transform="scale(0.015625)"/>
      <path id="DejaVuSans-67" d="M 2906 1791 
Q 2906 2416 2648 2759 
Q 2391 3103 1925 3103 
Q 1463 3103 1205 2759 
Q 947 2416 947 1791 
Q 947 1169 1205 825 
Q 1463 481 1925 481 
Q 2391 481 2648 825 
Q 2906 1169 2906 1791 
z
M 3481 434 
Q 3481 -459 3084 -895 
Q 2688 -1331 1869 -1331 
Q 1566 -1331 1297 -1286 
Q 1028 -1241 775 -1147 
L 775 -588 
Q 1028 -725 1275 -790 
Q 1522 -856 1778 -856 
Q 2344 -856 2625 -561 
Q 2906 -266 2906 331 
L 2906 616 
Q 2728 306 2450 153 
Q 2172 0 1784 0 
Q 1141 0 747 490 
Q 353 981 353 1791 
Q 353 2603 747 3093 
Q 1141 3584 1784 3584 
Q 2172 3584 2450 3431 
Q 2728 3278 2906 2969 
L 2906 3500 
L 3481 3500 
L 3481 434 
z
" transform="scale(0.015625)"/>
      <path id="DejaVuSans-72" d="M 2631 2963 
Q 2534 3019 2420 3045 
Q 2306 3072 2169 3072 
Q 1681 3072 1420 2755 
Q 1159 2438 1159 1844 
L 1159 0 
L 581 0 
L 581 3500 
L 1159 3500 
L 1159 2956 
Q 1341 3275 1631 3429 
Q 1922 3584 2338 3584 
Q 2397 3584 2469 3576 
Q 2541 3569 2628 3553 
L 2631 2963 
z
" transform="scale(0.015625)"/>
      <path id="DejaVuSans-74" d="M 1172 4494 
L 1172 3500 
L 2356 3500 
L 2356 3053 
L 1172 3053 
L 1172 1153 
Q 1172 725 1289 603 
Q 1406 481 1766 481 
L 2356 481 
L 2356 0 
L 1766 0 
Q 1100 0 847 248 
Q 594 497 594 1153 
L 594 3053 
L 172 3053 
L 172 3500 
L 594 3500 
L 594 4494 
L 1172 4494 
z
" transform="scale(0.015625)"/>
      <path id="DejaVuSans-68" d="M 3513 2113 
L 3513 0 
L 2938 0 
L 2938 2094 
Q 2938 2591 2744 2837 
Q 2550 3084 2163 3084 
Q 1697 3084 1428 2787 
Q 1159 2491 1159 1978 
L 1159 0 
L 581 0 
L 581 4863 
L 1159 4863 
L 1159 2956 
Q 1366 3272 1645 3428 
Q 1925 3584 2291 3584 
Q 2894 3584 3203 3211 
Q 3513 2838 3513 2113 
z
" transform="scale(0.015625)"/>
      <path id="DejaVuSans-6d" d="M 3328 2828 
Q 3544 3216 3844 3400 
Q 4144 3584 4550 3584 
Q 5097 3584 5394 3201 
Q 5691 2819 5691 2113 
L 5691 0 
L 5113 0 
L 5113 2094 
Q 5113 2597 4934 2840 
Q 4756 3084 4391 3084 
Q 3944 3084 3684 2787 
Q 3425 2491 3425 1978 
L 3425 0 
L 2847 0 
L 2847 2094 
Q 2847 2600 2669 2842 
Q 2491 3084 2119 3084 
Q 1678 3084 1418 2786 
Q 1159 2488 1159 1978 
L 1159 0 
L 581 0 
L 581 3500 
L 1159 3500 
L 1159 2956 
Q 1356 3278 1631 3431 
Q 1906 3584 2284 3584 
Q 2666 3584 2933 3390 
Q 3200 3197 3328 2828 
z
" transform="scale(0.015625)"/>
      <path id="DejaVuSans-20" transform="scale(0.015625)"/>
      <path id="DejaVuSans-55" d="M 556 4666 
L 1191 4666 
L 1191 1831 
Q 1191 1081 1462 751 
Q 1734 422 2344 422 
Q 2950 422 3222 751 
Q 3494 1081 3494 1831 
L 3494 4666 
L 4128 4666 
L 4128 1753 
Q 4128 841 3676 375 
Q 3225 -91 2344 -91 
Q 1459 -91 1007 375 
Q 556 841 556 1753 
L 556 4666 
z
" transform="scale(0.015625)"/>
      <path id="DejaVuSans-70" d="M 1159 525 
L 1159 -1331 
L 581 -1331 
L 581 3500 
L 1159 3500 
L 1159 2969 
Q 1341 3281 1617 3432 
Q 1894 3584 2278 3584 
Q 2916 3584 3314 3078 
Q 3713 2572 3713 1747 
Q 3713 922 3314 415 
Q 2916 -91 2278 -91 
Q 1894 -91 1617 61 
Q 1341 213 1159 525 
z
M 3116 1747 
Q 3116 2381 2855 2742 
Q 2594 3103 2138 3103 
Q 1681 3103 1420 2742 
Q 1159 2381 1159 1747 
Q 1159 1113 1420 752 
Q 1681 391 2138 391 
Q 2594 391 2855 752 
Q 3116 1113 3116 1747 
z
" transform="scale(0.015625)"/>
      <path id="DejaVuSans-61" d="M 2194 1759 
Q 1497 1759 1228 1600 
Q 959 1441 959 1056 
Q 959 750 1161 570 
Q 1363 391 1709 391 
Q 2188 391 2477 730 
Q 2766 1069 2766 1631 
L 2766 1759 
L 2194 1759 
z
M 3341 1997 
L 3341 0 
L 2766 0 
L 2766 531 
Q 2569 213 2275 61 
Q 1981 -91 1556 -91 
Q 1019 -91 701 211 
Q 384 513 384 1019 
Q 384 1609 779 1909 
Q 1175 2209 1959 2209 
L 2766 2209 
L 2766 2266 
Q 2766 2663 2505 2880 
Q 2244 3097 1772 3097 
Q 1472 3097 1187 3025 
Q 903 2953 641 2809 
L 641 3341 
Q 956 3463 1253 3523 
Q 1550 3584 1831 3584 
Q 2591 3584 2966 3190 
Q 3341 2797 3341 1997 
z
" transform="scale(0.015625)"/>
     </defs>
     <use xlink:href="#DejaVuSans-41"/>
     <use xlink:href="#DejaVuSans-6c" transform="translate(68.408203 0)"/>
     <use xlink:href="#DejaVuSans-67" transform="translate(96.191406 0)"/>
     <use xlink:href="#DejaVuSans-6f" transform="translate(159.667969 0)"/>
     <use xlink:href="#DejaVuSans-72" transform="translate(220.849609 0)"/>
     <use xlink:href="#DejaVuSans-69" transform="translate(261.962891 0)"/>
     <use xlink:href="#DejaVuSans-74" transform="translate(289.746094 0)"/>
     <use xlink:href="#DejaVuSans-68" transform="translate(328.955078 0)"/>
     <use xlink:href="#DejaVuSans-6d" transform="translate(392.333984 0)"/>
     <use xlink:href="#DejaVuSans-20" transform="translate(489.746094 0)"/>
     <use xlink:href="#DejaVuSans-55" transform="translate(521.533203 0)"/>
     <use xlink:href="#DejaVuSans-70" transform="translate(594.726562 0)"/>
     <use xlink:href="#DejaVuSans-64" transform="translate(658.203125 0)"/>
     <use xlink:href="#DejaVuSans-61" transform="translate(721.679688 0)"/>
     <use xlink:href="#DejaVuSans-74" transform="translate(782.958984 0)"/>
     <use xlink:href="#DejaVuSans-65" transform="translate(822.167969 0)"/>
     <use xlink:href="#DejaVuSans-73" transform="translate(883.691406 0)"/>
    </g>
   </g>
   <g id="text_5">
    <!-- Modern (2013-present) -->
    <g style="fill: #1f2937" transform="translate(301.232252 67.952819) scale(0.14 -0.14)">
     <defs>
      <path id="DejaVuSans-Bold-4d" d="M 588 4666 
L 2119 4666 
L 3181 2169 
L 4250 4666 
L 5778 4666 
L 5778 0 
L 4641 0 
L 4641 3413 
L 3566 897 
L 2803 897 
L 1728 3413 
L 1728 0 
L 588 0 
L 588 4666 
z
" transform="scale(0.015625)"/>
      <path id="DejaVuSans-Bold-64" d="M 2919 2988 
L 2919 4863 
L 4044 4863 
L 4044 0 
L 2919 0 
L 2919 506 
Q 2688 197 2409 53 
Q 2131 -91 1766 -91 
Q 1119 -91 703 423 
Q 288 938 288 1747 
Q 288 2556 703 3070 
Q 1119 3584 1766 3584 
Q 2128 3584 2408 3439 
Q 2688 3294 2919 2988 
z
M 2181 722 
Q 2541 722 2730 984 
Q 2919 1247 2919 1747 
Q 2919 2247 2730 2509 
Q 2541 2772 2181 2772 
Q 1825 2772 1636 2509 
Q 1447 2247 1447 1747 
Q 1447 1247 1636 984 
Q 1825 722 2181 722 
z
" transform="scale(0.015625)"/>
      <path id="DejaVuSans-Bold-65" d="M 4031 1759 
L 4031 1441 
L 1416 1441 
Q 1456 1047 1700 850 
Q 1944 653 2381 653 
Q 2734 653 3104 758 
Q 3475 863 3866 1075 
L 3866 213 
Q 3469 63 3072 -14 
Q 2675 -91 2278 -91 
Q 1328 -91 801 392 
Q 275 875 275 1747 
Q 275 2603 792 3093 
Q 1309 3584 2216 3584 
Q 3041 3584 3536 3087 
Q 4031 2591 4031 1759 
z
M 2881 2131 
Q 2881 2450 2695 2645 
Q 2509 2841 2209 2841 
Q 1884 2841 1681 2658 
Q 1478 2475 1428 2131 
L 2881 2131 
z
" transform="scale(0.015625)"/>
      <path id="DejaVuSans-Bold-33" d="M 2981 2516 
Q 3453 2394 3698 2092 
Q 3944 1791 3944 1325 
Q 3944 631 3412 270 
Q 2881 -91 1863 -91 
Q 1503 -91 1142 -33 
Q 781 25 428 141 
L 428 1069 
Q 766 900 1098 814 
Q 1431 728 1753 728 
Q 2231 728 2486 893 
Q 2741 1059 2741 1369 
Q 2741 1688 2480 1852 
Q 2219 2016 1709 2016 
L 1228 2016 
L 1228 2791 
L 1734 2791 
Q 2188 2791 2409 2933 
Q 2631 3075 2631 3366 
Q 2631 3634 2415 3781 
Q 2200 3928 1806 3928 
Q 1516 3928 1219 3862 
Q 922 3797 628 3669 
L 628 4550 
Q 984 4650 1334 4700 
Q 1684 4750 2022 4750 
Q 2931 4750 3382 4451 
Q 3834 4153 3834 3553 
Q 3834 3144 3618 2883 
Q 3403 2622 2981 2516 
z
" transform="scale(0.015625)"/>
      <path id="DejaVuSans-Bold-70" d="M 1656 506 
L 1656 -1331 
L 538 -1331 
L 538 3500 
L 1656 3500 
L 1656 2988 
Q 1888 3294 2169 3439 
Q 2450 3584 2816 3584 
Q 3463 3584 3878 3070 
Q 4294 2556 4294 1747 
Q 4294 938 3878 423 
Q 3463 -91 2816 -91 
Q 2450 -91 2169 54 
Q 1888 200 1656 506 
z
M 2400 2772 
Q 2041 2772 1848 2508 
Q 1656 2244 1656 1747 
Q 1656 1250 1848 986 
Q 2041 722 2400 722 
Q 2759 722 2948 984 
Q 3138 1247 3138 1747 
Q 3138 2247 2948 2509 
Q 2759 2772 2400 2772 
z
" transform="scale(0.015625)"/>
     </defs>
     <use xlink:href="#DejaVuSans-Bold-4d"/>
     <use xlink:href="#DejaVuSans-Bold-6f" transform="translate(99.511719 0)"/>
     <use xlink:href="#DejaVuSans-Bold-64" transform="translate(168.212891 0)"/>
     <use xlink:href="#DejaVuSans-Bold-65" transform="translate(239.794922 0)"/>
     <use xlink:href="#DejaVuSans-Bold-72" transform="translate(307.617188 0)"/>
     <use xlink:href="#DejaVuSans-Bold-6e" transform="translate(356.933594 0)"/>
     <use xlink:href="#DejaVuSans-Bold-20" transform="translate(428.125 0)"/>
     <use xlink:href="#DejaVuSans-Bold-28" transform="translate(462.939453 0)"/>
     <use xlink:href="#DejaVuSans-Bold-32" transform="translate(508.642578 0)"/>
     <use xlink:href="#DejaVuSans-Bold-30" transform="translate(578.222656 0)"/>
     <use xlink:href="#DejaVuSans-Bold-31" transform="translate(647.802734 0)"/>
     <use xlink:href="#DejaVuSans-Bold-33" transform="translate(717.382812 0)"/>
     <use xlink:href="#DejaVuSans-Bold-2d" transform="translate(786.962891 0)"/>
     <use xlink:href="#DejaVuSans-Bold-70" transform="translate(828.466797 0)"/>
     <use xlink:href="#DejaVuSans-Bold-72" transform="translate(900.048828 0)"/>
     <use xlink:href="#DejaVuSans-Bold-65" transform="translate(949.365234 0)"/>
     <use xlink:href="#DejaVuSans-Bold-73" transform="translate(1017.1875 0)"/>
     <use xlink:href="#DejaVuSans-Bold-65" transform="translate(1076.708984 0)"/>
     <use xlink:href="#DejaVuSans-Bold-6e" transform="translate(1144.53125 0)"/>
     <use xlink:href="#DejaVuSans-Bold-74" transform="translate(1215.722656 0)"/>
     <use xlink:href="#DejaVuSans-Bold-29" transform="translate(1263.525391 0)"/>
    </g>
   </g>
   <g id="text_6">
    <!-- Intent &amp; Entity-focused -->
    <g style="fill: #1f2937" transform="translate(323.524908 207.822629) scale(0.12 -0.12)">
     <defs>
      <path id="DejaVuSans-49" d="M 628 4666 
L 1259 4666 
L 1259 0 
L 628 0 
L 628 4666 
z
" transform="scale(0.015625)"/>
      <path id="DejaVuSans-26" d="M 1556 2509 
Q 1272 2256 1139 2004 
Q 1006 1753 1006 1478 
Q 1006 1022 1337 719 
Q 1669 416 2169 416 
Q 2466 416 2725 514 
Q 2984 613 3213 813 
L 1556 2509 
z
M 1997 2859 
L 3584 1234 
Q 3769 1513 3872 1830 
Q 3975 2147 3994 2503 
L 4575 2503 
Q 4538 2091 4375 1687 
Q 4213 1284 3922 891 
L 4794 0 
L 4006 0 
L 3559 459 
Q 3234 181 2878 45 
Q 2522 -91 2113 -91 
Q 1359 -91 881 339 
Q 403 769 403 1441 
Q 403 1841 612 2192 
Q 822 2544 1241 2853 
Q 1091 3050 1012 3245 
Q 934 3441 934 3628 
Q 934 4134 1281 4442 
Q 1628 4750 2203 4750 
Q 2463 4750 2720 4694 
Q 2978 4638 3244 4525 
L 3244 3956 
Q 2972 4103 2725 4179 
Q 2478 4256 2266 4256 
Q 1938 4256 1733 4082 
Q 1528 3909 1528 3634 
Q 1528 3475 1620 3314 
Q 1713 3153 1997 2859 
z
" transform="scale(0.015625)"/>
      <path id="DejaVuSans-45" d="M 628 4666 
L 3578 4666 
L 3578 4134 
L 1259 4134 
L 1259 2753 
L 3481 2753 
L 3481 2222 
L 1259 2222 
L 1259 531 
L 3634 531 
L 3634 0 
L 628 0 
L 628 4666 
z
" transform="scale(0.015625)"/>
      <path id="DejaVuSans-79" d="M 2059 -325 
Q 1816 -950 1584 -1140 
Q 1353 -1331 966 -1331 
L 506 -1331 
L 506 -850 
L 844 -850 
Q 1081 -850 1212 -737 
Q 1344 -625 1503 -206 
L 1606 56 
L 191 3500 
L 800 3500 
L 1894 763 
L 2988 3500 
L 3597 3500 
L 2059 -325 
z
" transform="scale(0.015625)"/>
     </defs>
     <use xlink:href="#DejaVuSans-49"/>
     <use xlink:href="#DejaVuSans-6e" transform="translate(29.492188 0)"/>
     <use xlink:href="#DejaVuSans-74" transform="translate(92.871094 0)"/>
     <use xlink:href="#DejaVuSans-65" transform="translate(132.080078 0)"/>
     <use xlink:href="#DejaVuSans-6e" transform="translate(193.603516 0)"/>
     <use xlink:href="#DejaVuSans-74" transform="translate(256.982422 0)"/>
     <use xlink:href="#DejaVuSans-20" transform="translate(296.191406 0)"/>
     <use xlink:href="#DejaVuSans-26" transform="translate(327.978516 0)"/>
     <use xlink:href="#DejaVuSans-20" transform="translate(405.957031 0)"/>
     <use xlink:href="#DejaVuSans-45" transform="translate(437.744141 0)"/>
     <use xlink:href="#DejaVuSans-6e" transform="translate(500.927734 0)"/>
     <use xlink:href="#DejaVuSans-74" transform="translate(564.306641 0)"/>
     <use xlink:href="#DejaVuSans-69" transform="translate(603.515625 0)"/>
     <use xlink:href="#DejaVuSans-74" transform="translate(631.298828 0)"/>
     <use xlink:href="#DejaVuSans-79" transform="translate(670.507812 0)"/>
     <use xlink:href="#DejaVuSans-2d" transform="translate(727.9375 0)"/>
     <use xlink:href="#DejaVuSans-66" transform="translate(764.021484 0)"/>
     <use xlink:href="#DejaVuSans-6f" transform="translate(799.226562 0)"/>
     <use xlink:href="#DejaVuSans-63" transform="translate(860.408203 0)"/>
     <use xlink:href="#DejaVuSans-75" transform="translate(915.388672 0)"/>
     <use xlink:href="#DejaVuSans-73" transform="translate(978.767578 0)"/>
     <use xlink:href="#DejaVuSans-65" transform="translate(1030.867188 0)"/>
     <use xlink:href="#DejaVuSans-64" transform="translate(1092.390625 0)"/>
    </g>
   </g>
   <g id="line2d_2">
    <path d="M 267.052941 134.784443 
" clip-path="url(#pc2a81f6285)" style="fill: none; stroke: #1f2937; stroke-width: 1.5; stroke-linecap: square"/>
    <defs>
     <path id="mafc968a716" d="M 0 4 
C 1.060812 4 2.078319 3.578535 2.828427 2.828427 
C 3.578535 2.078319 4 1.060812 4 0 
C 4 -1.060812 3.578535 -2.078319 2.828427 -2.828427 
C 2.078319 -3.578535 1.060812 -4 0 -4 
C -1.060812 -4 -2.078319 -3.578535 -2.828427 -2.828427 
C -3.578535 -2.078319 -4 -1.060812 -4 0 
C -4 1.060812 -3.578535 2.078319 -2.828427 2.828427 
C -2.078319 3.578535 -1.060812 4 0 4 
z
" style="stroke: #1f2937"/>
    </defs>
    <g clip-path="url(#pc2a81f6285)">
     <use xlink:href="#mafc968a716" x="267.052941" y="134.784443" style="fill: #1f2937; stroke: #1f2937"/>
    </g>
   </g>
   <g id="text_7">
    <!-- Panda 2011 -->
    <g style="fill: #1f2937" transform="translate(237.477941 287.35358) scale(0.1 -0.1)">
     <defs>
      <path id="DejaVuSans-50" d="M 1259 4147 
L 1259 2394 
L 2053 2394 
Q 2494 2394 2734 2622 
Q 2975 2850 2975 3272 
Q 2975 3691 2734 3919 
Q 2494 4147 2053 4147 
L 1259 4147 
z
M 628 4666 
L 2053 4666 
Q 2838 4666 3239 4311 
Q 3641 3956 3641 3272 
Q 3641 2581 3239 2228 
Q 2838 1875 2053 1875 
L 1259 1875 
L 1259 0 
L 628 0 
L 628 4666 
z
" transform="scale(0.015625)"/>
      <path id="DejaVuSans-32" d="M 1228 531 
L 3431 531 
L 3431 0 
L 469 0 
L 469 531 
Q 828 903 1448 1529 
Q 2069 2156 2228 2338 
Q 2531 2678 2651 2914 
Q 2772 3150 2772 3378 
Q 2772 3750 2511 3984 
Q 2250 4219 1831 4219 
Q 1534 4219 1204 4116 
Q 875 4013 500 3803 
L 500 4441 
Q 881 4594 1212 4672 
Q 1544 4750 1819 4750 
Q 2544 4750 2975 4387 
Q 3406 4025 3406 3419 
Q 3406 3131 3298 2873 
Q 3191 2616 2906 2266 
Q 2828 2175 2409 1742 
Q 1991 1309 1228 531 
z
" transform="scale(0.015625)"/>
      <path id="DejaVuSans-30" d="M 2034 4250 
Q 1547 4250 1301 3770 
Q 1056 3291 1056 2328 
Q 1056 1369 1301 889 
Q 1547 409 2034 409 
Q 2525 409 2770 889 
Q 3016 1369 3016 2328 
Q 3016 3291 2770 3770 
Q 2525 4250 2034 4250 
z
M 2034 4750 
Q 2819 4750 3233 4129 
Q 3647 3509 3647 2328 
Q 3647 1150 3233 529 
Q 2819 -91 2034 -91 
Q 1250 -91 836 529 
Q 422 1150 422 2328 
Q 422 3509 836 4129 
Q 1250 4750 2034 4750 
z
" transform="scale(0.015625)"/>
      <path id="DejaVuSans-31" d="M 794 531 
L 1825 531 
L 1825 4091 
L 703 3866 
L 703 4441 
L 1819 4666 
L 2450 4666 
L 2450 531 
L 3481 531 
L 3481 0 
L 794 0 
L 794 531 
z
" transform="scale(0.015625)"/>
     </defs>
     <use xlink:href="#DejaVuSans-50"/>
     <use xlink:href="#DejaVuSans-61" transform="translate(55.802734 0)"/>
     <use xlink:href="#DejaVuSans-6e" transform="translate(117.082031 0)"/>
     <use xlink:href="#DejaVuSans-64" transform="translate(180.460938 0)"/>
     <use xlink:href="#DejaVuSans-61" transform="translate(243.9375 0)"/>
     <use xlink:href="#DejaVuSans-20" transform="translate(305.216797 0)"/>
     <use xlink:href="#DejaVuSans-32" transform="translate(337.003906 0)"/>
     <use xlink:href="#DejaVuSans-30" transform="translate(400.626953 0)"/>
     <use xlink:href="#DejaVuSans-31" transform="translate(464.25 0)"/>
     <use xlink:href="#DejaVuSans-31" transform="translate(527.873047 0)"/>
    </g>
   </g>
   <g id="line2d_3">
    <path d="M 272.523529 134.784443 
" clip-path="url(#pc2a81f6285)" style="fill: none; stroke: #1f2937; stroke-width: 1.5; stroke-linecap: square"/>
    <g clip-path="url(#pc2a81f6285)">
     <use xlink:href="#mafc968a716" x="272.523529" y="134.784443" style="fill: #1f2937; stroke: #1f2937"/>
    </g>
   </g>
   <g id="text_8">
    <!-- Penguin 2012 -->
    <g style="fill: #1f2937" transform="translate(238.229779 287.35358) scale(0.1 -0.1)">
     <use xlink:href="#DejaVuSans-50"/>
     <use xlink:href="#DejaVuSans-65" transform="translate(56.677734 0)"/>
     <use xlink:href="#DejaVuSans-6e" transform="translate(118.201172 0)"/>
     <use xlink:href="#DejaVuSans-67" transform="translate(181.580078 0)"/>
     <use xlink:href="#DejaVuSans-75" transform="translate(245.056641 0)"/>
     <use xlink:href="#DejaVuSans-69" transform="translate(308.435547 0)"/>
     <use xlink:href="#DejaVuSans-6e" transform="translate(336.21875 0)"/>
     <use xlink:href="#DejaVuSans-20" transform="translate(399.597656 0)"/>
     <use xlink:href="#DejaVuSans-32" transform="translate(431.384766 0)"/>
     <use xlink:href="#DejaVuSans-30" transform="translate(495.007812 0)"/>
     <use xlink:href="#DejaVuSans-31" transform="translate(558.630859 0)"/>
     <use xlink:href="#DejaVuSans-32" transform="translate(622.253906 0)"/>
    </g>
   </g>
   <g id="line2d_4">
    <path d="M 360.052941 134.784443 
" clip-path="url(#pc2a81f6285)" style="fill: none; stroke: #1f2937; stroke-width: 1.5; stroke-linecap: square"/>
    <g clip-path="url(#pc2a81f6285)">
     <use xlink:href="#mafc968a716" x="360.052941" y="134.784443" style="fill: #1f2937; stroke: #1f2937"/>
    </g>
   </g>
   <g id="text_9">
    <!-- Intent Understanding -->
    <g style="fill: #1f2937" transform="translate(306.816222 287.35358) scale(0.1 -0.1)">
     <use xlink:href="#DejaVuSans-49"/>
     <use xlink:href="#DejaVuSans-6e" transform="translate(29.492188 0)"/>
     <use xlink:href="#DejaVuSans-74" transform="translate(92.871094 0)"/>
     <use xlink:href="#DejaVuSans-65" transform="translate(132.080078 0)"/>
     <use xlink:href="#DejaVuSans-6e" transform="translate(193.603516 0)"/>
     <use xlink:href="#DejaVuSans-74" transform="translate(256.982422 0)"/>
     <use xlink:href="#DejaVuSans-20" transform="translate(296.191406 0)"/>
     <use xlink:href="#DejaVuSans-55" transform="translate(327.978516 0)"/>
     <use xlink:href="#DejaVuSans-6e" transform="translate(401.171875 0)"/>
     <use xlink:href="#DejaVuSans-64" transform="translate(464.550781 0)"/>
     <use xlink:href="#DejaVuSans-65" transform="translate(528.027344 0)"/>
     <use xlink:href="#DejaVuSans-72" transform="translate(589.550781 0)"/>
     <use xlink:href="#DejaVuSans-73" transform="translate(630.664062 0)"/>
     <use xlink:href="#DejaVuSans-74" transform="translate(682.763672 0)"/>
     <use xlink:href="#DejaVuSans-61" transform="translate(721.972656 0)"/>
     <use xlink:href="#DejaVuSans-6e" transform="translate(783.251953 0)"/>
     <use xlink:href="#DejaVuSans-64" transform="translate(846.630859 0)"/>
     <use xlink:href="#DejaVuSans-69" transform="translate(910.107422 0)"/>
     <use xlink:href="#DejaVuSans-6e" transform="translate(937.890625 0)"/>
     <use xlink:href="#DejaVuSans-67" transform="translate(1001.269531 0)"/>
    </g>
   </g>
   <g id="line2d_5">
    <path d="M 425.7 134.784443 
" clip-path="url(#pc2a81f6285)" style="fill: none; stroke: #1f2937; stroke-width: 1.5; stroke-linecap: square"/>
    <g clip-path="url(#pc2a81f6285)">
     <use xlink:href="#mafc968a716" x="425.7" y="134.784443" style="fill: #1f2937; stroke: #1f2937"/>
    </g>
   </g>
   <g id="text_10">
    <!-- Entity Understanding -->
    <g style="fill: #1f2937" transform="translate(372.675781 287.35358) scale(0.1 -0.1)">
     <use xlink:href="#DejaVuSans-45"/>
     <use xlink:href="#DejaVuSans-6e" transform="translate(63.183594 0)"/>
     <use xlink:href="#DejaVuSans-74" transform="translate(126.5625 0)"/>
     <use xlink:href="#DejaVuSans-69" transform="translate(165.771484 0)"/>
     <use xlink:href="#DejaVuSans-74" transform="translate(193.554688 0)"/>
     <use xlink:href="#DejaVuSans-79" transform="translate(232.763672 0)"/>
     <use xlink:href="#DejaVuSans-20" transform="translate(291.943359 0)"/>
     <use xlink:href="#DejaVuSans-55" transform="translate(323.730469 0)"/>
     <use xlink:href="#DejaVuSans-6e" transform="translate(396.923828 0)"/>
     <use xlink:href="#DejaVuSans-64" transform="translate(460.302734 0)"/>
     <use xlink:href="#DejaVuSans-65" transform="translate(523.779297 0)"/>
     <use xlink:href="#DejaVuSans-72" transform="translate(585.302734 0)"/>
     <use xlink:href="#DejaVuSans-73" transform="translate(626.416016 0)"/>
     <use xlink:href="#DejaVuSans-74" transform="translate(678.515625 0)"/>
     <use xlink:href="#DejaVuSans-61" transform="translate(717.724609 0)"/>
     <use xlink:href="#DejaVuSans-6e" transform="translate(779.003906 0)"/>
     <use xlink:href="#DejaVuSans-64" transform="translate(842.382812 0)"/>
     <use xlink:href="#DejaVuSans-69" transform="translate(905.859375 0)"/>
     <use xlink:href="#DejaVuSans-6e" transform="translate(933.642578 0)"/>
     <use xlink:href="#DejaVuSans-67" transform="translate(997.021484 0)"/>
    </g>
   </g>
  </g>
 </g>
 <defs>
  <clipPath id="pc2a81f6285">
   <rect x="7.2" y="7.2" width="558" height="332.64"/>
  </clipPath>
 </defs>
</svg>
