<?xml version="1.0" encoding="utf-8" standalone="no"?>
<!DOCTYPE svg PUBLIC "-//W3C//DTD SVG 1.1//EN"
  "http://www.w3.org/Graphics/SVG/1.1/DTD/svg11.dtd">
<svg xmlns:xlink="http://www.w3.org/1999/xlink" width="572.4pt" height="679.68pt" viewBox="0 0 572.4 679.68" xmlns="http://www.w3.org/2000/svg" version="1.1">
 <metadata>
  <rdf:RDF xmlns:dc="http://purl.org/dc/elements/1.1/" xmlns:cc="http://creativecommons.org/ns#" xmlns:rdf="http://www.w3.org/1999/02/22-rdf-syntax-ns#">
   <cc:Work>
    <dc:type rdf:resource="http://purl.org/dc/dcmitype/StillImage"/>
    <dc:date>2025-12-26T21:31:27.185022</dc:date>
    <dc:format>image/svg+xml</dc:format>
    <dc:creator>
     <cc:Agent>
      <dc:title>Matplotlib v3.10.8, https://matplotlib.org/</dc:title>
     </cc:Agent>
    </dc:creator>
   </cc:Work>
  </rdf:RDF>
 </metadata>
 <defs>
  <style type="text/css">*{stroke-linejoin: round; stroke-linecap: butt}</style>
 </defs>
 <g id="figure_1">
  <g id="patch_1">
   <path d="M 0 679.68 
L 572.4 679.68 
L 572.4 0 
L 0 0 
z
" style="fill: #f8f9fa"/>
  </g>
  <g id="axes_1">
   <g id="patch_2">
    <path d="M 53.7 155.04 
L 518.7 155.04 
Q 524.5125 155.04 524.5125 148 
L 524.5125 98.72 
Q 524.5125 91.68 518.7 91.68 
L 53.7 91.68 
Q 47.8875 91.68 47.8875 98.72 
L 47.8875 148 
Q 47.8875 155.04 53.7 155.04 
z
" clip-path="url(#p062b922aef)" style="fill: #2563eb; opacity: 0.15; stroke: #2563eb; stroke-width: 1.5; stroke-linejoin: miter"/>
   </g>
   <g id="patch_3">
    <path d="M 53.7 221.92 
L 518.7 221.92 
Q 524.5125 221.92 524.5125 214.88 
L 524.5125 165.6 
Q 524.5125 158.56 518.7 158.56 
L 53.7 158.56 
Q 47.8875 158.56 47.8875 165.6 
L 47.8875 214.88 
Q 47.8875 221.92 53.7 221.92 
z
" clip-path="url(#p062b922aef)" style="fill: #8b5cf6; opacity: 0.15; stroke: #8b5cf6; stroke-width: 1.5; stroke-linejoin: miter"/>
   </g>
   <g id="patch_4">
    <path d="M 53.7 288.8 
L 518.7 288.8 
Q 524.5125 288.8 524.5125 281.76 
L 524.5125 232.48 
Q 524.5125 225.44 518.7 225.44 
L 53.7 225.44 
Q 47.8875 225.44 47.8875 232.48 
L 47.8875 281.76 
Q 47.8875 288.8 53.7 288.8 
z
" clip-path="url(#p062b922aef)" style="fill: #10b981; opacity: 0.15; stroke: #10b981; stroke-width: 1.5; stroke-linejoin: miter"/>
   </g>
   <g id="patch_5">
    <path d="M 53.7 355.68 
L 518.7 355.68 
Q 524.5125 355.68 524.5125 348.64 
L 524.5125 299.36 
Q 524.5125 292.32 518.7 292.32 
L 53.7 292.32 
Q 47.8875 292.32 47.8875 299.36 
L 47.8875 348.64 
Q 47.8875 355.68 53.7 355.68 
z
" clip-path="url(#p062b922aef)" style="fill: #f59e0b; opacity: 0.15; stroke: #f59e0b; stroke-width: 1.5; stroke-linejoin: miter"/>
   </g>
   <g id="patch_6">
    <path d="M 53.7 422.56 
L 518.7 422.56 
Q 524.5125 422.56 524.5125 415.52 
L 524.5125 366.24 
Q 524.5125 359.2 518.7 359.2 
L 53.7 359.2 
Q 47.8875 359.2 47.8875 366.24 
L 47.8875 415.52 
Q 47.8875 422.56 53.7 422.56 
z
" clip-path="url(#p062b922aef)" style="fill: #14b8a6; opacity: 0.15; stroke: #14b8a6; stroke-width: 1.5; stroke-linejoin: miter"/>
   </g>
   <g id="patch_7">
    <path d="M 53.7 489.44 
L 518.7 489.44 
Q 524.5125 489.44 524.5125 482.4 
L 524.5125 433.12 
Q 524.5125 426.08 518.7 426.08 
L 53.7 426.08 
Q 47.8875 426.08 47.8875 433.12 
L 47.8875 482.4 
Q 47.8875 489.44 53.7 489.44 
z
" clip-path="url(#p062b922aef)" style="fill: #06b6d4; opacity: 0.15; stroke: #06b6d4; stroke-width: 1.5; stroke-linejoin: miter"/>
   </g>
   <g id="patch_8">
    <path d="M 53.7 556.32 
L 518.7 556.32 
Q 524.5125 556.32 524.5125 549.28 
L 524.5125 500 
Q 524.5125 492.96 518.7 492.96 
L 53.7 492.96 
Q 47.8875 492.96 47.8875 500 
L 47.8875 549.28 
Q 47.8875 556.32 53.7 556.32 
z
" clip-path="url(#p062b922aef)" style="fill: #6b7280; opacity: 0.15; stroke: #6b7280; stroke-width: 1.5; stroke-linejoin: miter"/>
   </g>
   <g id="patch_9">
    <path d="M 53.7 623.2 
L 518.7 623.2 
Q 524.5125 623.2 524.5125 616.16 
L 524.5125 566.88 
Q 524.5125 559.84 518.7 559.84 
L 53.7 559.84 
Q 47.8875 559.84 47.8875 566.88 
L 47.8875 616.16 
Q 47.8875 623.2 53.7 623.2 
z
" clip-path="url(#p062b922aef)" style="fill: #9ca3af; opacity: 0.15; stroke: #9ca3af; stroke-width: 1.5; stroke-linejoin: miter"/>
   </g>
   <g id="text_1">
    <!-- Featured Snippet -->
    <g style="fill: #2563eb" transform="translate(71.1375 126.67125) scale(0.12 -0.12)">
     <defs>
      <path id="DejaVuSans-Bold-46" d="M 588 4666 
L 3834 4666 
L 3834 3756 
L 1791 3756 
L 1791 2888 
L 3713 2888 
L 3713 1978 
L 1791 1978 
L 1791 0 
L 588 0 
L 588 4666 
z
" transform="scale(0.015625)"/>
      <path id="DejaVuSans-Bold-65" d="M 4031 1759 
L 4031 1441 
L 1416 1441 
Q 1456 1047 1700 850 
Q 1944 653 2381 653 
Q 2734 653 3104 758 
Q 3475 863 3866 1075 
L 3866 213 
Q 3469 63 3072 -14 
Q 2675 -91 2278 -91 
Q 1328 -91 801 392 
Q 275 875 275 1747 
Q 275 2603 792 3093 
Q 1309 3584 2216 3584 
Q 3041 3584 3536 3087 
Q 4031 2591 4031 1759 
z
M 2881 2131 
Q 2881 2450 2695 2645 
Q 2509 2841 2209 2841 
Q 1884 2841 1681 2658 
Q 1478 2475 1428 2131 
L 2881 2131 
z
" transform="scale(0.015625)"/>
      <path id="DejaVuSans-Bold-61" d="M 2106 1575 
Q 1756 1575 1579 1456 
Q 1403 1338 1403 1106 
Q 1403 894 1545 773 
Q 1688 653 1941 653 
Q 2256 653 2472 879 
Q 2688 1106 2688 1447 
L 2688 1575 
L 2106 1575 
z
M 3816 1997 
L 3816 0 
L 2688 0 
L 2688 519 
Q 2463 200 2181 54 
Q 1900 -91 1497 -91 
Q 953 -91 614 226 
Q 275 544 275 1050 
Q 275 1666 698 1953 
Q 1122 2241 2028 2241 
L 2688 2241 
L 2688 2328 
Q 2688 2594 2478 2717 
Q 2269 2841 1825 2841 
Q 1466 2841 1156 2769 
Q 847 2697 581 2553 
L 581 3406 
Q 941 3494 1303 3539 
Q 1666 3584 2028 3584 
Q 2975 3584 3395 3211 
Q 3816 2838 3816 1997 
z
" transform="scale(0.015625)"/>
      <path id="DejaVuSans-Bold-74" d="M 1759 4494 
L 1759 3500 
L 2913 3500 
L 2913 2700 
L 1759 2700 
L 1759 1216 
Q 1759 972 1856 886 
Q 1953 800 2241 800 
L 2816 800 
L 2816 0 
L 1856 0 
Q 1194 0 917 276 
Q 641 553 641 1216 
L 641 2700 
L 84 2700 
L 84 3500 
L 641 3500 
L 641 4494 
L 1759 4494 
z
" transform="scale(0.015625)"/>
      <path id="DejaVuSans-Bold-75" d="M 500 1363 
L 500 3500 
L 1625 3500 
L 1625 3150 
Q 1625 2866 1622 2436 
Q 1619 2006 1619 1863 
Q 1619 1441 1641 1255 
Q 1663 1069 1716 984 
Q 1784 875 1895 815 
Q 2006 756 2150 756 
Q 2500 756 2700 1025 
Q 2900 1294 2900 1772 
L 2900 3500 
L 4019 3500 
L 4019 0 
L 2900 0 
L 2900 506 
Q 2647 200 2364 54 
Q 2081 -91 1741 -91 
Q 1134 -91 817 281 
Q 500 653 500 1363 
z
" transform="scale(0.015625)"/>
      <path id="DejaVuSans-Bold-72" d="M 3138 2547 
Q 2991 2616 2845 2648 
Q 2700 2681 2553 2681 
Q 2122 2681 1889 2404 
Q 1656 2128 1656 1613 
L 1656 0 
L 538 0 
L 538 3500 
L 1656 3500 
L 1656 2925 
Q 1872 3269 2151 3426 
Q 2431 3584 2822 3584 
Q 2878 3584 2943 3579 
Q 3009 3575 3134 3559 
L 3138 2547 
z
" transform="scale(0.015625)"/>
      <path id="DejaVuSans-Bold-64" d="M 2919 2988 
L 2919 4863 
L 4044 4863 
L 4044 0 
L 2919 0 
L 2919 506 
Q 2688 197 2409 53 
Q 2131 -91 1766 -91 
Q 1119 -91 703 423 
Q 288 938 288 1747 
Q 288 2556 703 3070 
Q 1119 3584 1766 3584 
Q 2128 3584 2408 3439 
Q 2688 3294 2919 2988 
z
M 2181 722 
Q 2541 722 2730 984 
Q 2919 1247 2919 1747 
Q 2919 2247 2730 2509 
Q 2541 2772 2181 2772 
Q 1825 2772 1636 2509 
Q 1447 2247 1447 1747 
Q 1447 1247 1636 984 
Q 1825 722 2181 722 
z
" transform="scale(0.015625)"/>
      <path id="DejaVuSans-Bold-20" transform="scale(0.015625)"/>
      <path id="DejaVuSans-Bold-53" d="M 3834 4519 
L 3834 3531 
Q 3450 3703 3084 3790 
Q 2719 3878 2394 3878 
Q 1963 3878 1756 3759 
Q 1550 3641 1550 3391 
Q 1550 3203 1689 3098 
Q 1828 2994 2194 2919 
L 2706 2816 
Q 3484 2659 3812 2340 
Q 4141 2022 4141 1434 
Q 4141 663 3683 286 
Q 3225 -91 2284 -91 
Q 1841 -91 1394 -6 
Q 947 78 500 244 
L 500 1259 
Q 947 1022 1364 901 
Q 1781 781 2169 781 
Q 2563 781 2772 912 
Q 2981 1044 2981 1288 
Q 2981 1506 2839 1625 
Q 2697 1744 2272 1838 
L 1806 1941 
Q 1106 2091 782 2419 
Q 459 2747 459 3303 
Q 459 4000 909 4375 
Q 1359 4750 2203 4750 
Q 2588 4750 2994 4692 
Q 3400 4634 3834 4519 
z
" transform="scale(0.015625)"/>
      <path id="DejaVuSans-Bold-6e" d="M 4056 2131 
L 4056 0 
L 2931 0 
L 2931 347 
L 2931 1631 
Q 2931 2084 2911 2256 
Q 2891 2428 2841 2509 
Q 2775 2619 2662 2680 
Q 2550 2741 2406 2741 
Q 2056 2741 1856 2470 
Q 1656 2200 1656 1722 
L 1656 0 
L 538 0 
L 538 3500 
L 1656 3500 
L 1656 2988 
Q 1909 3294 2193 3439 
Q 2478 3584 2822 3584 
Q 3428 3584 3742 3212 
Q 4056 2841 4056 2131 
z
" transform="scale(0.015625)"/>
      <path id="DejaVuSans-Bold-69" d="M 538 3500 
L 1656 3500 
L 1656 0 
L 538 0 
L 538 3500 
z
M 538 4863 
L 1656 4863 
L 1656 3950 
L 538 3950 
L 538 4863 
z
" transform="scale(0.015625)"/>
      <path id="DejaVuSans-Bold-70" d="M 1656 506 
L 1656 -1331 
L 538 -1331 
L 538 3500 
L 1656 3500 
L 1656 2988 
Q 1888 3294 2169 3439 
Q 2450 3584 2816 3584 
Q 3463 3584 3878 3070 
Q 4294 2556 4294 1747 
Q 4294 938 3878 423 
Q 3463 -91 2816 -91 
Q 2450 -91 2169 54 
Q 1888 200 1656 506 
z
M 2400 2772 
Q 2041 2772 1848 2508 
Q 1656 2244 1656 1747 
Q 1656 1250 1848 986 
Q 2041 722 2400 722 
Q 2759 722 2948 984 
Q 3138 1247 3138 1747 
Q 3138 2247 2948 2509 
Q 2759 2772 2400 2772 
z
" transform="scale(0.015625)"/>
     </defs>
     <use xlink:href="#DejaVuSans-Bold-46"/>
     <use xlink:href="#DejaVuSans-Bold-65" transform="translate(64.310547 0)"/>
     <use xlink:href="#DejaVuSans-Bold-61" transform="translate(132.132812 0)"/>
     <use xlink:href="#DejaVuSans-Bold-74" transform="translate(199.613281 0)"/>
     <use xlink:href="#DejaVuSans-Bold-75" transform="translate(247.416016 0)"/>
     <use xlink:href="#DejaVuSans-Bold-72" transform="translate(318.607422 0)"/>
     <use xlink:href="#DejaVuSans-Bold-65" transform="translate(367.923828 0)"/>
     <use xlink:href="#DejaVuSans-Bold-64" transform="translate(435.746094 0)"/>
     <use xlink:href="#DejaVuSans-Bold-20" transform="translate(507.328125 0)"/>
     <use xlink:href="#DejaVuSans-Bold-53" transform="translate(542.142578 0)"/>
     <use xlink:href="#DejaVuSans-Bold-6e" transform="translate(614.164062 0)"/>
     <use xlink:href="#DejaVuSans-Bold-69" transform="translate(685.355469 0)"/>
     <use xlink:href="#DejaVuSans-Bold-70" transform="translate(719.632812 0)"/>
     <use xlink:href="#DejaVuSans-Bold-70" transform="translate(791.214844 0)"/>
     <use xlink:href="#DejaVuSans-Bold-65" transform="translate(862.796875 0)"/>
     <use xlink:href="#DejaVuSans-Bold-74" transform="translate(930.619141 0)"/>
    </g>
   </g>
   <g id="text_2">
    <!-- People Also Ask -->
    <g style="fill: #8b5cf6" transform="translate(71.1375 193.55125) scale(0.12 -0.12)">
     <defs>
      <path id="DejaVuSans-Bold-50" d="M 588 4666 
L 2584 4666 
Q 3475 4666 3951 4270 
Q 4428 3875 4428 3144 
Q 4428 2409 3951 2014 
Q 3475 1619 2584 1619 
L 1791 1619 
L 1791 0 
L 588 0 
L 588 4666 
z
M 1791 3794 
L 1791 2491 
L 2456 2491 
Q 2806 2491 2997 2661 
Q 3188 2831 3188 3144 
Q 3188 3456 2997 3625 
Q 2806 3794 2456 3794 
L 1791 3794 
z
" transform="scale(0.015625)"/>
      <path id="DejaVuSans-Bold-6f" d="M 2203 2784 
Q 1831 2784 1636 2517 
Q 1441 2250 1441 1747 
Q 1441 1244 1636 976 
Q 1831 709 2203 709 
Q 2569 709 2762 976 
Q 2956 1244 2956 1747 
Q 2956 2250 2762 2517 
Q 2569 2784 2203 2784 
z
M 2203 3584 
Q 3106 3584 3614 3096 
Q 4122 2609 4122 1747 
Q 4122 884 3614 396 
Q 3106 -91 2203 -91 
Q 1297 -91 786 396 
Q 275 884 275 1747 
Q 275 2609 786 3096 
Q 1297 3584 2203 3584 
z
" transform="scale(0.015625)"/>
      <path id="DejaVuSans-Bold-6c" d="M 538 4863 
L 1656 4863 
L 1656 0 
L 538 0 
L 538 4863 
z
" transform="scale(0.015625)"/>
      <path id="DejaVuSans-Bold-41" d="M 3419 850 
L 1538 850 
L 1241 0 
L 31 0 
L 1759 4666 
L 3194 4666 
L 4922 0 
L 3713 0 
L 3419 850 
z
M 1838 1716 
L 3116 1716 
L 2478 3572 
L 1838 1716 
z
" transform="scale(0.015625)"/>
      <path id="DejaVuSans-Bold-73" d="M 3272 3391 
L 3272 2541 
Q 2913 2691 2578 2766 
Q 2244 2841 1947 2841 
Q 1628 2841 1473 2761 
Q 1319 2681 1319 2516 
Q 1319 2381 1436 2309 
Q 1553 2238 1856 2203 
L 2053 2175 
Q 2913 2066 3209 1816 
Q 3506 1566 3506 1031 
Q 3506 472 3093 190 
Q 2681 -91 1863 -91 
Q 1516 -91 1145 -36 
Q 775 19 384 128 
L 384 978 
Q 719 816 1070 734 
Q 1422 653 1784 653 
Q 2113 653 2278 743 
Q 2444 834 2444 1013 
Q 2444 1163 2330 1236 
Q 2216 1309 1875 1350 
L 1678 1375 
Q 931 1469 631 1722 
Q 331 1975 331 2491 
Q 331 3047 712 3315 
Q 1094 3584 1881 3584 
Q 2191 3584 2531 3537 
Q 2872 3491 3272 3391 
z
" transform="scale(0.015625)"/>
      <path id="DejaVuSans-Bold-6b" d="M 538 4863 
L 1656 4863 
L 1656 2216 
L 2944 3500 
L 4244 3500 
L 2534 1894 
L 4378 0 
L 3022 0 
L 1656 1459 
L 1656 0 
L 538 0 
L 538 4863 
z
" transform="scale(0.015625)"/>
     </defs>
     <use xlink:href="#DejaVuSans-Bold-50"/>
     <use xlink:href="#DejaVuSans-Bold-65" transform="translate(73.291016 0)"/>
     <use xlink:href="#DejaVuSans-Bold-6f" transform="translate(141.113281 0)"/>
     <use xlink:href="#DejaVuSans-Bold-70" transform="translate(209.814453 0)"/>
     <use xlink:href="#DejaVuSans-Bold-6c" transform="translate(281.396484 0)"/>
     <use xlink:href="#DejaVuSans-Bold-65" transform="translate(315.673828 0)"/>
     <use xlink:href="#DejaVuSans-Bold-20" transform="translate(383.496094 0)"/>
     <use xlink:href="#DejaVuSans-Bold-41" transform="translate(418.310547 0)"/>
     <use xlink:href="#DejaVuSans-Bold-6c" transform="translate(495.703125 0)"/>
     <use xlink:href="#DejaVuSans-Bold-73" transform="translate(529.980469 0)"/>
     <use xlink:href="#DejaVuSans-Bold-6f" transform="translate(589.501953 0)"/>
     <use xlink:href="#DejaVuSans-Bold-20" transform="translate(658.203125 0)"/>
     <use xlink:href="#DejaVuSans-Bold-41" transform="translate(693.017578 0)"/>
     <use xlink:href="#DejaVuSans-Bold-73" transform="translate(770.410156 0)"/>
     <use xlink:href="#DejaVuSans-Bold-6b" transform="translate(829.931641 0)"/>
    </g>
   </g>
   <g id="text_3">
    <!-- Image Pack -->
    <g style="fill: #10b981" transform="translate(71.1375 260.384375) scale(0.12 -0.12)">
     <defs>
      <path id="DejaVuSans-Bold-49" d="M 588 4666 
L 1791 4666 
L 1791 0 
L 588 0 
L 588 4666 
z
" transform="scale(0.015625)"/>
      <path id="DejaVuSans-Bold-6d" d="M 3781 2919 
Q 3994 3244 4286 3414 
Q 4578 3584 4928 3584 
Q 5531 3584 5847 3212 
Q 6163 2841 6163 2131 
L 6163 0 
L 5038 0 
L 5038 1825 
Q 5041 1866 5042 1909 
Q 5044 1953 5044 2034 
Q 5044 2406 4934 2573 
Q 4825 2741 4581 2741 
Q 4263 2741 4089 2478 
Q 3916 2216 3909 1719 
L 3909 0 
L 2784 0 
L 2784 1825 
Q 2784 2406 2684 2573 
Q 2584 2741 2328 2741 
Q 2006 2741 1831 2477 
Q 1656 2213 1656 1722 
L 1656 0 
L 531 0 
L 531 3500 
L 1656 3500 
L 1656 2988 
Q 1863 3284 2130 3434 
Q 2397 3584 2719 3584 
Q 3081 3584 3359 3409 
Q 3638 3234 3781 2919 
z
" transform="scale(0.015625)"/>
      <path id="DejaVuSans-Bold-67" d="M 2919 594 
Q 2688 288 2409 144 
Q 2131 0 1766 0 
Q 1125 0 706 504 
Q 288 1009 288 1791 
Q 288 2575 706 3076 
Q 1125 3578 1766 3578 
Q 2131 3578 2409 3434 
Q 2688 3291 2919 2981 
L 2919 3500 
L 4044 3500 
L 4044 353 
Q 4044 -491 3511 -936 
Q 2978 -1381 1966 -1381 
Q 1638 -1381 1331 -1331 
Q 1025 -1281 716 -1178 
L 716 -306 
Q 1009 -475 1290 -558 
Q 1572 -641 1856 -641 
Q 2406 -641 2662 -400 
Q 2919 -159 2919 353 
L 2919 594 
z
M 2181 2772 
Q 1834 2772 1640 2515 
Q 1447 2259 1447 1791 
Q 1447 1309 1634 1061 
Q 1822 813 2181 813 
Q 2531 813 2725 1069 
Q 2919 1325 2919 1791 
Q 2919 2259 2725 2515 
Q 2531 2772 2181 2772 
z
" transform="scale(0.015625)"/>
      <path id="DejaVuSans-Bold-63" d="M 3366 3391 
L 3366 2478 
Q 3138 2634 2908 2709 
Q 2678 2784 2431 2784 
Q 1963 2784 1702 2511 
Q 1441 2238 1441 1747 
Q 1441 1256 1702 982 
Q 1963 709 2431 709 
Q 2694 709 2930 787 
Q 3166 866 3366 1019 
L 3366 103 
Q 3103 6 2833 -42 
Q 2563 -91 2291 -91 
Q 1344 -91 809 395 
Q 275 881 275 1747 
Q 275 2613 809 3098 
Q 1344 3584 2291 3584 
Q 2566 3584 2833 3536 
Q 3100 3488 3366 3391 
z
" transform="scale(0.015625)"/>
     </defs>
     <use xlink:href="#DejaVuSans-Bold-49"/>
     <use xlink:href="#DejaVuSans-Bold-6d" transform="translate(37.207031 0)"/>
     <use xlink:href="#DejaVuSans-Bold-61" transform="translate(141.40625 0)"/>
     <use xlink:href="#DejaVuSans-Bold-67" transform="translate(208.886719 0)"/>
     <use xlink:href="#DejaVuSans-Bold-65" transform="translate(280.46875 0)"/>
     <use xlink:href="#DejaVuSans-Bold-20" transform="translate(348.291016 0)"/>
     <use xlink:href="#DejaVuSans-Bold-50" transform="translate(383.105469 0)"/>
     <use xlink:href="#DejaVuSans-Bold-61" transform="translate(453.771484 0)"/>
     <use xlink:href="#DejaVuSans-Bold-63" transform="translate(521.251953 0)"/>
     <use xlink:href="#DejaVuSans-Bold-6b" transform="translate(580.529297 0)"/>
    </g>
   </g>
   <g id="text_4">
    <!-- Video Carousel -->
    <g style="fill: #f59e0b" transform="translate(71.1375 327.31125) scale(0.12 -0.12)">
     <defs>
      <path id="DejaVuSans-Bold-56" d="M 31 4666 
L 1241 4666 
L 2478 1222 
L 3713 4666 
L 4922 4666 
L 3194 0 
L 1759 0 
L 31 4666 
z
" transform="scale(0.015625)"/>
      <path id="DejaVuSans-Bold-43" d="M 4288 256 
Q 3956 84 3597 -3 
Q 3238 -91 2847 -91 
Q 1681 -91 1000 561 
Q 319 1213 319 2328 
Q 319 3447 1000 4098 
Q 1681 4750 2847 4750 
Q 3238 4750 3597 4662 
Q 3956 4575 4288 4403 
L 4288 3438 
Q 3953 3666 3628 3772 
Q 3303 3878 2944 3878 
Q 2300 3878 1931 3465 
Q 1563 3053 1563 2328 
Q 1563 1606 1931 1193 
Q 2300 781 2944 781 
Q 3303 781 3628 887 
Q 3953 994 4288 1222 
L 4288 256 
z
" transform="scale(0.015625)"/>
     </defs>
     <use xlink:href="#DejaVuSans-Bold-56"/>
     <use xlink:href="#DejaVuSans-Bold-69" transform="translate(75.642578 0)"/>
     <use xlink:href="#DejaVuSans-Bold-64" transform="translate(109.919922 0)"/>
     <use xlink:href="#DejaVuSans-Bold-65" transform="translate(181.501953 0)"/>
     <use xlink:href="#DejaVuSans-Bold-6f" transform="translate(249.324219 0)"/>
     <use xlink:href="#DejaVuSans-Bold-20" transform="translate(318.025391 0)"/>
     <use xlink:href="#DejaVuSans-Bold-43" transform="translate(352.839844 0)"/>
     <use xlink:href="#DejaVuSans-Bold-61" transform="translate(426.228516 0)"/>
     <use xlink:href="#DejaVuSans-Bold-72" transform="translate(493.708984 0)"/>
     <use xlink:href="#DejaVuSans-Bold-6f" transform="translate(543.025391 0)"/>
     <use xlink:href="#DejaVuSans-Bold-75" transform="translate(611.726562 0)"/>
     <use xlink:href="#DejaVuSans-Bold-73" transform="translate(682.917969 0)"/>
     <use xlink:href="#DejaVuSans-Bold-65" transform="translate(742.439453 0)"/>
     <use xlink:href="#DejaVuSans-Bold-6c" transform="translate(810.261719 0)"/>
    </g>
   </g>
   <g id="text_5">
    <!-- Local Pack -->
    <g style="fill: #14b8a6" transform="translate(71.1375 394.19125) scale(0.12 -0.12)">
     <defs>
      <path id="DejaVuSans-Bold-4c" d="M 588 4666 
L 1791 4666 
L 1791 909 
L 3903 909 
L 3903 0 
L 588 0 
L 588 4666 
z
" transform="scale(0.015625)"/>
     </defs>
     <use xlink:href="#DejaVuSans-Bold-4c"/>
     <use xlink:href="#DejaVuSans-Bold-6f" transform="translate(63.720703 0)"/>
     <use xlink:href="#DejaVuSans-Bold-63" transform="translate(132.421875 0)"/>
     <use xlink:href="#DejaVuSans-Bold-61" transform="translate(191.699219 0)"/>
     <use xlink:href="#DejaVuSans-Bold-6c" transform="translate(259.179688 0)"/>
     <use xlink:href="#DejaVuSans-Bold-20" transform="translate(293.457031 0)"/>
     <use xlink:href="#DejaVuSans-Bold-50" transform="translate(328.271484 0)"/>
     <use xlink:href="#DejaVuSans-Bold-61" transform="translate(398.9375 0)"/>
     <use xlink:href="#DejaVuSans-Bold-63" transform="translate(466.417969 0)"/>
     <use xlink:href="#DejaVuSans-Bold-6b" transform="translate(525.695312 0)"/>
    </g>
   </g>
   <g id="text_6">
    <!-- Knowledge Panel -->
    <g style="fill: #06b6d4" transform="translate(71.1375 461.024375) scale(0.12 -0.12)">
     <defs>
      <path id="DejaVuSans-Bold-4b" d="M 588 4666 
L 1791 4666 
L 1791 2963 
L 3525 4666 
L 4922 4666 
L 2675 2456 
L 5153 0 
L 3647 0 
L 1791 1838 
L 1791 0 
L 588 0 
L 588 4666 
z
" transform="scale(0.015625)"/>
      <path id="DejaVuSans-Bold-77" d="M 225 3500 
L 1313 3500 
L 1900 1088 
L 2491 3500 
L 3425 3500 
L 4013 1113 
L 4603 3500 
L 5691 3500 
L 4769 0 
L 3547 0 
L 2956 2406 
L 2369 0 
L 1147 0 
L 225 3500 
z
" transform="scale(0.015625)"/>
     </defs>
     <use xlink:href="#DejaVuSans-Bold-4b"/>
     <use xlink:href="#DejaVuSans-Bold-6e" transform="translate(77.490234 0)"/>
     <use xlink:href="#DejaVuSans-Bold-6f" transform="translate(148.681641 0)"/>
     <use xlink:href="#DejaVuSans-Bold-77" transform="translate(217.382812 0)"/>
     <use xlink:href="#DejaVuSans-Bold-6c" transform="translate(309.765625 0)"/>
     <use xlink:href="#DejaVuSans-Bold-65" transform="translate(344.042969 0)"/>
     <use xlink:href="#DejaVuSans-Bold-64" transform="translate(411.865234 0)"/>
     <use xlink:href="#DejaVuSans-Bold-67" transform="translate(483.447266 0)"/>
     <use xlink:href="#DejaVuSans-Bold-65" transform="translate(555.029297 0)"/>
     <use xlink:href="#DejaVuSans-Bold-20" transform="translate(622.851562 0)"/>
     <use xlink:href="#DejaVuSans-Bold-50" transform="translate(657.666016 0)"/>
     <use xlink:href="#DejaVuSans-Bold-61" transform="translate(728.332031 0)"/>
     <use xlink:href="#DejaVuSans-Bold-6e" transform="translate(795.8125 0)"/>
     <use xlink:href="#DejaVuSans-Bold-65" transform="translate(867.003906 0)"/>
     <use xlink:href="#DejaVuSans-Bold-6c" transform="translate(934.826172 0)"/>
    </g>
   </g>
   <g id="text_7">
    <!-- Organic Listings -->
    <g style="fill: #6b7280" transform="translate(71.1375 527.904375) scale(0.12 -0.12)">
     <defs>
      <path id="DejaVuSans-Bold-4f" d="M 2719 3878 
Q 2169 3878 1866 3472 
Q 1563 3066 1563 2328 
Q 1563 1594 1866 1187 
Q 2169 781 2719 781 
Q 3272 781 3575 1187 
Q 3878 1594 3878 2328 
Q 3878 3066 3575 3472 
Q 3272 3878 2719 3878 
z
M 2719 4750 
Q 3844 4750 4481 4106 
Q 5119 3463 5119 2328 
Q 5119 1197 4481 553 
Q 3844 -91 2719 -91 
Q 1597 -91 958 553 
Q 319 1197 319 2328 
Q 319 3463 958 4106 
Q 1597 4750 2719 4750 
z
" transform="scale(0.015625)"/>
     </defs>
     <use xlink:href="#DejaVuSans-Bold-4f"/>
     <use xlink:href="#DejaVuSans-Bold-72" transform="translate(85.009766 0)"/>
     <use xlink:href="#DejaVuSans-Bold-67" transform="translate(134.326172 0)"/>
     <use xlink:href="#DejaVuSans-Bold-61" transform="translate(205.908203 0)"/>
     <use xlink:href="#DejaVuSans-Bold-6e" transform="translate(273.388672 0)"/>
     <use xlink:href="#DejaVuSans-Bold-69" transform="translate(344.580078 0)"/>
     <use xlink:href="#DejaVuSans-Bold-63" transform="translate(378.857422 0)"/>
     <use xlink:href="#DejaVuSans-Bold-20" transform="translate(438.134766 0)"/>
     <use xlink:href="#DejaVuSans-Bold-4c" transform="translate(472.949219 0)"/>
     <use xlink:href="#DejaVuSans-Bold-69" transform="translate(536.669922 0)"/>
     <use xlink:href="#DejaVuSans-Bold-73" transform="translate(570.947266 0)"/>
     <use xlink:href="#DejaVuSans-Bold-74" transform="translate(630.46875 0)"/>
     <use xlink:href="#DejaVuSans-Bold-69" transform="translate(678.271484 0)"/>
     <use xlink:href="#DejaVuSans-Bold-6e" transform="translate(712.548828 0)"/>
     <use xlink:href="#DejaVuSans-Bold-67" transform="translate(783.740234 0)"/>
     <use xlink:href="#DejaVuSans-Bold-73" transform="translate(855.322266 0)"/>
    </g>
   </g>
   <g id="text_8">
    <!-- Related Searches -->
    <g style="fill: #9ca3af" transform="translate(71.1375 594.83125) scale(0.12 -0.12)">
     <defs>
      <path id="DejaVuSans-Bold-52" d="M 2297 2597 
Q 2675 2597 2839 2737 
Q 3003 2878 3003 3200 
Q 3003 3519 2839 3656 
Q 2675 3794 2297 3794 
L 1791 3794 
L 1791 2597 
L 2297 2597 
z
M 1791 1766 
L 1791 0 
L 588 0 
L 588 4666 
L 2425 4666 
Q 3347 4666 3776 4356 
Q 4206 4047 4206 3378 
Q 4206 2916 3982 2619 
Q 3759 2322 3309 2181 
Q 3556 2125 3751 1926 
Q 3947 1728 4147 1325 
L 4800 0 
L 3519 0 
L 2950 1159 
Q 2778 1509 2601 1637 
Q 2425 1766 2131 1766 
L 1791 1766 
z
" transform="scale(0.015625)"/>
      <path id="DejaVuSans-Bold-68" d="M 4056 2131 
L 4056 0 
L 2931 0 
L 2931 347 
L 2931 1625 
Q 2931 2084 2911 2256 
Q 2891 2428 2841 2509 
Q 2775 2619 2662 2680 
Q 2550 2741 2406 2741 
Q 2056 2741 1856 2470 
Q 1656 2200 1656 1722 
L 1656 0 
L 538 0 
L 538 4863 
L 1656 4863 
L 1656 2988 
Q 1909 3294 2193 3439 
Q 2478 3584 2822 3584 
Q 3428 3584 3742 3212 
Q 4056 2841 4056 2131 
z
" transform="scale(0.015625)"/>
     </defs>
     <use xlink:href="#DejaVuSans-Bold-52"/>
     <use xlink:href="#DejaVuSans-Bold-65" transform="translate(77.001953 0)"/>
     <use xlink:href="#DejaVuSans-Bold-6c" transform="translate(144.824219 0)"/>
     <use xlink:href="#DejaVuSans-Bold-61" transform="translate(179.101562 0)"/>
     <use xlink:href="#DejaVuSans-Bold-74" transform="translate(246.582031 0)"/>
     <use xlink:href="#DejaVuSans-Bold-65" transform="translate(294.384766 0)"/>
     <use xlink:href="#DejaVuSans-Bold-64" transform="translate(362.207031 0)"/>
     <use xlink:href="#DejaVuSans-Bold-20" transform="translate(433.789062 0)"/>
     <use xlink:href="#DejaVuSans-Bold-53" transform="translate(468.603516 0)"/>
     <use xlink:href="#DejaVuSans-Bold-65" transform="translate(540.625 0)"/>
     <use xlink:href="#DejaVuSans-Bold-61" transform="translate(608.447266 0)"/>
     <use xlink:href="#DejaVuSans-Bold-72" transform="translate(675.927734 0)"/>
     <use xlink:href="#DejaVuSans-Bold-63" transform="translate(725.244141 0)"/>
     <use xlink:href="#DejaVuSans-Bold-68" transform="translate(784.521484 0)"/>
     <use xlink:href="#DejaVuSans-Bold-65" transform="translate(855.712891 0)"/>
     <use xlink:href="#DejaVuSans-Bold-73" transform="translate(923.535156 0)"/>
    </g>
   </g>
   <g id="text_9">
    <!-- SERP Features Overview -->
    <g style="fill: #1f2937" transform="translate(175.59625 60.1925) scale(0.16 -0.16)">
     <defs>
      <path id="DejaVuSans-Bold-45" d="M 588 4666 
L 3834 4666 
L 3834 3756 
L 1791 3756 
L 1791 2888 
L 3713 2888 
L 3713 1978 
L 1791 1978 
L 1791 909 
L 3903 909 
L 3903 0 
L 588 0 
L 588 4666 
z
" transform="scale(0.015625)"/>
      <path id="DejaVuSans-Bold-76" d="M 97 3500 
L 1216 3500 
L 2088 1081 
L 2956 3500 
L 4078 3500 
L 2700 0 
L 1472 0 
L 97 3500 
z
" transform="scale(0.015625)"/>
     </defs>
     <use xlink:href="#DejaVuSans-Bold-53"/>
     <use xlink:href="#DejaVuSans-Bold-45" transform="translate(72.021484 0)"/>
     <use xlink:href="#DejaVuSans-Bold-52" transform="translate(140.332031 0)"/>
     <use xlink:href="#DejaVuSans-Bold-50" transform="translate(217.333984 0)"/>
     <use xlink:href="#DejaVuSans-Bold-20" transform="translate(290.625 0)"/>
     <use xlink:href="#DejaVuSans-Bold-46" transform="translate(325.439453 0)"/>
     <use xlink:href="#DejaVuSans-Bold-65" transform="translate(389.75 0)"/>
     <use xlink:href="#DejaVuSans-Bold-61" transform="translate(457.572266 0)"/>
     <use xlink:href="#DejaVuSans-Bold-74" transform="translate(525.052734 0)"/>
     <use xlink:href="#DejaVuSans-Bold-75" transform="translate(572.855469 0)"/>
     <use xlink:href="#DejaVuSans-Bold-72" transform="translate(644.046875 0)"/>
     <use xlink:href="#DejaVuSans-Bold-65" transform="translate(693.363281 0)"/>
     <use xlink:href="#DejaVuSans-Bold-73" transform="translate(761.185547 0)"/>
     <use xlink:href="#DejaVuSans-Bold-20" transform="translate(820.707031 0)"/>
     <use xlink:href="#DejaVuSans-Bold-4f" transform="translate(855.521484 0)"/>
     <use xlink:href="#DejaVuSans-Bold-76" transform="translate(940.53125 0)"/>
     <use xlink:href="#DejaVuSans-Bold-65" transform="translate(1005.716797 0)"/>
     <use xlink:href="#DejaVuSans-Bold-72" transform="translate(1073.539062 0)"/>
     <use xlink:href="#DejaVuSans-Bold-76" transform="translate(1122.855469 0)"/>
     <use xlink:href="#DejaVuSans-Bold-69" transform="translate(1188.041016 0)"/>
     <use xlink:href="#DejaVuSans-Bold-65" transform="translate(1222.318359 0)"/>
     <use xlink:href="#DejaVuSans-Bold-77" transform="translate(1290.140625 0)"/>
    </g>
   </g>
  </g>
 </g>
 <defs>
  <clipPath id="p062b922aef">
   <rect x="7.2" y="7.2" width="558" height="665.28"/>
  </clipPath>
 </defs>
</svg>
