<?xml version="1.0" encoding="utf-8" standalone="no"?>
<!DOCTYPE svg PUBLIC "-//W3C//DTD SVG 1.1//EN"
  "http://www.w3.org/Graphics/SVG/1.1/DTD/svg11.dtd">
<svg xmlns:xlink="http://www.w3.org/1999/xlink" width="572.4pt" height="679.68pt" viewBox="0 0 572.4 679.68" xmlns="http://www.w3.org/2000/svg" version="1.1">
 <metadata>
  <rdf:RDF xmlns:dc="http://purl.org/dc/elements/1.1/" xmlns:cc="http://creativecommons.org/ns#" xmlns:rdf="http://www.w3.org/1999/02/22-rdf-syntax-ns#">
   <cc:Work>
    <dc:type rdf:resource="http://purl.org/dc/dcmitype/StillImage"/>
    <dc:date>2025-12-26T21:31:29.781812</dc:date>
    <dc:format>image/svg+xml</dc:format>
    <dc:creator>
     <cc:Agent>
      <dc:title>Matplotlib v3.10.8, https://matplotlib.org/</dc:title>
     </cc:Agent>
    </dc:creator>
   </cc:Work>
  </rdf:RDF>
 </metadata>
 <defs>
  <style type="text/css">*{stroke-linejoin: round; stroke-linecap: butt}</style>
 </defs>
 <g id="figure_1">
  <g id="patch_1">
   <path d="M 0 679.68 
L 572.4 679.68 
L 572.4 0 
L 0 0 
z
" style="fill: #f8f9fa"/>
  </g>
  <g id="axes_1">
   <g id="patch_2">
    <path d="M 284.998083 205.917524 
Q 221.316598 290.559576 158.643369 373.861508 
" clip-path="url(#p6b613b5abf)" style="fill: none; stroke: #10b981; stroke-width: 1.5; stroke-linecap: round"/>
    <path d="M 166.6494 369.873593 
L 158.643369 373.861508 
L 160.256656 365.063934 
" clip-path="url(#p6b613b5abf)" style="fill: none; stroke: #10b981; stroke-width: 1.5; stroke-linecap: round"/>
   </g>
   <g id="patch_3">
    <path d="M 287.401917 205.917524 
Q 351.083402 290.559576 413.756631 373.861508 
" clip-path="url(#p6b613b5abf)" style="fill: none; stroke: #f59e0b; stroke-width: 1.5; stroke-linecap: round"/>
    <path d="M 412.143344 365.063934 
L 413.756631 373.861508 
L 405.7506 369.873593 
" clip-path="url(#p6b613b5abf)" style="fill: none; stroke: #f59e0b; stroke-width: 1.5; stroke-linecap: round"/>
   </g>
   <g id="patch_4">
    <path d="M 188.874419 228.96 
L 383.525581 228.96 
Q 396.502326 228.96 396.502326 204.32 
L 396.502326 105.76 
Q 396.502326 81.12 383.525581 81.12 
L 188.874419 81.12 
Q 175.897674 81.12 175.897674 105.76 
L 175.897674 204.32 
Q 175.897674 228.96 188.874419 228.96 
z
" clip-path="url(#p6b613b5abf)" style="fill: #2563eb; opacity: 0.2; stroke: #2563eb; stroke-width: 1.5; stroke-linejoin: miter"/>
   </g>
   <g id="patch_5">
    <path d="M 59.106977 598.56 
L 253.75814 598.56 
Q 266.734884 598.56 266.734884 573.92 
L 266.734884 475.36 
Q 266.734884 450.72 253.75814 450.72 
L 59.106977 450.72 
Q 46.130233 450.72 46.130233 475.36 
L 46.130233 573.92 
Q 46.130233 598.56 59.106977 598.56 
z
" clip-path="url(#p6b613b5abf)" style="fill: #10b981; opacity: 0.2; stroke: #10b981; stroke-width: 1.5; stroke-linejoin: miter"/>
   </g>
   <g id="patch_6">
    <path d="M 318.64186 598.56 
L 513.293023 598.56 
Q 526.269767 598.56 526.269767 573.92 
L 526.269767 475.36 
Q 526.269767 450.72 513.293023 450.72 
L 318.64186 450.72 
Q 305.665116 450.72 305.665116 475.36 
L 305.665116 573.92 
Q 305.665116 598.56 318.64186 598.56 
z
" clip-path="url(#p6b613b5abf)" style="fill: #f59e0b; opacity: 0.2; stroke: #f59e0b; stroke-width: 1.5; stroke-linejoin: miter"/>
   </g>
   <g id="text_1">
    <!-- Content Still Relevant? -->
    <g style="fill: #2563eb" transform="translate(208.393125 158.35125) scale(0.12 -0.12)">
     <defs>
      <path id="DejaVuSans-Bold-43" d="M 4288 256 
Q 3956 84 3597 -3 
Q 3238 -91 2847 -91 
Q 1681 -91 1000 561 
Q 319 1213 319 2328 
Q 319 3447 1000 4098 
Q 1681 4750 2847 4750 
Q 3238 4750 3597 4662 
Q 3956 4575 4288 4403 
L 4288 3438 
Q 3953 3666 3628 3772 
Q 3303 3878 2944 3878 
Q 2300 3878 1931 3465 
Q 1563 3053 1563 2328 
Q 1563 1606 1931 1193 
Q 2300 781 2944 781 
Q 3303 781 3628 887 
Q 3953 994 4288 1222 
L 4288 256 
z
" transform="scale(0.015625)"/>
      <path id="DejaVuSans-Bold-6f" d="M 2203 2784 
Q 1831 2784 1636 2517 
Q 1441 2250 1441 1747 
Q 1441 1244 1636 976 
Q 1831 709 2203 709 
Q 2569 709 2762 976 
Q 2956 1244 2956 1747 
Q 2956 2250 2762 2517 
Q 2569 2784 2203 2784 
z
M 2203 3584 
Q 3106 3584 3614 3096 
Q 4122 2609 4122 1747 
Q 4122 884 3614 396 
Q 3106 -91 2203 -91 
Q 1297 -91 786 396 
Q 275 884 275 1747 
Q 275 2609 786 3096 
Q 1297 3584 2203 3584 
z
" transform="scale(0.015625)"/>
      <path id="DejaVuSans-Bold-6e" d="M 4056 2131 
L 4056 0 
L 2931 0 
L 2931 347 
L 2931 1631 
Q 2931 2084 2911 2256 
Q 2891 2428 2841 2509 
Q 2775 2619 2662 2680 
Q 2550 2741 2406 2741 
Q 2056 2741 1856 2470 
Q 1656 2200 1656 1722 
L 1656 0 
L 538 0 
L 538 3500 
L 1656 3500 
L 1656 2988 
Q 1909 3294 2193 3439 
Q 2478 3584 2822 3584 
Q 3428 3584 3742 3212 
Q 4056 2841 4056 2131 
z
" transform="scale(0.015625)"/>
      <path id="DejaVuSans-Bold-74" d="M 1759 4494 
L 1759 3500 
L 2913 3500 
L 2913 2700 
L 1759 2700 
L 1759 1216 
Q 1759 972 1856 886 
Q 1953 800 2241 800 
L 2816 800 
L 2816 0 
L 1856 0 
Q 1194 0 917 276 
Q 641 553 641 1216 
L 641 2700 
L 84 2700 
L 84 3500 
L 641 3500 
L 641 4494 
L 1759 4494 
z
" transform="scale(0.015625)"/>
      <path id="DejaVuSans-Bold-65" d="M 4031 1759 
L 4031 1441 
L 1416 1441 
Q 1456 1047 1700 850 
Q 1944 653 2381 653 
Q 2734 653 3104 758 
Q 3475 863 3866 1075 
L 3866 213 
Q 3469 63 3072 -14 
Q 2675 -91 2278 -91 
Q 1328 -91 801 392 
Q 275 875 275 1747 
Q 275 2603 792 3093 
Q 1309 3584 2216 3584 
Q 3041 3584 3536 3087 
Q 4031 2591 4031 1759 
z
M 2881 2131 
Q 2881 2450 2695 2645 
Q 2509 2841 2209 2841 
Q 1884 2841 1681 2658 
Q 1478 2475 1428 2131 
L 2881 2131 
z
" transform="scale(0.015625)"/>
      <path id="DejaVuSans-Bold-20" transform="scale(0.015625)"/>
      <path id="DejaVuSans-Bold-53" d="M 3834 4519 
L 3834 3531 
Q 3450 3703 3084 3790 
Q 2719 3878 2394 3878 
Q 1963 3878 1756 3759 
Q 1550 3641 1550 3391 
Q 1550 3203 1689 3098 
Q 1828 2994 2194 2919 
L 2706 2816 
Q 3484 2659 3812 2340 
Q 4141 2022 4141 1434 
Q 4141 663 3683 286 
Q 3225 -91 2284 -91 
Q 1841 -91 1394 -6 
Q 947 78 500 244 
L 500 1259 
Q 947 1022 1364 901 
Q 1781 781 2169 781 
Q 2563 781 2772 912 
Q 2981 1044 2981 1288 
Q 2981 1506 2839 1625 
Q 2697 1744 2272 1838 
L 1806 1941 
Q 1106 2091 782 2419 
Q 459 2747 459 3303 
Q 459 4000 909 4375 
Q 1359 4750 2203 4750 
Q 2588 4750 2994 4692 
Q 3400 4634 3834 4519 
z
" transform="scale(0.015625)"/>
      <path id="DejaVuSans-Bold-69" d="M 538 3500 
L 1656 3500 
L 1656 0 
L 538 0 
L 538 3500 
z
M 538 4863 
L 1656 4863 
L 1656 3950 
L 538 3950 
L 538 4863 
z
" transform="scale(0.015625)"/>
      <path id="DejaVuSans-Bold-6c" d="M 538 4863 
L 1656 4863 
L 1656 0 
L 538 0 
L 538 4863 
z
" transform="scale(0.015625)"/>
      <path id="DejaVuSans-Bold-52" d="M 2297 2597 
Q 2675 2597 2839 2737 
Q 3003 2878 3003 3200 
Q 3003 3519 2839 3656 
Q 2675 3794 2297 3794 
L 1791 3794 
L 1791 2597 
L 2297 2597 
z
M 1791 1766 
L 1791 0 
L 588 0 
L 588 4666 
L 2425 4666 
Q 3347 4666 3776 4356 
Q 4206 4047 4206 3378 
Q 4206 2916 3982 2619 
Q 3759 2322 3309 2181 
Q 3556 2125 3751 1926 
Q 3947 1728 4147 1325 
L 4800 0 
L 3519 0 
L 2950 1159 
Q 2778 1509 2601 1637 
Q 2425 1766 2131 1766 
L 1791 1766 
z
" transform="scale(0.015625)"/>
      <path id="DejaVuSans-Bold-76" d="M 97 3500 
L 1216 3500 
L 2088 1081 
L 2956 3500 
L 4078 3500 
L 2700 0 
L 1472 0 
L 97 3500 
z
" transform="scale(0.015625)"/>
      <path id="DejaVuSans-Bold-61" d="M 2106 1575 
Q 1756 1575 1579 1456 
Q 1403 1338 1403 1106 
Q 1403 894 1545 773 
Q 1688 653 1941 653 
Q 2256 653 2472 879 
Q 2688 1106 2688 1447 
L 2688 1575 
L 2106 1575 
z
M 3816 1997 
L 3816 0 
L 2688 0 
L 2688 519 
Q 2463 200 2181 54 
Q 1900 -91 1497 -91 
Q 953 -91 614 226 
Q 275 544 275 1050 
Q 275 1666 698 1953 
Q 1122 2241 2028 2241 
L 2688 2241 
L 2688 2328 
Q 2688 2594 2478 2717 
Q 2269 2841 1825 2841 
Q 1466 2841 1156 2769 
Q 847 2697 581 2553 
L 581 3406 
Q 941 3494 1303 3539 
Q 1666 3584 2028 3584 
Q 2975 3584 3395 3211 
Q 3816 2838 3816 1997 
z
" transform="scale(0.015625)"/>
      <path id="DejaVuSans-Bold-3f" d="M 2216 1575 
L 1088 1575 
L 1088 1728 
Q 1088 1984 1191 2182 
Q 1294 2381 1625 2688 
L 1825 2869 
Q 2003 3031 2086 3175 
Q 2169 3319 2169 3463 
Q 2169 3681 2019 3804 
Q 1869 3928 1600 3928 
Q 1347 3928 1053 3823 
Q 759 3719 441 3513 
L 441 4494 
Q 819 4625 1131 4687 
Q 1444 4750 1734 4750 
Q 2497 4750 2897 4439 
Q 3297 4128 3297 3531 
Q 3297 3225 3175 2983 
Q 3053 2741 2759 2463 
L 2559 2284 
Q 2347 2091 2281 1973 
Q 2216 1856 2216 1716 
L 2216 1575 
z
M 1088 1113 
L 2216 1113 
L 2216 0 
L 1088 0 
L 1088 1113 
z
" transform="scale(0.015625)"/>
     </defs>
     <use xlink:href="#DejaVuSans-Bold-43"/>
     <use xlink:href="#DejaVuSans-Bold-6f" transform="translate(73.388672 0)"/>
     <use xlink:href="#DejaVuSans-Bold-6e" transform="translate(142.089844 0)"/>
     <use xlink:href="#DejaVuSans-Bold-74" transform="translate(213.28125 0)"/>
     <use xlink:href="#DejaVuSans-Bold-65" transform="translate(261.083984 0)"/>
     <use xlink:href="#DejaVuSans-Bold-6e" transform="translate(328.90625 0)"/>
     <use xlink:href="#DejaVuSans-Bold-74" transform="translate(400.097656 0)"/>
     <use xlink:href="#DejaVuSans-Bold-20" transform="translate(447.900391 0)"/>
     <use xlink:href="#DejaVuSans-Bold-53" transform="translate(482.714844 0)"/>
     <use xlink:href="#DejaVuSans-Bold-74" transform="translate(554.736328 0)"/>
     <use xlink:href="#DejaVuSans-Bold-69" transform="translate(602.539062 0)"/>
     <use xlink:href="#DejaVuSans-Bold-6c" transform="translate(636.816406 0)"/>
     <use xlink:href="#DejaVuSans-Bold-6c" transform="translate(671.09375 0)"/>
     <use xlink:href="#DejaVuSans-Bold-20" transform="translate(705.371094 0)"/>
     <use xlink:href="#DejaVuSans-Bold-52" transform="translate(740.185547 0)"/>
     <use xlink:href="#DejaVuSans-Bold-65" transform="translate(817.1875 0)"/>
     <use xlink:href="#DejaVuSans-Bold-6c" transform="translate(885.009766 0)"/>
     <use xlink:href="#DejaVuSans-Bold-65" transform="translate(919.287109 0)"/>
     <use xlink:href="#DejaVuSans-Bold-76" transform="translate(987.109375 0)"/>
     <use xlink:href="#DejaVuSans-Bold-61" transform="translate(1052.294922 0)"/>
     <use xlink:href="#DejaVuSans-Bold-6e" transform="translate(1119.775391 0)"/>
     <use xlink:href="#DejaVuSans-Bold-74" transform="translate(1190.966797 0)"/>
     <use xlink:href="#DejaVuSans-Bold-3f" transform="translate(1238.769531 0)"/>
    </g>
   </g>
   <g id="text_2">
    <!-- Yes: Update -->
    <g style="fill: #10b981" transform="translate(116.059121 521.185688) scale(0.12 -0.12)">
     <defs>
      <path id="DejaVuSans-Bold-59" d="M -63 4666 
L 1253 4666 
L 2316 3003 
L 3378 4666 
L 4697 4666 
L 2919 1966 
L 2919 0 
L 1716 0 
L 1716 1966 
L -63 4666 
z
" transform="scale(0.015625)"/>
      <path id="DejaVuSans-Bold-73" d="M 3272 3391 
L 3272 2541 
Q 2913 2691 2578 2766 
Q 2244 2841 1947 2841 
Q 1628 2841 1473 2761 
Q 1319 2681 1319 2516 
Q 1319 2381 1436 2309 
Q 1553 2238 1856 2203 
L 2053 2175 
Q 2913 2066 3209 1816 
Q 3506 1566 3506 1031 
Q 3506 472 3093 190 
Q 2681 -91 1863 -91 
Q 1516 -91 1145 -36 
Q 775 19 384 128 
L 384 978 
Q 719 816 1070 734 
Q 1422 653 1784 653 
Q 2113 653 2278 743 
Q 2444 834 2444 1013 
Q 2444 1163 2330 1236 
Q 2216 1309 1875 1350 
L 1678 1375 
Q 931 1469 631 1722 
Q 331 1975 331 2491 
Q 331 3047 712 3315 
Q 1094 3584 1881 3584 
Q 2191 3584 2531 3537 
Q 2872 3491 3272 3391 
z
" transform="scale(0.015625)"/>
      <path id="DejaVuSans-Bold-3a" d="M 716 3500 
L 1844 3500 
L 1844 2291 
L 716 2291 
L 716 3500 
z
M 716 1209 
L 1844 1209 
L 1844 0 
L 716 0 
L 716 1209 
z
" transform="scale(0.015625)"/>
      <path id="DejaVuSans-Bold-55" d="M 588 4666 
L 1791 4666 
L 1791 1869 
Q 1791 1291 1980 1042 
Q 2169 794 2597 794 
Q 3028 794 3217 1042 
Q 3406 1291 3406 1869 
L 3406 4666 
L 4609 4666 
L 4609 1869 
Q 4609 878 4112 393 
Q 3616 -91 2597 -91 
Q 1581 -91 1084 393 
Q 588 878 588 1869 
L 588 4666 
z
" transform="scale(0.015625)"/>
      <path id="DejaVuSans-Bold-70" d="M 1656 506 
L 1656 -1331 
L 538 -1331 
L 538 3500 
L 1656 3500 
L 1656 2988 
Q 1888 3294 2169 3439 
Q 2450 3584 2816 3584 
Q 3463 3584 3878 3070 
Q 4294 2556 4294 1747 
Q 4294 938 3878 423 
Q 3463 -91 2816 -91 
Q 2450 -91 2169 54 
Q 1888 200 1656 506 
z
M 2400 2772 
Q 2041 2772 1848 2508 
Q 1656 2244 1656 1747 
Q 1656 1250 1848 986 
Q 2041 722 2400 722 
Q 2759 722 2948 984 
Q 3138 1247 3138 1747 
Q 3138 2247 2948 2509 
Q 2759 2772 2400 2772 
z
" transform="scale(0.015625)"/>
      <path id="DejaVuSans-Bold-64" d="M 2919 2988 
L 2919 4863 
L 4044 4863 
L 4044 0 
L 2919 0 
L 2919 506 
Q 2688 197 2409 53 
Q 2131 -91 1766 -91 
Q 1119 -91 703 423 
Q 288 938 288 1747 
Q 288 2556 703 3070 
Q 1119 3584 1766 3584 
Q 2128 3584 2408 3439 
Q 2688 3294 2919 2988 
z
M 2181 722 
Q 2541 722 2730 984 
Q 2919 1247 2919 1747 
Q 2919 2247 2730 2509 
Q 2541 2772 2181 2772 
Q 1825 2772 1636 2509 
Q 1447 2247 1447 1747 
Q 1447 1247 1636 984 
Q 1825 722 2181 722 
z
" transform="scale(0.015625)"/>
     </defs>
     <use xlink:href="#DejaVuSans-Bold-59"/>
     <use xlink:href="#DejaVuSans-Bold-65" transform="translate(63.287109 0)"/>
     <use xlink:href="#DejaVuSans-Bold-73" transform="translate(131.109375 0)"/>
     <use xlink:href="#DejaVuSans-Bold-3a" transform="translate(190.630859 0)"/>
     <use xlink:href="#DejaVuSans-Bold-20" transform="translate(230.621094 0)"/>
     <use xlink:href="#DejaVuSans-Bold-55" transform="translate(265.435547 0)"/>
     <use xlink:href="#DejaVuSans-Bold-70" transform="translate(346.636719 0)"/>
     <use xlink:href="#DejaVuSans-Bold-64" transform="translate(418.21875 0)"/>
     <use xlink:href="#DejaVuSans-Bold-61" transform="translate(489.800781 0)"/>
     <use xlink:href="#DejaVuSans-Bold-74" transform="translate(557.28125 0)"/>
     <use xlink:href="#DejaVuSans-Bold-65" transform="translate(605.083984 0)"/>
    </g>
    <!-- Existing Content -->
    <g style="fill: #10b981" transform="translate(100.383183 534.623063) scale(0.12 -0.12)">
     <defs>
      <path id="DejaVuSans-Bold-45" d="M 588 4666 
L 3834 4666 
L 3834 3756 
L 1791 3756 
L 1791 2888 
L 3713 2888 
L 3713 1978 
L 1791 1978 
L 1791 909 
L 3903 909 
L 3903 0 
L 588 0 
L 588 4666 
z
" transform="scale(0.015625)"/>
      <path id="DejaVuSans-Bold-78" d="M 1422 1791 
L 159 3500 
L 1344 3500 
L 2059 2463 
L 2784 3500 
L 3969 3500 
L 2706 1797 
L 4031 0 
L 2847 0 
L 2059 1106 
L 1281 0 
L 97 0 
L 1422 1791 
z
" transform="scale(0.015625)"/>
      <path id="DejaVuSans-Bold-67" d="M 2919 594 
Q 2688 288 2409 144 
Q 2131 0 1766 0 
Q 1125 0 706 504 
Q 288 1009 288 1791 
Q 288 2575 706 3076 
Q 1125 3578 1766 3578 
Q 2131 3578 2409 3434 
Q 2688 3291 2919 2981 
L 2919 3500 
L 4044 3500 
L 4044 353 
Q 4044 -491 3511 -936 
Q 2978 -1381 1966 -1381 
Q 1638 -1381 1331 -1331 
Q 1025 -1281 716 -1178 
L 716 -306 
Q 1009 -475 1290 -558 
Q 1572 -641 1856 -641 
Q 2406 -641 2662 -400 
Q 2919 -159 2919 353 
L 2919 594 
z
M 2181 2772 
Q 1834 2772 1640 2515 
Q 1447 2259 1447 1791 
Q 1447 1309 1634 1061 
Q 1822 813 2181 813 
Q 2531 813 2725 1069 
Q 2919 1325 2919 1791 
Q 2919 2259 2725 2515 
Q 2531 2772 2181 2772 
z
" transform="scale(0.015625)"/>
     </defs>
     <use xlink:href="#DejaVuSans-Bold-45"/>
     <use xlink:href="#DejaVuSans-Bold-78" transform="translate(68.310547 0)"/>
     <use xlink:href="#DejaVuSans-Bold-69" transform="translate(132.8125 0)"/>
     <use xlink:href="#DejaVuSans-Bold-73" transform="translate(167.089844 0)"/>
     <use xlink:href="#DejaVuSans-Bold-74" transform="translate(226.611328 0)"/>
     <use xlink:href="#DejaVuSans-Bold-69" transform="translate(274.414062 0)"/>
     <use xlink:href="#DejaVuSans-Bold-6e" transform="translate(308.691406 0)"/>
     <use xlink:href="#DejaVuSans-Bold-67" transform="translate(379.882812 0)"/>
     <use xlink:href="#DejaVuSans-Bold-20" transform="translate(451.464844 0)"/>
     <use xlink:href="#DejaVuSans-Bold-43" transform="translate(486.279297 0)"/>
     <use xlink:href="#DejaVuSans-Bold-6f" transform="translate(559.667969 0)"/>
     <use xlink:href="#DejaVuSans-Bold-6e" transform="translate(628.369141 0)"/>
     <use xlink:href="#DejaVuSans-Bold-74" transform="translate(699.560547 0)"/>
     <use xlink:href="#DejaVuSans-Bold-65" transform="translate(747.363281 0)"/>
     <use xlink:href="#DejaVuSans-Bold-6e" transform="translate(815.185547 0)"/>
     <use xlink:href="#DejaVuSans-Bold-74" transform="translate(886.376953 0)"/>
    </g>
   </g>
   <g id="text_3">
    <!-- No: Replace -->
    <g style="fill: #f59e0b" transform="translate(375.619317 521.232563) scale(0.12 -0.12)">
     <defs>
      <path id="DejaVuSans-Bold-4e" d="M 588 4666 
L 1931 4666 
L 3628 1466 
L 3628 4666 
L 4769 4666 
L 4769 0 
L 3425 0 
L 1728 3200 
L 1728 0 
L 588 0 
L 588 4666 
z
" transform="scale(0.015625)"/>
      <path id="DejaVuSans-Bold-63" d="M 3366 3391 
L 3366 2478 
Q 3138 2634 2908 2709 
Q 2678 2784 2431 2784 
Q 1963 2784 1702 2511 
Q 1441 2238 1441 1747 
Q 1441 1256 1702 982 
Q 1963 709 2431 709 
Q 2694 709 2930 787 
Q 3166 866 3366 1019 
L 3366 103 
Q 3103 6 2833 -42 
Q 2563 -91 2291 -91 
Q 1344 -91 809 395 
Q 275 881 275 1747 
Q 275 2613 809 3098 
Q 1344 3584 2291 3584 
Q 2566 3584 2833 3536 
Q 3100 3488 3366 3391 
z
" transform="scale(0.015625)"/>
     </defs>
     <use xlink:href="#DejaVuSans-Bold-4e"/>
     <use xlink:href="#DejaVuSans-Bold-6f" transform="translate(83.691406 0)"/>
     <use xlink:href="#DejaVuSans-Bold-3a" transform="translate(152.392578 0)"/>
     <use xlink:href="#DejaVuSans-Bold-20" transform="translate(192.382812 0)"/>
     <use xlink:href="#DejaVuSans-Bold-52" transform="translate(227.197266 0)"/>
     <use xlink:href="#DejaVuSans-Bold-65" transform="translate(304.199219 0)"/>
     <use xlink:href="#DejaVuSans-Bold-70" transform="translate(372.021484 0)"/>
     <use xlink:href="#DejaVuSans-Bold-6c" transform="translate(443.603516 0)"/>
     <use xlink:href="#DejaVuSans-Bold-61" transform="translate(477.880859 0)"/>
     <use xlink:href="#DejaVuSans-Bold-63" transform="translate(545.361328 0)"/>
     <use xlink:href="#DejaVuSans-Bold-65" transform="translate(604.638672 0)"/>
    </g>
    <!-- With New Content -->
    <g style="fill: #f59e0b" transform="translate(354.468379 534.669938) scale(0.12 -0.12)">
     <defs>
      <path id="DejaVuSans-Bold-57" d="M 191 4666 
L 1344 4666 
L 2150 1275 
L 2950 4666 
L 4109 4666 
L 4909 1275 
L 5716 4666 
L 6859 4666 
L 5759 0 
L 4372 0 
L 3525 3547 
L 2688 0 
L 1300 0 
L 191 4666 
z
" transform="scale(0.015625)"/>
      <path id="DejaVuSans-Bold-68" d="M 4056 2131 
L 4056 0 
L 2931 0 
L 2931 347 
L 2931 1625 
Q 2931 2084 2911 2256 
Q 2891 2428 2841 2509 
Q 2775 2619 2662 2680 
Q 2550 2741 2406 2741 
Q 2056 2741 1856 2470 
Q 1656 2200 1656 1722 
L 1656 0 
L 538 0 
L 538 4863 
L 1656 4863 
L 1656 2988 
Q 1909 3294 2193 3439 
Q 2478 3584 2822 3584 
Q 3428 3584 3742 3212 
Q 4056 2841 4056 2131 
z
" transform="scale(0.015625)"/>
      <path id="DejaVuSans-Bold-77" d="M 225 3500 
L 1313 3500 
L 1900 1088 
L 2491 3500 
L 3425 3500 
L 4013 1113 
L 4603 3500 
L 5691 3500 
L 4769 0 
L 3547 0 
L 2956 2406 
L 2369 0 
L 1147 0 
L 225 3500 
z
" transform="scale(0.015625)"/>
     </defs>
     <use xlink:href="#DejaVuSans-Bold-57"/>
     <use xlink:href="#DejaVuSans-Bold-69" transform="translate(110.302734 0)"/>
     <use xlink:href="#DejaVuSans-Bold-74" transform="translate(144.580078 0)"/>
     <use xlink:href="#DejaVuSans-Bold-68" transform="translate(192.382812 0)"/>
     <use xlink:href="#DejaVuSans-Bold-20" transform="translate(263.574219 0)"/>
     <use xlink:href="#DejaVuSans-Bold-4e" transform="translate(298.388672 0)"/>
     <use xlink:href="#DejaVuSans-Bold-65" transform="translate(382.080078 0)"/>
     <use xlink:href="#DejaVuSans-Bold-77" transform="translate(449.902344 0)"/>
     <use xlink:href="#DejaVuSans-Bold-20" transform="translate(542.285156 0)"/>
     <use xlink:href="#DejaVuSans-Bold-43" transform="translate(577.099609 0)"/>
     <use xlink:href="#DejaVuSans-Bold-6f" transform="translate(650.488281 0)"/>
     <use xlink:href="#DejaVuSans-Bold-6e" transform="translate(719.189453 0)"/>
     <use xlink:href="#DejaVuSans-Bold-74" transform="translate(790.380859 0)"/>
     <use xlink:href="#DejaVuSans-Bold-65" transform="translate(838.183594 0)"/>
     <use xlink:href="#DejaVuSans-Bold-6e" transform="translate(906.005859 0)"/>
     <use xlink:href="#DejaVuSans-Bold-74" transform="translate(977.197266 0)"/>
    </g>
   </g>
   <g id="text_4">
    <!-- Yes -->
    <g style="fill: #10b981" transform="translate(211.785029 293.319375) scale(0.1 -0.1)">
     <use xlink:href="#DejaVuSans-Bold-59"/>
     <use xlink:href="#DejaVuSans-Bold-65" transform="translate(63.287109 0)"/>
     <use xlink:href="#DejaVuSans-Bold-73" transform="translate(131.109375 0)"/>
    </g>
   </g>
   <g id="text_5">
    <!-- No -->
    <g style="fill: #f59e0b" transform="translate(343.46419 293.319375) scale(0.1 -0.1)">
     <use xlink:href="#DejaVuSans-Bold-4e"/>
     <use xlink:href="#DejaVuSans-Bold-6f" transform="translate(83.691406 0)"/>
    </g>
   </g>
  </g>
 </g>
 <defs>
  <clipPath id="p6b613b5abf">
   <rect x="7.2" y="7.2" width="558" height="665.28"/>
  </clipPath>
 </defs>
</svg>
