<?xml version="1.0" encoding="utf-8" standalone="no"?>
<!DOCTYPE svg PUBLIC "-//W3C//DTD SVG 1.1//EN"
  "http://www.w3.org/Graphics/SVG/1.1/DTD/svg11.dtd">
<svg xmlns:xlink="http://www.w3.org/1999/xlink" width="684.805321pt" height="568.8pt" viewBox="0 0 684.805321 568.8" xmlns="http://www.w3.org/2000/svg" version="1.1">
 <metadata>
  <rdf:RDF xmlns:dc="http://purl.org/dc/elements/1.1/" xmlns:cc="http://creativecommons.org/ns#" xmlns:rdf="http://www.w3.org/1999/02/22-rdf-syntax-ns#">
   <cc:Work>
    <dc:type rdf:resource="http://purl.org/dc/dcmitype/StillImage"/>
    <dc:date>2025-12-26T21:31:28.193765</dc:date>
    <dc:format>image/svg+xml</dc:format>
    <dc:creator>
     <cc:Agent>
      <dc:title>Matplotlib v3.10.8, https://matplotlib.org/</dc:title>
     </cc:Agent>
    </dc:creator>
   </cc:Work>
  </rdf:RDF>
 </metadata>
 <defs>
  <style type="text/css">*{stroke-linejoin: round; stroke-linecap: butt}</style>
 </defs>
 <g id="figure_1">
  <g id="patch_1">
   <path d="M 0 568.8 
L 684.805321 568.8 
L 684.805321 0 
L 0 0 
z
" style="fill: #f8f9fa"/>
  </g>
  <g id="axes_1">
   <g id="patch_2">
    <path d="M 168.592543 130.4 
Q 342.802962 130.4 515.336331 130.4 
" clip-path="url(#pa34bba39c2)" style="fill: none; opacity: 0.6; stroke: #2563eb; stroke-width: 1.5; stroke-linecap: round"/>
    <path d="M 507.336331 126.4 
L 515.336331 130.4 
L 507.336331 134.4 
" clip-path="url(#pa34bba39c2)" style="fill: none; opacity: 0.6; stroke: #2563eb; stroke-width: 1.5; stroke-linecap: round"/>
   </g>
   <g id="patch_3">
    <path d="M 168.592543 222.8 
Q 342.802962 222.8 515.336331 222.8 
" clip-path="url(#pa34bba39c2)" style="fill: none; opacity: 0.6; stroke: #2563eb; stroke-width: 1.5; stroke-linecap: round"/>
    <path d="M 507.336331 218.8 
L 515.336331 222.8 
L 507.336331 226.8 
" clip-path="url(#pa34bba39c2)" style="fill: none; opacity: 0.6; stroke: #2563eb; stroke-width: 1.5; stroke-linecap: round"/>
   </g>
   <g id="patch_4">
    <path d="M 168.592543 315.2 
Q 342.802962 315.2 515.336331 315.2 
" clip-path="url(#pa34bba39c2)" style="fill: none; opacity: 0.6; stroke: #8b5cf6; stroke-width: 1.5; stroke-linecap: round"/>
    <path d="M 507.336331 311.2 
L 515.336331 315.2 
L 507.336331 319.2 
" clip-path="url(#pa34bba39c2)" style="fill: none; opacity: 0.6; stroke: #8b5cf6; stroke-width: 1.5; stroke-linecap: round"/>
   </g>
   <g id="patch_5">
    <path d="M 168.592543 407.6 
Q 342.802962 407.6 515.336331 407.6 
" clip-path="url(#pa34bba39c2)" style="fill: none; opacity: 0.6; stroke: #06b6d4; stroke-width: 1.5; stroke-linecap: round"/>
    <path d="M 507.336331 403.6 
L 515.336331 407.6 
L 507.336331 411.6 
" clip-path="url(#pa34bba39c2)" style="fill: none; opacity: 0.6; stroke: #06b6d4; stroke-width: 1.5; stroke-linecap: round"/>
   </g>
   <g id="patch_6">
    <path d="M 168.592543 500 
Q 342.802962 500 515.336331 500 
" clip-path="url(#pa34bba39c2)" style="fill: none; opacity: 0.6; stroke: #10b981; stroke-width: 1.5; stroke-linecap: round"/>
    <path d="M 507.336331 496 
L 515.336331 500 
L 507.336331 504 
" clip-path="url(#pa34bba39c2)" style="fill: none; opacity: 0.6; stroke: #10b981; stroke-width: 1.5; stroke-linecap: round"/>
   </g>
   <g id="patch_7">
    <path d="M -9.615732 168.9 
L 166.594794 168.9 
Q 175.405321 168.9 175.405321 161.2 
L 175.405321 99.6 
Q 175.405321 91.9 166.594794 91.9 
L -9.615732 91.9 
Q -18.426258 91.9 -18.426258 99.6 
L -18.426258 161.2 
Q -18.426258 168.9 -9.615732 168.9 
z
" clip-path="url(#pa34bba39c2)" style="fill: #2563eb; opacity: 0.2; stroke: #2563eb; stroke-width: 1.5; stroke-linejoin: miter"/>
   </g>
   <g id="patch_8">
    <path d="M 519.015847 168.9 
L 695.226373 168.9 
Q 704.0369 168.9 704.0369 161.2 
L 704.0369 99.6 
Q 704.0369 91.9 695.226373 91.9 
L 519.015847 91.9 
Q 510.205321 91.9 510.205321 99.6 
L 510.205321 161.2 
Q 510.205321 168.9 519.015847 168.9 
z
" clip-path="url(#pa34bba39c2)" style="fill: #2563eb; opacity: 0.15; stroke: #2563eb; stroke-width: 1.5; stroke-linejoin: miter"/>
   </g>
   <g id="patch_9">
    <path d="M -9.615732 261.3 
L 166.594794 261.3 
Q 175.405321 261.3 175.405321 253.6 
L 175.405321 192 
Q 175.405321 184.3 166.594794 184.3 
L -9.615732 184.3 
Q -18.426258 184.3 -18.426258 192 
L -18.426258 253.6 
Q -18.426258 261.3 -9.615732 261.3 
z
" clip-path="url(#pa34bba39c2)" style="fill: #2563eb; opacity: 0.2; stroke: #2563eb; stroke-width: 1.5; stroke-linejoin: miter"/>
   </g>
   <g id="patch_10">
    <path d="M 519.015847 261.3 
L 695.226373 261.3 
Q 704.0369 261.3 704.0369 253.6 
L 704.0369 192 
Q 704.0369 184.3 695.226373 184.3 
L 519.015847 184.3 
Q 510.205321 184.3 510.205321 192 
L 510.205321 253.6 
Q 510.205321 261.3 519.015847 261.3 
z
" clip-path="url(#pa34bba39c2)" style="fill: #2563eb; opacity: 0.15; stroke: #2563eb; stroke-width: 1.5; stroke-linejoin: miter"/>
   </g>
   <g id="patch_11">
    <path d="M -9.615732 353.7 
L 166.594794 353.7 
Q 175.405321 353.7 175.405321 346 
L 175.405321 284.4 
Q 175.405321 276.7 166.594794 276.7 
L -9.615732 276.7 
Q -18.426258 276.7 -18.426258 284.4 
L -18.426258 346 
Q -18.426258 353.7 -9.615732 353.7 
z
" clip-path="url(#pa34bba39c2)" style="fill: #8b5cf6; opacity: 0.2; stroke: #8b5cf6; stroke-width: 1.5; stroke-linejoin: miter"/>
   </g>
   <g id="patch_12">
    <path d="M 519.015847 353.7 
L 695.226373 353.7 
Q 704.0369 353.7 704.0369 346 
L 704.0369 284.4 
Q 704.0369 276.7 695.226373 276.7 
L 519.015847 276.7 
Q 510.205321 276.7 510.205321 284.4 
L 510.205321 346 
Q 510.205321 353.7 519.015847 353.7 
z
" clip-path="url(#pa34bba39c2)" style="fill: #8b5cf6; opacity: 0.15; stroke: #8b5cf6; stroke-width: 1.5; stroke-linejoin: miter"/>
   </g>
   <g id="patch_13">
    <path d="M -9.615732 446.1 
L 166.594794 446.1 
Q 175.405321 446.1 175.405321 438.4 
L 175.405321 376.8 
Q 175.405321 369.1 166.594794 369.1 
L -9.615732 369.1 
Q -18.426258 369.1 -18.426258 376.8 
L -18.426258 438.4 
Q -18.426258 446.1 -9.615732 446.1 
z
" clip-path="url(#pa34bba39c2)" style="fill: #06b6d4; opacity: 0.2; stroke: #06b6d4; stroke-width: 1.5; stroke-linejoin: miter"/>
   </g>
   <g id="patch_14">
    <path d="M 519.015847 446.1 
L 695.226373 446.1 
Q 704.0369 446.1 704.0369 438.4 
L 704.0369 376.8 
Q 704.0369 369.1 695.226373 369.1 
L 519.015847 369.1 
Q 510.205321 369.1 510.205321 376.8 
L 510.205321 438.4 
Q 510.205321 446.1 519.015847 446.1 
z
" clip-path="url(#pa34bba39c2)" style="fill: #06b6d4; opacity: 0.15; stroke: #06b6d4; stroke-width: 1.5; stroke-linejoin: miter"/>
   </g>
   <g id="patch_15">
    <path d="M -9.615732 538.5 
L 166.594794 538.5 
Q 175.405321 538.5 175.405321 530.8 
L 175.405321 469.2 
Q 175.405321 461.5 166.594794 461.5 
L -9.615732 461.5 
Q -18.426258 461.5 -18.426258 469.2 
L -18.426258 530.8 
Q -18.426258 538.5 -9.615732 538.5 
z
" clip-path="url(#pa34bba39c2)" style="fill: #10b981; opacity: 0.2; stroke: #10b981; stroke-width: 1.5; stroke-linejoin: miter"/>
   </g>
   <g id="patch_16">
    <path d="M 519.015847 538.5 
L 695.226373 538.5 
Q 704.0369 538.5 704.0369 530.8 
L 704.0369 469.2 
Q 704.0369 461.5 695.226373 461.5 
L 519.015847 461.5 
Q 510.205321 461.5 510.205321 469.2 
L 510.205321 530.8 
Q 510.205321 538.5 519.015847 538.5 
z
" clip-path="url(#pa34bba39c2)" style="fill: #10b981; opacity: 0.15; stroke: #10b981; stroke-width: 1.5; stroke-linejoin: miter"/>
   </g>
   <g id="text_1">
    <!-- Clear H1 -->
    <g style="fill: #2563eb" transform="translate(49.667031 133.71125) scale(0.12 -0.12)">
     <defs>
      <path id="DejaVuSans-Bold-43" d="M 4288 256 
Q 3956 84 3597 -3 
Q 3238 -91 2847 -91 
Q 1681 -91 1000 561 
Q 319 1213 319 2328 
Q 319 3447 1000 4098 
Q 1681 4750 2847 4750 
Q 3238 4750 3597 4662 
Q 3956 4575 4288 4403 
L 4288 3438 
Q 3953 3666 3628 3772 
Q 3303 3878 2944 3878 
Q 2300 3878 1931 3465 
Q 1563 3053 1563 2328 
Q 1563 1606 1931 1193 
Q 2300 781 2944 781 
Q 3303 781 3628 887 
Q 3953 994 4288 1222 
L 4288 256 
z
" transform="scale(0.015625)"/>
      <path id="DejaVuSans-Bold-6c" d="M 538 4863 
L 1656 4863 
L 1656 0 
L 538 0 
L 538 4863 
z
" transform="scale(0.015625)"/>
      <path id="DejaVuSans-Bold-65" d="M 4031 1759 
L 4031 1441 
L 1416 1441 
Q 1456 1047 1700 850 
Q 1944 653 2381 653 
Q 2734 653 3104 758 
Q 3475 863 3866 1075 
L 3866 213 
Q 3469 63 3072 -14 
Q 2675 -91 2278 -91 
Q 1328 -91 801 392 
Q 275 875 275 1747 
Q 275 2603 792 3093 
Q 1309 3584 2216 3584 
Q 3041 3584 3536 3087 
Q 4031 2591 4031 1759 
z
M 2881 2131 
Q 2881 2450 2695 2645 
Q 2509 2841 2209 2841 
Q 1884 2841 1681 2658 
Q 1478 2475 1428 2131 
L 2881 2131 
z
" transform="scale(0.015625)"/>
      <path id="DejaVuSans-Bold-61" d="M 2106 1575 
Q 1756 1575 1579 1456 
Q 1403 1338 1403 1106 
Q 1403 894 1545 773 
Q 1688 653 1941 653 
Q 2256 653 2472 879 
Q 2688 1106 2688 1447 
L 2688 1575 
L 2106 1575 
z
M 3816 1997 
L 3816 0 
L 2688 0 
L 2688 519 
Q 2463 200 2181 54 
Q 1900 -91 1497 -91 
Q 953 -91 614 226 
Q 275 544 275 1050 
Q 275 1666 698 1953 
Q 1122 2241 2028 2241 
L 2688 2241 
L 2688 2328 
Q 2688 2594 2478 2717 
Q 2269 2841 1825 2841 
Q 1466 2841 1156 2769 
Q 847 2697 581 2553 
L 581 3406 
Q 941 3494 1303 3539 
Q 1666 3584 2028 3584 
Q 2975 3584 3395 3211 
Q 3816 2838 3816 1997 
z
" transform="scale(0.015625)"/>
      <path id="DejaVuSans-Bold-72" d="M 3138 2547 
Q 2991 2616 2845 2648 
Q 2700 2681 2553 2681 
Q 2122 2681 1889 2404 
Q 1656 2128 1656 1613 
L 1656 0 
L 538 0 
L 538 3500 
L 1656 3500 
L 1656 2925 
Q 1872 3269 2151 3426 
Q 2431 3584 2822 3584 
Q 2878 3584 2943 3579 
Q 3009 3575 3134 3559 
L 3138 2547 
z
" transform="scale(0.015625)"/>
      <path id="DejaVuSans-Bold-20" transform="scale(0.015625)"/>
      <path id="DejaVuSans-Bold-48" d="M 588 4666 
L 1791 4666 
L 1791 2888 
L 3566 2888 
L 3566 4666 
L 4769 4666 
L 4769 0 
L 3566 0 
L 3566 1978 
L 1791 1978 
L 1791 0 
L 588 0 
L 588 4666 
z
" transform="scale(0.015625)"/>
      <path id="DejaVuSans-Bold-31" d="M 750 831 
L 1813 831 
L 1813 3847 
L 722 3622 
L 722 4441 
L 1806 4666 
L 2950 4666 
L 2950 831 
L 4013 831 
L 4013 0 
L 750 0 
L 750 831 
z
" transform="scale(0.015625)"/>
     </defs>
     <use xlink:href="#DejaVuSans-Bold-43"/>
     <use xlink:href="#DejaVuSans-Bold-6c" transform="translate(73.388672 0)"/>
     <use xlink:href="#DejaVuSans-Bold-65" transform="translate(107.666016 0)"/>
     <use xlink:href="#DejaVuSans-Bold-61" transform="translate(175.488281 0)"/>
     <use xlink:href="#DejaVuSans-Bold-72" transform="translate(242.96875 0)"/>
     <use xlink:href="#DejaVuSans-Bold-20" transform="translate(292.285156 0)"/>
     <use xlink:href="#DejaVuSans-Bold-48" transform="translate(327.099609 0)"/>
     <use xlink:href="#DejaVuSans-Bold-31" transform="translate(410.791016 0)"/>
    </g>
   </g>
   <g id="text_2">
    <!-- Featured Snippet -->
    <g style="fill: #2563eb" transform="translate(548.416735 133.71125) scale(0.12 -0.12)">
     <defs>
      <path id="DejaVuSans-Bold-46" d="M 588 4666 
L 3834 4666 
L 3834 3756 
L 1791 3756 
L 1791 2888 
L 3713 2888 
L 3713 1978 
L 1791 1978 
L 1791 0 
L 588 0 
L 588 4666 
z
" transform="scale(0.015625)"/>
      <path id="DejaVuSans-Bold-74" d="M 1759 4494 
L 1759 3500 
L 2913 3500 
L 2913 2700 
L 1759 2700 
L 1759 1216 
Q 1759 972 1856 886 
Q 1953 800 2241 800 
L 2816 800 
L 2816 0 
L 1856 0 
Q 1194 0 917 276 
Q 641 553 641 1216 
L 641 2700 
L 84 2700 
L 84 3500 
L 641 3500 
L 641 4494 
L 1759 4494 
z
" transform="scale(0.015625)"/>
      <path id="DejaVuSans-Bold-75" d="M 500 1363 
L 500 3500 
L 1625 3500 
L 1625 3150 
Q 1625 2866 1622 2436 
Q 1619 2006 1619 1863 
Q 1619 1441 1641 1255 
Q 1663 1069 1716 984 
Q 1784 875 1895 815 
Q 2006 756 2150 756 
Q 2500 756 2700 1025 
Q 2900 1294 2900 1772 
L 2900 3500 
L 4019 3500 
L 4019 0 
L 2900 0 
L 2900 506 
Q 2647 200 2364 54 
Q 2081 -91 1741 -91 
Q 1134 -91 817 281 
Q 500 653 500 1363 
z
" transform="scale(0.015625)"/>
      <path id="DejaVuSans-Bold-64" d="M 2919 2988 
L 2919 4863 
L 4044 4863 
L 4044 0 
L 2919 0 
L 2919 506 
Q 2688 197 2409 53 
Q 2131 -91 1766 -91 
Q 1119 -91 703 423 
Q 288 938 288 1747 
Q 288 2556 703 3070 
Q 1119 3584 1766 3584 
Q 2128 3584 2408 3439 
Q 2688 3294 2919 2988 
z
M 2181 722 
Q 2541 722 2730 984 
Q 2919 1247 2919 1747 
Q 2919 2247 2730 2509 
Q 2541 2772 2181 2772 
Q 1825 2772 1636 2509 
Q 1447 2247 1447 1747 
Q 1447 1247 1636 984 
Q 1825 722 2181 722 
z
" transform="scale(0.015625)"/>
      <path id="DejaVuSans-Bold-53" d="M 3834 4519 
L 3834 3531 
Q 3450 3703 3084 3790 
Q 2719 3878 2394 3878 
Q 1963 3878 1756 3759 
Q 1550 3641 1550 3391 
Q 1550 3203 1689 3098 
Q 1828 2994 2194 2919 
L 2706 2816 
Q 3484 2659 3812 2340 
Q 4141 2022 4141 1434 
Q 4141 663 3683 286 
Q 3225 -91 2284 -91 
Q 1841 -91 1394 -6 
Q 947 78 500 244 
L 500 1259 
Q 947 1022 1364 901 
Q 1781 781 2169 781 
Q 2563 781 2772 912 
Q 2981 1044 2981 1288 
Q 2981 1506 2839 1625 
Q 2697 1744 2272 1838 
L 1806 1941 
Q 1106 2091 782 2419 
Q 459 2747 459 3303 
Q 459 4000 909 4375 
Q 1359 4750 2203 4750 
Q 2588 4750 2994 4692 
Q 3400 4634 3834 4519 
z
" transform="scale(0.015625)"/>
      <path id="DejaVuSans-Bold-6e" d="M 4056 2131 
L 4056 0 
L 2931 0 
L 2931 347 
L 2931 1631 
Q 2931 2084 2911 2256 
Q 2891 2428 2841 2509 
Q 2775 2619 2662 2680 
Q 2550 2741 2406 2741 
Q 2056 2741 1856 2470 
Q 1656 2200 1656 1722 
L 1656 0 
L 538 0 
L 538 3500 
L 1656 3500 
L 1656 2988 
Q 1909 3294 2193 3439 
Q 2478 3584 2822 3584 
Q 3428 3584 3742 3212 
Q 4056 2841 4056 2131 
z
" transform="scale(0.015625)"/>
      <path id="DejaVuSans-Bold-69" d="M 538 3500 
L 1656 3500 
L 1656 0 
L 538 0 
L 538 3500 
z
M 538 4863 
L 1656 4863 
L 1656 3950 
L 538 3950 
L 538 4863 
z
" transform="scale(0.015625)"/>
      <path id="DejaVuSans-Bold-70" d="M 1656 506 
L 1656 -1331 
L 538 -1331 
L 538 3500 
L 1656 3500 
L 1656 2988 
Q 1888 3294 2169 3439 
Q 2450 3584 2816 3584 
Q 3463 3584 3878 3070 
Q 4294 2556 4294 1747 
Q 4294 938 3878 423 
Q 3463 -91 2816 -91 
Q 2450 -91 2169 54 
Q 1888 200 1656 506 
z
M 2400 2772 
Q 2041 2772 1848 2508 
Q 1656 2244 1656 1747 
Q 1656 1250 1848 986 
Q 2041 722 2400 722 
Q 2759 722 2948 984 
Q 3138 1247 3138 1747 
Q 3138 2247 2948 2509 
Q 2759 2772 2400 2772 
z
" transform="scale(0.015625)"/>
     </defs>
     <use xlink:href="#DejaVuSans-Bold-46"/>
     <use xlink:href="#DejaVuSans-Bold-65" transform="translate(64.310547 0)"/>
     <use xlink:href="#DejaVuSans-Bold-61" transform="translate(132.132812 0)"/>
     <use xlink:href="#DejaVuSans-Bold-74" transform="translate(199.613281 0)"/>
     <use xlink:href="#DejaVuSans-Bold-75" transform="translate(247.416016 0)"/>
     <use xlink:href="#DejaVuSans-Bold-72" transform="translate(318.607422 0)"/>
     <use xlink:href="#DejaVuSans-Bold-65" transform="translate(367.923828 0)"/>
     <use xlink:href="#DejaVuSans-Bold-64" transform="translate(435.746094 0)"/>
     <use xlink:href="#DejaVuSans-Bold-20" transform="translate(507.328125 0)"/>
     <use xlink:href="#DejaVuSans-Bold-53" transform="translate(542.142578 0)"/>
     <use xlink:href="#DejaVuSans-Bold-6e" transform="translate(614.164062 0)"/>
     <use xlink:href="#DejaVuSans-Bold-69" transform="translate(685.355469 0)"/>
     <use xlink:href="#DejaVuSans-Bold-70" transform="translate(719.632812 0)"/>
     <use xlink:href="#DejaVuSans-Bold-70" transform="translate(791.214844 0)"/>
     <use xlink:href="#DejaVuSans-Bold-65" transform="translate(862.796875 0)"/>
     <use xlink:href="#DejaVuSans-Bold-74" transform="translate(930.619141 0)"/>
    </g>
   </g>
   <g id="text_3">
    <!-- Direct Answer -->
    <g style="fill: #2563eb" transform="translate(30.852344 226.11125) scale(0.12 -0.12)">
     <defs>
      <path id="DejaVuSans-Bold-44" d="M 1791 3756 
L 1791 909 
L 2222 909 
Q 2959 909 3348 1275 
Q 3738 1641 3738 2338 
Q 3738 3031 3350 3393 
Q 2963 3756 2222 3756 
L 1791 3756 
z
M 588 4666 
L 1856 4666 
Q 2919 4666 3439 4514 
Q 3959 4363 4331 4000 
Q 4659 3684 4818 3271 
Q 4978 2859 4978 2338 
Q 4978 1809 4818 1395 
Q 4659 981 4331 666 
Q 3956 303 3431 151 
Q 2906 0 1856 0 
L 588 0 
L 588 4666 
z
" transform="scale(0.015625)"/>
      <path id="DejaVuSans-Bold-63" d="M 3366 3391 
L 3366 2478 
Q 3138 2634 2908 2709 
Q 2678 2784 2431 2784 
Q 1963 2784 1702 2511 
Q 1441 2238 1441 1747 
Q 1441 1256 1702 982 
Q 1963 709 2431 709 
Q 2694 709 2930 787 
Q 3166 866 3366 1019 
L 3366 103 
Q 3103 6 2833 -42 
Q 2563 -91 2291 -91 
Q 1344 -91 809 395 
Q 275 881 275 1747 
Q 275 2613 809 3098 
Q 1344 3584 2291 3584 
Q 2566 3584 2833 3536 
Q 3100 3488 3366 3391 
z
" transform="scale(0.015625)"/>
      <path id="DejaVuSans-Bold-41" d="M 3419 850 
L 1538 850 
L 1241 0 
L 31 0 
L 1759 4666 
L 3194 4666 
L 4922 0 
L 3713 0 
L 3419 850 
z
M 1838 1716 
L 3116 1716 
L 2478 3572 
L 1838 1716 
z
" transform="scale(0.015625)"/>
      <path id="DejaVuSans-Bold-73" d="M 3272 3391 
L 3272 2541 
Q 2913 2691 2578 2766 
Q 2244 2841 1947 2841 
Q 1628 2841 1473 2761 
Q 1319 2681 1319 2516 
Q 1319 2381 1436 2309 
Q 1553 2238 1856 2203 
L 2053 2175 
Q 2913 2066 3209 1816 
Q 3506 1566 3506 1031 
Q 3506 472 3093 190 
Q 2681 -91 1863 -91 
Q 1516 -91 1145 -36 
Q 775 19 384 128 
L 384 978 
Q 719 816 1070 734 
Q 1422 653 1784 653 
Q 2113 653 2278 743 
Q 2444 834 2444 1013 
Q 2444 1163 2330 1236 
Q 2216 1309 1875 1350 
L 1678 1375 
Q 931 1469 631 1722 
Q 331 1975 331 2491 
Q 331 3047 712 3315 
Q 1094 3584 1881 3584 
Q 2191 3584 2531 3537 
Q 2872 3491 3272 3391 
z
" transform="scale(0.015625)"/>
      <path id="DejaVuSans-Bold-77" d="M 225 3500 
L 1313 3500 
L 1900 1088 
L 2491 3500 
L 3425 3500 
L 4013 1113 
L 4603 3500 
L 5691 3500 
L 4769 0 
L 3547 0 
L 2956 2406 
L 2369 0 
L 1147 0 
L 225 3500 
z
" transform="scale(0.015625)"/>
     </defs>
     <use xlink:href="#DejaVuSans-Bold-44"/>
     <use xlink:href="#DejaVuSans-Bold-69" transform="translate(83.007812 0)"/>
     <use xlink:href="#DejaVuSans-Bold-72" transform="translate(117.285156 0)"/>
     <use xlink:href="#DejaVuSans-Bold-65" transform="translate(166.601562 0)"/>
     <use xlink:href="#DejaVuSans-Bold-63" transform="translate(234.423828 0)"/>
     <use xlink:href="#DejaVuSans-Bold-74" transform="translate(293.701172 0)"/>
     <use xlink:href="#DejaVuSans-Bold-20" transform="translate(341.503906 0)"/>
     <use xlink:href="#DejaVuSans-Bold-41" transform="translate(376.318359 0)"/>
     <use xlink:href="#DejaVuSans-Bold-6e" transform="translate(453.710938 0)"/>
     <use xlink:href="#DejaVuSans-Bold-73" transform="translate(524.902344 0)"/>
     <use xlink:href="#DejaVuSans-Bold-77" transform="translate(584.423828 0)"/>
     <use xlink:href="#DejaVuSans-Bold-65" transform="translate(676.806641 0)"/>
     <use xlink:href="#DejaVuSans-Bold-72" transform="translate(744.628906 0)"/>
    </g>
   </g>
   <g id="text_4">
    <!-- Featured Snippet -->
    <g style="fill: #2563eb" transform="translate(548.416735 226.11125) scale(0.12 -0.12)">
     <use xlink:href="#DejaVuSans-Bold-46"/>
     <use xlink:href="#DejaVuSans-Bold-65" transform="translate(64.310547 0)"/>
     <use xlink:href="#DejaVuSans-Bold-61" transform="translate(132.132812 0)"/>
     <use xlink:href="#DejaVuSans-Bold-74" transform="translate(199.613281 0)"/>
     <use xlink:href="#DejaVuSans-Bold-75" transform="translate(247.416016 0)"/>
     <use xlink:href="#DejaVuSans-Bold-72" transform="translate(318.607422 0)"/>
     <use xlink:href="#DejaVuSans-Bold-65" transform="translate(367.923828 0)"/>
     <use xlink:href="#DejaVuSans-Bold-64" transform="translate(435.746094 0)"/>
     <use xlink:href="#DejaVuSans-Bold-20" transform="translate(507.328125 0)"/>
     <use xlink:href="#DejaVuSans-Bold-53" transform="translate(542.142578 0)"/>
     <use xlink:href="#DejaVuSans-Bold-6e" transform="translate(614.164062 0)"/>
     <use xlink:href="#DejaVuSans-Bold-69" transform="translate(685.355469 0)"/>
     <use xlink:href="#DejaVuSans-Bold-70" transform="translate(719.632812 0)"/>
     <use xlink:href="#DejaVuSans-Bold-70" transform="translate(791.214844 0)"/>
     <use xlink:href="#DejaVuSans-Bold-65" transform="translate(862.796875 0)"/>
     <use xlink:href="#DejaVuSans-Bold-74" transform="translate(930.619141 0)"/>
    </g>
   </g>
   <g id="text_5">
    <!-- Question Format -->
    <g style="fill: #8b5cf6" transform="translate(21.961094 318.51125) scale(0.12 -0.12)">
     <defs>
      <path id="DejaVuSans-Bold-51" d="M 2847 -84 
L 2753 -84 
Q 1600 -84 959 553 
Q 319 1191 319 2328 
Q 319 3463 958 4106 
Q 1597 4750 2719 4750 
Q 3853 4750 4486 4112 
Q 5119 3475 5119 2328 
Q 5119 1541 4783 972 
Q 4447 403 3816 116 
L 4756 -934 
L 3609 -934 
L 2847 -84 
z
M 2719 3878 
Q 2169 3878 1866 3472 
Q 1563 3066 1563 2328 
Q 1563 1578 1859 1179 
Q 2156 781 2719 781 
Q 3272 781 3575 1187 
Q 3878 1594 3878 2328 
Q 3878 3066 3575 3472 
Q 3272 3878 2719 3878 
z
" transform="scale(0.015625)"/>
      <path id="DejaVuSans-Bold-6f" d="M 2203 2784 
Q 1831 2784 1636 2517 
Q 1441 2250 1441 1747 
Q 1441 1244 1636 976 
Q 1831 709 2203 709 
Q 2569 709 2762 976 
Q 2956 1244 2956 1747 
Q 2956 2250 2762 2517 
Q 2569 2784 2203 2784 
z
M 2203 3584 
Q 3106 3584 3614 3096 
Q 4122 2609 4122 1747 
Q 4122 884 3614 396 
Q 3106 -91 2203 -91 
Q 1297 -91 786 396 
Q 275 884 275 1747 
Q 275 2609 786 3096 
Q 1297 3584 2203 3584 
z
" transform="scale(0.015625)"/>
      <path id="DejaVuSans-Bold-6d" d="M 3781 2919 
Q 3994 3244 4286 3414 
Q 4578 3584 4928 3584 
Q 5531 3584 5847 3212 
Q 6163 2841 6163 2131 
L 6163 0 
L 5038 0 
L 5038 1825 
Q 5041 1866 5042 1909 
Q 5044 1953 5044 2034 
Q 5044 2406 4934 2573 
Q 4825 2741 4581 2741 
Q 4263 2741 4089 2478 
Q 3916 2216 3909 1719 
L 3909 0 
L 2784 0 
L 2784 1825 
Q 2784 2406 2684 2573 
Q 2584 2741 2328 2741 
Q 2006 2741 1831 2477 
Q 1656 2213 1656 1722 
L 1656 0 
L 531 0 
L 531 3500 
L 1656 3500 
L 1656 2988 
Q 1863 3284 2130 3434 
Q 2397 3584 2719 3584 
Q 3081 3584 3359 3409 
Q 3638 3234 3781 2919 
z
" transform="scale(0.015625)"/>
     </defs>
     <use xlink:href="#DejaVuSans-Bold-51"/>
     <use xlink:href="#DejaVuSans-Bold-75" transform="translate(85.009766 0)"/>
     <use xlink:href="#DejaVuSans-Bold-65" transform="translate(156.201172 0)"/>
     <use xlink:href="#DejaVuSans-Bold-73" transform="translate(224.023438 0)"/>
     <use xlink:href="#DejaVuSans-Bold-74" transform="translate(283.544922 0)"/>
     <use xlink:href="#DejaVuSans-Bold-69" transform="translate(331.347656 0)"/>
     <use xlink:href="#DejaVuSans-Bold-6f" transform="translate(365.625 0)"/>
     <use xlink:href="#DejaVuSans-Bold-6e" transform="translate(434.326172 0)"/>
     <use xlink:href="#DejaVuSans-Bold-20" transform="translate(505.517578 0)"/>
     <use xlink:href="#DejaVuSans-Bold-46" transform="translate(540.332031 0)"/>
     <use xlink:href="#DejaVuSans-Bold-6f" transform="translate(604.642578 0)"/>
     <use xlink:href="#DejaVuSans-Bold-72" transform="translate(673.34375 0)"/>
     <use xlink:href="#DejaVuSans-Bold-6d" transform="translate(722.660156 0)"/>
     <use xlink:href="#DejaVuSans-Bold-61" transform="translate(826.859375 0)"/>
     <use xlink:href="#DejaVuSans-Bold-74" transform="translate(894.339844 0)"/>
    </g>
   </g>
   <g id="text_6">
    <!-- People Also Ask -->
    <g style="fill: #8b5cf6" transform="translate(553.33486 318.51125) scale(0.12 -0.12)">
     <defs>
      <path id="DejaVuSans-Bold-50" d="M 588 4666 
L 2584 4666 
Q 3475 4666 3951 4270 
Q 4428 3875 4428 3144 
Q 4428 2409 3951 2014 
Q 3475 1619 2584 1619 
L 1791 1619 
L 1791 0 
L 588 0 
L 588 4666 
z
M 1791 3794 
L 1791 2491 
L 2456 2491 
Q 2806 2491 2997 2661 
Q 3188 2831 3188 3144 
Q 3188 3456 2997 3625 
Q 2806 3794 2456 3794 
L 1791 3794 
z
" transform="scale(0.015625)"/>
      <path id="DejaVuSans-Bold-6b" d="M 538 4863 
L 1656 4863 
L 1656 2216 
L 2944 3500 
L 4244 3500 
L 2534 1894 
L 4378 0 
L 3022 0 
L 1656 1459 
L 1656 0 
L 538 0 
L 538 4863 
z
" transform="scale(0.015625)"/>
     </defs>
     <use xlink:href="#DejaVuSans-Bold-50"/>
     <use xlink:href="#DejaVuSans-Bold-65" transform="translate(73.291016 0)"/>
     <use xlink:href="#DejaVuSans-Bold-6f" transform="translate(141.113281 0)"/>
     <use xlink:href="#DejaVuSans-Bold-70" transform="translate(209.814453 0)"/>
     <use xlink:href="#DejaVuSans-Bold-6c" transform="translate(281.396484 0)"/>
     <use xlink:href="#DejaVuSans-Bold-65" transform="translate(315.673828 0)"/>
     <use xlink:href="#DejaVuSans-Bold-20" transform="translate(383.496094 0)"/>
     <use xlink:href="#DejaVuSans-Bold-41" transform="translate(418.310547 0)"/>
     <use xlink:href="#DejaVuSans-Bold-6c" transform="translate(495.703125 0)"/>
     <use xlink:href="#DejaVuSans-Bold-73" transform="translate(529.980469 0)"/>
     <use xlink:href="#DejaVuSans-Bold-6f" transform="translate(589.501953 0)"/>
     <use xlink:href="#DejaVuSans-Bold-20" transform="translate(658.203125 0)"/>
     <use xlink:href="#DejaVuSans-Bold-41" transform="translate(693.017578 0)"/>
     <use xlink:href="#DejaVuSans-Bold-73" transform="translate(770.410156 0)"/>
     <use xlink:href="#DejaVuSans-Bold-6b" transform="translate(829.931641 0)"/>
    </g>
   </g>
   <g id="text_7">
    <!-- Structured Data -->
    <g style="fill: #06b6d4" transform="translate(24.016094 410.91125) scale(0.12 -0.12)">
     <use xlink:href="#DejaVuSans-Bold-53"/>
     <use xlink:href="#DejaVuSans-Bold-74" transform="translate(72.021484 0)"/>
     <use xlink:href="#DejaVuSans-Bold-72" transform="translate(119.824219 0)"/>
     <use xlink:href="#DejaVuSans-Bold-75" transform="translate(169.140625 0)"/>
     <use xlink:href="#DejaVuSans-Bold-63" transform="translate(240.332031 0)"/>
     <use xlink:href="#DejaVuSans-Bold-74" transform="translate(299.609375 0)"/>
     <use xlink:href="#DejaVuSans-Bold-75" transform="translate(347.412109 0)"/>
     <use xlink:href="#DejaVuSans-Bold-72" transform="translate(418.603516 0)"/>
     <use xlink:href="#DejaVuSans-Bold-65" transform="translate(467.919922 0)"/>
     <use xlink:href="#DejaVuSans-Bold-64" transform="translate(535.742188 0)"/>
     <use xlink:href="#DejaVuSans-Bold-20" transform="translate(607.324219 0)"/>
     <use xlink:href="#DejaVuSans-Bold-44" transform="translate(642.138672 0)"/>
     <use xlink:href="#DejaVuSans-Bold-61" transform="translate(725.146484 0)"/>
     <use xlink:href="#DejaVuSans-Bold-74" transform="translate(792.626953 0)"/>
     <use xlink:href="#DejaVuSans-Bold-61" transform="translate(840.429688 0)"/>
    </g>
   </g>
   <g id="text_8">
    <!-- Knowledge Panel -->
    <g style="fill: #06b6d4" transform="translate(548.97361 410.864375) scale(0.12 -0.12)">
     <defs>
      <path id="DejaVuSans-Bold-4b" d="M 588 4666 
L 1791 4666 
L 1791 2963 
L 3525 4666 
L 4922 4666 
L 2675 2456 
L 5153 0 
L 3647 0 
L 1791 1838 
L 1791 0 
L 588 0 
L 588 4666 
z
" transform="scale(0.015625)"/>
      <path id="DejaVuSans-Bold-67" d="M 2919 594 
Q 2688 288 2409 144 
Q 2131 0 1766 0 
Q 1125 0 706 504 
Q 288 1009 288 1791 
Q 288 2575 706 3076 
Q 1125 3578 1766 3578 
Q 2131 3578 2409 3434 
Q 2688 3291 2919 2981 
L 2919 3500 
L 4044 3500 
L 4044 353 
Q 4044 -491 3511 -936 
Q 2978 -1381 1966 -1381 
Q 1638 -1381 1331 -1331 
Q 1025 -1281 716 -1178 
L 716 -306 
Q 1009 -475 1290 -558 
Q 1572 -641 1856 -641 
Q 2406 -641 2662 -400 
Q 2919 -159 2919 353 
L 2919 594 
z
M 2181 2772 
Q 1834 2772 1640 2515 
Q 1447 2259 1447 1791 
Q 1447 1309 1634 1061 
Q 1822 813 2181 813 
Q 2531 813 2725 1069 
Q 2919 1325 2919 1791 
Q 2919 2259 2725 2515 
Q 2531 2772 2181 2772 
z
" transform="scale(0.015625)"/>
     </defs>
     <use xlink:href="#DejaVuSans-Bold-4b"/>
     <use xlink:href="#DejaVuSans-Bold-6e" transform="translate(77.490234 0)"/>
     <use xlink:href="#DejaVuSans-Bold-6f" transform="translate(148.681641 0)"/>
     <use xlink:href="#DejaVuSans-Bold-77" transform="translate(217.382812 0)"/>
     <use xlink:href="#DejaVuSans-Bold-6c" transform="translate(309.765625 0)"/>
     <use xlink:href="#DejaVuSans-Bold-65" transform="translate(344.042969 0)"/>
     <use xlink:href="#DejaVuSans-Bold-64" transform="translate(411.865234 0)"/>
     <use xlink:href="#DejaVuSans-Bold-67" transform="translate(483.447266 0)"/>
     <use xlink:href="#DejaVuSans-Bold-65" transform="translate(555.029297 0)"/>
     <use xlink:href="#DejaVuSans-Bold-20" transform="translate(622.851562 0)"/>
     <use xlink:href="#DejaVuSans-Bold-50" transform="translate(657.666016 0)"/>
     <use xlink:href="#DejaVuSans-Bold-61" transform="translate(728.332031 0)"/>
     <use xlink:href="#DejaVuSans-Bold-6e" transform="translate(795.8125 0)"/>
     <use xlink:href="#DejaVuSans-Bold-65" transform="translate(867.003906 0)"/>
     <use xlink:href="#DejaVuSans-Bold-6c" transform="translate(934.826172 0)"/>
    </g>
   </g>
   <g id="text_9">
    <!-- Optimized Images -->
    <g style="fill: #10b981" transform="translate(17.446094 503.264375) scale(0.12 -0.12)">
     <defs>
      <path id="DejaVuSans-Bold-4f" d="M 2719 3878 
Q 2169 3878 1866 3472 
Q 1563 3066 1563 2328 
Q 1563 1594 1866 1187 
Q 2169 781 2719 781 
Q 3272 781 3575 1187 
Q 3878 1594 3878 2328 
Q 3878 3066 3575 3472 
Q 3272 3878 2719 3878 
z
M 2719 4750 
Q 3844 4750 4481 4106 
Q 5119 3463 5119 2328 
Q 5119 1197 4481 553 
Q 3844 -91 2719 -91 
Q 1597 -91 958 553 
Q 319 1197 319 2328 
Q 319 3463 958 4106 
Q 1597 4750 2719 4750 
z
" transform="scale(0.015625)"/>
      <path id="DejaVuSans-Bold-7a" d="M 366 3500 
L 3419 3500 
L 3419 2719 
L 1575 800 
L 3419 800 
L 3419 0 
L 288 0 
L 288 781 
L 2131 2700 
L 366 2700 
L 366 3500 
z
" transform="scale(0.015625)"/>
      <path id="DejaVuSans-Bold-49" d="M 588 4666 
L 1791 4666 
L 1791 0 
L 588 0 
L 588 4666 
z
" transform="scale(0.015625)"/>
     </defs>
     <use xlink:href="#DejaVuSans-Bold-4f"/>
     <use xlink:href="#DejaVuSans-Bold-70" transform="translate(85.009766 0)"/>
     <use xlink:href="#DejaVuSans-Bold-74" transform="translate(156.591797 0)"/>
     <use xlink:href="#DejaVuSans-Bold-69" transform="translate(204.394531 0)"/>
     <use xlink:href="#DejaVuSans-Bold-6d" transform="translate(238.671875 0)"/>
     <use xlink:href="#DejaVuSans-Bold-69" transform="translate(342.871094 0)"/>
     <use xlink:href="#DejaVuSans-Bold-7a" transform="translate(377.148438 0)"/>
     <use xlink:href="#DejaVuSans-Bold-65" transform="translate(435.351562 0)"/>
     <use xlink:href="#DejaVuSans-Bold-64" transform="translate(503.173828 0)"/>
     <use xlink:href="#DejaVuSans-Bold-20" transform="translate(574.755859 0)"/>
     <use xlink:href="#DejaVuSans-Bold-49" transform="translate(609.570312 0)"/>
     <use xlink:href="#DejaVuSans-Bold-6d" transform="translate(646.777344 0)"/>
     <use xlink:href="#DejaVuSans-Bold-61" transform="translate(750.976562 0)"/>
     <use xlink:href="#DejaVuSans-Bold-67" transform="translate(818.457031 0)"/>
     <use xlink:href="#DejaVuSans-Bold-65" transform="translate(890.039062 0)"/>
     <use xlink:href="#DejaVuSans-Bold-73" transform="translate(957.861328 0)"/>
    </g>
   </g>
   <g id="text_10">
    <!-- Image Pack -->
    <g style="fill: #10b981" transform="translate(568.298298 503.264375) scale(0.12 -0.12)">
     <use xlink:href="#DejaVuSans-Bold-49"/>
     <use xlink:href="#DejaVuSans-Bold-6d" transform="translate(37.207031 0)"/>
     <use xlink:href="#DejaVuSans-Bold-61" transform="translate(141.40625 0)"/>
     <use xlink:href="#DejaVuSans-Bold-67" transform="translate(208.886719 0)"/>
     <use xlink:href="#DejaVuSans-Bold-65" transform="translate(280.46875 0)"/>
     <use xlink:href="#DejaVuSans-Bold-20" transform="translate(348.291016 0)"/>
     <use xlink:href="#DejaVuSans-Bold-50" transform="translate(383.105469 0)"/>
     <use xlink:href="#DejaVuSans-Bold-61" transform="translate(453.771484 0)"/>
     <use xlink:href="#DejaVuSans-Bold-63" transform="translate(521.251953 0)"/>
     <use xlink:href="#DejaVuSans-Bold-6b" transform="translate(580.529297 0)"/>
    </g>
   </g>
   <g id="text_11">
    <!-- Content Structure -->
    <g style="fill: #1f2937" transform="translate(7.2 65.888438) scale(0.14 -0.14)">
     <use xlink:href="#DejaVuSans-Bold-43"/>
     <use xlink:href="#DejaVuSans-Bold-6f" transform="translate(73.388672 0)"/>
     <use xlink:href="#DejaVuSans-Bold-6e" transform="translate(142.089844 0)"/>
     <use xlink:href="#DejaVuSans-Bold-74" transform="translate(213.28125 0)"/>
     <use xlink:href="#DejaVuSans-Bold-65" transform="translate(261.083984 0)"/>
     <use xlink:href="#DejaVuSans-Bold-6e" transform="translate(328.90625 0)"/>
     <use xlink:href="#DejaVuSans-Bold-74" transform="translate(400.097656 0)"/>
     <use xlink:href="#DejaVuSans-Bold-20" transform="translate(447.900391 0)"/>
     <use xlink:href="#DejaVuSans-Bold-53" transform="translate(482.714844 0)"/>
     <use xlink:href="#DejaVuSans-Bold-74" transform="translate(554.736328 0)"/>
     <use xlink:href="#DejaVuSans-Bold-72" transform="translate(602.539062 0)"/>
     <use xlink:href="#DejaVuSans-Bold-75" transform="translate(651.855469 0)"/>
     <use xlink:href="#DejaVuSans-Bold-63" transform="translate(723.046875 0)"/>
     <use xlink:href="#DejaVuSans-Bold-74" transform="translate(782.324219 0)"/>
     <use xlink:href="#DejaVuSans-Bold-75" transform="translate(830.126953 0)"/>
     <use xlink:href="#DejaVuSans-Bold-72" transform="translate(901.318359 0)"/>
     <use xlink:href="#DejaVuSans-Bold-65" transform="translate(950.634766 0)"/>
    </g>
   </g>
   <g id="text_12">
    <!-- Feature Eligibility -->
    <g style="fill: #1f2937" transform="translate(537.071891 65.779063) scale(0.14 -0.14)">
     <defs>
      <path id="DejaVuSans-Bold-45" d="M 588 4666 
L 3834 4666 
L 3834 3756 
L 1791 3756 
L 1791 2888 
L 3713 2888 
L 3713 1978 
L 1791 1978 
L 1791 909 
L 3903 909 
L 3903 0 
L 588 0 
L 588 4666 
z
" transform="scale(0.015625)"/>
      <path id="DejaVuSans-Bold-62" d="M 2400 722 
Q 2759 722 2948 984 
Q 3138 1247 3138 1747 
Q 3138 2247 2948 2509 
Q 2759 2772 2400 2772 
Q 2041 2772 1848 2508 
Q 1656 2244 1656 1747 
Q 1656 1250 1848 986 
Q 2041 722 2400 722 
z
M 1656 2988 
Q 1888 3294 2169 3439 
Q 2450 3584 2816 3584 
Q 3463 3584 3878 3070 
Q 4294 2556 4294 1747 
Q 4294 938 3878 423 
Q 3463 -91 2816 -91 
Q 2450 -91 2169 54 
Q 1888 200 1656 506 
L 1656 0 
L 538 0 
L 538 4863 
L 1656 4863 
L 1656 2988 
z
" transform="scale(0.015625)"/>
      <path id="DejaVuSans-Bold-79" d="M 78 3500 
L 1197 3500 
L 2138 1125 
L 2938 3500 
L 4056 3500 
L 2584 -331 
Q 2363 -916 2067 -1148 
Q 1772 -1381 1288 -1381 
L 641 -1381 
L 641 -647 
L 991 -647 
Q 1275 -647 1404 -556 
Q 1534 -466 1606 -231 
L 1638 -134 
L 78 3500 
z
" transform="scale(0.015625)"/>
     </defs>
     <use xlink:href="#DejaVuSans-Bold-46"/>
     <use xlink:href="#DejaVuSans-Bold-65" transform="translate(64.310547 0)"/>
     <use xlink:href="#DejaVuSans-Bold-61" transform="translate(132.132812 0)"/>
     <use xlink:href="#DejaVuSans-Bold-74" transform="translate(199.613281 0)"/>
     <use xlink:href="#DejaVuSans-Bold-75" transform="translate(247.416016 0)"/>
     <use xlink:href="#DejaVuSans-Bold-72" transform="translate(318.607422 0)"/>
     <use xlink:href="#DejaVuSans-Bold-65" transform="translate(367.923828 0)"/>
     <use xlink:href="#DejaVuSans-Bold-20" transform="translate(435.746094 0)"/>
     <use xlink:href="#DejaVuSans-Bold-45" transform="translate(470.560547 0)"/>
     <use xlink:href="#DejaVuSans-Bold-6c" transform="translate(538.871094 0)"/>
     <use xlink:href="#DejaVuSans-Bold-69" transform="translate(573.148438 0)"/>
     <use xlink:href="#DejaVuSans-Bold-67" transform="translate(607.425781 0)"/>
     <use xlink:href="#DejaVuSans-Bold-69" transform="translate(679.007812 0)"/>
     <use xlink:href="#DejaVuSans-Bold-62" transform="translate(713.285156 0)"/>
     <use xlink:href="#DejaVuSans-Bold-69" transform="translate(784.867188 0)"/>
     <use xlink:href="#DejaVuSans-Bold-6c" transform="translate(819.144531 0)"/>
     <use xlink:href="#DejaVuSans-Bold-69" transform="translate(853.421875 0)"/>
     <use xlink:href="#DejaVuSans-Bold-74" transform="translate(887.699219 0)"/>
     <use xlink:href="#DejaVuSans-Bold-79" transform="translate(935.501953 0)"/>
    </g>
   </g>
  </g>
 </g>
 <defs>
  <clipPath id="pa34bba39c2">
   <rect x="8.005321" y="7.2" width="669.6" height="554.4"/>
  </clipPath>
 </defs>
</svg>
