<?xml version="1.0" encoding="utf-8" standalone="no"?>
<!DOCTYPE svg PUBLIC "-//W3C//DTD SVG 1.1//EN"
  "http://www.w3.org/Graphics/SVG/1.1/DTD/svg11.dtd">
<svg xmlns:xlink="http://www.w3.org/1999/xlink" width="864pt" height="720pt" viewBox="0 0 864 720" xmlns="http://www.w3.org/2000/svg" version="1.1">
 <metadata>
  <rdf:RDF xmlns:dc="http://purl.org/dc/elements/1.1/" xmlns:cc="http://creativecommons.org/ns#" xmlns:rdf="http://www.w3.org/1999/02/22-rdf-syntax-ns#">
   <cc:Work>
    <dc:type rdf:resource="http://purl.org/dc/dcmitype/StillImage"/>
    <dc:date>2025-12-27T10:17:12.129701</dc:date>
    <dc:format>image/svg+xml</dc:format>
    <dc:creator>
     <cc:Agent>
      <dc:title>Matplotlib v3.10.8, https://matplotlib.org/</dc:title>
     </cc:Agent>
    </dc:creator>
   </cc:Work>
  </rdf:RDF>
 </metadata>
 <defs>
  <style type="text/css">*{stroke-linejoin: round; stroke-linecap: butt}</style>
 </defs>
 <g id="figure_1">
  <g id="patch_1">
   <path d="M 0 720 
L 864 720 
L 864 0 
L 0 0 
z
" style="fill: #f8f9fa"/>
  </g>
  <g id="axes_1">
   <g id="line2d_1">
    <path d="M 442.8 640.8 
L 442.8 86.4 
" clip-path="url(#pb4642e464f)" style="fill: none; stroke-dasharray: 3.7,1.6; stroke-dashoffset: 0; stroke: #6b7280; stroke-opacity: 0.5"/>
   </g>
   <g id="line2d_2">
    <path d="M 108 363.6 
L 777.6 363.6 
" clip-path="url(#pb4642e464f)" style="fill: none; stroke-dasharray: 3.7,1.6; stroke-dashoffset: 0; stroke: #6b7280; stroke-opacity: 0.5"/>
   </g>
   <g id="patch_2">
    <path d="M 442.8 363.6 
L 652.05 363.6 
L 652.05 190.35 
L 442.8 190.35 
z
" clip-path="url(#pb4642e464f)" style="fill: #10b981; opacity: 0.2; stroke: #10b981; stroke-width: 1.5; stroke-linejoin: miter"/>
   </g>
   <g id="patch_3">
    <path d="M 233.55 363.6 
L 442.8 363.6 
L 442.8 190.35 
L 233.55 190.35 
z
" clip-path="url(#pb4642e464f)" style="fill: #fbbf24; opacity: 0.2; stroke: #fbbf24; stroke-width: 1.5; stroke-linejoin: miter"/>
   </g>
   <g id="patch_4">
    <path d="M 442.8 536.85 
L 652.05 536.85 
L 652.05 363.6 
L 442.8 363.6 
z
" clip-path="url(#pb4642e464f)" style="fill: #fbbf24; opacity: 0.2; stroke: #fbbf24; stroke-width: 1.5; stroke-linejoin: miter"/>
   </g>
   <g id="patch_5">
    <path d="M 233.55 536.85 
L 442.8 536.85 
L 442.8 363.6 
L 233.55 363.6 
z
" clip-path="url(#pb4642e464f)" style="fill: #ef4444; opacity: 0.2; stroke: #ef4444; stroke-width: 1.5; stroke-linejoin: miter"/>
   </g>
   <g id="text_1">
    <!-- Prioritize -->
    <g style="fill: #10b981" transform="translate(511.214219 234.638125) scale(0.14 -0.14)">
     <defs>
      <path id="DejaVuSans-Bold-50" d="M 588 4666 
L 2584 4666 
Q 3475 4666 3951 4270 
Q 4428 3875 4428 3144 
Q 4428 2409 3951 2014 
Q 3475 1619 2584 1619 
L 1791 1619 
L 1791 0 
L 588 0 
L 588 4666 
z
M 1791 3794 
L 1791 2491 
L 2456 2491 
Q 2806 2491 2997 2661 
Q 3188 2831 3188 3144 
Q 3188 3456 2997 3625 
Q 2806 3794 2456 3794 
L 1791 3794 
z
" transform="scale(0.015625)"/>
      <path id="DejaVuSans-Bold-72" d="M 3138 2547 
Q 2991 2616 2845 2648 
Q 2700 2681 2553 2681 
Q 2122 2681 1889 2404 
Q 1656 2128 1656 1613 
L 1656 0 
L 538 0 
L 538 3500 
L 1656 3500 
L 1656 2925 
Q 1872 3269 2151 3426 
Q 2431 3584 2822 3584 
Q 2878 3584 2943 3579 
Q 3009 3575 3134 3559 
L 3138 2547 
z
" transform="scale(0.015625)"/>
      <path id="DejaVuSans-Bold-69" d="M 538 3500 
L 1656 3500 
L 1656 0 
L 538 0 
L 538 3500 
z
M 538 4863 
L 1656 4863 
L 1656 3950 
L 538 3950 
L 538 4863 
z
" transform="scale(0.015625)"/>
      <path id="DejaVuSans-Bold-6f" d="M 2203 2784 
Q 1831 2784 1636 2517 
Q 1441 2250 1441 1747 
Q 1441 1244 1636 976 
Q 1831 709 2203 709 
Q 2569 709 2762 976 
Q 2956 1244 2956 1747 
Q 2956 2250 2762 2517 
Q 2569 2784 2203 2784 
z
M 2203 3584 
Q 3106 3584 3614 3096 
Q 4122 2609 4122 1747 
Q 4122 884 3614 396 
Q 3106 -91 2203 -91 
Q 1297 -91 786 396 
Q 275 884 275 1747 
Q 275 2609 786 3096 
Q 1297 3584 2203 3584 
z
" transform="scale(0.015625)"/>
      <path id="DejaVuSans-Bold-74" d="M 1759 4494 
L 1759 3500 
L 2913 3500 
L 2913 2700 
L 1759 2700 
L 1759 1216 
Q 1759 972 1856 886 
Q 1953 800 2241 800 
L 2816 800 
L 2816 0 
L 1856 0 
Q 1194 0 917 276 
Q 641 553 641 1216 
L 641 2700 
L 84 2700 
L 84 3500 
L 641 3500 
L 641 4494 
L 1759 4494 
z
" transform="scale(0.015625)"/>
      <path id="DejaVuSans-Bold-7a" d="M 366 3500 
L 3419 3500 
L 3419 2719 
L 1575 800 
L 3419 800 
L 3419 0 
L 288 0 
L 288 781 
L 2131 2700 
L 366 2700 
L 366 3500 
z
" transform="scale(0.015625)"/>
      <path id="DejaVuSans-Bold-65" d="M 4031 1759 
L 4031 1441 
L 1416 1441 
Q 1456 1047 1700 850 
Q 1944 653 2381 653 
Q 2734 653 3104 758 
Q 3475 863 3866 1075 
L 3866 213 
Q 3469 63 3072 -14 
Q 2675 -91 2278 -91 
Q 1328 -91 801 392 
Q 275 875 275 1747 
Q 275 2603 792 3093 
Q 1309 3584 2216 3584 
Q 3041 3584 3536 3087 
Q 4031 2591 4031 1759 
z
M 2881 2131 
Q 2881 2450 2695 2645 
Q 2509 2841 2209 2841 
Q 1884 2841 1681 2658 
Q 1478 2475 1428 2131 
L 2881 2131 
z
" transform="scale(0.015625)"/>
     </defs>
     <use xlink:href="#DejaVuSans-Bold-50"/>
     <use xlink:href="#DejaVuSans-Bold-72" transform="translate(73.291016 0)"/>
     <use xlink:href="#DejaVuSans-Bold-69" transform="translate(122.607422 0)"/>
     <use xlink:href="#DejaVuSans-Bold-6f" transform="translate(156.884766 0)"/>
     <use xlink:href="#DejaVuSans-Bold-72" transform="translate(225.585938 0)"/>
     <use xlink:href="#DejaVuSans-Bold-69" transform="translate(274.902344 0)"/>
     <use xlink:href="#DejaVuSans-Bold-74" transform="translate(309.179688 0)"/>
     <use xlink:href="#DejaVuSans-Bold-69" transform="translate(356.982422 0)"/>
     <use xlink:href="#DejaVuSans-Bold-7a" transform="translate(391.259766 0)"/>
     <use xlink:href="#DejaVuSans-Bold-65" transform="translate(449.462891 0)"/>
    </g>
   </g>
   <g id="text_2">
    <!-- High Relevance -->
    <g style="fill: #4b5563" transform="translate(508.534375 274.135469) scale(0.1 -0.1)">
     <defs>
      <path id="DejaVuSans-48" d="M 628 4666 
L 1259 4666 
L 1259 2753 
L 3553 2753 
L 3553 4666 
L 4184 4666 
L 4184 0 
L 3553 0 
L 3553 2222 
L 1259 2222 
L 1259 0 
L 628 0 
L 628 4666 
z
" transform="scale(0.015625)"/>
      <path id="DejaVuSans-69" d="M 603 3500 
L 1178 3500 
L 1178 0 
L 603 0 
L 603 3500 
z
M 603 4863 
L 1178 4863 
L 1178 4134 
L 603 4134 
L 603 4863 
z
" transform="scale(0.015625)"/>
      <path id="DejaVuSans-67" d="M 2906 1791 
Q 2906 2416 2648 2759 
Q 2391 3103 1925 3103 
Q 1463 3103 1205 2759 
Q 947 2416 947 1791 
Q 947 1169 1205 825 
Q 1463 481 1925 481 
Q 2391 481 2648 825 
Q 2906 1169 2906 1791 
z
M 3481 434 
Q 3481 -459 3084 -895 
Q 2688 -1331 1869 -1331 
Q 1566 -1331 1297 -1286 
Q 1028 -1241 775 -1147 
L 775 -588 
Q 1028 -725 1275 -790 
Q 1522 -856 1778 -856 
Q 2344 -856 2625 -561 
Q 2906 -266 2906 331 
L 2906 616 
Q 2728 306 2450 153 
Q 2172 0 1784 0 
Q 1141 0 747 490 
Q 353 981 353 1791 
Q 353 2603 747 3093 
Q 1141 3584 1784 3584 
Q 2172 3584 2450 3431 
Q 2728 3278 2906 2969 
L 2906 3500 
L 3481 3500 
L 3481 434 
z
" transform="scale(0.015625)"/>
      <path id="DejaVuSans-68" d="M 3513 2113 
L 3513 0 
L 2938 0 
L 2938 2094 
Q 2938 2591 2744 2837 
Q 2550 3084 2163 3084 
Q 1697 3084 1428 2787 
Q 1159 2491 1159 1978 
L 1159 0 
L 581 0 
L 581 4863 
L 1159 4863 
L 1159 2956 
Q 1366 3272 1645 3428 
Q 1925 3584 2291 3584 
Q 2894 3584 3203 3211 
Q 3513 2838 3513 2113 
z
" transform="scale(0.015625)"/>
      <path id="DejaVuSans-20" transform="scale(0.015625)"/>
      <path id="DejaVuSans-52" d="M 2841 2188 
Q 3044 2119 3236 1894 
Q 3428 1669 3622 1275 
L 4263 0 
L 3584 0 
L 2988 1197 
Q 2756 1666 2539 1819 
Q 2322 1972 1947 1972 
L 1259 1972 
L 1259 0 
L 628 0 
L 628 4666 
L 2053 4666 
Q 2853 4666 3247 4331 
Q 3641 3997 3641 3322 
Q 3641 2881 3436 2590 
Q 3231 2300 2841 2188 
z
M 1259 4147 
L 1259 2491 
L 2053 2491 
Q 2509 2491 2742 2702 
Q 2975 2913 2975 3322 
Q 2975 3731 2742 3939 
Q 2509 4147 2053 4147 
L 1259 4147 
z
" transform="scale(0.015625)"/>
      <path id="DejaVuSans-65" d="M 3597 1894 
L 3597 1613 
L 953 1613 
Q 991 1019 1311 708 
Q 1631 397 2203 397 
Q 2534 397 2845 478 
Q 3156 559 3463 722 
L 3463 178 
Q 3153 47 2828 -22 
Q 2503 -91 2169 -91 
Q 1331 -91 842 396 
Q 353 884 353 1716 
Q 353 2575 817 3079 
Q 1281 3584 2069 3584 
Q 2775 3584 3186 3129 
Q 3597 2675 3597 1894 
z
M 3022 2063 
Q 3016 2534 2758 2815 
Q 2500 3097 2075 3097 
Q 1594 3097 1305 2825 
Q 1016 2553 972 2059 
L 3022 2063 
z
" transform="scale(0.015625)"/>
      <path id="DejaVuSans-6c" d="M 603 4863 
L 1178 4863 
L 1178 0 
L 603 0 
L 603 4863 
z
" transform="scale(0.015625)"/>
      <path id="DejaVuSans-76" d="M 191 3500 
L 800 3500 
L 1894 563 
L 2988 3500 
L 3597 3500 
L 2284 0 
L 1503 0 
L 191 3500 
z
" transform="scale(0.015625)"/>
      <path id="DejaVuSans-61" d="M 2194 1759 
Q 1497 1759 1228 1600 
Q 959 1441 959 1056 
Q 959 750 1161 570 
Q 1363 391 1709 391 
Q 2188 391 2477 730 
Q 2766 1069 2766 1631 
L 2766 1759 
L 2194 1759 
z
M 3341 1997 
L 3341 0 
L 2766 0 
L 2766 531 
Q 2569 213 2275 61 
Q 1981 -91 1556 -91 
Q 1019 -91 701 211 
Q 384 513 384 1019 
Q 384 1609 779 1909 
Q 1175 2209 1959 2209 
L 2766 2209 
L 2766 2266 
Q 2766 2663 2505 2880 
Q 2244 3097 1772 3097 
Q 1472 3097 1187 3025 
Q 903 2953 641 2809 
L 641 3341 
Q 956 3463 1253 3523 
Q 1550 3584 1831 3584 
Q 2591 3584 2966 3190 
Q 3341 2797 3341 1997 
z
" transform="scale(0.015625)"/>
      <path id="DejaVuSans-6e" d="M 3513 2113 
L 3513 0 
L 2938 0 
L 2938 2094 
Q 2938 2591 2744 2837 
Q 2550 3084 2163 3084 
Q 1697 3084 1428 2787 
Q 1159 2491 1159 1978 
L 1159 0 
L 581 0 
L 581 3500 
L 1159 3500 
L 1159 2956 
Q 1366 3272 1645 3428 
Q 1925 3584 2291 3584 
Q 2894 3584 3203 3211 
Q 3513 2838 3513 2113 
z
" transform="scale(0.015625)"/>
      <path id="DejaVuSans-63" d="M 3122 3366 
L 3122 2828 
Q 2878 2963 2633 3030 
Q 2388 3097 2138 3097 
Q 1578 3097 1268 2742 
Q 959 2388 959 1747 
Q 959 1106 1268 751 
Q 1578 397 2138 397 
Q 2388 397 2633 464 
Q 2878 531 3122 666 
L 3122 134 
Q 2881 22 2623 -34 
Q 2366 -91 2075 -91 
Q 1284 -91 818 406 
Q 353 903 353 1747 
Q 353 2603 823 3093 
Q 1294 3584 2113 3584 
Q 2378 3584 2631 3529 
Q 2884 3475 3122 3366 
z
" transform="scale(0.015625)"/>
     </defs>
     <use xlink:href="#DejaVuSans-48"/>
     <use xlink:href="#DejaVuSans-69" transform="translate(75.195312 0)"/>
     <use xlink:href="#DejaVuSans-67" transform="translate(102.978516 0)"/>
     <use xlink:href="#DejaVuSans-68" transform="translate(166.455078 0)"/>
     <use xlink:href="#DejaVuSans-20" transform="translate(229.833984 0)"/>
     <use xlink:href="#DejaVuSans-52" transform="translate(261.621094 0)"/>
     <use xlink:href="#DejaVuSans-65" transform="translate(326.603516 0)"/>
     <use xlink:href="#DejaVuSans-6c" transform="translate(388.126953 0)"/>
     <use xlink:href="#DejaVuSans-65" transform="translate(415.910156 0)"/>
     <use xlink:href="#DejaVuSans-76" transform="translate(477.433594 0)"/>
     <use xlink:href="#DejaVuSans-61" transform="translate(536.613281 0)"/>
     <use xlink:href="#DejaVuSans-6e" transform="translate(597.892578 0)"/>
     <use xlink:href="#DejaVuSans-63" transform="translate(661.271484 0)"/>
     <use xlink:href="#DejaVuSans-65" transform="translate(716.251953 0)"/>
    </g>
    <!-- High Opportunity -->
    <g style="fill: #4b5563" transform="translate(504.338281 285.333281) scale(0.1 -0.1)">
     <defs>
      <path id="DejaVuSans-4f" d="M 2522 4238 
Q 1834 4238 1429 3725 
Q 1025 3213 1025 2328 
Q 1025 1447 1429 934 
Q 1834 422 2522 422 
Q 3209 422 3611 934 
Q 4013 1447 4013 2328 
Q 4013 3213 3611 3725 
Q 3209 4238 2522 4238 
z
M 2522 4750 
Q 3503 4750 4090 4092 
Q 4678 3434 4678 2328 
Q 4678 1225 4090 567 
Q 3503 -91 2522 -91 
Q 1538 -91 948 565 
Q 359 1222 359 2328 
Q 359 3434 948 4092 
Q 1538 4750 2522 4750 
z
" transform="scale(0.015625)"/>
      <path id="DejaVuSans-70" d="M 1159 525 
L 1159 -1331 
L 581 -1331 
L 581 3500 
L 1159 3500 
L 1159 2969 
Q 1341 3281 1617 3432 
Q 1894 3584 2278 3584 
Q 2916 3584 3314 3078 
Q 3713 2572 3713 1747 
Q 3713 922 3314 415 
Q 2916 -91 2278 -91 
Q 1894 -91 1617 61 
Q 1341 213 1159 525 
z
M 3116 1747 
Q 3116 2381 2855 2742 
Q 2594 3103 2138 3103 
Q 1681 3103 1420 2742 
Q 1159 2381 1159 1747 
Q 1159 1113 1420 752 
Q 1681 391 2138 391 
Q 2594 391 2855 752 
Q 3116 1113 3116 1747 
z
" transform="scale(0.015625)"/>
      <path id="DejaVuSans-6f" d="M 1959 3097 
Q 1497 3097 1228 2736 
Q 959 2375 959 1747 
Q 959 1119 1226 758 
Q 1494 397 1959 397 
Q 2419 397 2687 759 
Q 2956 1122 2956 1747 
Q 2956 2369 2687 2733 
Q 2419 3097 1959 3097 
z
M 1959 3584 
Q 2709 3584 3137 3096 
Q 3566 2609 3566 1747 
Q 3566 888 3137 398 
Q 2709 -91 1959 -91 
Q 1206 -91 779 398 
Q 353 888 353 1747 
Q 353 2609 779 3096 
Q 1206 3584 1959 3584 
z
" transform="scale(0.015625)"/>
      <path id="DejaVuSans-72" d="M 2631 2963 
Q 2534 3019 2420 3045 
Q 2306 3072 2169 3072 
Q 1681 3072 1420 2755 
Q 1159 2438 1159 1844 
L 1159 0 
L 581 0 
L 581 3500 
L 1159 3500 
L 1159 2956 
Q 1341 3275 1631 3429 
Q 1922 3584 2338 3584 
Q 2397 3584 2469 3576 
Q 2541 3569 2628 3553 
L 2631 2963 
z
" transform="scale(0.015625)"/>
      <path id="DejaVuSans-74" d="M 1172 4494 
L 1172 3500 
L 2356 3500 
L 2356 3053 
L 1172 3053 
L 1172 1153 
Q 1172 725 1289 603 
Q 1406 481 1766 481 
L 2356 481 
L 2356 0 
L 1766 0 
Q 1100 0 847 248 
Q 594 497 594 1153 
L 594 3053 
L 172 3053 
L 172 3500 
L 594 3500 
L 594 4494 
L 1172 4494 
z
" transform="scale(0.015625)"/>
      <path id="DejaVuSans-75" d="M 544 1381 
L 544 3500 
L 1119 3500 
L 1119 1403 
Q 1119 906 1312 657 
Q 1506 409 1894 409 
Q 2359 409 2629 706 
Q 2900 1003 2900 1516 
L 2900 3500 
L 3475 3500 
L 3475 0 
L 2900 0 
L 2900 538 
Q 2691 219 2414 64 
Q 2138 -91 1772 -91 
Q 1169 -91 856 284 
Q 544 659 544 1381 
z
M 1991 3584 
L 1991 3584 
z
" transform="scale(0.015625)"/>
      <path id="DejaVuSans-79" d="M 2059 -325 
Q 1816 -950 1584 -1140 
Q 1353 -1331 966 -1331 
L 506 -1331 
L 506 -850 
L 844 -850 
Q 1081 -850 1212 -737 
Q 1344 -625 1503 -206 
L 1606 56 
L 191 3500 
L 800 3500 
L 1894 763 
L 2988 3500 
L 3597 3500 
L 2059 -325 
z
" transform="scale(0.015625)"/>
     </defs>
     <use xlink:href="#DejaVuSans-48"/>
     <use xlink:href="#DejaVuSans-69" transform="translate(75.195312 0)"/>
     <use xlink:href="#DejaVuSans-67" transform="translate(102.978516 0)"/>
     <use xlink:href="#DejaVuSans-68" transform="translate(166.455078 0)"/>
     <use xlink:href="#DejaVuSans-20" transform="translate(229.833984 0)"/>
     <use xlink:href="#DejaVuSans-4f" transform="translate(261.621094 0)"/>
     <use xlink:href="#DejaVuSans-70" transform="translate(340.332031 0)"/>
     <use xlink:href="#DejaVuSans-70" transform="translate(403.808594 0)"/>
     <use xlink:href="#DejaVuSans-6f" transform="translate(467.285156 0)"/>
     <use xlink:href="#DejaVuSans-72" transform="translate(528.466797 0)"/>
     <use xlink:href="#DejaVuSans-74" transform="translate(569.580078 0)"/>
     <use xlink:href="#DejaVuSans-75" transform="translate(608.789062 0)"/>
     <use xlink:href="#DejaVuSans-6e" transform="translate(672.167969 0)"/>
     <use xlink:href="#DejaVuSans-69" transform="translate(735.546875 0)"/>
     <use xlink:href="#DejaVuSans-74" transform="translate(763.330078 0)"/>
     <use xlink:href="#DejaVuSans-79" transform="translate(802.539062 0)"/>
    </g>
   </g>
   <g id="text_3">
    <!-- Core keywords -->
    <g style="fill: #6b7280" transform="translate(517.67625 325.3825) scale(0.08 -0.08)">
     <defs>
      <path id="DejaVuSans-Oblique-43" d="M 4447 4306 
L 4319 3641 
Q 4019 3944 3683 4091 
Q 3347 4238 2956 4238 
Q 2422 4238 2017 3981 
Q 1613 3725 1319 3200 
Q 1131 2863 1032 2486 
Q 934 2109 934 1728 
Q 934 1091 1264 756 
Q 1594 422 2222 422 
Q 2656 422 3056 561 
Q 3456 700 3834 978 
L 3688 231 
Q 3316 72 2936 -9 
Q 2556 -91 2175 -91 
Q 1278 -91 773 396 
Q 269 884 269 1753 
Q 269 2309 461 2846 
Q 653 3384 1013 3828 
Q 1394 4300 1883 4525 
Q 2372 4750 3022 4750 
Q 3422 4750 3780 4639 
Q 4138 4528 4447 4306 
z
" transform="scale(0.015625)"/>
      <path id="DejaVuSans-Oblique-6f" d="M 1625 -91 
Q 1009 -91 651 289 
Q 294 669 294 1325 
Q 294 1706 417 2101 
Q 541 2497 738 2766 
Q 1047 3184 1428 3384 
Q 1809 3584 2291 3584 
Q 2888 3584 3255 3212 
Q 3622 2841 3622 2241 
Q 3622 1825 3500 1412 
Q 3378 1000 3181 728 
Q 2875 309 2494 109 
Q 2113 -91 1625 -91 
z
M 891 1344 
Q 891 869 1089 633 
Q 1288 397 1691 397 
Q 2269 397 2648 901 
Q 3028 1406 3028 2181 
Q 3028 2634 2825 2865 
Q 2622 3097 2228 3097 
Q 1903 3097 1650 2945 
Q 1397 2794 1197 2484 
Q 1050 2253 970 1956 
Q 891 1659 891 1344 
z
" transform="scale(0.015625)"/>
      <path id="DejaVuSans-Oblique-72" d="M 2853 2969 
Q 2766 3016 2653 3041 
Q 2541 3066 2413 3066 
Q 1953 3066 1609 2717 
Q 1266 2369 1153 1784 
L 800 0 
L 225 0 
L 909 3500 
L 1484 3500 
L 1375 2956 
Q 1603 3259 1920 3421 
Q 2238 3584 2597 3584 
Q 2691 3584 2781 3573 
Q 2872 3563 2963 3538 
L 2853 2969 
z
" transform="scale(0.015625)"/>
      <path id="DejaVuSans-Oblique-65" d="M 3078 2063 
Q 3088 2113 3092 2166 
Q 3097 2219 3097 2272 
Q 3097 2653 2873 2875 
Q 2650 3097 2266 3097 
Q 1838 3097 1509 2826 
Q 1181 2556 1013 2059 
L 3078 2063 
z
M 3578 1613 
L 903 1613 
Q 884 1494 878 1425 
Q 872 1356 872 1306 
Q 872 872 1139 634 
Q 1406 397 1894 397 
Q 2269 397 2603 481 
Q 2938 566 3225 728 
L 3116 159 
Q 2806 34 2476 -28 
Q 2147 -91 1806 -91 
Q 1078 -91 686 257 
Q 294 606 294 1247 
Q 294 1794 489 2264 
Q 684 2734 1063 3103 
Q 1306 3334 1642 3459 
Q 1978 3584 2356 3584 
Q 2950 3584 3301 3228 
Q 3653 2872 3653 2272 
Q 3653 2128 3634 1964 
Q 3616 1800 3578 1613 
z
" transform="scale(0.015625)"/>
      <path id="DejaVuSans-Oblique-20" transform="scale(0.015625)"/>
      <path id="DejaVuSans-Oblique-6b" d="M 1172 4863 
L 1747 4863 
L 1197 2028 
L 3169 3500 
L 3916 3500 
L 1716 1825 
L 3322 0 
L 2625 0 
L 1131 1709 
L 800 0 
L 225 0 
L 1172 4863 
z
" transform="scale(0.015625)"/>
      <path id="DejaVuSans-Oblique-79" d="M 1588 -325 
Q 1188 -997 936 -1164 
Q 684 -1331 294 -1331 
L -159 -1331 
L -63 -850 
L 269 -850 
Q 509 -850 678 -719 
Q 847 -588 1056 -206 
L 1234 128 
L 459 3500 
L 1069 3500 
L 1650 819 
L 3256 3500 
L 3859 3500 
L 1588 -325 
z
" transform="scale(0.015625)"/>
      <path id="DejaVuSans-Oblique-77" d="M 544 3500 
L 1113 3500 
L 1259 684 
L 2566 3500 
L 3231 3500 
L 3425 684 
L 4666 3500 
L 5241 3500 
L 3641 0 
L 2969 0 
L 2797 2900 
L 1459 0 
L 781 0 
L 544 3500 
z
" transform="scale(0.015625)"/>
      <path id="DejaVuSans-Oblique-64" d="M 2675 525 
Q 2444 222 2128 65 
Q 1813 -91 1428 -91 
Q 903 -91 598 267 
Q 294 625 294 1247 
Q 294 1766 478 2236 
Q 663 2706 1013 3078 
Q 1244 3325 1534 3454 
Q 1825 3584 2144 3584 
Q 2481 3584 2739 3421 
Q 2997 3259 3138 2956 
L 3513 4863 
L 4091 4863 
L 3144 0 
L 2566 0 
L 2675 525 
z
M 891 1350 
Q 891 897 1095 644 
Q 1300 391 1663 391 
Q 1931 391 2161 520 
Q 2391 650 2566 903 
Q 2750 1166 2856 1509 
Q 2963 1853 2963 2188 
Q 2963 2622 2758 2865 
Q 2553 3109 2194 3109 
Q 1922 3109 1687 2981 
Q 1453 2853 1288 2613 
Q 1106 2353 998 2009 
Q 891 1666 891 1350 
z
" transform="scale(0.015625)"/>
      <path id="DejaVuSans-Oblique-73" d="M 3200 3397 
L 3091 2853 
Q 2863 2978 2609 3040 
Q 2356 3103 2088 3103 
Q 1634 3103 1373 2948 
Q 1113 2794 1113 2528 
Q 1113 2219 1719 2053 
Q 1766 2041 1788 2034 
L 1972 1978 
Q 2547 1819 2739 1644 
Q 2931 1469 2931 1166 
Q 2931 609 2489 259 
Q 2047 -91 1331 -91 
Q 1053 -91 747 -37 
Q 441 16 72 128 
L 184 722 
Q 500 559 806 475 
Q 1113 391 1394 391 
Q 1816 391 2080 572 
Q 2344 753 2344 1031 
Q 2344 1331 1650 1516 
L 1591 1531 
L 1394 1581 
Q 956 1697 753 1886 
Q 550 2075 550 2369 
Q 550 2928 970 3256 
Q 1391 3584 2113 3584 
Q 2397 3584 2667 3537 
Q 2938 3491 3200 3397 
z
" transform="scale(0.015625)"/>
     </defs>
     <use xlink:href="#DejaVuSans-Oblique-43"/>
     <use xlink:href="#DejaVuSans-Oblique-6f" transform="translate(69.824219 0)"/>
     <use xlink:href="#DejaVuSans-Oblique-72" transform="translate(131.005859 0)"/>
     <use xlink:href="#DejaVuSans-Oblique-65" transform="translate(172.119141 0)"/>
     <use xlink:href="#DejaVuSans-Oblique-20" transform="translate(233.642578 0)"/>
     <use xlink:href="#DejaVuSans-Oblique-6b" transform="translate(265.429688 0)"/>
     <use xlink:href="#DejaVuSans-Oblique-65" transform="translate(323.339844 0)"/>
     <use xlink:href="#DejaVuSans-Oblique-79" transform="translate(384.863281 0)"/>
     <use xlink:href="#DejaVuSans-Oblique-77" transform="translate(444.042969 0)"/>
     <use xlink:href="#DejaVuSans-Oblique-6f" transform="translate(525.830078 0)"/>
     <use xlink:href="#DejaVuSans-Oblique-72" transform="translate(587.011719 0)"/>
     <use xlink:href="#DejaVuSans-Oblique-64" transform="translate(628.125 0)"/>
     <use xlink:href="#DejaVuSans-Oblique-73" transform="translate(691.601562 0)"/>
    </g>
   </g>
   <g id="text_4">
    <!-- Consider -->
    <g style="fill: #fbbf24" transform="translate(303.469219 234.638125) scale(0.14 -0.14)">
     <defs>
      <path id="DejaVuSans-Bold-43" d="M 4288 256 
Q 3956 84 3597 -3 
Q 3238 -91 2847 -91 
Q 1681 -91 1000 561 
Q 319 1213 319 2328 
Q 319 3447 1000 4098 
Q 1681 4750 2847 4750 
Q 3238 4750 3597 4662 
Q 3956 4575 4288 4403 
L 4288 3438 
Q 3953 3666 3628 3772 
Q 3303 3878 2944 3878 
Q 2300 3878 1931 3465 
Q 1563 3053 1563 2328 
Q 1563 1606 1931 1193 
Q 2300 781 2944 781 
Q 3303 781 3628 887 
Q 3953 994 4288 1222 
L 4288 256 
z
" transform="scale(0.015625)"/>
      <path id="DejaVuSans-Bold-6e" d="M 4056 2131 
L 4056 0 
L 2931 0 
L 2931 347 
L 2931 1631 
Q 2931 2084 2911 2256 
Q 2891 2428 2841 2509 
Q 2775 2619 2662 2680 
Q 2550 2741 2406 2741 
Q 2056 2741 1856 2470 
Q 1656 2200 1656 1722 
L 1656 0 
L 538 0 
L 538 3500 
L 1656 3500 
L 1656 2988 
Q 1909 3294 2193 3439 
Q 2478 3584 2822 3584 
Q 3428 3584 3742 3212 
Q 4056 2841 4056 2131 
z
" transform="scale(0.015625)"/>
      <path id="DejaVuSans-Bold-73" d="M 3272 3391 
L 3272 2541 
Q 2913 2691 2578 2766 
Q 2244 2841 1947 2841 
Q 1628 2841 1473 2761 
Q 1319 2681 1319 2516 
Q 1319 2381 1436 2309 
Q 1553 2238 1856 2203 
L 2053 2175 
Q 2913 2066 3209 1816 
Q 3506 1566 3506 1031 
Q 3506 472 3093 190 
Q 2681 -91 1863 -91 
Q 1516 -91 1145 -36 
Q 775 19 384 128 
L 384 978 
Q 719 816 1070 734 
Q 1422 653 1784 653 
Q 2113 653 2278 743 
Q 2444 834 2444 1013 
Q 2444 1163 2330 1236 
Q 2216 1309 1875 1350 
L 1678 1375 
Q 931 1469 631 1722 
Q 331 1975 331 2491 
Q 331 3047 712 3315 
Q 1094 3584 1881 3584 
Q 2191 3584 2531 3537 
Q 2872 3491 3272 3391 
z
" transform="scale(0.015625)"/>
      <path id="DejaVuSans-Bold-64" d="M 2919 2988 
L 2919 4863 
L 4044 4863 
L 4044 0 
L 2919 0 
L 2919 506 
Q 2688 197 2409 53 
Q 2131 -91 1766 -91 
Q 1119 -91 703 423 
Q 288 938 288 1747 
Q 288 2556 703 3070 
Q 1119 3584 1766 3584 
Q 2128 3584 2408 3439 
Q 2688 3294 2919 2988 
z
M 2181 722 
Q 2541 722 2730 984 
Q 2919 1247 2919 1747 
Q 2919 2247 2730 2509 
Q 2541 2772 2181 2772 
Q 1825 2772 1636 2509 
Q 1447 2247 1447 1747 
Q 1447 1247 1636 984 
Q 1825 722 2181 722 
z
" transform="scale(0.015625)"/>
     </defs>
     <use xlink:href="#DejaVuSans-Bold-43"/>
     <use xlink:href="#DejaVuSans-Bold-6f" transform="translate(73.388672 0)"/>
     <use xlink:href="#DejaVuSans-Bold-6e" transform="translate(142.089844 0)"/>
     <use xlink:href="#DejaVuSans-Bold-73" transform="translate(213.28125 0)"/>
     <use xlink:href="#DejaVuSans-Bold-69" transform="translate(272.802734 0)"/>
     <use xlink:href="#DejaVuSans-Bold-64" transform="translate(307.080078 0)"/>
     <use xlink:href="#DejaVuSans-Bold-65" transform="translate(378.662109 0)"/>
     <use xlink:href="#DejaVuSans-Bold-72" transform="translate(446.484375 0)"/>
    </g>
   </g>
   <g id="text_5">
    <!-- High Relevance -->
    <g style="fill: #4b5563" transform="translate(299.284375 274.135469) scale(0.1 -0.1)">
     <use xlink:href="#DejaVuSans-48"/>
     <use xlink:href="#DejaVuSans-69" transform="translate(75.195312 0)"/>
     <use xlink:href="#DejaVuSans-67" transform="translate(102.978516 0)"/>
     <use xlink:href="#DejaVuSans-68" transform="translate(166.455078 0)"/>
     <use xlink:href="#DejaVuSans-20" transform="translate(229.833984 0)"/>
     <use xlink:href="#DejaVuSans-52" transform="translate(261.621094 0)"/>
     <use xlink:href="#DejaVuSans-65" transform="translate(326.603516 0)"/>
     <use xlink:href="#DejaVuSans-6c" transform="translate(388.126953 0)"/>
     <use xlink:href="#DejaVuSans-65" transform="translate(415.910156 0)"/>
     <use xlink:href="#DejaVuSans-76" transform="translate(477.433594 0)"/>
     <use xlink:href="#DejaVuSans-61" transform="translate(536.613281 0)"/>
     <use xlink:href="#DejaVuSans-6e" transform="translate(597.892578 0)"/>
     <use xlink:href="#DejaVuSans-63" transform="translate(661.271484 0)"/>
     <use xlink:href="#DejaVuSans-65" transform="translate(716.251953 0)"/>
    </g>
    <!-- Low Opportunity -->
    <g style="fill: #4b5563" transform="translate(296.733594 285.333281) scale(0.1 -0.1)">
     <defs>
      <path id="DejaVuSans-4c" d="M 628 4666 
L 1259 4666 
L 1259 531 
L 3531 531 
L 3531 0 
L 628 0 
L 628 4666 
z
" transform="scale(0.015625)"/>
      <path id="DejaVuSans-77" d="M 269 3500 
L 844 3500 
L 1563 769 
L 2278 3500 
L 2956 3500 
L 3675 769 
L 4391 3500 
L 4966 3500 
L 4050 0 
L 3372 0 
L 2619 2869 
L 1863 0 
L 1184 0 
L 269 3500 
z
" transform="scale(0.015625)"/>
     </defs>
     <use xlink:href="#DejaVuSans-4c"/>
     <use xlink:href="#DejaVuSans-6f" transform="translate(53.962891 0)"/>
     <use xlink:href="#DejaVuSans-77" transform="translate(115.144531 0)"/>
     <use xlink:href="#DejaVuSans-20" transform="translate(196.931641 0)"/>
     <use xlink:href="#DejaVuSans-4f" transform="translate(228.71875 0)"/>
     <use xlink:href="#DejaVuSans-70" transform="translate(307.429688 0)"/>
     <use xlink:href="#DejaVuSans-70" transform="translate(370.90625 0)"/>
     <use xlink:href="#DejaVuSans-6f" transform="translate(434.382812 0)"/>
     <use xlink:href="#DejaVuSans-72" transform="translate(495.564453 0)"/>
     <use xlink:href="#DejaVuSans-74" transform="translate(536.677734 0)"/>
     <use xlink:href="#DejaVuSans-75" transform="translate(575.886719 0)"/>
     <use xlink:href="#DejaVuSans-6e" transform="translate(639.265625 0)"/>
     <use xlink:href="#DejaVuSans-69" transform="translate(702.644531 0)"/>
     <use xlink:href="#DejaVuSans-74" transform="translate(730.427734 0)"/>
     <use xlink:href="#DejaVuSans-79" transform="translate(769.636719 0)"/>
    </g>
   </g>
   <g id="text_6">
    <!-- Niche terms -->
    <g style="fill: #6b7280" transform="translate(313.950625 325.3825) scale(0.08 -0.08)">
     <defs>
      <path id="DejaVuSans-Oblique-4e" d="M 1081 4666 
L 1931 4666 
L 3219 666 
L 4000 4666 
L 4616 4666 
L 3706 0 
L 2853 0 
L 1569 4025 
L 788 0 
L 172 0 
L 1081 4666 
z
" transform="scale(0.015625)"/>
      <path id="DejaVuSans-Oblique-69" d="M 1172 4863 
L 1747 4863 
L 1606 4134 
L 1031 4134 
L 1172 4863 
z
M 909 3500 
L 1484 3500 
L 800 0 
L 225 0 
L 909 3500 
z
" transform="scale(0.015625)"/>
      <path id="DejaVuSans-Oblique-63" d="M 3431 3366 
L 3316 2797 
Q 3109 2947 2876 3022 
Q 2644 3097 2394 3097 
Q 2119 3097 1870 3000 
Q 1622 2903 1453 2725 
Q 1184 2453 1037 2087 
Q 891 1722 891 1331 
Q 891 859 1127 628 
Q 1363 397 1844 397 
Q 2081 397 2348 469 
Q 2616 541 2906 684 
L 2797 116 
Q 2547 13 2283 -39 
Q 2019 -91 1741 -91 
Q 1044 -91 669 257 
Q 294 606 294 1253 
Q 294 1797 489 2255 
Q 684 2713 1069 3078 
Q 1331 3328 1684 3456 
Q 2038 3584 2456 3584 
Q 2700 3584 2940 3529 
Q 3181 3475 3431 3366 
z
" transform="scale(0.015625)"/>
      <path id="DejaVuSans-Oblique-68" d="M 3566 2113 
L 3156 0 
L 2578 0 
L 2988 2091 
Q 3016 2238 3031 2350 
Q 3047 2463 3047 2528 
Q 3047 2791 2881 2937 
Q 2716 3084 2419 3084 
Q 1956 3084 1617 2771 
Q 1278 2459 1178 1941 
L 800 0 
L 225 0 
L 1172 4863 
L 1747 4863 
L 1375 2950 
Q 1594 3244 1934 3414 
Q 2275 3584 2650 3584 
Q 3113 3584 3367 3334 
Q 3622 3084 3622 2631 
Q 3622 2519 3608 2391 
Q 3594 2263 3566 2113 
z
" transform="scale(0.015625)"/>
      <path id="DejaVuSans-Oblique-74" d="M 2706 3500 
L 2619 3053 
L 1472 3053 
L 1100 1153 
Q 1081 1047 1072 975 
Q 1063 903 1063 863 
Q 1063 663 1183 572 
Q 1303 481 1569 481 
L 2150 481 
L 2053 0 
L 1503 0 
Q 991 0 739 200 
Q 488 400 488 806 
Q 488 878 497 964 
Q 506 1050 525 1153 
L 897 3053 
L 409 3053 
L 500 3500 
L 978 3500 
L 1172 4494 
L 1747 4494 
L 1556 3500 
L 2706 3500 
z
" transform="scale(0.015625)"/>
      <path id="DejaVuSans-Oblique-6d" d="M 5747 2113 
L 5338 0 
L 4763 0 
L 5166 2094 
Q 5191 2228 5203 2325 
Q 5216 2422 5216 2491 
Q 5216 2772 5059 2928 
Q 4903 3084 4622 3084 
Q 4203 3084 3875 2770 
Q 3547 2456 3450 1953 
L 3066 0 
L 2491 0 
L 2900 2094 
Q 2925 2209 2937 2307 
Q 2950 2406 2950 2484 
Q 2950 2769 2794 2926 
Q 2638 3084 2363 3084 
Q 1938 3084 1609 2770 
Q 1281 2456 1184 1953 
L 800 0 
L 225 0 
L 909 3500 
L 1484 3500 
L 1375 2956 
Q 1609 3263 1923 3423 
Q 2238 3584 2597 3584 
Q 2978 3584 3223 3384 
Q 3469 3184 3519 2828 
Q 3781 3197 4126 3390 
Q 4472 3584 4856 3584 
Q 5306 3584 5551 3325 
Q 5797 3066 5797 2591 
Q 5797 2488 5784 2364 
Q 5772 2241 5747 2113 
z
" transform="scale(0.015625)"/>
     </defs>
     <use xlink:href="#DejaVuSans-Oblique-4e"/>
     <use xlink:href="#DejaVuSans-Oblique-69" transform="translate(74.804688 0)"/>
     <use xlink:href="#DejaVuSans-Oblique-63" transform="translate(102.587891 0)"/>
     <use xlink:href="#DejaVuSans-Oblique-68" transform="translate(157.568359 0)"/>
     <use xlink:href="#DejaVuSans-Oblique-65" transform="translate(220.947266 0)"/>
     <use xlink:href="#DejaVuSans-Oblique-20" transform="translate(282.470703 0)"/>
     <use xlink:href="#DejaVuSans-Oblique-74" transform="translate(314.257812 0)"/>
     <use xlink:href="#DejaVuSans-Oblique-65" transform="translate(353.466797 0)"/>
     <use xlink:href="#DejaVuSans-Oblique-72" transform="translate(414.990234 0)"/>
     <use xlink:href="#DejaVuSans-Oblique-6d" transform="translate(456.103516 0)"/>
     <use xlink:href="#DejaVuSans-Oblique-73" transform="translate(553.515625 0)"/>
    </g>
   </g>
   <g id="text_7">
    <!-- Evaluate -->
    <g style="fill: #fbbf24" transform="translate(513.155625 407.888125) scale(0.14 -0.14)">
     <defs>
      <path id="DejaVuSans-Bold-45" d="M 588 4666 
L 3834 4666 
L 3834 3756 
L 1791 3756 
L 1791 2888 
L 3713 2888 
L 3713 1978 
L 1791 1978 
L 1791 909 
L 3903 909 
L 3903 0 
L 588 0 
L 588 4666 
z
" transform="scale(0.015625)"/>
      <path id="DejaVuSans-Bold-76" d="M 97 3500 
L 1216 3500 
L 2088 1081 
L 2956 3500 
L 4078 3500 
L 2700 0 
L 1472 0 
L 97 3500 
z
" transform="scale(0.015625)"/>
      <path id="DejaVuSans-Bold-61" d="M 2106 1575 
Q 1756 1575 1579 1456 
Q 1403 1338 1403 1106 
Q 1403 894 1545 773 
Q 1688 653 1941 653 
Q 2256 653 2472 879 
Q 2688 1106 2688 1447 
L 2688 1575 
L 2106 1575 
z
M 3816 1997 
L 3816 0 
L 2688 0 
L 2688 519 
Q 2463 200 2181 54 
Q 1900 -91 1497 -91 
Q 953 -91 614 226 
Q 275 544 275 1050 
Q 275 1666 698 1953 
Q 1122 2241 2028 2241 
L 2688 2241 
L 2688 2328 
Q 2688 2594 2478 2717 
Q 2269 2841 1825 2841 
Q 1466 2841 1156 2769 
Q 847 2697 581 2553 
L 581 3406 
Q 941 3494 1303 3539 
Q 1666 3584 2028 3584 
Q 2975 3584 3395 3211 
Q 3816 2838 3816 1997 
z
" transform="scale(0.015625)"/>
      <path id="DejaVuSans-Bold-6c" d="M 538 4863 
L 1656 4863 
L 1656 0 
L 538 0 
L 538 4863 
z
" transform="scale(0.015625)"/>
      <path id="DejaVuSans-Bold-75" d="M 500 1363 
L 500 3500 
L 1625 3500 
L 1625 3150 
Q 1625 2866 1622 2436 
Q 1619 2006 1619 1863 
Q 1619 1441 1641 1255 
Q 1663 1069 1716 984 
Q 1784 875 1895 815 
Q 2006 756 2150 756 
Q 2500 756 2700 1025 
Q 2900 1294 2900 1772 
L 2900 3500 
L 4019 3500 
L 4019 0 
L 2900 0 
L 2900 506 
Q 2647 200 2364 54 
Q 2081 -91 1741 -91 
Q 1134 -91 817 281 
Q 500 653 500 1363 
z
" transform="scale(0.015625)"/>
     </defs>
     <use xlink:href="#DejaVuSans-Bold-45"/>
     <use xlink:href="#DejaVuSans-Bold-76" transform="translate(68.310547 0)"/>
     <use xlink:href="#DejaVuSans-Bold-61" transform="translate(133.496094 0)"/>
     <use xlink:href="#DejaVuSans-Bold-6c" transform="translate(200.976562 0)"/>
     <use xlink:href="#DejaVuSans-Bold-75" transform="translate(235.253906 0)"/>
     <use xlink:href="#DejaVuSans-Bold-61" transform="translate(306.445312 0)"/>
     <use xlink:href="#DejaVuSans-Bold-74" transform="translate(373.925781 0)"/>
     <use xlink:href="#DejaVuSans-Bold-65" transform="translate(421.728516 0)"/>
    </g>
   </g>
   <g id="text_8">
    <!-- Low Relevance -->
    <g style="fill: #4b5563" transform="translate(510.179687 447.385469) scale(0.1 -0.1)">
     <use xlink:href="#DejaVuSans-4c"/>
     <use xlink:href="#DejaVuSans-6f" transform="translate(53.962891 0)"/>
     <use xlink:href="#DejaVuSans-77" transform="translate(115.144531 0)"/>
     <use xlink:href="#DejaVuSans-20" transform="translate(196.931641 0)"/>
     <use xlink:href="#DejaVuSans-52" transform="translate(228.71875 0)"/>
     <use xlink:href="#DejaVuSans-65" transform="translate(293.701172 0)"/>
     <use xlink:href="#DejaVuSans-6c" transform="translate(355.224609 0)"/>
     <use xlink:href="#DejaVuSans-65" transform="translate(383.007812 0)"/>
     <use xlink:href="#DejaVuSans-76" transform="translate(444.53125 0)"/>
     <use xlink:href="#DejaVuSans-61" transform="translate(503.710938 0)"/>
     <use xlink:href="#DejaVuSans-6e" transform="translate(564.990234 0)"/>
     <use xlink:href="#DejaVuSans-63" transform="translate(628.369141 0)"/>
     <use xlink:href="#DejaVuSans-65" transform="translate(683.349609 0)"/>
    </g>
    <!-- High Opportunity -->
    <g style="fill: #4b5563" transform="translate(504.338281 458.583281) scale(0.1 -0.1)">
     <use xlink:href="#DejaVuSans-48"/>
     <use xlink:href="#DejaVuSans-69" transform="translate(75.195312 0)"/>
     <use xlink:href="#DejaVuSans-67" transform="translate(102.978516 0)"/>
     <use xlink:href="#DejaVuSans-68" transform="translate(166.455078 0)"/>
     <use xlink:href="#DejaVuSans-20" transform="translate(229.833984 0)"/>
     <use xlink:href="#DejaVuSans-4f" transform="translate(261.621094 0)"/>
     <use xlink:href="#DejaVuSans-70" transform="translate(340.332031 0)"/>
     <use xlink:href="#DejaVuSans-70" transform="translate(403.808594 0)"/>
     <use xlink:href="#DejaVuSans-6f" transform="translate(467.285156 0)"/>
     <use xlink:href="#DejaVuSans-72" transform="translate(528.466797 0)"/>
     <use xlink:href="#DejaVuSans-74" transform="translate(569.580078 0)"/>
     <use xlink:href="#DejaVuSans-75" transform="translate(608.789062 0)"/>
     <use xlink:href="#DejaVuSans-6e" transform="translate(672.167969 0)"/>
     <use xlink:href="#DejaVuSans-69" transform="translate(735.546875 0)"/>
     <use xlink:href="#DejaVuSans-74" transform="translate(763.330078 0)"/>
     <use xlink:href="#DejaVuSans-79" transform="translate(802.539062 0)"/>
    </g>
   </g>
   <g id="text_9">
    <!-- Adjacent terms -->
    <g style="fill: #6b7280" transform="translate(516.898125 498.6325) scale(0.08 -0.08)">
     <defs>
      <path id="DejaVuSans-Oblique-41" d="M 2356 4666 
L 3072 4666 
L 3938 0 
L 3278 0 
L 3084 1197 
L 984 1197 
L 325 0 
L -341 0 
L 2356 4666 
z
M 2584 4044 
L 1275 1722 
L 2988 1722 
L 2584 4044 
z
" transform="scale(0.015625)"/>
      <path id="DejaVuSans-Oblique-6a" d="M 928 3500 
L 1503 3500 
L 813 -63 
L 809 -78 
Q 694 -675 544 -897 
Q 403 -1106 132 -1218 
Q -138 -1331 -506 -1331 
L -722 -1331 
L -628 -844 
L -481 -844 
Q -144 -844 -1 -703 
Q 141 -563 238 -63 
L 928 3500 
z
M 1197 4863 
L 1772 4863 
L 1631 4134 
L 1056 4134 
L 1197 4863 
z
" transform="scale(0.015625)"/>
      <path id="DejaVuSans-Oblique-61" d="M 3438 1997 
L 3047 0 
L 2472 0 
L 2578 531 
Q 2325 219 2001 64 
Q 1678 -91 1281 -91 
Q 834 -91 548 182 
Q 263 456 263 884 
Q 263 1497 752 1853 
Q 1241 2209 2100 2209 
L 2900 2209 
L 2931 2363 
Q 2938 2388 2941 2417 
Q 2944 2447 2944 2509 
Q 2944 2788 2717 2942 
Q 2491 3097 2081 3097 
Q 1800 3097 1504 3025 
Q 1209 2953 897 2809 
L 997 3341 
Q 1322 3463 1633 3523 
Q 1944 3584 2234 3584 
Q 2853 3584 3176 3315 
Q 3500 3047 3500 2534 
Q 3500 2431 3484 2292 
Q 3469 2153 3438 1997 
z
M 2816 1759 
L 2241 1759 
Q 1534 1759 1195 1570 
Q 856 1381 856 984 
Q 856 709 1029 553 
Q 1203 397 1509 397 
Q 1978 397 2328 733 
Q 2678 1069 2791 1631 
L 2816 1759 
z
" transform="scale(0.015625)"/>
      <path id="DejaVuSans-Oblique-6e" d="M 3566 2113 
L 3156 0 
L 2578 0 
L 2988 2091 
Q 3016 2238 3031 2350 
Q 3047 2463 3047 2528 
Q 3047 2791 2881 2937 
Q 2716 3084 2419 3084 
Q 1956 3084 1622 2776 
Q 1288 2469 1184 1941 
L 800 0 
L 225 0 
L 903 3500 
L 1478 3500 
L 1363 2950 
Q 1603 3253 1940 3418 
Q 2278 3584 2650 3584 
Q 3113 3584 3367 3334 
Q 3622 3084 3622 2631 
Q 3622 2519 3608 2391 
Q 3594 2263 3566 2113 
z
" transform="scale(0.015625)"/>
     </defs>
     <use xlink:href="#DejaVuSans-Oblique-41"/>
     <use xlink:href="#DejaVuSans-Oblique-64" transform="translate(68.408203 0)"/>
     <use xlink:href="#DejaVuSans-Oblique-6a" transform="translate(131.884766 0)"/>
     <use xlink:href="#DejaVuSans-Oblique-61" transform="translate(159.667969 0)"/>
     <use xlink:href="#DejaVuSans-Oblique-63" transform="translate(220.947266 0)"/>
     <use xlink:href="#DejaVuSans-Oblique-65" transform="translate(275.927734 0)"/>
     <use xlink:href="#DejaVuSans-Oblique-6e" transform="translate(337.451172 0)"/>
     <use xlink:href="#DejaVuSans-Oblique-74" transform="translate(400.830078 0)"/>
     <use xlink:href="#DejaVuSans-Oblique-20" transform="translate(440.039062 0)"/>
     <use xlink:href="#DejaVuSans-Oblique-74" transform="translate(471.826172 0)"/>
     <use xlink:href="#DejaVuSans-Oblique-65" transform="translate(511.035156 0)"/>
     <use xlink:href="#DejaVuSans-Oblique-72" transform="translate(572.558594 0)"/>
     <use xlink:href="#DejaVuSans-Oblique-6d" transform="translate(613.671875 0)"/>
     <use xlink:href="#DejaVuSans-Oblique-73" transform="translate(711.083984 0)"/>
    </g>
   </g>
   <g id="text_10">
    <!-- Avoid -->
    <g style="fill: #ef4444" transform="translate(316.228906 407.888125) scale(0.14 -0.14)">
     <defs>
      <path id="DejaVuSans-Bold-41" d="M 3419 850 
L 1538 850 
L 1241 0 
L 31 0 
L 1759 4666 
L 3194 4666 
L 4922 0 
L 3713 0 
L 3419 850 
z
M 1838 1716 
L 3116 1716 
L 2478 3572 
L 1838 1716 
z
" transform="scale(0.015625)"/>
     </defs>
     <use xlink:href="#DejaVuSans-Bold-41"/>
     <use xlink:href="#DejaVuSans-Bold-76" transform="translate(73.767578 0)"/>
     <use xlink:href="#DejaVuSans-Bold-6f" transform="translate(138.953125 0)"/>
     <use xlink:href="#DejaVuSans-Bold-69" transform="translate(207.654297 0)"/>
     <use xlink:href="#DejaVuSans-Bold-64" transform="translate(241.931641 0)"/>
    </g>
   </g>
   <g id="text_11">
    <!-- Low Relevance -->
    <g style="fill: #4b5563" transform="translate(300.929688 447.385469) scale(0.1 -0.1)">
     <use xlink:href="#DejaVuSans-4c"/>
     <use xlink:href="#DejaVuSans-6f" transform="translate(53.962891 0)"/>
     <use xlink:href="#DejaVuSans-77" transform="translate(115.144531 0)"/>
     <use xlink:href="#DejaVuSans-20" transform="translate(196.931641 0)"/>
     <use xlink:href="#DejaVuSans-52" transform="translate(228.71875 0)"/>
     <use xlink:href="#DejaVuSans-65" transform="translate(293.701172 0)"/>
     <use xlink:href="#DejaVuSans-6c" transform="translate(355.224609 0)"/>
     <use xlink:href="#DejaVuSans-65" transform="translate(383.007812 0)"/>
     <use xlink:href="#DejaVuSans-76" transform="translate(444.53125 0)"/>
     <use xlink:href="#DejaVuSans-61" transform="translate(503.710938 0)"/>
     <use xlink:href="#DejaVuSans-6e" transform="translate(564.990234 0)"/>
     <use xlink:href="#DejaVuSans-63" transform="translate(628.369141 0)"/>
     <use xlink:href="#DejaVuSans-65" transform="translate(683.349609 0)"/>
    </g>
    <!-- Low Opportunity -->
    <g style="fill: #4b5563" transform="translate(296.733594 458.583281) scale(0.1 -0.1)">
     <use xlink:href="#DejaVuSans-4c"/>
     <use xlink:href="#DejaVuSans-6f" transform="translate(53.962891 0)"/>
     <use xlink:href="#DejaVuSans-77" transform="translate(115.144531 0)"/>
     <use xlink:href="#DejaVuSans-20" transform="translate(196.931641 0)"/>
     <use xlink:href="#DejaVuSans-4f" transform="translate(228.71875 0)"/>
     <use xlink:href="#DejaVuSans-70" transform="translate(307.429688 0)"/>
     <use xlink:href="#DejaVuSans-70" transform="translate(370.90625 0)"/>
     <use xlink:href="#DejaVuSans-6f" transform="translate(434.382812 0)"/>
     <use xlink:href="#DejaVuSans-72" transform="translate(495.564453 0)"/>
     <use xlink:href="#DejaVuSans-74" transform="translate(536.677734 0)"/>
     <use xlink:href="#DejaVuSans-75" transform="translate(575.886719 0)"/>
     <use xlink:href="#DejaVuSans-6e" transform="translate(639.265625 0)"/>
     <use xlink:href="#DejaVuSans-69" transform="translate(702.644531 0)"/>
     <use xlink:href="#DejaVuSans-74" transform="translate(730.427734 0)"/>
     <use xlink:href="#DejaVuSans-79" transform="translate(769.636719 0)"/>
    </g>
   </g>
   <g id="text_12">
    <!-- Irrelevant -->
    <g style="fill: #6b7280" transform="translate(318.750625 498.6325) scale(0.08 -0.08)">
     <defs>
      <path id="DejaVuSans-Oblique-49" d="M 1081 4666 
L 1716 4666 
L 806 0 
L 172 0 
L 1081 4666 
z
" transform="scale(0.015625)"/>
      <path id="DejaVuSans-Oblique-6c" d="M 1172 4863 
L 1747 4863 
L 800 0 
L 225 0 
L 1172 4863 
z
" transform="scale(0.015625)"/>
      <path id="DejaVuSans-Oblique-76" d="M 459 3500 
L 1069 3500 
L 1581 525 
L 3256 3500 
L 3866 3500 
L 1875 0 
L 1100 0 
L 459 3500 
z
" transform="scale(0.015625)"/>
     </defs>
     <use xlink:href="#DejaVuSans-Oblique-49"/>
     <use xlink:href="#DejaVuSans-Oblique-72" transform="translate(29.492188 0)"/>
     <use xlink:href="#DejaVuSans-Oblique-72" transform="translate(70.605469 0)"/>
     <use xlink:href="#DejaVuSans-Oblique-65" transform="translate(111.71875 0)"/>
     <use xlink:href="#DejaVuSans-Oblique-6c" transform="translate(173.242188 0)"/>
     <use xlink:href="#DejaVuSans-Oblique-65" transform="translate(201.025391 0)"/>
     <use xlink:href="#DejaVuSans-Oblique-76" transform="translate(262.548828 0)"/>
     <use xlink:href="#DejaVuSans-Oblique-61" transform="translate(321.728516 0)"/>
     <use xlink:href="#DejaVuSans-Oblique-6e" transform="translate(383.007812 0)"/>
     <use xlink:href="#DejaVuSans-Oblique-74" transform="translate(446.386719 0)"/>
    </g>
   </g>
   <g id="text_13">
    <!-- Low Relevance -->
    <g style="fill: #1f2937" transform="translate(398.105625 592.168125) scale(0.12 -0.12)">
     <use xlink:href="#DejaVuSans-4c"/>
     <use xlink:href="#DejaVuSans-6f" transform="translate(53.962891 0)"/>
     <use xlink:href="#DejaVuSans-77" transform="translate(115.144531 0)"/>
     <use xlink:href="#DejaVuSans-20" transform="translate(196.931641 0)"/>
     <use xlink:href="#DejaVuSans-52" transform="translate(228.71875 0)"/>
     <use xlink:href="#DejaVuSans-65" transform="translate(293.701172 0)"/>
     <use xlink:href="#DejaVuSans-6c" transform="translate(355.224609 0)"/>
     <use xlink:href="#DejaVuSans-65" transform="translate(383.007812 0)"/>
     <use xlink:href="#DejaVuSans-76" transform="translate(444.53125 0)"/>
     <use xlink:href="#DejaVuSans-61" transform="translate(503.710938 0)"/>
     <use xlink:href="#DejaVuSans-6e" transform="translate(564.990234 0)"/>
     <use xlink:href="#DejaVuSans-63" transform="translate(628.369141 0)"/>
     <use xlink:href="#DejaVuSans-65" transform="translate(683.349609 0)"/>
    </g>
   </g>
   <g id="text_14">
    <!-- High Relevance -->
    <g style="fill: #1f2937" transform="translate(396.13125 141.654375) scale(0.12 -0.12)">
     <use xlink:href="#DejaVuSans-48"/>
     <use xlink:href="#DejaVuSans-69" transform="translate(75.195312 0)"/>
     <use xlink:href="#DejaVuSans-67" transform="translate(102.978516 0)"/>
     <use xlink:href="#DejaVuSans-68" transform="translate(166.455078 0)"/>
     <use xlink:href="#DejaVuSans-20" transform="translate(229.833984 0)"/>
     <use xlink:href="#DejaVuSans-52" transform="translate(261.621094 0)"/>
     <use xlink:href="#DejaVuSans-65" transform="translate(326.603516 0)"/>
     <use xlink:href="#DejaVuSans-6c" transform="translate(388.126953 0)"/>
     <use xlink:href="#DejaVuSans-65" transform="translate(415.910156 0)"/>
     <use xlink:href="#DejaVuSans-76" transform="translate(477.433594 0)"/>
     <use xlink:href="#DejaVuSans-61" transform="translate(536.613281 0)"/>
     <use xlink:href="#DejaVuSans-6e" transform="translate(597.892578 0)"/>
     <use xlink:href="#DejaVuSans-63" transform="translate(661.271484 0)"/>
     <use xlink:href="#DejaVuSans-65" transform="translate(716.251953 0)"/>
    </g>
   </g>
   <g id="text_15">
    <!-- Low Opportunity -->
    <g style="fill: #1f2937" transform="translate(175.254375 413.329687) rotate(-90) scale(0.12 -0.12)">
     <use xlink:href="#DejaVuSans-4c"/>
     <use xlink:href="#DejaVuSans-6f" transform="translate(53.962891 0)"/>
     <use xlink:href="#DejaVuSans-77" transform="translate(115.144531 0)"/>
     <use xlink:href="#DejaVuSans-20" transform="translate(196.931641 0)"/>
     <use xlink:href="#DejaVuSans-4f" transform="translate(228.71875 0)"/>
     <use xlink:href="#DejaVuSans-70" transform="translate(307.429688 0)"/>
     <use xlink:href="#DejaVuSans-70" transform="translate(370.90625 0)"/>
     <use xlink:href="#DejaVuSans-6f" transform="translate(434.382812 0)"/>
     <use xlink:href="#DejaVuSans-72" transform="translate(495.564453 0)"/>
     <use xlink:href="#DejaVuSans-74" transform="translate(536.677734 0)"/>
     <use xlink:href="#DejaVuSans-75" transform="translate(575.886719 0)"/>
     <use xlink:href="#DejaVuSans-6e" transform="translate(639.265625 0)"/>
     <use xlink:href="#DejaVuSans-69" transform="translate(702.644531 0)"/>
     <use xlink:href="#DejaVuSans-74" transform="translate(730.427734 0)"/>
     <use xlink:href="#DejaVuSans-79" transform="translate(769.636719 0)"/>
    </g>
   </g>
   <g id="text_16">
    <!-- High Opportunity -->
    <g style="fill: #1f2937" transform="translate(716.968125 415.304062) rotate(-90) scale(0.12 -0.12)">
     <use xlink:href="#DejaVuSans-48"/>
     <use xlink:href="#DejaVuSans-69" transform="translate(75.195312 0)"/>
     <use xlink:href="#DejaVuSans-67" transform="translate(102.978516 0)"/>
     <use xlink:href="#DejaVuSans-68" transform="translate(166.455078 0)"/>
     <use xlink:href="#DejaVuSans-20" transform="translate(229.833984 0)"/>
     <use xlink:href="#DejaVuSans-4f" transform="translate(261.621094 0)"/>
     <use xlink:href="#DejaVuSans-70" transform="translate(340.332031 0)"/>
     <use xlink:href="#DejaVuSans-70" transform="translate(403.808594 0)"/>
     <use xlink:href="#DejaVuSans-6f" transform="translate(467.285156 0)"/>
     <use xlink:href="#DejaVuSans-72" transform="translate(528.466797 0)"/>
     <use xlink:href="#DejaVuSans-74" transform="translate(569.580078 0)"/>
     <use xlink:href="#DejaVuSans-75" transform="translate(608.789062 0)"/>
     <use xlink:href="#DejaVuSans-6e" transform="translate(672.167969 0)"/>
     <use xlink:href="#DejaVuSans-69" transform="translate(735.546875 0)"/>
     <use xlink:href="#DejaVuSans-74" transform="translate(763.330078 0)"/>
     <use xlink:href="#DejaVuSans-79" transform="translate(802.539062 0)"/>
    </g>
   </g>
  </g>
 </g>
 <defs>
  <clipPath id="pb4642e464f">
   <rect x="108" y="86.4" width="669.6" height="554.4"/>
  </clipPath>
 </defs>
</svg>
