<?xml version="1.0" encoding="utf-8" standalone="no"?>
<!DOCTYPE svg PUBLIC "-//W3C//DTD SVG 1.1//EN"
  "http://www.w3.org/Graphics/SVG/1.1/DTD/svg11.dtd">
<svg xmlns:xlink="http://www.w3.org/1999/xlink" width="684pt" height="568.8pt" viewBox="0 0 684 568.8" xmlns="http://www.w3.org/2000/svg" version="1.1">
 <metadata>
  <rdf:RDF xmlns:dc="http://purl.org/dc/elements/1.1/" xmlns:cc="http://creativecommons.org/ns#" xmlns:rdf="http://www.w3.org/1999/02/22-rdf-syntax-ns#">
   <cc:Work>
    <dc:type rdf:resource="http://purl.org/dc/dcmitype/StillImage"/>
    <dc:date>2025-12-27T10:17:12.604050</dc:date>
    <dc:format>image/svg+xml</dc:format>
    <dc:creator>
     <cc:Agent>
      <dc:title>Matplotlib v3.10.8, https://matplotlib.org/</dc:title>
     </cc:Agent>
    </dc:creator>
   </cc:Work>
  </rdf:RDF>
 </metadata>
 <defs>
  <style type="text/css">*{stroke-linejoin: round; stroke-linecap: butt}</style>
 </defs>
 <g id="figure_1">
  <g id="patch_1">
   <path d="M 0 568.8 
L 684 568.8 
L 684 0 
L 0 0 
z
" style="fill: #f8f9fa"/>
  </g>
  <g id="axes_1">
   <g id="patch_2">
    <path d="M 342 132.396436 
Q 342 145.797899 342 157.522311 
" clip-path="url(#p840bb989ce)" style="fill: none; stroke: #6b7280; stroke-width: 1.5; stroke-linecap: round"/>
    <path d="M 347 147.522311 
L 342 157.522311 
L 337 147.522311 
" clip-path="url(#p840bb989ce)" style="fill: none; stroke: #6b7280; stroke-width: 1.5; stroke-linecap: round"/>
   </g>
   <g id="patch_3">
    <path d="M 342 224.796436 
Q 342 238.197899 342 249.922311 
" clip-path="url(#p840bb989ce)" style="fill: none; stroke: #6b7280; stroke-width: 1.5; stroke-linecap: round"/>
    <path d="M 347 239.922311 
L 342 249.922311 
L 337 239.922311 
" clip-path="url(#p840bb989ce)" style="fill: none; stroke: #6b7280; stroke-width: 1.5; stroke-linecap: round"/>
   </g>
   <g id="patch_4">
    <path d="M 342 317.196436 
Q 342 330.597899 342 342.322311 
" clip-path="url(#p840bb989ce)" style="fill: none; stroke: #6b7280; stroke-width: 1.5; stroke-linecap: round"/>
    <path d="M 347 332.322311 
L 342 342.322311 
L 337 332.322311 
" clip-path="url(#p840bb989ce)" style="fill: none; stroke: #6b7280; stroke-width: 1.5; stroke-linecap: round"/>
   </g>
   <g id="patch_5">
    <path d="M 342 409.596436 
Q 342 422.997899 342 434.722311 
" clip-path="url(#p840bb989ce)" style="fill: none; stroke: #6b7280; stroke-width: 1.5; stroke-linecap: round"/>
    <path d="M 347 424.722311 
L 342 434.722311 
L 337 424.722311 
" clip-path="url(#p840bb989ce)" style="fill: none; stroke: #6b7280; stroke-width: 1.5; stroke-linecap: round"/>
   </g>
   <g id="patch_6">
    <path d="M -181.125 145.8 
L 865.125 145.8 
Q 948.825 145.8 948.825 130.4 
L 948.825 68.8 
Q 948.825 53.4 865.125 53.4 
L -181.125 53.4 
Q -264.825 53.4 -264.825 68.8 
L -264.825 130.4 
Q -264.825 145.8 -181.125 145.8 
z
" clip-path="url(#p840bb989ce)" style="fill: #2563eb; opacity: 0.2; stroke: #2563eb; stroke-width: 2; stroke-linejoin: miter"/>
   </g>
   <g id="patch_7">
    <path d="M -181.125 238.2 
L 865.125 238.2 
Q 948.825 238.2 948.825 222.8 
L 948.825 161.2 
Q 948.825 145.8 865.125 145.8 
L -181.125 145.8 
Q -264.825 145.8 -264.825 161.2 
L -264.825 222.8 
Q -264.825 238.2 -181.125 238.2 
z
" clip-path="url(#p840bb989ce)" style="fill: #10b981; opacity: 0.2; stroke: #10b981; stroke-width: 2; stroke-linejoin: miter"/>
   </g>
   <g id="patch_8">
    <path d="M -181.125 330.6 
L 865.125 330.6 
Q 948.825 330.6 948.825 315.2 
L 948.825 253.6 
Q 948.825 238.2 865.125 238.2 
L -181.125 238.2 
Q -264.825 238.2 -264.825 253.6 
L -264.825 315.2 
Q -264.825 330.6 -181.125 330.6 
z
" clip-path="url(#p840bb989ce)" style="fill: #f59e0b; opacity: 0.2; stroke: #f59e0b; stroke-width: 2; stroke-linejoin: miter"/>
   </g>
   <g id="patch_9">
    <path d="M -181.125 423 
L 865.125 423 
Q 948.825 423 948.825 407.6 
L 948.825 346 
Q 948.825 330.6 865.125 330.6 
L -181.125 330.6 
Q -264.825 330.6 -264.825 346 
L -264.825 407.6 
Q -264.825 423 -181.125 423 
z
" clip-path="url(#p840bb989ce)" style="fill: #8b5cf6; opacity: 0.2; stroke: #8b5cf6; stroke-width: 2; stroke-linejoin: miter"/>
   </g>
   <g id="patch_10">
    <path d="M -181.125 515.4 
L 865.125 515.4 
Q 948.825 515.4 948.825 500 
L 948.825 438.4 
Q 948.825 423 865.125 423 
L -181.125 423 
Q -264.825 423 -264.825 438.4 
L -264.825 500 
Q -264.825 515.4 -181.125 515.4 
z
" clip-path="url(#p840bb989ce)" style="fill: #14b8a6; opacity: 0.2; stroke: #14b8a6; stroke-width: 2; stroke-linejoin: miter"/>
   </g>
   <g id="text_1">
    <!-- Conduct Audit -->
    <g style="fill: #2563eb" transform="translate(293.989688 102.91125) scale(0.12 -0.12)">
     <defs>
      <path id="DejaVuSans-Bold-43" d="M 4288 256 
Q 3956 84 3597 -3 
Q 3238 -91 2847 -91 
Q 1681 -91 1000 561 
Q 319 1213 319 2328 
Q 319 3447 1000 4098 
Q 1681 4750 2847 4750 
Q 3238 4750 3597 4662 
Q 3956 4575 4288 4403 
L 4288 3438 
Q 3953 3666 3628 3772 
Q 3303 3878 2944 3878 
Q 2300 3878 1931 3465 
Q 1563 3053 1563 2328 
Q 1563 1606 1931 1193 
Q 2300 781 2944 781 
Q 3303 781 3628 887 
Q 3953 994 4288 1222 
L 4288 256 
z
" transform="scale(0.015625)"/>
      <path id="DejaVuSans-Bold-6f" d="M 2203 2784 
Q 1831 2784 1636 2517 
Q 1441 2250 1441 1747 
Q 1441 1244 1636 976 
Q 1831 709 2203 709 
Q 2569 709 2762 976 
Q 2956 1244 2956 1747 
Q 2956 2250 2762 2517 
Q 2569 2784 2203 2784 
z
M 2203 3584 
Q 3106 3584 3614 3096 
Q 4122 2609 4122 1747 
Q 4122 884 3614 396 
Q 3106 -91 2203 -91 
Q 1297 -91 786 396 
Q 275 884 275 1747 
Q 275 2609 786 3096 
Q 1297 3584 2203 3584 
z
" transform="scale(0.015625)"/>
      <path id="DejaVuSans-Bold-6e" d="M 4056 2131 
L 4056 0 
L 2931 0 
L 2931 347 
L 2931 1631 
Q 2931 2084 2911 2256 
Q 2891 2428 2841 2509 
Q 2775 2619 2662 2680 
Q 2550 2741 2406 2741 
Q 2056 2741 1856 2470 
Q 1656 2200 1656 1722 
L 1656 0 
L 538 0 
L 538 3500 
L 1656 3500 
L 1656 2988 
Q 1909 3294 2193 3439 
Q 2478 3584 2822 3584 
Q 3428 3584 3742 3212 
Q 4056 2841 4056 2131 
z
" transform="scale(0.015625)"/>
      <path id="DejaVuSans-Bold-64" d="M 2919 2988 
L 2919 4863 
L 4044 4863 
L 4044 0 
L 2919 0 
L 2919 506 
Q 2688 197 2409 53 
Q 2131 -91 1766 -91 
Q 1119 -91 703 423 
Q 288 938 288 1747 
Q 288 2556 703 3070 
Q 1119 3584 1766 3584 
Q 2128 3584 2408 3439 
Q 2688 3294 2919 2988 
z
M 2181 722 
Q 2541 722 2730 984 
Q 2919 1247 2919 1747 
Q 2919 2247 2730 2509 
Q 2541 2772 2181 2772 
Q 1825 2772 1636 2509 
Q 1447 2247 1447 1747 
Q 1447 1247 1636 984 
Q 1825 722 2181 722 
z
" transform="scale(0.015625)"/>
      <path id="DejaVuSans-Bold-75" d="M 500 1363 
L 500 3500 
L 1625 3500 
L 1625 3150 
Q 1625 2866 1622 2436 
Q 1619 2006 1619 1863 
Q 1619 1441 1641 1255 
Q 1663 1069 1716 984 
Q 1784 875 1895 815 
Q 2006 756 2150 756 
Q 2500 756 2700 1025 
Q 2900 1294 2900 1772 
L 2900 3500 
L 4019 3500 
L 4019 0 
L 2900 0 
L 2900 506 
Q 2647 200 2364 54 
Q 2081 -91 1741 -91 
Q 1134 -91 817 281 
Q 500 653 500 1363 
z
" transform="scale(0.015625)"/>
      <path id="DejaVuSans-Bold-63" d="M 3366 3391 
L 3366 2478 
Q 3138 2634 2908 2709 
Q 2678 2784 2431 2784 
Q 1963 2784 1702 2511 
Q 1441 2238 1441 1747 
Q 1441 1256 1702 982 
Q 1963 709 2431 709 
Q 2694 709 2930 787 
Q 3166 866 3366 1019 
L 3366 103 
Q 3103 6 2833 -42 
Q 2563 -91 2291 -91 
Q 1344 -91 809 395 
Q 275 881 275 1747 
Q 275 2613 809 3098 
Q 1344 3584 2291 3584 
Q 2566 3584 2833 3536 
Q 3100 3488 3366 3391 
z
" transform="scale(0.015625)"/>
      <path id="DejaVuSans-Bold-74" d="M 1759 4494 
L 1759 3500 
L 2913 3500 
L 2913 2700 
L 1759 2700 
L 1759 1216 
Q 1759 972 1856 886 
Q 1953 800 2241 800 
L 2816 800 
L 2816 0 
L 1856 0 
Q 1194 0 917 276 
Q 641 553 641 1216 
L 641 2700 
L 84 2700 
L 84 3500 
L 641 3500 
L 641 4494 
L 1759 4494 
z
" transform="scale(0.015625)"/>
      <path id="DejaVuSans-Bold-20" transform="scale(0.015625)"/>
      <path id="DejaVuSans-Bold-41" d="M 3419 850 
L 1538 850 
L 1241 0 
L 31 0 
L 1759 4666 
L 3194 4666 
L 4922 0 
L 3713 0 
L 3419 850 
z
M 1838 1716 
L 3116 1716 
L 2478 3572 
L 1838 1716 
z
" transform="scale(0.015625)"/>
      <path id="DejaVuSans-Bold-69" d="M 538 3500 
L 1656 3500 
L 1656 0 
L 538 0 
L 538 3500 
z
M 538 4863 
L 1656 4863 
L 1656 3950 
L 538 3950 
L 538 4863 
z
" transform="scale(0.015625)"/>
     </defs>
     <use xlink:href="#DejaVuSans-Bold-43"/>
     <use xlink:href="#DejaVuSans-Bold-6f" transform="translate(73.388672 0)"/>
     <use xlink:href="#DejaVuSans-Bold-6e" transform="translate(142.089844 0)"/>
     <use xlink:href="#DejaVuSans-Bold-64" transform="translate(213.28125 0)"/>
     <use xlink:href="#DejaVuSans-Bold-75" transform="translate(284.863281 0)"/>
     <use xlink:href="#DejaVuSans-Bold-63" transform="translate(356.054688 0)"/>
     <use xlink:href="#DejaVuSans-Bold-74" transform="translate(415.332031 0)"/>
     <use xlink:href="#DejaVuSans-Bold-20" transform="translate(463.134766 0)"/>
     <use xlink:href="#DejaVuSans-Bold-41" transform="translate(497.949219 0)"/>
     <use xlink:href="#DejaVuSans-Bold-75" transform="translate(575.341797 0)"/>
     <use xlink:href="#DejaVuSans-Bold-64" transform="translate(646.533203 0)"/>
     <use xlink:href="#DejaVuSans-Bold-69" transform="translate(718.115234 0)"/>
     <use xlink:href="#DejaVuSans-Bold-74" transform="translate(752.392578 0)"/>
    </g>
   </g>
   <g id="text_2">
    <!-- Identify Issues -->
    <g style="fill: #10b981" transform="translate(292.311562 195.264375) scale(0.12 -0.12)">
     <defs>
      <path id="DejaVuSans-Bold-49" d="M 588 4666 
L 1791 4666 
L 1791 0 
L 588 0 
L 588 4666 
z
" transform="scale(0.015625)"/>
      <path id="DejaVuSans-Bold-65" d="M 4031 1759 
L 4031 1441 
L 1416 1441 
Q 1456 1047 1700 850 
Q 1944 653 2381 653 
Q 2734 653 3104 758 
Q 3475 863 3866 1075 
L 3866 213 
Q 3469 63 3072 -14 
Q 2675 -91 2278 -91 
Q 1328 -91 801 392 
Q 275 875 275 1747 
Q 275 2603 792 3093 
Q 1309 3584 2216 3584 
Q 3041 3584 3536 3087 
Q 4031 2591 4031 1759 
z
M 2881 2131 
Q 2881 2450 2695 2645 
Q 2509 2841 2209 2841 
Q 1884 2841 1681 2658 
Q 1478 2475 1428 2131 
L 2881 2131 
z
" transform="scale(0.015625)"/>
      <path id="DejaVuSans-Bold-66" d="M 2841 4863 
L 2841 4128 
L 2222 4128 
Q 1984 4128 1890 4042 
Q 1797 3956 1797 3744 
L 1797 3500 
L 2753 3500 
L 2753 2700 
L 1797 2700 
L 1797 0 
L 678 0 
L 678 2700 
L 122 2700 
L 122 3500 
L 678 3500 
L 678 3744 
Q 678 4316 997 4589 
Q 1316 4863 1984 4863 
L 2841 4863 
z
" transform="scale(0.015625)"/>
      <path id="DejaVuSans-Bold-79" d="M 78 3500 
L 1197 3500 
L 2138 1125 
L 2938 3500 
L 4056 3500 
L 2584 -331 
Q 2363 -916 2067 -1148 
Q 1772 -1381 1288 -1381 
L 641 -1381 
L 641 -647 
L 991 -647 
Q 1275 -647 1404 -556 
Q 1534 -466 1606 -231 
L 1638 -134 
L 78 3500 
z
" transform="scale(0.015625)"/>
      <path id="DejaVuSans-Bold-73" d="M 3272 3391 
L 3272 2541 
Q 2913 2691 2578 2766 
Q 2244 2841 1947 2841 
Q 1628 2841 1473 2761 
Q 1319 2681 1319 2516 
Q 1319 2381 1436 2309 
Q 1553 2238 1856 2203 
L 2053 2175 
Q 2913 2066 3209 1816 
Q 3506 1566 3506 1031 
Q 3506 472 3093 190 
Q 2681 -91 1863 -91 
Q 1516 -91 1145 -36 
Q 775 19 384 128 
L 384 978 
Q 719 816 1070 734 
Q 1422 653 1784 653 
Q 2113 653 2278 743 
Q 2444 834 2444 1013 
Q 2444 1163 2330 1236 
Q 2216 1309 1875 1350 
L 1678 1375 
Q 931 1469 631 1722 
Q 331 1975 331 2491 
Q 331 3047 712 3315 
Q 1094 3584 1881 3584 
Q 2191 3584 2531 3537 
Q 2872 3491 3272 3391 
z
" transform="scale(0.015625)"/>
     </defs>
     <use xlink:href="#DejaVuSans-Bold-49"/>
     <use xlink:href="#DejaVuSans-Bold-64" transform="translate(37.207031 0)"/>
     <use xlink:href="#DejaVuSans-Bold-65" transform="translate(108.789062 0)"/>
     <use xlink:href="#DejaVuSans-Bold-6e" transform="translate(176.611328 0)"/>
     <use xlink:href="#DejaVuSans-Bold-74" transform="translate(247.802734 0)"/>
     <use xlink:href="#DejaVuSans-Bold-69" transform="translate(295.605469 0)"/>
     <use xlink:href="#DejaVuSans-Bold-66" transform="translate(329.882812 0)"/>
     <use xlink:href="#DejaVuSans-Bold-79" transform="translate(373.388672 0)"/>
     <use xlink:href="#DejaVuSans-Bold-20" transform="translate(438.574219 0)"/>
     <use xlink:href="#DejaVuSans-Bold-49" transform="translate(473.388672 0)"/>
     <use xlink:href="#DejaVuSans-Bold-73" transform="translate(510.595703 0)"/>
     <use xlink:href="#DejaVuSans-Bold-73" transform="translate(570.117188 0)"/>
     <use xlink:href="#DejaVuSans-Bold-75" transform="translate(629.638672 0)"/>
     <use xlink:href="#DejaVuSans-Bold-65" transform="translate(700.830078 0)"/>
     <use xlink:href="#DejaVuSans-Bold-73" transform="translate(768.652344 0)"/>
    </g>
   </g>
   <g id="text_3">
    <!-- Prioritize -->
    <g style="fill: #f59e0b" transform="translate(310.962188 287.71125) scale(0.12 -0.12)">
     <defs>
      <path id="DejaVuSans-Bold-50" d="M 588 4666 
L 2584 4666 
Q 3475 4666 3951 4270 
Q 4428 3875 4428 3144 
Q 4428 2409 3951 2014 
Q 3475 1619 2584 1619 
L 1791 1619 
L 1791 0 
L 588 0 
L 588 4666 
z
M 1791 3794 
L 1791 2491 
L 2456 2491 
Q 2806 2491 2997 2661 
Q 3188 2831 3188 3144 
Q 3188 3456 2997 3625 
Q 2806 3794 2456 3794 
L 1791 3794 
z
" transform="scale(0.015625)"/>
      <path id="DejaVuSans-Bold-72" d="M 3138 2547 
Q 2991 2616 2845 2648 
Q 2700 2681 2553 2681 
Q 2122 2681 1889 2404 
Q 1656 2128 1656 1613 
L 1656 0 
L 538 0 
L 538 3500 
L 1656 3500 
L 1656 2925 
Q 1872 3269 2151 3426 
Q 2431 3584 2822 3584 
Q 2878 3584 2943 3579 
Q 3009 3575 3134 3559 
L 3138 2547 
z
" transform="scale(0.015625)"/>
      <path id="DejaVuSans-Bold-7a" d="M 366 3500 
L 3419 3500 
L 3419 2719 
L 1575 800 
L 3419 800 
L 3419 0 
L 288 0 
L 288 781 
L 2131 2700 
L 366 2700 
L 366 3500 
z
" transform="scale(0.015625)"/>
     </defs>
     <use xlink:href="#DejaVuSans-Bold-50"/>
     <use xlink:href="#DejaVuSans-Bold-72" transform="translate(73.291016 0)"/>
     <use xlink:href="#DejaVuSans-Bold-69" transform="translate(122.607422 0)"/>
     <use xlink:href="#DejaVuSans-Bold-6f" transform="translate(156.884766 0)"/>
     <use xlink:href="#DejaVuSans-Bold-72" transform="translate(225.585938 0)"/>
     <use xlink:href="#DejaVuSans-Bold-69" transform="translate(274.902344 0)"/>
     <use xlink:href="#DejaVuSans-Bold-74" transform="translate(309.179688 0)"/>
     <use xlink:href="#DejaVuSans-Bold-69" transform="translate(356.982422 0)"/>
     <use xlink:href="#DejaVuSans-Bold-7a" transform="translate(391.259766 0)"/>
     <use xlink:href="#DejaVuSans-Bold-65" transform="translate(449.462891 0)"/>
    </g>
   </g>
   <g id="text_4">
    <!-- Create Plan -->
    <g style="fill: #8b5cf6" transform="translate(302.717812 380.11125) scale(0.12 -0.12)">
     <defs>
      <path id="DejaVuSans-Bold-61" d="M 2106 1575 
Q 1756 1575 1579 1456 
Q 1403 1338 1403 1106 
Q 1403 894 1545 773 
Q 1688 653 1941 653 
Q 2256 653 2472 879 
Q 2688 1106 2688 1447 
L 2688 1575 
L 2106 1575 
z
M 3816 1997 
L 3816 0 
L 2688 0 
L 2688 519 
Q 2463 200 2181 54 
Q 1900 -91 1497 -91 
Q 953 -91 614 226 
Q 275 544 275 1050 
Q 275 1666 698 1953 
Q 1122 2241 2028 2241 
L 2688 2241 
L 2688 2328 
Q 2688 2594 2478 2717 
Q 2269 2841 1825 2841 
Q 1466 2841 1156 2769 
Q 847 2697 581 2553 
L 581 3406 
Q 941 3494 1303 3539 
Q 1666 3584 2028 3584 
Q 2975 3584 3395 3211 
Q 3816 2838 3816 1997 
z
" transform="scale(0.015625)"/>
      <path id="DejaVuSans-Bold-6c" d="M 538 4863 
L 1656 4863 
L 1656 0 
L 538 0 
L 538 4863 
z
" transform="scale(0.015625)"/>
     </defs>
     <use xlink:href="#DejaVuSans-Bold-43"/>
     <use xlink:href="#DejaVuSans-Bold-72" transform="translate(73.388672 0)"/>
     <use xlink:href="#DejaVuSans-Bold-65" transform="translate(122.705078 0)"/>
     <use xlink:href="#DejaVuSans-Bold-61" transform="translate(190.527344 0)"/>
     <use xlink:href="#DejaVuSans-Bold-74" transform="translate(258.007812 0)"/>
     <use xlink:href="#DejaVuSans-Bold-65" transform="translate(305.810547 0)"/>
     <use xlink:href="#DejaVuSans-Bold-20" transform="translate(373.632812 0)"/>
     <use xlink:href="#DejaVuSans-Bold-50" transform="translate(408.447266 0)"/>
     <use xlink:href="#DejaVuSans-Bold-6c" transform="translate(481.738281 0)"/>
     <use xlink:href="#DejaVuSans-Bold-61" transform="translate(516.015625 0)"/>
     <use xlink:href="#DejaVuSans-Bold-6e" transform="translate(583.496094 0)"/>
    </g>
   </g>
   <g id="text_5">
    <!-- Execute Fixes -->
    <g style="fill: #14b8a6" transform="translate(295.440938 472.51125) scale(0.12 -0.12)">
     <defs>
      <path id="DejaVuSans-Bold-45" d="M 588 4666 
L 3834 4666 
L 3834 3756 
L 1791 3756 
L 1791 2888 
L 3713 2888 
L 3713 1978 
L 1791 1978 
L 1791 909 
L 3903 909 
L 3903 0 
L 588 0 
L 588 4666 
z
" transform="scale(0.015625)"/>
      <path id="DejaVuSans-Bold-78" d="M 1422 1791 
L 159 3500 
L 1344 3500 
L 2059 2463 
L 2784 3500 
L 3969 3500 
L 2706 1797 
L 4031 0 
L 2847 0 
L 2059 1106 
L 1281 0 
L 97 0 
L 1422 1791 
z
" transform="scale(0.015625)"/>
      <path id="DejaVuSans-Bold-46" d="M 588 4666 
L 3834 4666 
L 3834 3756 
L 1791 3756 
L 1791 2888 
L 3713 2888 
L 3713 1978 
L 1791 1978 
L 1791 0 
L 588 0 
L 588 4666 
z
" transform="scale(0.015625)"/>
     </defs>
     <use xlink:href="#DejaVuSans-Bold-45"/>
     <use xlink:href="#DejaVuSans-Bold-78" transform="translate(68.310547 0)"/>
     <use xlink:href="#DejaVuSans-Bold-65" transform="translate(132.8125 0)"/>
     <use xlink:href="#DejaVuSans-Bold-63" transform="translate(200.634766 0)"/>
     <use xlink:href="#DejaVuSans-Bold-75" transform="translate(259.912109 0)"/>
     <use xlink:href="#DejaVuSans-Bold-74" transform="translate(331.103516 0)"/>
     <use xlink:href="#DejaVuSans-Bold-65" transform="translate(378.90625 0)"/>
     <use xlink:href="#DejaVuSans-Bold-20" transform="translate(446.728516 0)"/>
     <use xlink:href="#DejaVuSans-Bold-46" transform="translate(481.542969 0)"/>
     <use xlink:href="#DejaVuSans-Bold-69" transform="translate(549.853516 0)"/>
     <use xlink:href="#DejaVuSans-Bold-78" transform="translate(584.130859 0)"/>
     <use xlink:href="#DejaVuSans-Bold-65" transform="translate(648.632812 0)"/>
     <use xlink:href="#DejaVuSans-Bold-73" transform="translate(716.455078 0)"/>
    </g>
   </g>
  </g>
 </g>
 <defs>
  <clipPath id="p840bb989ce">
   <rect x="7.2" y="7.2" width="669.6" height="554.4"/>
  </clipPath>
 </defs>
</svg>
