<?xml version="1.0" encoding="utf-8" standalone="no"?>
<!DOCTYPE svg PUBLIC "-//W3C//DTD SVG 1.1//EN"
  "http://www.w3.org/Graphics/SVG/1.1/DTD/svg11.dtd">
<svg xmlns:xlink="http://www.w3.org/1999/xlink" width="684pt" height="568.8pt" viewBox="0 0 684 568.8" xmlns="http://www.w3.org/2000/svg" version="1.1">
 <metadata>
  <rdf:RDF xmlns:dc="http://purl.org/dc/elements/1.1/" xmlns:cc="http://creativecommons.org/ns#" xmlns:rdf="http://www.w3.org/1999/02/22-rdf-syntax-ns#">
   <cc:Work>
    <dc:type rdf:resource="http://purl.org/dc/dcmitype/StillImage"/>
    <dc:date>2025-12-27T10:17:15.262026</dc:date>
    <dc:format>image/svg+xml</dc:format>
    <dc:creator>
     <cc:Agent>
      <dc:title>Matplotlib v3.10.8, https://matplotlib.org/</dc:title>
     </cc:Agent>
    </dc:creator>
   </cc:Work>
  </rdf:RDF>
 </metadata>
 <defs>
  <style type="text/css">*{stroke-linejoin: round; stroke-linecap: butt}</style>
 </defs>
 <g id="figure_1">
  <g id="patch_1">
   <path d="M 0 568.8 
L 684 568.8 
L 684 0 
L 0 0 
z
" style="fill: #f8f9fa"/>
  </g>
  <g id="axes_1">
   <g id="line2d_1">
    <path d="M 342 284.4 
L 69.488372 284.4 
" clip-path="url(#p4a9e45f013)" style="fill: none; stroke: #2563eb; stroke-opacity: 0.4; stroke-width: 1.5; stroke-linecap: square"/>
   </g>
   <g id="line2d_2">
    <path d="M 342 284.4 
L 614.511628 284.4 
" clip-path="url(#p4a9e45f013)" style="fill: none; stroke: #10b981; stroke-opacity: 0.4; stroke-width: 1.5; stroke-linecap: square"/>
   </g>
   <g id="line2d_3">
    <path d="M 342 284.4 
L 342 510.027907 
" clip-path="url(#p4a9e45f013)" style="fill: none; stroke: #f59e0b; stroke-opacity: 0.4; stroke-width: 1.5; stroke-linecap: square"/>
   </g>
   <g id="line2d_4">
    <path d="M 342 284.4 
L 342 58.772093 
" clip-path="url(#p4a9e45f013)" style="fill: none; stroke: #8b5cf6; stroke-opacity: 0.4; stroke-width: 1.5; stroke-linecap: square"/>
   </g>
   <g id="patch_2">
    <path d="M 342 361.75814 
C 366.778604 361.75814 390.545676 353.607198 408.066795 339.100465 
C 425.587914 324.593732 435.432558 304.915618 435.432558 284.4 
C 435.432558 263.884382 425.587914 244.206268 408.066795 229.699535 
C 390.545676 215.192802 366.778604 207.04186 342 207.04186 
C 317.221396 207.04186 293.454324 215.192802 275.933205 229.699535 
C 258.412086 244.206268 248.567442 263.884382 248.567442 284.4 
C 248.567442 304.915618 258.412086 324.593732 275.933205 339.100465 
C 293.454324 353.607198 317.221396 361.75814 342 361.75814 
z
" clip-path="url(#p4a9e45f013)" style="fill: #10b981; opacity: 0.3; stroke: #10b981; stroke-width: 2; stroke-linejoin: miter"/>
   </g>
   <g id="patch_3">
    <path d="M -23.944186 335.972093 
L 162.92093 335.972093 
Q 178.493023 335.972093 178.493023 323.07907 
L 178.493023 245.72093 
Q 178.493023 232.827907 162.92093 232.827907 
L -23.944186 232.827907 
Q -39.516279 232.827907 -39.516279 245.72093 
L -39.516279 323.07907 
Q -39.516279 335.972093 -23.944186 335.972093 
z
" clip-path="url(#p4a9e45f013)" style="fill: #2563eb; opacity: 0.2; stroke: #2563eb; stroke-width: 1.5; stroke-linejoin: miter"/>
   </g>
   <g id="patch_4">
    <path d="M 521.07907 335.972093 
L 707.944186 335.972093 
Q 723.516279 335.972093 723.516279 323.07907 
L 723.516279 245.72093 
Q 723.516279 232.827907 707.944186 232.827907 
L 521.07907 232.827907 
Q 505.506977 232.827907 505.506977 245.72093 
L 505.506977 323.07907 
Q 505.506977 335.972093 521.07907 335.972093 
z
" clip-path="url(#p4a9e45f013)" style="fill: #10b981; opacity: 0.2; stroke: #10b981; stroke-width: 1.5; stroke-linejoin: miter"/>
   </g>
   <g id="patch_5">
    <path d="M 248.567442 561.6 
L 435.432558 561.6 
Q 451.004651 561.6 451.004651 548.706977 
L 451.004651 471.348837 
Q 451.004651 458.455814 435.432558 458.455814 
L 248.567442 458.455814 
Q 232.995349 458.455814 232.995349 471.348837 
L 232.995349 548.706977 
Q 232.995349 561.6 248.567442 561.6 
z
" clip-path="url(#p4a9e45f013)" style="fill: #f59e0b; opacity: 0.2; stroke: #f59e0b; stroke-width: 1.5; stroke-linejoin: miter"/>
   </g>
   <g id="patch_6">
    <path d="M 248.567442 110.344186 
L 435.432558 110.344186 
Q 451.004651 110.344186 451.004651 97.451163 
L 451.004651 20.093023 
Q 451.004651 7.2 435.432558 7.2 
L 248.567442 7.2 
Q 232.995349 7.2 232.995349 20.093023 
L 232.995349 97.451163 
Q 232.995349 110.344186 248.567442 110.344186 
z
" clip-path="url(#p4a9e45f013)" style="fill: #8b5cf6; opacity: 0.2; stroke: #8b5cf6; stroke-width: 1.5; stroke-linejoin: miter"/>
   </g>
   <g id="text_1">
    <!-- Algorithm- -->
    <g style="fill: #1f2937" transform="translate(305.985937 274.227) scale(0.12 -0.12)">
     <defs>
      <path id="DejaVuSans-Bold-41" d="M 3419 850 
L 1538 850 
L 1241 0 
L 31 0 
L 1759 4666 
L 3194 4666 
L 4922 0 
L 3713 0 
L 3419 850 
z
M 1838 1716 
L 3116 1716 
L 2478 3572 
L 1838 1716 
z
" transform="scale(0.015625)"/>
      <path id="DejaVuSans-Bold-6c" d="M 538 4863 
L 1656 4863 
L 1656 0 
L 538 0 
L 538 4863 
z
" transform="scale(0.015625)"/>
      <path id="DejaVuSans-Bold-67" d="M 2919 594 
Q 2688 288 2409 144 
Q 2131 0 1766 0 
Q 1125 0 706 504 
Q 288 1009 288 1791 
Q 288 2575 706 3076 
Q 1125 3578 1766 3578 
Q 2131 3578 2409 3434 
Q 2688 3291 2919 2981 
L 2919 3500 
L 4044 3500 
L 4044 353 
Q 4044 -491 3511 -936 
Q 2978 -1381 1966 -1381 
Q 1638 -1381 1331 -1331 
Q 1025 -1281 716 -1178 
L 716 -306 
Q 1009 -475 1290 -558 
Q 1572 -641 1856 -641 
Q 2406 -641 2662 -400 
Q 2919 -159 2919 353 
L 2919 594 
z
M 2181 2772 
Q 1834 2772 1640 2515 
Q 1447 2259 1447 1791 
Q 1447 1309 1634 1061 
Q 1822 813 2181 813 
Q 2531 813 2725 1069 
Q 2919 1325 2919 1791 
Q 2919 2259 2725 2515 
Q 2531 2772 2181 2772 
z
" transform="scale(0.015625)"/>
      <path id="DejaVuSans-Bold-6f" d="M 2203 2784 
Q 1831 2784 1636 2517 
Q 1441 2250 1441 1747 
Q 1441 1244 1636 976 
Q 1831 709 2203 709 
Q 2569 709 2762 976 
Q 2956 1244 2956 1747 
Q 2956 2250 2762 2517 
Q 2569 2784 2203 2784 
z
M 2203 3584 
Q 3106 3584 3614 3096 
Q 4122 2609 4122 1747 
Q 4122 884 3614 396 
Q 3106 -91 2203 -91 
Q 1297 -91 786 396 
Q 275 884 275 1747 
Q 275 2609 786 3096 
Q 1297 3584 2203 3584 
z
" transform="scale(0.015625)"/>
      <path id="DejaVuSans-Bold-72" d="M 3138 2547 
Q 2991 2616 2845 2648 
Q 2700 2681 2553 2681 
Q 2122 2681 1889 2404 
Q 1656 2128 1656 1613 
L 1656 0 
L 538 0 
L 538 3500 
L 1656 3500 
L 1656 2925 
Q 1872 3269 2151 3426 
Q 2431 3584 2822 3584 
Q 2878 3584 2943 3579 
Q 3009 3575 3134 3559 
L 3138 2547 
z
" transform="scale(0.015625)"/>
      <path id="DejaVuSans-Bold-69" d="M 538 3500 
L 1656 3500 
L 1656 0 
L 538 0 
L 538 3500 
z
M 538 4863 
L 1656 4863 
L 1656 3950 
L 538 3950 
L 538 4863 
z
" transform="scale(0.015625)"/>
      <path id="DejaVuSans-Bold-74" d="M 1759 4494 
L 1759 3500 
L 2913 3500 
L 2913 2700 
L 1759 2700 
L 1759 1216 
Q 1759 972 1856 886 
Q 1953 800 2241 800 
L 2816 800 
L 2816 0 
L 1856 0 
Q 1194 0 917 276 
Q 641 553 641 1216 
L 641 2700 
L 84 2700 
L 84 3500 
L 641 3500 
L 641 4494 
L 1759 4494 
z
" transform="scale(0.015625)"/>
      <path id="DejaVuSans-Bold-68" d="M 4056 2131 
L 4056 0 
L 2931 0 
L 2931 347 
L 2931 1625 
Q 2931 2084 2911 2256 
Q 2891 2428 2841 2509 
Q 2775 2619 2662 2680 
Q 2550 2741 2406 2741 
Q 2056 2741 1856 2470 
Q 1656 2200 1656 1722 
L 1656 0 
L 538 0 
L 538 4863 
L 1656 4863 
L 1656 2988 
Q 1909 3294 2193 3439 
Q 2478 3584 2822 3584 
Q 3428 3584 3742 3212 
Q 4056 2841 4056 2131 
z
" transform="scale(0.015625)"/>
      <path id="DejaVuSans-Bold-6d" d="M 3781 2919 
Q 3994 3244 4286 3414 
Q 4578 3584 4928 3584 
Q 5531 3584 5847 3212 
Q 6163 2841 6163 2131 
L 6163 0 
L 5038 0 
L 5038 1825 
Q 5041 1866 5042 1909 
Q 5044 1953 5044 2034 
Q 5044 2406 4934 2573 
Q 4825 2741 4581 2741 
Q 4263 2741 4089 2478 
Q 3916 2216 3909 1719 
L 3909 0 
L 2784 0 
L 2784 1825 
Q 2784 2406 2684 2573 
Q 2584 2741 2328 2741 
Q 2006 2741 1831 2477 
Q 1656 2213 1656 1722 
L 1656 0 
L 531 0 
L 531 3500 
L 1656 3500 
L 1656 2988 
Q 1863 3284 2130 3434 
Q 2397 3584 2719 3584 
Q 3081 3584 3359 3409 
Q 3638 3234 3781 2919 
z
" transform="scale(0.015625)"/>
      <path id="DejaVuSans-Bold-2d" d="M 347 2297 
L 2309 2297 
L 2309 1388 
L 347 1388 
L 347 2297 
z
" transform="scale(0.015625)"/>
     </defs>
     <use xlink:href="#DejaVuSans-Bold-41"/>
     <use xlink:href="#DejaVuSans-Bold-6c" transform="translate(77.392578 0)"/>
     <use xlink:href="#DejaVuSans-Bold-67" transform="translate(111.669922 0)"/>
     <use xlink:href="#DejaVuSans-Bold-6f" transform="translate(183.251953 0)"/>
     <use xlink:href="#DejaVuSans-Bold-72" transform="translate(251.953125 0)"/>
     <use xlink:href="#DejaVuSans-Bold-69" transform="translate(301.269531 0)"/>
     <use xlink:href="#DejaVuSans-Bold-74" transform="translate(335.546875 0)"/>
     <use xlink:href="#DejaVuSans-Bold-68" transform="translate(383.349609 0)"/>
     <use xlink:href="#DejaVuSans-Bold-6d" transform="translate(454.541016 0)"/>
     <use xlink:href="#DejaVuSans-Bold-2d" transform="translate(558.740234 0)"/>
    </g>
    <!-- Resilient -->
    <g style="fill: #1f2937" transform="translate(312.36 287.758125) scale(0.12 -0.12)">
     <defs>
      <path id="DejaVuSans-Bold-52" d="M 2297 2597 
Q 2675 2597 2839 2737 
Q 3003 2878 3003 3200 
Q 3003 3519 2839 3656 
Q 2675 3794 2297 3794 
L 1791 3794 
L 1791 2597 
L 2297 2597 
z
M 1791 1766 
L 1791 0 
L 588 0 
L 588 4666 
L 2425 4666 
Q 3347 4666 3776 4356 
Q 4206 4047 4206 3378 
Q 4206 2916 3982 2619 
Q 3759 2322 3309 2181 
Q 3556 2125 3751 1926 
Q 3947 1728 4147 1325 
L 4800 0 
L 3519 0 
L 2950 1159 
Q 2778 1509 2601 1637 
Q 2425 1766 2131 1766 
L 1791 1766 
z
" transform="scale(0.015625)"/>
      <path id="DejaVuSans-Bold-65" d="M 4031 1759 
L 4031 1441 
L 1416 1441 
Q 1456 1047 1700 850 
Q 1944 653 2381 653 
Q 2734 653 3104 758 
Q 3475 863 3866 1075 
L 3866 213 
Q 3469 63 3072 -14 
Q 2675 -91 2278 -91 
Q 1328 -91 801 392 
Q 275 875 275 1747 
Q 275 2603 792 3093 
Q 1309 3584 2216 3584 
Q 3041 3584 3536 3087 
Q 4031 2591 4031 1759 
z
M 2881 2131 
Q 2881 2450 2695 2645 
Q 2509 2841 2209 2841 
Q 1884 2841 1681 2658 
Q 1478 2475 1428 2131 
L 2881 2131 
z
" transform="scale(0.015625)"/>
      <path id="DejaVuSans-Bold-73" d="M 3272 3391 
L 3272 2541 
Q 2913 2691 2578 2766 
Q 2244 2841 1947 2841 
Q 1628 2841 1473 2761 
Q 1319 2681 1319 2516 
Q 1319 2381 1436 2309 
Q 1553 2238 1856 2203 
L 2053 2175 
Q 2913 2066 3209 1816 
Q 3506 1566 3506 1031 
Q 3506 472 3093 190 
Q 2681 -91 1863 -91 
Q 1516 -91 1145 -36 
Q 775 19 384 128 
L 384 978 
Q 719 816 1070 734 
Q 1422 653 1784 653 
Q 2113 653 2278 743 
Q 2444 834 2444 1013 
Q 2444 1163 2330 1236 
Q 2216 1309 1875 1350 
L 1678 1375 
Q 931 1469 631 1722 
Q 331 1975 331 2491 
Q 331 3047 712 3315 
Q 1094 3584 1881 3584 
Q 2191 3584 2531 3537 
Q 2872 3491 3272 3391 
z
" transform="scale(0.015625)"/>
      <path id="DejaVuSans-Bold-6e" d="M 4056 2131 
L 4056 0 
L 2931 0 
L 2931 347 
L 2931 1631 
Q 2931 2084 2911 2256 
Q 2891 2428 2841 2509 
Q 2775 2619 2662 2680 
Q 2550 2741 2406 2741 
Q 2056 2741 1856 2470 
Q 1656 2200 1656 1722 
L 1656 0 
L 538 0 
L 538 3500 
L 1656 3500 
L 1656 2988 
Q 1909 3294 2193 3439 
Q 2478 3584 2822 3584 
Q 3428 3584 3742 3212 
Q 4056 2841 4056 2131 
z
" transform="scale(0.015625)"/>
     </defs>
     <use xlink:href="#DejaVuSans-Bold-52"/>
     <use xlink:href="#DejaVuSans-Bold-65" transform="translate(77.001953 0)"/>
     <use xlink:href="#DejaVuSans-Bold-73" transform="translate(144.824219 0)"/>
     <use xlink:href="#DejaVuSans-Bold-69" transform="translate(204.345703 0)"/>
     <use xlink:href="#DejaVuSans-Bold-6c" transform="translate(238.623047 0)"/>
     <use xlink:href="#DejaVuSans-Bold-69" transform="translate(272.900391 0)"/>
     <use xlink:href="#DejaVuSans-Bold-65" transform="translate(307.177734 0)"/>
     <use xlink:href="#DejaVuSans-Bold-6e" transform="translate(375 0)"/>
     <use xlink:href="#DejaVuSans-Bold-74" transform="translate(446.191406 0)"/>
    </g>
    <!-- SEO -->
    <g style="fill: #1f2937" transform="translate(328.479375 301.1955) scale(0.12 -0.12)">
     <defs>
      <path id="DejaVuSans-Bold-53" d="M 3834 4519 
L 3834 3531 
Q 3450 3703 3084 3790 
Q 2719 3878 2394 3878 
Q 1963 3878 1756 3759 
Q 1550 3641 1550 3391 
Q 1550 3203 1689 3098 
Q 1828 2994 2194 2919 
L 2706 2816 
Q 3484 2659 3812 2340 
Q 4141 2022 4141 1434 
Q 4141 663 3683 286 
Q 3225 -91 2284 -91 
Q 1841 -91 1394 -6 
Q 947 78 500 244 
L 500 1259 
Q 947 1022 1364 901 
Q 1781 781 2169 781 
Q 2563 781 2772 912 
Q 2981 1044 2981 1288 
Q 2981 1506 2839 1625 
Q 2697 1744 2272 1838 
L 1806 1941 
Q 1106 2091 782 2419 
Q 459 2747 459 3303 
Q 459 4000 909 4375 
Q 1359 4750 2203 4750 
Q 2588 4750 2994 4692 
Q 3400 4634 3834 4519 
z
" transform="scale(0.015625)"/>
      <path id="DejaVuSans-Bold-45" d="M 588 4666 
L 3834 4666 
L 3834 3756 
L 1791 3756 
L 1791 2888 
L 3713 2888 
L 3713 1978 
L 1791 1978 
L 1791 909 
L 3903 909 
L 3903 0 
L 588 0 
L 588 4666 
z
" transform="scale(0.015625)"/>
      <path id="DejaVuSans-Bold-4f" d="M 2719 3878 
Q 2169 3878 1866 3472 
Q 1563 3066 1563 2328 
Q 1563 1594 1866 1187 
Q 2169 781 2719 781 
Q 3272 781 3575 1187 
Q 3878 1594 3878 2328 
Q 3878 3066 3575 3472 
Q 3272 3878 2719 3878 
z
M 2719 4750 
Q 3844 4750 4481 4106 
Q 5119 3463 5119 2328 
Q 5119 1197 4481 553 
Q 3844 -91 2719 -91 
Q 1597 -91 958 553 
Q 319 1197 319 2328 
Q 319 3463 958 4106 
Q 1597 4750 2719 4750 
z
" transform="scale(0.015625)"/>
     </defs>
     <use xlink:href="#DejaVuSans-Bold-53"/>
     <use xlink:href="#DejaVuSans-Bold-45" transform="translate(72.021484 0)"/>
     <use xlink:href="#DejaVuSans-Bold-4f" transform="translate(140.332031 0)"/>
    </g>
   </g>
   <g id="text_2">
    <!-- Quality Content -->
    <g style="fill: #2563eb" transform="translate(16.212122 287.664375) scale(0.12 -0.12)">
     <defs>
      <path id="DejaVuSans-Bold-51" d="M 2847 -84 
L 2753 -84 
Q 1600 -84 959 553 
Q 319 1191 319 2328 
Q 319 3463 958 4106 
Q 1597 4750 2719 4750 
Q 3853 4750 4486 4112 
Q 5119 3475 5119 2328 
Q 5119 1541 4783 972 
Q 4447 403 3816 116 
L 4756 -934 
L 3609 -934 
L 2847 -84 
z
M 2719 3878 
Q 2169 3878 1866 3472 
Q 1563 3066 1563 2328 
Q 1563 1578 1859 1179 
Q 2156 781 2719 781 
Q 3272 781 3575 1187 
Q 3878 1594 3878 2328 
Q 3878 3066 3575 3472 
Q 3272 3878 2719 3878 
z
" transform="scale(0.015625)"/>
      <path id="DejaVuSans-Bold-75" d="M 500 1363 
L 500 3500 
L 1625 3500 
L 1625 3150 
Q 1625 2866 1622 2436 
Q 1619 2006 1619 1863 
Q 1619 1441 1641 1255 
Q 1663 1069 1716 984 
Q 1784 875 1895 815 
Q 2006 756 2150 756 
Q 2500 756 2700 1025 
Q 2900 1294 2900 1772 
L 2900 3500 
L 4019 3500 
L 4019 0 
L 2900 0 
L 2900 506 
Q 2647 200 2364 54 
Q 2081 -91 1741 -91 
Q 1134 -91 817 281 
Q 500 653 500 1363 
z
" transform="scale(0.015625)"/>
      <path id="DejaVuSans-Bold-61" d="M 2106 1575 
Q 1756 1575 1579 1456 
Q 1403 1338 1403 1106 
Q 1403 894 1545 773 
Q 1688 653 1941 653 
Q 2256 653 2472 879 
Q 2688 1106 2688 1447 
L 2688 1575 
L 2106 1575 
z
M 3816 1997 
L 3816 0 
L 2688 0 
L 2688 519 
Q 2463 200 2181 54 
Q 1900 -91 1497 -91 
Q 953 -91 614 226 
Q 275 544 275 1050 
Q 275 1666 698 1953 
Q 1122 2241 2028 2241 
L 2688 2241 
L 2688 2328 
Q 2688 2594 2478 2717 
Q 2269 2841 1825 2841 
Q 1466 2841 1156 2769 
Q 847 2697 581 2553 
L 581 3406 
Q 941 3494 1303 3539 
Q 1666 3584 2028 3584 
Q 2975 3584 3395 3211 
Q 3816 2838 3816 1997 
z
" transform="scale(0.015625)"/>
      <path id="DejaVuSans-Bold-79" d="M 78 3500 
L 1197 3500 
L 2138 1125 
L 2938 3500 
L 4056 3500 
L 2584 -331 
Q 2363 -916 2067 -1148 
Q 1772 -1381 1288 -1381 
L 641 -1381 
L 641 -647 
L 991 -647 
Q 1275 -647 1404 -556 
Q 1534 -466 1606 -231 
L 1638 -134 
L 78 3500 
z
" transform="scale(0.015625)"/>
      <path id="DejaVuSans-Bold-20" transform="scale(0.015625)"/>
      <path id="DejaVuSans-Bold-43" d="M 4288 256 
Q 3956 84 3597 -3 
Q 3238 -91 2847 -91 
Q 1681 -91 1000 561 
Q 319 1213 319 2328 
Q 319 3447 1000 4098 
Q 1681 4750 2847 4750 
Q 3238 4750 3597 4662 
Q 3956 4575 4288 4403 
L 4288 3438 
Q 3953 3666 3628 3772 
Q 3303 3878 2944 3878 
Q 2300 3878 1931 3465 
Q 1563 3053 1563 2328 
Q 1563 1606 1931 1193 
Q 2300 781 2944 781 
Q 3303 781 3628 887 
Q 3953 994 4288 1222 
L 4288 256 
z
" transform="scale(0.015625)"/>
     </defs>
     <use xlink:href="#DejaVuSans-Bold-51"/>
     <use xlink:href="#DejaVuSans-Bold-75" transform="translate(85.009766 0)"/>
     <use xlink:href="#DejaVuSans-Bold-61" transform="translate(156.201172 0)"/>
     <use xlink:href="#DejaVuSans-Bold-6c" transform="translate(223.681641 0)"/>
     <use xlink:href="#DejaVuSans-Bold-69" transform="translate(257.958984 0)"/>
     <use xlink:href="#DejaVuSans-Bold-74" transform="translate(292.236328 0)"/>
     <use xlink:href="#DejaVuSans-Bold-79" transform="translate(340.039062 0)"/>
     <use xlink:href="#DejaVuSans-Bold-20" transform="translate(405.224609 0)"/>
     <use xlink:href="#DejaVuSans-Bold-43" transform="translate(440.039062 0)"/>
     <use xlink:href="#DejaVuSans-Bold-6f" transform="translate(513.427734 0)"/>
     <use xlink:href="#DejaVuSans-Bold-6e" transform="translate(582.128906 0)"/>
     <use xlink:href="#DejaVuSans-Bold-74" transform="translate(653.320312 0)"/>
     <use xlink:href="#DejaVuSans-Bold-65" transform="translate(701.123047 0)"/>
     <use xlink:href="#DejaVuSans-Bold-6e" transform="translate(768.945312 0)"/>
     <use xlink:href="#DejaVuSans-Bold-74" transform="translate(840.136719 0)"/>
    </g>
   </g>
   <g id="text_3">
    <!-- User-First -->
    <g style="fill: #10b981" transform="translate(580.99694 287.71125) scale(0.12 -0.12)">
     <defs>
      <path id="DejaVuSans-Bold-55" d="M 588 4666 
L 1791 4666 
L 1791 1869 
Q 1791 1291 1980 1042 
Q 2169 794 2597 794 
Q 3028 794 3217 1042 
Q 3406 1291 3406 1869 
L 3406 4666 
L 4609 4666 
L 4609 1869 
Q 4609 878 4112 393 
Q 3616 -91 2597 -91 
Q 1581 -91 1084 393 
Q 588 878 588 1869 
L 588 4666 
z
" transform="scale(0.015625)"/>
      <path id="DejaVuSans-Bold-46" d="M 588 4666 
L 3834 4666 
L 3834 3756 
L 1791 3756 
L 1791 2888 
L 3713 2888 
L 3713 1978 
L 1791 1978 
L 1791 0 
L 588 0 
L 588 4666 
z
" transform="scale(0.015625)"/>
     </defs>
     <use xlink:href="#DejaVuSans-Bold-55"/>
     <use xlink:href="#DejaVuSans-Bold-73" transform="translate(81.201172 0)"/>
     <use xlink:href="#DejaVuSans-Bold-65" transform="translate(140.722656 0)"/>
     <use xlink:href="#DejaVuSans-Bold-72" transform="translate(208.544922 0)"/>
     <use xlink:href="#DejaVuSans-Bold-2d" transform="translate(257.861328 0)"/>
     <use xlink:href="#DejaVuSans-Bold-46" transform="translate(299.365234 0)"/>
     <use xlink:href="#DejaVuSans-Bold-69" transform="translate(367.675781 0)"/>
     <use xlink:href="#DejaVuSans-Bold-72" transform="translate(401.953125 0)"/>
     <use xlink:href="#DejaVuSans-Bold-73" transform="translate(451.269531 0)"/>
     <use xlink:href="#DejaVuSans-Bold-74" transform="translate(510.791016 0)"/>
    </g>
   </g>
   <g id="text_4">
    <!-- Ethical Links -->
    <g style="fill: #f59e0b" transform="translate(299.241562 513.339157) scale(0.12 -0.12)">
     <defs>
      <path id="DejaVuSans-Bold-63" d="M 3366 3391 
L 3366 2478 
Q 3138 2634 2908 2709 
Q 2678 2784 2431 2784 
Q 1963 2784 1702 2511 
Q 1441 2238 1441 1747 
Q 1441 1256 1702 982 
Q 1963 709 2431 709 
Q 2694 709 2930 787 
Q 3166 866 3366 1019 
L 3366 103 
Q 3103 6 2833 -42 
Q 2563 -91 2291 -91 
Q 1344 -91 809 395 
Q 275 881 275 1747 
Q 275 2613 809 3098 
Q 1344 3584 2291 3584 
Q 2566 3584 2833 3536 
Q 3100 3488 3366 3391 
z
" transform="scale(0.015625)"/>
      <path id="DejaVuSans-Bold-4c" d="M 588 4666 
L 1791 4666 
L 1791 909 
L 3903 909 
L 3903 0 
L 588 0 
L 588 4666 
z
" transform="scale(0.015625)"/>
      <path id="DejaVuSans-Bold-6b" d="M 538 4863 
L 1656 4863 
L 1656 2216 
L 2944 3500 
L 4244 3500 
L 2534 1894 
L 4378 0 
L 3022 0 
L 1656 1459 
L 1656 0 
L 538 0 
L 538 4863 
z
" transform="scale(0.015625)"/>
     </defs>
     <use xlink:href="#DejaVuSans-Bold-45"/>
     <use xlink:href="#DejaVuSans-Bold-74" transform="translate(68.310547 0)"/>
     <use xlink:href="#DejaVuSans-Bold-68" transform="translate(116.113281 0)"/>
     <use xlink:href="#DejaVuSans-Bold-69" transform="translate(187.304688 0)"/>
     <use xlink:href="#DejaVuSans-Bold-63" transform="translate(221.582031 0)"/>
     <use xlink:href="#DejaVuSans-Bold-61" transform="translate(280.859375 0)"/>
     <use xlink:href="#DejaVuSans-Bold-6c" transform="translate(348.339844 0)"/>
     <use xlink:href="#DejaVuSans-Bold-20" transform="translate(382.617188 0)"/>
     <use xlink:href="#DejaVuSans-Bold-4c" transform="translate(417.431641 0)"/>
     <use xlink:href="#DejaVuSans-Bold-69" transform="translate(481.152344 0)"/>
     <use xlink:href="#DejaVuSans-Bold-6e" transform="translate(515.429688 0)"/>
     <use xlink:href="#DejaVuSans-Bold-6b" transform="translate(586.621094 0)"/>
     <use xlink:href="#DejaVuSans-Bold-73" transform="translate(653.125 0)"/>
    </g>
   </g>
   <g id="text_5">
    <!-- Technical Excellence -->
    <g style="fill: #8b5cf6" transform="translate(273.047813 62.083343) scale(0.12 -0.12)">
     <defs>
      <path id="DejaVuSans-Bold-54" d="M 31 4666 
L 4331 4666 
L 4331 3756 
L 2784 3756 
L 2784 0 
L 1581 0 
L 1581 3756 
L 31 3756 
L 31 4666 
z
" transform="scale(0.015625)"/>
      <path id="DejaVuSans-Bold-78" d="M 1422 1791 
L 159 3500 
L 1344 3500 
L 2059 2463 
L 2784 3500 
L 3969 3500 
L 2706 1797 
L 4031 0 
L 2847 0 
L 2059 1106 
L 1281 0 
L 97 0 
L 1422 1791 
z
" transform="scale(0.015625)"/>
     </defs>
     <use xlink:href="#DejaVuSans-Bold-54"/>
     <use xlink:href="#DejaVuSans-Bold-65" transform="translate(54.962891 0)"/>
     <use xlink:href="#DejaVuSans-Bold-63" transform="translate(122.785156 0)"/>
     <use xlink:href="#DejaVuSans-Bold-68" transform="translate(182.0625 0)"/>
     <use xlink:href="#DejaVuSans-Bold-6e" transform="translate(253.253906 0)"/>
     <use xlink:href="#DejaVuSans-Bold-69" transform="translate(324.445312 0)"/>
     <use xlink:href="#DejaVuSans-Bold-63" transform="translate(358.722656 0)"/>
     <use xlink:href="#DejaVuSans-Bold-61" transform="translate(418 0)"/>
     <use xlink:href="#DejaVuSans-Bold-6c" transform="translate(485.480469 0)"/>
     <use xlink:href="#DejaVuSans-Bold-20" transform="translate(519.757812 0)"/>
     <use xlink:href="#DejaVuSans-Bold-45" transform="translate(554.572266 0)"/>
     <use xlink:href="#DejaVuSans-Bold-78" transform="translate(622.882812 0)"/>
     <use xlink:href="#DejaVuSans-Bold-63" transform="translate(687.384766 0)"/>
     <use xlink:href="#DejaVuSans-Bold-65" transform="translate(746.662109 0)"/>
     <use xlink:href="#DejaVuSans-Bold-6c" transform="translate(814.484375 0)"/>
     <use xlink:href="#DejaVuSans-Bold-6c" transform="translate(848.761719 0)"/>
     <use xlink:href="#DejaVuSans-Bold-65" transform="translate(883.039062 0)"/>
     <use xlink:href="#DejaVuSans-Bold-6e" transform="translate(950.861328 0)"/>
     <use xlink:href="#DejaVuSans-Bold-63" transform="translate(1022.052734 0)"/>
     <use xlink:href="#DejaVuSans-Bold-65" transform="translate(1081.330078 0)"/>
    </g>
   </g>
  </g>
 </g>
 <defs>
  <clipPath id="p4a9e45f013">
   <rect x="7.2" y="7.2" width="669.6" height="554.4"/>
  </clipPath>
 </defs>
</svg>
