<?xml version="1.0" encoding="utf-8" standalone="no"?>
<!DOCTYPE svg PUBLIC "-//W3C//DTD SVG 1.1//EN"
  "http://www.w3.org/Graphics/SVG/1.1/DTD/svg11.dtd">
<svg xmlns:xlink="http://www.w3.org/1999/xlink" width="684pt" height="568.8pt" viewBox="0 0 684 568.8" xmlns="http://www.w3.org/2000/svg" version="1.1">
 <metadata>
  <rdf:RDF xmlns:dc="http://purl.org/dc/elements/1.1/" xmlns:cc="http://creativecommons.org/ns#" xmlns:rdf="http://www.w3.org/1999/02/22-rdf-syntax-ns#">
   <cc:Work>
    <dc:type rdf:resource="http://purl.org/dc/dcmitype/StillImage"/>
    <dc:date>2025-12-26T21:31:36.638902</dc:date>
    <dc:format>image/svg+xml</dc:format>
    <dc:creator>
     <cc:Agent>
      <dc:title>Matplotlib v3.10.8, https://matplotlib.org/</dc:title>
     </cc:Agent>
    </dc:creator>
   </cc:Work>
  </rdf:RDF>
 </metadata>
 <defs>
  <style type="text/css">*{stroke-linejoin: round; stroke-linecap: butt}</style>
 </defs>
 <g id="figure_1">
  <g id="patch_1">
   <path d="M 0 568.8 
L 684 568.8 
L 684 0 
L 0 0 
z
" style="fill: #f8f9fa"/>
  </g>
  <g id="axes_1">
   <g id="patch_2">
    <path d="M 153.241122 94.164706 
Q 205.742927 94.164706 256.567681 94.164706 
" clip-path="url(#p6c4b1ade39)" style="fill: none; opacity: 0.7; stroke-dasharray: 5.55,2.4; stroke-dashoffset: 0; stroke: #f59e0b; stroke-width: 1.5; stroke-linecap: round"/>
    <path d="M 246.567681 89.164706 
L 256.567681 94.164706 
L 246.567681 99.164706 
" clip-path="url(#p6c4b1ade39)" style="fill: none; opacity: 0.7; stroke-dasharray: 5.55,2.4; stroke-dashoffset: 0; stroke: #f59e0b; stroke-width: 1.5; stroke-linecap: round"/>
   </g>
   <g id="patch_3">
    <path d="M 530.758878 94.164706 
Q 478.257073 94.164706 427.432319 94.164706 
" clip-path="url(#p6c4b1ade39)" style="fill: none; opacity: 0.7; stroke-dasharray: 5.55,2.4; stroke-dashoffset: 0; stroke: #f59e0b; stroke-width: 1.5; stroke-linecap: round"/>
    <path d="M 437.432319 99.164706 
L 427.432319 94.164706 
L 437.432319 89.164706 
" clip-path="url(#p6c4b1ade39)" style="fill: none; opacity: 0.7; stroke-dasharray: 5.55,2.4; stroke-dashoffset: 0; stroke: #f59e0b; stroke-width: 1.5; stroke-linecap: round"/>
   </g>
   <g id="patch_4">
    <path d="M 342 358.492374 
Q 342 284.400585 342 211.985848 
" clip-path="url(#p6c4b1ade39)" style="fill: none; opacity: 0.7; stroke-dasharray: 5.55,2.4; stroke-dashoffset: 0; stroke: #f59e0b; stroke-width: 1.5; stroke-linecap: round"/>
    <path d="M 337 221.985848 
L 342 211.985848 
L 347 221.985848 
" clip-path="url(#p6c4b1ade39)" style="fill: none; opacity: 0.7; stroke-dasharray: 5.55,2.4; stroke-dashoffset: 0; stroke: #f59e0b; stroke-width: 1.5; stroke-linecap: round"/>
   </g>
   <g id="patch_5">
    <path d="M 225.209302 278.964706 
L 458.790698 278.964706 
Q 474.362791 278.964706 474.362791 257.223529 
L 474.362791 -68.894118 
Q 474.362791 -90.635294 458.790698 -90.635294 
L 225.209302 -90.635294 
Q 209.637209 -90.635294 209.637209 -68.894118 
L 209.637209 257.223529 
Q 209.637209 278.964706 225.209302 278.964706 
z
" clip-path="url(#p6c4b1ade39)" style="fill: #10b981; opacity: 0.3; stroke: #10b981; stroke-width: 2; stroke-linejoin: miter"/>
   </g>
   <g id="patch_6">
    <path d="M -12.265116 219.176471 
L 151.24186 219.176471 
Q 159.027907 219.176471 159.027907 208.305882 
L 159.027907 -19.976471 
Q 159.027907 -30.847059 151.24186 -30.847059 
L -12.265116 -30.847059 
Q -20.051163 -30.847059 -20.051163 -19.976471 
L -20.051163 208.305882 
Q -20.051163 219.176471 -12.265116 219.176471 
z
" clip-path="url(#p6c4b1ade39)" style="fill: #ef4444; opacity: 0.2; stroke: #ef4444; stroke-width: 1.5; stroke-linejoin: miter"/>
   </g>
   <g id="patch_7">
    <path d="M 532.75814 219.176471 
L 696.265116 219.176471 
Q 704.051163 219.176471 704.051163 208.305882 
L 704.051163 -19.976471 
Q 704.051163 -30.847059 696.265116 -30.847059 
L 532.75814 -30.847059 
Q 524.972093 -30.847059 524.972093 -19.976471 
L 524.972093 208.305882 
Q 524.972093 219.176471 532.75814 219.176471 
z
" clip-path="url(#p6c4b1ade39)" style="fill: #ef4444; opacity: 0.2; stroke: #ef4444; stroke-width: 1.5; stroke-linejoin: miter"/>
   </g>
   <g id="patch_8">
    <path d="M 260.246512 599.647059 
L 423.753488 599.647059 
Q 431.539535 599.647059 431.539535 588.776471 
L 431.539535 360.494118 
Q 431.539535 349.623529 423.753488 349.623529 
L 260.246512 349.623529 
Q 252.460465 349.623529 252.460465 360.494118 
L 252.460465 588.776471 
Q 252.460465 599.647059 260.246512 599.647059 
z
" clip-path="url(#p6c4b1ade39)" style="fill: #ef4444; opacity: 0.2; stroke: #ef4444; stroke-width: 1.5; stroke-linejoin: miter"/>
   </g>
   <g id="text_1">
    <!-- Preferred -->
    <g style="fill: #10b981" transform="translate(309.612188 84.038581) scale(0.12 -0.12)">
     <defs>
      <path id="DejaVuSans-Bold-50" d="M 588 4666 
L 2584 4666 
Q 3475 4666 3951 4270 
Q 4428 3875 4428 3144 
Q 4428 2409 3951 2014 
Q 3475 1619 2584 1619 
L 1791 1619 
L 1791 0 
L 588 0 
L 588 4666 
z
M 1791 3794 
L 1791 2491 
L 2456 2491 
Q 2806 2491 2997 2661 
Q 3188 2831 3188 3144 
Q 3188 3456 2997 3625 
Q 2806 3794 2456 3794 
L 1791 3794 
z
" transform="scale(0.015625)"/>
      <path id="DejaVuSans-Bold-72" d="M 3138 2547 
Q 2991 2616 2845 2648 
Q 2700 2681 2553 2681 
Q 2122 2681 1889 2404 
Q 1656 2128 1656 1613 
L 1656 0 
L 538 0 
L 538 3500 
L 1656 3500 
L 1656 2925 
Q 1872 3269 2151 3426 
Q 2431 3584 2822 3584 
Q 2878 3584 2943 3579 
Q 3009 3575 3134 3559 
L 3138 2547 
z
" transform="scale(0.015625)"/>
      <path id="DejaVuSans-Bold-65" d="M 4031 1759 
L 4031 1441 
L 1416 1441 
Q 1456 1047 1700 850 
Q 1944 653 2381 653 
Q 2734 653 3104 758 
Q 3475 863 3866 1075 
L 3866 213 
Q 3469 63 3072 -14 
Q 2675 -91 2278 -91 
Q 1328 -91 801 392 
Q 275 875 275 1747 
Q 275 2603 792 3093 
Q 1309 3584 2216 3584 
Q 3041 3584 3536 3087 
Q 4031 2591 4031 1759 
z
M 2881 2131 
Q 2881 2450 2695 2645 
Q 2509 2841 2209 2841 
Q 1884 2841 1681 2658 
Q 1478 2475 1428 2131 
L 2881 2131 
z
" transform="scale(0.015625)"/>
      <path id="DejaVuSans-Bold-66" d="M 2841 4863 
L 2841 4128 
L 2222 4128 
Q 1984 4128 1890 4042 
Q 1797 3956 1797 3744 
L 1797 3500 
L 2753 3500 
L 2753 2700 
L 1797 2700 
L 1797 0 
L 678 0 
L 678 2700 
L 122 2700 
L 122 3500 
L 678 3500 
L 678 3744 
Q 678 4316 997 4589 
Q 1316 4863 1984 4863 
L 2841 4863 
z
" transform="scale(0.015625)"/>
      <path id="DejaVuSans-Bold-64" d="M 2919 2988 
L 2919 4863 
L 4044 4863 
L 4044 0 
L 2919 0 
L 2919 506 
Q 2688 197 2409 53 
Q 2131 -91 1766 -91 
Q 1119 -91 703 423 
Q 288 938 288 1747 
Q 288 2556 703 3070 
Q 1119 3584 1766 3584 
Q 2128 3584 2408 3439 
Q 2688 3294 2919 2988 
z
M 2181 722 
Q 2541 722 2730 984 
Q 2919 1247 2919 1747 
Q 2919 2247 2730 2509 
Q 2541 2772 2181 2772 
Q 1825 2772 1636 2509 
Q 1447 2247 1447 1747 
Q 1447 1247 1636 984 
Q 1825 722 2181 722 
z
" transform="scale(0.015625)"/>
     </defs>
     <use xlink:href="#DejaVuSans-Bold-50"/>
     <use xlink:href="#DejaVuSans-Bold-72" transform="translate(73.291016 0)"/>
     <use xlink:href="#DejaVuSans-Bold-65" transform="translate(122.607422 0)"/>
     <use xlink:href="#DejaVuSans-Bold-66" transform="translate(190.429688 0)"/>
     <use xlink:href="#DejaVuSans-Bold-65" transform="translate(233.935547 0)"/>
     <use xlink:href="#DejaVuSans-Bold-72" transform="translate(301.757812 0)"/>
     <use xlink:href="#DejaVuSans-Bold-72" transform="translate(351.074219 0)"/>
     <use xlink:href="#DejaVuSans-Bold-65" transform="translate(400.390625 0)"/>
     <use xlink:href="#DejaVuSans-Bold-64" transform="translate(468.212891 0)"/>
    </g>
    <!-- Version -->
    <g style="fill: #10b981" transform="translate(316.636875 97.475956) scale(0.12 -0.12)">
     <defs>
      <path id="DejaVuSans-Bold-56" d="M 31 4666 
L 1241 4666 
L 2478 1222 
L 3713 4666 
L 4922 4666 
L 3194 0 
L 1759 0 
L 31 4666 
z
" transform="scale(0.015625)"/>
      <path id="DejaVuSans-Bold-73" d="M 3272 3391 
L 3272 2541 
Q 2913 2691 2578 2766 
Q 2244 2841 1947 2841 
Q 1628 2841 1473 2761 
Q 1319 2681 1319 2516 
Q 1319 2381 1436 2309 
Q 1553 2238 1856 2203 
L 2053 2175 
Q 2913 2066 3209 1816 
Q 3506 1566 3506 1031 
Q 3506 472 3093 190 
Q 2681 -91 1863 -91 
Q 1516 -91 1145 -36 
Q 775 19 384 128 
L 384 978 
Q 719 816 1070 734 
Q 1422 653 1784 653 
Q 2113 653 2278 743 
Q 2444 834 2444 1013 
Q 2444 1163 2330 1236 
Q 2216 1309 1875 1350 
L 1678 1375 
Q 931 1469 631 1722 
Q 331 1975 331 2491 
Q 331 3047 712 3315 
Q 1094 3584 1881 3584 
Q 2191 3584 2531 3537 
Q 2872 3491 3272 3391 
z
" transform="scale(0.015625)"/>
      <path id="DejaVuSans-Bold-69" d="M 538 3500 
L 1656 3500 
L 1656 0 
L 538 0 
L 538 3500 
z
M 538 4863 
L 1656 4863 
L 1656 3950 
L 538 3950 
L 538 4863 
z
" transform="scale(0.015625)"/>
      <path id="DejaVuSans-Bold-6f" d="M 2203 2784 
Q 1831 2784 1636 2517 
Q 1441 2250 1441 1747 
Q 1441 1244 1636 976 
Q 1831 709 2203 709 
Q 2569 709 2762 976 
Q 2956 1244 2956 1747 
Q 2956 2250 2762 2517 
Q 2569 2784 2203 2784 
z
M 2203 3584 
Q 3106 3584 3614 3096 
Q 4122 2609 4122 1747 
Q 4122 884 3614 396 
Q 3106 -91 2203 -91 
Q 1297 -91 786 396 
Q 275 884 275 1747 
Q 275 2609 786 3096 
Q 1297 3584 2203 3584 
z
" transform="scale(0.015625)"/>
      <path id="DejaVuSans-Bold-6e" d="M 4056 2131 
L 4056 0 
L 2931 0 
L 2931 347 
L 2931 1631 
Q 2931 2084 2911 2256 
Q 2891 2428 2841 2509 
Q 2775 2619 2662 2680 
Q 2550 2741 2406 2741 
Q 2056 2741 1856 2470 
Q 1656 2200 1656 1722 
L 1656 0 
L 538 0 
L 538 3500 
L 1656 3500 
L 1656 2988 
Q 1909 3294 2193 3439 
Q 2478 3584 2822 3584 
Q 3428 3584 3742 3212 
Q 4056 2841 4056 2131 
z
" transform="scale(0.015625)"/>
     </defs>
     <use xlink:href="#DejaVuSans-Bold-56"/>
     <use xlink:href="#DejaVuSans-Bold-65" transform="translate(71.892578 0)"/>
     <use xlink:href="#DejaVuSans-Bold-72" transform="translate(139.714844 0)"/>
     <use xlink:href="#DejaVuSans-Bold-73" transform="translate(189.03125 0)"/>
     <use xlink:href="#DejaVuSans-Bold-69" transform="translate(248.552734 0)"/>
     <use xlink:href="#DejaVuSans-Bold-6f" transform="translate(282.830078 0)"/>
     <use xlink:href="#DejaVuSans-Bold-6e" transform="translate(351.53125 0)"/>
    </g>
    <!-- (canonical) -->
    <g style="fill: #10b981" transform="translate(304.525312 110.913331) scale(0.12 -0.12)">
     <defs>
      <path id="DejaVuSans-Bold-28" d="M 2413 -844 
L 1484 -844 
Q 1006 -72 778 623 
Q 550 1319 550 2003 
Q 550 2688 779 3389 
Q 1009 4091 1484 4856 
L 2413 4856 
Q 2013 4116 1813 3408 
Q 1613 2700 1613 2009 
Q 1613 1319 1811 609 
Q 2009 -100 2413 -844 
z
" transform="scale(0.015625)"/>
      <path id="DejaVuSans-Bold-63" d="M 3366 3391 
L 3366 2478 
Q 3138 2634 2908 2709 
Q 2678 2784 2431 2784 
Q 1963 2784 1702 2511 
Q 1441 2238 1441 1747 
Q 1441 1256 1702 982 
Q 1963 709 2431 709 
Q 2694 709 2930 787 
Q 3166 866 3366 1019 
L 3366 103 
Q 3103 6 2833 -42 
Q 2563 -91 2291 -91 
Q 1344 -91 809 395 
Q 275 881 275 1747 
Q 275 2613 809 3098 
Q 1344 3584 2291 3584 
Q 2566 3584 2833 3536 
Q 3100 3488 3366 3391 
z
" transform="scale(0.015625)"/>
      <path id="DejaVuSans-Bold-61" d="M 2106 1575 
Q 1756 1575 1579 1456 
Q 1403 1338 1403 1106 
Q 1403 894 1545 773 
Q 1688 653 1941 653 
Q 2256 653 2472 879 
Q 2688 1106 2688 1447 
L 2688 1575 
L 2106 1575 
z
M 3816 1997 
L 3816 0 
L 2688 0 
L 2688 519 
Q 2463 200 2181 54 
Q 1900 -91 1497 -91 
Q 953 -91 614 226 
Q 275 544 275 1050 
Q 275 1666 698 1953 
Q 1122 2241 2028 2241 
L 2688 2241 
L 2688 2328 
Q 2688 2594 2478 2717 
Q 2269 2841 1825 2841 
Q 1466 2841 1156 2769 
Q 847 2697 581 2553 
L 581 3406 
Q 941 3494 1303 3539 
Q 1666 3584 2028 3584 
Q 2975 3584 3395 3211 
Q 3816 2838 3816 1997 
z
" transform="scale(0.015625)"/>
      <path id="DejaVuSans-Bold-6c" d="M 538 4863 
L 1656 4863 
L 1656 0 
L 538 0 
L 538 4863 
z
" transform="scale(0.015625)"/>
      <path id="DejaVuSans-Bold-29" d="M 513 -844 
Q 913 -100 1113 609 
Q 1313 1319 1313 2009 
Q 1313 2700 1113 3408 
Q 913 4116 513 4856 
L 1441 4856 
Q 1916 4091 2145 3389 
Q 2375 2688 2375 2003 
Q 2375 1319 2147 623 
Q 1919 -72 1441 -844 
L 513 -844 
z
" transform="scale(0.015625)"/>
     </defs>
     <use xlink:href="#DejaVuSans-Bold-28"/>
     <use xlink:href="#DejaVuSans-Bold-63" transform="translate(45.703125 0)"/>
     <use xlink:href="#DejaVuSans-Bold-61" transform="translate(104.980469 0)"/>
     <use xlink:href="#DejaVuSans-Bold-6e" transform="translate(172.460938 0)"/>
     <use xlink:href="#DejaVuSans-Bold-6f" transform="translate(243.652344 0)"/>
     <use xlink:href="#DejaVuSans-Bold-6e" transform="translate(312.353516 0)"/>
     <use xlink:href="#DejaVuSans-Bold-69" transform="translate(383.544922 0)"/>
     <use xlink:href="#DejaVuSans-Bold-63" transform="translate(417.822266 0)"/>
     <use xlink:href="#DejaVuSans-Bold-61" transform="translate(477.099609 0)"/>
     <use xlink:href="#DejaVuSans-Bold-6c" transform="translate(544.580078 0)"/>
     <use xlink:href="#DejaVuSans-Bold-29" transform="translate(578.857422 0)"/>
    </g>
   </g>
   <g id="text_2">
    <!-- Duplicate 1 -->
    <g style="fill: #ef4444" transform="translate(31.020872 97.475956) scale(0.12 -0.12)">
     <defs>
      <path id="DejaVuSans-Bold-44" d="M 1791 3756 
L 1791 909 
L 2222 909 
Q 2959 909 3348 1275 
Q 3738 1641 3738 2338 
Q 3738 3031 3350 3393 
Q 2963 3756 2222 3756 
L 1791 3756 
z
M 588 4666 
L 1856 4666 
Q 2919 4666 3439 4514 
Q 3959 4363 4331 4000 
Q 4659 3684 4818 3271 
Q 4978 2859 4978 2338 
Q 4978 1809 4818 1395 
Q 4659 981 4331 666 
Q 3956 303 3431 151 
Q 2906 0 1856 0 
L 588 0 
L 588 4666 
z
" transform="scale(0.015625)"/>
      <path id="DejaVuSans-Bold-75" d="M 500 1363 
L 500 3500 
L 1625 3500 
L 1625 3150 
Q 1625 2866 1622 2436 
Q 1619 2006 1619 1863 
Q 1619 1441 1641 1255 
Q 1663 1069 1716 984 
Q 1784 875 1895 815 
Q 2006 756 2150 756 
Q 2500 756 2700 1025 
Q 2900 1294 2900 1772 
L 2900 3500 
L 4019 3500 
L 4019 0 
L 2900 0 
L 2900 506 
Q 2647 200 2364 54 
Q 2081 -91 1741 -91 
Q 1134 -91 817 281 
Q 500 653 500 1363 
z
" transform="scale(0.015625)"/>
      <path id="DejaVuSans-Bold-70" d="M 1656 506 
L 1656 -1331 
L 538 -1331 
L 538 3500 
L 1656 3500 
L 1656 2988 
Q 1888 3294 2169 3439 
Q 2450 3584 2816 3584 
Q 3463 3584 3878 3070 
Q 4294 2556 4294 1747 
Q 4294 938 3878 423 
Q 3463 -91 2816 -91 
Q 2450 -91 2169 54 
Q 1888 200 1656 506 
z
M 2400 2772 
Q 2041 2772 1848 2508 
Q 1656 2244 1656 1747 
Q 1656 1250 1848 986 
Q 2041 722 2400 722 
Q 2759 722 2948 984 
Q 3138 1247 3138 1747 
Q 3138 2247 2948 2509 
Q 2759 2772 2400 2772 
z
" transform="scale(0.015625)"/>
      <path id="DejaVuSans-Bold-74" d="M 1759 4494 
L 1759 3500 
L 2913 3500 
L 2913 2700 
L 1759 2700 
L 1759 1216 
Q 1759 972 1856 886 
Q 1953 800 2241 800 
L 2816 800 
L 2816 0 
L 1856 0 
Q 1194 0 917 276 
Q 641 553 641 1216 
L 641 2700 
L 84 2700 
L 84 3500 
L 641 3500 
L 641 4494 
L 1759 4494 
z
" transform="scale(0.015625)"/>
      <path id="DejaVuSans-Bold-20" transform="scale(0.015625)"/>
      <path id="DejaVuSans-Bold-31" d="M 750 831 
L 1813 831 
L 1813 3847 
L 722 3622 
L 722 4441 
L 1806 4666 
L 2950 4666 
L 2950 831 
L 4013 831 
L 4013 0 
L 750 0 
L 750 831 
z
" transform="scale(0.015625)"/>
     </defs>
     <use xlink:href="#DejaVuSans-Bold-44"/>
     <use xlink:href="#DejaVuSans-Bold-75" transform="translate(83.007812 0)"/>
     <use xlink:href="#DejaVuSans-Bold-70" transform="translate(154.199219 0)"/>
     <use xlink:href="#DejaVuSans-Bold-6c" transform="translate(225.78125 0)"/>
     <use xlink:href="#DejaVuSans-Bold-69" transform="translate(260.058594 0)"/>
     <use xlink:href="#DejaVuSans-Bold-63" transform="translate(294.335938 0)"/>
     <use xlink:href="#DejaVuSans-Bold-61" transform="translate(353.613281 0)"/>
     <use xlink:href="#DejaVuSans-Bold-74" transform="translate(421.09375 0)"/>
     <use xlink:href="#DejaVuSans-Bold-65" transform="translate(468.896484 0)"/>
     <use xlink:href="#DejaVuSans-Bold-20" transform="translate(536.71875 0)"/>
     <use xlink:href="#DejaVuSans-Bold-31" transform="translate(571.533203 0)"/>
    </g>
   </g>
   <g id="text_3">
    <g id="patch_9">
     <path d="M 184.417311 99.635956 
L 227.071061 99.635956 
Q 228.671061 99.635956 228.671061 98.035956 
L 228.671061 90.293456 
Q 228.671061 88.693456 227.071061 88.693456 
L 184.417311 88.693456 
Q 182.817311 88.693456 182.817311 90.293456 
L 182.817311 98.035956 
Q 182.817311 99.635956 184.417311 99.635956 
z
" style="fill: #ffffff; opacity: 0.8; stroke: #000000; stroke-linejoin: miter"/>
    </g>
    <!-- canonical -->
    <g style="fill: #f59e0b" transform="translate(184.417311 96.372206) scale(0.08 -0.08)">
     <use xlink:href="#DejaVuSans-Bold-63"/>
     <use xlink:href="#DejaVuSans-Bold-61" transform="translate(59.277344 0)"/>
     <use xlink:href="#DejaVuSans-Bold-6e" transform="translate(126.757812 0)"/>
     <use xlink:href="#DejaVuSans-Bold-6f" transform="translate(197.949219 0)"/>
     <use xlink:href="#DejaVuSans-Bold-6e" transform="translate(266.650391 0)"/>
     <use xlink:href="#DejaVuSans-Bold-69" transform="translate(337.841797 0)"/>
     <use xlink:href="#DejaVuSans-Bold-63" transform="translate(372.119141 0)"/>
     <use xlink:href="#DejaVuSans-Bold-61" transform="translate(431.396484 0)"/>
     <use xlink:href="#DejaVuSans-Bold-6c" transform="translate(498.876953 0)"/>
    </g>
   </g>
   <g id="text_4">
    <!-- Duplicate 2 -->
    <g style="fill: #ef4444" transform="translate(576.044128 97.475956) scale(0.12 -0.12)">
     <defs>
      <path id="DejaVuSans-Bold-32" d="M 1844 884 
L 3897 884 
L 3897 0 
L 506 0 
L 506 884 
L 2209 2388 
Q 2438 2594 2547 2791 
Q 2656 2988 2656 3200 
Q 2656 3528 2436 3728 
Q 2216 3928 1850 3928 
Q 1569 3928 1234 3808 
Q 900 3688 519 3450 
L 519 4475 
Q 925 4609 1322 4679 
Q 1719 4750 2100 4750 
Q 2938 4750 3402 4381 
Q 3866 4013 3866 3353 
Q 3866 2972 3669 2642 
Q 3472 2313 2841 1759 
L 1844 884 
z
" transform="scale(0.015625)"/>
     </defs>
     <use xlink:href="#DejaVuSans-Bold-44"/>
     <use xlink:href="#DejaVuSans-Bold-75" transform="translate(83.007812 0)"/>
     <use xlink:href="#DejaVuSans-Bold-70" transform="translate(154.199219 0)"/>
     <use xlink:href="#DejaVuSans-Bold-6c" transform="translate(225.78125 0)"/>
     <use xlink:href="#DejaVuSans-Bold-69" transform="translate(260.058594 0)"/>
     <use xlink:href="#DejaVuSans-Bold-63" transform="translate(294.335938 0)"/>
     <use xlink:href="#DejaVuSans-Bold-61" transform="translate(353.613281 0)"/>
     <use xlink:href="#DejaVuSans-Bold-74" transform="translate(421.09375 0)"/>
     <use xlink:href="#DejaVuSans-Bold-65" transform="translate(468.896484 0)"/>
     <use xlink:href="#DejaVuSans-Bold-20" transform="translate(536.71875 0)"/>
     <use xlink:href="#DejaVuSans-Bold-32" transform="translate(571.533203 0)"/>
    </g>
   </g>
   <g id="text_5">
    <g id="patch_10">
     <path d="M 456.928939 99.635956 
L 499.582689 99.635956 
Q 501.182689 99.635956 501.182689 98.035956 
L 501.182689 90.293456 
Q 501.182689 88.693456 499.582689 88.693456 
L 456.928939 88.693456 
Q 455.328939 88.693456 455.328939 90.293456 
L 455.328939 98.035956 
Q 455.328939 99.635956 456.928939 99.635956 
z
" style="fill: #ffffff; opacity: 0.8; stroke: #000000; stroke-linejoin: miter"/>
    </g>
    <!-- canonical -->
    <g style="fill: #f59e0b" transform="translate(456.928939 96.372206) scale(0.08 -0.08)">
     <use xlink:href="#DejaVuSans-Bold-63"/>
     <use xlink:href="#DejaVuSans-Bold-61" transform="translate(59.277344 0)"/>
     <use xlink:href="#DejaVuSans-Bold-6e" transform="translate(126.757812 0)"/>
     <use xlink:href="#DejaVuSans-Bold-6f" transform="translate(197.949219 0)"/>
     <use xlink:href="#DejaVuSans-Bold-6e" transform="translate(266.650391 0)"/>
     <use xlink:href="#DejaVuSans-Bold-69" transform="translate(337.841797 0)"/>
     <use xlink:href="#DejaVuSans-Bold-63" transform="translate(372.119141 0)"/>
     <use xlink:href="#DejaVuSans-Bold-61" transform="translate(431.396484 0)"/>
     <use xlink:href="#DejaVuSans-Bold-6c" transform="translate(498.876953 0)"/>
    </g>
   </g>
   <g id="text_6">
    <!-- Duplicate 3 -->
    <g style="fill: #ef4444" transform="translate(303.5325 477.946544) scale(0.12 -0.12)">
     <defs>
      <path id="DejaVuSans-Bold-33" d="M 2981 2516 
Q 3453 2394 3698 2092 
Q 3944 1791 3944 1325 
Q 3944 631 3412 270 
Q 2881 -91 1863 -91 
Q 1503 -91 1142 -33 
Q 781 25 428 141 
L 428 1069 
Q 766 900 1098 814 
Q 1431 728 1753 728 
Q 2231 728 2486 893 
Q 2741 1059 2741 1369 
Q 2741 1688 2480 1852 
Q 2219 2016 1709 2016 
L 1228 2016 
L 1228 2791 
L 1734 2791 
Q 2188 2791 2409 2933 
Q 2631 3075 2631 3366 
Q 2631 3634 2415 3781 
Q 2200 3928 1806 3928 
Q 1516 3928 1219 3862 
Q 922 3797 628 3669 
L 628 4550 
Q 984 4650 1334 4700 
Q 1684 4750 2022 4750 
Q 2931 4750 3382 4451 
Q 3834 4153 3834 3553 
Q 3834 3144 3618 2883 
Q 3403 2622 2981 2516 
z
" transform="scale(0.015625)"/>
     </defs>
     <use xlink:href="#DejaVuSans-Bold-44"/>
     <use xlink:href="#DejaVuSans-Bold-75" transform="translate(83.007812 0)"/>
     <use xlink:href="#DejaVuSans-Bold-70" transform="translate(154.199219 0)"/>
     <use xlink:href="#DejaVuSans-Bold-6c" transform="translate(225.78125 0)"/>
     <use xlink:href="#DejaVuSans-Bold-69" transform="translate(260.058594 0)"/>
     <use xlink:href="#DejaVuSans-Bold-63" transform="translate(294.335938 0)"/>
     <use xlink:href="#DejaVuSans-Bold-61" transform="translate(353.613281 0)"/>
     <use xlink:href="#DejaVuSans-Bold-74" transform="translate(421.09375 0)"/>
     <use xlink:href="#DejaVuSans-Bold-65" transform="translate(468.896484 0)"/>
     <use xlink:href="#DejaVuSans-Bold-20" transform="translate(536.71875 0)"/>
     <use xlink:href="#DejaVuSans-Bold-33" transform="translate(571.533203 0)"/>
    </g>
   </g>
   <g id="text_7">
    <g id="patch_11">
     <path d="M 320.673125 289.87125 
L 363.326875 289.87125 
Q 364.926875 289.87125 364.926875 288.27125 
L 364.926875 280.52875 
Q 364.926875 278.92875 363.326875 278.92875 
L 320.673125 278.92875 
Q 319.073125 278.92875 319.073125 280.52875 
L 319.073125 288.27125 
Q 319.073125 289.87125 320.673125 289.87125 
z
" style="fill: #ffffff; opacity: 0.8; stroke: #000000; stroke-linejoin: miter"/>
    </g>
    <!-- canonical -->
    <g style="fill: #f59e0b" transform="translate(320.673125 286.6075) scale(0.08 -0.08)">
     <use xlink:href="#DejaVuSans-Bold-63"/>
     <use xlink:href="#DejaVuSans-Bold-61" transform="translate(59.277344 0)"/>
     <use xlink:href="#DejaVuSans-Bold-6e" transform="translate(126.757812 0)"/>
     <use xlink:href="#DejaVuSans-Bold-6f" transform="translate(197.949219 0)"/>
     <use xlink:href="#DejaVuSans-Bold-6e" transform="translate(266.650391 0)"/>
     <use xlink:href="#DejaVuSans-Bold-69" transform="translate(337.841797 0)"/>
     <use xlink:href="#DejaVuSans-Bold-63" transform="translate(372.119141 0)"/>
     <use xlink:href="#DejaVuSans-Bold-61" transform="translate(431.396484 0)"/>
     <use xlink:href="#DejaVuSans-Bold-6c" transform="translate(498.876953 0)"/>
    </g>
   </g>
  </g>
 </g>
 <defs>
  <clipPath id="p6c4b1ade39">
   <rect x="7.2" y="7.2" width="669.6" height="554.4"/>
  </clipPath>
 </defs>
</svg>
