<?xml version="1.0" encoding="utf-8" standalone="no"?>
<!DOCTYPE svg PUBLIC "-//W3C//DTD SVG 1.1//EN"
  "http://www.w3.org/Graphics/SVG/1.1/DTD/svg11.dtd">
<svg xmlns:xlink="http://www.w3.org/1999/xlink" width="572.4pt" height="568.8pt" viewBox="0 0 572.4 568.8" xmlns="http://www.w3.org/2000/svg" version="1.1">
 <metadata>
  <rdf:RDF xmlns:dc="http://purl.org/dc/elements/1.1/" xmlns:cc="http://creativecommons.org/ns#" xmlns:rdf="http://www.w3.org/1999/02/22-rdf-syntax-ns#">
   <cc:Work>
    <dc:type rdf:resource="http://purl.org/dc/dcmitype/StillImage"/>
    <dc:date>2025-12-26T21:31:32.954852</dc:date>
    <dc:format>image/svg+xml</dc:format>
    <dc:creator>
     <cc:Agent>
      <dc:title>Matplotlib v3.10.8, https://matplotlib.org/</dc:title>
     </cc:Agent>
    </dc:creator>
   </cc:Work>
  </rdf:RDF>
 </metadata>
 <defs>
  <style type="text/css">*{stroke-linejoin: round; stroke-linecap: butt}</style>
 </defs>
 <g id="figure_1">
  <g id="patch_1">
   <path d="M 0 568.8 
L 572.4 568.8 
L 572.4 0 
L 0 0 
z
" style="fill: #f8f9fa"/>
  </g>
  <g id="axes_1">
   <g id="patch_2">
    <path d="M 65.936842 157.214118 
L 506.463158 157.214118 
Q 513.805263 157.214118 513.805263 150.691765 
L 513.805263 111.557647 
Q 513.805263 105.035294 506.463158 105.035294 
L 65.936842 105.035294 
Q 58.594737 105.035294 58.594737 111.557647 
L 58.594737 150.691765 
Q 58.594737 157.214118 65.936842 157.214118 
z
" clip-path="url(#p525613a8b4)" style="fill: #2563eb; opacity: 0.2; stroke: #2563eb; stroke-width: 1.5; stroke-linejoin: miter"/>
   </g>
   <g id="patch_3">
    <path d="M 95.305263 255.049412 
L 477.094737 255.049412 
Q 484.436842 255.049412 484.436842 248.527059 
L 484.436842 209.392941 
Q 484.436842 202.870588 477.094737 202.870588 
L 95.305263 202.870588 
Q 87.963158 202.870588 87.963158 209.392941 
L 87.963158 248.527059 
Q 87.963158 255.049412 95.305263 255.049412 
z
" clip-path="url(#p525613a8b4)" style="fill: #10b981; opacity: 0.2; stroke: #10b981; stroke-width: 1.5; stroke-linejoin: miter"/>
   </g>
   <g id="patch_4">
    <path d="M 124.673684 320.272941 
L 447.726316 320.272941 
Q 455.068421 320.272941 455.068421 313.750588 
L 455.068421 274.616471 
Q 455.068421 268.094118 447.726316 268.094118 
L 124.673684 268.094118 
Q 117.331579 268.094118 117.331579 274.616471 
L 117.331579 313.750588 
Q 117.331579 320.272941 124.673684 320.272941 
z
" clip-path="url(#p525613a8b4)" style="fill: #8b5cf6; opacity: 0.2; stroke: #8b5cf6; stroke-width: 1.5; stroke-linejoin: miter"/>
   </g>
   <g id="patch_5">
    <path d="M 124.673684 385.496471 
L 447.726316 385.496471 
Q 455.068421 385.496471 455.068421 378.974118 
L 455.068421 339.84 
Q 455.068421 333.317647 447.726316 333.317647 
L 124.673684 333.317647 
Q 117.331579 333.317647 117.331579 339.84 
L 117.331579 378.974118 
Q 117.331579 385.496471 124.673684 385.496471 
z
" clip-path="url(#p525613a8b4)" style="fill: #8b5cf6; opacity: 0.2; stroke: #8b5cf6; stroke-width: 1.5; stroke-linejoin: miter"/>
   </g>
   <g id="patch_6">
    <path d="M 95.305263 450.72 
L 477.094737 450.72 
Q 484.436842 450.72 484.436842 444.197647 
L 484.436842 405.063529 
Q 484.436842 398.541176 477.094737 398.541176 
L 95.305263 398.541176 
Q 87.963158 398.541176 87.963158 405.063529 
L 87.963158 444.197647 
Q 87.963158 450.72 95.305263 450.72 
z
" clip-path="url(#p525613a8b4)" style="fill: #10b981; opacity: 0.2; stroke: #10b981; stroke-width: 1.5; stroke-linejoin: miter"/>
   </g>
   <g id="patch_7">
    <path d="M 124.673684 515.943529 
L 447.726316 515.943529 
Q 455.068421 515.943529 455.068421 509.421176 
L 455.068421 470.287059 
Q 455.068421 463.764706 447.726316 463.764706 
L 124.673684 463.764706 
Q 117.331579 463.764706 117.331579 470.287059 
L 117.331579 509.421176 
Q 117.331579 515.943529 124.673684 515.943529 
z
" clip-path="url(#p525613a8b4)" style="fill: #8b5cf6; opacity: 0.2; stroke: #8b5cf6; stroke-width: 1.5; stroke-linejoin: miter"/>
   </g>
   <g id="text_1">
    <!-- H1: Main Topic -->
    <g style="fill: #2563eb" transform="translate(220.2675 135.539706) scale(0.16 -0.16)">
     <defs>
      <path id="DejaVuSans-Bold-48" d="M 588 4666 
L 1791 4666 
L 1791 2888 
L 3566 2888 
L 3566 4666 
L 4769 4666 
L 4769 0 
L 3566 0 
L 3566 1978 
L 1791 1978 
L 1791 0 
L 588 0 
L 588 4666 
z
" transform="scale(0.015625)"/>
      <path id="DejaVuSans-Bold-31" d="M 750 831 
L 1813 831 
L 1813 3847 
L 722 3622 
L 722 4441 
L 1806 4666 
L 2950 4666 
L 2950 831 
L 4013 831 
L 4013 0 
L 750 0 
L 750 831 
z
" transform="scale(0.015625)"/>
      <path id="DejaVuSans-Bold-3a" d="M 716 3500 
L 1844 3500 
L 1844 2291 
L 716 2291 
L 716 3500 
z
M 716 1209 
L 1844 1209 
L 1844 0 
L 716 0 
L 716 1209 
z
" transform="scale(0.015625)"/>
      <path id="DejaVuSans-Bold-20" transform="scale(0.015625)"/>
      <path id="DejaVuSans-Bold-4d" d="M 588 4666 
L 2119 4666 
L 3181 2169 
L 4250 4666 
L 5778 4666 
L 5778 0 
L 4641 0 
L 4641 3413 
L 3566 897 
L 2803 897 
L 1728 3413 
L 1728 0 
L 588 0 
L 588 4666 
z
" transform="scale(0.015625)"/>
      <path id="DejaVuSans-Bold-61" d="M 2106 1575 
Q 1756 1575 1579 1456 
Q 1403 1338 1403 1106 
Q 1403 894 1545 773 
Q 1688 653 1941 653 
Q 2256 653 2472 879 
Q 2688 1106 2688 1447 
L 2688 1575 
L 2106 1575 
z
M 3816 1997 
L 3816 0 
L 2688 0 
L 2688 519 
Q 2463 200 2181 54 
Q 1900 -91 1497 -91 
Q 953 -91 614 226 
Q 275 544 275 1050 
Q 275 1666 698 1953 
Q 1122 2241 2028 2241 
L 2688 2241 
L 2688 2328 
Q 2688 2594 2478 2717 
Q 2269 2841 1825 2841 
Q 1466 2841 1156 2769 
Q 847 2697 581 2553 
L 581 3406 
Q 941 3494 1303 3539 
Q 1666 3584 2028 3584 
Q 2975 3584 3395 3211 
Q 3816 2838 3816 1997 
z
" transform="scale(0.015625)"/>
      <path id="DejaVuSans-Bold-69" d="M 538 3500 
L 1656 3500 
L 1656 0 
L 538 0 
L 538 3500 
z
M 538 4863 
L 1656 4863 
L 1656 3950 
L 538 3950 
L 538 4863 
z
" transform="scale(0.015625)"/>
      <path id="DejaVuSans-Bold-6e" d="M 4056 2131 
L 4056 0 
L 2931 0 
L 2931 347 
L 2931 1631 
Q 2931 2084 2911 2256 
Q 2891 2428 2841 2509 
Q 2775 2619 2662 2680 
Q 2550 2741 2406 2741 
Q 2056 2741 1856 2470 
Q 1656 2200 1656 1722 
L 1656 0 
L 538 0 
L 538 3500 
L 1656 3500 
L 1656 2988 
Q 1909 3294 2193 3439 
Q 2478 3584 2822 3584 
Q 3428 3584 3742 3212 
Q 4056 2841 4056 2131 
z
" transform="scale(0.015625)"/>
      <path id="DejaVuSans-Bold-54" d="M 31 4666 
L 4331 4666 
L 4331 3756 
L 2784 3756 
L 2784 0 
L 1581 0 
L 1581 3756 
L 31 3756 
L 31 4666 
z
" transform="scale(0.015625)"/>
      <path id="DejaVuSans-Bold-6f" d="M 2203 2784 
Q 1831 2784 1636 2517 
Q 1441 2250 1441 1747 
Q 1441 1244 1636 976 
Q 1831 709 2203 709 
Q 2569 709 2762 976 
Q 2956 1244 2956 1747 
Q 2956 2250 2762 2517 
Q 2569 2784 2203 2784 
z
M 2203 3584 
Q 3106 3584 3614 3096 
Q 4122 2609 4122 1747 
Q 4122 884 3614 396 
Q 3106 -91 2203 -91 
Q 1297 -91 786 396 
Q 275 884 275 1747 
Q 275 2609 786 3096 
Q 1297 3584 2203 3584 
z
" transform="scale(0.015625)"/>
      <path id="DejaVuSans-Bold-70" d="M 1656 506 
L 1656 -1331 
L 538 -1331 
L 538 3500 
L 1656 3500 
L 1656 2988 
Q 1888 3294 2169 3439 
Q 2450 3584 2816 3584 
Q 3463 3584 3878 3070 
Q 4294 2556 4294 1747 
Q 4294 938 3878 423 
Q 3463 -91 2816 -91 
Q 2450 -91 2169 54 
Q 1888 200 1656 506 
z
M 2400 2772 
Q 2041 2772 1848 2508 
Q 1656 2244 1656 1747 
Q 1656 1250 1848 986 
Q 2041 722 2400 722 
Q 2759 722 2948 984 
Q 3138 1247 3138 1747 
Q 3138 2247 2948 2509 
Q 2759 2772 2400 2772 
z
" transform="scale(0.015625)"/>
      <path id="DejaVuSans-Bold-63" d="M 3366 3391 
L 3366 2478 
Q 3138 2634 2908 2709 
Q 2678 2784 2431 2784 
Q 1963 2784 1702 2511 
Q 1441 2238 1441 1747 
Q 1441 1256 1702 982 
Q 1963 709 2431 709 
Q 2694 709 2930 787 
Q 3166 866 3366 1019 
L 3366 103 
Q 3103 6 2833 -42 
Q 2563 -91 2291 -91 
Q 1344 -91 809 395 
Q 275 881 275 1747 
Q 275 2613 809 3098 
Q 1344 3584 2291 3584 
Q 2566 3584 2833 3536 
Q 3100 3488 3366 3391 
z
" transform="scale(0.015625)"/>
     </defs>
     <use xlink:href="#DejaVuSans-Bold-48"/>
     <use xlink:href="#DejaVuSans-Bold-31" transform="translate(83.691406 0)"/>
     <use xlink:href="#DejaVuSans-Bold-3a" transform="translate(153.271484 0)"/>
     <use xlink:href="#DejaVuSans-Bold-20" transform="translate(193.261719 0)"/>
     <use xlink:href="#DejaVuSans-Bold-4d" transform="translate(228.076172 0)"/>
     <use xlink:href="#DejaVuSans-Bold-61" transform="translate(327.587891 0)"/>
     <use xlink:href="#DejaVuSans-Bold-69" transform="translate(395.068359 0)"/>
     <use xlink:href="#DejaVuSans-Bold-6e" transform="translate(429.345703 0)"/>
     <use xlink:href="#DejaVuSans-Bold-20" transform="translate(500.537109 0)"/>
     <use xlink:href="#DejaVuSans-Bold-54" transform="translate(535.351562 0)"/>
     <use xlink:href="#DejaVuSans-Bold-6f" transform="translate(590.314453 0)"/>
     <use xlink:href="#DejaVuSans-Bold-70" transform="translate(659.015625 0)"/>
     <use xlink:href="#DejaVuSans-Bold-69" transform="translate(730.597656 0)"/>
     <use xlink:href="#DejaVuSans-Bold-63" transform="translate(764.875 0)"/>
    </g>
   </g>
   <g id="text_2">
    <!-- H2: Subsection 1 -->
    <g style="fill: #10b981" transform="translate(219.292031 232.823125) scale(0.14 -0.14)">
     <defs>
      <path id="DejaVuSans-Bold-32" d="M 1844 884 
L 3897 884 
L 3897 0 
L 506 0 
L 506 884 
L 2209 2388 
Q 2438 2594 2547 2791 
Q 2656 2988 2656 3200 
Q 2656 3528 2436 3728 
Q 2216 3928 1850 3928 
Q 1569 3928 1234 3808 
Q 900 3688 519 3450 
L 519 4475 
Q 925 4609 1322 4679 
Q 1719 4750 2100 4750 
Q 2938 4750 3402 4381 
Q 3866 4013 3866 3353 
Q 3866 2972 3669 2642 
Q 3472 2313 2841 1759 
L 1844 884 
z
" transform="scale(0.015625)"/>
      <path id="DejaVuSans-Bold-53" d="M 3834 4519 
L 3834 3531 
Q 3450 3703 3084 3790 
Q 2719 3878 2394 3878 
Q 1963 3878 1756 3759 
Q 1550 3641 1550 3391 
Q 1550 3203 1689 3098 
Q 1828 2994 2194 2919 
L 2706 2816 
Q 3484 2659 3812 2340 
Q 4141 2022 4141 1434 
Q 4141 663 3683 286 
Q 3225 -91 2284 -91 
Q 1841 -91 1394 -6 
Q 947 78 500 244 
L 500 1259 
Q 947 1022 1364 901 
Q 1781 781 2169 781 
Q 2563 781 2772 912 
Q 2981 1044 2981 1288 
Q 2981 1506 2839 1625 
Q 2697 1744 2272 1838 
L 1806 1941 
Q 1106 2091 782 2419 
Q 459 2747 459 3303 
Q 459 4000 909 4375 
Q 1359 4750 2203 4750 
Q 2588 4750 2994 4692 
Q 3400 4634 3834 4519 
z
" transform="scale(0.015625)"/>
      <path id="DejaVuSans-Bold-75" d="M 500 1363 
L 500 3500 
L 1625 3500 
L 1625 3150 
Q 1625 2866 1622 2436 
Q 1619 2006 1619 1863 
Q 1619 1441 1641 1255 
Q 1663 1069 1716 984 
Q 1784 875 1895 815 
Q 2006 756 2150 756 
Q 2500 756 2700 1025 
Q 2900 1294 2900 1772 
L 2900 3500 
L 4019 3500 
L 4019 0 
L 2900 0 
L 2900 506 
Q 2647 200 2364 54 
Q 2081 -91 1741 -91 
Q 1134 -91 817 281 
Q 500 653 500 1363 
z
" transform="scale(0.015625)"/>
      <path id="DejaVuSans-Bold-62" d="M 2400 722 
Q 2759 722 2948 984 
Q 3138 1247 3138 1747 
Q 3138 2247 2948 2509 
Q 2759 2772 2400 2772 
Q 2041 2772 1848 2508 
Q 1656 2244 1656 1747 
Q 1656 1250 1848 986 
Q 2041 722 2400 722 
z
M 1656 2988 
Q 1888 3294 2169 3439 
Q 2450 3584 2816 3584 
Q 3463 3584 3878 3070 
Q 4294 2556 4294 1747 
Q 4294 938 3878 423 
Q 3463 -91 2816 -91 
Q 2450 -91 2169 54 
Q 1888 200 1656 506 
L 1656 0 
L 538 0 
L 538 4863 
L 1656 4863 
L 1656 2988 
z
" transform="scale(0.015625)"/>
      <path id="DejaVuSans-Bold-73" d="M 3272 3391 
L 3272 2541 
Q 2913 2691 2578 2766 
Q 2244 2841 1947 2841 
Q 1628 2841 1473 2761 
Q 1319 2681 1319 2516 
Q 1319 2381 1436 2309 
Q 1553 2238 1856 2203 
L 2053 2175 
Q 2913 2066 3209 1816 
Q 3506 1566 3506 1031 
Q 3506 472 3093 190 
Q 2681 -91 1863 -91 
Q 1516 -91 1145 -36 
Q 775 19 384 128 
L 384 978 
Q 719 816 1070 734 
Q 1422 653 1784 653 
Q 2113 653 2278 743 
Q 2444 834 2444 1013 
Q 2444 1163 2330 1236 
Q 2216 1309 1875 1350 
L 1678 1375 
Q 931 1469 631 1722 
Q 331 1975 331 2491 
Q 331 3047 712 3315 
Q 1094 3584 1881 3584 
Q 2191 3584 2531 3537 
Q 2872 3491 3272 3391 
z
" transform="scale(0.015625)"/>
      <path id="DejaVuSans-Bold-65" d="M 4031 1759 
L 4031 1441 
L 1416 1441 
Q 1456 1047 1700 850 
Q 1944 653 2381 653 
Q 2734 653 3104 758 
Q 3475 863 3866 1075 
L 3866 213 
Q 3469 63 3072 -14 
Q 2675 -91 2278 -91 
Q 1328 -91 801 392 
Q 275 875 275 1747 
Q 275 2603 792 3093 
Q 1309 3584 2216 3584 
Q 3041 3584 3536 3087 
Q 4031 2591 4031 1759 
z
M 2881 2131 
Q 2881 2450 2695 2645 
Q 2509 2841 2209 2841 
Q 1884 2841 1681 2658 
Q 1478 2475 1428 2131 
L 2881 2131 
z
" transform="scale(0.015625)"/>
      <path id="DejaVuSans-Bold-74" d="M 1759 4494 
L 1759 3500 
L 2913 3500 
L 2913 2700 
L 1759 2700 
L 1759 1216 
Q 1759 972 1856 886 
Q 1953 800 2241 800 
L 2816 800 
L 2816 0 
L 1856 0 
Q 1194 0 917 276 
Q 641 553 641 1216 
L 641 2700 
L 84 2700 
L 84 3500 
L 641 3500 
L 641 4494 
L 1759 4494 
z
" transform="scale(0.015625)"/>
     </defs>
     <use xlink:href="#DejaVuSans-Bold-48"/>
     <use xlink:href="#DejaVuSans-Bold-32" transform="translate(83.691406 0)"/>
     <use xlink:href="#DejaVuSans-Bold-3a" transform="translate(153.271484 0)"/>
     <use xlink:href="#DejaVuSans-Bold-20" transform="translate(193.261719 0)"/>
     <use xlink:href="#DejaVuSans-Bold-53" transform="translate(228.076172 0)"/>
     <use xlink:href="#DejaVuSans-Bold-75" transform="translate(300.097656 0)"/>
     <use xlink:href="#DejaVuSans-Bold-62" transform="translate(371.289062 0)"/>
     <use xlink:href="#DejaVuSans-Bold-73" transform="translate(442.871094 0)"/>
     <use xlink:href="#DejaVuSans-Bold-65" transform="translate(502.392578 0)"/>
     <use xlink:href="#DejaVuSans-Bold-63" transform="translate(570.214844 0)"/>
     <use xlink:href="#DejaVuSans-Bold-74" transform="translate(629.492188 0)"/>
     <use xlink:href="#DejaVuSans-Bold-69" transform="translate(677.294922 0)"/>
     <use xlink:href="#DejaVuSans-Bold-6f" transform="translate(711.572266 0)"/>
     <use xlink:href="#DejaVuSans-Bold-6e" transform="translate(780.273438 0)"/>
     <use xlink:href="#DejaVuSans-Bold-20" transform="translate(851.464844 0)"/>
     <use xlink:href="#DejaVuSans-Bold-31" transform="translate(886.279297 0)"/>
    </g>
   </g>
   <g id="text_3">
    <!-- H3: Detail 1.1 -->
    <g style="fill: #8b5cf6" transform="translate(239.717813 297.494779) scale(0.12 -0.12)">
     <defs>
      <path id="DejaVuSans-Bold-33" d="M 2981 2516 
Q 3453 2394 3698 2092 
Q 3944 1791 3944 1325 
Q 3944 631 3412 270 
Q 2881 -91 1863 -91 
Q 1503 -91 1142 -33 
Q 781 25 428 141 
L 428 1069 
Q 766 900 1098 814 
Q 1431 728 1753 728 
Q 2231 728 2486 893 
Q 2741 1059 2741 1369 
Q 2741 1688 2480 1852 
Q 2219 2016 1709 2016 
L 1228 2016 
L 1228 2791 
L 1734 2791 
Q 2188 2791 2409 2933 
Q 2631 3075 2631 3366 
Q 2631 3634 2415 3781 
Q 2200 3928 1806 3928 
Q 1516 3928 1219 3862 
Q 922 3797 628 3669 
L 628 4550 
Q 984 4650 1334 4700 
Q 1684 4750 2022 4750 
Q 2931 4750 3382 4451 
Q 3834 4153 3834 3553 
Q 3834 3144 3618 2883 
Q 3403 2622 2981 2516 
z
" transform="scale(0.015625)"/>
      <path id="DejaVuSans-Bold-44" d="M 1791 3756 
L 1791 909 
L 2222 909 
Q 2959 909 3348 1275 
Q 3738 1641 3738 2338 
Q 3738 3031 3350 3393 
Q 2963 3756 2222 3756 
L 1791 3756 
z
M 588 4666 
L 1856 4666 
Q 2919 4666 3439 4514 
Q 3959 4363 4331 4000 
Q 4659 3684 4818 3271 
Q 4978 2859 4978 2338 
Q 4978 1809 4818 1395 
Q 4659 981 4331 666 
Q 3956 303 3431 151 
Q 2906 0 1856 0 
L 588 0 
L 588 4666 
z
" transform="scale(0.015625)"/>
      <path id="DejaVuSans-Bold-6c" d="M 538 4863 
L 1656 4863 
L 1656 0 
L 538 0 
L 538 4863 
z
" transform="scale(0.015625)"/>
      <path id="DejaVuSans-Bold-2e" d="M 653 1209 
L 1778 1209 
L 1778 0 
L 653 0 
L 653 1209 
z
" transform="scale(0.015625)"/>
     </defs>
     <use xlink:href="#DejaVuSans-Bold-48"/>
     <use xlink:href="#DejaVuSans-Bold-33" transform="translate(83.691406 0)"/>
     <use xlink:href="#DejaVuSans-Bold-3a" transform="translate(153.271484 0)"/>
     <use xlink:href="#DejaVuSans-Bold-20" transform="translate(193.261719 0)"/>
     <use xlink:href="#DejaVuSans-Bold-44" transform="translate(228.076172 0)"/>
     <use xlink:href="#DejaVuSans-Bold-65" transform="translate(311.083984 0)"/>
     <use xlink:href="#DejaVuSans-Bold-74" transform="translate(378.90625 0)"/>
     <use xlink:href="#DejaVuSans-Bold-61" transform="translate(426.708984 0)"/>
     <use xlink:href="#DejaVuSans-Bold-69" transform="translate(494.189453 0)"/>
     <use xlink:href="#DejaVuSans-Bold-6c" transform="translate(528.466797 0)"/>
     <use xlink:href="#DejaVuSans-Bold-20" transform="translate(562.744141 0)"/>
     <use xlink:href="#DejaVuSans-Bold-31" transform="translate(597.558594 0)"/>
     <use xlink:href="#DejaVuSans-Bold-2e" transform="translate(667.138672 0)"/>
     <use xlink:href="#DejaVuSans-Bold-31" transform="translate(705.126953 0)"/>
    </g>
   </g>
   <g id="text_4">
    <!-- H3: Detail 1.2 -->
    <g style="fill: #8b5cf6" transform="translate(239.717813 362.718309) scale(0.12 -0.12)">
     <use xlink:href="#DejaVuSans-Bold-48"/>
     <use xlink:href="#DejaVuSans-Bold-33" transform="translate(83.691406 0)"/>
     <use xlink:href="#DejaVuSans-Bold-3a" transform="translate(153.271484 0)"/>
     <use xlink:href="#DejaVuSans-Bold-20" transform="translate(193.261719 0)"/>
     <use xlink:href="#DejaVuSans-Bold-44" transform="translate(228.076172 0)"/>
     <use xlink:href="#DejaVuSans-Bold-65" transform="translate(311.083984 0)"/>
     <use xlink:href="#DejaVuSans-Bold-74" transform="translate(378.90625 0)"/>
     <use xlink:href="#DejaVuSans-Bold-61" transform="translate(426.708984 0)"/>
     <use xlink:href="#DejaVuSans-Bold-69" transform="translate(494.189453 0)"/>
     <use xlink:href="#DejaVuSans-Bold-6c" transform="translate(528.466797 0)"/>
     <use xlink:href="#DejaVuSans-Bold-20" transform="translate(562.744141 0)"/>
     <use xlink:href="#DejaVuSans-Bold-31" transform="translate(597.558594 0)"/>
     <use xlink:href="#DejaVuSans-Bold-2e" transform="translate(667.138672 0)"/>
     <use xlink:href="#DejaVuSans-Bold-32" transform="translate(705.126953 0)"/>
    </g>
   </g>
   <g id="text_5">
    <!-- H2: Subsection 2 -->
    <g style="fill: #10b981" transform="translate(219.292031 428.493713) scale(0.14 -0.14)">
     <use xlink:href="#DejaVuSans-Bold-48"/>
     <use xlink:href="#DejaVuSans-Bold-32" transform="translate(83.691406 0)"/>
     <use xlink:href="#DejaVuSans-Bold-3a" transform="translate(153.271484 0)"/>
     <use xlink:href="#DejaVuSans-Bold-20" transform="translate(193.261719 0)"/>
     <use xlink:href="#DejaVuSans-Bold-53" transform="translate(228.076172 0)"/>
     <use xlink:href="#DejaVuSans-Bold-75" transform="translate(300.097656 0)"/>
     <use xlink:href="#DejaVuSans-Bold-62" transform="translate(371.289062 0)"/>
     <use xlink:href="#DejaVuSans-Bold-73" transform="translate(442.871094 0)"/>
     <use xlink:href="#DejaVuSans-Bold-65" transform="translate(502.392578 0)"/>
     <use xlink:href="#DejaVuSans-Bold-63" transform="translate(570.214844 0)"/>
     <use xlink:href="#DejaVuSans-Bold-74" transform="translate(629.492188 0)"/>
     <use xlink:href="#DejaVuSans-Bold-69" transform="translate(677.294922 0)"/>
     <use xlink:href="#DejaVuSans-Bold-6f" transform="translate(711.572266 0)"/>
     <use xlink:href="#DejaVuSans-Bold-6e" transform="translate(780.273438 0)"/>
     <use xlink:href="#DejaVuSans-Bold-20" transform="translate(851.464844 0)"/>
     <use xlink:href="#DejaVuSans-Bold-32" transform="translate(886.279297 0)"/>
    </g>
   </g>
   <g id="text_6">
    <!-- H3: Detail 2.1 -->
    <g style="fill: #8b5cf6" transform="translate(239.717813 493.165368) scale(0.12 -0.12)">
     <use xlink:href="#DejaVuSans-Bold-48"/>
     <use xlink:href="#DejaVuSans-Bold-33" transform="translate(83.691406 0)"/>
     <use xlink:href="#DejaVuSans-Bold-3a" transform="translate(153.271484 0)"/>
     <use xlink:href="#DejaVuSans-Bold-20" transform="translate(193.261719 0)"/>
     <use xlink:href="#DejaVuSans-Bold-44" transform="translate(228.076172 0)"/>
     <use xlink:href="#DejaVuSans-Bold-65" transform="translate(311.083984 0)"/>
     <use xlink:href="#DejaVuSans-Bold-74" transform="translate(378.90625 0)"/>
     <use xlink:href="#DejaVuSans-Bold-61" transform="translate(426.708984 0)"/>
     <use xlink:href="#DejaVuSans-Bold-69" transform="translate(494.189453 0)"/>
     <use xlink:href="#DejaVuSans-Bold-6c" transform="translate(528.466797 0)"/>
     <use xlink:href="#DejaVuSans-Bold-20" transform="translate(562.744141 0)"/>
     <use xlink:href="#DejaVuSans-Bold-32" transform="translate(597.558594 0)"/>
     <use xlink:href="#DejaVuSans-Bold-2e" transform="translate(667.138672 0)"/>
     <use xlink:href="#DejaVuSans-Bold-31" transform="translate(705.126953 0)"/>
    </g>
   </g>
   <g id="text_7">
    <!-- Proper Heading Hierarchy -->
    <g style="fill: #1f2937" transform="translate(169.0125 55.926324) scale(0.16 -0.16)">
     <defs>
      <path id="DejaVuSans-Bold-50" d="M 588 4666 
L 2584 4666 
Q 3475 4666 3951 4270 
Q 4428 3875 4428 3144 
Q 4428 2409 3951 2014 
Q 3475 1619 2584 1619 
L 1791 1619 
L 1791 0 
L 588 0 
L 588 4666 
z
M 1791 3794 
L 1791 2491 
L 2456 2491 
Q 2806 2491 2997 2661 
Q 3188 2831 3188 3144 
Q 3188 3456 2997 3625 
Q 2806 3794 2456 3794 
L 1791 3794 
z
" transform="scale(0.015625)"/>
      <path id="DejaVuSans-Bold-72" d="M 3138 2547 
Q 2991 2616 2845 2648 
Q 2700 2681 2553 2681 
Q 2122 2681 1889 2404 
Q 1656 2128 1656 1613 
L 1656 0 
L 538 0 
L 538 3500 
L 1656 3500 
L 1656 2925 
Q 1872 3269 2151 3426 
Q 2431 3584 2822 3584 
Q 2878 3584 2943 3579 
Q 3009 3575 3134 3559 
L 3138 2547 
z
" transform="scale(0.015625)"/>
      <path id="DejaVuSans-Bold-64" d="M 2919 2988 
L 2919 4863 
L 4044 4863 
L 4044 0 
L 2919 0 
L 2919 506 
Q 2688 197 2409 53 
Q 2131 -91 1766 -91 
Q 1119 -91 703 423 
Q 288 938 288 1747 
Q 288 2556 703 3070 
Q 1119 3584 1766 3584 
Q 2128 3584 2408 3439 
Q 2688 3294 2919 2988 
z
M 2181 722 
Q 2541 722 2730 984 
Q 2919 1247 2919 1747 
Q 2919 2247 2730 2509 
Q 2541 2772 2181 2772 
Q 1825 2772 1636 2509 
Q 1447 2247 1447 1747 
Q 1447 1247 1636 984 
Q 1825 722 2181 722 
z
" transform="scale(0.015625)"/>
      <path id="DejaVuSans-Bold-67" d="M 2919 594 
Q 2688 288 2409 144 
Q 2131 0 1766 0 
Q 1125 0 706 504 
Q 288 1009 288 1791 
Q 288 2575 706 3076 
Q 1125 3578 1766 3578 
Q 2131 3578 2409 3434 
Q 2688 3291 2919 2981 
L 2919 3500 
L 4044 3500 
L 4044 353 
Q 4044 -491 3511 -936 
Q 2978 -1381 1966 -1381 
Q 1638 -1381 1331 -1331 
Q 1025 -1281 716 -1178 
L 716 -306 
Q 1009 -475 1290 -558 
Q 1572 -641 1856 -641 
Q 2406 -641 2662 -400 
Q 2919 -159 2919 353 
L 2919 594 
z
M 2181 2772 
Q 1834 2772 1640 2515 
Q 1447 2259 1447 1791 
Q 1447 1309 1634 1061 
Q 1822 813 2181 813 
Q 2531 813 2725 1069 
Q 2919 1325 2919 1791 
Q 2919 2259 2725 2515 
Q 2531 2772 2181 2772 
z
" transform="scale(0.015625)"/>
      <path id="DejaVuSans-Bold-68" d="M 4056 2131 
L 4056 0 
L 2931 0 
L 2931 347 
L 2931 1625 
Q 2931 2084 2911 2256 
Q 2891 2428 2841 2509 
Q 2775 2619 2662 2680 
Q 2550 2741 2406 2741 
Q 2056 2741 1856 2470 
Q 1656 2200 1656 1722 
L 1656 0 
L 538 0 
L 538 4863 
L 1656 4863 
L 1656 2988 
Q 1909 3294 2193 3439 
Q 2478 3584 2822 3584 
Q 3428 3584 3742 3212 
Q 4056 2841 4056 2131 
z
" transform="scale(0.015625)"/>
      <path id="DejaVuSans-Bold-79" d="M 78 3500 
L 1197 3500 
L 2138 1125 
L 2938 3500 
L 4056 3500 
L 2584 -331 
Q 2363 -916 2067 -1148 
Q 1772 -1381 1288 -1381 
L 641 -1381 
L 641 -647 
L 991 -647 
Q 1275 -647 1404 -556 
Q 1534 -466 1606 -231 
L 1638 -134 
L 78 3500 
z
" transform="scale(0.015625)"/>
     </defs>
     <use xlink:href="#DejaVuSans-Bold-50"/>
     <use xlink:href="#DejaVuSans-Bold-72" transform="translate(73.291016 0)"/>
     <use xlink:href="#DejaVuSans-Bold-6f" transform="translate(122.607422 0)"/>
     <use xlink:href="#DejaVuSans-Bold-70" transform="translate(191.308594 0)"/>
     <use xlink:href="#DejaVuSans-Bold-65" transform="translate(262.890625 0)"/>
     <use xlink:href="#DejaVuSans-Bold-72" transform="translate(330.712891 0)"/>
     <use xlink:href="#DejaVuSans-Bold-20" transform="translate(380.029297 0)"/>
     <use xlink:href="#DejaVuSans-Bold-48" transform="translate(414.84375 0)"/>
     <use xlink:href="#DejaVuSans-Bold-65" transform="translate(498.535156 0)"/>
     <use xlink:href="#DejaVuSans-Bold-61" transform="translate(566.357422 0)"/>
     <use xlink:href="#DejaVuSans-Bold-64" transform="translate(633.837891 0)"/>
     <use xlink:href="#DejaVuSans-Bold-69" transform="translate(705.419922 0)"/>
     <use xlink:href="#DejaVuSans-Bold-6e" transform="translate(739.697266 0)"/>
     <use xlink:href="#DejaVuSans-Bold-67" transform="translate(810.888672 0)"/>
     <use xlink:href="#DejaVuSans-Bold-20" transform="translate(882.470703 0)"/>
     <use xlink:href="#DejaVuSans-Bold-48" transform="translate(917.285156 0)"/>
     <use xlink:href="#DejaVuSans-Bold-69" transform="translate(1000.976562 0)"/>
     <use xlink:href="#DejaVuSans-Bold-65" transform="translate(1035.253906 0)"/>
     <use xlink:href="#DejaVuSans-Bold-72" transform="translate(1103.076172 0)"/>
     <use xlink:href="#DejaVuSans-Bold-61" transform="translate(1152.392578 0)"/>
     <use xlink:href="#DejaVuSans-Bold-72" transform="translate(1219.873047 0)"/>
     <use xlink:href="#DejaVuSans-Bold-63" transform="translate(1269.189453 0)"/>
     <use xlink:href="#DejaVuSans-Bold-68" transform="translate(1328.466797 0)"/>
     <use xlink:href="#DejaVuSans-Bold-79" transform="translate(1399.658203 0)"/>
    </g>
   </g>
  </g>
 </g>
 <defs>
  <clipPath id="p525613a8b4">
   <rect x="7.2" y="7.2" width="558" height="554.4"/>
  </clipPath>
 </defs>
</svg>
