<?xml version="1.0" encoding="utf-8" standalone="no"?>
<!DOCTYPE svg PUBLIC "-//W3C//DTD SVG 1.1//EN"
  "http://www.w3.org/Graphics/SVG/1.1/DTD/svg11.dtd">
<svg xmlns:xlink="http://www.w3.org/1999/xlink" width="684pt" height="568.8pt" viewBox="0 0 684 568.8" xmlns="http://www.w3.org/2000/svg" version="1.1">
 <metadata>
  <rdf:RDF xmlns:dc="http://purl.org/dc/elements/1.1/" xmlns:cc="http://creativecommons.org/ns#" xmlns:rdf="http://www.w3.org/1999/02/22-rdf-syntax-ns#">
   <cc:Work>
    <dc:type rdf:resource="http://purl.org/dc/dcmitype/StillImage"/>
    <dc:date>2025-12-26T21:31:31.976181</dc:date>
    <dc:format>image/svg+xml</dc:format>
    <dc:creator>
     <cc:Agent>
      <dc:title>Matplotlib v3.10.8, https://matplotlib.org/</dc:title>
     </cc:Agent>
    </dc:creator>
   </cc:Work>
  </rdf:RDF>
 </metadata>
 <defs>
  <style type="text/css">*{stroke-linejoin: round; stroke-linecap: butt}</style>
 </defs>
 <g id="figure_1">
  <g id="patch_1">
   <path d="M 0 568.8 
L 684 568.8 
L 684 0 
L 0 0 
z
" style="fill: #f8f9fa"/>
  </g>
  <g id="axes_1">
   <g id="patch_2">
    <path d="M 57.735849 178.411765 
L 310.415094 178.411765 
Q 316.732075 178.411765 316.732075 170.258824 
L 316.732075 113.188235 
Q 316.732075 105.035294 310.415094 105.035294 
L 57.735849 105.035294 
Q 51.418868 105.035294 51.418868 113.188235 
L 51.418868 170.258824 
Q 51.418868 178.411765 57.735849 178.411765 
z
" clip-path="url(#pe3e66b8ee9)" style="fill: #ef4444; opacity: 0.15; stroke: #ef4444; stroke-width: 1.5; stroke-linejoin: miter"/>
   </g>
   <g id="patch_3">
    <path d="M 373.584906 178.411765 
L 626.264151 178.411765 
Q 632.581132 178.411765 632.581132 170.258824 
L 632.581132 113.188235 
Q 632.581132 105.035294 626.264151 105.035294 
L 373.584906 105.035294 
Q 367.267925 105.035294 367.267925 113.188235 
L 367.267925 170.258824 
Q 367.267925 178.411765 373.584906 178.411765 
z
" clip-path="url(#pe3e66b8ee9)" style="fill: #10b981; opacity: 0.15; stroke: #10b981; stroke-width: 1.5; stroke-linejoin: miter"/>
   </g>
   <g id="patch_4">
    <path d="M 57.735849 259.941176 
L 310.415094 259.941176 
Q 316.732075 259.941176 316.732075 251.788235 
L 316.732075 194.717647 
Q 316.732075 186.564706 310.415094 186.564706 
L 57.735849 186.564706 
Q 51.418868 186.564706 51.418868 194.717647 
L 51.418868 251.788235 
Q 51.418868 259.941176 57.735849 259.941176 
z
" clip-path="url(#pe3e66b8ee9)" style="fill: #ef4444; opacity: 0.15; stroke: #ef4444; stroke-width: 1.5; stroke-linejoin: miter"/>
   </g>
   <g id="patch_5">
    <path d="M 373.584906 259.941176 
L 626.264151 259.941176 
Q 632.581132 259.941176 632.581132 251.788235 
L 632.581132 194.717647 
Q 632.581132 186.564706 626.264151 186.564706 
L 373.584906 186.564706 
Q 367.267925 186.564706 367.267925 194.717647 
L 367.267925 251.788235 
Q 367.267925 259.941176 373.584906 259.941176 
z
" clip-path="url(#pe3e66b8ee9)" style="fill: #10b981; opacity: 0.15; stroke: #10b981; stroke-width: 1.5; stroke-linejoin: miter"/>
   </g>
   <g id="patch_6">
    <path d="M 57.735849 341.470588 
L 310.415094 341.470588 
Q 316.732075 341.470588 316.732075 333.317647 
L 316.732075 276.247059 
Q 316.732075 268.094118 310.415094 268.094118 
L 57.735849 268.094118 
Q 51.418868 268.094118 51.418868 276.247059 
L 51.418868 333.317647 
Q 51.418868 341.470588 57.735849 341.470588 
z
" clip-path="url(#pe3e66b8ee9)" style="fill: #ef4444; opacity: 0.15; stroke: #ef4444; stroke-width: 1.5; stroke-linejoin: miter"/>
   </g>
   <g id="patch_7">
    <path d="M 373.584906 341.470588 
L 626.264151 341.470588 
Q 632.581132 341.470588 632.581132 333.317647 
L 632.581132 276.247059 
Q 632.581132 268.094118 626.264151 268.094118 
L 373.584906 268.094118 
Q 367.267925 268.094118 367.267925 276.247059 
L 367.267925 333.317647 
Q 367.267925 341.470588 373.584906 341.470588 
z
" clip-path="url(#pe3e66b8ee9)" style="fill: #10b981; opacity: 0.15; stroke: #10b981; stroke-width: 1.5; stroke-linejoin: miter"/>
   </g>
   <g id="patch_8">
    <path d="M 57.735849 423 
L 310.415094 423 
Q 316.732075 423 316.732075 414.847059 
L 316.732075 357.776471 
Q 316.732075 349.623529 310.415094 349.623529 
L 57.735849 349.623529 
Q 51.418868 349.623529 51.418868 357.776471 
L 51.418868 414.847059 
Q 51.418868 423 57.735849 423 
z
" clip-path="url(#pe3e66b8ee9)" style="fill: #ef4444; opacity: 0.15; stroke: #ef4444; stroke-width: 1.5; stroke-linejoin: miter"/>
   </g>
   <g id="patch_9">
    <path d="M 373.584906 423 
L 626.264151 423 
Q 632.581132 423 632.581132 414.847059 
L 632.581132 357.776471 
Q 632.581132 349.623529 626.264151 349.623529 
L 373.584906 349.623529 
Q 367.267925 349.623529 367.267925 357.776471 
L 367.267925 414.847059 
Q 367.267925 423 373.584906 423 
z
" clip-path="url(#pe3e66b8ee9)" style="fill: #10b981; opacity: 0.15; stroke: #10b981; stroke-width: 1.5; stroke-linejoin: miter"/>
   </g>
   <g id="patch_10">
    <path d="M 57.735849 504.529412 
L 310.415094 504.529412 
Q 316.732075 504.529412 316.732075 496.376471 
L 316.732075 439.305882 
Q 316.732075 431.152941 310.415094 431.152941 
L 57.735849 431.152941 
Q 51.418868 431.152941 51.418868 439.305882 
L 51.418868 496.376471 
Q 51.418868 504.529412 57.735849 504.529412 
z
" clip-path="url(#pe3e66b8ee9)" style="fill: #ef4444; opacity: 0.15; stroke: #ef4444; stroke-width: 1.5; stroke-linejoin: miter"/>
   </g>
   <g id="patch_11">
    <path d="M 373.584906 504.529412 
L 626.264151 504.529412 
Q 632.581132 504.529412 632.581132 496.376471 
L 632.581132 439.305882 
Q 632.581132 431.152941 626.264151 431.152941 
L 373.584906 431.152941 
Q 367.267925 431.152941 367.267925 439.305882 
L 367.267925 496.376471 
Q 367.267925 504.529412 373.584906 504.529412 
z
" clip-path="url(#pe3e66b8ee9)" style="fill: #10b981; opacity: 0.15; stroke: #10b981; stroke-width: 1.5; stroke-linejoin: miter"/>
   </g>
   <g id="text_1">
    <!-- Keyword Stuffing -->
    <g style="fill: #ef4444" transform="translate(125.239847 144.987904) scale(0.12 -0.12)">
     <defs>
      <path id="DejaVuSans-Bold-4b" d="M 588 4666 
L 1791 4666 
L 1791 2963 
L 3525 4666 
L 4922 4666 
L 2675 2456 
L 5153 0 
L 3647 0 
L 1791 1838 
L 1791 0 
L 588 0 
L 588 4666 
z
" transform="scale(0.015625)"/>
      <path id="DejaVuSans-Bold-65" d="M 4031 1759 
L 4031 1441 
L 1416 1441 
Q 1456 1047 1700 850 
Q 1944 653 2381 653 
Q 2734 653 3104 758 
Q 3475 863 3866 1075 
L 3866 213 
Q 3469 63 3072 -14 
Q 2675 -91 2278 -91 
Q 1328 -91 801 392 
Q 275 875 275 1747 
Q 275 2603 792 3093 
Q 1309 3584 2216 3584 
Q 3041 3584 3536 3087 
Q 4031 2591 4031 1759 
z
M 2881 2131 
Q 2881 2450 2695 2645 
Q 2509 2841 2209 2841 
Q 1884 2841 1681 2658 
Q 1478 2475 1428 2131 
L 2881 2131 
z
" transform="scale(0.015625)"/>
      <path id="DejaVuSans-Bold-79" d="M 78 3500 
L 1197 3500 
L 2138 1125 
L 2938 3500 
L 4056 3500 
L 2584 -331 
Q 2363 -916 2067 -1148 
Q 1772 -1381 1288 -1381 
L 641 -1381 
L 641 -647 
L 991 -647 
Q 1275 -647 1404 -556 
Q 1534 -466 1606 -231 
L 1638 -134 
L 78 3500 
z
" transform="scale(0.015625)"/>
      <path id="DejaVuSans-Bold-77" d="M 225 3500 
L 1313 3500 
L 1900 1088 
L 2491 3500 
L 3425 3500 
L 4013 1113 
L 4603 3500 
L 5691 3500 
L 4769 0 
L 3547 0 
L 2956 2406 
L 2369 0 
L 1147 0 
L 225 3500 
z
" transform="scale(0.015625)"/>
      <path id="DejaVuSans-Bold-6f" d="M 2203 2784 
Q 1831 2784 1636 2517 
Q 1441 2250 1441 1747 
Q 1441 1244 1636 976 
Q 1831 709 2203 709 
Q 2569 709 2762 976 
Q 2956 1244 2956 1747 
Q 2956 2250 2762 2517 
Q 2569 2784 2203 2784 
z
M 2203 3584 
Q 3106 3584 3614 3096 
Q 4122 2609 4122 1747 
Q 4122 884 3614 396 
Q 3106 -91 2203 -91 
Q 1297 -91 786 396 
Q 275 884 275 1747 
Q 275 2609 786 3096 
Q 1297 3584 2203 3584 
z
" transform="scale(0.015625)"/>
      <path id="DejaVuSans-Bold-72" d="M 3138 2547 
Q 2991 2616 2845 2648 
Q 2700 2681 2553 2681 
Q 2122 2681 1889 2404 
Q 1656 2128 1656 1613 
L 1656 0 
L 538 0 
L 538 3500 
L 1656 3500 
L 1656 2925 
Q 1872 3269 2151 3426 
Q 2431 3584 2822 3584 
Q 2878 3584 2943 3579 
Q 3009 3575 3134 3559 
L 3138 2547 
z
" transform="scale(0.015625)"/>
      <path id="DejaVuSans-Bold-64" d="M 2919 2988 
L 2919 4863 
L 4044 4863 
L 4044 0 
L 2919 0 
L 2919 506 
Q 2688 197 2409 53 
Q 2131 -91 1766 -91 
Q 1119 -91 703 423 
Q 288 938 288 1747 
Q 288 2556 703 3070 
Q 1119 3584 1766 3584 
Q 2128 3584 2408 3439 
Q 2688 3294 2919 2988 
z
M 2181 722 
Q 2541 722 2730 984 
Q 2919 1247 2919 1747 
Q 2919 2247 2730 2509 
Q 2541 2772 2181 2772 
Q 1825 2772 1636 2509 
Q 1447 2247 1447 1747 
Q 1447 1247 1636 984 
Q 1825 722 2181 722 
z
" transform="scale(0.015625)"/>
      <path id="DejaVuSans-Bold-20" transform="scale(0.015625)"/>
      <path id="DejaVuSans-Bold-53" d="M 3834 4519 
L 3834 3531 
Q 3450 3703 3084 3790 
Q 2719 3878 2394 3878 
Q 1963 3878 1756 3759 
Q 1550 3641 1550 3391 
Q 1550 3203 1689 3098 
Q 1828 2994 2194 2919 
L 2706 2816 
Q 3484 2659 3812 2340 
Q 4141 2022 4141 1434 
Q 4141 663 3683 286 
Q 3225 -91 2284 -91 
Q 1841 -91 1394 -6 
Q 947 78 500 244 
L 500 1259 
Q 947 1022 1364 901 
Q 1781 781 2169 781 
Q 2563 781 2772 912 
Q 2981 1044 2981 1288 
Q 2981 1506 2839 1625 
Q 2697 1744 2272 1838 
L 1806 1941 
Q 1106 2091 782 2419 
Q 459 2747 459 3303 
Q 459 4000 909 4375 
Q 1359 4750 2203 4750 
Q 2588 4750 2994 4692 
Q 3400 4634 3834 4519 
z
" transform="scale(0.015625)"/>
      <path id="DejaVuSans-Bold-74" d="M 1759 4494 
L 1759 3500 
L 2913 3500 
L 2913 2700 
L 1759 2700 
L 1759 1216 
Q 1759 972 1856 886 
Q 1953 800 2241 800 
L 2816 800 
L 2816 0 
L 1856 0 
Q 1194 0 917 276 
Q 641 553 641 1216 
L 641 2700 
L 84 2700 
L 84 3500 
L 641 3500 
L 641 4494 
L 1759 4494 
z
" transform="scale(0.015625)"/>
      <path id="DejaVuSans-Bold-75" d="M 500 1363 
L 500 3500 
L 1625 3500 
L 1625 3150 
Q 1625 2866 1622 2436 
Q 1619 2006 1619 1863 
Q 1619 1441 1641 1255 
Q 1663 1069 1716 984 
Q 1784 875 1895 815 
Q 2006 756 2150 756 
Q 2500 756 2700 1025 
Q 2900 1294 2900 1772 
L 2900 3500 
L 4019 3500 
L 4019 0 
L 2900 0 
L 2900 506 
Q 2647 200 2364 54 
Q 2081 -91 1741 -91 
Q 1134 -91 817 281 
Q 500 653 500 1363 
z
" transform="scale(0.015625)"/>
      <path id="DejaVuSans-Bold-66" d="M 2841 4863 
L 2841 4128 
L 2222 4128 
Q 1984 4128 1890 4042 
Q 1797 3956 1797 3744 
L 1797 3500 
L 2753 3500 
L 2753 2700 
L 1797 2700 
L 1797 0 
L 678 0 
L 678 2700 
L 122 2700 
L 122 3500 
L 678 3500 
L 678 3744 
Q 678 4316 997 4589 
Q 1316 4863 1984 4863 
L 2841 4863 
z
" transform="scale(0.015625)"/>
      <path id="DejaVuSans-Bold-69" d="M 538 3500 
L 1656 3500 
L 1656 0 
L 538 0 
L 538 3500 
z
M 538 4863 
L 1656 4863 
L 1656 3950 
L 538 3950 
L 538 4863 
z
" transform="scale(0.015625)"/>
      <path id="DejaVuSans-Bold-6e" d="M 4056 2131 
L 4056 0 
L 2931 0 
L 2931 347 
L 2931 1631 
Q 2931 2084 2911 2256 
Q 2891 2428 2841 2509 
Q 2775 2619 2662 2680 
Q 2550 2741 2406 2741 
Q 2056 2741 1856 2470 
Q 1656 2200 1656 1722 
L 1656 0 
L 538 0 
L 538 3500 
L 1656 3500 
L 1656 2988 
Q 1909 3294 2193 3439 
Q 2478 3584 2822 3584 
Q 3428 3584 3742 3212 
Q 4056 2841 4056 2131 
z
" transform="scale(0.015625)"/>
      <path id="DejaVuSans-Bold-67" d="M 2919 594 
Q 2688 288 2409 144 
Q 2131 0 1766 0 
Q 1125 0 706 504 
Q 288 1009 288 1791 
Q 288 2575 706 3076 
Q 1125 3578 1766 3578 
Q 2131 3578 2409 3434 
Q 2688 3291 2919 2981 
L 2919 3500 
L 4044 3500 
L 4044 353 
Q 4044 -491 3511 -936 
Q 2978 -1381 1966 -1381 
Q 1638 -1381 1331 -1331 
Q 1025 -1281 716 -1178 
L 716 -306 
Q 1009 -475 1290 -558 
Q 1572 -641 1856 -641 
Q 2406 -641 2662 -400 
Q 2919 -159 2919 353 
L 2919 594 
z
M 2181 2772 
Q 1834 2772 1640 2515 
Q 1447 2259 1447 1791 
Q 1447 1309 1634 1061 
Q 1822 813 2181 813 
Q 2531 813 2725 1069 
Q 2919 1325 2919 1791 
Q 2919 2259 2725 2515 
Q 2531 2772 2181 2772 
z
" transform="scale(0.015625)"/>
     </defs>
     <use xlink:href="#DejaVuSans-Bold-4b"/>
     <use xlink:href="#DejaVuSans-Bold-65" transform="translate(75.740234 0)"/>
     <use xlink:href="#DejaVuSans-Bold-79" transform="translate(143.5625 0)"/>
     <use xlink:href="#DejaVuSans-Bold-77" transform="translate(208.748047 0)"/>
     <use xlink:href="#DejaVuSans-Bold-6f" transform="translate(301.130859 0)"/>
     <use xlink:href="#DejaVuSans-Bold-72" transform="translate(369.832031 0)"/>
     <use xlink:href="#DejaVuSans-Bold-64" transform="translate(419.148438 0)"/>
     <use xlink:href="#DejaVuSans-Bold-20" transform="translate(490.730469 0)"/>
     <use xlink:href="#DejaVuSans-Bold-53" transform="translate(525.544922 0)"/>
     <use xlink:href="#DejaVuSans-Bold-74" transform="translate(597.566406 0)"/>
     <use xlink:href="#DejaVuSans-Bold-75" transform="translate(645.369141 0)"/>
     <use xlink:href="#DejaVuSans-Bold-66" transform="translate(716.560547 0)"/>
     <use xlink:href="#DejaVuSans-Bold-66" transform="translate(760.066406 0)"/>
     <use xlink:href="#DejaVuSans-Bold-69" transform="translate(803.572266 0)"/>
     <use xlink:href="#DejaVuSans-Bold-6e" transform="translate(837.849609 0)"/>
     <use xlink:href="#DejaVuSans-Bold-67" transform="translate(909.041016 0)"/>
    </g>
   </g>
   <g id="text_2">
    <!-- Natural Keyword Usage -->
    <g style="fill: #10b981" transform="translate(420.172341 144.987904) scale(0.12 -0.12)">
     <defs>
      <path id="DejaVuSans-Bold-4e" d="M 588 4666 
L 1931 4666 
L 3628 1466 
L 3628 4666 
L 4769 4666 
L 4769 0 
L 3425 0 
L 1728 3200 
L 1728 0 
L 588 0 
L 588 4666 
z
" transform="scale(0.015625)"/>
      <path id="DejaVuSans-Bold-61" d="M 2106 1575 
Q 1756 1575 1579 1456 
Q 1403 1338 1403 1106 
Q 1403 894 1545 773 
Q 1688 653 1941 653 
Q 2256 653 2472 879 
Q 2688 1106 2688 1447 
L 2688 1575 
L 2106 1575 
z
M 3816 1997 
L 3816 0 
L 2688 0 
L 2688 519 
Q 2463 200 2181 54 
Q 1900 -91 1497 -91 
Q 953 -91 614 226 
Q 275 544 275 1050 
Q 275 1666 698 1953 
Q 1122 2241 2028 2241 
L 2688 2241 
L 2688 2328 
Q 2688 2594 2478 2717 
Q 2269 2841 1825 2841 
Q 1466 2841 1156 2769 
Q 847 2697 581 2553 
L 581 3406 
Q 941 3494 1303 3539 
Q 1666 3584 2028 3584 
Q 2975 3584 3395 3211 
Q 3816 2838 3816 1997 
z
" transform="scale(0.015625)"/>
      <path id="DejaVuSans-Bold-6c" d="M 538 4863 
L 1656 4863 
L 1656 0 
L 538 0 
L 538 4863 
z
" transform="scale(0.015625)"/>
      <path id="DejaVuSans-Bold-55" d="M 588 4666 
L 1791 4666 
L 1791 1869 
Q 1791 1291 1980 1042 
Q 2169 794 2597 794 
Q 3028 794 3217 1042 
Q 3406 1291 3406 1869 
L 3406 4666 
L 4609 4666 
L 4609 1869 
Q 4609 878 4112 393 
Q 3616 -91 2597 -91 
Q 1581 -91 1084 393 
Q 588 878 588 1869 
L 588 4666 
z
" transform="scale(0.015625)"/>
      <path id="DejaVuSans-Bold-73" d="M 3272 3391 
L 3272 2541 
Q 2913 2691 2578 2766 
Q 2244 2841 1947 2841 
Q 1628 2841 1473 2761 
Q 1319 2681 1319 2516 
Q 1319 2381 1436 2309 
Q 1553 2238 1856 2203 
L 2053 2175 
Q 2913 2066 3209 1816 
Q 3506 1566 3506 1031 
Q 3506 472 3093 190 
Q 2681 -91 1863 -91 
Q 1516 -91 1145 -36 
Q 775 19 384 128 
L 384 978 
Q 719 816 1070 734 
Q 1422 653 1784 653 
Q 2113 653 2278 743 
Q 2444 834 2444 1013 
Q 2444 1163 2330 1236 
Q 2216 1309 1875 1350 
L 1678 1375 
Q 931 1469 631 1722 
Q 331 1975 331 2491 
Q 331 3047 712 3315 
Q 1094 3584 1881 3584 
Q 2191 3584 2531 3537 
Q 2872 3491 3272 3391 
z
" transform="scale(0.015625)"/>
     </defs>
     <use xlink:href="#DejaVuSans-Bold-4e"/>
     <use xlink:href="#DejaVuSans-Bold-61" transform="translate(83.691406 0)"/>
     <use xlink:href="#DejaVuSans-Bold-74" transform="translate(151.171875 0)"/>
     <use xlink:href="#DejaVuSans-Bold-75" transform="translate(198.974609 0)"/>
     <use xlink:href="#DejaVuSans-Bold-72" transform="translate(270.166016 0)"/>
     <use xlink:href="#DejaVuSans-Bold-61" transform="translate(319.482422 0)"/>
     <use xlink:href="#DejaVuSans-Bold-6c" transform="translate(386.962891 0)"/>
     <use xlink:href="#DejaVuSans-Bold-20" transform="translate(421.240234 0)"/>
     <use xlink:href="#DejaVuSans-Bold-4b" transform="translate(456.054688 0)"/>
     <use xlink:href="#DejaVuSans-Bold-65" transform="translate(531.794922 0)"/>
     <use xlink:href="#DejaVuSans-Bold-79" transform="translate(599.617188 0)"/>
     <use xlink:href="#DejaVuSans-Bold-77" transform="translate(664.802734 0)"/>
     <use xlink:href="#DejaVuSans-Bold-6f" transform="translate(757.185547 0)"/>
     <use xlink:href="#DejaVuSans-Bold-72" transform="translate(825.886719 0)"/>
     <use xlink:href="#DejaVuSans-Bold-64" transform="translate(875.203125 0)"/>
     <use xlink:href="#DejaVuSans-Bold-20" transform="translate(946.785156 0)"/>
     <use xlink:href="#DejaVuSans-Bold-55" transform="translate(981.599609 0)"/>
     <use xlink:href="#DejaVuSans-Bold-73" transform="translate(1062.800781 0)"/>
     <use xlink:href="#DejaVuSans-Bold-61" transform="translate(1122.322266 0)"/>
     <use xlink:href="#DejaVuSans-Bold-67" transform="translate(1189.802734 0)"/>
     <use xlink:href="#DejaVuSans-Bold-65" transform="translate(1261.384766 0)"/>
    </g>
   </g>
   <g id="text_3">
    <!-- Missing Alt Text -->
    <g style="fill: #ef4444" transform="translate(130.431722 226.517316) scale(0.12 -0.12)">
     <defs>
      <path id="DejaVuSans-Bold-4d" d="M 588 4666 
L 2119 4666 
L 3181 2169 
L 4250 4666 
L 5778 4666 
L 5778 0 
L 4641 0 
L 4641 3413 
L 3566 897 
L 2803 897 
L 1728 3413 
L 1728 0 
L 588 0 
L 588 4666 
z
" transform="scale(0.015625)"/>
      <path id="DejaVuSans-Bold-41" d="M 3419 850 
L 1538 850 
L 1241 0 
L 31 0 
L 1759 4666 
L 3194 4666 
L 4922 0 
L 3713 0 
L 3419 850 
z
M 1838 1716 
L 3116 1716 
L 2478 3572 
L 1838 1716 
z
" transform="scale(0.015625)"/>
      <path id="DejaVuSans-Bold-54" d="M 31 4666 
L 4331 4666 
L 4331 3756 
L 2784 3756 
L 2784 0 
L 1581 0 
L 1581 3756 
L 31 3756 
L 31 4666 
z
" transform="scale(0.015625)"/>
      <path id="DejaVuSans-Bold-78" d="M 1422 1791 
L 159 3500 
L 1344 3500 
L 2059 2463 
L 2784 3500 
L 3969 3500 
L 2706 1797 
L 4031 0 
L 2847 0 
L 2059 1106 
L 1281 0 
L 97 0 
L 1422 1791 
z
" transform="scale(0.015625)"/>
     </defs>
     <use xlink:href="#DejaVuSans-Bold-4d"/>
     <use xlink:href="#DejaVuSans-Bold-69" transform="translate(99.511719 0)"/>
     <use xlink:href="#DejaVuSans-Bold-73" transform="translate(133.789062 0)"/>
     <use xlink:href="#DejaVuSans-Bold-73" transform="translate(193.310547 0)"/>
     <use xlink:href="#DejaVuSans-Bold-69" transform="translate(252.832031 0)"/>
     <use xlink:href="#DejaVuSans-Bold-6e" transform="translate(287.109375 0)"/>
     <use xlink:href="#DejaVuSans-Bold-67" transform="translate(358.300781 0)"/>
     <use xlink:href="#DejaVuSans-Bold-20" transform="translate(429.882812 0)"/>
     <use xlink:href="#DejaVuSans-Bold-41" transform="translate(464.697266 0)"/>
     <use xlink:href="#DejaVuSans-Bold-6c" transform="translate(542.089844 0)"/>
     <use xlink:href="#DejaVuSans-Bold-74" transform="translate(576.367188 0)"/>
     <use xlink:href="#DejaVuSans-Bold-20" transform="translate(624.169922 0)"/>
     <use xlink:href="#DejaVuSans-Bold-54" transform="translate(658.984375 0)"/>
     <use xlink:href="#DejaVuSans-Bold-65" transform="translate(713.947266 0)"/>
     <use xlink:href="#DejaVuSans-Bold-78" transform="translate(781.769531 0)"/>
     <use xlink:href="#DejaVuSans-Bold-74" transform="translate(846.271484 0)"/>
    </g>
   </g>
   <g id="text_4">
    <!-- Descriptive Alt Text -->
    <g style="fill: #10b981" transform="translate(433.678903 226.564191) scale(0.12 -0.12)">
     <defs>
      <path id="DejaVuSans-Bold-44" d="M 1791 3756 
L 1791 909 
L 2222 909 
Q 2959 909 3348 1275 
Q 3738 1641 3738 2338 
Q 3738 3031 3350 3393 
Q 2963 3756 2222 3756 
L 1791 3756 
z
M 588 4666 
L 1856 4666 
Q 2919 4666 3439 4514 
Q 3959 4363 4331 4000 
Q 4659 3684 4818 3271 
Q 4978 2859 4978 2338 
Q 4978 1809 4818 1395 
Q 4659 981 4331 666 
Q 3956 303 3431 151 
Q 2906 0 1856 0 
L 588 0 
L 588 4666 
z
" transform="scale(0.015625)"/>
      <path id="DejaVuSans-Bold-63" d="M 3366 3391 
L 3366 2478 
Q 3138 2634 2908 2709 
Q 2678 2784 2431 2784 
Q 1963 2784 1702 2511 
Q 1441 2238 1441 1747 
Q 1441 1256 1702 982 
Q 1963 709 2431 709 
Q 2694 709 2930 787 
Q 3166 866 3366 1019 
L 3366 103 
Q 3103 6 2833 -42 
Q 2563 -91 2291 -91 
Q 1344 -91 809 395 
Q 275 881 275 1747 
Q 275 2613 809 3098 
Q 1344 3584 2291 3584 
Q 2566 3584 2833 3536 
Q 3100 3488 3366 3391 
z
" transform="scale(0.015625)"/>
      <path id="DejaVuSans-Bold-70" d="M 1656 506 
L 1656 -1331 
L 538 -1331 
L 538 3500 
L 1656 3500 
L 1656 2988 
Q 1888 3294 2169 3439 
Q 2450 3584 2816 3584 
Q 3463 3584 3878 3070 
Q 4294 2556 4294 1747 
Q 4294 938 3878 423 
Q 3463 -91 2816 -91 
Q 2450 -91 2169 54 
Q 1888 200 1656 506 
z
M 2400 2772 
Q 2041 2772 1848 2508 
Q 1656 2244 1656 1747 
Q 1656 1250 1848 986 
Q 2041 722 2400 722 
Q 2759 722 2948 984 
Q 3138 1247 3138 1747 
Q 3138 2247 2948 2509 
Q 2759 2772 2400 2772 
z
" transform="scale(0.015625)"/>
      <path id="DejaVuSans-Bold-76" d="M 97 3500 
L 1216 3500 
L 2088 1081 
L 2956 3500 
L 4078 3500 
L 2700 0 
L 1472 0 
L 97 3500 
z
" transform="scale(0.015625)"/>
     </defs>
     <use xlink:href="#DejaVuSans-Bold-44"/>
     <use xlink:href="#DejaVuSans-Bold-65" transform="translate(83.007812 0)"/>
     <use xlink:href="#DejaVuSans-Bold-73" transform="translate(150.830078 0)"/>
     <use xlink:href="#DejaVuSans-Bold-63" transform="translate(210.351562 0)"/>
     <use xlink:href="#DejaVuSans-Bold-72" transform="translate(269.628906 0)"/>
     <use xlink:href="#DejaVuSans-Bold-69" transform="translate(318.945312 0)"/>
     <use xlink:href="#DejaVuSans-Bold-70" transform="translate(353.222656 0)"/>
     <use xlink:href="#DejaVuSans-Bold-74" transform="translate(424.804688 0)"/>
     <use xlink:href="#DejaVuSans-Bold-69" transform="translate(472.607422 0)"/>
     <use xlink:href="#DejaVuSans-Bold-76" transform="translate(506.884766 0)"/>
     <use xlink:href="#DejaVuSans-Bold-65" transform="translate(572.070312 0)"/>
     <use xlink:href="#DejaVuSans-Bold-20" transform="translate(639.892578 0)"/>
     <use xlink:href="#DejaVuSans-Bold-41" transform="translate(674.707031 0)"/>
     <use xlink:href="#DejaVuSans-Bold-6c" transform="translate(752.099609 0)"/>
     <use xlink:href="#DejaVuSans-Bold-74" transform="translate(786.376953 0)"/>
     <use xlink:href="#DejaVuSans-Bold-20" transform="translate(834.179688 0)"/>
     <use xlink:href="#DejaVuSans-Bold-54" transform="translate(868.994141 0)"/>
     <use xlink:href="#DejaVuSans-Bold-65" transform="translate(923.957031 0)"/>
     <use xlink:href="#DejaVuSans-Bold-78" transform="translate(991.779297 0)"/>
     <use xlink:href="#DejaVuSans-Bold-74" transform="translate(1056.28125 0)"/>
    </g>
   </g>
   <g id="text_5">
    <!-- Poor Heading Structure -->
    <g style="fill: #ef4444" transform="translate(104.096409 308.046728) scale(0.12 -0.12)">
     <defs>
      <path id="DejaVuSans-Bold-50" d="M 588 4666 
L 2584 4666 
Q 3475 4666 3951 4270 
Q 4428 3875 4428 3144 
Q 4428 2409 3951 2014 
Q 3475 1619 2584 1619 
L 1791 1619 
L 1791 0 
L 588 0 
L 588 4666 
z
M 1791 3794 
L 1791 2491 
L 2456 2491 
Q 2806 2491 2997 2661 
Q 3188 2831 3188 3144 
Q 3188 3456 2997 3625 
Q 2806 3794 2456 3794 
L 1791 3794 
z
" transform="scale(0.015625)"/>
      <path id="DejaVuSans-Bold-48" d="M 588 4666 
L 1791 4666 
L 1791 2888 
L 3566 2888 
L 3566 4666 
L 4769 4666 
L 4769 0 
L 3566 0 
L 3566 1978 
L 1791 1978 
L 1791 0 
L 588 0 
L 588 4666 
z
" transform="scale(0.015625)"/>
     </defs>
     <use xlink:href="#DejaVuSans-Bold-50"/>
     <use xlink:href="#DejaVuSans-Bold-6f" transform="translate(73.291016 0)"/>
     <use xlink:href="#DejaVuSans-Bold-6f" transform="translate(141.992188 0)"/>
     <use xlink:href="#DejaVuSans-Bold-72" transform="translate(210.693359 0)"/>
     <use xlink:href="#DejaVuSans-Bold-20" transform="translate(260.009766 0)"/>
     <use xlink:href="#DejaVuSans-Bold-48" transform="translate(294.824219 0)"/>
     <use xlink:href="#DejaVuSans-Bold-65" transform="translate(378.515625 0)"/>
     <use xlink:href="#DejaVuSans-Bold-61" transform="translate(446.337891 0)"/>
     <use xlink:href="#DejaVuSans-Bold-64" transform="translate(513.818359 0)"/>
     <use xlink:href="#DejaVuSans-Bold-69" transform="translate(585.400391 0)"/>
     <use xlink:href="#DejaVuSans-Bold-6e" transform="translate(619.677734 0)"/>
     <use xlink:href="#DejaVuSans-Bold-67" transform="translate(690.869141 0)"/>
     <use xlink:href="#DejaVuSans-Bold-20" transform="translate(762.451172 0)"/>
     <use xlink:href="#DejaVuSans-Bold-53" transform="translate(797.265625 0)"/>
     <use xlink:href="#DejaVuSans-Bold-74" transform="translate(869.287109 0)"/>
     <use xlink:href="#DejaVuSans-Bold-72" transform="translate(917.089844 0)"/>
     <use xlink:href="#DejaVuSans-Bold-75" transform="translate(966.40625 0)"/>
     <use xlink:href="#DejaVuSans-Bold-63" transform="translate(1037.597656 0)"/>
     <use xlink:href="#DejaVuSans-Bold-74" transform="translate(1096.875 0)"/>
     <use xlink:href="#DejaVuSans-Bold-75" transform="translate(1144.677734 0)"/>
     <use xlink:href="#DejaVuSans-Bold-72" transform="translate(1215.869141 0)"/>
     <use xlink:href="#DejaVuSans-Bold-65" transform="translate(1265.185547 0)"/>
    </g>
   </g>
   <g id="text_6">
    <!-- Logical H1-H6 Hierarchy -->
    <g style="fill: #10b981" transform="translate(418.051716 308.046728) scale(0.12 -0.12)">
     <defs>
      <path id="DejaVuSans-Bold-4c" d="M 588 4666 
L 1791 4666 
L 1791 909 
L 3903 909 
L 3903 0 
L 588 0 
L 588 4666 
z
" transform="scale(0.015625)"/>
      <path id="DejaVuSans-Bold-31" d="M 750 831 
L 1813 831 
L 1813 3847 
L 722 3622 
L 722 4441 
L 1806 4666 
L 2950 4666 
L 2950 831 
L 4013 831 
L 4013 0 
L 750 0 
L 750 831 
z
" transform="scale(0.015625)"/>
      <path id="DejaVuSans-Bold-2d" d="M 347 2297 
L 2309 2297 
L 2309 1388 
L 347 1388 
L 347 2297 
z
" transform="scale(0.015625)"/>
      <path id="DejaVuSans-Bold-36" d="M 2316 2303 
Q 2000 2303 1842 2098 
Q 1684 1894 1684 1484 
Q 1684 1075 1842 870 
Q 2000 666 2316 666 
Q 2634 666 2792 870 
Q 2950 1075 2950 1484 
Q 2950 1894 2792 2098 
Q 2634 2303 2316 2303 
z
M 3803 4544 
L 3803 3681 
Q 3506 3822 3243 3889 
Q 2981 3956 2731 3956 
Q 2194 3956 1894 3657 
Q 1594 3359 1544 2772 
Q 1750 2925 1990 3001 
Q 2231 3078 2516 3078 
Q 3231 3078 3670 2659 
Q 4109 2241 4109 1563 
Q 4109 813 3618 361 
Q 3128 -91 2303 -91 
Q 1394 -91 895 523 
Q 397 1138 397 2266 
Q 397 3422 980 4083 
Q 1563 4744 2578 4744 
Q 2900 4744 3203 4694 
Q 3506 4644 3803 4544 
z
" transform="scale(0.015625)"/>
      <path id="DejaVuSans-Bold-68" d="M 4056 2131 
L 4056 0 
L 2931 0 
L 2931 347 
L 2931 1625 
Q 2931 2084 2911 2256 
Q 2891 2428 2841 2509 
Q 2775 2619 2662 2680 
Q 2550 2741 2406 2741 
Q 2056 2741 1856 2470 
Q 1656 2200 1656 1722 
L 1656 0 
L 538 0 
L 538 4863 
L 1656 4863 
L 1656 2988 
Q 1909 3294 2193 3439 
Q 2478 3584 2822 3584 
Q 3428 3584 3742 3212 
Q 4056 2841 4056 2131 
z
" transform="scale(0.015625)"/>
     </defs>
     <use xlink:href="#DejaVuSans-Bold-4c"/>
     <use xlink:href="#DejaVuSans-Bold-6f" transform="translate(63.720703 0)"/>
     <use xlink:href="#DejaVuSans-Bold-67" transform="translate(132.421875 0)"/>
     <use xlink:href="#DejaVuSans-Bold-69" transform="translate(204.003906 0)"/>
     <use xlink:href="#DejaVuSans-Bold-63" transform="translate(238.28125 0)"/>
     <use xlink:href="#DejaVuSans-Bold-61" transform="translate(297.558594 0)"/>
     <use xlink:href="#DejaVuSans-Bold-6c" transform="translate(365.039062 0)"/>
     <use xlink:href="#DejaVuSans-Bold-20" transform="translate(399.316406 0)"/>
     <use xlink:href="#DejaVuSans-Bold-48" transform="translate(434.130859 0)"/>
     <use xlink:href="#DejaVuSans-Bold-31" transform="translate(517.822266 0)"/>
     <use xlink:href="#DejaVuSans-Bold-2d" transform="translate(587.402344 0)"/>
     <use xlink:href="#DejaVuSans-Bold-48" transform="translate(628.90625 0)"/>
     <use xlink:href="#DejaVuSans-Bold-36" transform="translate(712.597656 0)"/>
     <use xlink:href="#DejaVuSans-Bold-20" transform="translate(782.177734 0)"/>
     <use xlink:href="#DejaVuSans-Bold-48" transform="translate(816.992188 0)"/>
     <use xlink:href="#DejaVuSans-Bold-69" transform="translate(900.683594 0)"/>
     <use xlink:href="#DejaVuSans-Bold-65" transform="translate(934.960938 0)"/>
     <use xlink:href="#DejaVuSans-Bold-72" transform="translate(1002.783203 0)"/>
     <use xlink:href="#DejaVuSans-Bold-61" transform="translate(1052.099609 0)"/>
     <use xlink:href="#DejaVuSans-Bold-72" transform="translate(1119.580078 0)"/>
     <use xlink:href="#DejaVuSans-Bold-63" transform="translate(1168.896484 0)"/>
     <use xlink:href="#DejaVuSans-Bold-68" transform="translate(1228.173828 0)"/>
     <use xlink:href="#DejaVuSans-Bold-79" transform="translate(1299.365234 0)"/>
    </g>
   </g>
   <g id="text_7">
    <!-- Duplicate Meta Descriptions -->
    <g style="fill: #ef4444" transform="translate(88.358597 389.623015) scale(0.12 -0.12)">
     <use xlink:href="#DejaVuSans-Bold-44"/>
     <use xlink:href="#DejaVuSans-Bold-75" transform="translate(83.007812 0)"/>
     <use xlink:href="#DejaVuSans-Bold-70" transform="translate(154.199219 0)"/>
     <use xlink:href="#DejaVuSans-Bold-6c" transform="translate(225.78125 0)"/>
     <use xlink:href="#DejaVuSans-Bold-69" transform="translate(260.058594 0)"/>
     <use xlink:href="#DejaVuSans-Bold-63" transform="translate(294.335938 0)"/>
     <use xlink:href="#DejaVuSans-Bold-61" transform="translate(353.613281 0)"/>
     <use xlink:href="#DejaVuSans-Bold-74" transform="translate(421.09375 0)"/>
     <use xlink:href="#DejaVuSans-Bold-65" transform="translate(468.896484 0)"/>
     <use xlink:href="#DejaVuSans-Bold-20" transform="translate(536.71875 0)"/>
     <use xlink:href="#DejaVuSans-Bold-4d" transform="translate(571.533203 0)"/>
     <use xlink:href="#DejaVuSans-Bold-65" transform="translate(671.044922 0)"/>
     <use xlink:href="#DejaVuSans-Bold-74" transform="translate(738.867188 0)"/>
     <use xlink:href="#DejaVuSans-Bold-61" transform="translate(786.669922 0)"/>
     <use xlink:href="#DejaVuSans-Bold-20" transform="translate(854.150391 0)"/>
     <use xlink:href="#DejaVuSans-Bold-44" transform="translate(888.964844 0)"/>
     <use xlink:href="#DejaVuSans-Bold-65" transform="translate(971.972656 0)"/>
     <use xlink:href="#DejaVuSans-Bold-73" transform="translate(1039.794922 0)"/>
     <use xlink:href="#DejaVuSans-Bold-63" transform="translate(1099.316406 0)"/>
     <use xlink:href="#DejaVuSans-Bold-72" transform="translate(1158.59375 0)"/>
     <use xlink:href="#DejaVuSans-Bold-69" transform="translate(1207.910156 0)"/>
     <use xlink:href="#DejaVuSans-Bold-70" transform="translate(1242.1875 0)"/>
     <use xlink:href="#DejaVuSans-Bold-74" transform="translate(1313.769531 0)"/>
     <use xlink:href="#DejaVuSans-Bold-69" transform="translate(1361.572266 0)"/>
     <use xlink:href="#DejaVuSans-Bold-6f" transform="translate(1395.849609 0)"/>
     <use xlink:href="#DejaVuSans-Bold-6e" transform="translate(1464.550781 0)"/>
     <use xlink:href="#DejaVuSans-Bold-73" transform="translate(1535.742188 0)"/>
    </g>
   </g>
   <g id="text_8">
    <!-- Unique Descriptions -->
    <g style="fill: #10b981" transform="translate(431.622028 389.623015) scale(0.12 -0.12)">
     <defs>
      <path id="DejaVuSans-Bold-71" d="M 2181 2772 
Q 1825 2772 1636 2509 
Q 1447 2247 1447 1747 
Q 1447 1247 1636 984 
Q 1825 722 2181 722 
Q 2541 722 2730 984 
Q 2919 1247 2919 1747 
Q 2919 2247 2730 2509 
Q 2541 2772 2181 2772 
z
M 2919 506 
Q 2688 197 2409 53 
Q 2131 -91 1766 -91 
Q 1119 -91 703 423 
Q 288 938 288 1747 
Q 288 2556 703 3067 
Q 1119 3578 1766 3578 
Q 2131 3578 2409 3434 
Q 2688 3291 2919 2981 
L 2919 3500 
L 4044 3500 
L 4044 -1331 
L 2919 -1331 
L 2919 506 
z
" transform="scale(0.015625)"/>
     </defs>
     <use xlink:href="#DejaVuSans-Bold-55"/>
     <use xlink:href="#DejaVuSans-Bold-6e" transform="translate(81.201172 0)"/>
     <use xlink:href="#DejaVuSans-Bold-69" transform="translate(152.392578 0)"/>
     <use xlink:href="#DejaVuSans-Bold-71" transform="translate(186.669922 0)"/>
     <use xlink:href="#DejaVuSans-Bold-75" transform="translate(258.251953 0)"/>
     <use xlink:href="#DejaVuSans-Bold-65" transform="translate(329.443359 0)"/>
     <use xlink:href="#DejaVuSans-Bold-20" transform="translate(397.265625 0)"/>
     <use xlink:href="#DejaVuSans-Bold-44" transform="translate(432.080078 0)"/>
     <use xlink:href="#DejaVuSans-Bold-65" transform="translate(515.087891 0)"/>
     <use xlink:href="#DejaVuSans-Bold-73" transform="translate(582.910156 0)"/>
     <use xlink:href="#DejaVuSans-Bold-63" transform="translate(642.431641 0)"/>
     <use xlink:href="#DejaVuSans-Bold-72" transform="translate(701.708984 0)"/>
     <use xlink:href="#DejaVuSans-Bold-69" transform="translate(751.025391 0)"/>
     <use xlink:href="#DejaVuSans-Bold-70" transform="translate(785.302734 0)"/>
     <use xlink:href="#DejaVuSans-Bold-74" transform="translate(856.884766 0)"/>
     <use xlink:href="#DejaVuSans-Bold-69" transform="translate(904.6875 0)"/>
     <use xlink:href="#DejaVuSans-Bold-6f" transform="translate(938.964844 0)"/>
     <use xlink:href="#DejaVuSans-Bold-6e" transform="translate(1007.666016 0)"/>
     <use xlink:href="#DejaVuSans-Bold-73" transform="translate(1078.857422 0)"/>
    </g>
   </g>
   <g id="text_9">
    <!-- Long URLs -->
    <g style="fill: #ef4444" transform="translate(148.589222 471.058676) scale(0.12 -0.12)">
     <defs>
      <path id="DejaVuSans-Bold-52" d="M 2297 2597 
Q 2675 2597 2839 2737 
Q 3003 2878 3003 3200 
Q 3003 3519 2839 3656 
Q 2675 3794 2297 3794 
L 1791 3794 
L 1791 2597 
L 2297 2597 
z
M 1791 1766 
L 1791 0 
L 588 0 
L 588 4666 
L 2425 4666 
Q 3347 4666 3776 4356 
Q 4206 4047 4206 3378 
Q 4206 2916 3982 2619 
Q 3759 2322 3309 2181 
Q 3556 2125 3751 1926 
Q 3947 1728 4147 1325 
L 4800 0 
L 3519 0 
L 2950 1159 
Q 2778 1509 2601 1637 
Q 2425 1766 2131 1766 
L 1791 1766 
z
" transform="scale(0.015625)"/>
     </defs>
     <use xlink:href="#DejaVuSans-Bold-4c"/>
     <use xlink:href="#DejaVuSans-Bold-6f" transform="translate(63.720703 0)"/>
     <use xlink:href="#DejaVuSans-Bold-6e" transform="translate(132.421875 0)"/>
     <use xlink:href="#DejaVuSans-Bold-67" transform="translate(203.613281 0)"/>
     <use xlink:href="#DejaVuSans-Bold-20" transform="translate(275.195312 0)"/>
     <use xlink:href="#DejaVuSans-Bold-55" transform="translate(310.009766 0)"/>
     <use xlink:href="#DejaVuSans-Bold-52" transform="translate(391.210938 0)"/>
     <use xlink:href="#DejaVuSans-Bold-4c" transform="translate(468.212891 0)"/>
     <use xlink:href="#DejaVuSans-Bold-73" transform="translate(531.933594 0)"/>
    </g>
   </g>
   <g id="text_10">
    <!-- Clean, Short URLs -->
    <g style="fill: #10b981" transform="translate(439.190466 471.152426) scale(0.12 -0.12)">
     <defs>
      <path id="DejaVuSans-Bold-43" d="M 4288 256 
Q 3956 84 3597 -3 
Q 3238 -91 2847 -91 
Q 1681 -91 1000 561 
Q 319 1213 319 2328 
Q 319 3447 1000 4098 
Q 1681 4750 2847 4750 
Q 3238 4750 3597 4662 
Q 3956 4575 4288 4403 
L 4288 3438 
Q 3953 3666 3628 3772 
Q 3303 3878 2944 3878 
Q 2300 3878 1931 3465 
Q 1563 3053 1563 2328 
Q 1563 1606 1931 1193 
Q 2300 781 2944 781 
Q 3303 781 3628 887 
Q 3953 994 4288 1222 
L 4288 256 
z
" transform="scale(0.015625)"/>
      <path id="DejaVuSans-Bold-2c" d="M 653 1209 
L 1778 1209 
L 1778 256 
L 1006 -909 
L 341 -909 
L 653 256 
L 653 1209 
z
" transform="scale(0.015625)"/>
     </defs>
     <use xlink:href="#DejaVuSans-Bold-43"/>
     <use xlink:href="#DejaVuSans-Bold-6c" transform="translate(73.388672 0)"/>
     <use xlink:href="#DejaVuSans-Bold-65" transform="translate(107.666016 0)"/>
     <use xlink:href="#DejaVuSans-Bold-61" transform="translate(175.488281 0)"/>
     <use xlink:href="#DejaVuSans-Bold-6e" transform="translate(242.96875 0)"/>
     <use xlink:href="#DejaVuSans-Bold-2c" transform="translate(314.160156 0)"/>
     <use xlink:href="#DejaVuSans-Bold-20" transform="translate(352.148438 0)"/>
     <use xlink:href="#DejaVuSans-Bold-53" transform="translate(386.962891 0)"/>
     <use xlink:href="#DejaVuSans-Bold-68" transform="translate(458.984375 0)"/>
     <use xlink:href="#DejaVuSans-Bold-6f" transform="translate(530.175781 0)"/>
     <use xlink:href="#DejaVuSans-Bold-72" transform="translate(598.876953 0)"/>
     <use xlink:href="#DejaVuSans-Bold-74" transform="translate(648.193359 0)"/>
     <use xlink:href="#DejaVuSans-Bold-20" transform="translate(695.996094 0)"/>
     <use xlink:href="#DejaVuSans-Bold-55" transform="translate(730.810547 0)"/>
     <use xlink:href="#DejaVuSans-Bold-52" transform="translate(812.011719 0)"/>
     <use xlink:href="#DejaVuSans-Bold-4c" transform="translate(889.013672 0)"/>
     <use xlink:href="#DejaVuSans-Bold-73" transform="translate(952.734375 0)"/>
    </g>
   </g>
   <g id="text_11">
    <!-- Mistake -->
    <g style="fill: #ef4444" transform="translate(153.25469 69.511967) scale(0.14 -0.14)">
     <defs>
      <path id="DejaVuSans-Bold-6b" d="M 538 4863 
L 1656 4863 
L 1656 2216 
L 2944 3500 
L 4244 3500 
L 2534 1894 
L 4378 0 
L 3022 0 
L 1656 1459 
L 1656 0 
L 538 0 
L 538 4863 
z
" transform="scale(0.015625)"/>
     </defs>
     <use xlink:href="#DejaVuSans-Bold-4d"/>
     <use xlink:href="#DejaVuSans-Bold-69" transform="translate(99.511719 0)"/>
     <use xlink:href="#DejaVuSans-Bold-73" transform="translate(133.789062 0)"/>
     <use xlink:href="#DejaVuSans-Bold-74" transform="translate(193.310547 0)"/>
     <use xlink:href="#DejaVuSans-Bold-61" transform="translate(241.113281 0)"/>
     <use xlink:href="#DejaVuSans-Bold-6b" transform="translate(308.59375 0)"/>
     <use xlink:href="#DejaVuSans-Bold-65" transform="translate(372.472656 0)"/>
    </g>
   </g>
   <g id="text_12">
    <!-- Correct Approach -->
    <g style="fill: #10b981" transform="translate(430.83781 69.511967) scale(0.14 -0.14)">
     <use xlink:href="#DejaVuSans-Bold-43"/>
     <use xlink:href="#DejaVuSans-Bold-6f" transform="translate(73.388672 0)"/>
     <use xlink:href="#DejaVuSans-Bold-72" transform="translate(142.089844 0)"/>
     <use xlink:href="#DejaVuSans-Bold-72" transform="translate(191.40625 0)"/>
     <use xlink:href="#DejaVuSans-Bold-65" transform="translate(240.722656 0)"/>
     <use xlink:href="#DejaVuSans-Bold-63" transform="translate(308.544922 0)"/>
     <use xlink:href="#DejaVuSans-Bold-74" transform="translate(367.822266 0)"/>
     <use xlink:href="#DejaVuSans-Bold-20" transform="translate(415.625 0)"/>
     <use xlink:href="#DejaVuSans-Bold-41" transform="translate(450.439453 0)"/>
     <use xlink:href="#DejaVuSans-Bold-70" transform="translate(527.832031 0)"/>
     <use xlink:href="#DejaVuSans-Bold-70" transform="translate(599.414062 0)"/>
     <use xlink:href="#DejaVuSans-Bold-72" transform="translate(670.996094 0)"/>
     <use xlink:href="#DejaVuSans-Bold-6f" transform="translate(720.3125 0)"/>
     <use xlink:href="#DejaVuSans-Bold-61" transform="translate(789.013672 0)"/>
     <use xlink:href="#DejaVuSans-Bold-63" transform="translate(856.494141 0)"/>
     <use xlink:href="#DejaVuSans-Bold-68" transform="translate(915.771484 0)"/>
    </g>
   </g>
  </g>
 </g>
 <defs>
  <clipPath id="pe3e66b8ee9">
   <rect x="7.2" y="7.2" width="669.6" height="554.4"/>
  </clipPath>
 </defs>
</svg>
