<?xml version="1.0" encoding="utf-8" standalone="no"?>
<!DOCTYPE svg PUBLIC "-//W3C//DTD SVG 1.1//EN"
  "http://www.w3.org/Graphics/SVG/1.1/DTD/svg11.dtd">
<svg xmlns:xlink="http://www.w3.org/1999/xlink" width="572.4pt" height="679.68pt" viewBox="0 0 572.4 679.68" xmlns="http://www.w3.org/2000/svg" version="1.1">
 <metadata>
  <rdf:RDF xmlns:dc="http://purl.org/dc/elements/1.1/" xmlns:cc="http://creativecommons.org/ns#" xmlns:rdf="http://www.w3.org/1999/02/22-rdf-syntax-ns#">
   <cc:Work>
    <dc:type rdf:resource="http://purl.org/dc/dcmitype/StillImage"/>
    <dc:date>2025-12-27T10:17:13.940774</dc:date>
    <dc:format>image/svg+xml</dc:format>
    <dc:creator>
     <cc:Agent>
      <dc:title>Matplotlib v3.10.8, https://matplotlib.org/</dc:title>
     </cc:Agent>
    </dc:creator>
   </cc:Work>
  </rdf:RDF>
 </metadata>
 <defs>
  <style type="text/css">*{stroke-linejoin: round; stroke-linecap: butt}</style>
 </defs>
 <g id="figure_1">
  <g id="patch_1">
   <path d="M 0 679.68 
L 572.4 679.68 
L 572.4 0 
L 0 0 
z
" style="fill: #f8f9fa"/>
  </g>
  <g id="axes_1">
   <g id="patch_2">
    <path d="M 284.341162 118.826125 
Q 217.140561 145.800013 151.496313 172.149191 
" clip-path="url(#p6de1a4eade)" style="fill: none; stroke: #10b981; stroke-width: 1.5; stroke-linecap: round"/>
    <path d="M 160.410575 172.881269 
L 151.496313 172.149191 
L 157.430532 165.457028 
" clip-path="url(#p6de1a4eade)" style="fill: none; stroke: #10b981; stroke-width: 1.5; stroke-linecap: round"/>
   </g>
   <g id="patch_3">
    <path d="M 288.058838 118.826125 
Q 355.259439 145.800013 420.903687 172.149191 
" clip-path="url(#p6de1a4eade)" style="fill: none; stroke: #f59e0b; stroke-width: 1.5; stroke-linecap: round"/>
    <path d="M 414.969468 165.457028 
L 420.903687 172.149191 
L 411.989425 172.881269 
" clip-path="url(#p6de1a4eade)" style="fill: none; stroke: #f59e0b; stroke-width: 1.5; stroke-linecap: round"/>
   </g>
   <g id="patch_4">
    <path d="M 149.940026 285.146125 
Q 217.140627 312.120013 282.784875 338.469191 
" clip-path="url(#p6de1a4eade)" style="fill: none; stroke: #8b5cf6; stroke-width: 1.5; stroke-linecap: round"/>
    <path d="M 276.850656 331.777028 
L 282.784875 338.469191 
L 273.870614 339.201269 
" clip-path="url(#p6de1a4eade)" style="fill: none; stroke: #8b5cf6; stroke-width: 1.5; stroke-linecap: round"/>
   </g>
   <g id="patch_5">
    <path d="M 422.459974 285.146125 
Q 355.259373 312.120013 289.615125 338.469191 
" clip-path="url(#p6de1a4eade)" style="fill: none; stroke: #8b5cf6; stroke-width: 1.5; stroke-linecap: round"/>
    <path d="M 298.529386 339.201269 
L 289.615125 338.469191 
L 295.549344 331.777028 
" clip-path="url(#p6de1a4eade)" style="fill: none; stroke: #8b5cf6; stroke-width: 1.5; stroke-linecap: round"/>
   </g>
   <g id="patch_6">
    <path d="M 286.2 452.719819 
Q 286.2 478.440189 286.2 502.483509 
" clip-path="url(#p6de1a4eade)" style="fill: none; stroke: #14b8a6; stroke-width: 1.5; stroke-linecap: round"/>
    <path d="M 290.2 494.483509 
L 286.2 502.483509 
L 282.2 494.483509 
" clip-path="url(#p6de1a4eade)" style="fill: none; stroke: #14b8a6; stroke-width: 1.5; stroke-linecap: round"/>
   </g>
   <g id="patch_7">
    <path d="M 189.516832 131.94 
L 382.883168 131.94 
Q 393.932673 131.94 393.932673 118.08 
L 393.932673 62.64 
Q 393.932673 48.78 382.883168 48.78 
L 189.516832 48.78 
Q 178.467327 48.78 178.467327 62.64 
L 178.467327 118.08 
Q 178.467327 131.94 189.516832 131.94 
z
" clip-path="url(#p6de1a4eade)" style="fill: #2563eb; opacity: 0.2; stroke: #2563eb; stroke-width: 1.5; stroke-linejoin: miter"/>
   </g>
   <g id="patch_8">
    <path d="M 51.39802 298.26 
L 244.764356 298.26 
Q 255.813861 298.26 255.813861 284.4 
L 255.813861 228.96 
Q 255.813861 215.1 244.764356 215.1 
L 51.39802 215.1 
Q 40.348515 215.1 40.348515 228.96 
L 40.348515 284.4 
Q 40.348515 298.26 51.39802 298.26 
z
" clip-path="url(#p6de1a4eade)" style="fill: #10b981; opacity: 0.2; stroke: #10b981; stroke-width: 1.5; stroke-linejoin: miter"/>
   </g>
   <g id="patch_9">
    <path d="M 327.635644 298.26 
L 521.00198 298.26 
Q 532.051485 298.26 532.051485 284.4 
L 532.051485 228.96 
Q 532.051485 215.1 521.00198 215.1 
L 327.635644 215.1 
Q 316.586139 215.1 316.586139 228.96 
L 316.586139 284.4 
Q 316.586139 298.26 327.635644 298.26 
z
" clip-path="url(#p6de1a4eade)" style="fill: #f59e0b; opacity: 0.2; stroke: #f59e0b; stroke-width: 1.5; stroke-linejoin: miter"/>
   </g>
   <g id="patch_10">
    <path d="M 189.516832 464.58 
L 382.883168 464.58 
Q 393.932673 464.58 393.932673 450.72 
L 393.932673 395.28 
Q 393.932673 381.42 382.883168 381.42 
L 189.516832 381.42 
Q 178.467327 381.42 178.467327 395.28 
L 178.467327 450.72 
Q 178.467327 464.58 189.516832 464.58 
z
" clip-path="url(#p6de1a4eade)" style="fill: #8b5cf6; opacity: 0.2; stroke: #8b5cf6; stroke-width: 1.5; stroke-linejoin: miter"/>
   </g>
   <g id="patch_11">
    <path d="M 189.516832 630.9 
L 382.883168 630.9 
Q 393.932673 630.9 393.932673 617.04 
L 393.932673 561.6 
Q 393.932673 547.74 382.883168 547.74 
L 189.516832 547.74 
Q 178.467327 547.74 178.467327 561.6 
L 178.467327 617.04 
Q 178.467327 630.9 189.516832 630.9 
z
" clip-path="url(#p6de1a4eade)" style="fill: #14b8a6; opacity: 0.2; stroke: #14b8a6; stroke-width: 1.5; stroke-linejoin: miter"/>
   </g>
   <g id="text_1">
    <!-- Identify Symptom -->
    <g style="fill: #2563eb" transform="translate(225.77625 93.624375) scale(0.12 -0.12)">
     <defs>
      <path id="DejaVuSans-Bold-49" d="M 588 4666 
L 1791 4666 
L 1791 0 
L 588 0 
L 588 4666 
z
" transform="scale(0.015625)"/>
      <path id="DejaVuSans-Bold-64" d="M 2919 2988 
L 2919 4863 
L 4044 4863 
L 4044 0 
L 2919 0 
L 2919 506 
Q 2688 197 2409 53 
Q 2131 -91 1766 -91 
Q 1119 -91 703 423 
Q 288 938 288 1747 
Q 288 2556 703 3070 
Q 1119 3584 1766 3584 
Q 2128 3584 2408 3439 
Q 2688 3294 2919 2988 
z
M 2181 722 
Q 2541 722 2730 984 
Q 2919 1247 2919 1747 
Q 2919 2247 2730 2509 
Q 2541 2772 2181 2772 
Q 1825 2772 1636 2509 
Q 1447 2247 1447 1747 
Q 1447 1247 1636 984 
Q 1825 722 2181 722 
z
" transform="scale(0.015625)"/>
      <path id="DejaVuSans-Bold-65" d="M 4031 1759 
L 4031 1441 
L 1416 1441 
Q 1456 1047 1700 850 
Q 1944 653 2381 653 
Q 2734 653 3104 758 
Q 3475 863 3866 1075 
L 3866 213 
Q 3469 63 3072 -14 
Q 2675 -91 2278 -91 
Q 1328 -91 801 392 
Q 275 875 275 1747 
Q 275 2603 792 3093 
Q 1309 3584 2216 3584 
Q 3041 3584 3536 3087 
Q 4031 2591 4031 1759 
z
M 2881 2131 
Q 2881 2450 2695 2645 
Q 2509 2841 2209 2841 
Q 1884 2841 1681 2658 
Q 1478 2475 1428 2131 
L 2881 2131 
z
" transform="scale(0.015625)"/>
      <path id="DejaVuSans-Bold-6e" d="M 4056 2131 
L 4056 0 
L 2931 0 
L 2931 347 
L 2931 1631 
Q 2931 2084 2911 2256 
Q 2891 2428 2841 2509 
Q 2775 2619 2662 2680 
Q 2550 2741 2406 2741 
Q 2056 2741 1856 2470 
Q 1656 2200 1656 1722 
L 1656 0 
L 538 0 
L 538 3500 
L 1656 3500 
L 1656 2988 
Q 1909 3294 2193 3439 
Q 2478 3584 2822 3584 
Q 3428 3584 3742 3212 
Q 4056 2841 4056 2131 
z
" transform="scale(0.015625)"/>
      <path id="DejaVuSans-Bold-74" d="M 1759 4494 
L 1759 3500 
L 2913 3500 
L 2913 2700 
L 1759 2700 
L 1759 1216 
Q 1759 972 1856 886 
Q 1953 800 2241 800 
L 2816 800 
L 2816 0 
L 1856 0 
Q 1194 0 917 276 
Q 641 553 641 1216 
L 641 2700 
L 84 2700 
L 84 3500 
L 641 3500 
L 641 4494 
L 1759 4494 
z
" transform="scale(0.015625)"/>
      <path id="DejaVuSans-Bold-69" d="M 538 3500 
L 1656 3500 
L 1656 0 
L 538 0 
L 538 3500 
z
M 538 4863 
L 1656 4863 
L 1656 3950 
L 538 3950 
L 538 4863 
z
" transform="scale(0.015625)"/>
      <path id="DejaVuSans-Bold-66" d="M 2841 4863 
L 2841 4128 
L 2222 4128 
Q 1984 4128 1890 4042 
Q 1797 3956 1797 3744 
L 1797 3500 
L 2753 3500 
L 2753 2700 
L 1797 2700 
L 1797 0 
L 678 0 
L 678 2700 
L 122 2700 
L 122 3500 
L 678 3500 
L 678 3744 
Q 678 4316 997 4589 
Q 1316 4863 1984 4863 
L 2841 4863 
z
" transform="scale(0.015625)"/>
      <path id="DejaVuSans-Bold-79" d="M 78 3500 
L 1197 3500 
L 2138 1125 
L 2938 3500 
L 4056 3500 
L 2584 -331 
Q 2363 -916 2067 -1148 
Q 1772 -1381 1288 -1381 
L 641 -1381 
L 641 -647 
L 991 -647 
Q 1275 -647 1404 -556 
Q 1534 -466 1606 -231 
L 1638 -134 
L 78 3500 
z
" transform="scale(0.015625)"/>
      <path id="DejaVuSans-Bold-20" transform="scale(0.015625)"/>
      <path id="DejaVuSans-Bold-53" d="M 3834 4519 
L 3834 3531 
Q 3450 3703 3084 3790 
Q 2719 3878 2394 3878 
Q 1963 3878 1756 3759 
Q 1550 3641 1550 3391 
Q 1550 3203 1689 3098 
Q 1828 2994 2194 2919 
L 2706 2816 
Q 3484 2659 3812 2340 
Q 4141 2022 4141 1434 
Q 4141 663 3683 286 
Q 3225 -91 2284 -91 
Q 1841 -91 1394 -6 
Q 947 78 500 244 
L 500 1259 
Q 947 1022 1364 901 
Q 1781 781 2169 781 
Q 2563 781 2772 912 
Q 2981 1044 2981 1288 
Q 2981 1506 2839 1625 
Q 2697 1744 2272 1838 
L 1806 1941 
Q 1106 2091 782 2419 
Q 459 2747 459 3303 
Q 459 4000 909 4375 
Q 1359 4750 2203 4750 
Q 2588 4750 2994 4692 
Q 3400 4634 3834 4519 
z
" transform="scale(0.015625)"/>
      <path id="DejaVuSans-Bold-6d" d="M 3781 2919 
Q 3994 3244 4286 3414 
Q 4578 3584 4928 3584 
Q 5531 3584 5847 3212 
Q 6163 2841 6163 2131 
L 6163 0 
L 5038 0 
L 5038 1825 
Q 5041 1866 5042 1909 
Q 5044 1953 5044 2034 
Q 5044 2406 4934 2573 
Q 4825 2741 4581 2741 
Q 4263 2741 4089 2478 
Q 3916 2216 3909 1719 
L 3909 0 
L 2784 0 
L 2784 1825 
Q 2784 2406 2684 2573 
Q 2584 2741 2328 2741 
Q 2006 2741 1831 2477 
Q 1656 2213 1656 1722 
L 1656 0 
L 531 0 
L 531 3500 
L 1656 3500 
L 1656 2988 
Q 1863 3284 2130 3434 
Q 2397 3584 2719 3584 
Q 3081 3584 3359 3409 
Q 3638 3234 3781 2919 
z
" transform="scale(0.015625)"/>
      <path id="DejaVuSans-Bold-70" d="M 1656 506 
L 1656 -1331 
L 538 -1331 
L 538 3500 
L 1656 3500 
L 1656 2988 
Q 1888 3294 2169 3439 
Q 2450 3584 2816 3584 
Q 3463 3584 3878 3070 
Q 4294 2556 4294 1747 
Q 4294 938 3878 423 
Q 3463 -91 2816 -91 
Q 2450 -91 2169 54 
Q 1888 200 1656 506 
z
M 2400 2772 
Q 2041 2772 1848 2508 
Q 1656 2244 1656 1747 
Q 1656 1250 1848 986 
Q 2041 722 2400 722 
Q 2759 722 2948 984 
Q 3138 1247 3138 1747 
Q 3138 2247 2948 2509 
Q 2759 2772 2400 2772 
z
" transform="scale(0.015625)"/>
      <path id="DejaVuSans-Bold-6f" d="M 2203 2784 
Q 1831 2784 1636 2517 
Q 1441 2250 1441 1747 
Q 1441 1244 1636 976 
Q 1831 709 2203 709 
Q 2569 709 2762 976 
Q 2956 1244 2956 1747 
Q 2956 2250 2762 2517 
Q 2569 2784 2203 2784 
z
M 2203 3584 
Q 3106 3584 3614 3096 
Q 4122 2609 4122 1747 
Q 4122 884 3614 396 
Q 3106 -91 2203 -91 
Q 1297 -91 786 396 
Q 275 884 275 1747 
Q 275 2609 786 3096 
Q 1297 3584 2203 3584 
z
" transform="scale(0.015625)"/>
     </defs>
     <use xlink:href="#DejaVuSans-Bold-49"/>
     <use xlink:href="#DejaVuSans-Bold-64" transform="translate(37.207031 0)"/>
     <use xlink:href="#DejaVuSans-Bold-65" transform="translate(108.789062 0)"/>
     <use xlink:href="#DejaVuSans-Bold-6e" transform="translate(176.611328 0)"/>
     <use xlink:href="#DejaVuSans-Bold-74" transform="translate(247.802734 0)"/>
     <use xlink:href="#DejaVuSans-Bold-69" transform="translate(295.605469 0)"/>
     <use xlink:href="#DejaVuSans-Bold-66" transform="translate(329.882812 0)"/>
     <use xlink:href="#DejaVuSans-Bold-79" transform="translate(373.388672 0)"/>
     <use xlink:href="#DejaVuSans-Bold-20" transform="translate(438.574219 0)"/>
     <use xlink:href="#DejaVuSans-Bold-53" transform="translate(473.388672 0)"/>
     <use xlink:href="#DejaVuSans-Bold-79" transform="translate(545.410156 0)"/>
     <use xlink:href="#DejaVuSans-Bold-6d" transform="translate(610.595703 0)"/>
     <use xlink:href="#DejaVuSans-Bold-70" transform="translate(714.794922 0)"/>
     <use xlink:href="#DejaVuSans-Bold-74" transform="translate(786.376953 0)"/>
     <use xlink:href="#DejaVuSans-Bold-6f" transform="translate(834.179688 0)"/>
     <use xlink:href="#DejaVuSans-Bold-6d" transform="translate(902.880859 0)"/>
    </g>
   </g>
   <g id="text_2">
    <!-- Check Technical -->
    <g style="fill: #10b981" transform="translate(94.514313 259.99125) scale(0.12 -0.12)">
     <defs>
      <path id="DejaVuSans-Bold-43" d="M 4288 256 
Q 3956 84 3597 -3 
Q 3238 -91 2847 -91 
Q 1681 -91 1000 561 
Q 319 1213 319 2328 
Q 319 3447 1000 4098 
Q 1681 4750 2847 4750 
Q 3238 4750 3597 4662 
Q 3956 4575 4288 4403 
L 4288 3438 
Q 3953 3666 3628 3772 
Q 3303 3878 2944 3878 
Q 2300 3878 1931 3465 
Q 1563 3053 1563 2328 
Q 1563 1606 1931 1193 
Q 2300 781 2944 781 
Q 3303 781 3628 887 
Q 3953 994 4288 1222 
L 4288 256 
z
" transform="scale(0.015625)"/>
      <path id="DejaVuSans-Bold-68" d="M 4056 2131 
L 4056 0 
L 2931 0 
L 2931 347 
L 2931 1625 
Q 2931 2084 2911 2256 
Q 2891 2428 2841 2509 
Q 2775 2619 2662 2680 
Q 2550 2741 2406 2741 
Q 2056 2741 1856 2470 
Q 1656 2200 1656 1722 
L 1656 0 
L 538 0 
L 538 4863 
L 1656 4863 
L 1656 2988 
Q 1909 3294 2193 3439 
Q 2478 3584 2822 3584 
Q 3428 3584 3742 3212 
Q 4056 2841 4056 2131 
z
" transform="scale(0.015625)"/>
      <path id="DejaVuSans-Bold-63" d="M 3366 3391 
L 3366 2478 
Q 3138 2634 2908 2709 
Q 2678 2784 2431 2784 
Q 1963 2784 1702 2511 
Q 1441 2238 1441 1747 
Q 1441 1256 1702 982 
Q 1963 709 2431 709 
Q 2694 709 2930 787 
Q 3166 866 3366 1019 
L 3366 103 
Q 3103 6 2833 -42 
Q 2563 -91 2291 -91 
Q 1344 -91 809 395 
Q 275 881 275 1747 
Q 275 2613 809 3098 
Q 1344 3584 2291 3584 
Q 2566 3584 2833 3536 
Q 3100 3488 3366 3391 
z
" transform="scale(0.015625)"/>
      <path id="DejaVuSans-Bold-6b" d="M 538 4863 
L 1656 4863 
L 1656 2216 
L 2944 3500 
L 4244 3500 
L 2534 1894 
L 4378 0 
L 3022 0 
L 1656 1459 
L 1656 0 
L 538 0 
L 538 4863 
z
" transform="scale(0.015625)"/>
      <path id="DejaVuSans-Bold-54" d="M 31 4666 
L 4331 4666 
L 4331 3756 
L 2784 3756 
L 2784 0 
L 1581 0 
L 1581 3756 
L 31 3756 
L 31 4666 
z
" transform="scale(0.015625)"/>
      <path id="DejaVuSans-Bold-61" d="M 2106 1575 
Q 1756 1575 1579 1456 
Q 1403 1338 1403 1106 
Q 1403 894 1545 773 
Q 1688 653 1941 653 
Q 2256 653 2472 879 
Q 2688 1106 2688 1447 
L 2688 1575 
L 2106 1575 
z
M 3816 1997 
L 3816 0 
L 2688 0 
L 2688 519 
Q 2463 200 2181 54 
Q 1900 -91 1497 -91 
Q 953 -91 614 226 
Q 275 544 275 1050 
Q 275 1666 698 1953 
Q 1122 2241 2028 2241 
L 2688 2241 
L 2688 2328 
Q 2688 2594 2478 2717 
Q 2269 2841 1825 2841 
Q 1466 2841 1156 2769 
Q 847 2697 581 2553 
L 581 3406 
Q 941 3494 1303 3539 
Q 1666 3584 2028 3584 
Q 2975 3584 3395 3211 
Q 3816 2838 3816 1997 
z
" transform="scale(0.015625)"/>
      <path id="DejaVuSans-Bold-6c" d="M 538 4863 
L 1656 4863 
L 1656 0 
L 538 0 
L 538 4863 
z
" transform="scale(0.015625)"/>
     </defs>
     <use xlink:href="#DejaVuSans-Bold-43"/>
     <use xlink:href="#DejaVuSans-Bold-68" transform="translate(73.388672 0)"/>
     <use xlink:href="#DejaVuSans-Bold-65" transform="translate(144.580078 0)"/>
     <use xlink:href="#DejaVuSans-Bold-63" transform="translate(212.402344 0)"/>
     <use xlink:href="#DejaVuSans-Bold-6b" transform="translate(271.679688 0)"/>
     <use xlink:href="#DejaVuSans-Bold-20" transform="translate(338.183594 0)"/>
     <use xlink:href="#DejaVuSans-Bold-54" transform="translate(372.998047 0)"/>
     <use xlink:href="#DejaVuSans-Bold-65" transform="translate(427.960938 0)"/>
     <use xlink:href="#DejaVuSans-Bold-63" transform="translate(495.783203 0)"/>
     <use xlink:href="#DejaVuSans-Bold-68" transform="translate(555.060547 0)"/>
     <use xlink:href="#DejaVuSans-Bold-6e" transform="translate(626.251953 0)"/>
     <use xlink:href="#DejaVuSans-Bold-69" transform="translate(697.443359 0)"/>
     <use xlink:href="#DejaVuSans-Bold-63" transform="translate(731.720703 0)"/>
     <use xlink:href="#DejaVuSans-Bold-61" transform="translate(790.998047 0)"/>
     <use xlink:href="#DejaVuSans-Bold-6c" transform="translate(858.478516 0)"/>
    </g>
   </g>
   <g id="text_3">
    <!-- Check Content -->
    <g style="fill: #f59e0b" transform="translate(375.065374 259.99125) scale(0.12 -0.12)">
     <use xlink:href="#DejaVuSans-Bold-43"/>
     <use xlink:href="#DejaVuSans-Bold-68" transform="translate(73.388672 0)"/>
     <use xlink:href="#DejaVuSans-Bold-65" transform="translate(144.580078 0)"/>
     <use xlink:href="#DejaVuSans-Bold-63" transform="translate(212.402344 0)"/>
     <use xlink:href="#DejaVuSans-Bold-6b" transform="translate(271.679688 0)"/>
     <use xlink:href="#DejaVuSans-Bold-20" transform="translate(338.183594 0)"/>
     <use xlink:href="#DejaVuSans-Bold-43" transform="translate(372.998047 0)"/>
     <use xlink:href="#DejaVuSans-Bold-6f" transform="translate(446.386719 0)"/>
     <use xlink:href="#DejaVuSans-Bold-6e" transform="translate(515.087891 0)"/>
     <use xlink:href="#DejaVuSans-Bold-74" transform="translate(586.279297 0)"/>
     <use xlink:href="#DejaVuSans-Bold-65" transform="translate(634.082031 0)"/>
     <use xlink:href="#DejaVuSans-Bold-6e" transform="translate(701.904297 0)"/>
     <use xlink:href="#DejaVuSans-Bold-74" transform="translate(773.095703 0)"/>
    </g>
   </g>
   <g id="text_4">
    <!-- Check Authority -->
    <g style="fill: #8b5cf6" transform="translate(231.849375 426.264375) scale(0.12 -0.12)">
     <defs>
      <path id="DejaVuSans-Bold-41" d="M 3419 850 
L 1538 850 
L 1241 0 
L 31 0 
L 1759 4666 
L 3194 4666 
L 4922 0 
L 3713 0 
L 3419 850 
z
M 1838 1716 
L 3116 1716 
L 2478 3572 
L 1838 1716 
z
" transform="scale(0.015625)"/>
      <path id="DejaVuSans-Bold-75" d="M 500 1363 
L 500 3500 
L 1625 3500 
L 1625 3150 
Q 1625 2866 1622 2436 
Q 1619 2006 1619 1863 
Q 1619 1441 1641 1255 
Q 1663 1069 1716 984 
Q 1784 875 1895 815 
Q 2006 756 2150 756 
Q 2500 756 2700 1025 
Q 2900 1294 2900 1772 
L 2900 3500 
L 4019 3500 
L 4019 0 
L 2900 0 
L 2900 506 
Q 2647 200 2364 54 
Q 2081 -91 1741 -91 
Q 1134 -91 817 281 
Q 500 653 500 1363 
z
" transform="scale(0.015625)"/>
      <path id="DejaVuSans-Bold-72" d="M 3138 2547 
Q 2991 2616 2845 2648 
Q 2700 2681 2553 2681 
Q 2122 2681 1889 2404 
Q 1656 2128 1656 1613 
L 1656 0 
L 538 0 
L 538 3500 
L 1656 3500 
L 1656 2925 
Q 1872 3269 2151 3426 
Q 2431 3584 2822 3584 
Q 2878 3584 2943 3579 
Q 3009 3575 3134 3559 
L 3138 2547 
z
" transform="scale(0.015625)"/>
     </defs>
     <use xlink:href="#DejaVuSans-Bold-43"/>
     <use xlink:href="#DejaVuSans-Bold-68" transform="translate(73.388672 0)"/>
     <use xlink:href="#DejaVuSans-Bold-65" transform="translate(144.580078 0)"/>
     <use xlink:href="#DejaVuSans-Bold-63" transform="translate(212.402344 0)"/>
     <use xlink:href="#DejaVuSans-Bold-6b" transform="translate(271.679688 0)"/>
     <use xlink:href="#DejaVuSans-Bold-20" transform="translate(338.183594 0)"/>
     <use xlink:href="#DejaVuSans-Bold-41" transform="translate(372.998047 0)"/>
     <use xlink:href="#DejaVuSans-Bold-75" transform="translate(450.390625 0)"/>
     <use xlink:href="#DejaVuSans-Bold-74" transform="translate(521.582031 0)"/>
     <use xlink:href="#DejaVuSans-Bold-68" transform="translate(569.384766 0)"/>
     <use xlink:href="#DejaVuSans-Bold-6f" transform="translate(640.576172 0)"/>
     <use xlink:href="#DejaVuSans-Bold-72" transform="translate(709.277344 0)"/>
     <use xlink:href="#DejaVuSans-Bold-69" transform="translate(758.59375 0)"/>
     <use xlink:href="#DejaVuSans-Bold-74" transform="translate(792.871094 0)"/>
     <use xlink:href="#DejaVuSans-Bold-79" transform="translate(840.673828 0)"/>
    </g>
   </g>
   <g id="text_5">
    <!-- Implement Fix -->
    <g style="fill: #14b8a6" transform="translate(237.719062 592.63125) scale(0.12 -0.12)">
     <defs>
      <path id="DejaVuSans-Bold-46" d="M 588 4666 
L 3834 4666 
L 3834 3756 
L 1791 3756 
L 1791 2888 
L 3713 2888 
L 3713 1978 
L 1791 1978 
L 1791 0 
L 588 0 
L 588 4666 
z
" transform="scale(0.015625)"/>
      <path id="DejaVuSans-Bold-78" d="M 1422 1791 
L 159 3500 
L 1344 3500 
L 2059 2463 
L 2784 3500 
L 3969 3500 
L 2706 1797 
L 4031 0 
L 2847 0 
L 2059 1106 
L 1281 0 
L 97 0 
L 1422 1791 
z
" transform="scale(0.015625)"/>
     </defs>
     <use xlink:href="#DejaVuSans-Bold-49"/>
     <use xlink:href="#DejaVuSans-Bold-6d" transform="translate(37.207031 0)"/>
     <use xlink:href="#DejaVuSans-Bold-70" transform="translate(141.40625 0)"/>
     <use xlink:href="#DejaVuSans-Bold-6c" transform="translate(212.988281 0)"/>
     <use xlink:href="#DejaVuSans-Bold-65" transform="translate(247.265625 0)"/>
     <use xlink:href="#DejaVuSans-Bold-6d" transform="translate(315.087891 0)"/>
     <use xlink:href="#DejaVuSans-Bold-65" transform="translate(419.287109 0)"/>
     <use xlink:href="#DejaVuSans-Bold-6e" transform="translate(487.109375 0)"/>
     <use xlink:href="#DejaVuSans-Bold-74" transform="translate(558.300781 0)"/>
     <use xlink:href="#DejaVuSans-Bold-20" transform="translate(606.103516 0)"/>
     <use xlink:href="#DejaVuSans-Bold-46" transform="translate(640.917969 0)"/>
     <use xlink:href="#DejaVuSans-Bold-69" transform="translate(709.228516 0)"/>
     <use xlink:href="#DejaVuSans-Bold-78" transform="translate(743.505859 0)"/>
    </g>
   </g>
  </g>
 </g>
 <defs>
  <clipPath id="p6de1a4eade">
   <rect x="7.2" y="7.2" width="558" height="665.28"/>
  </clipPath>
 </defs>
</svg>
