<?xml version="1.0" encoding="utf-8" standalone="no"?>
<!DOCTYPE svg PUBLIC "-//W3C//DTD SVG 1.1//EN"
  "http://www.w3.org/Graphics/SVG/1.1/DTD/svg11.dtd">
<svg xmlns:xlink="http://www.w3.org/1999/xlink" width="864pt" height="576pt" viewBox="0 0 864 576" xmlns="http://www.w3.org/2000/svg" version="1.1">
 <metadata>
  <rdf:RDF xmlns:dc="http://purl.org/dc/elements/1.1/" xmlns:cc="http://creativecommons.org/ns#" xmlns:rdf="http://www.w3.org/1999/02/22-rdf-syntax-ns#">
   <cc:Work>
    <dc:type rdf:resource="http://purl.org/dc/dcmitype/StillImage"/>
    <dc:date>2025-12-26T12:56:24.432520</dc:date>
    <dc:format>image/svg+xml</dc:format>
    <dc:creator>
     <cc:Agent>
      <dc:title>Matplotlib v3.10.8, https://matplotlib.org/</dc:title>
     </cc:Agent>
    </dc:creator>
   </cc:Work>
  </rdf:RDF>
 </metadata>
 <defs>
  <style type="text/css">*{stroke-linejoin: round; stroke-linecap: butt}</style>
 </defs>
 <g id="figure_1">
  <g id="patch_1">
   <path d="M 0 576 
L 864 576 
L 864 0 
L 0 0 
z
" style="fill: #f8f9fa"/>
  </g>
  <g id="axes_1">
   <g id="patch_2">
    <path d="M 156.259459 266.344451 
L 367.394595 266.344451 
Q 379.459459 266.344451 379.459459 256.943858 
L 379.459459 139.436439 
Q 379.459459 130.035846 367.394595 130.035846 
L 156.259459 130.035846 
Q 144.194595 130.035846 144.194595 139.436439 
L 144.194595 256.943858 
Q 144.194595 266.344451 156.259459 266.344451 
z
" clip-path="url(#pcb471d43cd)" style="fill: #2563eb; opacity: 0.2; stroke: #2563eb; stroke-width: 1.5; stroke-linejoin: miter"/>
   </g>
   <g id="patch_3">
    <path d="M 518.205405 266.344451 
L 729.340541 266.344451 
Q 741.405405 266.344451 741.405405 256.943858 
L 741.405405 139.436439 
Q 741.405405 130.035846 729.340541 130.035846 
L 518.205405 130.035846 
Q 506.140541 130.035846 506.140541 139.436439 
L 506.140541 256.943858 
Q 506.140541 266.344451 518.205405 266.344451 
z
" clip-path="url(#pcb471d43cd)" style="fill: #8b5cf6; opacity: 0.2; stroke: #8b5cf6; stroke-width: 1.5; stroke-linejoin: miter"/>
   </g>
   <g id="patch_4">
    <path d="M 156.259459 454.35632 
L 367.394595 454.35632 
Q 379.459459 454.35632 379.459459 444.955727 
L 379.459459 327.448309 
Q 379.459459 318.047715 367.394595 318.047715 
L 156.259459 318.047715 
Q 144.194595 318.047715 144.194595 327.448309 
L 144.194595 444.955727 
Q 144.194595 454.35632 156.259459 454.35632 
z
" clip-path="url(#pcb471d43cd)" style="fill: #f59e0b; opacity: 0.2; stroke: #f59e0b; stroke-width: 1.5; stroke-linejoin: miter"/>
   </g>
   <g id="patch_5">
    <path d="M 518.205405 454.35632 
L 729.340541 454.35632 
Q 741.405405 454.35632 741.405405 444.955727 
L 741.405405 327.448309 
Q 741.405405 318.047715 729.340541 318.047715 
L 518.205405 318.047715 
Q 506.140541 318.047715 506.140541 327.448309 
L 506.140541 444.955727 
Q 506.140541 454.35632 518.205405 454.35632 
z
" clip-path="url(#pcb471d43cd)" style="fill: #10b981; opacity: 0.2; stroke: #10b981; stroke-width: 1.5; stroke-linejoin: miter"/>
   </g>
   <g id="text_1">
    <!-- Informational -->
    <g style="fill: #2563eb" transform="translate(208.254058 113.023393) scale(0.14 -0.14)">
     <defs>
      <path id="DejaVuSans-Bold-49" d="M 588 4666 
L 1791 4666 
L 1791 0 
L 588 0 
L 588 4666 
z
" transform="scale(0.015625)"/>
      <path id="DejaVuSans-Bold-6e" d="M 4056 2131 
L 4056 0 
L 2931 0 
L 2931 347 
L 2931 1631 
Q 2931 2084 2911 2256 
Q 2891 2428 2841 2509 
Q 2775 2619 2662 2680 
Q 2550 2741 2406 2741 
Q 2056 2741 1856 2470 
Q 1656 2200 1656 1722 
L 1656 0 
L 538 0 
L 538 3500 
L 1656 3500 
L 1656 2988 
Q 1909 3294 2193 3439 
Q 2478 3584 2822 3584 
Q 3428 3584 3742 3212 
Q 4056 2841 4056 2131 
z
" transform="scale(0.015625)"/>
      <path id="DejaVuSans-Bold-66" d="M 2841 4863 
L 2841 4128 
L 2222 4128 
Q 1984 4128 1890 4042 
Q 1797 3956 1797 3744 
L 1797 3500 
L 2753 3500 
L 2753 2700 
L 1797 2700 
L 1797 0 
L 678 0 
L 678 2700 
L 122 2700 
L 122 3500 
L 678 3500 
L 678 3744 
Q 678 4316 997 4589 
Q 1316 4863 1984 4863 
L 2841 4863 
z
" transform="scale(0.015625)"/>
      <path id="DejaVuSans-Bold-6f" d="M 2203 2784 
Q 1831 2784 1636 2517 
Q 1441 2250 1441 1747 
Q 1441 1244 1636 976 
Q 1831 709 2203 709 
Q 2569 709 2762 976 
Q 2956 1244 2956 1747 
Q 2956 2250 2762 2517 
Q 2569 2784 2203 2784 
z
M 2203 3584 
Q 3106 3584 3614 3096 
Q 4122 2609 4122 1747 
Q 4122 884 3614 396 
Q 3106 -91 2203 -91 
Q 1297 -91 786 396 
Q 275 884 275 1747 
Q 275 2609 786 3096 
Q 1297 3584 2203 3584 
z
" transform="scale(0.015625)"/>
      <path id="DejaVuSans-Bold-72" d="M 3138 2547 
Q 2991 2616 2845 2648 
Q 2700 2681 2553 2681 
Q 2122 2681 1889 2404 
Q 1656 2128 1656 1613 
L 1656 0 
L 538 0 
L 538 3500 
L 1656 3500 
L 1656 2925 
Q 1872 3269 2151 3426 
Q 2431 3584 2822 3584 
Q 2878 3584 2943 3579 
Q 3009 3575 3134 3559 
L 3138 2547 
z
" transform="scale(0.015625)"/>
      <path id="DejaVuSans-Bold-6d" d="M 3781 2919 
Q 3994 3244 4286 3414 
Q 4578 3584 4928 3584 
Q 5531 3584 5847 3212 
Q 6163 2841 6163 2131 
L 6163 0 
L 5038 0 
L 5038 1825 
Q 5041 1866 5042 1909 
Q 5044 1953 5044 2034 
Q 5044 2406 4934 2573 
Q 4825 2741 4581 2741 
Q 4263 2741 4089 2478 
Q 3916 2216 3909 1719 
L 3909 0 
L 2784 0 
L 2784 1825 
Q 2784 2406 2684 2573 
Q 2584 2741 2328 2741 
Q 2006 2741 1831 2477 
Q 1656 2213 1656 1722 
L 1656 0 
L 531 0 
L 531 3500 
L 1656 3500 
L 1656 2988 
Q 1863 3284 2130 3434 
Q 2397 3584 2719 3584 
Q 3081 3584 3359 3409 
Q 3638 3234 3781 2919 
z
" transform="scale(0.015625)"/>
      <path id="DejaVuSans-Bold-61" d="M 2106 1575 
Q 1756 1575 1579 1456 
Q 1403 1338 1403 1106 
Q 1403 894 1545 773 
Q 1688 653 1941 653 
Q 2256 653 2472 879 
Q 2688 1106 2688 1447 
L 2688 1575 
L 2106 1575 
z
M 3816 1997 
L 3816 0 
L 2688 0 
L 2688 519 
Q 2463 200 2181 54 
Q 1900 -91 1497 -91 
Q 953 -91 614 226 
Q 275 544 275 1050 
Q 275 1666 698 1953 
Q 1122 2241 2028 2241 
L 2688 2241 
L 2688 2328 
Q 2688 2594 2478 2717 
Q 2269 2841 1825 2841 
Q 1466 2841 1156 2769 
Q 847 2697 581 2553 
L 581 3406 
Q 941 3494 1303 3539 
Q 1666 3584 2028 3584 
Q 2975 3584 3395 3211 
Q 3816 2838 3816 1997 
z
" transform="scale(0.015625)"/>
      <path id="DejaVuSans-Bold-74" d="M 1759 4494 
L 1759 3500 
L 2913 3500 
L 2913 2700 
L 1759 2700 
L 1759 1216 
Q 1759 972 1856 886 
Q 1953 800 2241 800 
L 2816 800 
L 2816 0 
L 1856 0 
Q 1194 0 917 276 
Q 641 553 641 1216 
L 641 2700 
L 84 2700 
L 84 3500 
L 641 3500 
L 641 4494 
L 1759 4494 
z
" transform="scale(0.015625)"/>
      <path id="DejaVuSans-Bold-69" d="M 538 3500 
L 1656 3500 
L 1656 0 
L 538 0 
L 538 3500 
z
M 538 4863 
L 1656 4863 
L 1656 3950 
L 538 3950 
L 538 4863 
z
" transform="scale(0.015625)"/>
      <path id="DejaVuSans-Bold-6c" d="M 538 4863 
L 1656 4863 
L 1656 0 
L 538 0 
L 538 4863 
z
" transform="scale(0.015625)"/>
     </defs>
     <use xlink:href="#DejaVuSans-Bold-49"/>
     <use xlink:href="#DejaVuSans-Bold-6e" transform="translate(37.207031 0)"/>
     <use xlink:href="#DejaVuSans-Bold-66" transform="translate(108.398438 0)"/>
     <use xlink:href="#DejaVuSans-Bold-6f" transform="translate(151.904297 0)"/>
     <use xlink:href="#DejaVuSans-Bold-72" transform="translate(220.605469 0)"/>
     <use xlink:href="#DejaVuSans-Bold-6d" transform="translate(269.921875 0)"/>
     <use xlink:href="#DejaVuSans-Bold-61" transform="translate(374.121094 0)"/>
     <use xlink:href="#DejaVuSans-Bold-74" transform="translate(441.601562 0)"/>
     <use xlink:href="#DejaVuSans-Bold-69" transform="translate(489.404297 0)"/>
     <use xlink:href="#DejaVuSans-Bold-6f" transform="translate(523.681641 0)"/>
     <use xlink:href="#DejaVuSans-Bold-6e" transform="translate(592.382812 0)"/>
     <use xlink:href="#DejaVuSans-Bold-61" transform="translate(663.574219 0)"/>
     <use xlink:href="#DejaVuSans-Bold-6c" transform="translate(731.054688 0)"/>
    </g>
   </g>
   <g id="text_2">
    <!-- Learn &amp; understand -->
    <g style="fill: #4b5563" transform="translate(211.983277 288.043779) scale(0.1 -0.1)">
     <defs>
      <path id="DejaVuSans-Oblique-4c" d="M 1075 4666 
L 1709 4666 
L 909 525 
L 3181 525 
L 3078 0 
L 172 0 
L 1075 4666 
z
" transform="scale(0.015625)"/>
      <path id="DejaVuSans-Oblique-65" d="M 3078 2063 
Q 3088 2113 3092 2166 
Q 3097 2219 3097 2272 
Q 3097 2653 2873 2875 
Q 2650 3097 2266 3097 
Q 1838 3097 1509 2826 
Q 1181 2556 1013 2059 
L 3078 2063 
z
M 3578 1613 
L 903 1613 
Q 884 1494 878 1425 
Q 872 1356 872 1306 
Q 872 872 1139 634 
Q 1406 397 1894 397 
Q 2269 397 2603 481 
Q 2938 566 3225 728 
L 3116 159 
Q 2806 34 2476 -28 
Q 2147 -91 1806 -91 
Q 1078 -91 686 257 
Q 294 606 294 1247 
Q 294 1794 489 2264 
Q 684 2734 1063 3103 
Q 1306 3334 1642 3459 
Q 1978 3584 2356 3584 
Q 2950 3584 3301 3228 
Q 3653 2872 3653 2272 
Q 3653 2128 3634 1964 
Q 3616 1800 3578 1613 
z
" transform="scale(0.015625)"/>
      <path id="DejaVuSans-Oblique-61" d="M 3438 1997 
L 3047 0 
L 2472 0 
L 2578 531 
Q 2325 219 2001 64 
Q 1678 -91 1281 -91 
Q 834 -91 548 182 
Q 263 456 263 884 
Q 263 1497 752 1853 
Q 1241 2209 2100 2209 
L 2900 2209 
L 2931 2363 
Q 2938 2388 2941 2417 
Q 2944 2447 2944 2509 
Q 2944 2788 2717 2942 
Q 2491 3097 2081 3097 
Q 1800 3097 1504 3025 
Q 1209 2953 897 2809 
L 997 3341 
Q 1322 3463 1633 3523 
Q 1944 3584 2234 3584 
Q 2853 3584 3176 3315 
Q 3500 3047 3500 2534 
Q 3500 2431 3484 2292 
Q 3469 2153 3438 1997 
z
M 2816 1759 
L 2241 1759 
Q 1534 1759 1195 1570 
Q 856 1381 856 984 
Q 856 709 1029 553 
Q 1203 397 1509 397 
Q 1978 397 2328 733 
Q 2678 1069 2791 1631 
L 2816 1759 
z
" transform="scale(0.015625)"/>
      <path id="DejaVuSans-Oblique-72" d="M 2853 2969 
Q 2766 3016 2653 3041 
Q 2541 3066 2413 3066 
Q 1953 3066 1609 2717 
Q 1266 2369 1153 1784 
L 800 0 
L 225 0 
L 909 3500 
L 1484 3500 
L 1375 2956 
Q 1603 3259 1920 3421 
Q 2238 3584 2597 3584 
Q 2691 3584 2781 3573 
Q 2872 3563 2963 3538 
L 2853 2969 
z
" transform="scale(0.015625)"/>
      <path id="DejaVuSans-Oblique-6e" d="M 3566 2113 
L 3156 0 
L 2578 0 
L 2988 2091 
Q 3016 2238 3031 2350 
Q 3047 2463 3047 2528 
Q 3047 2791 2881 2937 
Q 2716 3084 2419 3084 
Q 1956 3084 1622 2776 
Q 1288 2469 1184 1941 
L 800 0 
L 225 0 
L 903 3500 
L 1478 3500 
L 1363 2950 
Q 1603 3253 1940 3418 
Q 2278 3584 2650 3584 
Q 3113 3584 3367 3334 
Q 3622 3084 3622 2631 
Q 3622 2519 3608 2391 
Q 3594 2263 3566 2113 
z
" transform="scale(0.015625)"/>
      <path id="DejaVuSans-Oblique-20" transform="scale(0.015625)"/>
      <path id="DejaVuSans-Oblique-26" d="M 3022 813 
L 1691 2509 
Q 1313 2234 1117 1925 
Q 922 1616 922 1294 
Q 922 897 1189 656 
Q 1456 416 1900 416 
Q 2194 416 2480 517 
Q 2766 619 3022 813 
z
M 4709 2503 
Q 4569 2006 4339 1593 
Q 4109 1181 3788 844 
L 4441 0 
L 3653 0 
L 3322 434 
Q 2991 175 2609 42 
Q 2228 -91 1813 -91 
Q 1122 -91 711 250 
Q 300 591 300 1153 
Q 300 1634 589 2062 
Q 878 2491 1447 2853 
Q 1350 2997 1304 3145 
Q 1259 3294 1259 3463 
Q 1259 3675 1331 3865 
Q 1403 4056 1538 4213 
Q 1753 4469 2078 4609 
Q 2403 4750 2778 4750 
Q 3022 4750 3269 4694 
Q 3516 4638 3769 4525 
L 3659 3956 
Q 3425 4103 3192 4179 
Q 2959 4256 2741 4256 
Q 2353 4256 2111 4054 
Q 1869 3853 1869 3541 
Q 1869 3403 1928 3268 
Q 1988 3134 2203 2859 
L 3475 1234 
Q 3709 1481 3875 1801 
Q 4041 2122 4128 2503 
L 4709 2503 
z
" transform="scale(0.015625)"/>
      <path id="DejaVuSans-Oblique-75" d="M 428 1388 
L 838 3500 
L 1416 3500 
L 1006 1409 
Q 975 1256 961 1147 
Q 947 1038 947 966 
Q 947 700 1109 554 
Q 1272 409 1569 409 
Q 2031 409 2368 721 
Q 2706 1034 2809 1563 
L 3194 3500 
L 3769 3500 
L 3091 0 
L 2516 0 
L 2631 550 
Q 2388 244 2052 76 
Q 1716 -91 1338 -91 
Q 878 -91 622 161 
Q 366 413 366 863 
Q 366 956 381 1097 
Q 397 1238 428 1388 
z
" transform="scale(0.015625)"/>
      <path id="DejaVuSans-Oblique-64" d="M 2675 525 
Q 2444 222 2128 65 
Q 1813 -91 1428 -91 
Q 903 -91 598 267 
Q 294 625 294 1247 
Q 294 1766 478 2236 
Q 663 2706 1013 3078 
Q 1244 3325 1534 3454 
Q 1825 3584 2144 3584 
Q 2481 3584 2739 3421 
Q 2997 3259 3138 2956 
L 3513 4863 
L 4091 4863 
L 3144 0 
L 2566 0 
L 2675 525 
z
M 891 1350 
Q 891 897 1095 644 
Q 1300 391 1663 391 
Q 1931 391 2161 520 
Q 2391 650 2566 903 
Q 2750 1166 2856 1509 
Q 2963 1853 2963 2188 
Q 2963 2622 2758 2865 
Q 2553 3109 2194 3109 
Q 1922 3109 1687 2981 
Q 1453 2853 1288 2613 
Q 1106 2353 998 2009 
Q 891 1666 891 1350 
z
" transform="scale(0.015625)"/>
      <path id="DejaVuSans-Oblique-73" d="M 3200 3397 
L 3091 2853 
Q 2863 2978 2609 3040 
Q 2356 3103 2088 3103 
Q 1634 3103 1373 2948 
Q 1113 2794 1113 2528 
Q 1113 2219 1719 2053 
Q 1766 2041 1788 2034 
L 1972 1978 
Q 2547 1819 2739 1644 
Q 2931 1469 2931 1166 
Q 2931 609 2489 259 
Q 2047 -91 1331 -91 
Q 1053 -91 747 -37 
Q 441 16 72 128 
L 184 722 
Q 500 559 806 475 
Q 1113 391 1394 391 
Q 1816 391 2080 572 
Q 2344 753 2344 1031 
Q 2344 1331 1650 1516 
L 1591 1531 
L 1394 1581 
Q 956 1697 753 1886 
Q 550 2075 550 2369 
Q 550 2928 970 3256 
Q 1391 3584 2113 3584 
Q 2397 3584 2667 3537 
Q 2938 3491 3200 3397 
z
" transform="scale(0.015625)"/>
      <path id="DejaVuSans-Oblique-74" d="M 2706 3500 
L 2619 3053 
L 1472 3053 
L 1100 1153 
Q 1081 1047 1072 975 
Q 1063 903 1063 863 
Q 1063 663 1183 572 
Q 1303 481 1569 481 
L 2150 481 
L 2053 0 
L 1503 0 
Q 991 0 739 200 
Q 488 400 488 806 
Q 488 878 497 964 
Q 506 1050 525 1153 
L 897 3053 
L 409 3053 
L 500 3500 
L 978 3500 
L 1172 4494 
L 1747 4494 
L 1556 3500 
L 2706 3500 
z
" transform="scale(0.015625)"/>
     </defs>
     <use xlink:href="#DejaVuSans-Oblique-4c"/>
     <use xlink:href="#DejaVuSans-Oblique-65" transform="translate(55.712891 0)"/>
     <use xlink:href="#DejaVuSans-Oblique-61" transform="translate(117.236328 0)"/>
     <use xlink:href="#DejaVuSans-Oblique-72" transform="translate(178.515625 0)"/>
     <use xlink:href="#DejaVuSans-Oblique-6e" transform="translate(219.628906 0)"/>
     <use xlink:href="#DejaVuSans-Oblique-20" transform="translate(283.007812 0)"/>
     <use xlink:href="#DejaVuSans-Oblique-26" transform="translate(314.794922 0)"/>
     <use xlink:href="#DejaVuSans-Oblique-20" transform="translate(392.773438 0)"/>
     <use xlink:href="#DejaVuSans-Oblique-75" transform="translate(424.560547 0)"/>
     <use xlink:href="#DejaVuSans-Oblique-6e" transform="translate(487.939453 0)"/>
     <use xlink:href="#DejaVuSans-Oblique-64" transform="translate(551.318359 0)"/>
     <use xlink:href="#DejaVuSans-Oblique-65" transform="translate(614.794922 0)"/>
     <use xlink:href="#DejaVuSans-Oblique-72" transform="translate(676.318359 0)"/>
     <use xlink:href="#DejaVuSans-Oblique-73" transform="translate(717.431641 0)"/>
     <use xlink:href="#DejaVuSans-Oblique-74" transform="translate(769.53125 0)"/>
     <use xlink:href="#DejaVuSans-Oblique-61" transform="translate(808.740234 0)"/>
     <use xlink:href="#DejaVuSans-Oblique-6e" transform="translate(870.019531 0)"/>
     <use xlink:href="#DejaVuSans-Oblique-64" transform="translate(933.398438 0)"/>
    </g>
   </g>
   <g id="text_3">
    <!-- • how to optimize SEO -->
    <g style="fill: #1f2937" transform="translate(194.081402 188.064023) scale(0.12 -0.12)">
     <defs>
      <path id="DejaVuSans-2022" d="M 959 2381 
Q 959 2769 1229 3036 
Q 1500 3303 1894 3303 
Q 2281 3303 2548 3036 
Q 2816 2769 2816 2381 
Q 2816 1991 2547 1722 
Q 2278 1453 1888 1453 
Q 1497 1453 1228 1722 
Q 959 1991 959 2381 
z
" transform="scale(0.015625)"/>
      <path id="DejaVuSans-20" transform="scale(0.015625)"/>
      <path id="DejaVuSans-68" d="M 3513 2113 
L 3513 0 
L 2938 0 
L 2938 2094 
Q 2938 2591 2744 2837 
Q 2550 3084 2163 3084 
Q 1697 3084 1428 2787 
Q 1159 2491 1159 1978 
L 1159 0 
L 581 0 
L 581 4863 
L 1159 4863 
L 1159 2956 
Q 1366 3272 1645 3428 
Q 1925 3584 2291 3584 
Q 2894 3584 3203 3211 
Q 3513 2838 3513 2113 
z
" transform="scale(0.015625)"/>
      <path id="DejaVuSans-6f" d="M 1959 3097 
Q 1497 3097 1228 2736 
Q 959 2375 959 1747 
Q 959 1119 1226 758 
Q 1494 397 1959 397 
Q 2419 397 2687 759 
Q 2956 1122 2956 1747 
Q 2956 2369 2687 2733 
Q 2419 3097 1959 3097 
z
M 1959 3584 
Q 2709 3584 3137 3096 
Q 3566 2609 3566 1747 
Q 3566 888 3137 398 
Q 2709 -91 1959 -91 
Q 1206 -91 779 398 
Q 353 888 353 1747 
Q 353 2609 779 3096 
Q 1206 3584 1959 3584 
z
" transform="scale(0.015625)"/>
      <path id="DejaVuSans-77" d="M 269 3500 
L 844 3500 
L 1563 769 
L 2278 3500 
L 2956 3500 
L 3675 769 
L 4391 3500 
L 4966 3500 
L 4050 0 
L 3372 0 
L 2619 2869 
L 1863 0 
L 1184 0 
L 269 3500 
z
" transform="scale(0.015625)"/>
      <path id="DejaVuSans-74" d="M 1172 4494 
L 1172 3500 
L 2356 3500 
L 2356 3053 
L 1172 3053 
L 1172 1153 
Q 1172 725 1289 603 
Q 1406 481 1766 481 
L 2356 481 
L 2356 0 
L 1766 0 
Q 1100 0 847 248 
Q 594 497 594 1153 
L 594 3053 
L 172 3053 
L 172 3500 
L 594 3500 
L 594 4494 
L 1172 4494 
z
" transform="scale(0.015625)"/>
      <path id="DejaVuSans-70" d="M 1159 525 
L 1159 -1331 
L 581 -1331 
L 581 3500 
L 1159 3500 
L 1159 2969 
Q 1341 3281 1617 3432 
Q 1894 3584 2278 3584 
Q 2916 3584 3314 3078 
Q 3713 2572 3713 1747 
Q 3713 922 3314 415 
Q 2916 -91 2278 -91 
Q 1894 -91 1617 61 
Q 1341 213 1159 525 
z
M 3116 1747 
Q 3116 2381 2855 2742 
Q 2594 3103 2138 3103 
Q 1681 3103 1420 2742 
Q 1159 2381 1159 1747 
Q 1159 1113 1420 752 
Q 1681 391 2138 391 
Q 2594 391 2855 752 
Q 3116 1113 3116 1747 
z
" transform="scale(0.015625)"/>
      <path id="DejaVuSans-69" d="M 603 3500 
L 1178 3500 
L 1178 0 
L 603 0 
L 603 3500 
z
M 603 4863 
L 1178 4863 
L 1178 4134 
L 603 4134 
L 603 4863 
z
" transform="scale(0.015625)"/>
      <path id="DejaVuSans-6d" d="M 3328 2828 
Q 3544 3216 3844 3400 
Q 4144 3584 4550 3584 
Q 5097 3584 5394 3201 
Q 5691 2819 5691 2113 
L 5691 0 
L 5113 0 
L 5113 2094 
Q 5113 2597 4934 2840 
Q 4756 3084 4391 3084 
Q 3944 3084 3684 2787 
Q 3425 2491 3425 1978 
L 3425 0 
L 2847 0 
L 2847 2094 
Q 2847 2600 2669 2842 
Q 2491 3084 2119 3084 
Q 1678 3084 1418 2786 
Q 1159 2488 1159 1978 
L 1159 0 
L 581 0 
L 581 3500 
L 1159 3500 
L 1159 2956 
Q 1356 3278 1631 3431 
Q 1906 3584 2284 3584 
Q 2666 3584 2933 3390 
Q 3200 3197 3328 2828 
z
" transform="scale(0.015625)"/>
      <path id="DejaVuSans-7a" d="M 353 3500 
L 3084 3500 
L 3084 2975 
L 922 459 
L 3084 459 
L 3084 0 
L 275 0 
L 275 525 
L 2438 3041 
L 353 3041 
L 353 3500 
z
" transform="scale(0.015625)"/>
      <path id="DejaVuSans-65" d="M 3597 1894 
L 3597 1613 
L 953 1613 
Q 991 1019 1311 708 
Q 1631 397 2203 397 
Q 2534 397 2845 478 
Q 3156 559 3463 722 
L 3463 178 
Q 3153 47 2828 -22 
Q 2503 -91 2169 -91 
Q 1331 -91 842 396 
Q 353 884 353 1716 
Q 353 2575 817 3079 
Q 1281 3584 2069 3584 
Q 2775 3584 3186 3129 
Q 3597 2675 3597 1894 
z
M 3022 2063 
Q 3016 2534 2758 2815 
Q 2500 3097 2075 3097 
Q 1594 3097 1305 2825 
Q 1016 2553 972 2059 
L 3022 2063 
z
" transform="scale(0.015625)"/>
      <path id="DejaVuSans-53" d="M 3425 4513 
L 3425 3897 
Q 3066 4069 2747 4153 
Q 2428 4238 2131 4238 
Q 1616 4238 1336 4038 
Q 1056 3838 1056 3469 
Q 1056 3159 1242 3001 
Q 1428 2844 1947 2747 
L 2328 2669 
Q 3034 2534 3370 2195 
Q 3706 1856 3706 1288 
Q 3706 609 3251 259 
Q 2797 -91 1919 -91 
Q 1588 -91 1214 -16 
Q 841 59 441 206 
L 441 856 
Q 825 641 1194 531 
Q 1563 422 1919 422 
Q 2459 422 2753 634 
Q 3047 847 3047 1241 
Q 3047 1584 2836 1778 
Q 2625 1972 2144 2069 
L 1759 2144 
Q 1053 2284 737 2584 
Q 422 2884 422 3419 
Q 422 4038 858 4394 
Q 1294 4750 2059 4750 
Q 2388 4750 2728 4690 
Q 3069 4631 3425 4513 
z
" transform="scale(0.015625)"/>
      <path id="DejaVuSans-45" d="M 628 4666 
L 3578 4666 
L 3578 4134 
L 1259 4134 
L 1259 2753 
L 3481 2753 
L 3481 2222 
L 1259 2222 
L 1259 531 
L 3634 531 
L 3634 0 
L 628 0 
L 628 4666 
z
" transform="scale(0.015625)"/>
      <path id="DejaVuSans-4f" d="M 2522 4238 
Q 1834 4238 1429 3725 
Q 1025 3213 1025 2328 
Q 1025 1447 1429 934 
Q 1834 422 2522 422 
Q 3209 422 3611 934 
Q 4013 1447 4013 2328 
Q 4013 3213 3611 3725 
Q 3209 4238 2522 4238 
z
M 2522 4750 
Q 3503 4750 4090 4092 
Q 4678 3434 4678 2328 
Q 4678 1225 4090 567 
Q 3503 -91 2522 -91 
Q 1538 -91 948 565 
Q 359 1222 359 2328 
Q 359 3434 948 4092 
Q 1538 4750 2522 4750 
z
" transform="scale(0.015625)"/>
     </defs>
     <use xlink:href="#DejaVuSans-2022"/>
     <use xlink:href="#DejaVuSans-20" transform="translate(58.984375 0)"/>
     <use xlink:href="#DejaVuSans-68" transform="translate(90.771484 0)"/>
     <use xlink:href="#DejaVuSans-6f" transform="translate(154.150391 0)"/>
     <use xlink:href="#DejaVuSans-77" transform="translate(215.332031 0)"/>
     <use xlink:href="#DejaVuSans-20" transform="translate(297.119141 0)"/>
     <use xlink:href="#DejaVuSans-74" transform="translate(328.90625 0)"/>
     <use xlink:href="#DejaVuSans-6f" transform="translate(368.115234 0)"/>
     <use xlink:href="#DejaVuSans-20" transform="translate(429.296875 0)"/>
     <use xlink:href="#DejaVuSans-6f" transform="translate(461.083984 0)"/>
     <use xlink:href="#DejaVuSans-70" transform="translate(522.265625 0)"/>
     <use xlink:href="#DejaVuSans-74" transform="translate(585.742188 0)"/>
     <use xlink:href="#DejaVuSans-69" transform="translate(624.951172 0)"/>
     <use xlink:href="#DejaVuSans-6d" transform="translate(652.734375 0)"/>
     <use xlink:href="#DejaVuSans-69" transform="translate(750.146484 0)"/>
     <use xlink:href="#DejaVuSans-7a" transform="translate(777.929688 0)"/>
     <use xlink:href="#DejaVuSans-65" transform="translate(830.419922 0)"/>
     <use xlink:href="#DejaVuSans-20" transform="translate(891.943359 0)"/>
     <use xlink:href="#DejaVuSans-53" transform="translate(923.730469 0)"/>
     <use xlink:href="#DejaVuSans-45" transform="translate(987.207031 0)"/>
     <use xlink:href="#DejaVuSans-4f" transform="translate(1050.390625 0)"/>
    </g>
    <!-- • what is search intent -->
    <g style="fill: #1f2937" transform="translate(193.533902 201.501398) scale(0.12 -0.12)">
     <defs>
      <path id="DejaVuSans-61" d="M 2194 1759 
Q 1497 1759 1228 1600 
Q 959 1441 959 1056 
Q 959 750 1161 570 
Q 1363 391 1709 391 
Q 2188 391 2477 730 
Q 2766 1069 2766 1631 
L 2766 1759 
L 2194 1759 
z
M 3341 1997 
L 3341 0 
L 2766 0 
L 2766 531 
Q 2569 213 2275 61 
Q 1981 -91 1556 -91 
Q 1019 -91 701 211 
Q 384 513 384 1019 
Q 384 1609 779 1909 
Q 1175 2209 1959 2209 
L 2766 2209 
L 2766 2266 
Q 2766 2663 2505 2880 
Q 2244 3097 1772 3097 
Q 1472 3097 1187 3025 
Q 903 2953 641 2809 
L 641 3341 
Q 956 3463 1253 3523 
Q 1550 3584 1831 3584 
Q 2591 3584 2966 3190 
Q 3341 2797 3341 1997 
z
" transform="scale(0.015625)"/>
      <path id="DejaVuSans-73" d="M 2834 3397 
L 2834 2853 
Q 2591 2978 2328 3040 
Q 2066 3103 1784 3103 
Q 1356 3103 1142 2972 
Q 928 2841 928 2578 
Q 928 2378 1081 2264 
Q 1234 2150 1697 2047 
L 1894 2003 
Q 2506 1872 2764 1633 
Q 3022 1394 3022 966 
Q 3022 478 2636 193 
Q 2250 -91 1575 -91 
Q 1294 -91 989 -36 
Q 684 19 347 128 
L 347 722 
Q 666 556 975 473 
Q 1284 391 1588 391 
Q 1994 391 2212 530 
Q 2431 669 2431 922 
Q 2431 1156 2273 1281 
Q 2116 1406 1581 1522 
L 1381 1569 
Q 847 1681 609 1914 
Q 372 2147 372 2553 
Q 372 3047 722 3315 
Q 1072 3584 1716 3584 
Q 2034 3584 2315 3537 
Q 2597 3491 2834 3397 
z
" transform="scale(0.015625)"/>
      <path id="DejaVuSans-72" d="M 2631 2963 
Q 2534 3019 2420 3045 
Q 2306 3072 2169 3072 
Q 1681 3072 1420 2755 
Q 1159 2438 1159 1844 
L 1159 0 
L 581 0 
L 581 3500 
L 1159 3500 
L 1159 2956 
Q 1341 3275 1631 3429 
Q 1922 3584 2338 3584 
Q 2397 3584 2469 3576 
Q 2541 3569 2628 3553 
L 2631 2963 
z
" transform="scale(0.015625)"/>
      <path id="DejaVuSans-63" d="M 3122 3366 
L 3122 2828 
Q 2878 2963 2633 3030 
Q 2388 3097 2138 3097 
Q 1578 3097 1268 2742 
Q 959 2388 959 1747 
Q 959 1106 1268 751 
Q 1578 397 2138 397 
Q 2388 397 2633 464 
Q 2878 531 3122 666 
L 3122 134 
Q 2881 22 2623 -34 
Q 2366 -91 2075 -91 
Q 1284 -91 818 406 
Q 353 903 353 1747 
Q 353 2603 823 3093 
Q 1294 3584 2113 3584 
Q 2378 3584 2631 3529 
Q 2884 3475 3122 3366 
z
" transform="scale(0.015625)"/>
      <path id="DejaVuSans-6e" d="M 3513 2113 
L 3513 0 
L 2938 0 
L 2938 2094 
Q 2938 2591 2744 2837 
Q 2550 3084 2163 3084 
Q 1697 3084 1428 2787 
Q 1159 2491 1159 1978 
L 1159 0 
L 581 0 
L 581 3500 
L 1159 3500 
L 1159 2956 
Q 1366 3272 1645 3428 
Q 1925 3584 2291 3584 
Q 2894 3584 3203 3211 
Q 3513 2838 3513 2113 
z
" transform="scale(0.015625)"/>
     </defs>
     <use xlink:href="#DejaVuSans-2022"/>
     <use xlink:href="#DejaVuSans-20" transform="translate(58.984375 0)"/>
     <use xlink:href="#DejaVuSans-77" transform="translate(90.771484 0)"/>
     <use xlink:href="#DejaVuSans-68" transform="translate(172.558594 0)"/>
     <use xlink:href="#DejaVuSans-61" transform="translate(235.9375 0)"/>
     <use xlink:href="#DejaVuSans-74" transform="translate(297.216797 0)"/>
     <use xlink:href="#DejaVuSans-20" transform="translate(336.425781 0)"/>
     <use xlink:href="#DejaVuSans-69" transform="translate(368.212891 0)"/>
     <use xlink:href="#DejaVuSans-73" transform="translate(395.996094 0)"/>
     <use xlink:href="#DejaVuSans-20" transform="translate(448.095703 0)"/>
     <use xlink:href="#DejaVuSans-73" transform="translate(479.882812 0)"/>
     <use xlink:href="#DejaVuSans-65" transform="translate(531.982422 0)"/>
     <use xlink:href="#DejaVuSans-61" transform="translate(593.505859 0)"/>
     <use xlink:href="#DejaVuSans-72" transform="translate(654.785156 0)"/>
     <use xlink:href="#DejaVuSans-63" transform="translate(693.648438 0)"/>
     <use xlink:href="#DejaVuSans-68" transform="translate(748.628906 0)"/>
     <use xlink:href="#DejaVuSans-20" transform="translate(812.007812 0)"/>
     <use xlink:href="#DejaVuSans-69" transform="translate(843.794922 0)"/>
     <use xlink:href="#DejaVuSans-6e" transform="translate(871.578125 0)"/>
     <use xlink:href="#DejaVuSans-74" transform="translate(934.957031 0)"/>
     <use xlink:href="#DejaVuSans-65" transform="translate(974.166016 0)"/>
     <use xlink:href="#DejaVuSans-6e" transform="translate(1035.689453 0)"/>
     <use xlink:href="#DejaVuSans-74" transform="translate(1099.068359 0)"/>
    </g>
    <!-- • why do rankings change -->
    <g style="fill: #1f2937" transform="translate(183.013277 214.938773) scale(0.12 -0.12)">
     <defs>
      <path id="DejaVuSans-79" d="M 2059 -325 
Q 1816 -950 1584 -1140 
Q 1353 -1331 966 -1331 
L 506 -1331 
L 506 -850 
L 844 -850 
Q 1081 -850 1212 -737 
Q 1344 -625 1503 -206 
L 1606 56 
L 191 3500 
L 800 3500 
L 1894 763 
L 2988 3500 
L 3597 3500 
L 2059 -325 
z
" transform="scale(0.015625)"/>
      <path id="DejaVuSans-64" d="M 2906 2969 
L 2906 4863 
L 3481 4863 
L 3481 0 
L 2906 0 
L 2906 525 
Q 2725 213 2448 61 
Q 2172 -91 1784 -91 
Q 1150 -91 751 415 
Q 353 922 353 1747 
Q 353 2572 751 3078 
Q 1150 3584 1784 3584 
Q 2172 3584 2448 3432 
Q 2725 3281 2906 2969 
z
M 947 1747 
Q 947 1113 1208 752 
Q 1469 391 1925 391 
Q 2381 391 2643 752 
Q 2906 1113 2906 1747 
Q 2906 2381 2643 2742 
Q 2381 3103 1925 3103 
Q 1469 3103 1208 2742 
Q 947 2381 947 1747 
z
" transform="scale(0.015625)"/>
      <path id="DejaVuSans-6b" d="M 581 4863 
L 1159 4863 
L 1159 1991 
L 2875 3500 
L 3609 3500 
L 1753 1863 
L 3688 0 
L 2938 0 
L 1159 1709 
L 1159 0 
L 581 0 
L 581 4863 
z
" transform="scale(0.015625)"/>
      <path id="DejaVuSans-67" d="M 2906 1791 
Q 2906 2416 2648 2759 
Q 2391 3103 1925 3103 
Q 1463 3103 1205 2759 
Q 947 2416 947 1791 
Q 947 1169 1205 825 
Q 1463 481 1925 481 
Q 2391 481 2648 825 
Q 2906 1169 2906 1791 
z
M 3481 434 
Q 3481 -459 3084 -895 
Q 2688 -1331 1869 -1331 
Q 1566 -1331 1297 -1286 
Q 1028 -1241 775 -1147 
L 775 -588 
Q 1028 -725 1275 -790 
Q 1522 -856 1778 -856 
Q 2344 -856 2625 -561 
Q 2906 -266 2906 331 
L 2906 616 
Q 2728 306 2450 153 
Q 2172 0 1784 0 
Q 1141 0 747 490 
Q 353 981 353 1791 
Q 353 2603 747 3093 
Q 1141 3584 1784 3584 
Q 2172 3584 2450 3431 
Q 2728 3278 2906 2969 
L 2906 3500 
L 3481 3500 
L 3481 434 
z
" transform="scale(0.015625)"/>
     </defs>
     <use xlink:href="#DejaVuSans-2022"/>
     <use xlink:href="#DejaVuSans-20" transform="translate(58.984375 0)"/>
     <use xlink:href="#DejaVuSans-77" transform="translate(90.771484 0)"/>
     <use xlink:href="#DejaVuSans-68" transform="translate(172.558594 0)"/>
     <use xlink:href="#DejaVuSans-79" transform="translate(235.9375 0)"/>
     <use xlink:href="#DejaVuSans-20" transform="translate(295.117188 0)"/>
     <use xlink:href="#DejaVuSans-64" transform="translate(326.904297 0)"/>
     <use xlink:href="#DejaVuSans-6f" transform="translate(390.380859 0)"/>
     <use xlink:href="#DejaVuSans-20" transform="translate(451.5625 0)"/>
     <use xlink:href="#DejaVuSans-72" transform="translate(483.349609 0)"/>
     <use xlink:href="#DejaVuSans-61" transform="translate(524.462891 0)"/>
     <use xlink:href="#DejaVuSans-6e" transform="translate(585.742188 0)"/>
     <use xlink:href="#DejaVuSans-6b" transform="translate(649.121094 0)"/>
     <use xlink:href="#DejaVuSans-69" transform="translate(707.03125 0)"/>
     <use xlink:href="#DejaVuSans-6e" transform="translate(734.814453 0)"/>
     <use xlink:href="#DejaVuSans-67" transform="translate(798.193359 0)"/>
     <use xlink:href="#DejaVuSans-73" transform="translate(861.669922 0)"/>
     <use xlink:href="#DejaVuSans-20" transform="translate(913.769531 0)"/>
     <use xlink:href="#DejaVuSans-63" transform="translate(945.556641 0)"/>
     <use xlink:href="#DejaVuSans-68" transform="translate(1000.537109 0)"/>
     <use xlink:href="#DejaVuSans-61" transform="translate(1063.916016 0)"/>
     <use xlink:href="#DejaVuSans-6e" transform="translate(1125.195312 0)"/>
     <use xlink:href="#DejaVuSans-67" transform="translate(1188.574219 0)"/>
     <use xlink:href="#DejaVuSans-65" transform="translate(1252.050781 0)"/>
    </g>
   </g>
   <g id="text_4">
    <!-- Navigational -->
    <g style="fill: #8b5cf6" transform="translate(573.832348 112.914018) scale(0.14 -0.14)">
     <defs>
      <path id="DejaVuSans-Bold-4e" d="M 588 4666 
L 1931 4666 
L 3628 1466 
L 3628 4666 
L 4769 4666 
L 4769 0 
L 3425 0 
L 1728 3200 
L 1728 0 
L 588 0 
L 588 4666 
z
" transform="scale(0.015625)"/>
      <path id="DejaVuSans-Bold-76" d="M 97 3500 
L 1216 3500 
L 2088 1081 
L 2956 3500 
L 4078 3500 
L 2700 0 
L 1472 0 
L 97 3500 
z
" transform="scale(0.015625)"/>
      <path id="DejaVuSans-Bold-67" d="M 2919 594 
Q 2688 288 2409 144 
Q 2131 0 1766 0 
Q 1125 0 706 504 
Q 288 1009 288 1791 
Q 288 2575 706 3076 
Q 1125 3578 1766 3578 
Q 2131 3578 2409 3434 
Q 2688 3291 2919 2981 
L 2919 3500 
L 4044 3500 
L 4044 353 
Q 4044 -491 3511 -936 
Q 2978 -1381 1966 -1381 
Q 1638 -1381 1331 -1331 
Q 1025 -1281 716 -1178 
L 716 -306 
Q 1009 -475 1290 -558 
Q 1572 -641 1856 -641 
Q 2406 -641 2662 -400 
Q 2919 -159 2919 353 
L 2919 594 
z
M 2181 2772 
Q 1834 2772 1640 2515 
Q 1447 2259 1447 1791 
Q 1447 1309 1634 1061 
Q 1822 813 2181 813 
Q 2531 813 2725 1069 
Q 2919 1325 2919 1791 
Q 2919 2259 2725 2515 
Q 2531 2772 2181 2772 
z
" transform="scale(0.015625)"/>
     </defs>
     <use xlink:href="#DejaVuSans-Bold-4e"/>
     <use xlink:href="#DejaVuSans-Bold-61" transform="translate(83.691406 0)"/>
     <use xlink:href="#DejaVuSans-Bold-76" transform="translate(151.171875 0)"/>
     <use xlink:href="#DejaVuSans-Bold-69" transform="translate(216.357422 0)"/>
     <use xlink:href="#DejaVuSans-Bold-67" transform="translate(250.634766 0)"/>
     <use xlink:href="#DejaVuSans-Bold-61" transform="translate(322.216797 0)"/>
     <use xlink:href="#DejaVuSans-Bold-74" transform="translate(389.697266 0)"/>
     <use xlink:href="#DejaVuSans-Bold-69" transform="translate(437.5 0)"/>
     <use xlink:href="#DejaVuSans-Bold-6f" transform="translate(471.777344 0)"/>
     <use xlink:href="#DejaVuSans-Bold-6e" transform="translate(540.478516 0)"/>
     <use xlink:href="#DejaVuSans-Bold-61" transform="translate(611.669922 0)"/>
     <use xlink:href="#DejaVuSans-Bold-6c" transform="translate(679.150391 0)"/>
    </g>
   </g>
   <g id="text_5">
    <!-- Find specific site -->
    <g style="fill: #4b5563" transform="translate(582.064379 288.043779) scale(0.1 -0.1)">
     <defs>
      <path id="DejaVuSans-Oblique-46" d="M 1081 4666 
L 3756 4666 
L 3653 4134 
L 1606 4134 
L 1338 2759 
L 3188 2759 
L 3084 2228 
L 1234 2228 
L 800 0 
L 172 0 
L 1081 4666 
z
" transform="scale(0.015625)"/>
      <path id="DejaVuSans-Oblique-69" d="M 1172 4863 
L 1747 4863 
L 1606 4134 
L 1031 4134 
L 1172 4863 
z
M 909 3500 
L 1484 3500 
L 800 0 
L 225 0 
L 909 3500 
z
" transform="scale(0.015625)"/>
      <path id="DejaVuSans-Oblique-70" d="M 3175 2156 
Q 3175 2616 2975 2859 
Q 2775 3103 2400 3103 
Q 2144 3103 1911 2972 
Q 1678 2841 1497 2591 
Q 1319 2344 1212 1994 
Q 1106 1644 1106 1300 
Q 1106 863 1306 627 
Q 1506 391 1875 391 
Q 2147 391 2380 519 
Q 2613 647 2778 891 
Q 2956 1147 3065 1494 
Q 3175 1841 3175 2156 
z
M 1394 2969 
Q 1625 3272 1939 3428 
Q 2253 3584 2638 3584 
Q 3175 3584 3472 3232 
Q 3769 2881 3769 2247 
Q 3769 1728 3584 1258 
Q 3400 788 3053 416 
Q 2822 169 2531 39 
Q 2241 -91 1919 -91 
Q 1547 -91 1294 64 
Q 1041 219 916 525 
L 556 -1331 
L -19 -1331 
L 922 3500 
L 1497 3500 
L 1394 2969 
z
" transform="scale(0.015625)"/>
      <path id="DejaVuSans-Oblique-63" d="M 3431 3366 
L 3316 2797 
Q 3109 2947 2876 3022 
Q 2644 3097 2394 3097 
Q 2119 3097 1870 3000 
Q 1622 2903 1453 2725 
Q 1184 2453 1037 2087 
Q 891 1722 891 1331 
Q 891 859 1127 628 
Q 1363 397 1844 397 
Q 2081 397 2348 469 
Q 2616 541 2906 684 
L 2797 116 
Q 2547 13 2283 -39 
Q 2019 -91 1741 -91 
Q 1044 -91 669 257 
Q 294 606 294 1253 
Q 294 1797 489 2255 
Q 684 2713 1069 3078 
Q 1331 3328 1684 3456 
Q 2038 3584 2456 3584 
Q 2700 3584 2940 3529 
Q 3181 3475 3431 3366 
z
" transform="scale(0.015625)"/>
      <path id="DejaVuSans-Oblique-66" d="M 3059 4863 
L 2969 4384 
L 2419 4384 
Q 2106 4384 1964 4261 
Q 1822 4138 1753 3809 
L 1691 3500 
L 2638 3500 
L 2553 3053 
L 1606 3053 
L 1013 0 
L 434 0 
L 1031 3053 
L 481 3053 
L 563 3500 
L 1113 3500 
L 1159 3744 
Q 1278 4363 1576 4613 
Q 1875 4863 2516 4863 
L 3059 4863 
z
" transform="scale(0.015625)"/>
     </defs>
     <use xlink:href="#DejaVuSans-Oblique-46"/>
     <use xlink:href="#DejaVuSans-Oblique-69" transform="translate(57.519531 0)"/>
     <use xlink:href="#DejaVuSans-Oblique-6e" transform="translate(85.302734 0)"/>
     <use xlink:href="#DejaVuSans-Oblique-64" transform="translate(148.681641 0)"/>
     <use xlink:href="#DejaVuSans-Oblique-20" transform="translate(212.158203 0)"/>
     <use xlink:href="#DejaVuSans-Oblique-73" transform="translate(243.945312 0)"/>
     <use xlink:href="#DejaVuSans-Oblique-70" transform="translate(296.044922 0)"/>
     <use xlink:href="#DejaVuSans-Oblique-65" transform="translate(359.521484 0)"/>
     <use xlink:href="#DejaVuSans-Oblique-63" transform="translate(421.044922 0)"/>
     <use xlink:href="#DejaVuSans-Oblique-69" transform="translate(476.025391 0)"/>
     <use xlink:href="#DejaVuSans-Oblique-66" transform="translate(503.808594 0)"/>
     <use xlink:href="#DejaVuSans-Oblique-69" transform="translate(539.013672 0)"/>
     <use xlink:href="#DejaVuSans-Oblique-63" transform="translate(566.796875 0)"/>
     <use xlink:href="#DejaVuSans-Oblique-20" transform="translate(621.777344 0)"/>
     <use xlink:href="#DejaVuSans-Oblique-73" transform="translate(653.564453 0)"/>
     <use xlink:href="#DejaVuSans-Oblique-69" transform="translate(705.664062 0)"/>
     <use xlink:href="#DejaVuSans-Oblique-74" transform="translate(733.447266 0)"/>
     <use xlink:href="#DejaVuSans-Oblique-65" transform="translate(772.65625 0)"/>
    </g>
   </g>
   <g id="text_6">
    <!-- • facebook login -->
    <g style="fill: #1f2937" transform="translate(574.39766 188.064023) scale(0.12 -0.12)">
     <defs>
      <path id="DejaVuSans-66" d="M 2375 4863 
L 2375 4384 
L 1825 4384 
Q 1516 4384 1395 4259 
Q 1275 4134 1275 3809 
L 1275 3500 
L 2222 3500 
L 2222 3053 
L 1275 3053 
L 1275 0 
L 697 0 
L 697 3053 
L 147 3053 
L 147 3500 
L 697 3500 
L 697 3744 
Q 697 4328 969 4595 
Q 1241 4863 1831 4863 
L 2375 4863 
z
" transform="scale(0.015625)"/>
      <path id="DejaVuSans-62" d="M 3116 1747 
Q 3116 2381 2855 2742 
Q 2594 3103 2138 3103 
Q 1681 3103 1420 2742 
Q 1159 2381 1159 1747 
Q 1159 1113 1420 752 
Q 1681 391 2138 391 
Q 2594 391 2855 752 
Q 3116 1113 3116 1747 
z
M 1159 2969 
Q 1341 3281 1617 3432 
Q 1894 3584 2278 3584 
Q 2916 3584 3314 3078 
Q 3713 2572 3713 1747 
Q 3713 922 3314 415 
Q 2916 -91 2278 -91 
Q 1894 -91 1617 61 
Q 1341 213 1159 525 
L 1159 0 
L 581 0 
L 581 4863 
L 1159 4863 
L 1159 2969 
z
" transform="scale(0.015625)"/>
      <path id="DejaVuSans-6c" d="M 603 4863 
L 1178 4863 
L 1178 0 
L 603 0 
L 603 4863 
z
" transform="scale(0.015625)"/>
     </defs>
     <use xlink:href="#DejaVuSans-2022"/>
     <use xlink:href="#DejaVuSans-20" transform="translate(58.984375 0)"/>
     <use xlink:href="#DejaVuSans-66" transform="translate(90.771484 0)"/>
     <use xlink:href="#DejaVuSans-61" transform="translate(125.976562 0)"/>
     <use xlink:href="#DejaVuSans-63" transform="translate(187.255859 0)"/>
     <use xlink:href="#DejaVuSans-65" transform="translate(242.236328 0)"/>
     <use xlink:href="#DejaVuSans-62" transform="translate(303.759766 0)"/>
     <use xlink:href="#DejaVuSans-6f" transform="translate(367.236328 0)"/>
     <use xlink:href="#DejaVuSans-6f" transform="translate(428.417969 0)"/>
     <use xlink:href="#DejaVuSans-6b" transform="translate(489.599609 0)"/>
     <use xlink:href="#DejaVuSans-20" transform="translate(547.509766 0)"/>
     <use xlink:href="#DejaVuSans-6c" transform="translate(579.296875 0)"/>
     <use xlink:href="#DejaVuSans-6f" transform="translate(607.080078 0)"/>
     <use xlink:href="#DejaVuSans-67" transform="translate(668.261719 0)"/>
     <use xlink:href="#DejaVuSans-69" transform="translate(731.738281 0)"/>
     <use xlink:href="#DejaVuSans-6e" transform="translate(759.521484 0)"/>
    </g>
    <!-- • youtube -->
    <g style="fill: #1f2937" transform="translate(593.64641 201.501398) scale(0.12 -0.12)">
     <defs>
      <path id="DejaVuSans-75" d="M 544 1381 
L 544 3500 
L 1119 3500 
L 1119 1403 
Q 1119 906 1312 657 
Q 1506 409 1894 409 
Q 2359 409 2629 706 
Q 2900 1003 2900 1516 
L 2900 3500 
L 3475 3500 
L 3475 0 
L 2900 0 
L 2900 538 
Q 2691 219 2414 64 
Q 2138 -91 1772 -91 
Q 1169 -91 856 284 
Q 544 659 544 1381 
z
M 1991 3584 
L 1991 3584 
z
" transform="scale(0.015625)"/>
     </defs>
     <use xlink:href="#DejaVuSans-2022"/>
     <use xlink:href="#DejaVuSans-20" transform="translate(58.984375 0)"/>
     <use xlink:href="#DejaVuSans-79" transform="translate(90.771484 0)"/>
     <use xlink:href="#DejaVuSans-6f" transform="translate(149.951172 0)"/>
     <use xlink:href="#DejaVuSans-75" transform="translate(211.132812 0)"/>
     <use xlink:href="#DejaVuSans-74" transform="translate(274.511719 0)"/>
     <use xlink:href="#DejaVuSans-75" transform="translate(313.720703 0)"/>
     <use xlink:href="#DejaVuSans-62" transform="translate(377.099609 0)"/>
     <use xlink:href="#DejaVuSans-65" transform="translate(440.576172 0)"/>
    </g>
    <!-- • gmail sign in -->
    <g style="fill: #1f2937" transform="translate(579.975785 214.938773) scale(0.12 -0.12)">
     <use xlink:href="#DejaVuSans-2022"/>
     <use xlink:href="#DejaVuSans-20" transform="translate(58.984375 0)"/>
     <use xlink:href="#DejaVuSans-67" transform="translate(90.771484 0)"/>
     <use xlink:href="#DejaVuSans-6d" transform="translate(154.248047 0)"/>
     <use xlink:href="#DejaVuSans-61" transform="translate(251.660156 0)"/>
     <use xlink:href="#DejaVuSans-69" transform="translate(312.939453 0)"/>
     <use xlink:href="#DejaVuSans-6c" transform="translate(340.722656 0)"/>
     <use xlink:href="#DejaVuSans-20" transform="translate(368.505859 0)"/>
     <use xlink:href="#DejaVuSans-73" transform="translate(400.292969 0)"/>
     <use xlink:href="#DejaVuSans-69" transform="translate(452.392578 0)"/>
     <use xlink:href="#DejaVuSans-67" transform="translate(480.175781 0)"/>
     <use xlink:href="#DejaVuSans-6e" transform="translate(543.652344 0)"/>
     <use xlink:href="#DejaVuSans-20" transform="translate(607.03125 0)"/>
     <use xlink:href="#DejaVuSans-69" transform="translate(638.818359 0)"/>
     <use xlink:href="#DejaVuSans-6e" transform="translate(666.601562 0)"/>
    </g>
   </g>
   <g id="text_7">
    <!-- Commercial -->
    <g style="fill: #f59e0b" transform="translate(215.419215 301.035262) scale(0.14 -0.14)">
     <defs>
      <path id="DejaVuSans-Bold-43" d="M 4288 256 
Q 3956 84 3597 -3 
Q 3238 -91 2847 -91 
Q 1681 -91 1000 561 
Q 319 1213 319 2328 
Q 319 3447 1000 4098 
Q 1681 4750 2847 4750 
Q 3238 4750 3597 4662 
Q 3956 4575 4288 4403 
L 4288 3438 
Q 3953 3666 3628 3772 
Q 3303 3878 2944 3878 
Q 2300 3878 1931 3465 
Q 1563 3053 1563 2328 
Q 1563 1606 1931 1193 
Q 2300 781 2944 781 
Q 3303 781 3628 887 
Q 3953 994 4288 1222 
L 4288 256 
z
" transform="scale(0.015625)"/>
      <path id="DejaVuSans-Bold-65" d="M 4031 1759 
L 4031 1441 
L 1416 1441 
Q 1456 1047 1700 850 
Q 1944 653 2381 653 
Q 2734 653 3104 758 
Q 3475 863 3866 1075 
L 3866 213 
Q 3469 63 3072 -14 
Q 2675 -91 2278 -91 
Q 1328 -91 801 392 
Q 275 875 275 1747 
Q 275 2603 792 3093 
Q 1309 3584 2216 3584 
Q 3041 3584 3536 3087 
Q 4031 2591 4031 1759 
z
M 2881 2131 
Q 2881 2450 2695 2645 
Q 2509 2841 2209 2841 
Q 1884 2841 1681 2658 
Q 1478 2475 1428 2131 
L 2881 2131 
z
" transform="scale(0.015625)"/>
      <path id="DejaVuSans-Bold-63" d="M 3366 3391 
L 3366 2478 
Q 3138 2634 2908 2709 
Q 2678 2784 2431 2784 
Q 1963 2784 1702 2511 
Q 1441 2238 1441 1747 
Q 1441 1256 1702 982 
Q 1963 709 2431 709 
Q 2694 709 2930 787 
Q 3166 866 3366 1019 
L 3366 103 
Q 3103 6 2833 -42 
Q 2563 -91 2291 -91 
Q 1344 -91 809 395 
Q 275 881 275 1747 
Q 275 2613 809 3098 
Q 1344 3584 2291 3584 
Q 2566 3584 2833 3536 
Q 3100 3488 3366 3391 
z
" transform="scale(0.015625)"/>
     </defs>
     <use xlink:href="#DejaVuSans-Bold-43"/>
     <use xlink:href="#DejaVuSans-Bold-6f" transform="translate(73.388672 0)"/>
     <use xlink:href="#DejaVuSans-Bold-6d" transform="translate(142.089844 0)"/>
     <use xlink:href="#DejaVuSans-Bold-6d" transform="translate(246.289062 0)"/>
     <use xlink:href="#DejaVuSans-Bold-65" transform="translate(350.488281 0)"/>
     <use xlink:href="#DejaVuSans-Bold-72" transform="translate(418.310547 0)"/>
     <use xlink:href="#DejaVuSans-Bold-63" transform="translate(467.626953 0)"/>
     <use xlink:href="#DejaVuSans-Bold-69" transform="translate(526.904297 0)"/>
     <use xlink:href="#DejaVuSans-Bold-61" transform="translate(561.181641 0)"/>
     <use xlink:href="#DejaVuSans-Bold-6c" transform="translate(628.662109 0)"/>
    </g>
   </g>
   <g id="text_8">
    <!-- Research before buying -->
    <g style="fill: #4b5563" transform="translate(202.142652 476.055648) scale(0.1 -0.1)">
     <defs>
      <path id="DejaVuSans-Oblique-52" d="M 1613 4147 
L 1294 2491 
L 2106 2491 
Q 2584 2491 2879 2755 
Q 3175 3019 3175 3444 
Q 3175 3784 2976 3965 
Q 2778 4147 2406 4147 
L 1613 4147 
z
M 2772 2241 
Q 2972 2194 3105 2009 
Q 3238 1825 3413 1275 
L 3809 0 
L 3144 0 
L 2778 1197 
Q 2638 1659 2453 1815 
Q 2269 1972 1888 1972 
L 1191 1972 
L 806 0 
L 172 0 
L 1081 4666 
L 2503 4666 
Q 3150 4666 3495 4373 
Q 3841 4081 3841 3531 
Q 3841 3044 3547 2687 
Q 3253 2331 2772 2241 
z
" transform="scale(0.015625)"/>
      <path id="DejaVuSans-Oblique-68" d="M 3566 2113 
L 3156 0 
L 2578 0 
L 2988 2091 
Q 3016 2238 3031 2350 
Q 3047 2463 3047 2528 
Q 3047 2791 2881 2937 
Q 2716 3084 2419 3084 
Q 1956 3084 1617 2771 
Q 1278 2459 1178 1941 
L 800 0 
L 225 0 
L 1172 4863 
L 1747 4863 
L 1375 2950 
Q 1594 3244 1934 3414 
Q 2275 3584 2650 3584 
Q 3113 3584 3367 3334 
Q 3622 3084 3622 2631 
Q 3622 2519 3608 2391 
Q 3594 2263 3566 2113 
z
" transform="scale(0.015625)"/>
      <path id="DejaVuSans-Oblique-62" d="M 3169 2138 
Q 3169 2591 2961 2847 
Q 2753 3103 2388 3103 
Q 2122 3103 1889 2973 
Q 1656 2844 1484 2597 
Q 1303 2338 1198 1995 
Q 1094 1653 1094 1313 
Q 1094 881 1298 636 
Q 1503 391 1863 391 
Q 2134 391 2365 517 
Q 2597 644 2772 891 
Q 2950 1147 3059 1487 
Q 3169 1828 3169 2138 
z
M 1381 2969 
Q 1594 3256 1914 3420 
Q 2234 3584 2584 3584 
Q 3122 3584 3439 3221 
Q 3756 2859 3756 2241 
Q 3756 1734 3570 1259 
Q 3384 784 3041 416 
Q 2816 172 2522 40 
Q 2228 -91 1906 -91 
Q 1566 -91 1316 65 
Q 1066 222 909 531 
L 806 0 
L 231 0 
L 1178 4863 
L 1753 4863 
L 1381 2969 
z
" transform="scale(0.015625)"/>
      <path id="DejaVuSans-Oblique-6f" d="M 1625 -91 
Q 1009 -91 651 289 
Q 294 669 294 1325 
Q 294 1706 417 2101 
Q 541 2497 738 2766 
Q 1047 3184 1428 3384 
Q 1809 3584 2291 3584 
Q 2888 3584 3255 3212 
Q 3622 2841 3622 2241 
Q 3622 1825 3500 1412 
Q 3378 1000 3181 728 
Q 2875 309 2494 109 
Q 2113 -91 1625 -91 
z
M 891 1344 
Q 891 869 1089 633 
Q 1288 397 1691 397 
Q 2269 397 2648 901 
Q 3028 1406 3028 2181 
Q 3028 2634 2825 2865 
Q 2622 3097 2228 3097 
Q 1903 3097 1650 2945 
Q 1397 2794 1197 2484 
Q 1050 2253 970 1956 
Q 891 1659 891 1344 
z
" transform="scale(0.015625)"/>
      <path id="DejaVuSans-Oblique-79" d="M 1588 -325 
Q 1188 -997 936 -1164 
Q 684 -1331 294 -1331 
L -159 -1331 
L -63 -850 
L 269 -850 
Q 509 -850 678 -719 
Q 847 -588 1056 -206 
L 1234 128 
L 459 3500 
L 1069 3500 
L 1650 819 
L 3256 3500 
L 3859 3500 
L 1588 -325 
z
" transform="scale(0.015625)"/>
      <path id="DejaVuSans-Oblique-67" d="M 3816 3500 
L 3219 434 
Q 3047 -456 2561 -893 
Q 2075 -1331 1253 -1331 
Q 950 -1331 690 -1286 
Q 431 -1241 206 -1147 
L 313 -588 
Q 525 -725 762 -790 
Q 1000 -856 1269 -856 
Q 1816 -856 2167 -557 
Q 2519 -259 2631 300 
L 2681 563 
Q 2441 288 2122 144 
Q 1803 0 1434 0 
Q 903 0 598 351 
Q 294 703 294 1319 
Q 294 1803 478 2267 
Q 663 2731 997 3091 
Q 1219 3328 1514 3456 
Q 1809 3584 2131 3584 
Q 2484 3584 2746 3420 
Q 3009 3256 3138 2956 
L 3238 3500 
L 3816 3500 
z
M 2950 2216 
Q 2950 2641 2750 2872 
Q 2550 3103 2181 3103 
Q 1953 3103 1747 3012 
Q 1541 2922 1394 2759 
Q 1156 2491 1023 2127 
Q 891 1763 891 1375 
Q 891 944 1092 712 
Q 1294 481 1672 481 
Q 2219 481 2584 976 
Q 2950 1472 2950 2216 
z
" transform="scale(0.015625)"/>
     </defs>
     <use xlink:href="#DejaVuSans-Oblique-52"/>
     <use xlink:href="#DejaVuSans-Oblique-65" transform="translate(69.482422 0)"/>
     <use xlink:href="#DejaVuSans-Oblique-73" transform="translate(131.005859 0)"/>
     <use xlink:href="#DejaVuSans-Oblique-65" transform="translate(183.105469 0)"/>
     <use xlink:href="#DejaVuSans-Oblique-61" transform="translate(244.628906 0)"/>
     <use xlink:href="#DejaVuSans-Oblique-72" transform="translate(305.908203 0)"/>
     <use xlink:href="#DejaVuSans-Oblique-63" transform="translate(347.021484 0)"/>
     <use xlink:href="#DejaVuSans-Oblique-68" transform="translate(402.001953 0)"/>
     <use xlink:href="#DejaVuSans-Oblique-20" transform="translate(465.380859 0)"/>
     <use xlink:href="#DejaVuSans-Oblique-62" transform="translate(497.167969 0)"/>
     <use xlink:href="#DejaVuSans-Oblique-65" transform="translate(560.644531 0)"/>
     <use xlink:href="#DejaVuSans-Oblique-66" transform="translate(622.167969 0)"/>
     <use xlink:href="#DejaVuSans-Oblique-6f" transform="translate(657.373047 0)"/>
     <use xlink:href="#DejaVuSans-Oblique-72" transform="translate(718.554688 0)"/>
     <use xlink:href="#DejaVuSans-Oblique-65" transform="translate(759.667969 0)"/>
     <use xlink:href="#DejaVuSans-Oblique-20" transform="translate(821.191406 0)"/>
     <use xlink:href="#DejaVuSans-Oblique-62" transform="translate(852.978516 0)"/>
     <use xlink:href="#DejaVuSans-Oblique-75" transform="translate(916.455078 0)"/>
     <use xlink:href="#DejaVuSans-Oblique-79" transform="translate(979.833984 0)"/>
     <use xlink:href="#DejaVuSans-Oblique-69" transform="translate(1039.013672 0)"/>
     <use xlink:href="#DejaVuSans-Oblique-6e" transform="translate(1066.796875 0)"/>
     <use xlink:href="#DejaVuSans-Oblique-67" transform="translate(1130.175781 0)"/>
    </g>
   </g>
   <g id="text_9">
    <!-- • best SEO tools -->
    <g style="fill: #1f2937" transform="translate(212.777965 376.075893) scale(0.12 -0.12)">
     <use xlink:href="#DejaVuSans-2022"/>
     <use xlink:href="#DejaVuSans-20" transform="translate(58.984375 0)"/>
     <use xlink:href="#DejaVuSans-62" transform="translate(90.771484 0)"/>
     <use xlink:href="#DejaVuSans-65" transform="translate(154.248047 0)"/>
     <use xlink:href="#DejaVuSans-73" transform="translate(215.771484 0)"/>
     <use xlink:href="#DejaVuSans-74" transform="translate(267.871094 0)"/>
     <use xlink:href="#DejaVuSans-20" transform="translate(307.080078 0)"/>
     <use xlink:href="#DejaVuSans-53" transform="translate(338.867188 0)"/>
     <use xlink:href="#DejaVuSans-45" transform="translate(402.34375 0)"/>
     <use xlink:href="#DejaVuSans-4f" transform="translate(465.527344 0)"/>
     <use xlink:href="#DejaVuSans-20" transform="translate(544.238281 0)"/>
     <use xlink:href="#DejaVuSans-74" transform="translate(576.025391 0)"/>
     <use xlink:href="#DejaVuSans-6f" transform="translate(615.234375 0)"/>
     <use xlink:href="#DejaVuSans-6f" transform="translate(676.416016 0)"/>
     <use xlink:href="#DejaVuSans-6c" transform="translate(737.597656 0)"/>
     <use xlink:href="#DejaVuSans-73" transform="translate(765.380859 0)"/>
    </g>
    <!-- • compare keyword research tools -->
    <g style="fill: #1f2937" transform="translate(158.649527 389.513268) scale(0.12 -0.12)">
     <use xlink:href="#DejaVuSans-2022"/>
     <use xlink:href="#DejaVuSans-20" transform="translate(58.984375 0)"/>
     <use xlink:href="#DejaVuSans-63" transform="translate(90.771484 0)"/>
     <use xlink:href="#DejaVuSans-6f" transform="translate(145.751953 0)"/>
     <use xlink:href="#DejaVuSans-6d" transform="translate(206.933594 0)"/>
     <use xlink:href="#DejaVuSans-70" transform="translate(304.345703 0)"/>
     <use xlink:href="#DejaVuSans-61" transform="translate(367.822266 0)"/>
     <use xlink:href="#DejaVuSans-72" transform="translate(429.101562 0)"/>
     <use xlink:href="#DejaVuSans-65" transform="translate(467.964844 0)"/>
     <use xlink:href="#DejaVuSans-20" transform="translate(529.488281 0)"/>
     <use xlink:href="#DejaVuSans-6b" transform="translate(561.275391 0)"/>
     <use xlink:href="#DejaVuSans-65" transform="translate(615.560547 0)"/>
     <use xlink:href="#DejaVuSans-79" transform="translate(677.083984 0)"/>
     <use xlink:href="#DejaVuSans-77" transform="translate(736.263672 0)"/>
     <use xlink:href="#DejaVuSans-6f" transform="translate(818.050781 0)"/>
     <use xlink:href="#DejaVuSans-72" transform="translate(879.232422 0)"/>
     <use xlink:href="#DejaVuSans-64" transform="translate(918.595703 0)"/>
     <use xlink:href="#DejaVuSans-20" transform="translate(982.072266 0)"/>
     <use xlink:href="#DejaVuSans-72" transform="translate(1013.859375 0)"/>
     <use xlink:href="#DejaVuSans-65" transform="translate(1052.722656 0)"/>
     <use xlink:href="#DejaVuSans-73" transform="translate(1114.246094 0)"/>
     <use xlink:href="#DejaVuSans-65" transform="translate(1166.345703 0)"/>
     <use xlink:href="#DejaVuSans-61" transform="translate(1227.869141 0)"/>
     <use xlink:href="#DejaVuSans-72" transform="translate(1289.148438 0)"/>
     <use xlink:href="#DejaVuSans-63" transform="translate(1328.011719 0)"/>
     <use xlink:href="#DejaVuSans-68" transform="translate(1382.992188 0)"/>
     <use xlink:href="#DejaVuSans-20" transform="translate(1446.371094 0)"/>
     <use xlink:href="#DejaVuSans-74" transform="translate(1478.158203 0)"/>
     <use xlink:href="#DejaVuSans-6f" transform="translate(1517.367188 0)"/>
     <use xlink:href="#DejaVuSans-6f" transform="translate(1578.548828 0)"/>
     <use xlink:href="#DejaVuSans-6c" transform="translate(1639.730469 0)"/>
     <use xlink:href="#DejaVuSans-73" transform="translate(1667.513672 0)"/>
    </g>
    <!-- • top SEO courses -->
    <g style="fill: #1f2937" transform="translate(207.228902 402.950643) scale(0.12 -0.12)">
     <use xlink:href="#DejaVuSans-2022"/>
     <use xlink:href="#DejaVuSans-20" transform="translate(58.984375 0)"/>
     <use xlink:href="#DejaVuSans-74" transform="translate(90.771484 0)"/>
     <use xlink:href="#DejaVuSans-6f" transform="translate(129.980469 0)"/>
     <use xlink:href="#DejaVuSans-70" transform="translate(191.162109 0)"/>
     <use xlink:href="#DejaVuSans-20" transform="translate(254.638672 0)"/>
     <use xlink:href="#DejaVuSans-53" transform="translate(286.425781 0)"/>
     <use xlink:href="#DejaVuSans-45" transform="translate(349.902344 0)"/>
     <use xlink:href="#DejaVuSans-4f" transform="translate(413.085938 0)"/>
     <use xlink:href="#DejaVuSans-20" transform="translate(491.796875 0)"/>
     <use xlink:href="#DejaVuSans-63" transform="translate(523.583984 0)"/>
     <use xlink:href="#DejaVuSans-6f" transform="translate(578.564453 0)"/>
     <use xlink:href="#DejaVuSans-75" transform="translate(639.746094 0)"/>
     <use xlink:href="#DejaVuSans-72" transform="translate(703.125 0)"/>
     <use xlink:href="#DejaVuSans-73" transform="translate(744.238281 0)"/>
     <use xlink:href="#DejaVuSans-65" transform="translate(796.337891 0)"/>
     <use xlink:href="#DejaVuSans-73" transform="translate(857.861328 0)"/>
    </g>
   </g>
   <g id="text_10">
    <!-- Transactional -->
    <g style="fill: #10b981" transform="translate(570.90766 301.035262) scale(0.14 -0.14)">
     <defs>
      <path id="DejaVuSans-Bold-54" d="M 31 4666 
L 4331 4666 
L 4331 3756 
L 2784 3756 
L 2784 0 
L 1581 0 
L 1581 3756 
L 31 3756 
L 31 4666 
z
" transform="scale(0.015625)"/>
      <path id="DejaVuSans-Bold-73" d="M 3272 3391 
L 3272 2541 
Q 2913 2691 2578 2766 
Q 2244 2841 1947 2841 
Q 1628 2841 1473 2761 
Q 1319 2681 1319 2516 
Q 1319 2381 1436 2309 
Q 1553 2238 1856 2203 
L 2053 2175 
Q 2913 2066 3209 1816 
Q 3506 1566 3506 1031 
Q 3506 472 3093 190 
Q 2681 -91 1863 -91 
Q 1516 -91 1145 -36 
Q 775 19 384 128 
L 384 978 
Q 719 816 1070 734 
Q 1422 653 1784 653 
Q 2113 653 2278 743 
Q 2444 834 2444 1013 
Q 2444 1163 2330 1236 
Q 2216 1309 1875 1350 
L 1678 1375 
Q 931 1469 631 1722 
Q 331 1975 331 2491 
Q 331 3047 712 3315 
Q 1094 3584 1881 3584 
Q 2191 3584 2531 3537 
Q 2872 3491 3272 3391 
z
" transform="scale(0.015625)"/>
     </defs>
     <use xlink:href="#DejaVuSans-Bold-54"/>
     <use xlink:href="#DejaVuSans-Bold-72" transform="translate(57.212891 0)"/>
     <use xlink:href="#DejaVuSans-Bold-61" transform="translate(106.529297 0)"/>
     <use xlink:href="#DejaVuSans-Bold-6e" transform="translate(174.009766 0)"/>
     <use xlink:href="#DejaVuSans-Bold-73" transform="translate(245.201172 0)"/>
     <use xlink:href="#DejaVuSans-Bold-61" transform="translate(304.722656 0)"/>
     <use xlink:href="#DejaVuSans-Bold-63" transform="translate(372.203125 0)"/>
     <use xlink:href="#DejaVuSans-Bold-74" transform="translate(431.480469 0)"/>
     <use xlink:href="#DejaVuSans-Bold-69" transform="translate(479.283203 0)"/>
     <use xlink:href="#DejaVuSans-Bold-6f" transform="translate(513.560547 0)"/>
     <use xlink:href="#DejaVuSans-Bold-6e" transform="translate(582.261719 0)"/>
     <use xlink:href="#DejaVuSans-Bold-61" transform="translate(653.453125 0)"/>
     <use xlink:href="#DejaVuSans-Bold-6c" transform="translate(720.933594 0)"/>
    </g>
   </g>
   <g id="text_11">
    <!-- Ready to purchase -->
    <g style="fill: #4b5563" transform="translate(576.76516 476.055648) scale(0.1 -0.1)">
     <use xlink:href="#DejaVuSans-Oblique-52"/>
     <use xlink:href="#DejaVuSans-Oblique-65" transform="translate(69.482422 0)"/>
     <use xlink:href="#DejaVuSans-Oblique-61" transform="translate(131.005859 0)"/>
     <use xlink:href="#DejaVuSans-Oblique-64" transform="translate(192.285156 0)"/>
     <use xlink:href="#DejaVuSans-Oblique-79" transform="translate(255.761719 0)"/>
     <use xlink:href="#DejaVuSans-Oblique-20" transform="translate(314.941406 0)"/>
     <use xlink:href="#DejaVuSans-Oblique-74" transform="translate(346.728516 0)"/>
     <use xlink:href="#DejaVuSans-Oblique-6f" transform="translate(385.9375 0)"/>
     <use xlink:href="#DejaVuSans-Oblique-20" transform="translate(447.119141 0)"/>
     <use xlink:href="#DejaVuSans-Oblique-70" transform="translate(478.90625 0)"/>
     <use xlink:href="#DejaVuSans-Oblique-75" transform="translate(542.382812 0)"/>
     <use xlink:href="#DejaVuSans-Oblique-72" transform="translate(605.761719 0)"/>
     <use xlink:href="#DejaVuSans-Oblique-63" transform="translate(646.875 0)"/>
     <use xlink:href="#DejaVuSans-Oblique-68" transform="translate(701.855469 0)"/>
     <use xlink:href="#DejaVuSans-Oblique-61" transform="translate(765.234375 0)"/>
     <use xlink:href="#DejaVuSans-Oblique-73" transform="translate(826.513672 0)"/>
     <use xlink:href="#DejaVuSans-Oblique-65" transform="translate(878.613281 0)"/>
    </g>
   </g>
   <g id="text_12">
    <!-- • buy SEO software -->
    <g style="fill: #1f2937" transform="translate(565.263598 376.075893) scale(0.12 -0.12)">
     <use xlink:href="#DejaVuSans-2022"/>
     <use xlink:href="#DejaVuSans-20" transform="translate(58.984375 0)"/>
     <use xlink:href="#DejaVuSans-62" transform="translate(90.771484 0)"/>
     <use xlink:href="#DejaVuSans-75" transform="translate(154.248047 0)"/>
     <use xlink:href="#DejaVuSans-79" transform="translate(217.626953 0)"/>
     <use xlink:href="#DejaVuSans-20" transform="translate(276.806641 0)"/>
     <use xlink:href="#DejaVuSans-53" transform="translate(308.59375 0)"/>
     <use xlink:href="#DejaVuSans-45" transform="translate(372.070312 0)"/>
     <use xlink:href="#DejaVuSans-4f" transform="translate(435.253906 0)"/>
     <use xlink:href="#DejaVuSans-20" transform="translate(513.964844 0)"/>
     <use xlink:href="#DejaVuSans-73" transform="translate(545.751953 0)"/>
     <use xlink:href="#DejaVuSans-6f" transform="translate(597.851562 0)"/>
     <use xlink:href="#DejaVuSans-66" transform="translate(659.033203 0)"/>
     <use xlink:href="#DejaVuSans-74" transform="translate(692.488281 0)"/>
     <use xlink:href="#DejaVuSans-77" transform="translate(731.697266 0)"/>
     <use xlink:href="#DejaVuSans-61" transform="translate(813.484375 0)"/>
     <use xlink:href="#DejaVuSans-72" transform="translate(874.763672 0)"/>
     <use xlink:href="#DejaVuSans-65" transform="translate(913.626953 0)"/>
    </g>
    <!-- • download keyword tool -->
    <g style="fill: #1f2937" transform="translate(548.889223 389.513268) scale(0.12 -0.12)">
     <use xlink:href="#DejaVuSans-2022"/>
     <use xlink:href="#DejaVuSans-20" transform="translate(58.984375 0)"/>
     <use xlink:href="#DejaVuSans-64" transform="translate(90.771484 0)"/>
     <use xlink:href="#DejaVuSans-6f" transform="translate(154.248047 0)"/>
     <use xlink:href="#DejaVuSans-77" transform="translate(215.429688 0)"/>
     <use xlink:href="#DejaVuSans-6e" transform="translate(297.216797 0)"/>
     <use xlink:href="#DejaVuSans-6c" transform="translate(360.595703 0)"/>
     <use xlink:href="#DejaVuSans-6f" transform="translate(388.378906 0)"/>
     <use xlink:href="#DejaVuSans-61" transform="translate(449.560547 0)"/>
     <use xlink:href="#DejaVuSans-64" transform="translate(510.839844 0)"/>
     <use xlink:href="#DejaVuSans-20" transform="translate(574.316406 0)"/>
     <use xlink:href="#DejaVuSans-6b" transform="translate(606.103516 0)"/>
     <use xlink:href="#DejaVuSans-65" transform="translate(660.388672 0)"/>
     <use xlink:href="#DejaVuSans-79" transform="translate(721.912109 0)"/>
     <use xlink:href="#DejaVuSans-77" transform="translate(781.091797 0)"/>
     <use xlink:href="#DejaVuSans-6f" transform="translate(862.878906 0)"/>
     <use xlink:href="#DejaVuSans-72" transform="translate(924.060547 0)"/>
     <use xlink:href="#DejaVuSans-64" transform="translate(963.423828 0)"/>
     <use xlink:href="#DejaVuSans-20" transform="translate(1026.900391 0)"/>
     <use xlink:href="#DejaVuSans-74" transform="translate(1058.6875 0)"/>
     <use xlink:href="#DejaVuSans-6f" transform="translate(1097.896484 0)"/>
     <use xlink:href="#DejaVuSans-6f" transform="translate(1159.078125 0)"/>
     <use xlink:href="#DejaVuSans-6c" transform="translate(1220.259766 0)"/>
    </g>
    <!-- • hire SEO consultant -->
    <g style="fill: #1f2937" transform="translate(559.145473 402.950643) scale(0.12 -0.12)">
     <use xlink:href="#DejaVuSans-2022"/>
     <use xlink:href="#DejaVuSans-20" transform="translate(58.984375 0)"/>
     <use xlink:href="#DejaVuSans-68" transform="translate(90.771484 0)"/>
     <use xlink:href="#DejaVuSans-69" transform="translate(154.150391 0)"/>
     <use xlink:href="#DejaVuSans-72" transform="translate(181.933594 0)"/>
     <use xlink:href="#DejaVuSans-65" transform="translate(220.796875 0)"/>
     <use xlink:href="#DejaVuSans-20" transform="translate(282.320312 0)"/>
     <use xlink:href="#DejaVuSans-53" transform="translate(314.107422 0)"/>
     <use xlink:href="#DejaVuSans-45" transform="translate(377.583984 0)"/>
     <use xlink:href="#DejaVuSans-4f" transform="translate(440.767578 0)"/>
     <use xlink:href="#DejaVuSans-20" transform="translate(519.478516 0)"/>
     <use xlink:href="#DejaVuSans-63" transform="translate(551.265625 0)"/>
     <use xlink:href="#DejaVuSans-6f" transform="translate(606.246094 0)"/>
     <use xlink:href="#DejaVuSans-6e" transform="translate(667.427734 0)"/>
     <use xlink:href="#DejaVuSans-73" transform="translate(730.806641 0)"/>
     <use xlink:href="#DejaVuSans-75" transform="translate(782.90625 0)"/>
     <use xlink:href="#DejaVuSans-6c" transform="translate(846.285156 0)"/>
     <use xlink:href="#DejaVuSans-74" transform="translate(874.068359 0)"/>
     <use xlink:href="#DejaVuSans-61" transform="translate(913.277344 0)"/>
     <use xlink:href="#DejaVuSans-6e" transform="translate(974.556641 0)"/>
     <use xlink:href="#DejaVuSans-74" transform="translate(1037.935547 0)"/>
    </g>
   </g>
  </g>
 </g>
 <defs>
  <clipPath id="pcb471d43cd">
   <rect x="108" y="69.12" width="669.6" height="443.52"/>
  </clipPath>
 </defs>
</svg>
