<?xml version="1.0" encoding="utf-8" standalone="no"?>
<!DOCTYPE svg PUBLIC "-//W3C//DTD SVG 1.1//EN"
  "http://www.w3.org/Graphics/SVG/1.1/DTD/svg11.dtd">
<svg xmlns:xlink="http://www.w3.org/1999/xlink" width="684pt" height="568.8pt" viewBox="0 0 684 568.8" xmlns="http://www.w3.org/2000/svg" version="1.1">
 <metadata>
  <rdf:RDF xmlns:dc="http://purl.org/dc/elements/1.1/" xmlns:cc="http://creativecommons.org/ns#" xmlns:rdf="http://www.w3.org/1999/02/22-rdf-syntax-ns#">
   <cc:Work>
    <dc:type rdf:resource="http://purl.org/dc/dcmitype/StillImage"/>
    <dc:date>2025-12-26T21:31:35.506742</dc:date>
    <dc:format>image/svg+xml</dc:format>
    <dc:creator>
     <cc:Agent>
      <dc:title>Matplotlib v3.10.8, https://matplotlib.org/</dc:title>
     </cc:Agent>
    </dc:creator>
   </cc:Work>
  </rdf:RDF>
 </metadata>
 <defs>
  <style type="text/css">*{stroke-linejoin: round; stroke-linecap: butt}</style>
 </defs>
 <g id="figure_1">
  <g id="patch_1">
   <path d="M 0 568.8 
L 684 568.8 
L 684 0 
L 0 0 
z
" style="fill: #f8f9fa"/>
  </g>
  <g id="axes_1">
   <g id="patch_2">
    <path d="M 49.714286 237.328302 
L 315.428571 237.328302 
Q 320.742857 237.328302 320.742857 226.867925 
L 320.742857 143.184906 
Q 320.742857 132.724528 315.428571 132.724528 
L 49.714286 132.724528 
Q 44.4 132.724528 44.4 143.184906 
L 44.4 226.867925 
Q 44.4 237.328302 49.714286 237.328302 
z
" clip-path="url(#p0680fbfe2b)" style="fill: #ef4444; opacity: 0.15; stroke: #ef4444; stroke-width: 1.5; stroke-linejoin: miter"/>
   </g>
   <g id="patch_3">
    <path d="M 368.571429 237.328302 
L 634.285714 237.328302 
Q 639.6 237.328302 639.6 226.867925 
L 639.6 143.184906 
Q 639.6 132.724528 634.285714 132.724528 
L 368.571429 132.724528 
Q 363.257143 132.724528 363.257143 143.184906 
L 363.257143 226.867925 
Q 363.257143 237.328302 368.571429 237.328302 
z
" clip-path="url(#p0680fbfe2b)" style="fill: #10b981; opacity: 0.15; stroke: #10b981; stroke-width: 1.5; stroke-linejoin: miter"/>
   </g>
   <g id="patch_4">
    <path d="M 49.714286 362.85283 
L 315.428571 362.85283 
Q 320.742857 362.85283 320.742857 352.392453 
L 320.742857 268.709434 
Q 320.742857 258.249057 315.428571 258.249057 
L 49.714286 258.249057 
Q 44.4 258.249057 44.4 268.709434 
L 44.4 352.392453 
Q 44.4 362.85283 49.714286 362.85283 
z
" clip-path="url(#p0680fbfe2b)" style="fill: #ef4444; opacity: 0.15; stroke: #ef4444; stroke-width: 1.5; stroke-linejoin: miter"/>
   </g>
   <g id="patch_5">
    <path d="M 368.571429 362.85283 
L 634.285714 362.85283 
Q 639.6 362.85283 639.6 352.392453 
L 639.6 268.709434 
Q 639.6 258.249057 634.285714 258.249057 
L 368.571429 258.249057 
Q 363.257143 258.249057 363.257143 268.709434 
L 363.257143 352.392453 
Q 363.257143 362.85283 368.571429 362.85283 
z
" clip-path="url(#p0680fbfe2b)" style="fill: #10b981; opacity: 0.15; stroke: #10b981; stroke-width: 1.5; stroke-linejoin: miter"/>
   </g>
   <g id="patch_6">
    <path d="M 49.714286 488.377358 
L 315.428571 488.377358 
Q 320.742857 488.377358 320.742857 477.916981 
L 320.742857 394.233962 
Q 320.742857 383.773585 315.428571 383.773585 
L 49.714286 383.773585 
Q 44.4 383.773585 44.4 394.233962 
L 44.4 477.916981 
Q 44.4 488.377358 49.714286 488.377358 
z
" clip-path="url(#p0680fbfe2b)" style="fill: #ef4444; opacity: 0.15; stroke: #ef4444; stroke-width: 1.5; stroke-linejoin: miter"/>
   </g>
   <g id="patch_7">
    <path d="M 368.571429 488.377358 
L 634.285714 488.377358 
Q 639.6 488.377358 639.6 477.916981 
L 639.6 394.233962 
Q 639.6 383.773585 634.285714 383.773585 
L 368.571429 383.773585 
Q 363.257143 383.773585 363.257143 394.233962 
L 363.257143 477.916981 
Q 363.257143 488.377358 368.571429 488.377358 
z
" clip-path="url(#p0680fbfe2b)" style="fill: #10b981; opacity: 0.15; stroke: #10b981; stroke-width: 1.5; stroke-linejoin: miter"/>
   </g>
   <g id="text_1">
    <!-- example.com/page?id=123&amp;cat=seo&amp;ref=home -->
    <g style="fill: #ef4444" transform="translate(62.165179 187.777978) scale(0.1 -0.1)">
     <defs>
      <path id="DejaVuSansMono-65" d="M 3475 1894 
L 3475 1613 
L 984 1613 
L 984 1594 
Q 984 1022 1282 709 
Q 1581 397 2125 397 
Q 2400 397 2700 484 
Q 3000 572 3341 750 
L 3341 178 
Q 3013 44 2708 -23 
Q 2403 -91 2119 -91 
Q 1303 -91 843 398 
Q 384 888 384 1747 
Q 384 2584 834 3084 
Q 1284 3584 2034 3584 
Q 2703 3584 3089 3131 
Q 3475 2678 3475 1894 
z
M 2900 2063 
Q 2888 2569 2661 2833 
Q 2434 3097 2009 3097 
Q 1594 3097 1325 2822 
Q 1056 2547 1006 2059 
L 2900 2063 
z
" transform="scale(0.015625)"/>
      <path id="DejaVuSansMono-78" d="M 3494 3500 
L 2241 1825 
L 3616 0 
L 2950 0 
L 1925 1403 
L 903 0 
L 238 0 
L 1613 1825 
L 359 3500 
L 997 3500 
L 1925 2234 
L 2847 3500 
L 3494 3500 
z
" transform="scale(0.015625)"/>
      <path id="DejaVuSansMono-61" d="M 2194 1759 
L 2003 1759 
Q 1500 1759 1245 1582 
Q 991 1406 991 1056 
Q 991 741 1181 566 
Q 1372 391 1709 391 
Q 2184 391 2456 720 
Q 2728 1050 2731 1631 
L 2731 1759 
L 2194 1759 
z
M 3309 1997 
L 3309 0 
L 2731 0 
L 2731 519 
Q 2547 206 2267 57 
Q 1988 -91 1588 -91 
Q 1053 -91 734 211 
Q 416 513 416 1019 
Q 416 1603 808 1906 
Q 1200 2209 1959 2209 
L 2731 2209 
L 2731 2300 
Q 2728 2719 2518 2908 
Q 2309 3097 1850 3097 
Q 1556 3097 1256 3012 
Q 956 2928 672 2766 
L 672 3341 
Q 991 3463 1283 3523 
Q 1575 3584 1850 3584 
Q 2284 3584 2592 3456 
Q 2900 3328 3091 3072 
Q 3209 2916 3259 2686 
Q 3309 2456 3309 1997 
z
" transform="scale(0.015625)"/>
      <path id="DejaVuSansMono-6d" d="M 2113 3144 
Q 2219 3369 2383 3476 
Q 2547 3584 2778 3584 
Q 3200 3584 3373 3257 
Q 3547 2931 3547 2028 
L 3547 0 
L 3022 0 
L 3022 2003 
Q 3022 2744 2939 2923 
Q 2856 3103 2638 3103 
Q 2388 3103 2295 2911 
Q 2203 2719 2203 2003 
L 2203 0 
L 1678 0 
L 1678 2003 
Q 1678 2753 1589 2928 
Q 1500 3103 1269 3103 
Q 1041 3103 952 2911 
Q 863 2719 863 2003 
L 863 0 
L 341 0 
L 341 3500 
L 863 3500 
L 863 3200 
Q 966 3388 1120 3486 
Q 1275 3584 1472 3584 
Q 1709 3584 1867 3475 
Q 2025 3366 2113 3144 
z
" transform="scale(0.015625)"/>
      <path id="DejaVuSansMono-70" d="M 1172 441 
L 1172 -1331 
L 594 -1331 
L 594 3500 
L 1172 3500 
L 1172 3053 
Q 1316 3313 1555 3448 
Q 1794 3584 2106 3584 
Q 2741 3584 3102 3093 
Q 3463 2603 3463 1734 
Q 3463 881 3100 395 
Q 2738 -91 2106 -91 
Q 1788 -91 1548 45 
Q 1309 181 1172 441 
z
M 2859 1747 
Q 2859 2416 2648 2756 
Q 2438 3097 2022 3097 
Q 1603 3097 1387 2755 
Q 1172 2413 1172 1747 
Q 1172 1084 1387 740 
Q 1603 397 2022 397 
Q 2438 397 2648 737 
Q 2859 1078 2859 1747 
z
" transform="scale(0.015625)"/>
      <path id="DejaVuSansMono-6c" d="M 1997 1269 
Q 1997 881 2139 684 
Q 2281 488 2559 488 
L 3231 488 
L 3231 0 
L 2503 0 
Q 1988 0 1705 331 
Q 1422 663 1422 1269 
L 1422 4447 
L 500 4447 
L 500 4897 
L 1997 4897 
L 1997 1269 
z
" transform="scale(0.015625)"/>
      <path id="DejaVuSansMono-2e" d="M 1528 953 
L 2316 953 
L 2316 0 
L 1528 0 
L 1528 953 
z
" transform="scale(0.015625)"/>
      <path id="DejaVuSansMono-63" d="M 3316 178 
Q 3084 44 2839 -23 
Q 2594 -91 2338 -91 
Q 1525 -91 1067 396 
Q 609 884 609 1747 
Q 609 2609 1067 3096 
Q 1525 3584 2338 3584 
Q 2591 3584 2831 3518 
Q 3072 3453 3316 3316 
L 3316 2713 
Q 3088 2916 2858 3006 
Q 2628 3097 2338 3097 
Q 1797 3097 1506 2747 
Q 1216 2397 1216 1747 
Q 1216 1100 1508 748 
Q 1800 397 2338 397 
Q 2638 397 2875 489 
Q 3113 581 3316 775 
L 3316 178 
z
" transform="scale(0.015625)"/>
      <path id="DejaVuSansMono-6f" d="M 1925 3097 
Q 1488 3097 1263 2756 
Q 1038 2416 1038 1747 
Q 1038 1081 1263 739 
Q 1488 397 1925 397 
Q 2366 397 2591 739 
Q 2816 1081 2816 1747 
Q 2816 2416 2591 2756 
Q 2366 3097 1925 3097 
z
M 1925 3584 
Q 2653 3584 3039 3112 
Q 3425 2641 3425 1747 
Q 3425 850 3040 379 
Q 2656 -91 1925 -91 
Q 1197 -91 812 379 
Q 428 850 428 1747 
Q 428 2641 812 3112 
Q 1197 3584 1925 3584 
z
" transform="scale(0.015625)"/>
      <path id="DejaVuSansMono-2f" d="M 2778 4666 
L 3372 4666 
L 916 -594 
L 319 -594 
L 2778 4666 
z
" transform="scale(0.015625)"/>
      <path id="DejaVuSansMono-67" d="M 2681 1778 
Q 2681 2425 2470 2761 
Q 2259 3097 1856 3097 
Q 1434 3097 1212 2761 
Q 991 2425 991 1778 
Q 991 1131 1214 792 
Q 1438 453 1863 453 
Q 2259 453 2470 793 
Q 2681 1134 2681 1778 
z
M 3256 225 
Q 3256 -563 2884 -969 
Q 2513 -1375 1791 -1375 
Q 1553 -1375 1293 -1331 
Q 1034 -1288 775 -1203 
L 775 -634 
Q 1081 -778 1331 -847 
Q 1581 -916 1791 -916 
Q 2256 -916 2468 -662 
Q 2681 -409 2681 141 
L 2681 166 
L 2681 556 
Q 2544 263 2306 119 
Q 2069 -25 1728 -25 
Q 1116 -25 750 465 
Q 384 956 384 1778 
Q 384 2603 750 3093 
Q 1116 3584 1728 3584 
Q 2066 3584 2300 3450 
Q 2534 3316 2681 3034 
L 2681 3488 
L 3256 3488 
L 3256 225 
z
" transform="scale(0.015625)"/>
      <path id="DejaVuSansMono-3f" d="M 2138 1253 
L 1544 1253 
L 1544 1734 
Q 1544 2041 1639 2255 
Q 1734 2469 1997 2725 
L 2278 3003 
Q 2472 3188 2545 3325 
Q 2619 3463 2619 3616 
Q 2619 3894 2414 4066 
Q 2209 4238 1869 4238 
Q 1625 4238 1347 4130 
Q 1069 4022 763 3809 
L 763 4397 
Q 1056 4575 1354 4662 
Q 1653 4750 1978 4750 
Q 2559 4750 2904 4450 
Q 3250 4150 3250 3647 
Q 3250 3409 3145 3204 
Q 3041 3000 2747 2713 
L 2472 2444 
Q 2256 2238 2197 2106 
Q 2138 1975 2138 1784 
L 2138 1638 
L 2138 1253 
z
M 1522 794 
L 2156 794 
L 2156 0 
L 1522 0 
L 1522 794 
z
" transform="scale(0.015625)"/>
      <path id="DejaVuSansMono-69" d="M 800 3500 
L 2272 3500 
L 2272 447 
L 3413 447 
L 3413 0 
L 556 0 
L 556 447 
L 1697 447 
L 1697 3053 
L 800 3053 
L 800 3500 
z
M 1697 4863 
L 2272 4863 
L 2272 4134 
L 1697 4134 
L 1697 4863 
z
" transform="scale(0.015625)"/>
      <path id="DejaVuSansMono-64" d="M 2681 3053 
L 2681 4863 
L 3256 4863 
L 3256 0 
L 2681 0 
L 2681 441 
Q 2538 181 2298 45 
Q 2059 -91 1747 -91 
Q 1113 -91 748 401 
Q 384 894 384 1759 
Q 384 2613 750 3098 
Q 1116 3584 1747 3584 
Q 2063 3584 2303 3448 
Q 2544 3313 2681 3053 
z
M 991 1747 
Q 991 1078 1203 737 
Q 1416 397 1831 397 
Q 2247 397 2464 740 
Q 2681 1084 2681 1747 
Q 2681 2413 2464 2755 
Q 2247 3097 1831 3097 
Q 1416 3097 1203 2756 
Q 991 2416 991 1747 
z
" transform="scale(0.015625)"/>
      <path id="DejaVuSansMono-3d" d="M 275 1638 
L 3578 1638 
L 3578 1100 
L 275 1100 
L 275 1638 
z
M 275 2906 
L 3578 2906 
L 3578 2375 
L 275 2375 
L 275 2906 
z
" transform="scale(0.015625)"/>
      <path id="DejaVuSansMono-31" d="M 844 531 
L 1825 531 
L 1825 4097 
L 769 3859 
L 769 4434 
L 1819 4666 
L 2450 4666 
L 2450 531 
L 3419 531 
L 3419 0 
L 844 0 
L 844 531 
z
" transform="scale(0.015625)"/>
      <path id="DejaVuSansMono-32" d="M 1166 531 
L 3309 531 
L 3309 0 
L 475 0 
L 475 531 
Q 1059 1147 1496 1619 
Q 1934 2091 2100 2284 
Q 2413 2666 2522 2902 
Q 2631 3138 2631 3384 
Q 2631 3775 2401 3997 
Q 2172 4219 1772 4219 
Q 1488 4219 1175 4116 
Q 863 4013 513 3803 
L 513 4441 
Q 834 4594 1145 4672 
Q 1456 4750 1759 4750 
Q 2444 4750 2861 4386 
Q 3278 4022 3278 3431 
Q 3278 3131 3139 2831 
Q 3000 2531 2688 2169 
Q 2513 1966 2180 1606 
Q 1847 1247 1166 531 
z
" transform="scale(0.015625)"/>
      <path id="DejaVuSansMono-33" d="M 2425 2497 
Q 2884 2375 3128 2064 
Q 3372 1753 3372 1288 
Q 3372 644 2939 276 
Q 2506 -91 1741 -91 
Q 1419 -91 1084 -31 
Q 750 28 428 141 
L 428 769 
Q 747 603 1056 522 
Q 1366 441 1672 441 
Q 2191 441 2469 675 
Q 2747 909 2747 1350 
Q 2747 1756 2469 1995 
Q 2191 2234 1716 2234 
L 1234 2234 
L 1234 2753 
L 1716 2753 
Q 2150 2753 2394 2943 
Q 2638 3134 2638 3475 
Q 2638 3834 2411 4026 
Q 2184 4219 1766 4219 
Q 1488 4219 1191 4156 
Q 894 4094 569 3969 
L 569 4550 
Q 947 4650 1242 4700 
Q 1538 4750 1766 4750 
Q 2447 4750 2855 4408 
Q 3263 4066 3263 3500 
Q 3263 3116 3048 2859 
Q 2834 2603 2425 2497 
z
" transform="scale(0.015625)"/>
      <path id="DejaVuSansMono-26" d="M 1709 2834 
L 3009 1088 
Q 3131 1241 3190 1475 
Q 3250 1709 3250 2034 
Q 3250 2134 3241 2353 
L 3238 2375 
L 3750 2375 
L 3750 2253 
Q 3750 1750 3634 1370 
Q 3519 991 3284 716 
L 3816 0 
L 3150 0 
L 2906 341 
Q 2647 122 2356 15 
Q 2066 -91 1734 -91 
Q 1059 -91 618 329 
Q 178 750 178 1388 
Q 178 1816 393 2181 
Q 609 2547 1044 2859 
Q 888 3084 813 3300 
Q 738 3516 738 3738 
Q 738 4206 1048 4478 
Q 1359 4750 1900 4750 
Q 2103 4750 2308 4712 
Q 2513 4675 2731 4603 
L 2731 4031 
Q 2547 4153 2351 4211 
Q 2156 4269 1941 4269 
Q 1638 4269 1463 4126 
Q 1288 3984 1288 3744 
Q 1288 3559 1378 3357 
Q 1469 3156 1709 2834 
z
M 1300 2509 
Q 1013 2281 870 2026 
Q 728 1772 728 1484 
Q 728 1013 1040 702 
Q 1353 391 1838 391 
Q 1969 391 2112 428 
Q 2256 466 2394 538 
Q 2478 584 2533 620 
Q 2588 656 2638 697 
L 1300 2509 
z
" transform="scale(0.015625)"/>
      <path id="DejaVuSansMono-74" d="M 1919 4494 
L 1919 3500 
L 3225 3500 
L 3225 3053 
L 1919 3053 
L 1919 1153 
Q 1919 766 2066 612 
Q 2213 459 2578 459 
L 3225 459 
L 3225 0 
L 2522 0 
Q 1875 0 1609 259 
Q 1344 519 1344 1153 
L 1344 3053 
L 409 3053 
L 409 3500 
L 1344 3500 
L 1344 4494 
L 1919 4494 
z
" transform="scale(0.015625)"/>
      <path id="DejaVuSansMono-73" d="M 3041 3378 
L 3041 2816 
Q 2794 2959 2544 3031 
Q 2294 3103 2034 3103 
Q 1644 3103 1451 2976 
Q 1259 2850 1259 2591 
Q 1259 2356 1403 2240 
Q 1547 2125 2119 2016 
L 2350 1972 
Q 2778 1891 2998 1647 
Q 3219 1403 3219 1013 
Q 3219 494 2850 201 
Q 2481 -91 1825 -91 
Q 1566 -91 1281 -36 
Q 997 19 666 128 
L 666 722 
Q 988 556 1281 473 
Q 1575 391 1838 391 
Q 2219 391 2428 545 
Q 2638 700 2638 978 
Q 2638 1378 1872 1531 
L 1847 1538 
L 1631 1581 
Q 1134 1678 906 1908 
Q 678 2138 678 2534 
Q 678 3038 1018 3311 
Q 1359 3584 1991 3584 
Q 2272 3584 2531 3532 
Q 2791 3481 3041 3378 
z
" transform="scale(0.015625)"/>
      <path id="DejaVuSansMono-72" d="M 3609 2778 
Q 3425 2922 3234 2987 
Q 3044 3053 2816 3053 
Q 2278 3053 1993 2715 
Q 1709 2378 1709 1741 
L 1709 0 
L 1131 0 
L 1131 3500 
L 1709 3500 
L 1709 2816 
Q 1853 3188 2151 3386 
Q 2450 3584 2859 3584 
Q 3072 3584 3256 3531 
Q 3441 3478 3609 3366 
L 3609 2778 
z
" transform="scale(0.015625)"/>
      <path id="DejaVuSansMono-66" d="M 3322 4863 
L 3322 4384 
L 2669 4384 
Q 2359 4384 2239 4257 
Q 2119 4131 2119 3809 
L 2119 3500 
L 3322 3500 
L 3322 3053 
L 2119 3053 
L 2119 0 
L 1544 0 
L 1544 3053 
L 609 3053 
L 609 3500 
L 1544 3500 
L 1544 3744 
Q 1544 4319 1808 4591 
Q 2072 4863 2631 4863 
L 3322 4863 
z
" transform="scale(0.015625)"/>
      <path id="DejaVuSansMono-68" d="M 3284 2169 
L 3284 0 
L 2706 0 
L 2706 2169 
Q 2706 2641 2540 2862 
Q 2375 3084 2022 3084 
Q 1619 3084 1401 2798 
Q 1184 2513 1184 1978 
L 1184 0 
L 609 0 
L 609 4863 
L 1184 4863 
L 1184 2975 
Q 1338 3275 1600 3429 
Q 1863 3584 2222 3584 
Q 2756 3584 3020 3232 
Q 3284 2881 3284 2169 
z
" transform="scale(0.015625)"/>
     </defs>
     <use xlink:href="#DejaVuSansMono-65"/>
     <use xlink:href="#DejaVuSansMono-78" transform="translate(60.205078 0)"/>
     <use xlink:href="#DejaVuSansMono-61" transform="translate(120.410156 0)"/>
     <use xlink:href="#DejaVuSansMono-6d" transform="translate(180.615234 0)"/>
     <use xlink:href="#DejaVuSansMono-70" transform="translate(240.820312 0)"/>
     <use xlink:href="#DejaVuSansMono-6c" transform="translate(301.025391 0)"/>
     <use xlink:href="#DejaVuSansMono-65" transform="translate(361.230469 0)"/>
     <use xlink:href="#DejaVuSansMono-2e" transform="translate(421.435547 0)"/>
     <use xlink:href="#DejaVuSansMono-63" transform="translate(481.640625 0)"/>
     <use xlink:href="#DejaVuSansMono-6f" transform="translate(541.845703 0)"/>
     <use xlink:href="#DejaVuSansMono-6d" transform="translate(602.050781 0)"/>
     <use xlink:href="#DejaVuSansMono-2f" transform="translate(662.255859 0)"/>
     <use xlink:href="#DejaVuSansMono-70" transform="translate(722.460938 0)"/>
     <use xlink:href="#DejaVuSansMono-61" transform="translate(782.666016 0)"/>
     <use xlink:href="#DejaVuSansMono-67" transform="translate(842.871094 0)"/>
     <use xlink:href="#DejaVuSansMono-65" transform="translate(903.076172 0)"/>
     <use xlink:href="#DejaVuSansMono-3f" transform="translate(963.28125 0)"/>
     <use xlink:href="#DejaVuSansMono-69" transform="translate(1023.486328 0)"/>
     <use xlink:href="#DejaVuSansMono-64" transform="translate(1083.691406 0)"/>
     <use xlink:href="#DejaVuSansMono-3d" transform="translate(1143.896484 0)"/>
     <use xlink:href="#DejaVuSansMono-31" transform="translate(1204.101562 0)"/>
     <use xlink:href="#DejaVuSansMono-32" transform="translate(1264.306641 0)"/>
     <use xlink:href="#DejaVuSansMono-33" transform="translate(1324.511719 0)"/>
     <use xlink:href="#DejaVuSansMono-26" transform="translate(1384.716797 0)"/>
     <use xlink:href="#DejaVuSansMono-63" transform="translate(1444.921875 0)"/>
     <use xlink:href="#DejaVuSansMono-61" transform="translate(1505.126953 0)"/>
     <use xlink:href="#DejaVuSansMono-74" transform="translate(1565.332031 0)"/>
     <use xlink:href="#DejaVuSansMono-3d" transform="translate(1625.537109 0)"/>
     <use xlink:href="#DejaVuSansMono-73" transform="translate(1685.742188 0)"/>
     <use xlink:href="#DejaVuSansMono-65" transform="translate(1745.947266 0)"/>
     <use xlink:href="#DejaVuSansMono-6f" transform="translate(1806.152344 0)"/>
     <use xlink:href="#DejaVuSansMono-26" transform="translate(1866.357422 0)"/>
     <use xlink:href="#DejaVuSansMono-72" transform="translate(1926.5625 0)"/>
     <use xlink:href="#DejaVuSansMono-65" transform="translate(1986.767578 0)"/>
     <use xlink:href="#DejaVuSansMono-66" transform="translate(2046.972656 0)"/>
     <use xlink:href="#DejaVuSansMono-3d" transform="translate(2107.177734 0)"/>
     <use xlink:href="#DejaVuSansMono-68" transform="translate(2167.382812 0)"/>
     <use xlink:href="#DejaVuSansMono-6f" transform="translate(2227.587891 0)"/>
     <use xlink:href="#DejaVuSansMono-6d" transform="translate(2287.792969 0)"/>
     <use xlink:href="#DejaVuSansMono-65" transform="translate(2347.998047 0)"/>
    </g>
   </g>
   <g id="text_2">
    <!-- example.com/seo/on-page-guide -->
    <g style="fill: #10b981" transform="translate(414.13404 187.777978) scale(0.1 -0.1)">
     <defs>
      <path id="DejaVuSansMono-6e" d="M 3284 2169 
L 3284 0 
L 2706 0 
L 2706 2169 
Q 2706 2641 2540 2862 
Q 2375 3084 2022 3084 
Q 1619 3084 1401 2798 
Q 1184 2513 1184 1978 
L 1184 0 
L 609 0 
L 609 3500 
L 1184 3500 
L 1184 2975 
Q 1338 3275 1600 3429 
Q 1863 3584 2222 3584 
Q 2756 3584 3020 3232 
Q 3284 2881 3284 2169 
z
" transform="scale(0.015625)"/>
      <path id="DejaVuSansMono-2d" d="M 1113 2009 
L 2741 2009 
L 2741 1497 
L 1113 1497 
L 1113 2009 
z
" transform="scale(0.015625)"/>
      <path id="DejaVuSansMono-75" d="M 609 1325 
L 609 3494 
L 1184 3494 
L 1184 1325 
Q 1184 853 1351 631 
Q 1519 409 1869 409 
Q 2275 409 2490 695 
Q 2706 981 2706 1516 
L 2706 3494 
L 3284 3494 
L 3284 0 
L 2706 0 
L 2706 525 
Q 2553 222 2289 65 
Q 2025 -91 1672 -91 
Q 1134 -91 871 261 
Q 609 613 609 1325 
z
" transform="scale(0.015625)"/>
     </defs>
     <use xlink:href="#DejaVuSansMono-65"/>
     <use xlink:href="#DejaVuSansMono-78" transform="translate(60.205078 0)"/>
     <use xlink:href="#DejaVuSansMono-61" transform="translate(120.410156 0)"/>
     <use xlink:href="#DejaVuSansMono-6d" transform="translate(180.615234 0)"/>
     <use xlink:href="#DejaVuSansMono-70" transform="translate(240.820312 0)"/>
     <use xlink:href="#DejaVuSansMono-6c" transform="translate(301.025391 0)"/>
     <use xlink:href="#DejaVuSansMono-65" transform="translate(361.230469 0)"/>
     <use xlink:href="#DejaVuSansMono-2e" transform="translate(421.435547 0)"/>
     <use xlink:href="#DejaVuSansMono-63" transform="translate(481.640625 0)"/>
     <use xlink:href="#DejaVuSansMono-6f" transform="translate(541.845703 0)"/>
     <use xlink:href="#DejaVuSansMono-6d" transform="translate(602.050781 0)"/>
     <use xlink:href="#DejaVuSansMono-2f" transform="translate(662.255859 0)"/>
     <use xlink:href="#DejaVuSansMono-73" transform="translate(722.460938 0)"/>
     <use xlink:href="#DejaVuSansMono-65" transform="translate(782.666016 0)"/>
     <use xlink:href="#DejaVuSansMono-6f" transform="translate(842.871094 0)"/>
     <use xlink:href="#DejaVuSansMono-2f" transform="translate(903.076172 0)"/>
     <use xlink:href="#DejaVuSansMono-6f" transform="translate(963.28125 0)"/>
     <use xlink:href="#DejaVuSansMono-6e" transform="translate(1023.486328 0)"/>
     <use xlink:href="#DejaVuSansMono-2d" transform="translate(1083.691406 0)"/>
     <use xlink:href="#DejaVuSansMono-70" transform="translate(1143.896484 0)"/>
     <use xlink:href="#DejaVuSansMono-61" transform="translate(1204.101562 0)"/>
     <use xlink:href="#DejaVuSansMono-67" transform="translate(1264.306641 0)"/>
     <use xlink:href="#DejaVuSansMono-65" transform="translate(1324.511719 0)"/>
     <use xlink:href="#DejaVuSansMono-2d" transform="translate(1384.716797 0)"/>
     <use xlink:href="#DejaVuSansMono-67" transform="translate(1444.921875 0)"/>
     <use xlink:href="#DejaVuSansMono-75" transform="translate(1505.126953 0)"/>
     <use xlink:href="#DejaVuSansMono-69" transform="translate(1565.332031 0)"/>
     <use xlink:href="#DejaVuSansMono-64" transform="translate(1625.537109 0)"/>
     <use xlink:href="#DejaVuSansMono-65" transform="translate(1685.742188 0)"/>
    </g>
   </g>
   <g id="text_3">
    <!-- example.com/products/item-456789 -->
    <g style="fill: #ef4444" transform="translate(86.246429 313.336881) scale(0.1 -0.1)">
     <defs>
      <path id="DejaVuSansMono-34" d="M 2297 4091 
L 825 1625 
L 2297 1625 
L 2297 4091 
z
M 2194 4666 
L 2925 4666 
L 2925 1625 
L 3547 1625 
L 3547 1113 
L 2925 1113 
L 2925 0 
L 2297 0 
L 2297 1113 
L 319 1113 
L 319 1709 
L 2194 4666 
z
" transform="scale(0.015625)"/>
      <path id="DejaVuSansMono-35" d="M 647 4666 
L 3009 4666 
L 3009 4134 
L 1222 4134 
L 1222 2988 
Q 1356 3038 1492 3061 
Q 1628 3084 1766 3084 
Q 2491 3084 2916 2656 
Q 3341 2228 3341 1497 
Q 3341 759 2895 334 
Q 2450 -91 1678 -91 
Q 1306 -91 998 -41 
Q 691 9 447 109 
L 447 750 
Q 734 594 1025 517 
Q 1316 441 1619 441 
Q 2141 441 2423 716 
Q 2706 991 2706 1497 
Q 2706 1997 2414 2275 
Q 2122 2553 1600 2553 
Q 1347 2553 1106 2495 
Q 866 2438 647 2322 
L 647 4666 
z
" transform="scale(0.015625)"/>
      <path id="DejaVuSansMono-36" d="M 3097 4563 
L 3097 3981 
Q 2900 4097 2678 4158 
Q 2456 4219 2216 4219 
Q 1616 4219 1306 3767 
Q 997 3316 997 2438 
Q 1147 2750 1412 2917 
Q 1678 3084 2022 3084 
Q 2697 3084 3067 2670 
Q 3438 2256 3438 1497 
Q 3438 741 3056 325 
Q 2675 -91 1984 -91 
Q 1172 -91 794 492 
Q 416 1075 416 2328 
Q 416 3509 870 4129 
Q 1325 4750 2188 4750 
Q 2419 4750 2650 4701 
Q 2881 4653 3097 4563 
z
M 1972 2591 
Q 1569 2591 1337 2300 
Q 1106 2009 1106 1497 
Q 1106 984 1337 693 
Q 1569 403 1972 403 
Q 2391 403 2603 679 
Q 2816 956 2816 1497 
Q 2816 2041 2603 2316 
Q 2391 2591 1972 2591 
z
" transform="scale(0.015625)"/>
      <path id="DejaVuSansMono-37" d="M 434 4666 
L 3372 4666 
L 3372 4397 
L 1703 0 
L 1044 0 
L 2669 4134 
L 434 4134 
L 434 4666 
z
" transform="scale(0.015625)"/>
      <path id="DejaVuSansMono-38" d="M 1925 2216 
Q 1503 2216 1273 1980 
Q 1044 1744 1044 1313 
Q 1044 881 1276 642 
Q 1509 403 1925 403 
Q 2350 403 2579 639 
Q 2809 875 2809 1313 
Q 2809 1741 2576 1978 
Q 2344 2216 1925 2216 
z
M 1375 2478 
Q 972 2581 745 2862 
Q 519 3144 519 3541 
Q 519 4097 897 4423 
Q 1275 4750 1925 4750 
Q 2578 4750 2956 4423 
Q 3334 4097 3334 3541 
Q 3334 3144 3107 2862 
Q 2881 2581 2478 2478 
Q 2947 2375 3195 2062 
Q 3444 1750 3444 1253 
Q 3444 622 3041 265 
Q 2638 -91 1925 -91 
Q 1213 -91 811 264 
Q 409 619 409 1247 
Q 409 1747 657 2061 
Q 906 2375 1375 2478 
z
M 1147 3481 
Q 1147 3106 1347 2909 
Q 1547 2713 1925 2713 
Q 2306 2713 2506 2909 
Q 2706 3106 2706 3481 
Q 2706 3863 2507 4063 
Q 2309 4263 1925 4263 
Q 1547 4263 1347 4061 
Q 1147 3859 1147 3481 
z
" transform="scale(0.015625)"/>
      <path id="DejaVuSansMono-39" d="M 1863 2069 
Q 2266 2069 2495 2359 
Q 2725 2650 2725 3163 
Q 2725 3675 2495 3965 
Q 2266 4256 1863 4256 
Q 1444 4256 1231 3979 
Q 1019 3703 1019 3163 
Q 1019 2619 1230 2344 
Q 1441 2069 1863 2069 
z
M 738 97 
L 738 678 
Q 934 563 1156 502 
Q 1378 441 1619 441 
Q 2219 441 2526 892 
Q 2834 1344 2834 2222 
Q 2688 1909 2422 1742 
Q 2156 1575 1813 1575 
Q 1138 1575 767 1990 
Q 397 2406 397 3169 
Q 397 3922 776 4336 
Q 1156 4750 1850 4750 
Q 2663 4750 3041 4165 
Q 3419 3581 3419 2328 
Q 3419 1150 2964 529 
Q 2509 -91 1644 -91 
Q 1416 -91 1184 -42 
Q 953 6 738 97 
z
" transform="scale(0.015625)"/>
     </defs>
     <use xlink:href="#DejaVuSansMono-65"/>
     <use xlink:href="#DejaVuSansMono-78" transform="translate(60.205078 0)"/>
     <use xlink:href="#DejaVuSansMono-61" transform="translate(120.410156 0)"/>
     <use xlink:href="#DejaVuSansMono-6d" transform="translate(180.615234 0)"/>
     <use xlink:href="#DejaVuSansMono-70" transform="translate(240.820312 0)"/>
     <use xlink:href="#DejaVuSansMono-6c" transform="translate(301.025391 0)"/>
     <use xlink:href="#DejaVuSansMono-65" transform="translate(361.230469 0)"/>
     <use xlink:href="#DejaVuSansMono-2e" transform="translate(421.435547 0)"/>
     <use xlink:href="#DejaVuSansMono-63" transform="translate(481.640625 0)"/>
     <use xlink:href="#DejaVuSansMono-6f" transform="translate(541.845703 0)"/>
     <use xlink:href="#DejaVuSansMono-6d" transform="translate(602.050781 0)"/>
     <use xlink:href="#DejaVuSansMono-2f" transform="translate(662.255859 0)"/>
     <use xlink:href="#DejaVuSansMono-70" transform="translate(722.460938 0)"/>
     <use xlink:href="#DejaVuSansMono-72" transform="translate(782.666016 0)"/>
     <use xlink:href="#DejaVuSansMono-6f" transform="translate(842.871094 0)"/>
     <use xlink:href="#DejaVuSansMono-64" transform="translate(903.076172 0)"/>
     <use xlink:href="#DejaVuSansMono-75" transform="translate(963.28125 0)"/>
     <use xlink:href="#DejaVuSansMono-63" transform="translate(1023.486328 0)"/>
     <use xlink:href="#DejaVuSansMono-74" transform="translate(1083.691406 0)"/>
     <use xlink:href="#DejaVuSansMono-73" transform="translate(1143.896484 0)"/>
     <use xlink:href="#DejaVuSansMono-2f" transform="translate(1204.101562 0)"/>
     <use xlink:href="#DejaVuSansMono-69" transform="translate(1264.306641 0)"/>
     <use xlink:href="#DejaVuSansMono-74" transform="translate(1324.511719 0)"/>
     <use xlink:href="#DejaVuSansMono-65" transform="translate(1384.716797 0)"/>
     <use xlink:href="#DejaVuSansMono-6d" transform="translate(1444.921875 0)"/>
     <use xlink:href="#DejaVuSansMono-2d" transform="translate(1505.126953 0)"/>
     <use xlink:href="#DejaVuSansMono-34" transform="translate(1565.332031 0)"/>
     <use xlink:href="#DejaVuSansMono-35" transform="translate(1625.537109 0)"/>
     <use xlink:href="#DejaVuSansMono-36" transform="translate(1685.742188 0)"/>
     <use xlink:href="#DejaVuSansMono-37" transform="translate(1745.947266 0)"/>
     <use xlink:href="#DejaVuSansMono-38" transform="translate(1806.152344 0)"/>
     <use xlink:href="#DejaVuSansMono-39" transform="translate(1866.357422 0)"/>
    </g>
   </g>
   <g id="text_4">
    <!-- example.com/products/seo-tool -->
    <g style="fill: #10b981" transform="translate(414.13404 313.336881) scale(0.1 -0.1)">
     <use xlink:href="#DejaVuSansMono-65"/>
     <use xlink:href="#DejaVuSansMono-78" transform="translate(60.205078 0)"/>
     <use xlink:href="#DejaVuSansMono-61" transform="translate(120.410156 0)"/>
     <use xlink:href="#DejaVuSansMono-6d" transform="translate(180.615234 0)"/>
     <use xlink:href="#DejaVuSansMono-70" transform="translate(240.820312 0)"/>
     <use xlink:href="#DejaVuSansMono-6c" transform="translate(301.025391 0)"/>
     <use xlink:href="#DejaVuSansMono-65" transform="translate(361.230469 0)"/>
     <use xlink:href="#DejaVuSansMono-2e" transform="translate(421.435547 0)"/>
     <use xlink:href="#DejaVuSansMono-63" transform="translate(481.640625 0)"/>
     <use xlink:href="#DejaVuSansMono-6f" transform="translate(541.845703 0)"/>
     <use xlink:href="#DejaVuSansMono-6d" transform="translate(602.050781 0)"/>
     <use xlink:href="#DejaVuSansMono-2f" transform="translate(662.255859 0)"/>
     <use xlink:href="#DejaVuSansMono-70" transform="translate(722.460938 0)"/>
     <use xlink:href="#DejaVuSansMono-72" transform="translate(782.666016 0)"/>
     <use xlink:href="#DejaVuSansMono-6f" transform="translate(842.871094 0)"/>
     <use xlink:href="#DejaVuSansMono-64" transform="translate(903.076172 0)"/>
     <use xlink:href="#DejaVuSansMono-75" transform="translate(963.28125 0)"/>
     <use xlink:href="#DejaVuSansMono-63" transform="translate(1023.486328 0)"/>
     <use xlink:href="#DejaVuSansMono-74" transform="translate(1083.691406 0)"/>
     <use xlink:href="#DejaVuSansMono-73" transform="translate(1143.896484 0)"/>
     <use xlink:href="#DejaVuSansMono-2f" transform="translate(1204.101562 0)"/>
     <use xlink:href="#DejaVuSansMono-73" transform="translate(1264.306641 0)"/>
     <use xlink:href="#DejaVuSansMono-65" transform="translate(1324.511719 0)"/>
     <use xlink:href="#DejaVuSansMono-6f" transform="translate(1384.716797 0)"/>
     <use xlink:href="#DejaVuSansMono-2d" transform="translate(1444.921875 0)"/>
     <use xlink:href="#DejaVuSansMono-74" transform="translate(1505.126953 0)"/>
     <use xlink:href="#DejaVuSansMono-6f" transform="translate(1565.332031 0)"/>
     <use xlink:href="#DejaVuSansMono-6f" transform="translate(1625.537109 0)"/>
     <use xlink:href="#DejaVuSansMono-6c" transform="translate(1685.742188 0)"/>
    </g>
   </g>
   <g id="text_5">
    <!-- example.com/blog/2024/01/15/post -->
    <g style="fill: #ef4444" transform="translate(86.246429 438.827034) scale(0.1 -0.1)">
     <defs>
      <path id="DejaVuSansMono-62" d="M 2869 1747 
Q 2869 2416 2656 2756 
Q 2444 3097 2028 3097 
Q 1609 3097 1393 2755 
Q 1178 2413 1178 1747 
Q 1178 1084 1393 740 
Q 1609 397 2028 397 
Q 2444 397 2656 737 
Q 2869 1078 2869 1747 
z
M 1178 3053 
Q 1316 3309 1558 3446 
Q 1800 3584 2119 3584 
Q 2750 3584 3112 3098 
Q 3475 2613 3475 1759 
Q 3475 894 3111 401 
Q 2747 -91 2113 -91 
Q 1800 -91 1561 45 
Q 1322 181 1178 441 
L 1178 0 
L 603 0 
L 603 4863 
L 1178 4863 
L 1178 3053 
z
" transform="scale(0.015625)"/>
      <path id="DejaVuSansMono-30" d="M 1509 2344 
Q 1509 2516 1629 2641 
Q 1750 2766 1919 2766 
Q 2094 2766 2219 2641 
Q 2344 2516 2344 2344 
Q 2344 2169 2220 2047 
Q 2097 1925 1919 1925 
Q 1744 1925 1626 2044 
Q 1509 2163 1509 2344 
z
M 1925 4250 
Q 1484 4250 1267 3775 
Q 1050 3300 1050 2328 
Q 1050 1359 1267 884 
Q 1484 409 1925 409 
Q 2369 409 2586 884 
Q 2803 1359 2803 2328 
Q 2803 3300 2586 3775 
Q 2369 4250 1925 4250 
z
M 1925 4750 
Q 2672 4750 3055 4137 
Q 3438 3525 3438 2328 
Q 3438 1134 3055 521 
Q 2672 -91 1925 -91 
Q 1178 -91 797 521 
Q 416 1134 416 2328 
Q 416 3525 797 4137 
Q 1178 4750 1925 4750 
z
" transform="scale(0.015625)"/>
     </defs>
     <use xlink:href="#DejaVuSansMono-65"/>
     <use xlink:href="#DejaVuSansMono-78" transform="translate(60.205078 0)"/>
     <use xlink:href="#DejaVuSansMono-61" transform="translate(120.410156 0)"/>
     <use xlink:href="#DejaVuSansMono-6d" transform="translate(180.615234 0)"/>
     <use xlink:href="#DejaVuSansMono-70" transform="translate(240.820312 0)"/>
     <use xlink:href="#DejaVuSansMono-6c" transform="translate(301.025391 0)"/>
     <use xlink:href="#DejaVuSansMono-65" transform="translate(361.230469 0)"/>
     <use xlink:href="#DejaVuSansMono-2e" transform="translate(421.435547 0)"/>
     <use xlink:href="#DejaVuSansMono-63" transform="translate(481.640625 0)"/>
     <use xlink:href="#DejaVuSansMono-6f" transform="translate(541.845703 0)"/>
     <use xlink:href="#DejaVuSansMono-6d" transform="translate(602.050781 0)"/>
     <use xlink:href="#DejaVuSansMono-2f" transform="translate(662.255859 0)"/>
     <use xlink:href="#DejaVuSansMono-62" transform="translate(722.460938 0)"/>
     <use xlink:href="#DejaVuSansMono-6c" transform="translate(782.666016 0)"/>
     <use xlink:href="#DejaVuSansMono-6f" transform="translate(842.871094 0)"/>
     <use xlink:href="#DejaVuSansMono-67" transform="translate(903.076172 0)"/>
     <use xlink:href="#DejaVuSansMono-2f" transform="translate(963.28125 0)"/>
     <use xlink:href="#DejaVuSansMono-32" transform="translate(1023.486328 0)"/>
     <use xlink:href="#DejaVuSansMono-30" transform="translate(1083.691406 0)"/>
     <use xlink:href="#DejaVuSansMono-32" transform="translate(1143.896484 0)"/>
     <use xlink:href="#DejaVuSansMono-34" transform="translate(1204.101562 0)"/>
     <use xlink:href="#DejaVuSansMono-2f" transform="translate(1264.306641 0)"/>
     <use xlink:href="#DejaVuSansMono-30" transform="translate(1324.511719 0)"/>
     <use xlink:href="#DejaVuSansMono-31" transform="translate(1384.716797 0)"/>
     <use xlink:href="#DejaVuSansMono-2f" transform="translate(1444.921875 0)"/>
     <use xlink:href="#DejaVuSansMono-31" transform="translate(1505.126953 0)"/>
     <use xlink:href="#DejaVuSansMono-35" transform="translate(1565.332031 0)"/>
     <use xlink:href="#DejaVuSansMono-2f" transform="translate(1625.537109 0)"/>
     <use xlink:href="#DejaVuSansMono-70" transform="translate(1685.742188 0)"/>
     <use xlink:href="#DejaVuSansMono-6f" transform="translate(1745.947266 0)"/>
     <use xlink:href="#DejaVuSansMono-73" transform="translate(1806.152344 0)"/>
     <use xlink:href="#DejaVuSansMono-74" transform="translate(1866.357422 0)"/>
    </g>
   </g>
   <g id="text_6">
    <!-- example.com/blog/seo-fundamentals -->
    <g style="fill: #10b981" transform="translate(402.093415 438.827034) scale(0.1 -0.1)">
     <use xlink:href="#DejaVuSansMono-65"/>
     <use xlink:href="#DejaVuSansMono-78" transform="translate(60.205078 0)"/>
     <use xlink:href="#DejaVuSansMono-61" transform="translate(120.410156 0)"/>
     <use xlink:href="#DejaVuSansMono-6d" transform="translate(180.615234 0)"/>
     <use xlink:href="#DejaVuSansMono-70" transform="translate(240.820312 0)"/>
     <use xlink:href="#DejaVuSansMono-6c" transform="translate(301.025391 0)"/>
     <use xlink:href="#DejaVuSansMono-65" transform="translate(361.230469 0)"/>
     <use xlink:href="#DejaVuSansMono-2e" transform="translate(421.435547 0)"/>
     <use xlink:href="#DejaVuSansMono-63" transform="translate(481.640625 0)"/>
     <use xlink:href="#DejaVuSansMono-6f" transform="translate(541.845703 0)"/>
     <use xlink:href="#DejaVuSansMono-6d" transform="translate(602.050781 0)"/>
     <use xlink:href="#DejaVuSansMono-2f" transform="translate(662.255859 0)"/>
     <use xlink:href="#DejaVuSansMono-62" transform="translate(722.460938 0)"/>
     <use xlink:href="#DejaVuSansMono-6c" transform="translate(782.666016 0)"/>
     <use xlink:href="#DejaVuSansMono-6f" transform="translate(842.871094 0)"/>
     <use xlink:href="#DejaVuSansMono-67" transform="translate(903.076172 0)"/>
     <use xlink:href="#DejaVuSansMono-2f" transform="translate(963.28125 0)"/>
     <use xlink:href="#DejaVuSansMono-73" transform="translate(1023.486328 0)"/>
     <use xlink:href="#DejaVuSansMono-65" transform="translate(1083.691406 0)"/>
     <use xlink:href="#DejaVuSansMono-6f" transform="translate(1143.896484 0)"/>
     <use xlink:href="#DejaVuSansMono-2d" transform="translate(1204.101562 0)"/>
     <use xlink:href="#DejaVuSansMono-66" transform="translate(1264.306641 0)"/>
     <use xlink:href="#DejaVuSansMono-75" transform="translate(1324.511719 0)"/>
     <use xlink:href="#DejaVuSansMono-6e" transform="translate(1384.716797 0)"/>
     <use xlink:href="#DejaVuSansMono-64" transform="translate(1444.921875 0)"/>
     <use xlink:href="#DejaVuSansMono-61" transform="translate(1505.126953 0)"/>
     <use xlink:href="#DejaVuSansMono-6d" transform="translate(1565.332031 0)"/>
     <use xlink:href="#DejaVuSansMono-65" transform="translate(1625.537109 0)"/>
     <use xlink:href="#DejaVuSansMono-6e" transform="translate(1685.742188 0)"/>
     <use xlink:href="#DejaVuSansMono-74" transform="translate(1745.947266 0)"/>
     <use xlink:href="#DejaVuSansMono-61" transform="translate(1806.152344 0)"/>
     <use xlink:href="#DejaVuSansMono-6c" transform="translate(1866.357422 0)"/>
     <use xlink:href="#DejaVuSansMono-73" transform="translate(1926.5625 0)"/>
    </g>
   </g>
   <g id="text_7">
    <!-- Poor URL Structure -->
    <g style="fill: #ef4444" transform="translate(106.461741 87.971456) scale(0.14 -0.14)">
     <defs>
      <path id="DejaVuSans-Bold-50" d="M 588 4666 
L 2584 4666 
Q 3475 4666 3951 4270 
Q 4428 3875 4428 3144 
Q 4428 2409 3951 2014 
Q 3475 1619 2584 1619 
L 1791 1619 
L 1791 0 
L 588 0 
L 588 4666 
z
M 1791 3794 
L 1791 2491 
L 2456 2491 
Q 2806 2491 2997 2661 
Q 3188 2831 3188 3144 
Q 3188 3456 2997 3625 
Q 2806 3794 2456 3794 
L 1791 3794 
z
" transform="scale(0.015625)"/>
      <path id="DejaVuSans-Bold-6f" d="M 2203 2784 
Q 1831 2784 1636 2517 
Q 1441 2250 1441 1747 
Q 1441 1244 1636 976 
Q 1831 709 2203 709 
Q 2569 709 2762 976 
Q 2956 1244 2956 1747 
Q 2956 2250 2762 2517 
Q 2569 2784 2203 2784 
z
M 2203 3584 
Q 3106 3584 3614 3096 
Q 4122 2609 4122 1747 
Q 4122 884 3614 396 
Q 3106 -91 2203 -91 
Q 1297 -91 786 396 
Q 275 884 275 1747 
Q 275 2609 786 3096 
Q 1297 3584 2203 3584 
z
" transform="scale(0.015625)"/>
      <path id="DejaVuSans-Bold-72" d="M 3138 2547 
Q 2991 2616 2845 2648 
Q 2700 2681 2553 2681 
Q 2122 2681 1889 2404 
Q 1656 2128 1656 1613 
L 1656 0 
L 538 0 
L 538 3500 
L 1656 3500 
L 1656 2925 
Q 1872 3269 2151 3426 
Q 2431 3584 2822 3584 
Q 2878 3584 2943 3579 
Q 3009 3575 3134 3559 
L 3138 2547 
z
" transform="scale(0.015625)"/>
      <path id="DejaVuSans-Bold-20" transform="scale(0.015625)"/>
      <path id="DejaVuSans-Bold-55" d="M 588 4666 
L 1791 4666 
L 1791 1869 
Q 1791 1291 1980 1042 
Q 2169 794 2597 794 
Q 3028 794 3217 1042 
Q 3406 1291 3406 1869 
L 3406 4666 
L 4609 4666 
L 4609 1869 
Q 4609 878 4112 393 
Q 3616 -91 2597 -91 
Q 1581 -91 1084 393 
Q 588 878 588 1869 
L 588 4666 
z
" transform="scale(0.015625)"/>
      <path id="DejaVuSans-Bold-52" d="M 2297 2597 
Q 2675 2597 2839 2737 
Q 3003 2878 3003 3200 
Q 3003 3519 2839 3656 
Q 2675 3794 2297 3794 
L 1791 3794 
L 1791 2597 
L 2297 2597 
z
M 1791 1766 
L 1791 0 
L 588 0 
L 588 4666 
L 2425 4666 
Q 3347 4666 3776 4356 
Q 4206 4047 4206 3378 
Q 4206 2916 3982 2619 
Q 3759 2322 3309 2181 
Q 3556 2125 3751 1926 
Q 3947 1728 4147 1325 
L 4800 0 
L 3519 0 
L 2950 1159 
Q 2778 1509 2601 1637 
Q 2425 1766 2131 1766 
L 1791 1766 
z
" transform="scale(0.015625)"/>
      <path id="DejaVuSans-Bold-4c" d="M 588 4666 
L 1791 4666 
L 1791 909 
L 3903 909 
L 3903 0 
L 588 0 
L 588 4666 
z
" transform="scale(0.015625)"/>
      <path id="DejaVuSans-Bold-53" d="M 3834 4519 
L 3834 3531 
Q 3450 3703 3084 3790 
Q 2719 3878 2394 3878 
Q 1963 3878 1756 3759 
Q 1550 3641 1550 3391 
Q 1550 3203 1689 3098 
Q 1828 2994 2194 2919 
L 2706 2816 
Q 3484 2659 3812 2340 
Q 4141 2022 4141 1434 
Q 4141 663 3683 286 
Q 3225 -91 2284 -91 
Q 1841 -91 1394 -6 
Q 947 78 500 244 
L 500 1259 
Q 947 1022 1364 901 
Q 1781 781 2169 781 
Q 2563 781 2772 912 
Q 2981 1044 2981 1288 
Q 2981 1506 2839 1625 
Q 2697 1744 2272 1838 
L 1806 1941 
Q 1106 2091 782 2419 
Q 459 2747 459 3303 
Q 459 4000 909 4375 
Q 1359 4750 2203 4750 
Q 2588 4750 2994 4692 
Q 3400 4634 3834 4519 
z
" transform="scale(0.015625)"/>
      <path id="DejaVuSans-Bold-74" d="M 1759 4494 
L 1759 3500 
L 2913 3500 
L 2913 2700 
L 1759 2700 
L 1759 1216 
Q 1759 972 1856 886 
Q 1953 800 2241 800 
L 2816 800 
L 2816 0 
L 1856 0 
Q 1194 0 917 276 
Q 641 553 641 1216 
L 641 2700 
L 84 2700 
L 84 3500 
L 641 3500 
L 641 4494 
L 1759 4494 
z
" transform="scale(0.015625)"/>
      <path id="DejaVuSans-Bold-75" d="M 500 1363 
L 500 3500 
L 1625 3500 
L 1625 3150 
Q 1625 2866 1622 2436 
Q 1619 2006 1619 1863 
Q 1619 1441 1641 1255 
Q 1663 1069 1716 984 
Q 1784 875 1895 815 
Q 2006 756 2150 756 
Q 2500 756 2700 1025 
Q 2900 1294 2900 1772 
L 2900 3500 
L 4019 3500 
L 4019 0 
L 2900 0 
L 2900 506 
Q 2647 200 2364 54 
Q 2081 -91 1741 -91 
Q 1134 -91 817 281 
Q 500 653 500 1363 
z
" transform="scale(0.015625)"/>
      <path id="DejaVuSans-Bold-63" d="M 3366 3391 
L 3366 2478 
Q 3138 2634 2908 2709 
Q 2678 2784 2431 2784 
Q 1963 2784 1702 2511 
Q 1441 2238 1441 1747 
Q 1441 1256 1702 982 
Q 1963 709 2431 709 
Q 2694 709 2930 787 
Q 3166 866 3366 1019 
L 3366 103 
Q 3103 6 2833 -42 
Q 2563 -91 2291 -91 
Q 1344 -91 809 395 
Q 275 881 275 1747 
Q 275 2613 809 3098 
Q 1344 3584 2291 3584 
Q 2566 3584 2833 3536 
Q 3100 3488 3366 3391 
z
" transform="scale(0.015625)"/>
      <path id="DejaVuSans-Bold-65" d="M 4031 1759 
L 4031 1441 
L 1416 1441 
Q 1456 1047 1700 850 
Q 1944 653 2381 653 
Q 2734 653 3104 758 
Q 3475 863 3866 1075 
L 3866 213 
Q 3469 63 3072 -14 
Q 2675 -91 2278 -91 
Q 1328 -91 801 392 
Q 275 875 275 1747 
Q 275 2603 792 3093 
Q 1309 3584 2216 3584 
Q 3041 3584 3536 3087 
Q 4031 2591 4031 1759 
z
M 2881 2131 
Q 2881 2450 2695 2645 
Q 2509 2841 2209 2841 
Q 1884 2841 1681 2658 
Q 1478 2475 1428 2131 
L 2881 2131 
z
" transform="scale(0.015625)"/>
     </defs>
     <use xlink:href="#DejaVuSans-Bold-50"/>
     <use xlink:href="#DejaVuSans-Bold-6f" transform="translate(73.291016 0)"/>
     <use xlink:href="#DejaVuSans-Bold-6f" transform="translate(141.992188 0)"/>
     <use xlink:href="#DejaVuSans-Bold-72" transform="translate(210.693359 0)"/>
     <use xlink:href="#DejaVuSans-Bold-20" transform="translate(260.009766 0)"/>
     <use xlink:href="#DejaVuSans-Bold-55" transform="translate(294.824219 0)"/>
     <use xlink:href="#DejaVuSans-Bold-52" transform="translate(376.025391 0)"/>
     <use xlink:href="#DejaVuSans-Bold-4c" transform="translate(453.027344 0)"/>
     <use xlink:href="#DejaVuSans-Bold-20" transform="translate(516.748047 0)"/>
     <use xlink:href="#DejaVuSans-Bold-53" transform="translate(551.5625 0)"/>
     <use xlink:href="#DejaVuSans-Bold-74" transform="translate(623.583984 0)"/>
     <use xlink:href="#DejaVuSans-Bold-72" transform="translate(671.386719 0)"/>
     <use xlink:href="#DejaVuSans-Bold-75" transform="translate(720.703125 0)"/>
     <use xlink:href="#DejaVuSans-Bold-63" transform="translate(791.894531 0)"/>
     <use xlink:href="#DejaVuSans-Bold-74" transform="translate(851.171875 0)"/>
     <use xlink:href="#DejaVuSans-Bold-75" transform="translate(898.974609 0)"/>
     <use xlink:href="#DejaVuSans-Bold-72" transform="translate(970.166016 0)"/>
     <use xlink:href="#DejaVuSans-Bold-65" transform="translate(1019.482422 0)"/>
    </g>
   </g>
   <g id="text_8">
    <!-- Good URL Structure -->
    <g style="fill: #10b981" transform="translate(423.145603 87.971456) scale(0.14 -0.14)">
     <defs>
      <path id="DejaVuSans-Bold-47" d="M 4781 347 
Q 4331 128 3847 18 
Q 3363 -91 2847 -91 
Q 1681 -91 1000 561 
Q 319 1213 319 2328 
Q 319 3456 1012 4103 
Q 1706 4750 2913 4750 
Q 3378 4750 3804 4662 
Q 4231 4575 4609 4403 
L 4609 3438 
Q 4219 3659 3833 3768 
Q 3447 3878 3059 3878 
Q 2341 3878 1952 3476 
Q 1563 3075 1563 2328 
Q 1563 1588 1938 1184 
Q 2313 781 3003 781 
Q 3191 781 3352 804 
Q 3513 828 3641 878 
L 3641 1784 
L 2906 1784 
L 2906 2591 
L 4781 2591 
L 4781 347 
z
" transform="scale(0.015625)"/>
      <path id="DejaVuSans-Bold-64" d="M 2919 2988 
L 2919 4863 
L 4044 4863 
L 4044 0 
L 2919 0 
L 2919 506 
Q 2688 197 2409 53 
Q 2131 -91 1766 -91 
Q 1119 -91 703 423 
Q 288 938 288 1747 
Q 288 2556 703 3070 
Q 1119 3584 1766 3584 
Q 2128 3584 2408 3439 
Q 2688 3294 2919 2988 
z
M 2181 722 
Q 2541 722 2730 984 
Q 2919 1247 2919 1747 
Q 2919 2247 2730 2509 
Q 2541 2772 2181 2772 
Q 1825 2772 1636 2509 
Q 1447 2247 1447 1747 
Q 1447 1247 1636 984 
Q 1825 722 2181 722 
z
" transform="scale(0.015625)"/>
     </defs>
     <use xlink:href="#DejaVuSans-Bold-47"/>
     <use xlink:href="#DejaVuSans-Bold-6f" transform="translate(82.080078 0)"/>
     <use xlink:href="#DejaVuSans-Bold-6f" transform="translate(150.78125 0)"/>
     <use xlink:href="#DejaVuSans-Bold-64" transform="translate(219.482422 0)"/>
     <use xlink:href="#DejaVuSans-Bold-20" transform="translate(291.064453 0)"/>
     <use xlink:href="#DejaVuSans-Bold-55" transform="translate(325.878906 0)"/>
     <use xlink:href="#DejaVuSans-Bold-52" transform="translate(407.080078 0)"/>
     <use xlink:href="#DejaVuSans-Bold-4c" transform="translate(484.082031 0)"/>
     <use xlink:href="#DejaVuSans-Bold-20" transform="translate(547.802734 0)"/>
     <use xlink:href="#DejaVuSans-Bold-53" transform="translate(582.617188 0)"/>
     <use xlink:href="#DejaVuSans-Bold-74" transform="translate(654.638672 0)"/>
     <use xlink:href="#DejaVuSans-Bold-72" transform="translate(702.441406 0)"/>
     <use xlink:href="#DejaVuSans-Bold-75" transform="translate(751.757812 0)"/>
     <use xlink:href="#DejaVuSans-Bold-63" transform="translate(822.949219 0)"/>
     <use xlink:href="#DejaVuSans-Bold-74" transform="translate(882.226562 0)"/>
     <use xlink:href="#DejaVuSans-Bold-75" transform="translate(930.029297 0)"/>
     <use xlink:href="#DejaVuSans-Bold-72" transform="translate(1001.220703 0)"/>
     <use xlink:href="#DejaVuSans-Bold-65" transform="translate(1050.537109 0)"/>
    </g>
   </g>
  </g>
 </g>
 <defs>
  <clipPath id="p0680fbfe2b">
   <rect x="7.2" y="7.2" width="669.6" height="554.4"/>
  </clipPath>
 </defs>
</svg>
