<?xml version="1.0" encoding="utf-8" standalone="no"?>
<!DOCTYPE svg PUBLIC "-//W3C//DTD SVG 1.1//EN"
  "http://www.w3.org/Graphics/SVG/1.1/DTD/svg11.dtd">
<svg xmlns:xlink="http://www.w3.org/1999/xlink" width="572.4pt" height="679.68pt" viewBox="0 0 572.4 679.68" xmlns="http://www.w3.org/2000/svg" version="1.1">
 <metadata>
  <rdf:RDF xmlns:dc="http://purl.org/dc/elements/1.1/" xmlns:cc="http://creativecommons.org/ns#" xmlns:rdf="http://www.w3.org/1999/02/22-rdf-syntax-ns#">
   <cc:Work>
    <dc:type rdf:resource="http://purl.org/dc/dcmitype/StillImage"/>
    <dc:date>2025-12-26T21:31:34.566252</dc:date>
    <dc:format>image/svg+xml</dc:format>
    <dc:creator>
     <cc:Agent>
      <dc:title>Matplotlib v3.10.8, https://matplotlib.org/</dc:title>
     </cc:Agent>
    </dc:creator>
   </cc:Work>
  </rdf:RDF>
 </metadata>
 <defs>
  <style type="text/css">*{stroke-linejoin: round; stroke-linecap: butt}</style>
 </defs>
 <g id="figure_1">
  <g id="patch_1">
   <path d="M 0 679.68 
L 572.4 679.68 
L 572.4 0 
L 0 0 
z
" style="fill: #f8f9fa"/>
  </g>
  <g id="axes_1">
   <g id="patch_2">
    <path d="M 284.433893 155.985205 
Q 217.137625 192.001589 151.319965 227.226634 
" clip-path="url(#p30908b027a)" style="fill: none; stroke: #10b981; stroke-width: 1.5; stroke-linecap: round"/>
    <path d="M 160.260792 226.978416 
L 151.319965 227.226634 
L 156.485887 219.925042 
" clip-path="url(#p30908b027a)" style="fill: none; stroke: #10b981; stroke-width: 1.5; stroke-linecap: round"/>
   </g>
   <g id="patch_3">
    <path d="M 287.966107 155.985205 
Q 355.262375 192.001589 421.080035 227.226634 
" clip-path="url(#p30908b027a)" style="fill: none; stroke: #f59e0b; stroke-width: 1.5; stroke-linecap: round"/>
    <path d="M 415.914113 219.925042 
L 421.080035 227.226634 
L 412.139208 226.978416 
" clip-path="url(#p30908b027a)" style="fill: none; stroke: #f59e0b; stroke-width: 1.5; stroke-linecap: round"/>
   </g>
   <g id="patch_4">
    <path d="M 148.081188 378.798691 
Q 148.081188 413.760683 148.081188 447.045623 
" clip-path="url(#p30908b027a)" style="fill: none; stroke: #8b5cf6; stroke-width: 1.5; stroke-linecap: round"/>
    <path d="M 152.081188 439.045623 
L 148.081188 447.045623 
L 144.081188 439.045623 
" clip-path="url(#p30908b027a)" style="fill: none; stroke: #8b5cf6; stroke-width: 1.5; stroke-linecap: round"/>
   </g>
   <g id="patch_5">
    <path d="M 424.318812 378.798691 
Q 424.318812 413.760683 424.318812 447.045623 
" clip-path="url(#p30908b027a)" style="fill: none; stroke: #8b5cf6; stroke-width: 1.5; stroke-linecap: round"/>
    <path d="M 428.318812 439.045623 
L 424.318812 447.045623 
L 420.318812 439.045623 
" clip-path="url(#p30908b027a)" style="fill: none; stroke: #8b5cf6; stroke-width: 1.5; stroke-linecap: round"/>
   </g>
   <g id="patch_6">
    <path d="M 189.516832 173.52 
L 382.883168 173.52 
Q 393.932673 173.52 393.932673 155.04 
L 393.932673 81.12 
Q 393.932673 62.64 382.883168 62.64 
L 189.516832 62.64 
Q 178.467327 62.64 178.467327 81.12 
L 178.467327 155.04 
Q 178.467327 173.52 189.516832 173.52 
z
" clip-path="url(#p30908b027a)" style="fill: #2563eb; opacity: 0.2; stroke: #2563eb; stroke-width: 1.5; stroke-linejoin: miter"/>
   </g>
   <g id="patch_7">
    <path d="M 51.39802 395.28 
L 244.764356 395.28 
Q 255.813861 395.28 255.813861 376.8 
L 255.813861 302.88 
Q 255.813861 284.4 244.764356 284.4 
L 51.39802 284.4 
Q 40.348515 284.4 40.348515 302.88 
L 40.348515 376.8 
Q 40.348515 395.28 51.39802 395.28 
z
" clip-path="url(#p30908b027a)" style="fill: #10b981; opacity: 0.2; stroke: #10b981; stroke-width: 1.5; stroke-linejoin: miter"/>
   </g>
   <g id="patch_8">
    <path d="M 327.635644 395.28 
L 521.00198 395.28 
Q 532.051485 395.28 532.051485 376.8 
L 532.051485 302.88 
Q 532.051485 284.4 521.00198 284.4 
L 327.635644 284.4 
Q 316.586139 284.4 316.586139 302.88 
L 316.586139 376.8 
Q 316.586139 395.28 327.635644 395.28 
z
" clip-path="url(#p30908b027a)" style="fill: #f59e0b; opacity: 0.2; stroke: #f59e0b; stroke-width: 1.5; stroke-linejoin: miter"/>
   </g>
   <g id="patch_9">
    <path d="M 51.39802 617.04 
L 244.764356 617.04 
Q 255.813861 617.04 255.813861 598.56 
L 255.813861 524.64 
Q 255.813861 506.16 244.764356 506.16 
L 51.39802 506.16 
Q 40.348515 506.16 40.348515 524.64 
L 40.348515 598.56 
Q 40.348515 617.04 51.39802 617.04 
z
" clip-path="url(#p30908b027a)" style="fill: #8b5cf6; opacity: 0.2; stroke: #8b5cf6; stroke-width: 1.5; stroke-linejoin: miter"/>
   </g>
   <g id="patch_10">
    <path d="M 327.635644 617.04 
L 521.00198 617.04 
Q 532.051485 617.04 532.051485 598.56 
L 532.051485 524.64 
Q 532.051485 506.16 521.00198 506.16 
L 327.635644 506.16 
Q 316.586139 506.16 316.586139 524.64 
L 316.586139 598.56 
Q 316.586139 617.04 327.635644 617.04 
z
" clip-path="url(#p30908b027a)" style="fill: #8b5cf6; opacity: 0.2; stroke: #8b5cf6; stroke-width: 1.5; stroke-linejoin: miter"/>
   </g>
   <g id="text_1">
    <!-- Site Size? -->
    <g style="fill: #2563eb" transform="translate(253.375312 121.39125) scale(0.12 -0.12)">
     <defs>
      <path id="DejaVuSans-Bold-53" d="M 3834 4519 
L 3834 3531 
Q 3450 3703 3084 3790 
Q 2719 3878 2394 3878 
Q 1963 3878 1756 3759 
Q 1550 3641 1550 3391 
Q 1550 3203 1689 3098 
Q 1828 2994 2194 2919 
L 2706 2816 
Q 3484 2659 3812 2340 
Q 4141 2022 4141 1434 
Q 4141 663 3683 286 
Q 3225 -91 2284 -91 
Q 1841 -91 1394 -6 
Q 947 78 500 244 
L 500 1259 
Q 947 1022 1364 901 
Q 1781 781 2169 781 
Q 2563 781 2772 912 
Q 2981 1044 2981 1288 
Q 2981 1506 2839 1625 
Q 2697 1744 2272 1838 
L 1806 1941 
Q 1106 2091 782 2419 
Q 459 2747 459 3303 
Q 459 4000 909 4375 
Q 1359 4750 2203 4750 
Q 2588 4750 2994 4692 
Q 3400 4634 3834 4519 
z
" transform="scale(0.015625)"/>
      <path id="DejaVuSans-Bold-69" d="M 538 3500 
L 1656 3500 
L 1656 0 
L 538 0 
L 538 3500 
z
M 538 4863 
L 1656 4863 
L 1656 3950 
L 538 3950 
L 538 4863 
z
" transform="scale(0.015625)"/>
      <path id="DejaVuSans-Bold-74" d="M 1759 4494 
L 1759 3500 
L 2913 3500 
L 2913 2700 
L 1759 2700 
L 1759 1216 
Q 1759 972 1856 886 
Q 1953 800 2241 800 
L 2816 800 
L 2816 0 
L 1856 0 
Q 1194 0 917 276 
Q 641 553 641 1216 
L 641 2700 
L 84 2700 
L 84 3500 
L 641 3500 
L 641 4494 
L 1759 4494 
z
" transform="scale(0.015625)"/>
      <path id="DejaVuSans-Bold-65" d="M 4031 1759 
L 4031 1441 
L 1416 1441 
Q 1456 1047 1700 850 
Q 1944 653 2381 653 
Q 2734 653 3104 758 
Q 3475 863 3866 1075 
L 3866 213 
Q 3469 63 3072 -14 
Q 2675 -91 2278 -91 
Q 1328 -91 801 392 
Q 275 875 275 1747 
Q 275 2603 792 3093 
Q 1309 3584 2216 3584 
Q 3041 3584 3536 3087 
Q 4031 2591 4031 1759 
z
M 2881 2131 
Q 2881 2450 2695 2645 
Q 2509 2841 2209 2841 
Q 1884 2841 1681 2658 
Q 1478 2475 1428 2131 
L 2881 2131 
z
" transform="scale(0.015625)"/>
      <path id="DejaVuSans-Bold-20" transform="scale(0.015625)"/>
      <path id="DejaVuSans-Bold-7a" d="M 366 3500 
L 3419 3500 
L 3419 2719 
L 1575 800 
L 3419 800 
L 3419 0 
L 288 0 
L 288 781 
L 2131 2700 
L 366 2700 
L 366 3500 
z
" transform="scale(0.015625)"/>
      <path id="DejaVuSans-Bold-3f" d="M 2216 1575 
L 1088 1575 
L 1088 1728 
Q 1088 1984 1191 2182 
Q 1294 2381 1625 2688 
L 1825 2869 
Q 2003 3031 2086 3175 
Q 2169 3319 2169 3463 
Q 2169 3681 2019 3804 
Q 1869 3928 1600 3928 
Q 1347 3928 1053 3823 
Q 759 3719 441 3513 
L 441 4494 
Q 819 4625 1131 4687 
Q 1444 4750 1734 4750 
Q 2497 4750 2897 4439 
Q 3297 4128 3297 3531 
Q 3297 3225 3175 2983 
Q 3053 2741 2759 2463 
L 2559 2284 
Q 2347 2091 2281 1973 
Q 2216 1856 2216 1716 
L 2216 1575 
z
M 1088 1113 
L 2216 1113 
L 2216 0 
L 1088 0 
L 1088 1113 
z
" transform="scale(0.015625)"/>
     </defs>
     <use xlink:href="#DejaVuSans-Bold-53"/>
     <use xlink:href="#DejaVuSans-Bold-69" transform="translate(72.021484 0)"/>
     <use xlink:href="#DejaVuSans-Bold-74" transform="translate(106.298828 0)"/>
     <use xlink:href="#DejaVuSans-Bold-65" transform="translate(154.101562 0)"/>
     <use xlink:href="#DejaVuSans-Bold-20" transform="translate(221.923828 0)"/>
     <use xlink:href="#DejaVuSans-Bold-53" transform="translate(256.738281 0)"/>
     <use xlink:href="#DejaVuSans-Bold-69" transform="translate(328.759766 0)"/>
     <use xlink:href="#DejaVuSans-Bold-7a" transform="translate(363.037109 0)"/>
     <use xlink:href="#DejaVuSans-Bold-65" transform="translate(421.240234 0)"/>
     <use xlink:href="#DejaVuSans-Bold-3f" transform="translate(489.0625 0)"/>
    </g>
   </g>
   <g id="text_2">
    <!-- Small: -->
    <g style="fill: #10b981" transform="translate(126.946188 336.432563) scale(0.12 -0.12)">
     <defs>
      <path id="DejaVuSans-Bold-6d" d="M 3781 2919 
Q 3994 3244 4286 3414 
Q 4578 3584 4928 3584 
Q 5531 3584 5847 3212 
Q 6163 2841 6163 2131 
L 6163 0 
L 5038 0 
L 5038 1825 
Q 5041 1866 5042 1909 
Q 5044 1953 5044 2034 
Q 5044 2406 4934 2573 
Q 4825 2741 4581 2741 
Q 4263 2741 4089 2478 
Q 3916 2216 3909 1719 
L 3909 0 
L 2784 0 
L 2784 1825 
Q 2784 2406 2684 2573 
Q 2584 2741 2328 2741 
Q 2006 2741 1831 2477 
Q 1656 2213 1656 1722 
L 1656 0 
L 531 0 
L 531 3500 
L 1656 3500 
L 1656 2988 
Q 1863 3284 2130 3434 
Q 2397 3584 2719 3584 
Q 3081 3584 3359 3409 
Q 3638 3234 3781 2919 
z
" transform="scale(0.015625)"/>
      <path id="DejaVuSans-Bold-61" d="M 2106 1575 
Q 1756 1575 1579 1456 
Q 1403 1338 1403 1106 
Q 1403 894 1545 773 
Q 1688 653 1941 653 
Q 2256 653 2472 879 
Q 2688 1106 2688 1447 
L 2688 1575 
L 2106 1575 
z
M 3816 1997 
L 3816 0 
L 2688 0 
L 2688 519 
Q 2463 200 2181 54 
Q 1900 -91 1497 -91 
Q 953 -91 614 226 
Q 275 544 275 1050 
Q 275 1666 698 1953 
Q 1122 2241 2028 2241 
L 2688 2241 
L 2688 2328 
Q 2688 2594 2478 2717 
Q 2269 2841 1825 2841 
Q 1466 2841 1156 2769 
Q 847 2697 581 2553 
L 581 3406 
Q 941 3494 1303 3539 
Q 1666 3584 2028 3584 
Q 2975 3584 3395 3211 
Q 3816 2838 3816 1997 
z
" transform="scale(0.015625)"/>
      <path id="DejaVuSans-Bold-6c" d="M 538 4863 
L 1656 4863 
L 1656 0 
L 538 0 
L 538 4863 
z
" transform="scale(0.015625)"/>
      <path id="DejaVuSans-Bold-3a" d="M 716 3500 
L 1844 3500 
L 1844 2291 
L 716 2291 
L 716 3500 
z
M 716 1209 
L 1844 1209 
L 1844 0 
L 716 0 
L 716 1209 
z
" transform="scale(0.015625)"/>
     </defs>
     <use xlink:href="#DejaVuSans-Bold-53"/>
     <use xlink:href="#DejaVuSans-Bold-6d" transform="translate(72.021484 0)"/>
     <use xlink:href="#DejaVuSans-Bold-61" transform="translate(176.220703 0)"/>
     <use xlink:href="#DejaVuSans-Bold-6c" transform="translate(243.701172 0)"/>
     <use xlink:href="#DejaVuSans-Bold-6c" transform="translate(277.978516 0)"/>
     <use xlink:href="#DejaVuSans-Bold-3a" transform="translate(312.255859 0)"/>
    </g>
    <!-- Flat Structure -->
    <g style="fill: #10b981" transform="translate(100.776813 349.869938) scale(0.12 -0.12)">
     <defs>
      <path id="DejaVuSans-Bold-46" d="M 588 4666 
L 3834 4666 
L 3834 3756 
L 1791 3756 
L 1791 2888 
L 3713 2888 
L 3713 1978 
L 1791 1978 
L 1791 0 
L 588 0 
L 588 4666 
z
" transform="scale(0.015625)"/>
      <path id="DejaVuSans-Bold-72" d="M 3138 2547 
Q 2991 2616 2845 2648 
Q 2700 2681 2553 2681 
Q 2122 2681 1889 2404 
Q 1656 2128 1656 1613 
L 1656 0 
L 538 0 
L 538 3500 
L 1656 3500 
L 1656 2925 
Q 1872 3269 2151 3426 
Q 2431 3584 2822 3584 
Q 2878 3584 2943 3579 
Q 3009 3575 3134 3559 
L 3138 2547 
z
" transform="scale(0.015625)"/>
      <path id="DejaVuSans-Bold-75" d="M 500 1363 
L 500 3500 
L 1625 3500 
L 1625 3150 
Q 1625 2866 1622 2436 
Q 1619 2006 1619 1863 
Q 1619 1441 1641 1255 
Q 1663 1069 1716 984 
Q 1784 875 1895 815 
Q 2006 756 2150 756 
Q 2500 756 2700 1025 
Q 2900 1294 2900 1772 
L 2900 3500 
L 4019 3500 
L 4019 0 
L 2900 0 
L 2900 506 
Q 2647 200 2364 54 
Q 2081 -91 1741 -91 
Q 1134 -91 817 281 
Q 500 653 500 1363 
z
" transform="scale(0.015625)"/>
      <path id="DejaVuSans-Bold-63" d="M 3366 3391 
L 3366 2478 
Q 3138 2634 2908 2709 
Q 2678 2784 2431 2784 
Q 1963 2784 1702 2511 
Q 1441 2238 1441 1747 
Q 1441 1256 1702 982 
Q 1963 709 2431 709 
Q 2694 709 2930 787 
Q 3166 866 3366 1019 
L 3366 103 
Q 3103 6 2833 -42 
Q 2563 -91 2291 -91 
Q 1344 -91 809 395 
Q 275 881 275 1747 
Q 275 2613 809 3098 
Q 1344 3584 2291 3584 
Q 2566 3584 2833 3536 
Q 3100 3488 3366 3391 
z
" transform="scale(0.015625)"/>
     </defs>
     <use xlink:href="#DejaVuSans-Bold-46"/>
     <use xlink:href="#DejaVuSans-Bold-6c" transform="translate(68.310547 0)"/>
     <use xlink:href="#DejaVuSans-Bold-61" transform="translate(102.587891 0)"/>
     <use xlink:href="#DejaVuSans-Bold-74" transform="translate(170.068359 0)"/>
     <use xlink:href="#DejaVuSans-Bold-20" transform="translate(217.871094 0)"/>
     <use xlink:href="#DejaVuSans-Bold-53" transform="translate(252.685547 0)"/>
     <use xlink:href="#DejaVuSans-Bold-74" transform="translate(324.707031 0)"/>
     <use xlink:href="#DejaVuSans-Bold-72" transform="translate(372.509766 0)"/>
     <use xlink:href="#DejaVuSans-Bold-75" transform="translate(421.826172 0)"/>
     <use xlink:href="#DejaVuSans-Bold-63" transform="translate(493.017578 0)"/>
     <use xlink:href="#DejaVuSans-Bold-74" transform="translate(552.294922 0)"/>
     <use xlink:href="#DejaVuSans-Bold-75" transform="translate(600.097656 0)"/>
     <use xlink:href="#DejaVuSans-Bold-72" transform="translate(671.289062 0)"/>
     <use xlink:href="#DejaVuSans-Bold-65" transform="translate(720.605469 0)"/>
    </g>
   </g>
   <g id="text_3">
    <!-- Large: -->
    <g style="fill: #f59e0b" transform="translate(402.724437 336.338813) scale(0.12 -0.12)">
     <defs>
      <path id="DejaVuSans-Bold-4c" d="M 588 4666 
L 1791 4666 
L 1791 909 
L 3903 909 
L 3903 0 
L 588 0 
L 588 4666 
z
" transform="scale(0.015625)"/>
      <path id="DejaVuSans-Bold-67" d="M 2919 594 
Q 2688 288 2409 144 
Q 2131 0 1766 0 
Q 1125 0 706 504 
Q 288 1009 288 1791 
Q 288 2575 706 3076 
Q 1125 3578 1766 3578 
Q 2131 3578 2409 3434 
Q 2688 3291 2919 2981 
L 2919 3500 
L 4044 3500 
L 4044 353 
Q 4044 -491 3511 -936 
Q 2978 -1381 1966 -1381 
Q 1638 -1381 1331 -1331 
Q 1025 -1281 716 -1178 
L 716 -306 
Q 1009 -475 1290 -558 
Q 1572 -641 1856 -641 
Q 2406 -641 2662 -400 
Q 2919 -159 2919 353 
L 2919 594 
z
M 2181 2772 
Q 1834 2772 1640 2515 
Q 1447 2259 1447 1791 
Q 1447 1309 1634 1061 
Q 1822 813 2181 813 
Q 2531 813 2725 1069 
Q 2919 1325 2919 1791 
Q 2919 2259 2725 2515 
Q 2531 2772 2181 2772 
z
" transform="scale(0.015625)"/>
     </defs>
     <use xlink:href="#DejaVuSans-Bold-4c"/>
     <use xlink:href="#DejaVuSans-Bold-61" transform="translate(63.720703 0)"/>
     <use xlink:href="#DejaVuSans-Bold-72" transform="translate(131.201172 0)"/>
     <use xlink:href="#DejaVuSans-Bold-67" transform="translate(180.517578 0)"/>
     <use xlink:href="#DejaVuSans-Bold-65" transform="translate(252.099609 0)"/>
     <use xlink:href="#DejaVuSans-Bold-3a" transform="translate(319.921875 0)"/>
    </g>
    <!-- Hierarchical -->
    <g style="fill: #f59e0b" transform="translate(383.656624 349.869938) scale(0.12 -0.12)">
     <defs>
      <path id="DejaVuSans-Bold-48" d="M 588 4666 
L 1791 4666 
L 1791 2888 
L 3566 2888 
L 3566 4666 
L 4769 4666 
L 4769 0 
L 3566 0 
L 3566 1978 
L 1791 1978 
L 1791 0 
L 588 0 
L 588 4666 
z
" transform="scale(0.015625)"/>
      <path id="DejaVuSans-Bold-68" d="M 4056 2131 
L 4056 0 
L 2931 0 
L 2931 347 
L 2931 1625 
Q 2931 2084 2911 2256 
Q 2891 2428 2841 2509 
Q 2775 2619 2662 2680 
Q 2550 2741 2406 2741 
Q 2056 2741 1856 2470 
Q 1656 2200 1656 1722 
L 1656 0 
L 538 0 
L 538 4863 
L 1656 4863 
L 1656 2988 
Q 1909 3294 2193 3439 
Q 2478 3584 2822 3584 
Q 3428 3584 3742 3212 
Q 4056 2841 4056 2131 
z
" transform="scale(0.015625)"/>
     </defs>
     <use xlink:href="#DejaVuSans-Bold-48"/>
     <use xlink:href="#DejaVuSans-Bold-69" transform="translate(83.691406 0)"/>
     <use xlink:href="#DejaVuSans-Bold-65" transform="translate(117.96875 0)"/>
     <use xlink:href="#DejaVuSans-Bold-72" transform="translate(185.791016 0)"/>
     <use xlink:href="#DejaVuSans-Bold-61" transform="translate(235.107422 0)"/>
     <use xlink:href="#DejaVuSans-Bold-72" transform="translate(302.587891 0)"/>
     <use xlink:href="#DejaVuSans-Bold-63" transform="translate(351.904297 0)"/>
     <use xlink:href="#DejaVuSans-Bold-68" transform="translate(411.181641 0)"/>
     <use xlink:href="#DejaVuSans-Bold-69" transform="translate(482.373047 0)"/>
     <use xlink:href="#DejaVuSans-Bold-63" transform="translate(516.650391 0)"/>
     <use xlink:href="#DejaVuSans-Bold-61" transform="translate(575.927734 0)"/>
     <use xlink:href="#DejaVuSans-Bold-6c" transform="translate(643.408203 0)"/>
    </g>
   </g>
   <g id="text_4">
    <!-- Content Type? -->
    <g style="fill: #8b5cf6" transform="translate(99.981813 564.8175) scale(0.12 -0.12)">
     <defs>
      <path id="DejaVuSans-Bold-43" d="M 4288 256 
Q 3956 84 3597 -3 
Q 3238 -91 2847 -91 
Q 1681 -91 1000 561 
Q 319 1213 319 2328 
Q 319 3447 1000 4098 
Q 1681 4750 2847 4750 
Q 3238 4750 3597 4662 
Q 3956 4575 4288 4403 
L 4288 3438 
Q 3953 3666 3628 3772 
Q 3303 3878 2944 3878 
Q 2300 3878 1931 3465 
Q 1563 3053 1563 2328 
Q 1563 1606 1931 1193 
Q 2300 781 2944 781 
Q 3303 781 3628 887 
Q 3953 994 4288 1222 
L 4288 256 
z
" transform="scale(0.015625)"/>
      <path id="DejaVuSans-Bold-6f" d="M 2203 2784 
Q 1831 2784 1636 2517 
Q 1441 2250 1441 1747 
Q 1441 1244 1636 976 
Q 1831 709 2203 709 
Q 2569 709 2762 976 
Q 2956 1244 2956 1747 
Q 2956 2250 2762 2517 
Q 2569 2784 2203 2784 
z
M 2203 3584 
Q 3106 3584 3614 3096 
Q 4122 2609 4122 1747 
Q 4122 884 3614 396 
Q 3106 -91 2203 -91 
Q 1297 -91 786 396 
Q 275 884 275 1747 
Q 275 2609 786 3096 
Q 1297 3584 2203 3584 
z
" transform="scale(0.015625)"/>
      <path id="DejaVuSans-Bold-6e" d="M 4056 2131 
L 4056 0 
L 2931 0 
L 2931 347 
L 2931 1631 
Q 2931 2084 2911 2256 
Q 2891 2428 2841 2509 
Q 2775 2619 2662 2680 
Q 2550 2741 2406 2741 
Q 2056 2741 1856 2470 
Q 1656 2200 1656 1722 
L 1656 0 
L 538 0 
L 538 3500 
L 1656 3500 
L 1656 2988 
Q 1909 3294 2193 3439 
Q 2478 3584 2822 3584 
Q 3428 3584 3742 3212 
Q 4056 2841 4056 2131 
z
" transform="scale(0.015625)"/>
      <path id="DejaVuSans-Bold-54" d="M 31 4666 
L 4331 4666 
L 4331 3756 
L 2784 3756 
L 2784 0 
L 1581 0 
L 1581 3756 
L 31 3756 
L 31 4666 
z
" transform="scale(0.015625)"/>
      <path id="DejaVuSans-Bold-79" d="M 78 3500 
L 1197 3500 
L 2138 1125 
L 2938 3500 
L 4056 3500 
L 2584 -331 
Q 2363 -916 2067 -1148 
Q 1772 -1381 1288 -1381 
L 641 -1381 
L 641 -647 
L 991 -647 
Q 1275 -647 1404 -556 
Q 1534 -466 1606 -231 
L 1638 -134 
L 78 3500 
z
" transform="scale(0.015625)"/>
      <path id="DejaVuSans-Bold-70" d="M 1656 506 
L 1656 -1331 
L 538 -1331 
L 538 3500 
L 1656 3500 
L 1656 2988 
Q 1888 3294 2169 3439 
Q 2450 3584 2816 3584 
Q 3463 3584 3878 3070 
Q 4294 2556 4294 1747 
Q 4294 938 3878 423 
Q 3463 -91 2816 -91 
Q 2450 -91 2169 54 
Q 1888 200 1656 506 
z
M 2400 2772 
Q 2041 2772 1848 2508 
Q 1656 2244 1656 1747 
Q 1656 1250 1848 986 
Q 2041 722 2400 722 
Q 2759 722 2948 984 
Q 3138 1247 3138 1747 
Q 3138 2247 2948 2509 
Q 2759 2772 2400 2772 
z
" transform="scale(0.015625)"/>
     </defs>
     <use xlink:href="#DejaVuSans-Bold-43"/>
     <use xlink:href="#DejaVuSans-Bold-6f" transform="translate(73.388672 0)"/>
     <use xlink:href="#DejaVuSans-Bold-6e" transform="translate(142.089844 0)"/>
     <use xlink:href="#DejaVuSans-Bold-74" transform="translate(213.28125 0)"/>
     <use xlink:href="#DejaVuSans-Bold-65" transform="translate(261.083984 0)"/>
     <use xlink:href="#DejaVuSans-Bold-6e" transform="translate(328.90625 0)"/>
     <use xlink:href="#DejaVuSans-Bold-74" transform="translate(400.097656 0)"/>
     <use xlink:href="#DejaVuSans-Bold-20" transform="translate(447.900391 0)"/>
     <use xlink:href="#DejaVuSans-Bold-54" transform="translate(482.714844 0)"/>
     <use xlink:href="#DejaVuSans-Bold-79" transform="translate(539.052734 0)"/>
     <use xlink:href="#DejaVuSans-Bold-70" transform="translate(604.238281 0)"/>
     <use xlink:href="#DejaVuSans-Bold-65" transform="translate(675.820312 0)"/>
     <use xlink:href="#DejaVuSans-Bold-3f" transform="translate(743.642578 0)"/>
    </g>
   </g>
   <g id="text_5">
    <!-- Content Type? -->
    <g style="fill: #8b5cf6" transform="translate(376.219437 564.8175) scale(0.12 -0.12)">
     <use xlink:href="#DejaVuSans-Bold-43"/>
     <use xlink:href="#DejaVuSans-Bold-6f" transform="translate(73.388672 0)"/>
     <use xlink:href="#DejaVuSans-Bold-6e" transform="translate(142.089844 0)"/>
     <use xlink:href="#DejaVuSans-Bold-74" transform="translate(213.28125 0)"/>
     <use xlink:href="#DejaVuSans-Bold-65" transform="translate(261.083984 0)"/>
     <use xlink:href="#DejaVuSans-Bold-6e" transform="translate(328.90625 0)"/>
     <use xlink:href="#DejaVuSans-Bold-74" transform="translate(400.097656 0)"/>
     <use xlink:href="#DejaVuSans-Bold-20" transform="translate(447.900391 0)"/>
     <use xlink:href="#DejaVuSans-Bold-54" transform="translate(482.714844 0)"/>
     <use xlink:href="#DejaVuSans-Bold-79" transform="translate(539.052734 0)"/>
     <use xlink:href="#DejaVuSans-Bold-70" transform="translate(604.238281 0)"/>
     <use xlink:href="#DejaVuSans-Bold-65" transform="translate(675.820312 0)"/>
     <use xlink:href="#DejaVuSans-Bold-3f" transform="translate(743.642578 0)"/>
    </g>
   </g>
  </g>
 </g>
 <defs>
  <clipPath id="p30908b027a">
   <rect x="7.2" y="7.2" width="558" height="665.28"/>
  </clipPath>
 </defs>
</svg>
