<?xml version="1.0" encoding="utf-8" standalone="no"?>
<!DOCTYPE svg PUBLIC "-//W3C//DTD SVG 1.1//EN"
  "http://www.w3.org/Graphics/SVG/1.1/DTD/svg11.dtd">
<svg xmlns:xlink="http://www.w3.org/1999/xlink" width="684pt" height="568.8pt" viewBox="0 0 684 568.8" xmlns="http://www.w3.org/2000/svg" version="1.1">
 <metadata>
  <rdf:RDF xmlns:dc="http://purl.org/dc/elements/1.1/" xmlns:cc="http://creativecommons.org/ns#" xmlns:rdf="http://www.w3.org/1999/02/22-rdf-syntax-ns#">
   <cc:Work>
    <dc:type rdf:resource="http://purl.org/dc/dcmitype/StillImage"/>
    <dc:date>2025-12-27T10:17:18.397517</dc:date>
    <dc:format>image/svg+xml</dc:format>
    <dc:creator>
     <cc:Agent>
      <dc:title>Matplotlib v3.10.8, https://matplotlib.org/</dc:title>
     </cc:Agent>
    </dc:creator>
   </cc:Work>
  </rdf:RDF>
 </metadata>
 <defs>
  <style type="text/css">*{stroke-linejoin: round; stroke-linecap: butt}</style>
 </defs>
 <g id="figure_1">
  <g id="patch_1">
   <path d="M 0 568.8 
L 684 568.8 
L 684 0 
L 0 0 
z
" style="fill: #f8f9fa"/>
  </g>
  <g id="axes_1">
   <g id="patch_2">
    <path d="M 51.471074 203.922581 
L 300.495868 203.922581 
Q 306.029752 203.922581 306.029752 194.980645 
L 306.029752 123.445161 
Q 306.029752 114.503226 300.495868 114.503226 
L 51.471074 114.503226 
Q 45.93719 114.503226 45.93719 123.445161 
L 45.93719 194.980645 
Q 45.93719 203.922581 51.471074 203.922581 
z
" clip-path="url(#pe48729b5f7)" style="fill: #10b981; opacity: 0.15; stroke: #10b981; stroke-width: 1.5; stroke-linejoin: miter"/>
   </g>
   <g id="patch_3">
    <path d="M 383.504132 203.922581 
L 632.528926 203.922581 
Q 638.06281 203.922581 638.06281 194.980645 
L 638.06281 123.445161 
Q 638.06281 114.503226 632.528926 114.503226 
L 383.504132 114.503226 
Q 377.970248 114.503226 377.970248 123.445161 
L 377.970248 194.980645 
Q 377.970248 203.922581 383.504132 203.922581 
z
" clip-path="url(#pe48729b5f7)" style="fill: #ef4444; opacity: 0.15; stroke: #ef4444; stroke-width: 1.5; stroke-linejoin: miter"/>
   </g>
   <g id="patch_4">
    <path d="M 51.471074 302.283871 
L 300.495868 302.283871 
Q 306.029752 302.283871 306.029752 293.341935 
L 306.029752 221.806452 
Q 306.029752 212.864516 300.495868 212.864516 
L 51.471074 212.864516 
Q 45.93719 212.864516 45.93719 221.806452 
L 45.93719 293.341935 
Q 45.93719 302.283871 51.471074 302.283871 
z
" clip-path="url(#pe48729b5f7)" style="fill: #10b981; opacity: 0.15; stroke: #10b981; stroke-width: 1.5; stroke-linejoin: miter"/>
   </g>
   <g id="patch_5">
    <path d="M 383.504132 302.283871 
L 632.528926 302.283871 
Q 638.06281 302.283871 638.06281 293.341935 
L 638.06281 221.806452 
Q 638.06281 212.864516 632.528926 212.864516 
L 383.504132 212.864516 
Q 377.970248 212.864516 377.970248 221.806452 
L 377.970248 293.341935 
Q 377.970248 302.283871 383.504132 302.283871 
z
" clip-path="url(#pe48729b5f7)" style="fill: #ef4444; opacity: 0.15; stroke: #ef4444; stroke-width: 1.5; stroke-linejoin: miter"/>
   </g>
   <g id="patch_6">
    <path d="M 51.471074 400.645161 
L 300.495868 400.645161 
Q 306.029752 400.645161 306.029752 391.703226 
L 306.029752 320.167742 
Q 306.029752 311.225806 300.495868 311.225806 
L 51.471074 311.225806 
Q 45.93719 311.225806 45.93719 320.167742 
L 45.93719 391.703226 
Q 45.93719 400.645161 51.471074 400.645161 
z
" clip-path="url(#pe48729b5f7)" style="fill: #10b981; opacity: 0.15; stroke: #10b981; stroke-width: 1.5; stroke-linejoin: miter"/>
   </g>
   <g id="patch_7">
    <path d="M 383.504132 400.645161 
L 632.528926 400.645161 
Q 638.06281 400.645161 638.06281 391.703226 
L 638.06281 320.167742 
Q 638.06281 311.225806 632.528926 311.225806 
L 383.504132 311.225806 
Q 377.970248 311.225806 377.970248 320.167742 
L 377.970248 391.703226 
Q 377.970248 400.645161 383.504132 400.645161 
z
" clip-path="url(#pe48729b5f7)" style="fill: #ef4444; opacity: 0.15; stroke: #ef4444; stroke-width: 1.5; stroke-linejoin: miter"/>
   </g>
   <g id="patch_8">
    <path d="M 51.471074 499.006452 
L 300.495868 499.006452 
Q 306.029752 499.006452 306.029752 490.064516 
L 306.029752 418.529032 
Q 306.029752 409.587097 300.495868 409.587097 
L 51.471074 409.587097 
Q 45.93719 409.587097 45.93719 418.529032 
L 45.93719 490.064516 
Q 45.93719 499.006452 51.471074 499.006452 
z
" clip-path="url(#pe48729b5f7)" style="fill: #10b981; opacity: 0.15; stroke: #10b981; stroke-width: 1.5; stroke-linejoin: miter"/>
   </g>
   <g id="patch_9">
    <path d="M 383.504132 499.006452 
L 632.528926 499.006452 
Q 638.06281 499.006452 638.06281 490.064516 
L 638.06281 418.529032 
Q 638.06281 409.587097 632.528926 409.587097 
L 383.504132 409.587097 
Q 377.970248 409.587097 377.970248 418.529032 
L 377.970248 490.064516 
Q 377.970248 499.006452 383.504132 499.006452 
z
" clip-path="url(#pe48729b5f7)" style="fill: #ef4444; opacity: 0.15; stroke: #ef4444; stroke-width: 1.5; stroke-linejoin: miter"/>
   </g>
   <g id="text_1">
    <!-- Research &amp; Analysis -->
    <g style="fill: #10b981" transform="translate(107.276909 162.477278) scale(0.12 -0.12)">
     <defs>
      <path id="DejaVuSans-Bold-52" d="M 2297 2597 
Q 2675 2597 2839 2737 
Q 3003 2878 3003 3200 
Q 3003 3519 2839 3656 
Q 2675 3794 2297 3794 
L 1791 3794 
L 1791 2597 
L 2297 2597 
z
M 1791 1766 
L 1791 0 
L 588 0 
L 588 4666 
L 2425 4666 
Q 3347 4666 3776 4356 
Q 4206 4047 4206 3378 
Q 4206 2916 3982 2619 
Q 3759 2322 3309 2181 
Q 3556 2125 3751 1926 
Q 3947 1728 4147 1325 
L 4800 0 
L 3519 0 
L 2950 1159 
Q 2778 1509 2601 1637 
Q 2425 1766 2131 1766 
L 1791 1766 
z
" transform="scale(0.015625)"/>
      <path id="DejaVuSans-Bold-65" d="M 4031 1759 
L 4031 1441 
L 1416 1441 
Q 1456 1047 1700 850 
Q 1944 653 2381 653 
Q 2734 653 3104 758 
Q 3475 863 3866 1075 
L 3866 213 
Q 3469 63 3072 -14 
Q 2675 -91 2278 -91 
Q 1328 -91 801 392 
Q 275 875 275 1747 
Q 275 2603 792 3093 
Q 1309 3584 2216 3584 
Q 3041 3584 3536 3087 
Q 4031 2591 4031 1759 
z
M 2881 2131 
Q 2881 2450 2695 2645 
Q 2509 2841 2209 2841 
Q 1884 2841 1681 2658 
Q 1478 2475 1428 2131 
L 2881 2131 
z
" transform="scale(0.015625)"/>
      <path id="DejaVuSans-Bold-73" d="M 3272 3391 
L 3272 2541 
Q 2913 2691 2578 2766 
Q 2244 2841 1947 2841 
Q 1628 2841 1473 2761 
Q 1319 2681 1319 2516 
Q 1319 2381 1436 2309 
Q 1553 2238 1856 2203 
L 2053 2175 
Q 2913 2066 3209 1816 
Q 3506 1566 3506 1031 
Q 3506 472 3093 190 
Q 2681 -91 1863 -91 
Q 1516 -91 1145 -36 
Q 775 19 384 128 
L 384 978 
Q 719 816 1070 734 
Q 1422 653 1784 653 
Q 2113 653 2278 743 
Q 2444 834 2444 1013 
Q 2444 1163 2330 1236 
Q 2216 1309 1875 1350 
L 1678 1375 
Q 931 1469 631 1722 
Q 331 1975 331 2491 
Q 331 3047 712 3315 
Q 1094 3584 1881 3584 
Q 2191 3584 2531 3537 
Q 2872 3491 3272 3391 
z
" transform="scale(0.015625)"/>
      <path id="DejaVuSans-Bold-61" d="M 2106 1575 
Q 1756 1575 1579 1456 
Q 1403 1338 1403 1106 
Q 1403 894 1545 773 
Q 1688 653 1941 653 
Q 2256 653 2472 879 
Q 2688 1106 2688 1447 
L 2688 1575 
L 2106 1575 
z
M 3816 1997 
L 3816 0 
L 2688 0 
L 2688 519 
Q 2463 200 2181 54 
Q 1900 -91 1497 -91 
Q 953 -91 614 226 
Q 275 544 275 1050 
Q 275 1666 698 1953 
Q 1122 2241 2028 2241 
L 2688 2241 
L 2688 2328 
Q 2688 2594 2478 2717 
Q 2269 2841 1825 2841 
Q 1466 2841 1156 2769 
Q 847 2697 581 2553 
L 581 3406 
Q 941 3494 1303 3539 
Q 1666 3584 2028 3584 
Q 2975 3584 3395 3211 
Q 3816 2838 3816 1997 
z
" transform="scale(0.015625)"/>
      <path id="DejaVuSans-Bold-72" d="M 3138 2547 
Q 2991 2616 2845 2648 
Q 2700 2681 2553 2681 
Q 2122 2681 1889 2404 
Q 1656 2128 1656 1613 
L 1656 0 
L 538 0 
L 538 3500 
L 1656 3500 
L 1656 2925 
Q 1872 3269 2151 3426 
Q 2431 3584 2822 3584 
Q 2878 3584 2943 3579 
Q 3009 3575 3134 3559 
L 3138 2547 
z
" transform="scale(0.015625)"/>
      <path id="DejaVuSans-Bold-63" d="M 3366 3391 
L 3366 2478 
Q 3138 2634 2908 2709 
Q 2678 2784 2431 2784 
Q 1963 2784 1702 2511 
Q 1441 2238 1441 1747 
Q 1441 1256 1702 982 
Q 1963 709 2431 709 
Q 2694 709 2930 787 
Q 3166 866 3366 1019 
L 3366 103 
Q 3103 6 2833 -42 
Q 2563 -91 2291 -91 
Q 1344 -91 809 395 
Q 275 881 275 1747 
Q 275 2613 809 3098 
Q 1344 3584 2291 3584 
Q 2566 3584 2833 3536 
Q 3100 3488 3366 3391 
z
" transform="scale(0.015625)"/>
      <path id="DejaVuSans-Bold-68" d="M 4056 2131 
L 4056 0 
L 2931 0 
L 2931 347 
L 2931 1625 
Q 2931 2084 2911 2256 
Q 2891 2428 2841 2509 
Q 2775 2619 2662 2680 
Q 2550 2741 2406 2741 
Q 2056 2741 1856 2470 
Q 1656 2200 1656 1722 
L 1656 0 
L 538 0 
L 538 4863 
L 1656 4863 
L 1656 2988 
Q 1909 3294 2193 3439 
Q 2478 3584 2822 3584 
Q 3428 3584 3742 3212 
Q 4056 2841 4056 2131 
z
" transform="scale(0.015625)"/>
      <path id="DejaVuSans-Bold-20" transform="scale(0.015625)"/>
      <path id="DejaVuSans-Bold-26" d="M 2497 3097 
L 3775 1691 
Q 3941 1909 4027 2181 
Q 4113 2453 4128 2797 
L 5100 2797 
Q 5053 2228 4879 1784 
Q 4706 1341 4397 1006 
L 5313 0 
L 3988 0 
L 3681 341 
Q 3353 122 2990 15 
Q 2628 -91 2222 -91 
Q 1400 -91 892 342 
Q 384 775 384 1459 
Q 384 1916 607 2267 
Q 831 2619 1338 2950 
Q 1206 3116 1143 3281 
Q 1081 3447 1081 3628 
Q 1081 4138 1478 4444 
Q 1875 4750 2534 4750 
Q 2819 4750 3126 4704 
Q 3434 4659 3769 4569 
L 3769 3700 
Q 3475 3850 3212 3922 
Q 2950 3994 2700 3994 
Q 2459 3994 2326 3901 
Q 2194 3809 2194 3641 
Q 2194 3534 2270 3398 
Q 2347 3263 2497 3097 
z
M 1875 2322 
Q 1672 2175 1569 1989 
Q 1466 1803 1466 1581 
Q 1466 1222 1731 969 
Q 1997 716 2369 716 
Q 2578 716 2759 780 
Q 2941 844 3097 972 
L 1875 2322 
z
" transform="scale(0.015625)"/>
      <path id="DejaVuSans-Bold-41" d="M 3419 850 
L 1538 850 
L 1241 0 
L 31 0 
L 1759 4666 
L 3194 4666 
L 4922 0 
L 3713 0 
L 3419 850 
z
M 1838 1716 
L 3116 1716 
L 2478 3572 
L 1838 1716 
z
" transform="scale(0.015625)"/>
      <path id="DejaVuSans-Bold-6e" d="M 4056 2131 
L 4056 0 
L 2931 0 
L 2931 347 
L 2931 1631 
Q 2931 2084 2911 2256 
Q 2891 2428 2841 2509 
Q 2775 2619 2662 2680 
Q 2550 2741 2406 2741 
Q 2056 2741 1856 2470 
Q 1656 2200 1656 1722 
L 1656 0 
L 538 0 
L 538 3500 
L 1656 3500 
L 1656 2988 
Q 1909 3294 2193 3439 
Q 2478 3584 2822 3584 
Q 3428 3584 3742 3212 
Q 4056 2841 4056 2131 
z
" transform="scale(0.015625)"/>
      <path id="DejaVuSans-Bold-6c" d="M 538 4863 
L 1656 4863 
L 1656 0 
L 538 0 
L 538 4863 
z
" transform="scale(0.015625)"/>
      <path id="DejaVuSans-Bold-79" d="M 78 3500 
L 1197 3500 
L 2138 1125 
L 2938 3500 
L 4056 3500 
L 2584 -331 
Q 2363 -916 2067 -1148 
Q 1772 -1381 1288 -1381 
L 641 -1381 
L 641 -647 
L 991 -647 
Q 1275 -647 1404 -556 
Q 1534 -466 1606 -231 
L 1638 -134 
L 78 3500 
z
" transform="scale(0.015625)"/>
      <path id="DejaVuSans-Bold-69" d="M 538 3500 
L 1656 3500 
L 1656 0 
L 538 0 
L 538 3500 
z
M 538 4863 
L 1656 4863 
L 1656 3950 
L 538 3950 
L 538 4863 
z
" transform="scale(0.015625)"/>
     </defs>
     <use xlink:href="#DejaVuSans-Bold-52"/>
     <use xlink:href="#DejaVuSans-Bold-65" transform="translate(77.001953 0)"/>
     <use xlink:href="#DejaVuSans-Bold-73" transform="translate(144.824219 0)"/>
     <use xlink:href="#DejaVuSans-Bold-65" transform="translate(204.345703 0)"/>
     <use xlink:href="#DejaVuSans-Bold-61" transform="translate(272.167969 0)"/>
     <use xlink:href="#DejaVuSans-Bold-72" transform="translate(339.648438 0)"/>
     <use xlink:href="#DejaVuSans-Bold-63" transform="translate(388.964844 0)"/>
     <use xlink:href="#DejaVuSans-Bold-68" transform="translate(448.242188 0)"/>
     <use xlink:href="#DejaVuSans-Bold-20" transform="translate(519.433594 0)"/>
     <use xlink:href="#DejaVuSans-Bold-26" transform="translate(554.248047 0)"/>
     <use xlink:href="#DejaVuSans-Bold-20" transform="translate(641.455078 0)"/>
     <use xlink:href="#DejaVuSans-Bold-41" transform="translate(676.269531 0)"/>
     <use xlink:href="#DejaVuSans-Bold-6e" transform="translate(753.662109 0)"/>
     <use xlink:href="#DejaVuSans-Bold-61" transform="translate(824.853516 0)"/>
     <use xlink:href="#DejaVuSans-Bold-6c" transform="translate(892.333984 0)"/>
     <use xlink:href="#DejaVuSans-Bold-79" transform="translate(926.611328 0)"/>
     <use xlink:href="#DejaVuSans-Bold-73" transform="translate(991.796875 0)"/>
     <use xlink:href="#DejaVuSans-Bold-69" transform="translate(1051.318359 0)"/>
     <use xlink:href="#DejaVuSans-Bold-73" transform="translate(1085.595703 0)"/>
    </g>
   </g>
   <g id="text_2">
    <!-- Content Generation Only -->
    <g style="fill: #ef4444" transform="translate(423.964029 162.477278) scale(0.12 -0.12)">
     <defs>
      <path id="DejaVuSans-Bold-43" d="M 4288 256 
Q 3956 84 3597 -3 
Q 3238 -91 2847 -91 
Q 1681 -91 1000 561 
Q 319 1213 319 2328 
Q 319 3447 1000 4098 
Q 1681 4750 2847 4750 
Q 3238 4750 3597 4662 
Q 3956 4575 4288 4403 
L 4288 3438 
Q 3953 3666 3628 3772 
Q 3303 3878 2944 3878 
Q 2300 3878 1931 3465 
Q 1563 3053 1563 2328 
Q 1563 1606 1931 1193 
Q 2300 781 2944 781 
Q 3303 781 3628 887 
Q 3953 994 4288 1222 
L 4288 256 
z
" transform="scale(0.015625)"/>
      <path id="DejaVuSans-Bold-6f" d="M 2203 2784 
Q 1831 2784 1636 2517 
Q 1441 2250 1441 1747 
Q 1441 1244 1636 976 
Q 1831 709 2203 709 
Q 2569 709 2762 976 
Q 2956 1244 2956 1747 
Q 2956 2250 2762 2517 
Q 2569 2784 2203 2784 
z
M 2203 3584 
Q 3106 3584 3614 3096 
Q 4122 2609 4122 1747 
Q 4122 884 3614 396 
Q 3106 -91 2203 -91 
Q 1297 -91 786 396 
Q 275 884 275 1747 
Q 275 2609 786 3096 
Q 1297 3584 2203 3584 
z
" transform="scale(0.015625)"/>
      <path id="DejaVuSans-Bold-74" d="M 1759 4494 
L 1759 3500 
L 2913 3500 
L 2913 2700 
L 1759 2700 
L 1759 1216 
Q 1759 972 1856 886 
Q 1953 800 2241 800 
L 2816 800 
L 2816 0 
L 1856 0 
Q 1194 0 917 276 
Q 641 553 641 1216 
L 641 2700 
L 84 2700 
L 84 3500 
L 641 3500 
L 641 4494 
L 1759 4494 
z
" transform="scale(0.015625)"/>
      <path id="DejaVuSans-Bold-47" d="M 4781 347 
Q 4331 128 3847 18 
Q 3363 -91 2847 -91 
Q 1681 -91 1000 561 
Q 319 1213 319 2328 
Q 319 3456 1012 4103 
Q 1706 4750 2913 4750 
Q 3378 4750 3804 4662 
Q 4231 4575 4609 4403 
L 4609 3438 
Q 4219 3659 3833 3768 
Q 3447 3878 3059 3878 
Q 2341 3878 1952 3476 
Q 1563 3075 1563 2328 
Q 1563 1588 1938 1184 
Q 2313 781 3003 781 
Q 3191 781 3352 804 
Q 3513 828 3641 878 
L 3641 1784 
L 2906 1784 
L 2906 2591 
L 4781 2591 
L 4781 347 
z
" transform="scale(0.015625)"/>
      <path id="DejaVuSans-Bold-4f" d="M 2719 3878 
Q 2169 3878 1866 3472 
Q 1563 3066 1563 2328 
Q 1563 1594 1866 1187 
Q 2169 781 2719 781 
Q 3272 781 3575 1187 
Q 3878 1594 3878 2328 
Q 3878 3066 3575 3472 
Q 3272 3878 2719 3878 
z
M 2719 4750 
Q 3844 4750 4481 4106 
Q 5119 3463 5119 2328 
Q 5119 1197 4481 553 
Q 3844 -91 2719 -91 
Q 1597 -91 958 553 
Q 319 1197 319 2328 
Q 319 3463 958 4106 
Q 1597 4750 2719 4750 
z
" transform="scale(0.015625)"/>
     </defs>
     <use xlink:href="#DejaVuSans-Bold-43"/>
     <use xlink:href="#DejaVuSans-Bold-6f" transform="translate(73.388672 0)"/>
     <use xlink:href="#DejaVuSans-Bold-6e" transform="translate(142.089844 0)"/>
     <use xlink:href="#DejaVuSans-Bold-74" transform="translate(213.28125 0)"/>
     <use xlink:href="#DejaVuSans-Bold-65" transform="translate(261.083984 0)"/>
     <use xlink:href="#DejaVuSans-Bold-6e" transform="translate(328.90625 0)"/>
     <use xlink:href="#DejaVuSans-Bold-74" transform="translate(400.097656 0)"/>
     <use xlink:href="#DejaVuSans-Bold-20" transform="translate(447.900391 0)"/>
     <use xlink:href="#DejaVuSans-Bold-47" transform="translate(482.714844 0)"/>
     <use xlink:href="#DejaVuSans-Bold-65" transform="translate(564.794922 0)"/>
     <use xlink:href="#DejaVuSans-Bold-6e" transform="translate(632.617188 0)"/>
     <use xlink:href="#DejaVuSans-Bold-65" transform="translate(703.808594 0)"/>
     <use xlink:href="#DejaVuSans-Bold-72" transform="translate(771.630859 0)"/>
     <use xlink:href="#DejaVuSans-Bold-61" transform="translate(820.947266 0)"/>
     <use xlink:href="#DejaVuSans-Bold-74" transform="translate(888.427734 0)"/>
     <use xlink:href="#DejaVuSans-Bold-69" transform="translate(936.230469 0)"/>
     <use xlink:href="#DejaVuSans-Bold-6f" transform="translate(970.507812 0)"/>
     <use xlink:href="#DejaVuSans-Bold-6e" transform="translate(1039.208984 0)"/>
     <use xlink:href="#DejaVuSans-Bold-20" transform="translate(1110.400391 0)"/>
     <use xlink:href="#DejaVuSans-Bold-4f" transform="translate(1145.214844 0)"/>
     <use xlink:href="#DejaVuSans-Bold-6e" transform="translate(1230.224609 0)"/>
     <use xlink:href="#DejaVuSans-Bold-6c" transform="translate(1301.416016 0)"/>
     <use xlink:href="#DejaVuSans-Bold-79" transform="translate(1335.693359 0)"/>
    </g>
   </g>
   <g id="text_3">
    <!-- Data Processing -->
    <g style="fill: #10b981" transform="translate(121.077846 260.838569) scale(0.12 -0.12)">
     <defs>
      <path id="DejaVuSans-Bold-44" d="M 1791 3756 
L 1791 909 
L 2222 909 
Q 2959 909 3348 1275 
Q 3738 1641 3738 2338 
Q 3738 3031 3350 3393 
Q 2963 3756 2222 3756 
L 1791 3756 
z
M 588 4666 
L 1856 4666 
Q 2919 4666 3439 4514 
Q 3959 4363 4331 4000 
Q 4659 3684 4818 3271 
Q 4978 2859 4978 2338 
Q 4978 1809 4818 1395 
Q 4659 981 4331 666 
Q 3956 303 3431 151 
Q 2906 0 1856 0 
L 588 0 
L 588 4666 
z
" transform="scale(0.015625)"/>
      <path id="DejaVuSans-Bold-50" d="M 588 4666 
L 2584 4666 
Q 3475 4666 3951 4270 
Q 4428 3875 4428 3144 
Q 4428 2409 3951 2014 
Q 3475 1619 2584 1619 
L 1791 1619 
L 1791 0 
L 588 0 
L 588 4666 
z
M 1791 3794 
L 1791 2491 
L 2456 2491 
Q 2806 2491 2997 2661 
Q 3188 2831 3188 3144 
Q 3188 3456 2997 3625 
Q 2806 3794 2456 3794 
L 1791 3794 
z
" transform="scale(0.015625)"/>
      <path id="DejaVuSans-Bold-67" d="M 2919 594 
Q 2688 288 2409 144 
Q 2131 0 1766 0 
Q 1125 0 706 504 
Q 288 1009 288 1791 
Q 288 2575 706 3076 
Q 1125 3578 1766 3578 
Q 2131 3578 2409 3434 
Q 2688 3291 2919 2981 
L 2919 3500 
L 4044 3500 
L 4044 353 
Q 4044 -491 3511 -936 
Q 2978 -1381 1966 -1381 
Q 1638 -1381 1331 -1331 
Q 1025 -1281 716 -1178 
L 716 -306 
Q 1009 -475 1290 -558 
Q 1572 -641 1856 -641 
Q 2406 -641 2662 -400 
Q 2919 -159 2919 353 
L 2919 594 
z
M 2181 2772 
Q 1834 2772 1640 2515 
Q 1447 2259 1447 1791 
Q 1447 1309 1634 1061 
Q 1822 813 2181 813 
Q 2531 813 2725 1069 
Q 2919 1325 2919 1791 
Q 2919 2259 2725 2515 
Q 2531 2772 2181 2772 
z
" transform="scale(0.015625)"/>
     </defs>
     <use xlink:href="#DejaVuSans-Bold-44"/>
     <use xlink:href="#DejaVuSans-Bold-61" transform="translate(83.007812 0)"/>
     <use xlink:href="#DejaVuSans-Bold-74" transform="translate(150.488281 0)"/>
     <use xlink:href="#DejaVuSans-Bold-61" transform="translate(198.291016 0)"/>
     <use xlink:href="#DejaVuSans-Bold-20" transform="translate(265.771484 0)"/>
     <use xlink:href="#DejaVuSans-Bold-50" transform="translate(300.585938 0)"/>
     <use xlink:href="#DejaVuSans-Bold-72" transform="translate(373.876953 0)"/>
     <use xlink:href="#DejaVuSans-Bold-6f" transform="translate(423.193359 0)"/>
     <use xlink:href="#DejaVuSans-Bold-63" transform="translate(491.894531 0)"/>
     <use xlink:href="#DejaVuSans-Bold-65" transform="translate(551.171875 0)"/>
     <use xlink:href="#DejaVuSans-Bold-73" transform="translate(618.994141 0)"/>
     <use xlink:href="#DejaVuSans-Bold-73" transform="translate(678.515625 0)"/>
     <use xlink:href="#DejaVuSans-Bold-69" transform="translate(738.037109 0)"/>
     <use xlink:href="#DejaVuSans-Bold-6e" transform="translate(772.314453 0)"/>
     <use xlink:href="#DejaVuSans-Bold-67" transform="translate(843.505859 0)"/>
    </g>
   </g>
   <g id="text_4">
    <!-- Replacing Human Expertise -->
    <g style="fill: #ef4444" transform="translate(414.846841 260.838569) scale(0.12 -0.12)">
     <defs>
      <path id="DejaVuSans-Bold-70" d="M 1656 506 
L 1656 -1331 
L 538 -1331 
L 538 3500 
L 1656 3500 
L 1656 2988 
Q 1888 3294 2169 3439 
Q 2450 3584 2816 3584 
Q 3463 3584 3878 3070 
Q 4294 2556 4294 1747 
Q 4294 938 3878 423 
Q 3463 -91 2816 -91 
Q 2450 -91 2169 54 
Q 1888 200 1656 506 
z
M 2400 2772 
Q 2041 2772 1848 2508 
Q 1656 2244 1656 1747 
Q 1656 1250 1848 986 
Q 2041 722 2400 722 
Q 2759 722 2948 984 
Q 3138 1247 3138 1747 
Q 3138 2247 2948 2509 
Q 2759 2772 2400 2772 
z
" transform="scale(0.015625)"/>
      <path id="DejaVuSans-Bold-48" d="M 588 4666 
L 1791 4666 
L 1791 2888 
L 3566 2888 
L 3566 4666 
L 4769 4666 
L 4769 0 
L 3566 0 
L 3566 1978 
L 1791 1978 
L 1791 0 
L 588 0 
L 588 4666 
z
" transform="scale(0.015625)"/>
      <path id="DejaVuSans-Bold-75" d="M 500 1363 
L 500 3500 
L 1625 3500 
L 1625 3150 
Q 1625 2866 1622 2436 
Q 1619 2006 1619 1863 
Q 1619 1441 1641 1255 
Q 1663 1069 1716 984 
Q 1784 875 1895 815 
Q 2006 756 2150 756 
Q 2500 756 2700 1025 
Q 2900 1294 2900 1772 
L 2900 3500 
L 4019 3500 
L 4019 0 
L 2900 0 
L 2900 506 
Q 2647 200 2364 54 
Q 2081 -91 1741 -91 
Q 1134 -91 817 281 
Q 500 653 500 1363 
z
" transform="scale(0.015625)"/>
      <path id="DejaVuSans-Bold-6d" d="M 3781 2919 
Q 3994 3244 4286 3414 
Q 4578 3584 4928 3584 
Q 5531 3584 5847 3212 
Q 6163 2841 6163 2131 
L 6163 0 
L 5038 0 
L 5038 1825 
Q 5041 1866 5042 1909 
Q 5044 1953 5044 2034 
Q 5044 2406 4934 2573 
Q 4825 2741 4581 2741 
Q 4263 2741 4089 2478 
Q 3916 2216 3909 1719 
L 3909 0 
L 2784 0 
L 2784 1825 
Q 2784 2406 2684 2573 
Q 2584 2741 2328 2741 
Q 2006 2741 1831 2477 
Q 1656 2213 1656 1722 
L 1656 0 
L 531 0 
L 531 3500 
L 1656 3500 
L 1656 2988 
Q 1863 3284 2130 3434 
Q 2397 3584 2719 3584 
Q 3081 3584 3359 3409 
Q 3638 3234 3781 2919 
z
" transform="scale(0.015625)"/>
      <path id="DejaVuSans-Bold-45" d="M 588 4666 
L 3834 4666 
L 3834 3756 
L 1791 3756 
L 1791 2888 
L 3713 2888 
L 3713 1978 
L 1791 1978 
L 1791 909 
L 3903 909 
L 3903 0 
L 588 0 
L 588 4666 
z
" transform="scale(0.015625)"/>
      <path id="DejaVuSans-Bold-78" d="M 1422 1791 
L 159 3500 
L 1344 3500 
L 2059 2463 
L 2784 3500 
L 3969 3500 
L 2706 1797 
L 4031 0 
L 2847 0 
L 2059 1106 
L 1281 0 
L 97 0 
L 1422 1791 
z
" transform="scale(0.015625)"/>
     </defs>
     <use xlink:href="#DejaVuSans-Bold-52"/>
     <use xlink:href="#DejaVuSans-Bold-65" transform="translate(77.001953 0)"/>
     <use xlink:href="#DejaVuSans-Bold-70" transform="translate(144.824219 0)"/>
     <use xlink:href="#DejaVuSans-Bold-6c" transform="translate(216.40625 0)"/>
     <use xlink:href="#DejaVuSans-Bold-61" transform="translate(250.683594 0)"/>
     <use xlink:href="#DejaVuSans-Bold-63" transform="translate(318.164062 0)"/>
     <use xlink:href="#DejaVuSans-Bold-69" transform="translate(377.441406 0)"/>
     <use xlink:href="#DejaVuSans-Bold-6e" transform="translate(411.71875 0)"/>
     <use xlink:href="#DejaVuSans-Bold-67" transform="translate(482.910156 0)"/>
     <use xlink:href="#DejaVuSans-Bold-20" transform="translate(554.492188 0)"/>
     <use xlink:href="#DejaVuSans-Bold-48" transform="translate(589.306641 0)"/>
     <use xlink:href="#DejaVuSans-Bold-75" transform="translate(672.998047 0)"/>
     <use xlink:href="#DejaVuSans-Bold-6d" transform="translate(744.189453 0)"/>
     <use xlink:href="#DejaVuSans-Bold-61" transform="translate(848.388672 0)"/>
     <use xlink:href="#DejaVuSans-Bold-6e" transform="translate(915.869141 0)"/>
     <use xlink:href="#DejaVuSans-Bold-20" transform="translate(987.060547 0)"/>
     <use xlink:href="#DejaVuSans-Bold-45" transform="translate(1021.875 0)"/>
     <use xlink:href="#DejaVuSans-Bold-78" transform="translate(1090.185547 0)"/>
     <use xlink:href="#DejaVuSans-Bold-70" transform="translate(1154.6875 0)"/>
     <use xlink:href="#DejaVuSans-Bold-65" transform="translate(1226.269531 0)"/>
     <use xlink:href="#DejaVuSans-Bold-72" transform="translate(1294.091797 0)"/>
     <use xlink:href="#DejaVuSans-Bold-74" transform="translate(1343.408203 0)"/>
     <use xlink:href="#DejaVuSans-Bold-69" transform="translate(1391.210938 0)"/>
     <use xlink:href="#DejaVuSans-Bold-73" transform="translate(1425.488281 0)"/>
     <use xlink:href="#DejaVuSans-Bold-65" transform="translate(1485.009766 0)"/>
    </g>
   </g>
   <g id="text_5">
    <!-- Automation Tools -->
    <g style="fill: #10b981" transform="translate(117.200346 359.246734) scale(0.12 -0.12)">
     <defs>
      <path id="DejaVuSans-Bold-54" d="M 31 4666 
L 4331 4666 
L 4331 3756 
L 2784 3756 
L 2784 0 
L 1581 0 
L 1581 3756 
L 31 3756 
L 31 4666 
z
" transform="scale(0.015625)"/>
     </defs>
     <use xlink:href="#DejaVuSans-Bold-41"/>
     <use xlink:href="#DejaVuSans-Bold-75" transform="translate(77.392578 0)"/>
     <use xlink:href="#DejaVuSans-Bold-74" transform="translate(148.583984 0)"/>
     <use xlink:href="#DejaVuSans-Bold-6f" transform="translate(196.386719 0)"/>
     <use xlink:href="#DejaVuSans-Bold-6d" transform="translate(265.087891 0)"/>
     <use xlink:href="#DejaVuSans-Bold-61" transform="translate(369.287109 0)"/>
     <use xlink:href="#DejaVuSans-Bold-74" transform="translate(436.767578 0)"/>
     <use xlink:href="#DejaVuSans-Bold-69" transform="translate(484.570312 0)"/>
     <use xlink:href="#DejaVuSans-Bold-6f" transform="translate(518.847656 0)"/>
     <use xlink:href="#DejaVuSans-Bold-6e" transform="translate(587.548828 0)"/>
     <use xlink:href="#DejaVuSans-Bold-20" transform="translate(658.740234 0)"/>
     <use xlink:href="#DejaVuSans-Bold-54" transform="translate(693.554688 0)"/>
     <use xlink:href="#DejaVuSans-Bold-6f" transform="translate(748.517578 0)"/>
     <use xlink:href="#DejaVuSans-Bold-6f" transform="translate(817.21875 0)"/>
     <use xlink:href="#DejaVuSans-Bold-6c" transform="translate(885.919922 0)"/>
     <use xlink:href="#DejaVuSans-Bold-73" transform="translate(920.197266 0)"/>
    </g>
   </g>
   <g id="text_6">
    <!-- Manipulative Practices -->
    <g style="fill: #ef4444" transform="translate(430.917466 359.246734) scale(0.12 -0.12)">
     <defs>
      <path id="DejaVuSans-Bold-4d" d="M 588 4666 
L 2119 4666 
L 3181 2169 
L 4250 4666 
L 5778 4666 
L 5778 0 
L 4641 0 
L 4641 3413 
L 3566 897 
L 2803 897 
L 1728 3413 
L 1728 0 
L 588 0 
L 588 4666 
z
" transform="scale(0.015625)"/>
      <path id="DejaVuSans-Bold-76" d="M 97 3500 
L 1216 3500 
L 2088 1081 
L 2956 3500 
L 4078 3500 
L 2700 0 
L 1472 0 
L 97 3500 
z
" transform="scale(0.015625)"/>
     </defs>
     <use xlink:href="#DejaVuSans-Bold-4d"/>
     <use xlink:href="#DejaVuSans-Bold-61" transform="translate(99.511719 0)"/>
     <use xlink:href="#DejaVuSans-Bold-6e" transform="translate(166.992188 0)"/>
     <use xlink:href="#DejaVuSans-Bold-69" transform="translate(238.183594 0)"/>
     <use xlink:href="#DejaVuSans-Bold-70" transform="translate(272.460938 0)"/>
     <use xlink:href="#DejaVuSans-Bold-75" transform="translate(344.042969 0)"/>
     <use xlink:href="#DejaVuSans-Bold-6c" transform="translate(415.234375 0)"/>
     <use xlink:href="#DejaVuSans-Bold-61" transform="translate(449.511719 0)"/>
     <use xlink:href="#DejaVuSans-Bold-74" transform="translate(516.992188 0)"/>
     <use xlink:href="#DejaVuSans-Bold-69" transform="translate(564.794922 0)"/>
     <use xlink:href="#DejaVuSans-Bold-76" transform="translate(599.072266 0)"/>
     <use xlink:href="#DejaVuSans-Bold-65" transform="translate(664.257812 0)"/>
     <use xlink:href="#DejaVuSans-Bold-20" transform="translate(732.080078 0)"/>
     <use xlink:href="#DejaVuSans-Bold-50" transform="translate(766.894531 0)"/>
     <use xlink:href="#DejaVuSans-Bold-72" transform="translate(840.185547 0)"/>
     <use xlink:href="#DejaVuSans-Bold-61" transform="translate(889.501953 0)"/>
     <use xlink:href="#DejaVuSans-Bold-63" transform="translate(956.982422 0)"/>
     <use xlink:href="#DejaVuSans-Bold-74" transform="translate(1016.259766 0)"/>
     <use xlink:href="#DejaVuSans-Bold-69" transform="translate(1064.0625 0)"/>
     <use xlink:href="#DejaVuSans-Bold-63" transform="translate(1098.339844 0)"/>
     <use xlink:href="#DejaVuSans-Bold-65" transform="translate(1157.617188 0)"/>
     <use xlink:href="#DejaVuSans-Bold-73" transform="translate(1225.439453 0)"/>
    </g>
   </g>
   <g id="text_7">
    <!-- Efficiency Gains -->
    <g style="fill: #10b981" transform="translate(122.223471 457.561149) scale(0.12 -0.12)">
     <defs>
      <path id="DejaVuSans-Bold-66" d="M 2841 4863 
L 2841 4128 
L 2222 4128 
Q 1984 4128 1890 4042 
Q 1797 3956 1797 3744 
L 1797 3500 
L 2753 3500 
L 2753 2700 
L 1797 2700 
L 1797 0 
L 678 0 
L 678 2700 
L 122 2700 
L 122 3500 
L 678 3500 
L 678 3744 
Q 678 4316 997 4589 
Q 1316 4863 1984 4863 
L 2841 4863 
z
" transform="scale(0.015625)"/>
     </defs>
     <use xlink:href="#DejaVuSans-Bold-45"/>
     <use xlink:href="#DejaVuSans-Bold-66" transform="translate(68.310547 0)"/>
     <use xlink:href="#DejaVuSans-Bold-66" transform="translate(111.816406 0)"/>
     <use xlink:href="#DejaVuSans-Bold-69" transform="translate(155.322266 0)"/>
     <use xlink:href="#DejaVuSans-Bold-63" transform="translate(189.599609 0)"/>
     <use xlink:href="#DejaVuSans-Bold-69" transform="translate(248.876953 0)"/>
     <use xlink:href="#DejaVuSans-Bold-65" transform="translate(283.154297 0)"/>
     <use xlink:href="#DejaVuSans-Bold-6e" transform="translate(350.976562 0)"/>
     <use xlink:href="#DejaVuSans-Bold-63" transform="translate(422.167969 0)"/>
     <use xlink:href="#DejaVuSans-Bold-79" transform="translate(481.445312 0)"/>
     <use xlink:href="#DejaVuSans-Bold-20" transform="translate(546.630859 0)"/>
     <use xlink:href="#DejaVuSans-Bold-47" transform="translate(581.445312 0)"/>
     <use xlink:href="#DejaVuSans-Bold-61" transform="translate(663.525391 0)"/>
     <use xlink:href="#DejaVuSans-Bold-69" transform="translate(731.005859 0)"/>
     <use xlink:href="#DejaVuSans-Bold-6e" transform="translate(765.283203 0)"/>
     <use xlink:href="#DejaVuSans-Bold-73" transform="translate(836.474609 0)"/>
    </g>
   </g>
   <g id="text_8">
    <!-- Quality Compromise -->
    <g style="fill: #ef4444" transform="translate(439.510591 457.561149) scale(0.12 -0.12)">
     <defs>
      <path id="DejaVuSans-Bold-51" d="M 2847 -84 
L 2753 -84 
Q 1600 -84 959 553 
Q 319 1191 319 2328 
Q 319 3463 958 4106 
Q 1597 4750 2719 4750 
Q 3853 4750 4486 4112 
Q 5119 3475 5119 2328 
Q 5119 1541 4783 972 
Q 4447 403 3816 116 
L 4756 -934 
L 3609 -934 
L 2847 -84 
z
M 2719 3878 
Q 2169 3878 1866 3472 
Q 1563 3066 1563 2328 
Q 1563 1578 1859 1179 
Q 2156 781 2719 781 
Q 3272 781 3575 1187 
Q 3878 1594 3878 2328 
Q 3878 3066 3575 3472 
Q 3272 3878 2719 3878 
z
" transform="scale(0.015625)"/>
     </defs>
     <use xlink:href="#DejaVuSans-Bold-51"/>
     <use xlink:href="#DejaVuSans-Bold-75" transform="translate(85.009766 0)"/>
     <use xlink:href="#DejaVuSans-Bold-61" transform="translate(156.201172 0)"/>
     <use xlink:href="#DejaVuSans-Bold-6c" transform="translate(223.681641 0)"/>
     <use xlink:href="#DejaVuSans-Bold-69" transform="translate(257.958984 0)"/>
     <use xlink:href="#DejaVuSans-Bold-74" transform="translate(292.236328 0)"/>
     <use xlink:href="#DejaVuSans-Bold-79" transform="translate(340.039062 0)"/>
     <use xlink:href="#DejaVuSans-Bold-20" transform="translate(405.224609 0)"/>
     <use xlink:href="#DejaVuSans-Bold-43" transform="translate(440.039062 0)"/>
     <use xlink:href="#DejaVuSans-Bold-6f" transform="translate(513.427734 0)"/>
     <use xlink:href="#DejaVuSans-Bold-6d" transform="translate(582.128906 0)"/>
     <use xlink:href="#DejaVuSans-Bold-70" transform="translate(686.328125 0)"/>
     <use xlink:href="#DejaVuSans-Bold-72" transform="translate(757.910156 0)"/>
     <use xlink:href="#DejaVuSans-Bold-6f" transform="translate(807.226562 0)"/>
     <use xlink:href="#DejaVuSans-Bold-6d" transform="translate(875.927734 0)"/>
     <use xlink:href="#DejaVuSans-Bold-69" transform="translate(980.126953 0)"/>
     <use xlink:href="#DejaVuSans-Bold-73" transform="translate(1014.404297 0)"/>
     <use xlink:href="#DejaVuSans-Bold-65" transform="translate(1073.925781 0)"/>
    </g>
   </g>
   <g id="text_9">
    <!-- AI Helps -->
    <g style="fill: #10b981" transform="translate(143.34269 75.823921) scale(0.14 -0.14)">
     <defs>
      <path id="DejaVuSans-Bold-49" d="M 588 4666 
L 1791 4666 
L 1791 0 
L 588 0 
L 588 4666 
z
" transform="scale(0.015625)"/>
     </defs>
     <use xlink:href="#DejaVuSans-Bold-41"/>
     <use xlink:href="#DejaVuSans-Bold-49" transform="translate(77.392578 0)"/>
     <use xlink:href="#DejaVuSans-Bold-20" transform="translate(114.599609 0)"/>
     <use xlink:href="#DejaVuSans-Bold-48" transform="translate(149.414062 0)"/>
     <use xlink:href="#DejaVuSans-Bold-65" transform="translate(233.105469 0)"/>
     <use xlink:href="#DejaVuSans-Bold-6c" transform="translate(300.927734 0)"/>
     <use xlink:href="#DejaVuSans-Bold-70" transform="translate(335.205078 0)"/>
     <use xlink:href="#DejaVuSans-Bold-73" transform="translate(406.787109 0)"/>
    </g>
   </g>
   <g id="text_10">
    <!-- AI Hurts -->
    <g style="fill: #ef4444" transform="translate(475.753091 75.823921) scale(0.14 -0.14)">
     <use xlink:href="#DejaVuSans-Bold-41"/>
     <use xlink:href="#DejaVuSans-Bold-49" transform="translate(77.392578 0)"/>
     <use xlink:href="#DejaVuSans-Bold-20" transform="translate(114.599609 0)"/>
     <use xlink:href="#DejaVuSans-Bold-48" transform="translate(149.414062 0)"/>
     <use xlink:href="#DejaVuSans-Bold-75" transform="translate(233.105469 0)"/>
     <use xlink:href="#DejaVuSans-Bold-72" transform="translate(304.296875 0)"/>
     <use xlink:href="#DejaVuSans-Bold-74" transform="translate(353.613281 0)"/>
     <use xlink:href="#DejaVuSans-Bold-73" transform="translate(401.416016 0)"/>
    </g>
   </g>
  </g>
 </g>
 <defs>
  <clipPath id="pe48729b5f7">
   <rect x="7.2" y="7.2" width="669.6" height="554.4"/>
  </clipPath>
 </defs>
</svg>
