<?xml version="1.0" encoding="utf-8" standalone="no"?>
<!DOCTYPE svg PUBLIC "-//W3C//DTD SVG 1.1//EN"
  "http://www.w3.org/Graphics/SVG/1.1/DTD/svg11.dtd">
<svg xmlns:xlink="http://www.w3.org/1999/xlink" width="684pt" height="568.8pt" viewBox="0 0 684 568.8" xmlns="http://www.w3.org/2000/svg" version="1.1">
 <metadata>
  <rdf:RDF xmlns:dc="http://purl.org/dc/elements/1.1/" xmlns:cc="http://creativecommons.org/ns#" xmlns:rdf="http://www.w3.org/1999/02/22-rdf-syntax-ns#">
   <cc:Work>
    <dc:type rdf:resource="http://purl.org/dc/dcmitype/StillImage"/>
    <dc:date>2025-12-26T21:31:39.101000</dc:date>
    <dc:format>image/svg+xml</dc:format>
    <dc:creator>
     <cc:Agent>
      <dc:title>Matplotlib v3.10.8, https://matplotlib.org/</dc:title>
     </cc:Agent>
    </dc:creator>
   </cc:Work>
  </rdf:RDF>
 </metadata>
 <defs>
  <style type="text/css">*{stroke-linejoin: round; stroke-linecap: butt}</style>
 </defs>
 <g id="figure_1">
  <g id="patch_1">
   <path d="M 0 568.8 
L 684 568.8 
L 684 0 
L 0 0 
z
" style="fill: #f8f9fa"/>
  </g>
  <g id="axes_1">
   <g id="patch_2">
    <path d="M 158.043956 187.39704 
Q 158.043956 234.89942 158.043956 280.72475 
" clip-path="url(#p6f592b0709)" style="fill: none; stroke: #10b981; stroke-width: 1.5; stroke-linecap: round"/>
    <path d="M 163.043956 270.72475 
L 158.043956 280.72475 
L 153.043956 270.72475 
" clip-path="url(#p6f592b0709)" style="fill: none; stroke: #10b981; stroke-width: 1.5; stroke-linecap: round"/>
   </g>
   <g id="patch_3">
    <path d="M 525.956044 187.39704 
Q 525.956044 234.89942 525.956044 280.72475 
" clip-path="url(#p6f592b0709)" style="fill: none; stroke: #ef4444; stroke-width: 1.5; stroke-linecap: round"/>
    <path d="M 530.956044 270.72475 
L 525.956044 280.72475 
L 520.956044 270.72475 
" clip-path="url(#p6f592b0709)" style="fill: none; stroke: #ef4444; stroke-width: 1.5; stroke-linecap: round"/>
   </g>
   <g id="patch_4">
    <path d="M 66.065934 205.2 
L 250.021978 205.2 
Q 264.738462 205.2 264.738462 185.4 
L 264.738462 86.4 
Q 264.738462 66.6 250.021978 66.6 
L 66.065934 66.6 
Q 51.349451 66.6 51.349451 86.4 
L 51.349451 185.4 
Q 51.349451 205.2 66.065934 205.2 
z
" clip-path="url(#p6f592b0709)" style="fill: #2563eb; opacity: 0.2; stroke: #2563eb; stroke-width: 2; stroke-linejoin: miter"/>
   </g>
   <g id="patch_5">
    <path d="M 66.065934 502.2 
L 250.021978 502.2 
Q 264.738462 502.2 264.738462 482.4 
L 264.738462 383.4 
Q 264.738462 363.6 250.021978 363.6 
L 66.065934 363.6 
Q 51.349451 363.6 51.349451 383.4 
L 51.349451 482.4 
Q 51.349451 502.2 66.065934 502.2 
z
" clip-path="url(#p6f592b0709)" style="fill: #10b981; opacity: 0.2; stroke: #10b981; stroke-width: 2; stroke-linejoin: miter"/>
   </g>
   <g id="patch_6">
    <path d="M 433.978022 205.2 
L 617.934066 205.2 
Q 632.650549 205.2 632.650549 185.4 
L 632.650549 86.4 
Q 632.650549 66.6 617.934066 66.6 
L 433.978022 66.6 
Q 419.261538 66.6 419.261538 86.4 
L 419.261538 185.4 
Q 419.261538 205.2 433.978022 205.2 
z
" clip-path="url(#p6f592b0709)" style="fill: #ef4444; opacity: 0.2; stroke: #ef4444; stroke-width: 2; stroke-linejoin: miter"/>
   </g>
   <g id="patch_7">
    <path d="M 433.978022 502.2 
L 617.934066 502.2 
Q 632.650549 502.2 632.650549 482.4 
L 632.650549 383.4 
Q 632.650549 363.6 617.934066 363.6 
L 433.978022 363.6 
Q 419.261538 363.6 419.261538 383.4 
L 419.261538 482.4 
Q 419.261538 502.2 433.978022 502.2 
z
" clip-path="url(#p6f592b0709)" style="fill: #f59e0b; opacity: 0.2; stroke: #f59e0b; stroke-width: 2; stroke-linejoin: miter"/>
   </g>
   <g id="text_1">
    <!-- Crawlable -->
    <g style="fill: #2563eb" transform="translate(124.562081 119.41125) scale(0.12 -0.12)">
     <defs>
      <path id="DejaVuSans-Bold-43" d="M 4288 256 
Q 3956 84 3597 -3 
Q 3238 -91 2847 -91 
Q 1681 -91 1000 561 
Q 319 1213 319 2328 
Q 319 3447 1000 4098 
Q 1681 4750 2847 4750 
Q 3238 4750 3597 4662 
Q 3956 4575 4288 4403 
L 4288 3438 
Q 3953 3666 3628 3772 
Q 3303 3878 2944 3878 
Q 2300 3878 1931 3465 
Q 1563 3053 1563 2328 
Q 1563 1606 1931 1193 
Q 2300 781 2944 781 
Q 3303 781 3628 887 
Q 3953 994 4288 1222 
L 4288 256 
z
" transform="scale(0.015625)"/>
      <path id="DejaVuSans-Bold-72" d="M 3138 2547 
Q 2991 2616 2845 2648 
Q 2700 2681 2553 2681 
Q 2122 2681 1889 2404 
Q 1656 2128 1656 1613 
L 1656 0 
L 538 0 
L 538 3500 
L 1656 3500 
L 1656 2925 
Q 1872 3269 2151 3426 
Q 2431 3584 2822 3584 
Q 2878 3584 2943 3579 
Q 3009 3575 3134 3559 
L 3138 2547 
z
" transform="scale(0.015625)"/>
      <path id="DejaVuSans-Bold-61" d="M 2106 1575 
Q 1756 1575 1579 1456 
Q 1403 1338 1403 1106 
Q 1403 894 1545 773 
Q 1688 653 1941 653 
Q 2256 653 2472 879 
Q 2688 1106 2688 1447 
L 2688 1575 
L 2106 1575 
z
M 3816 1997 
L 3816 0 
L 2688 0 
L 2688 519 
Q 2463 200 2181 54 
Q 1900 -91 1497 -91 
Q 953 -91 614 226 
Q 275 544 275 1050 
Q 275 1666 698 1953 
Q 1122 2241 2028 2241 
L 2688 2241 
L 2688 2328 
Q 2688 2594 2478 2717 
Q 2269 2841 1825 2841 
Q 1466 2841 1156 2769 
Q 847 2697 581 2553 
L 581 3406 
Q 941 3494 1303 3539 
Q 1666 3584 2028 3584 
Q 2975 3584 3395 3211 
Q 3816 2838 3816 1997 
z
" transform="scale(0.015625)"/>
      <path id="DejaVuSans-Bold-77" d="M 225 3500 
L 1313 3500 
L 1900 1088 
L 2491 3500 
L 3425 3500 
L 4013 1113 
L 4603 3500 
L 5691 3500 
L 4769 0 
L 3547 0 
L 2956 2406 
L 2369 0 
L 1147 0 
L 225 3500 
z
" transform="scale(0.015625)"/>
      <path id="DejaVuSans-Bold-6c" d="M 538 4863 
L 1656 4863 
L 1656 0 
L 538 0 
L 538 4863 
z
" transform="scale(0.015625)"/>
      <path id="DejaVuSans-Bold-62" d="M 2400 722 
Q 2759 722 2948 984 
Q 3138 1247 3138 1747 
Q 3138 2247 2948 2509 
Q 2759 2772 2400 2772 
Q 2041 2772 1848 2508 
Q 1656 2244 1656 1747 
Q 1656 1250 1848 986 
Q 2041 722 2400 722 
z
M 1656 2988 
Q 1888 3294 2169 3439 
Q 2450 3584 2816 3584 
Q 3463 3584 3878 3070 
Q 4294 2556 4294 1747 
Q 4294 938 3878 423 
Q 3463 -91 2816 -91 
Q 2450 -91 2169 54 
Q 1888 200 1656 506 
L 1656 0 
L 538 0 
L 538 4863 
L 1656 4863 
L 1656 2988 
z
" transform="scale(0.015625)"/>
      <path id="DejaVuSans-Bold-65" d="M 4031 1759 
L 4031 1441 
L 1416 1441 
Q 1456 1047 1700 850 
Q 1944 653 2381 653 
Q 2734 653 3104 758 
Q 3475 863 3866 1075 
L 3866 213 
Q 3469 63 3072 -14 
Q 2675 -91 2278 -91 
Q 1328 -91 801 392 
Q 275 875 275 1747 
Q 275 2603 792 3093 
Q 1309 3584 2216 3584 
Q 3041 3584 3536 3087 
Q 4031 2591 4031 1759 
z
M 2881 2131 
Q 2881 2450 2695 2645 
Q 2509 2841 2209 2841 
Q 1884 2841 1681 2658 
Q 1478 2475 1428 2131 
L 2881 2131 
z
" transform="scale(0.015625)"/>
     </defs>
     <use xlink:href="#DejaVuSans-Bold-43"/>
     <use xlink:href="#DejaVuSans-Bold-72" transform="translate(73.388672 0)"/>
     <use xlink:href="#DejaVuSans-Bold-61" transform="translate(122.705078 0)"/>
     <use xlink:href="#DejaVuSans-Bold-77" transform="translate(190.185547 0)"/>
     <use xlink:href="#DejaVuSans-Bold-6c" transform="translate(282.568359 0)"/>
     <use xlink:href="#DejaVuSans-Bold-61" transform="translate(316.845703 0)"/>
     <use xlink:href="#DejaVuSans-Bold-62" transform="translate(384.326172 0)"/>
     <use xlink:href="#DejaVuSans-Bold-6c" transform="translate(455.908203 0)"/>
     <use xlink:href="#DejaVuSans-Bold-65" transform="translate(490.185547 0)"/>
    </g>
   </g>
   <g id="text_2">
    <!-- Bot can access -->
    <g style="fill: #4b5563" transform="translate(120.585362 158.459375) scale(0.1 -0.1)">
     <defs>
      <path id="DejaVuSans-42" d="M 1259 2228 
L 1259 519 
L 2272 519 
Q 2781 519 3026 730 
Q 3272 941 3272 1375 
Q 3272 1813 3026 2020 
Q 2781 2228 2272 2228 
L 1259 2228 
z
M 1259 4147 
L 1259 2741 
L 2194 2741 
Q 2656 2741 2882 2914 
Q 3109 3088 3109 3444 
Q 3109 3797 2882 3972 
Q 2656 4147 2194 4147 
L 1259 4147 
z
M 628 4666 
L 2241 4666 
Q 2963 4666 3353 4366 
Q 3744 4066 3744 3513 
Q 3744 3084 3544 2831 
Q 3344 2578 2956 2516 
Q 3422 2416 3680 2098 
Q 3938 1781 3938 1306 
Q 3938 681 3513 340 
Q 3088 0 2303 0 
L 628 0 
L 628 4666 
z
" transform="scale(0.015625)"/>
      <path id="DejaVuSans-6f" d="M 1959 3097 
Q 1497 3097 1228 2736 
Q 959 2375 959 1747 
Q 959 1119 1226 758 
Q 1494 397 1959 397 
Q 2419 397 2687 759 
Q 2956 1122 2956 1747 
Q 2956 2369 2687 2733 
Q 2419 3097 1959 3097 
z
M 1959 3584 
Q 2709 3584 3137 3096 
Q 3566 2609 3566 1747 
Q 3566 888 3137 398 
Q 2709 -91 1959 -91 
Q 1206 -91 779 398 
Q 353 888 353 1747 
Q 353 2609 779 3096 
Q 1206 3584 1959 3584 
z
" transform="scale(0.015625)"/>
      <path id="DejaVuSans-74" d="M 1172 4494 
L 1172 3500 
L 2356 3500 
L 2356 3053 
L 1172 3053 
L 1172 1153 
Q 1172 725 1289 603 
Q 1406 481 1766 481 
L 2356 481 
L 2356 0 
L 1766 0 
Q 1100 0 847 248 
Q 594 497 594 1153 
L 594 3053 
L 172 3053 
L 172 3500 
L 594 3500 
L 594 4494 
L 1172 4494 
z
" transform="scale(0.015625)"/>
      <path id="DejaVuSans-20" transform="scale(0.015625)"/>
      <path id="DejaVuSans-63" d="M 3122 3366 
L 3122 2828 
Q 2878 2963 2633 3030 
Q 2388 3097 2138 3097 
Q 1578 3097 1268 2742 
Q 959 2388 959 1747 
Q 959 1106 1268 751 
Q 1578 397 2138 397 
Q 2388 397 2633 464 
Q 2878 531 3122 666 
L 3122 134 
Q 2881 22 2623 -34 
Q 2366 -91 2075 -91 
Q 1284 -91 818 406 
Q 353 903 353 1747 
Q 353 2603 823 3093 
Q 1294 3584 2113 3584 
Q 2378 3584 2631 3529 
Q 2884 3475 3122 3366 
z
" transform="scale(0.015625)"/>
      <path id="DejaVuSans-61" d="M 2194 1759 
Q 1497 1759 1228 1600 
Q 959 1441 959 1056 
Q 959 750 1161 570 
Q 1363 391 1709 391 
Q 2188 391 2477 730 
Q 2766 1069 2766 1631 
L 2766 1759 
L 2194 1759 
z
M 3341 1997 
L 3341 0 
L 2766 0 
L 2766 531 
Q 2569 213 2275 61 
Q 1981 -91 1556 -91 
Q 1019 -91 701 211 
Q 384 513 384 1019 
Q 384 1609 779 1909 
Q 1175 2209 1959 2209 
L 2766 2209 
L 2766 2266 
Q 2766 2663 2505 2880 
Q 2244 3097 1772 3097 
Q 1472 3097 1187 3025 
Q 903 2953 641 2809 
L 641 3341 
Q 956 3463 1253 3523 
Q 1550 3584 1831 3584 
Q 2591 3584 2966 3190 
Q 3341 2797 3341 1997 
z
" transform="scale(0.015625)"/>
      <path id="DejaVuSans-6e" d="M 3513 2113 
L 3513 0 
L 2938 0 
L 2938 2094 
Q 2938 2591 2744 2837 
Q 2550 3084 2163 3084 
Q 1697 3084 1428 2787 
Q 1159 2491 1159 1978 
L 1159 0 
L 581 0 
L 581 3500 
L 1159 3500 
L 1159 2956 
Q 1366 3272 1645 3428 
Q 1925 3584 2291 3584 
Q 2894 3584 3203 3211 
Q 3513 2838 3513 2113 
z
" transform="scale(0.015625)"/>
      <path id="DejaVuSans-65" d="M 3597 1894 
L 3597 1613 
L 953 1613 
Q 991 1019 1311 708 
Q 1631 397 2203 397 
Q 2534 397 2845 478 
Q 3156 559 3463 722 
L 3463 178 
Q 3153 47 2828 -22 
Q 2503 -91 2169 -91 
Q 1331 -91 842 396 
Q 353 884 353 1716 
Q 353 2575 817 3079 
Q 1281 3584 2069 3584 
Q 2775 3584 3186 3129 
Q 3597 2675 3597 1894 
z
M 3022 2063 
Q 3016 2534 2758 2815 
Q 2500 3097 2075 3097 
Q 1594 3097 1305 2825 
Q 1016 2553 972 2059 
L 3022 2063 
z
" transform="scale(0.015625)"/>
      <path id="DejaVuSans-73" d="M 2834 3397 
L 2834 2853 
Q 2591 2978 2328 3040 
Q 2066 3103 1784 3103 
Q 1356 3103 1142 2972 
Q 928 2841 928 2578 
Q 928 2378 1081 2264 
Q 1234 2150 1697 2047 
L 1894 2003 
Q 2506 1872 2764 1633 
Q 3022 1394 3022 966 
Q 3022 478 2636 193 
Q 2250 -91 1575 -91 
Q 1294 -91 989 -36 
Q 684 19 347 128 
L 347 722 
Q 666 556 975 473 
Q 1284 391 1588 391 
Q 1994 391 2212 530 
Q 2431 669 2431 922 
Q 2431 1156 2273 1281 
Q 2116 1406 1581 1522 
L 1381 1569 
Q 847 1681 609 1914 
Q 372 2147 372 2553 
Q 372 3047 722 3315 
Q 1072 3584 1716 3584 
Q 2034 3584 2315 3537 
Q 2597 3491 2834 3397 
z
" transform="scale(0.015625)"/>
     </defs>
     <use xlink:href="#DejaVuSans-42"/>
     <use xlink:href="#DejaVuSans-6f" transform="translate(68.603516 0)"/>
     <use xlink:href="#DejaVuSans-74" transform="translate(129.785156 0)"/>
     <use xlink:href="#DejaVuSans-20" transform="translate(168.994141 0)"/>
     <use xlink:href="#DejaVuSans-63" transform="translate(200.78125 0)"/>
     <use xlink:href="#DejaVuSans-61" transform="translate(255.761719 0)"/>
     <use xlink:href="#DejaVuSans-6e" transform="translate(317.041016 0)"/>
     <use xlink:href="#DejaVuSans-20" transform="translate(380.419922 0)"/>
     <use xlink:href="#DejaVuSans-61" transform="translate(412.207031 0)"/>
     <use xlink:href="#DejaVuSans-63" transform="translate(473.486328 0)"/>
     <use xlink:href="#DejaVuSans-63" transform="translate(528.466797 0)"/>
     <use xlink:href="#DejaVuSans-65" transform="translate(583.447266 0)"/>
     <use xlink:href="#DejaVuSans-73" transform="translate(644.970703 0)"/>
     <use xlink:href="#DejaVuSans-73" transform="translate(697.070312 0)"/>
    </g>
   </g>
   <g id="text_3">
    <!-- Indexable -->
    <g style="fill: #10b981" transform="translate(124.835831 416.41125) scale(0.12 -0.12)">
     <defs>
      <path id="DejaVuSans-Bold-49" d="M 588 4666 
L 1791 4666 
L 1791 0 
L 588 0 
L 588 4666 
z
" transform="scale(0.015625)"/>
      <path id="DejaVuSans-Bold-6e" d="M 4056 2131 
L 4056 0 
L 2931 0 
L 2931 347 
L 2931 1631 
Q 2931 2084 2911 2256 
Q 2891 2428 2841 2509 
Q 2775 2619 2662 2680 
Q 2550 2741 2406 2741 
Q 2056 2741 1856 2470 
Q 1656 2200 1656 1722 
L 1656 0 
L 538 0 
L 538 3500 
L 1656 3500 
L 1656 2988 
Q 1909 3294 2193 3439 
Q 2478 3584 2822 3584 
Q 3428 3584 3742 3212 
Q 4056 2841 4056 2131 
z
" transform="scale(0.015625)"/>
      <path id="DejaVuSans-Bold-64" d="M 2919 2988 
L 2919 4863 
L 4044 4863 
L 4044 0 
L 2919 0 
L 2919 506 
Q 2688 197 2409 53 
Q 2131 -91 1766 -91 
Q 1119 -91 703 423 
Q 288 938 288 1747 
Q 288 2556 703 3070 
Q 1119 3584 1766 3584 
Q 2128 3584 2408 3439 
Q 2688 3294 2919 2988 
z
M 2181 722 
Q 2541 722 2730 984 
Q 2919 1247 2919 1747 
Q 2919 2247 2730 2509 
Q 2541 2772 2181 2772 
Q 1825 2772 1636 2509 
Q 1447 2247 1447 1747 
Q 1447 1247 1636 984 
Q 1825 722 2181 722 
z
" transform="scale(0.015625)"/>
      <path id="DejaVuSans-Bold-78" d="M 1422 1791 
L 159 3500 
L 1344 3500 
L 2059 2463 
L 2784 3500 
L 3969 3500 
L 2706 1797 
L 4031 0 
L 2847 0 
L 2059 1106 
L 1281 0 
L 97 0 
L 1422 1791 
z
" transform="scale(0.015625)"/>
     </defs>
     <use xlink:href="#DejaVuSans-Bold-49"/>
     <use xlink:href="#DejaVuSans-Bold-6e" transform="translate(37.207031 0)"/>
     <use xlink:href="#DejaVuSans-Bold-64" transform="translate(108.398438 0)"/>
     <use xlink:href="#DejaVuSans-Bold-65" transform="translate(179.980469 0)"/>
     <use xlink:href="#DejaVuSans-Bold-78" transform="translate(247.802734 0)"/>
     <use xlink:href="#DejaVuSans-Bold-61" transform="translate(312.304688 0)"/>
     <use xlink:href="#DejaVuSans-Bold-62" transform="translate(379.785156 0)"/>
     <use xlink:href="#DejaVuSans-Bold-6c" transform="translate(451.367188 0)"/>
     <use xlink:href="#DejaVuSans-Bold-65" transform="translate(485.644531 0)"/>
    </g>
   </g>
   <g id="text_4">
    <!-- Can be indexed -->
    <g style="fill: #4b5563" transform="translate(119.115831 455.459375) scale(0.1 -0.1)">
     <defs>
      <path id="DejaVuSans-43" d="M 4122 4306 
L 4122 3641 
Q 3803 3938 3442 4084 
Q 3081 4231 2675 4231 
Q 1875 4231 1450 3742 
Q 1025 3253 1025 2328 
Q 1025 1406 1450 917 
Q 1875 428 2675 428 
Q 3081 428 3442 575 
Q 3803 722 4122 1019 
L 4122 359 
Q 3791 134 3420 21 
Q 3050 -91 2638 -91 
Q 1578 -91 968 557 
Q 359 1206 359 2328 
Q 359 3453 968 4101 
Q 1578 4750 2638 4750 
Q 3056 4750 3426 4639 
Q 3797 4528 4122 4306 
z
" transform="scale(0.015625)"/>
      <path id="DejaVuSans-62" d="M 3116 1747 
Q 3116 2381 2855 2742 
Q 2594 3103 2138 3103 
Q 1681 3103 1420 2742 
Q 1159 2381 1159 1747 
Q 1159 1113 1420 752 
Q 1681 391 2138 391 
Q 2594 391 2855 752 
Q 3116 1113 3116 1747 
z
M 1159 2969 
Q 1341 3281 1617 3432 
Q 1894 3584 2278 3584 
Q 2916 3584 3314 3078 
Q 3713 2572 3713 1747 
Q 3713 922 3314 415 
Q 2916 -91 2278 -91 
Q 1894 -91 1617 61 
Q 1341 213 1159 525 
L 1159 0 
L 581 0 
L 581 4863 
L 1159 4863 
L 1159 2969 
z
" transform="scale(0.015625)"/>
      <path id="DejaVuSans-69" d="M 603 3500 
L 1178 3500 
L 1178 0 
L 603 0 
L 603 3500 
z
M 603 4863 
L 1178 4863 
L 1178 4134 
L 603 4134 
L 603 4863 
z
" transform="scale(0.015625)"/>
      <path id="DejaVuSans-64" d="M 2906 2969 
L 2906 4863 
L 3481 4863 
L 3481 0 
L 2906 0 
L 2906 525 
Q 2725 213 2448 61 
Q 2172 -91 1784 -91 
Q 1150 -91 751 415 
Q 353 922 353 1747 
Q 353 2572 751 3078 
Q 1150 3584 1784 3584 
Q 2172 3584 2448 3432 
Q 2725 3281 2906 2969 
z
M 947 1747 
Q 947 1113 1208 752 
Q 1469 391 1925 391 
Q 2381 391 2643 752 
Q 2906 1113 2906 1747 
Q 2906 2381 2643 2742 
Q 2381 3103 1925 3103 
Q 1469 3103 1208 2742 
Q 947 2381 947 1747 
z
" transform="scale(0.015625)"/>
      <path id="DejaVuSans-78" d="M 3513 3500 
L 2247 1797 
L 3578 0 
L 2900 0 
L 1881 1375 
L 863 0 
L 184 0 
L 1544 1831 
L 300 3500 
L 978 3500 
L 1906 2253 
L 2834 3500 
L 3513 3500 
z
" transform="scale(0.015625)"/>
     </defs>
     <use xlink:href="#DejaVuSans-43"/>
     <use xlink:href="#DejaVuSans-61" transform="translate(69.824219 0)"/>
     <use xlink:href="#DejaVuSans-6e" transform="translate(131.103516 0)"/>
     <use xlink:href="#DejaVuSans-20" transform="translate(194.482422 0)"/>
     <use xlink:href="#DejaVuSans-62" transform="translate(226.269531 0)"/>
     <use xlink:href="#DejaVuSans-65" transform="translate(289.746094 0)"/>
     <use xlink:href="#DejaVuSans-20" transform="translate(351.269531 0)"/>
     <use xlink:href="#DejaVuSans-69" transform="translate(383.056641 0)"/>
     <use xlink:href="#DejaVuSans-6e" transform="translate(410.839844 0)"/>
     <use xlink:href="#DejaVuSans-64" transform="translate(474.21875 0)"/>
     <use xlink:href="#DejaVuSans-65" transform="translate(537.695312 0)"/>
     <use xlink:href="#DejaVuSans-78" transform="translate(597.46875 0)"/>
     <use xlink:href="#DejaVuSans-65" transform="translate(653.523438 0)"/>
     <use xlink:href="#DejaVuSans-64" transform="translate(715.046875 0)"/>
    </g>
   </g>
   <g id="text_5">
    <!-- Not Crawlable -->
    <g style="fill: #ef4444" transform="translate(478.374169 119.41125) scale(0.12 -0.12)">
     <defs>
      <path id="DejaVuSans-Bold-4e" d="M 588 4666 
L 1931 4666 
L 3628 1466 
L 3628 4666 
L 4769 4666 
L 4769 0 
L 3425 0 
L 1728 3200 
L 1728 0 
L 588 0 
L 588 4666 
z
" transform="scale(0.015625)"/>
      <path id="DejaVuSans-Bold-6f" d="M 2203 2784 
Q 1831 2784 1636 2517 
Q 1441 2250 1441 1747 
Q 1441 1244 1636 976 
Q 1831 709 2203 709 
Q 2569 709 2762 976 
Q 2956 1244 2956 1747 
Q 2956 2250 2762 2517 
Q 2569 2784 2203 2784 
z
M 2203 3584 
Q 3106 3584 3614 3096 
Q 4122 2609 4122 1747 
Q 4122 884 3614 396 
Q 3106 -91 2203 -91 
Q 1297 -91 786 396 
Q 275 884 275 1747 
Q 275 2609 786 3096 
Q 1297 3584 2203 3584 
z
" transform="scale(0.015625)"/>
      <path id="DejaVuSans-Bold-74" d="M 1759 4494 
L 1759 3500 
L 2913 3500 
L 2913 2700 
L 1759 2700 
L 1759 1216 
Q 1759 972 1856 886 
Q 1953 800 2241 800 
L 2816 800 
L 2816 0 
L 1856 0 
Q 1194 0 917 276 
Q 641 553 641 1216 
L 641 2700 
L 84 2700 
L 84 3500 
L 641 3500 
L 641 4494 
L 1759 4494 
z
" transform="scale(0.015625)"/>
      <path id="DejaVuSans-Bold-20" transform="scale(0.015625)"/>
     </defs>
     <use xlink:href="#DejaVuSans-Bold-4e"/>
     <use xlink:href="#DejaVuSans-Bold-6f" transform="translate(83.691406 0)"/>
     <use xlink:href="#DejaVuSans-Bold-74" transform="translate(152.392578 0)"/>
     <use xlink:href="#DejaVuSans-Bold-20" transform="translate(200.195312 0)"/>
     <use xlink:href="#DejaVuSans-Bold-43" transform="translate(235.009766 0)"/>
     <use xlink:href="#DejaVuSans-Bold-72" transform="translate(308.398438 0)"/>
     <use xlink:href="#DejaVuSans-Bold-61" transform="translate(357.714844 0)"/>
     <use xlink:href="#DejaVuSans-Bold-77" transform="translate(425.195312 0)"/>
     <use xlink:href="#DejaVuSans-Bold-6c" transform="translate(517.578125 0)"/>
     <use xlink:href="#DejaVuSans-Bold-61" transform="translate(551.855469 0)"/>
     <use xlink:href="#DejaVuSans-Bold-62" transform="translate(619.335938 0)"/>
     <use xlink:href="#DejaVuSans-Bold-6c" transform="translate(690.917969 0)"/>
     <use xlink:href="#DejaVuSans-Bold-65" transform="translate(725.195312 0)"/>
    </g>
   </g>
   <g id="text_6">
    <!-- Blocked/Noindex -->
    <g style="fill: #4b5563" transform="translate(484.198231 158.459375) scale(0.1 -0.1)">
     <defs>
      <path id="DejaVuSans-6c" d="M 603 4863 
L 1178 4863 
L 1178 0 
L 603 0 
L 603 4863 
z
" transform="scale(0.015625)"/>
      <path id="DejaVuSans-6b" d="M 581 4863 
L 1159 4863 
L 1159 1991 
L 2875 3500 
L 3609 3500 
L 1753 1863 
L 3688 0 
L 2938 0 
L 1159 1709 
L 1159 0 
L 581 0 
L 581 4863 
z
" transform="scale(0.015625)"/>
      <path id="DejaVuSans-2f" d="M 1625 4666 
L 2156 4666 
L 531 -594 
L 0 -594 
L 1625 4666 
z
" transform="scale(0.015625)"/>
      <path id="DejaVuSans-4e" d="M 628 4666 
L 1478 4666 
L 3547 763 
L 3547 4666 
L 4159 4666 
L 4159 0 
L 3309 0 
L 1241 3903 
L 1241 0 
L 628 0 
L 628 4666 
z
" transform="scale(0.015625)"/>
     </defs>
     <use xlink:href="#DejaVuSans-42"/>
     <use xlink:href="#DejaVuSans-6c" transform="translate(68.603516 0)"/>
     <use xlink:href="#DejaVuSans-6f" transform="translate(96.386719 0)"/>
     <use xlink:href="#DejaVuSans-63" transform="translate(157.568359 0)"/>
     <use xlink:href="#DejaVuSans-6b" transform="translate(212.548828 0)"/>
     <use xlink:href="#DejaVuSans-65" transform="translate(266.833984 0)"/>
     <use xlink:href="#DejaVuSans-64" transform="translate(328.357422 0)"/>
     <use xlink:href="#DejaVuSans-2f" transform="translate(391.833984 0)"/>
     <use xlink:href="#DejaVuSans-4e" transform="translate(425.525391 0)"/>
     <use xlink:href="#DejaVuSans-6f" transform="translate(500.330078 0)"/>
     <use xlink:href="#DejaVuSans-69" transform="translate(561.511719 0)"/>
     <use xlink:href="#DejaVuSans-6e" transform="translate(589.294922 0)"/>
     <use xlink:href="#DejaVuSans-64" transform="translate(652.673828 0)"/>
     <use xlink:href="#DejaVuSans-65" transform="translate(716.150391 0)"/>
     <use xlink:href="#DejaVuSans-78" transform="translate(775.923828 0)"/>
    </g>
   </g>
   <g id="text_7">
    <!-- Not Indexable -->
    <g style="fill: #f59e0b" transform="translate(478.647919 416.41125) scale(0.12 -0.12)">
     <use xlink:href="#DejaVuSans-Bold-4e"/>
     <use xlink:href="#DejaVuSans-Bold-6f" transform="translate(83.691406 0)"/>
     <use xlink:href="#DejaVuSans-Bold-74" transform="translate(152.392578 0)"/>
     <use xlink:href="#DejaVuSans-Bold-20" transform="translate(200.195312 0)"/>
     <use xlink:href="#DejaVuSans-Bold-49" transform="translate(235.009766 0)"/>
     <use xlink:href="#DejaVuSans-Bold-6e" transform="translate(272.216797 0)"/>
     <use xlink:href="#DejaVuSans-Bold-64" transform="translate(343.408203 0)"/>
     <use xlink:href="#DejaVuSans-Bold-65" transform="translate(414.990234 0)"/>
     <use xlink:href="#DejaVuSans-Bold-78" transform="translate(482.8125 0)"/>
     <use xlink:href="#DejaVuSans-Bold-61" transform="translate(547.314453 0)"/>
     <use xlink:href="#DejaVuSans-Bold-62" transform="translate(614.794922 0)"/>
     <use xlink:href="#DejaVuSans-Bold-6c" transform="translate(686.376953 0)"/>
     <use xlink:href="#DejaVuSans-Bold-65" transform="translate(720.654297 0)"/>
    </g>
   </g>
   <g id="text_8">
    <!-- Won't appear -->
    <g style="fill: #4b5563" transform="translate(492.545888 455.459375) scale(0.1 -0.1)">
     <defs>
      <path id="DejaVuSans-57" d="M 213 4666 
L 850 4666 
L 1831 722 
L 2809 4666 
L 3519 4666 
L 4500 722 
L 5478 4666 
L 6119 4666 
L 4947 0 
L 4153 0 
L 3169 4050 
L 2175 0 
L 1381 0 
L 213 4666 
z
" transform="scale(0.015625)"/>
      <path id="DejaVuSans-27" d="M 1147 4666 
L 1147 2931 
L 616 2931 
L 616 4666 
L 1147 4666 
z
" transform="scale(0.015625)"/>
      <path id="DejaVuSans-70" d="M 1159 525 
L 1159 -1331 
L 581 -1331 
L 581 3500 
L 1159 3500 
L 1159 2969 
Q 1341 3281 1617 3432 
Q 1894 3584 2278 3584 
Q 2916 3584 3314 3078 
Q 3713 2572 3713 1747 
Q 3713 922 3314 415 
Q 2916 -91 2278 -91 
Q 1894 -91 1617 61 
Q 1341 213 1159 525 
z
M 3116 1747 
Q 3116 2381 2855 2742 
Q 2594 3103 2138 3103 
Q 1681 3103 1420 2742 
Q 1159 2381 1159 1747 
Q 1159 1113 1420 752 
Q 1681 391 2138 391 
Q 2594 391 2855 752 
Q 3116 1113 3116 1747 
z
" transform="scale(0.015625)"/>
      <path id="DejaVuSans-72" d="M 2631 2963 
Q 2534 3019 2420 3045 
Q 2306 3072 2169 3072 
Q 1681 3072 1420 2755 
Q 1159 2438 1159 1844 
L 1159 0 
L 581 0 
L 581 3500 
L 1159 3500 
L 1159 2956 
Q 1341 3275 1631 3429 
Q 1922 3584 2338 3584 
Q 2397 3584 2469 3576 
Q 2541 3569 2628 3553 
L 2631 2963 
z
" transform="scale(0.015625)"/>
     </defs>
     <use xlink:href="#DejaVuSans-57"/>
     <use xlink:href="#DejaVuSans-6f" transform="translate(93.001953 0)"/>
     <use xlink:href="#DejaVuSans-6e" transform="translate(154.183594 0)"/>
     <use xlink:href="#DejaVuSans-27" transform="translate(217.5625 0)"/>
     <use xlink:href="#DejaVuSans-74" transform="translate(245.052734 0)"/>
     <use xlink:href="#DejaVuSans-20" transform="translate(284.261719 0)"/>
     <use xlink:href="#DejaVuSans-61" transform="translate(316.048828 0)"/>
     <use xlink:href="#DejaVuSans-70" transform="translate(377.328125 0)"/>
     <use xlink:href="#DejaVuSans-70" transform="translate(440.804688 0)"/>
     <use xlink:href="#DejaVuSans-65" transform="translate(504.28125 0)"/>
     <use xlink:href="#DejaVuSans-61" transform="translate(565.804688 0)"/>
     <use xlink:href="#DejaVuSans-72" transform="translate(627.083984 0)"/>
    </g>
   </g>
  </g>
 </g>
 <defs>
  <clipPath id="p6f592b0709">
   <rect x="7.2" y="7.2" width="669.6" height="554.4"/>
  </clipPath>
 </defs>
</svg>
