<?xml version="1.0" encoding="utf-8" standalone="no"?>
<!DOCTYPE svg PUBLIC "-//W3C//DTD SVG 1.1//EN"
  "http://www.w3.org/Graphics/SVG/1.1/DTD/svg11.dtd">
<svg xmlns:xlink="http://www.w3.org/1999/xlink" width="572.4pt" height="679.68pt" viewBox="0 0 572.4 679.68" xmlns="http://www.w3.org/2000/svg" version="1.1">
 <metadata>
  <rdf:RDF xmlns:dc="http://purl.org/dc/elements/1.1/" xmlns:cc="http://creativecommons.org/ns#" xmlns:rdf="http://www.w3.org/1999/02/22-rdf-syntax-ns#">
   <cc:Work>
    <dc:type rdf:resource="http://purl.org/dc/dcmitype/StillImage"/>
    <dc:date>2025-12-26T21:31:39.582505</dc:date>
    <dc:format>image/svg+xml</dc:format>
    <dc:creator>
     <cc:Agent>
      <dc:title>Matplotlib v3.10.8, https://matplotlib.org/</dc:title>
     </cc:Agent>
    </dc:creator>
   </cc:Work>
  </rdf:RDF>
 </metadata>
 <defs>
  <style type="text/css">*{stroke-linejoin: round; stroke-linecap: butt}</style>
 </defs>
 <g id="figure_1">
  <g id="patch_1">
   <path d="M 0 679.68 
L 572.4 679.68 
L 572.4 0 
L 0 0 
z
" style="fill: #f8f9fa"/>
  </g>
  <g id="axes_1">
   <g id="patch_2">
    <path d="M 316.926872 97.904496 
Q 316.926872 118.081172 316.926872 136.580798 
" clip-path="url(#p9d9a190d3e)" style="fill: none; stroke: #10b981; stroke-width: 1.5; stroke-linecap: round"/>
    <path d="M 320.926872 128.580798 
L 316.926872 136.580798 
L 312.926872 128.580798 
" clip-path="url(#p9d9a190d3e)" style="fill: none; stroke: #10b981; stroke-width: 1.5; stroke-linecap: round"/>
   </g>
   <g id="patch_3">
    <path d="M 315.047702 229.638111 
Q 255.473536 251.135853 197.476855 272.064348 
" clip-path="url(#p9d9a190d3e)" style="fill: none; stroke: #f59e0b; stroke-width: 1.5; stroke-linecap: round"/>
    <path d="M 206.359629 273.111406 
L 197.476855 272.064348 
L 203.644166 265.586364 
" clip-path="url(#p9d9a190d3e)" style="fill: none; stroke: #f59e0b; stroke-width: 1.5; stroke-linecap: round"/>
   </g>
   <g id="patch_4">
    <path d="M 318.806043 229.638111 
Q 378.380208 251.135853 436.376889 272.064348 
" clip-path="url(#p9d9a190d3e)" style="fill: none; stroke: #ef4444; stroke-width: 1.5; stroke-linecap: round"/>
    <path d="M 430.209578 265.586364 
L 436.376889 272.064348 
L 427.494116 273.111406 
" clip-path="url(#p9d9a190d3e)" style="fill: none; stroke: #ef4444; stroke-width: 1.5; stroke-linecap: round"/>
   </g>
   <g id="patch_5">
    <path d="M 194.019383 364.016496 
Q 194.019383 384.193172 194.019383 402.692798 
" clip-path="url(#p9d9a190d3e)" style="fill: none; stroke: #8b5cf6; stroke-width: 1.5; stroke-linecap: round"/>
    <path d="M 198.019383 394.692798 
L 194.019383 402.692798 
L 190.019383 394.692798 
" clip-path="url(#p9d9a190d3e)" style="fill: none; stroke: #8b5cf6; stroke-width: 1.5; stroke-linecap: round"/>
   </g>
   <g id="patch_6">
    <path d="M 192.39527 496.244145 
Q 163.29296 517.247676 135.550529 537.269764 
" clip-path="url(#p9d9a190d3e)" style="fill: none; stroke: #10b981; stroke-width: 1.5; stroke-linecap: round"/>
    <path d="M 144.378406 535.831509 
L 135.550529 537.269764 
L 139.696651 529.344509 
" clip-path="url(#p9d9a190d3e)" style="fill: none; stroke: #10b981; stroke-width: 1.5; stroke-linecap: round"/>
   </g>
   <g id="patch_7">
    <path d="M 195.643497 496.244145 
Q 224.745806 517.247676 252.488238 537.269764 
" clip-path="url(#p9d9a190d3e)" style="fill: none; stroke: #ef4444; stroke-width: 1.5; stroke-linecap: round"/>
    <path d="M 248.342116 529.344509 
L 252.488238 537.269764 
L 243.66036 535.831509 
" clip-path="url(#p9d9a190d3e)" style="fill: none; stroke: #ef4444; stroke-width: 1.5; stroke-linecap: round"/>
   </g>
   <g id="patch_8">
    <path d="M 230.89163 106.992 
L 402.962115 106.992 
Q 412.794714 106.992 412.794714 95.904 
L 412.794714 51.552 
Q 412.794714 40.464 402.962115 40.464 
L 230.89163 40.464 
Q 221.059031 40.464 221.059031 51.552 
L 221.059031 95.904 
Q 221.059031 106.992 230.89163 106.992 
z
" clip-path="url(#p9d9a190d3e)" style="fill: #2563eb; opacity: 0.2; stroke: #2563eb; stroke-width: 1.5; stroke-linejoin: miter"/>
   </g>
   <g id="patch_9">
    <path d="M 230.89163 240.048 
L 402.962115 240.048 
Q 412.794714 240.048 412.794714 228.96 
L 412.794714 184.608 
Q 412.794714 173.52 402.962115 173.52 
L 230.89163 173.52 
Q 221.059031 173.52 221.059031 184.608 
L 221.059031 228.96 
Q 221.059031 240.048 230.89163 240.048 
z
" clip-path="url(#p9d9a190d3e)" style="fill: #10b981; opacity: 0.2; stroke: #10b981; stroke-width: 1.5; stroke-linejoin: miter"/>
   </g>
   <g id="patch_10">
    <path d="M 107.984141 373.104 
L 280.054626 373.104 
Q 289.887225 373.104 289.887225 362.016 
L 289.887225 317.664 
Q 289.887225 306.576 280.054626 306.576 
L 107.984141 306.576 
Q 98.151542 306.576 98.151542 317.664 
L 98.151542 362.016 
Q 98.151542 373.104 107.984141 373.104 
z
" clip-path="url(#p9d9a190d3e)" style="fill: #f59e0b; opacity: 0.2; stroke: #f59e0b; stroke-width: 1.5; stroke-linejoin: miter"/>
   </g>
   <g id="patch_11">
    <path d="M 353.799119 373.104 
L 525.869604 373.104 
Q 535.702203 373.104 535.702203 362.016 
L 535.702203 317.664 
Q 535.702203 306.576 525.869604 306.576 
L 353.799119 306.576 
Q 343.96652 306.576 343.96652 317.664 
L 343.96652 362.016 
Q 343.96652 373.104 353.799119 373.104 
z
" clip-path="url(#p9d9a190d3e)" style="fill: #ef4444; opacity: 0.2; stroke: #ef4444; stroke-width: 1.5; stroke-linejoin: miter"/>
   </g>
   <g id="patch_12">
    <path d="M 107.984141 506.16 
L 280.054626 506.16 
Q 289.887225 506.16 289.887225 495.072 
L 289.887225 450.72 
Q 289.887225 439.632 280.054626 439.632 
L 107.984141 439.632 
Q 98.151542 439.632 98.151542 450.72 
L 98.151542 495.072 
Q 98.151542 506.16 107.984141 506.16 
z
" clip-path="url(#p9d9a190d3e)" style="fill: #8b5cf6; opacity: 0.2; stroke: #8b5cf6; stroke-width: 1.5; stroke-linejoin: miter"/>
   </g>
   <g id="patch_13">
    <path d="M 46.530396 639.216 
L 218.600881 639.216 
Q 228.43348 639.216 228.43348 628.128 
L 228.43348 583.776 
Q 228.43348 572.688 218.600881 572.688 
L 46.530396 572.688 
Q 36.697797 572.688 36.697797 583.776 
L 36.697797 628.128 
Q 36.697797 639.216 46.530396 639.216 
z
" clip-path="url(#p9d9a190d3e)" style="fill: #10b981; opacity: 0.2; stroke: #10b981; stroke-width: 1.5; stroke-linejoin: miter"/>
   </g>
   <g id="patch_14">
    <path d="M 169.437885 639.216 
L 341.50837 639.216 
Q 351.340969 639.216 351.340969 628.128 
L 351.340969 583.776 
Q 351.340969 572.688 341.50837 572.688 
L 169.437885 572.688 
Q 159.605286 572.688 159.605286 583.776 
L 159.605286 628.128 
Q 159.605286 639.216 169.437885 639.216 
z
" clip-path="url(#p9d9a190d3e)" style="fill: #ef4444; opacity: 0.2; stroke: #ef4444; stroke-width: 1.5; stroke-linejoin: miter"/>
   </g>
   <g id="text_1">
    <!-- Check Crawlability -->
    <g style="fill: #2563eb" transform="translate(254.241872 76.992375) scale(0.12 -0.12)">
     <defs>
      <path id="DejaVuSans-Bold-43" d="M 4288 256 
Q 3956 84 3597 -3 
Q 3238 -91 2847 -91 
Q 1681 -91 1000 561 
Q 319 1213 319 2328 
Q 319 3447 1000 4098 
Q 1681 4750 2847 4750 
Q 3238 4750 3597 4662 
Q 3956 4575 4288 4403 
L 4288 3438 
Q 3953 3666 3628 3772 
Q 3303 3878 2944 3878 
Q 2300 3878 1931 3465 
Q 1563 3053 1563 2328 
Q 1563 1606 1931 1193 
Q 2300 781 2944 781 
Q 3303 781 3628 887 
Q 3953 994 4288 1222 
L 4288 256 
z
" transform="scale(0.015625)"/>
      <path id="DejaVuSans-Bold-68" d="M 4056 2131 
L 4056 0 
L 2931 0 
L 2931 347 
L 2931 1625 
Q 2931 2084 2911 2256 
Q 2891 2428 2841 2509 
Q 2775 2619 2662 2680 
Q 2550 2741 2406 2741 
Q 2056 2741 1856 2470 
Q 1656 2200 1656 1722 
L 1656 0 
L 538 0 
L 538 4863 
L 1656 4863 
L 1656 2988 
Q 1909 3294 2193 3439 
Q 2478 3584 2822 3584 
Q 3428 3584 3742 3212 
Q 4056 2841 4056 2131 
z
" transform="scale(0.015625)"/>
      <path id="DejaVuSans-Bold-65" d="M 4031 1759 
L 4031 1441 
L 1416 1441 
Q 1456 1047 1700 850 
Q 1944 653 2381 653 
Q 2734 653 3104 758 
Q 3475 863 3866 1075 
L 3866 213 
Q 3469 63 3072 -14 
Q 2675 -91 2278 -91 
Q 1328 -91 801 392 
Q 275 875 275 1747 
Q 275 2603 792 3093 
Q 1309 3584 2216 3584 
Q 3041 3584 3536 3087 
Q 4031 2591 4031 1759 
z
M 2881 2131 
Q 2881 2450 2695 2645 
Q 2509 2841 2209 2841 
Q 1884 2841 1681 2658 
Q 1478 2475 1428 2131 
L 2881 2131 
z
" transform="scale(0.015625)"/>
      <path id="DejaVuSans-Bold-63" d="M 3366 3391 
L 3366 2478 
Q 3138 2634 2908 2709 
Q 2678 2784 2431 2784 
Q 1963 2784 1702 2511 
Q 1441 2238 1441 1747 
Q 1441 1256 1702 982 
Q 1963 709 2431 709 
Q 2694 709 2930 787 
Q 3166 866 3366 1019 
L 3366 103 
Q 3103 6 2833 -42 
Q 2563 -91 2291 -91 
Q 1344 -91 809 395 
Q 275 881 275 1747 
Q 275 2613 809 3098 
Q 1344 3584 2291 3584 
Q 2566 3584 2833 3536 
Q 3100 3488 3366 3391 
z
" transform="scale(0.015625)"/>
      <path id="DejaVuSans-Bold-6b" d="M 538 4863 
L 1656 4863 
L 1656 2216 
L 2944 3500 
L 4244 3500 
L 2534 1894 
L 4378 0 
L 3022 0 
L 1656 1459 
L 1656 0 
L 538 0 
L 538 4863 
z
" transform="scale(0.015625)"/>
      <path id="DejaVuSans-Bold-20" transform="scale(0.015625)"/>
      <path id="DejaVuSans-Bold-72" d="M 3138 2547 
Q 2991 2616 2845 2648 
Q 2700 2681 2553 2681 
Q 2122 2681 1889 2404 
Q 1656 2128 1656 1613 
L 1656 0 
L 538 0 
L 538 3500 
L 1656 3500 
L 1656 2925 
Q 1872 3269 2151 3426 
Q 2431 3584 2822 3584 
Q 2878 3584 2943 3579 
Q 3009 3575 3134 3559 
L 3138 2547 
z
" transform="scale(0.015625)"/>
      <path id="DejaVuSans-Bold-61" d="M 2106 1575 
Q 1756 1575 1579 1456 
Q 1403 1338 1403 1106 
Q 1403 894 1545 773 
Q 1688 653 1941 653 
Q 2256 653 2472 879 
Q 2688 1106 2688 1447 
L 2688 1575 
L 2106 1575 
z
M 3816 1997 
L 3816 0 
L 2688 0 
L 2688 519 
Q 2463 200 2181 54 
Q 1900 -91 1497 -91 
Q 953 -91 614 226 
Q 275 544 275 1050 
Q 275 1666 698 1953 
Q 1122 2241 2028 2241 
L 2688 2241 
L 2688 2328 
Q 2688 2594 2478 2717 
Q 2269 2841 1825 2841 
Q 1466 2841 1156 2769 
Q 847 2697 581 2553 
L 581 3406 
Q 941 3494 1303 3539 
Q 1666 3584 2028 3584 
Q 2975 3584 3395 3211 
Q 3816 2838 3816 1997 
z
" transform="scale(0.015625)"/>
      <path id="DejaVuSans-Bold-77" d="M 225 3500 
L 1313 3500 
L 1900 1088 
L 2491 3500 
L 3425 3500 
L 4013 1113 
L 4603 3500 
L 5691 3500 
L 4769 0 
L 3547 0 
L 2956 2406 
L 2369 0 
L 1147 0 
L 225 3500 
z
" transform="scale(0.015625)"/>
      <path id="DejaVuSans-Bold-6c" d="M 538 4863 
L 1656 4863 
L 1656 0 
L 538 0 
L 538 4863 
z
" transform="scale(0.015625)"/>
      <path id="DejaVuSans-Bold-62" d="M 2400 722 
Q 2759 722 2948 984 
Q 3138 1247 3138 1747 
Q 3138 2247 2948 2509 
Q 2759 2772 2400 2772 
Q 2041 2772 1848 2508 
Q 1656 2244 1656 1747 
Q 1656 1250 1848 986 
Q 2041 722 2400 722 
z
M 1656 2988 
Q 1888 3294 2169 3439 
Q 2450 3584 2816 3584 
Q 3463 3584 3878 3070 
Q 4294 2556 4294 1747 
Q 4294 938 3878 423 
Q 3463 -91 2816 -91 
Q 2450 -91 2169 54 
Q 1888 200 1656 506 
L 1656 0 
L 538 0 
L 538 4863 
L 1656 4863 
L 1656 2988 
z
" transform="scale(0.015625)"/>
      <path id="DejaVuSans-Bold-69" d="M 538 3500 
L 1656 3500 
L 1656 0 
L 538 0 
L 538 3500 
z
M 538 4863 
L 1656 4863 
L 1656 3950 
L 538 3950 
L 538 4863 
z
" transform="scale(0.015625)"/>
      <path id="DejaVuSans-Bold-74" d="M 1759 4494 
L 1759 3500 
L 2913 3500 
L 2913 2700 
L 1759 2700 
L 1759 1216 
Q 1759 972 1856 886 
Q 1953 800 2241 800 
L 2816 800 
L 2816 0 
L 1856 0 
Q 1194 0 917 276 
Q 641 553 641 1216 
L 641 2700 
L 84 2700 
L 84 3500 
L 641 3500 
L 641 4494 
L 1759 4494 
z
" transform="scale(0.015625)"/>
      <path id="DejaVuSans-Bold-79" d="M 78 3500 
L 1197 3500 
L 2138 1125 
L 2938 3500 
L 4056 3500 
L 2584 -331 
Q 2363 -916 2067 -1148 
Q 1772 -1381 1288 -1381 
L 641 -1381 
L 641 -647 
L 991 -647 
Q 1275 -647 1404 -556 
Q 1534 -466 1606 -231 
L 1638 -134 
L 78 3500 
z
" transform="scale(0.015625)"/>
     </defs>
     <use xlink:href="#DejaVuSans-Bold-43"/>
     <use xlink:href="#DejaVuSans-Bold-68" transform="translate(73.388672 0)"/>
     <use xlink:href="#DejaVuSans-Bold-65" transform="translate(144.580078 0)"/>
     <use xlink:href="#DejaVuSans-Bold-63" transform="translate(212.402344 0)"/>
     <use xlink:href="#DejaVuSans-Bold-6b" transform="translate(271.679688 0)"/>
     <use xlink:href="#DejaVuSans-Bold-20" transform="translate(338.183594 0)"/>
     <use xlink:href="#DejaVuSans-Bold-43" transform="translate(372.998047 0)"/>
     <use xlink:href="#DejaVuSans-Bold-72" transform="translate(446.386719 0)"/>
     <use xlink:href="#DejaVuSans-Bold-61" transform="translate(495.703125 0)"/>
     <use xlink:href="#DejaVuSans-Bold-77" transform="translate(563.183594 0)"/>
     <use xlink:href="#DejaVuSans-Bold-6c" transform="translate(655.566406 0)"/>
     <use xlink:href="#DejaVuSans-Bold-61" transform="translate(689.84375 0)"/>
     <use xlink:href="#DejaVuSans-Bold-62" transform="translate(757.324219 0)"/>
     <use xlink:href="#DejaVuSans-Bold-69" transform="translate(828.90625 0)"/>
     <use xlink:href="#DejaVuSans-Bold-6c" transform="translate(863.183594 0)"/>
     <use xlink:href="#DejaVuSans-Bold-69" transform="translate(897.460938 0)"/>
     <use xlink:href="#DejaVuSans-Bold-74" transform="translate(931.738281 0)"/>
     <use xlink:href="#DejaVuSans-Bold-79" transform="translate(979.541016 0)"/>
    </g>
   </g>
   <g id="text_2">
    <!-- Can Crawl? -->
    <g style="fill: #10b981" transform="translate(279.621872 210.09525) scale(0.12 -0.12)">
     <defs>
      <path id="DejaVuSans-Bold-6e" d="M 4056 2131 
L 4056 0 
L 2931 0 
L 2931 347 
L 2931 1631 
Q 2931 2084 2911 2256 
Q 2891 2428 2841 2509 
Q 2775 2619 2662 2680 
Q 2550 2741 2406 2741 
Q 2056 2741 1856 2470 
Q 1656 2200 1656 1722 
L 1656 0 
L 538 0 
L 538 3500 
L 1656 3500 
L 1656 2988 
Q 1909 3294 2193 3439 
Q 2478 3584 2822 3584 
Q 3428 3584 3742 3212 
Q 4056 2841 4056 2131 
z
" transform="scale(0.015625)"/>
      <path id="DejaVuSans-Bold-3f" d="M 2216 1575 
L 1088 1575 
L 1088 1728 
Q 1088 1984 1191 2182 
Q 1294 2381 1625 2688 
L 1825 2869 
Q 2003 3031 2086 3175 
Q 2169 3319 2169 3463 
Q 2169 3681 2019 3804 
Q 1869 3928 1600 3928 
Q 1347 3928 1053 3823 
Q 759 3719 441 3513 
L 441 4494 
Q 819 4625 1131 4687 
Q 1444 4750 1734 4750 
Q 2497 4750 2897 4439 
Q 3297 4128 3297 3531 
Q 3297 3225 3175 2983 
Q 3053 2741 2759 2463 
L 2559 2284 
Q 2347 2091 2281 1973 
Q 2216 1856 2216 1716 
L 2216 1575 
z
M 1088 1113 
L 2216 1113 
L 2216 0 
L 1088 0 
L 1088 1113 
z
" transform="scale(0.015625)"/>
     </defs>
     <use xlink:href="#DejaVuSans-Bold-43"/>
     <use xlink:href="#DejaVuSans-Bold-61" transform="translate(73.388672 0)"/>
     <use xlink:href="#DejaVuSans-Bold-6e" transform="translate(140.869141 0)"/>
     <use xlink:href="#DejaVuSans-Bold-20" transform="translate(212.060547 0)"/>
     <use xlink:href="#DejaVuSans-Bold-43" transform="translate(246.875 0)"/>
     <use xlink:href="#DejaVuSans-Bold-72" transform="translate(320.263672 0)"/>
     <use xlink:href="#DejaVuSans-Bold-61" transform="translate(369.580078 0)"/>
     <use xlink:href="#DejaVuSans-Bold-77" transform="translate(437.060547 0)"/>
     <use xlink:href="#DejaVuSans-Bold-6c" transform="translate(529.443359 0)"/>
     <use xlink:href="#DejaVuSans-Bold-3f" transform="translate(563.720703 0)"/>
    </g>
   </g>
   <g id="text_3">
    <!-- Yes: Check Indexability -->
    <g style="fill: #f59e0b" transform="translate(115.682821 343.104375) scale(0.12 -0.12)">
     <defs>
      <path id="DejaVuSans-Bold-59" d="M -63 4666 
L 1253 4666 
L 2316 3003 
L 3378 4666 
L 4697 4666 
L 2919 1966 
L 2919 0 
L 1716 0 
L 1716 1966 
L -63 4666 
z
" transform="scale(0.015625)"/>
      <path id="DejaVuSans-Bold-73" d="M 3272 3391 
L 3272 2541 
Q 2913 2691 2578 2766 
Q 2244 2841 1947 2841 
Q 1628 2841 1473 2761 
Q 1319 2681 1319 2516 
Q 1319 2381 1436 2309 
Q 1553 2238 1856 2203 
L 2053 2175 
Q 2913 2066 3209 1816 
Q 3506 1566 3506 1031 
Q 3506 472 3093 190 
Q 2681 -91 1863 -91 
Q 1516 -91 1145 -36 
Q 775 19 384 128 
L 384 978 
Q 719 816 1070 734 
Q 1422 653 1784 653 
Q 2113 653 2278 743 
Q 2444 834 2444 1013 
Q 2444 1163 2330 1236 
Q 2216 1309 1875 1350 
L 1678 1375 
Q 931 1469 631 1722 
Q 331 1975 331 2491 
Q 331 3047 712 3315 
Q 1094 3584 1881 3584 
Q 2191 3584 2531 3537 
Q 2872 3491 3272 3391 
z
" transform="scale(0.015625)"/>
      <path id="DejaVuSans-Bold-3a" d="M 716 3500 
L 1844 3500 
L 1844 2291 
L 716 2291 
L 716 3500 
z
M 716 1209 
L 1844 1209 
L 1844 0 
L 716 0 
L 716 1209 
z
" transform="scale(0.015625)"/>
      <path id="DejaVuSans-Bold-49" d="M 588 4666 
L 1791 4666 
L 1791 0 
L 588 0 
L 588 4666 
z
" transform="scale(0.015625)"/>
      <path id="DejaVuSans-Bold-64" d="M 2919 2988 
L 2919 4863 
L 4044 4863 
L 4044 0 
L 2919 0 
L 2919 506 
Q 2688 197 2409 53 
Q 2131 -91 1766 -91 
Q 1119 -91 703 423 
Q 288 938 288 1747 
Q 288 2556 703 3070 
Q 1119 3584 1766 3584 
Q 2128 3584 2408 3439 
Q 2688 3294 2919 2988 
z
M 2181 722 
Q 2541 722 2730 984 
Q 2919 1247 2919 1747 
Q 2919 2247 2730 2509 
Q 2541 2772 2181 2772 
Q 1825 2772 1636 2509 
Q 1447 2247 1447 1747 
Q 1447 1247 1636 984 
Q 1825 722 2181 722 
z
" transform="scale(0.015625)"/>
      <path id="DejaVuSans-Bold-78" d="M 1422 1791 
L 159 3500 
L 1344 3500 
L 2059 2463 
L 2784 3500 
L 3969 3500 
L 2706 1797 
L 4031 0 
L 2847 0 
L 2059 1106 
L 1281 0 
L 97 0 
L 1422 1791 
z
" transform="scale(0.015625)"/>
     </defs>
     <use xlink:href="#DejaVuSans-Bold-59"/>
     <use xlink:href="#DejaVuSans-Bold-65" transform="translate(63.287109 0)"/>
     <use xlink:href="#DejaVuSans-Bold-73" transform="translate(131.109375 0)"/>
     <use xlink:href="#DejaVuSans-Bold-3a" transform="translate(190.630859 0)"/>
     <use xlink:href="#DejaVuSans-Bold-20" transform="translate(230.621094 0)"/>
     <use xlink:href="#DejaVuSans-Bold-43" transform="translate(265.435547 0)"/>
     <use xlink:href="#DejaVuSans-Bold-68" transform="translate(338.824219 0)"/>
     <use xlink:href="#DejaVuSans-Bold-65" transform="translate(410.015625 0)"/>
     <use xlink:href="#DejaVuSans-Bold-63" transform="translate(477.837891 0)"/>
     <use xlink:href="#DejaVuSans-Bold-6b" transform="translate(537.115234 0)"/>
     <use xlink:href="#DejaVuSans-Bold-20" transform="translate(603.619141 0)"/>
     <use xlink:href="#DejaVuSans-Bold-49" transform="translate(638.433594 0)"/>
     <use xlink:href="#DejaVuSans-Bold-6e" transform="translate(675.640625 0)"/>
     <use xlink:href="#DejaVuSans-Bold-64" transform="translate(746.832031 0)"/>
     <use xlink:href="#DejaVuSans-Bold-65" transform="translate(818.414062 0)"/>
     <use xlink:href="#DejaVuSans-Bold-78" transform="translate(886.236328 0)"/>
     <use xlink:href="#DejaVuSans-Bold-61" transform="translate(950.738281 0)"/>
     <use xlink:href="#DejaVuSans-Bold-62" transform="translate(1018.21875 0)"/>
     <use xlink:href="#DejaVuSans-Bold-69" transform="translate(1089.800781 0)"/>
     <use xlink:href="#DejaVuSans-Bold-6c" transform="translate(1124.078125 0)"/>
     <use xlink:href="#DejaVuSans-Bold-69" transform="translate(1158.355469 0)"/>
     <use xlink:href="#DejaVuSans-Bold-74" transform="translate(1192.632812 0)"/>
     <use xlink:href="#DejaVuSans-Bold-79" transform="translate(1240.435547 0)"/>
    </g>
   </g>
   <g id="text_4">
    <!-- No: Fix robots.txt -->
    <g style="fill: #ef4444" transform="translate(380.267486 343.15125) scale(0.12 -0.12)">
     <defs>
      <path id="DejaVuSans-Bold-4e" d="M 588 4666 
L 1931 4666 
L 3628 1466 
L 3628 4666 
L 4769 4666 
L 4769 0 
L 3425 0 
L 1728 3200 
L 1728 0 
L 588 0 
L 588 4666 
z
" transform="scale(0.015625)"/>
      <path id="DejaVuSans-Bold-6f" d="M 2203 2784 
Q 1831 2784 1636 2517 
Q 1441 2250 1441 1747 
Q 1441 1244 1636 976 
Q 1831 709 2203 709 
Q 2569 709 2762 976 
Q 2956 1244 2956 1747 
Q 2956 2250 2762 2517 
Q 2569 2784 2203 2784 
z
M 2203 3584 
Q 3106 3584 3614 3096 
Q 4122 2609 4122 1747 
Q 4122 884 3614 396 
Q 3106 -91 2203 -91 
Q 1297 -91 786 396 
Q 275 884 275 1747 
Q 275 2609 786 3096 
Q 1297 3584 2203 3584 
z
" transform="scale(0.015625)"/>
      <path id="DejaVuSans-Bold-46" d="M 588 4666 
L 3834 4666 
L 3834 3756 
L 1791 3756 
L 1791 2888 
L 3713 2888 
L 3713 1978 
L 1791 1978 
L 1791 0 
L 588 0 
L 588 4666 
z
" transform="scale(0.015625)"/>
      <path id="DejaVuSans-Bold-2e" d="M 653 1209 
L 1778 1209 
L 1778 0 
L 653 0 
L 653 1209 
z
" transform="scale(0.015625)"/>
     </defs>
     <use xlink:href="#DejaVuSans-Bold-4e"/>
     <use xlink:href="#DejaVuSans-Bold-6f" transform="translate(83.691406 0)"/>
     <use xlink:href="#DejaVuSans-Bold-3a" transform="translate(152.392578 0)"/>
     <use xlink:href="#DejaVuSans-Bold-20" transform="translate(192.382812 0)"/>
     <use xlink:href="#DejaVuSans-Bold-46" transform="translate(227.197266 0)"/>
     <use xlink:href="#DejaVuSans-Bold-69" transform="translate(295.507812 0)"/>
     <use xlink:href="#DejaVuSans-Bold-78" transform="translate(329.785156 0)"/>
     <use xlink:href="#DejaVuSans-Bold-20" transform="translate(394.287109 0)"/>
     <use xlink:href="#DejaVuSans-Bold-72" transform="translate(429.101562 0)"/>
     <use xlink:href="#DejaVuSans-Bold-6f" transform="translate(478.417969 0)"/>
     <use xlink:href="#DejaVuSans-Bold-62" transform="translate(547.119141 0)"/>
     <use xlink:href="#DejaVuSans-Bold-6f" transform="translate(618.701172 0)"/>
     <use xlink:href="#DejaVuSans-Bold-74" transform="translate(687.402344 0)"/>
     <use xlink:href="#DejaVuSans-Bold-73" transform="translate(735.205078 0)"/>
     <use xlink:href="#DejaVuSans-Bold-2e" transform="translate(794.726562 0)"/>
     <use xlink:href="#DejaVuSans-Bold-74" transform="translate(832.714844 0)"/>
     <use xlink:href="#DejaVuSans-Bold-78" transform="translate(880.517578 0)"/>
     <use xlink:href="#DejaVuSans-Bold-74" transform="translate(945.019531 0)"/>
    </g>
   </g>
   <g id="text_5">
    <!-- Can Index? -->
    <g style="fill: #8b5cf6" transform="translate(156.988133 476.20725) scale(0.12 -0.12)">
     <use xlink:href="#DejaVuSans-Bold-43"/>
     <use xlink:href="#DejaVuSans-Bold-61" transform="translate(73.388672 0)"/>
     <use xlink:href="#DejaVuSans-Bold-6e" transform="translate(140.869141 0)"/>
     <use xlink:href="#DejaVuSans-Bold-20" transform="translate(212.060547 0)"/>
     <use xlink:href="#DejaVuSans-Bold-49" transform="translate(246.875 0)"/>
     <use xlink:href="#DejaVuSans-Bold-6e" transform="translate(284.082031 0)"/>
     <use xlink:href="#DejaVuSans-Bold-64" transform="translate(355.273438 0)"/>
     <use xlink:href="#DejaVuSans-Bold-65" transform="translate(426.855469 0)"/>
     <use xlink:href="#DejaVuSans-Bold-78" transform="translate(494.677734 0)"/>
     <use xlink:href="#DejaVuSans-Bold-3f" transform="translate(559.179688 0)"/>
    </g>
   </g>
   <g id="text_6">
    <!-- Yes: Check Rankings -->
    <g style="fill: #10b981" transform="translate(63.136264 609.216375) scale(0.12 -0.12)">
     <defs>
      <path id="DejaVuSans-Bold-52" d="M 2297 2597 
Q 2675 2597 2839 2737 
Q 3003 2878 3003 3200 
Q 3003 3519 2839 3656 
Q 2675 3794 2297 3794 
L 1791 3794 
L 1791 2597 
L 2297 2597 
z
M 1791 1766 
L 1791 0 
L 588 0 
L 588 4666 
L 2425 4666 
Q 3347 4666 3776 4356 
Q 4206 4047 4206 3378 
Q 4206 2916 3982 2619 
Q 3759 2322 3309 2181 
Q 3556 2125 3751 1926 
Q 3947 1728 4147 1325 
L 4800 0 
L 3519 0 
L 2950 1159 
Q 2778 1509 2601 1637 
Q 2425 1766 2131 1766 
L 1791 1766 
z
" transform="scale(0.015625)"/>
      <path id="DejaVuSans-Bold-67" d="M 2919 594 
Q 2688 288 2409 144 
Q 2131 0 1766 0 
Q 1125 0 706 504 
Q 288 1009 288 1791 
Q 288 2575 706 3076 
Q 1125 3578 1766 3578 
Q 2131 3578 2409 3434 
Q 2688 3291 2919 2981 
L 2919 3500 
L 4044 3500 
L 4044 353 
Q 4044 -491 3511 -936 
Q 2978 -1381 1966 -1381 
Q 1638 -1381 1331 -1331 
Q 1025 -1281 716 -1178 
L 716 -306 
Q 1009 -475 1290 -558 
Q 1572 -641 1856 -641 
Q 2406 -641 2662 -400 
Q 2919 -159 2919 353 
L 2919 594 
z
M 2181 2772 
Q 1834 2772 1640 2515 
Q 1447 2259 1447 1791 
Q 1447 1309 1634 1061 
Q 1822 813 2181 813 
Q 2531 813 2725 1069 
Q 2919 1325 2919 1791 
Q 2919 2259 2725 2515 
Q 2531 2772 2181 2772 
z
" transform="scale(0.015625)"/>
     </defs>
     <use xlink:href="#DejaVuSans-Bold-59"/>
     <use xlink:href="#DejaVuSans-Bold-65" transform="translate(63.287109 0)"/>
     <use xlink:href="#DejaVuSans-Bold-73" transform="translate(131.109375 0)"/>
     <use xlink:href="#DejaVuSans-Bold-3a" transform="translate(190.630859 0)"/>
     <use xlink:href="#DejaVuSans-Bold-20" transform="translate(230.621094 0)"/>
     <use xlink:href="#DejaVuSans-Bold-43" transform="translate(265.435547 0)"/>
     <use xlink:href="#DejaVuSans-Bold-68" transform="translate(338.824219 0)"/>
     <use xlink:href="#DejaVuSans-Bold-65" transform="translate(410.015625 0)"/>
     <use xlink:href="#DejaVuSans-Bold-63" transform="translate(477.837891 0)"/>
     <use xlink:href="#DejaVuSans-Bold-6b" transform="translate(537.115234 0)"/>
     <use xlink:href="#DejaVuSans-Bold-20" transform="translate(603.619141 0)"/>
     <use xlink:href="#DejaVuSans-Bold-52" transform="translate(638.433594 0)"/>
     <use xlink:href="#DejaVuSans-Bold-61" transform="translate(715.435547 0)"/>
     <use xlink:href="#DejaVuSans-Bold-6e" transform="translate(782.916016 0)"/>
     <use xlink:href="#DejaVuSans-Bold-6b" transform="translate(854.107422 0)"/>
     <use xlink:href="#DejaVuSans-Bold-69" transform="translate(920.611328 0)"/>
     <use xlink:href="#DejaVuSans-Bold-6e" transform="translate(954.888672 0)"/>
     <use xlink:href="#DejaVuSans-Bold-67" transform="translate(1026.080078 0)"/>
     <use xlink:href="#DejaVuSans-Bold-73" transform="translate(1097.662109 0)"/>
    </g>
   </g>
   <g id="text_7">
    <!-- No: Remove noindex -->
    <g style="fill: #ef4444" transform="translate(185.75219 609.26325) scale(0.12 -0.12)">
     <defs>
      <path id="DejaVuSans-Bold-6d" d="M 3781 2919 
Q 3994 3244 4286 3414 
Q 4578 3584 4928 3584 
Q 5531 3584 5847 3212 
Q 6163 2841 6163 2131 
L 6163 0 
L 5038 0 
L 5038 1825 
Q 5041 1866 5042 1909 
Q 5044 1953 5044 2034 
Q 5044 2406 4934 2573 
Q 4825 2741 4581 2741 
Q 4263 2741 4089 2478 
Q 3916 2216 3909 1719 
L 3909 0 
L 2784 0 
L 2784 1825 
Q 2784 2406 2684 2573 
Q 2584 2741 2328 2741 
Q 2006 2741 1831 2477 
Q 1656 2213 1656 1722 
L 1656 0 
L 531 0 
L 531 3500 
L 1656 3500 
L 1656 2988 
Q 1863 3284 2130 3434 
Q 2397 3584 2719 3584 
Q 3081 3584 3359 3409 
Q 3638 3234 3781 2919 
z
" transform="scale(0.015625)"/>
      <path id="DejaVuSans-Bold-76" d="M 97 3500 
L 1216 3500 
L 2088 1081 
L 2956 3500 
L 4078 3500 
L 2700 0 
L 1472 0 
L 97 3500 
z
" transform="scale(0.015625)"/>
     </defs>
     <use xlink:href="#DejaVuSans-Bold-4e"/>
     <use xlink:href="#DejaVuSans-Bold-6f" transform="translate(83.691406 0)"/>
     <use xlink:href="#DejaVuSans-Bold-3a" transform="translate(152.392578 0)"/>
     <use xlink:href="#DejaVuSans-Bold-20" transform="translate(192.382812 0)"/>
     <use xlink:href="#DejaVuSans-Bold-52" transform="translate(227.197266 0)"/>
     <use xlink:href="#DejaVuSans-Bold-65" transform="translate(304.199219 0)"/>
     <use xlink:href="#DejaVuSans-Bold-6d" transform="translate(372.021484 0)"/>
     <use xlink:href="#DejaVuSans-Bold-6f" transform="translate(476.220703 0)"/>
     <use xlink:href="#DejaVuSans-Bold-76" transform="translate(544.921875 0)"/>
     <use xlink:href="#DejaVuSans-Bold-65" transform="translate(610.107422 0)"/>
     <use xlink:href="#DejaVuSans-Bold-20" transform="translate(677.929688 0)"/>
     <use xlink:href="#DejaVuSans-Bold-6e" transform="translate(712.744141 0)"/>
     <use xlink:href="#DejaVuSans-Bold-6f" transform="translate(783.935547 0)"/>
     <use xlink:href="#DejaVuSans-Bold-69" transform="translate(852.636719 0)"/>
     <use xlink:href="#DejaVuSans-Bold-6e" transform="translate(886.914062 0)"/>
     <use xlink:href="#DejaVuSans-Bold-64" transform="translate(958.105469 0)"/>
     <use xlink:href="#DejaVuSans-Bold-65" transform="translate(1029.6875 0)"/>
     <use xlink:href="#DejaVuSans-Bold-78" transform="translate(1097.509766 0)"/>
    </g>
   </g>
  </g>
 </g>
 <defs>
  <clipPath id="p9d9a190d3e">
   <rect x="7.2" y="7.2" width="558" height="665.28"/>
  </clipPath>
 </defs>
</svg>
