<?xml version="1.0" encoding="utf-8" standalone="no"?>
<!DOCTYPE svg PUBLIC "-//W3C//DTD SVG 1.1//EN"
  "http://www.w3.org/Graphics/SVG/1.1/DTD/svg11.dtd">
<svg xmlns:xlink="http://www.w3.org/1999/xlink" width="1008pt" height="720pt" viewBox="0 0 1008 720" xmlns="http://www.w3.org/2000/svg" version="1.1">
 <metadata>
  <rdf:RDF xmlns:dc="http://purl.org/dc/elements/1.1/" xmlns:cc="http://creativecommons.org/ns#" xmlns:rdf="http://www.w3.org/1999/02/22-rdf-syntax-ns#">
   <cc:Work>
    <dc:type rdf:resource="http://purl.org/dc/dcmitype/StillImage"/>
    <dc:date>2025-12-26T12:55:28.864964</dc:date>
    <dc:format>image/svg+xml</dc:format>
    <dc:creator>
     <cc:Agent>
      <dc:title>Matplotlib v3.10.8, https://matplotlib.org/</dc:title>
     </cc:Agent>
    </dc:creator>
   </cc:Work>
  </rdf:RDF>
 </metadata>
 <defs>
  <style type="text/css">*{stroke-linejoin: round; stroke-linecap: butt}</style>
 </defs>
 <g id="figure_1">
  <g id="patch_1">
   <path d="M 0 720 
L 1008 720 
L 1008 0 
L 0 0 
z
" style="fill: #f8f9fa"/>
  </g>
  <g id="axes_1">
   <g id="patch_2">
    <path d="M 383.912111 217.705263 
Q 516.599278 217.705263 647.609394 217.705263 
" clip-path="url(#p3cff895b89)" style="fill: none; opacity: 0.5; stroke: #6b7280; stroke-width: 1.5; stroke-linecap: round"/>
    <path d="M 647.209394 217.505263 
L 647.609394 217.705263 
L 647.209394 217.905263 
" clip-path="url(#p3cff895b89)" style="fill: none; opacity: 0.5; stroke: #6b7280; stroke-width: 1.5; stroke-linecap: round"/>
   </g>
   <g id="patch_3">
    <path d="M 383.912111 327.126316 
Q 516.599278 327.126316 647.609394 327.126316 
" clip-path="url(#p3cff895b89)" style="fill: none; opacity: 0.5; stroke: #6b7280; stroke-width: 1.5; stroke-linecap: round"/>
    <path d="M 647.209394 326.926316 
L 647.609394 327.126316 
L 647.209394 327.326316 
" clip-path="url(#p3cff895b89)" style="fill: none; opacity: 0.5; stroke: #6b7280; stroke-width: 1.5; stroke-linecap: round"/>
   </g>
   <g id="patch_4">
    <path d="M 383.912111 436.547368 
Q 516.599278 436.547368 647.609394 436.547368 
" clip-path="url(#p3cff895b89)" style="fill: none; opacity: 0.5; stroke: #6b7280; stroke-width: 1.5; stroke-linecap: round"/>
    <path d="M 647.209394 436.347368 
L 647.609394 436.547368 
L 647.209394 436.747368 
" clip-path="url(#p3cff895b89)" style="fill: none; opacity: 0.5; stroke: #6b7280; stroke-width: 1.5; stroke-linecap: round"/>
   </g>
   <g id="patch_5">
    <path d="M 383.912111 545.968421 
Q 516.599278 545.968421 647.609394 545.968421 
" clip-path="url(#p3cff895b89)" style="fill: none; opacity: 0.5; stroke: #6b7280; stroke-width: 1.5; stroke-linecap: round"/>
    <path d="M 647.209394 545.768421 
L 647.609394 545.968421 
L 647.209394 546.168421 
" clip-path="url(#p3cff895b89)" style="fill: none; opacity: 0.5; stroke: #6b7280; stroke-width: 1.5; stroke-linecap: round"/>
   </g>
   <g id="patch_6">
    <path d="M 179.875862 265.121053 
L 381.910345 265.121053 
Q 392.012069 265.121053 392.012069 254.178947 
L 392.012069 181.231579 
Q 392.012069 170.289474 381.910345 170.289474 
L 179.875862 170.289474 
Q 169.774138 170.289474 169.774138 181.231579 
L 169.774138 254.178947 
Q 169.774138 265.121053 179.875862 265.121053 
z
" clip-path="url(#p3cff895b89)" style="fill: #ef4444; opacity: 0.2; stroke: #ef4444; stroke-width: 1.5; stroke-linejoin: miter"/>
   </g>
   <g id="patch_7">
    <path d="M 179.875862 374.542105 
L 381.910345 374.542105 
Q 392.012069 374.542105 392.012069 363.6 
L 392.012069 290.652632 
Q 392.012069 279.710526 381.910345 279.710526 
L 179.875862 279.710526 
Q 169.774138 279.710526 169.774138 290.652632 
L 169.774138 363.6 
Q 169.774138 374.542105 179.875862 374.542105 
z
" clip-path="url(#p3cff895b89)" style="fill: #ef4444; opacity: 0.2; stroke: #ef4444; stroke-width: 1.5; stroke-linejoin: miter"/>
   </g>
   <g id="patch_8">
    <path d="M 179.875862 483.963158 
L 381.910345 483.963158 
Q 392.012069 483.963158 392.012069 473.021053 
L 392.012069 400.073684 
Q 392.012069 389.131579 381.910345 389.131579 
L 179.875862 389.131579 
Q 169.774138 389.131579 169.774138 400.073684 
L 169.774138 473.021053 
Q 169.774138 483.963158 179.875862 483.963158 
z
" clip-path="url(#p3cff895b89)" style="fill: #ef4444; opacity: 0.2; stroke: #ef4444; stroke-width: 1.5; stroke-linejoin: miter"/>
   </g>
   <g id="patch_9">
    <path d="M 179.875862 593.384211 
L 381.910345 593.384211 
Q 392.012069 593.384211 392.012069 582.442105 
L 392.012069 509.494737 
Q 392.012069 498.552632 381.910345 498.552632 
L 179.875862 498.552632 
Q 169.774138 498.552632 169.774138 509.494737 
L 169.774138 582.442105 
Q 169.774138 593.384211 179.875862 593.384211 
z
" clip-path="url(#p3cff895b89)" style="fill: #ef4444; opacity: 0.2; stroke: #ef4444; stroke-width: 1.5; stroke-linejoin: miter"/>
   </g>
   <g id="patch_10">
    <path d="M 651.289655 265.121053 
L 853.324138 265.121053 
Q 863.425862 265.121053 863.425862 254.178947 
L 863.425862 181.231579 
Q 863.425862 170.289474 853.324138 170.289474 
L 651.289655 170.289474 
Q 641.187931 170.289474 641.187931 181.231579 
L 641.187931 254.178947 
Q 641.187931 265.121053 651.289655 265.121053 
z
" clip-path="url(#p3cff895b89)" style="fill: #10b981; opacity: 0.2; stroke: #10b981; stroke-width: 1.5; stroke-linejoin: miter"/>
   </g>
   <g id="patch_11">
    <path d="M 651.289655 374.542105 
L 853.324138 374.542105 
Q 863.425862 374.542105 863.425862 363.6 
L 863.425862 290.652632 
Q 863.425862 279.710526 853.324138 279.710526 
L 651.289655 279.710526 
Q 641.187931 279.710526 641.187931 290.652632 
L 641.187931 363.6 
Q 641.187931 374.542105 651.289655 374.542105 
z
" clip-path="url(#p3cff895b89)" style="fill: #10b981; opacity: 0.2; stroke: #10b981; stroke-width: 1.5; stroke-linejoin: miter"/>
   </g>
   <g id="patch_12">
    <path d="M 651.289655 483.963158 
L 853.324138 483.963158 
Q 863.425862 483.963158 863.425862 473.021053 
L 863.425862 400.073684 
Q 863.425862 389.131579 853.324138 389.131579 
L 651.289655 389.131579 
Q 641.187931 389.131579 641.187931 400.073684 
L 641.187931 473.021053 
Q 641.187931 483.963158 651.289655 483.963158 
z
" clip-path="url(#p3cff895b89)" style="fill: #10b981; opacity: 0.2; stroke: #10b981; stroke-width: 1.5; stroke-linejoin: miter"/>
   </g>
   <g id="patch_13">
    <path d="M 651.289655 593.384211 
L 853.324138 593.384211 
Q 863.425862 593.384211 863.425862 582.442105 
L 863.425862 509.494737 
Q 863.425862 498.552632 853.324138 498.552632 
L 651.289655 498.552632 
Q 641.187931 498.552632 641.187931 509.494737 
L 641.187931 582.442105 
Q 641.187931 593.384211 651.289655 593.384211 
z
" clip-path="url(#p3cff895b89)" style="fill: #10b981; opacity: 0.2; stroke: #10b981; stroke-width: 1.5; stroke-linejoin: miter"/>
   </g>
   <g id="text_1">
    <!-- Estimated Data -->
    <g style="fill: #ef4444" transform="translate(228.729666 221.016513) scale(0.12 -0.12)">
     <defs>
      <path id="DejaVuSans-Bold-45" d="M 588 4666 
L 3834 4666 
L 3834 3756 
L 1791 3756 
L 1791 2888 
L 3713 2888 
L 3713 1978 
L 1791 1978 
L 1791 909 
L 3903 909 
L 3903 0 
L 588 0 
L 588 4666 
z
" transform="scale(0.015625)"/>
      <path id="DejaVuSans-Bold-73" d="M 3272 3391 
L 3272 2541 
Q 2913 2691 2578 2766 
Q 2244 2841 1947 2841 
Q 1628 2841 1473 2761 
Q 1319 2681 1319 2516 
Q 1319 2381 1436 2309 
Q 1553 2238 1856 2203 
L 2053 2175 
Q 2913 2066 3209 1816 
Q 3506 1566 3506 1031 
Q 3506 472 3093 190 
Q 2681 -91 1863 -91 
Q 1516 -91 1145 -36 
Q 775 19 384 128 
L 384 978 
Q 719 816 1070 734 
Q 1422 653 1784 653 
Q 2113 653 2278 743 
Q 2444 834 2444 1013 
Q 2444 1163 2330 1236 
Q 2216 1309 1875 1350 
L 1678 1375 
Q 931 1469 631 1722 
Q 331 1975 331 2491 
Q 331 3047 712 3315 
Q 1094 3584 1881 3584 
Q 2191 3584 2531 3537 
Q 2872 3491 3272 3391 
z
" transform="scale(0.015625)"/>
      <path id="DejaVuSans-Bold-74" d="M 1759 4494 
L 1759 3500 
L 2913 3500 
L 2913 2700 
L 1759 2700 
L 1759 1216 
Q 1759 972 1856 886 
Q 1953 800 2241 800 
L 2816 800 
L 2816 0 
L 1856 0 
Q 1194 0 917 276 
Q 641 553 641 1216 
L 641 2700 
L 84 2700 
L 84 3500 
L 641 3500 
L 641 4494 
L 1759 4494 
z
" transform="scale(0.015625)"/>
      <path id="DejaVuSans-Bold-69" d="M 538 3500 
L 1656 3500 
L 1656 0 
L 538 0 
L 538 3500 
z
M 538 4863 
L 1656 4863 
L 1656 3950 
L 538 3950 
L 538 4863 
z
" transform="scale(0.015625)"/>
      <path id="DejaVuSans-Bold-6d" d="M 3781 2919 
Q 3994 3244 4286 3414 
Q 4578 3584 4928 3584 
Q 5531 3584 5847 3212 
Q 6163 2841 6163 2131 
L 6163 0 
L 5038 0 
L 5038 1825 
Q 5041 1866 5042 1909 
Q 5044 1953 5044 2034 
Q 5044 2406 4934 2573 
Q 4825 2741 4581 2741 
Q 4263 2741 4089 2478 
Q 3916 2216 3909 1719 
L 3909 0 
L 2784 0 
L 2784 1825 
Q 2784 2406 2684 2573 
Q 2584 2741 2328 2741 
Q 2006 2741 1831 2477 
Q 1656 2213 1656 1722 
L 1656 0 
L 531 0 
L 531 3500 
L 1656 3500 
L 1656 2988 
Q 1863 3284 2130 3434 
Q 2397 3584 2719 3584 
Q 3081 3584 3359 3409 
Q 3638 3234 3781 2919 
z
" transform="scale(0.015625)"/>
      <path id="DejaVuSans-Bold-61" d="M 2106 1575 
Q 1756 1575 1579 1456 
Q 1403 1338 1403 1106 
Q 1403 894 1545 773 
Q 1688 653 1941 653 
Q 2256 653 2472 879 
Q 2688 1106 2688 1447 
L 2688 1575 
L 2106 1575 
z
M 3816 1997 
L 3816 0 
L 2688 0 
L 2688 519 
Q 2463 200 2181 54 
Q 1900 -91 1497 -91 
Q 953 -91 614 226 
Q 275 544 275 1050 
Q 275 1666 698 1953 
Q 1122 2241 2028 2241 
L 2688 2241 
L 2688 2328 
Q 2688 2594 2478 2717 
Q 2269 2841 1825 2841 
Q 1466 2841 1156 2769 
Q 847 2697 581 2553 
L 581 3406 
Q 941 3494 1303 3539 
Q 1666 3584 2028 3584 
Q 2975 3584 3395 3211 
Q 3816 2838 3816 1997 
z
" transform="scale(0.015625)"/>
      <path id="DejaVuSans-Bold-65" d="M 4031 1759 
L 4031 1441 
L 1416 1441 
Q 1456 1047 1700 850 
Q 1944 653 2381 653 
Q 2734 653 3104 758 
Q 3475 863 3866 1075 
L 3866 213 
Q 3469 63 3072 -14 
Q 2675 -91 2278 -91 
Q 1328 -91 801 392 
Q 275 875 275 1747 
Q 275 2603 792 3093 
Q 1309 3584 2216 3584 
Q 3041 3584 3536 3087 
Q 4031 2591 4031 1759 
z
M 2881 2131 
Q 2881 2450 2695 2645 
Q 2509 2841 2209 2841 
Q 1884 2841 1681 2658 
Q 1478 2475 1428 2131 
L 2881 2131 
z
" transform="scale(0.015625)"/>
      <path id="DejaVuSans-Bold-64" d="M 2919 2988 
L 2919 4863 
L 4044 4863 
L 4044 0 
L 2919 0 
L 2919 506 
Q 2688 197 2409 53 
Q 2131 -91 1766 -91 
Q 1119 -91 703 423 
Q 288 938 288 1747 
Q 288 2556 703 3070 
Q 1119 3584 1766 3584 
Q 2128 3584 2408 3439 
Q 2688 3294 2919 2988 
z
M 2181 722 
Q 2541 722 2730 984 
Q 2919 1247 2919 1747 
Q 2919 2247 2730 2509 
Q 2541 2772 2181 2772 
Q 1825 2772 1636 2509 
Q 1447 2247 1447 1747 
Q 1447 1247 1636 984 
Q 1825 722 2181 722 
z
" transform="scale(0.015625)"/>
      <path id="DejaVuSans-Bold-20" transform="scale(0.015625)"/>
      <path id="DejaVuSans-Bold-44" d="M 1791 3756 
L 1791 909 
L 2222 909 
Q 2959 909 3348 1275 
Q 3738 1641 3738 2338 
Q 3738 3031 3350 3393 
Q 2963 3756 2222 3756 
L 1791 3756 
z
M 588 4666 
L 1856 4666 
Q 2919 4666 3439 4514 
Q 3959 4363 4331 4000 
Q 4659 3684 4818 3271 
Q 4978 2859 4978 2338 
Q 4978 1809 4818 1395 
Q 4659 981 4331 666 
Q 3956 303 3431 151 
Q 2906 0 1856 0 
L 588 0 
L 588 4666 
z
" transform="scale(0.015625)"/>
     </defs>
     <use xlink:href="#DejaVuSans-Bold-45"/>
     <use xlink:href="#DejaVuSans-Bold-73" transform="translate(68.310547 0)"/>
     <use xlink:href="#DejaVuSans-Bold-74" transform="translate(127.832031 0)"/>
     <use xlink:href="#DejaVuSans-Bold-69" transform="translate(175.634766 0)"/>
     <use xlink:href="#DejaVuSans-Bold-6d" transform="translate(209.912109 0)"/>
     <use xlink:href="#DejaVuSans-Bold-61" transform="translate(314.111328 0)"/>
     <use xlink:href="#DejaVuSans-Bold-74" transform="translate(381.591797 0)"/>
     <use xlink:href="#DejaVuSans-Bold-65" transform="translate(429.394531 0)"/>
     <use xlink:href="#DejaVuSans-Bold-64" transform="translate(497.216797 0)"/>
     <use xlink:href="#DejaVuSans-Bold-20" transform="translate(568.798828 0)"/>
     <use xlink:href="#DejaVuSans-Bold-44" transform="translate(603.613281 0)"/>
     <use xlink:href="#DejaVuSans-Bold-61" transform="translate(686.621094 0)"/>
     <use xlink:href="#DejaVuSans-Bold-74" transform="translate(754.101562 0)"/>
     <use xlink:href="#DejaVuSans-Bold-61" transform="translate(801.904297 0)"/>
    </g>
   </g>
   <g id="text_2">
    <!-- Missing Keywords -->
    <g style="fill: #ef4444" transform="translate(219.996853 330.390691) scale(0.12 -0.12)">
     <defs>
      <path id="DejaVuSans-Bold-4d" d="M 588 4666 
L 2119 4666 
L 3181 2169 
L 4250 4666 
L 5778 4666 
L 5778 0 
L 4641 0 
L 4641 3413 
L 3566 897 
L 2803 897 
L 1728 3413 
L 1728 0 
L 588 0 
L 588 4666 
z
" transform="scale(0.015625)"/>
      <path id="DejaVuSans-Bold-6e" d="M 4056 2131 
L 4056 0 
L 2931 0 
L 2931 347 
L 2931 1631 
Q 2931 2084 2911 2256 
Q 2891 2428 2841 2509 
Q 2775 2619 2662 2680 
Q 2550 2741 2406 2741 
Q 2056 2741 1856 2470 
Q 1656 2200 1656 1722 
L 1656 0 
L 538 0 
L 538 3500 
L 1656 3500 
L 1656 2988 
Q 1909 3294 2193 3439 
Q 2478 3584 2822 3584 
Q 3428 3584 3742 3212 
Q 4056 2841 4056 2131 
z
" transform="scale(0.015625)"/>
      <path id="DejaVuSans-Bold-67" d="M 2919 594 
Q 2688 288 2409 144 
Q 2131 0 1766 0 
Q 1125 0 706 504 
Q 288 1009 288 1791 
Q 288 2575 706 3076 
Q 1125 3578 1766 3578 
Q 2131 3578 2409 3434 
Q 2688 3291 2919 2981 
L 2919 3500 
L 4044 3500 
L 4044 353 
Q 4044 -491 3511 -936 
Q 2978 -1381 1966 -1381 
Q 1638 -1381 1331 -1331 
Q 1025 -1281 716 -1178 
L 716 -306 
Q 1009 -475 1290 -558 
Q 1572 -641 1856 -641 
Q 2406 -641 2662 -400 
Q 2919 -159 2919 353 
L 2919 594 
z
M 2181 2772 
Q 1834 2772 1640 2515 
Q 1447 2259 1447 1791 
Q 1447 1309 1634 1061 
Q 1822 813 2181 813 
Q 2531 813 2725 1069 
Q 2919 1325 2919 1791 
Q 2919 2259 2725 2515 
Q 2531 2772 2181 2772 
z
" transform="scale(0.015625)"/>
      <path id="DejaVuSans-Bold-4b" d="M 588 4666 
L 1791 4666 
L 1791 2963 
L 3525 4666 
L 4922 4666 
L 2675 2456 
L 5153 0 
L 3647 0 
L 1791 1838 
L 1791 0 
L 588 0 
L 588 4666 
z
" transform="scale(0.015625)"/>
      <path id="DejaVuSans-Bold-79" d="M 78 3500 
L 1197 3500 
L 2138 1125 
L 2938 3500 
L 4056 3500 
L 2584 -331 
Q 2363 -916 2067 -1148 
Q 1772 -1381 1288 -1381 
L 641 -1381 
L 641 -647 
L 991 -647 
Q 1275 -647 1404 -556 
Q 1534 -466 1606 -231 
L 1638 -134 
L 78 3500 
z
" transform="scale(0.015625)"/>
      <path id="DejaVuSans-Bold-77" d="M 225 3500 
L 1313 3500 
L 1900 1088 
L 2491 3500 
L 3425 3500 
L 4013 1113 
L 4603 3500 
L 5691 3500 
L 4769 0 
L 3547 0 
L 2956 2406 
L 2369 0 
L 1147 0 
L 225 3500 
z
" transform="scale(0.015625)"/>
      <path id="DejaVuSans-Bold-6f" d="M 2203 2784 
Q 1831 2784 1636 2517 
Q 1441 2250 1441 1747 
Q 1441 1244 1636 976 
Q 1831 709 2203 709 
Q 2569 709 2762 976 
Q 2956 1244 2956 1747 
Q 2956 2250 2762 2517 
Q 2569 2784 2203 2784 
z
M 2203 3584 
Q 3106 3584 3614 3096 
Q 4122 2609 4122 1747 
Q 4122 884 3614 396 
Q 3106 -91 2203 -91 
Q 1297 -91 786 396 
Q 275 884 275 1747 
Q 275 2609 786 3096 
Q 1297 3584 2203 3584 
z
" transform="scale(0.015625)"/>
      <path id="DejaVuSans-Bold-72" d="M 3138 2547 
Q 2991 2616 2845 2648 
Q 2700 2681 2553 2681 
Q 2122 2681 1889 2404 
Q 1656 2128 1656 1613 
L 1656 0 
L 538 0 
L 538 3500 
L 1656 3500 
L 1656 2925 
Q 1872 3269 2151 3426 
Q 2431 3584 2822 3584 
Q 2878 3584 2943 3579 
Q 3009 3575 3134 3559 
L 3138 2547 
z
" transform="scale(0.015625)"/>
     </defs>
     <use xlink:href="#DejaVuSans-Bold-4d"/>
     <use xlink:href="#DejaVuSans-Bold-69" transform="translate(99.511719 0)"/>
     <use xlink:href="#DejaVuSans-Bold-73" transform="translate(133.789062 0)"/>
     <use xlink:href="#DejaVuSans-Bold-73" transform="translate(193.310547 0)"/>
     <use xlink:href="#DejaVuSans-Bold-69" transform="translate(252.832031 0)"/>
     <use xlink:href="#DejaVuSans-Bold-6e" transform="translate(287.109375 0)"/>
     <use xlink:href="#DejaVuSans-Bold-67" transform="translate(358.300781 0)"/>
     <use xlink:href="#DejaVuSans-Bold-20" transform="translate(429.882812 0)"/>
     <use xlink:href="#DejaVuSans-Bold-4b" transform="translate(464.697266 0)"/>
     <use xlink:href="#DejaVuSans-Bold-65" transform="translate(540.4375 0)"/>
     <use xlink:href="#DejaVuSans-Bold-79" transform="translate(608.259766 0)"/>
     <use xlink:href="#DejaVuSans-Bold-77" transform="translate(673.445312 0)"/>
     <use xlink:href="#DejaVuSans-Bold-6f" transform="translate(765.828125 0)"/>
     <use xlink:href="#DejaVuSans-Bold-72" transform="translate(834.529297 0)"/>
     <use xlink:href="#DejaVuSans-Bold-64" transform="translate(883.845703 0)"/>
     <use xlink:href="#DejaVuSans-Bold-73" transform="translate(955.427734 0)"/>
    </g>
   </g>
   <g id="text_3">
    <!-- Tool Bias -->
    <g style="fill: #ef4444" transform="translate(250.954978 439.858618) scale(0.12 -0.12)">
     <defs>
      <path id="DejaVuSans-Bold-54" d="M 31 4666 
L 4331 4666 
L 4331 3756 
L 2784 3756 
L 2784 0 
L 1581 0 
L 1581 3756 
L 31 3756 
L 31 4666 
z
" transform="scale(0.015625)"/>
      <path id="DejaVuSans-Bold-6c" d="M 538 4863 
L 1656 4863 
L 1656 0 
L 538 0 
L 538 4863 
z
" transform="scale(0.015625)"/>
      <path id="DejaVuSans-Bold-42" d="M 2456 2859 
Q 2741 2859 2887 2984 
Q 3034 3109 3034 3353 
Q 3034 3594 2887 3720 
Q 2741 3847 2456 3847 
L 1791 3847 
L 1791 2859 
L 2456 2859 
z
M 2497 819 
Q 2859 819 3042 972 
Q 3225 1125 3225 1434 
Q 3225 1738 3044 1889 
Q 2863 2041 2497 2041 
L 1791 2041 
L 1791 819 
L 2497 819 
z
M 3616 2497 
Q 4003 2384 4215 2081 
Q 4428 1778 4428 1338 
Q 4428 663 3972 331 
Q 3516 0 2584 0 
L 588 0 
L 588 4666 
L 2394 4666 
Q 3366 4666 3802 4372 
Q 4238 4078 4238 3431 
Q 4238 3091 4078 2852 
Q 3919 2613 3616 2497 
z
" transform="scale(0.015625)"/>
     </defs>
     <use xlink:href="#DejaVuSans-Bold-54"/>
     <use xlink:href="#DejaVuSans-Bold-6f" transform="translate(54.962891 0)"/>
     <use xlink:href="#DejaVuSans-Bold-6f" transform="translate(123.664062 0)"/>
     <use xlink:href="#DejaVuSans-Bold-6c" transform="translate(192.365234 0)"/>
     <use xlink:href="#DejaVuSans-Bold-20" transform="translate(226.642578 0)"/>
     <use xlink:href="#DejaVuSans-Bold-42" transform="translate(261.457031 0)"/>
     <use xlink:href="#DejaVuSans-Bold-69" transform="translate(337.677734 0)"/>
     <use xlink:href="#DejaVuSans-Bold-61" transform="translate(371.955078 0)"/>
     <use xlink:href="#DejaVuSans-Bold-73" transform="translate(439.435547 0)"/>
    </g>
   </g>
   <g id="text_4">
    <!-- Incomplete Coverage -->
    <g style="fill: #ef4444" transform="translate(209.132166 549.232796) scale(0.12 -0.12)">
     <defs>
      <path id="DejaVuSans-Bold-49" d="M 588 4666 
L 1791 4666 
L 1791 0 
L 588 0 
L 588 4666 
z
" transform="scale(0.015625)"/>
      <path id="DejaVuSans-Bold-63" d="M 3366 3391 
L 3366 2478 
Q 3138 2634 2908 2709 
Q 2678 2784 2431 2784 
Q 1963 2784 1702 2511 
Q 1441 2238 1441 1747 
Q 1441 1256 1702 982 
Q 1963 709 2431 709 
Q 2694 709 2930 787 
Q 3166 866 3366 1019 
L 3366 103 
Q 3103 6 2833 -42 
Q 2563 -91 2291 -91 
Q 1344 -91 809 395 
Q 275 881 275 1747 
Q 275 2613 809 3098 
Q 1344 3584 2291 3584 
Q 2566 3584 2833 3536 
Q 3100 3488 3366 3391 
z
" transform="scale(0.015625)"/>
      <path id="DejaVuSans-Bold-70" d="M 1656 506 
L 1656 -1331 
L 538 -1331 
L 538 3500 
L 1656 3500 
L 1656 2988 
Q 1888 3294 2169 3439 
Q 2450 3584 2816 3584 
Q 3463 3584 3878 3070 
Q 4294 2556 4294 1747 
Q 4294 938 3878 423 
Q 3463 -91 2816 -91 
Q 2450 -91 2169 54 
Q 1888 200 1656 506 
z
M 2400 2772 
Q 2041 2772 1848 2508 
Q 1656 2244 1656 1747 
Q 1656 1250 1848 986 
Q 2041 722 2400 722 
Q 2759 722 2948 984 
Q 3138 1247 3138 1747 
Q 3138 2247 2948 2509 
Q 2759 2772 2400 2772 
z
" transform="scale(0.015625)"/>
      <path id="DejaVuSans-Bold-43" d="M 4288 256 
Q 3956 84 3597 -3 
Q 3238 -91 2847 -91 
Q 1681 -91 1000 561 
Q 319 1213 319 2328 
Q 319 3447 1000 4098 
Q 1681 4750 2847 4750 
Q 3238 4750 3597 4662 
Q 3956 4575 4288 4403 
L 4288 3438 
Q 3953 3666 3628 3772 
Q 3303 3878 2944 3878 
Q 2300 3878 1931 3465 
Q 1563 3053 1563 2328 
Q 1563 1606 1931 1193 
Q 2300 781 2944 781 
Q 3303 781 3628 887 
Q 3953 994 4288 1222 
L 4288 256 
z
" transform="scale(0.015625)"/>
      <path id="DejaVuSans-Bold-76" d="M 97 3500 
L 1216 3500 
L 2088 1081 
L 2956 3500 
L 4078 3500 
L 2700 0 
L 1472 0 
L 97 3500 
z
" transform="scale(0.015625)"/>
     </defs>
     <use xlink:href="#DejaVuSans-Bold-49"/>
     <use xlink:href="#DejaVuSans-Bold-6e" transform="translate(37.207031 0)"/>
     <use xlink:href="#DejaVuSans-Bold-63" transform="translate(108.398438 0)"/>
     <use xlink:href="#DejaVuSans-Bold-6f" transform="translate(167.675781 0)"/>
     <use xlink:href="#DejaVuSans-Bold-6d" transform="translate(236.376953 0)"/>
     <use xlink:href="#DejaVuSans-Bold-70" transform="translate(340.576172 0)"/>
     <use xlink:href="#DejaVuSans-Bold-6c" transform="translate(412.158203 0)"/>
     <use xlink:href="#DejaVuSans-Bold-65" transform="translate(446.435547 0)"/>
     <use xlink:href="#DejaVuSans-Bold-74" transform="translate(514.257812 0)"/>
     <use xlink:href="#DejaVuSans-Bold-65" transform="translate(562.060547 0)"/>
     <use xlink:href="#DejaVuSans-Bold-20" transform="translate(629.882812 0)"/>
     <use xlink:href="#DejaVuSans-Bold-43" transform="translate(664.697266 0)"/>
     <use xlink:href="#DejaVuSans-Bold-6f" transform="translate(738.085938 0)"/>
     <use xlink:href="#DejaVuSans-Bold-76" transform="translate(806.787109 0)"/>
     <use xlink:href="#DejaVuSans-Bold-65" transform="translate(871.972656 0)"/>
     <use xlink:href="#DejaVuSans-Bold-72" transform="translate(939.794922 0)"/>
     <use xlink:href="#DejaVuSans-Bold-61" transform="translate(989.111328 0)"/>
     <use xlink:href="#DejaVuSans-Bold-67" transform="translate(1056.591797 0)"/>
     <use xlink:href="#DejaVuSans-Bold-65" transform="translate(1128.173828 0)"/>
    </g>
   </g>
   <g id="text_5">
    <!-- Logic-Based -->
    <g style="fill: #10b981" transform="translate(711.405647 214.204076) scale(0.12 -0.12)">
     <defs>
      <path id="DejaVuSans-Bold-4c" d="M 588 4666 
L 1791 4666 
L 1791 909 
L 3903 909 
L 3903 0 
L 588 0 
L 588 4666 
z
" transform="scale(0.015625)"/>
      <path id="DejaVuSans-Bold-2d" d="M 347 2297 
L 2309 2297 
L 2309 1388 
L 347 1388 
L 347 2297 
z
" transform="scale(0.015625)"/>
     </defs>
     <use xlink:href="#DejaVuSans-Bold-4c"/>
     <use xlink:href="#DejaVuSans-Bold-6f" transform="translate(63.720703 0)"/>
     <use xlink:href="#DejaVuSans-Bold-67" transform="translate(132.421875 0)"/>
     <use xlink:href="#DejaVuSans-Bold-69" transform="translate(204.003906 0)"/>
     <use xlink:href="#DejaVuSans-Bold-63" transform="translate(238.28125 0)"/>
     <use xlink:href="#DejaVuSans-Bold-2d" transform="translate(297.558594 0)"/>
     <use xlink:href="#DejaVuSans-Bold-42" transform="translate(339.0625 0)"/>
     <use xlink:href="#DejaVuSans-Bold-61" transform="translate(415.283203 0)"/>
     <use xlink:href="#DejaVuSans-Bold-73" transform="translate(482.763672 0)"/>
     <use xlink:href="#DejaVuSans-Bold-65" transform="translate(542.285156 0)"/>
     <use xlink:href="#DejaVuSans-Bold-64" transform="translate(610.107422 0)"/>
    </g>
    <!-- Discovery -->
    <g style="fill: #10b981" transform="translate(719.168147 227.735201) scale(0.12 -0.12)">
     <use xlink:href="#DejaVuSans-Bold-44"/>
     <use xlink:href="#DejaVuSans-Bold-69" transform="translate(83.007812 0)"/>
     <use xlink:href="#DejaVuSans-Bold-73" transform="translate(117.285156 0)"/>
     <use xlink:href="#DejaVuSans-Bold-63" transform="translate(176.806641 0)"/>
     <use xlink:href="#DejaVuSans-Bold-6f" transform="translate(236.083984 0)"/>
     <use xlink:href="#DejaVuSans-Bold-76" transform="translate(304.785156 0)"/>
     <use xlink:href="#DejaVuSans-Bold-65" transform="translate(369.970703 0)"/>
     <use xlink:href="#DejaVuSans-Bold-72" transform="translate(437.792969 0)"/>
     <use xlink:href="#DejaVuSans-Bold-79" transform="translate(487.109375 0)"/>
    </g>
   </g>
   <g id="text_6">
    <!-- SERP Analysis -->
    <g style="fill: #10b981" transform="translate(704.650022 323.672003) scale(0.12 -0.12)">
     <defs>
      <path id="DejaVuSans-Bold-53" d="M 3834 4519 
L 3834 3531 
Q 3450 3703 3084 3790 
Q 2719 3878 2394 3878 
Q 1963 3878 1756 3759 
Q 1550 3641 1550 3391 
Q 1550 3203 1689 3098 
Q 1828 2994 2194 2919 
L 2706 2816 
Q 3484 2659 3812 2340 
Q 4141 2022 4141 1434 
Q 4141 663 3683 286 
Q 3225 -91 2284 -91 
Q 1841 -91 1394 -6 
Q 947 78 500 244 
L 500 1259 
Q 947 1022 1364 901 
Q 1781 781 2169 781 
Q 2563 781 2772 912 
Q 2981 1044 2981 1288 
Q 2981 1506 2839 1625 
Q 2697 1744 2272 1838 
L 1806 1941 
Q 1106 2091 782 2419 
Q 459 2747 459 3303 
Q 459 4000 909 4375 
Q 1359 4750 2203 4750 
Q 2588 4750 2994 4692 
Q 3400 4634 3834 4519 
z
" transform="scale(0.015625)"/>
      <path id="DejaVuSans-Bold-52" d="M 2297 2597 
Q 2675 2597 2839 2737 
Q 3003 2878 3003 3200 
Q 3003 3519 2839 3656 
Q 2675 3794 2297 3794 
L 1791 3794 
L 1791 2597 
L 2297 2597 
z
M 1791 1766 
L 1791 0 
L 588 0 
L 588 4666 
L 2425 4666 
Q 3347 4666 3776 4356 
Q 4206 4047 4206 3378 
Q 4206 2916 3982 2619 
Q 3759 2322 3309 2181 
Q 3556 2125 3751 1926 
Q 3947 1728 4147 1325 
L 4800 0 
L 3519 0 
L 2950 1159 
Q 2778 1509 2601 1637 
Q 2425 1766 2131 1766 
L 1791 1766 
z
" transform="scale(0.015625)"/>
      <path id="DejaVuSans-Bold-50" d="M 588 4666 
L 2584 4666 
Q 3475 4666 3951 4270 
Q 4428 3875 4428 3144 
Q 4428 2409 3951 2014 
Q 3475 1619 2584 1619 
L 1791 1619 
L 1791 0 
L 588 0 
L 588 4666 
z
M 1791 3794 
L 1791 2491 
L 2456 2491 
Q 2806 2491 2997 2661 
Q 3188 2831 3188 3144 
Q 3188 3456 2997 3625 
Q 2806 3794 2456 3794 
L 1791 3794 
z
" transform="scale(0.015625)"/>
      <path id="DejaVuSans-Bold-41" d="M 3419 850 
L 1538 850 
L 1241 0 
L 31 0 
L 1759 4666 
L 3194 4666 
L 4922 0 
L 3713 0 
L 3419 850 
z
M 1838 1716 
L 3116 1716 
L 2478 3572 
L 1838 1716 
z
" transform="scale(0.015625)"/>
     </defs>
     <use xlink:href="#DejaVuSans-Bold-53"/>
     <use xlink:href="#DejaVuSans-Bold-45" transform="translate(72.021484 0)"/>
     <use xlink:href="#DejaVuSans-Bold-52" transform="translate(140.332031 0)"/>
     <use xlink:href="#DejaVuSans-Bold-50" transform="translate(217.333984 0)"/>
     <use xlink:href="#DejaVuSans-Bold-20" transform="translate(290.625 0)"/>
     <use xlink:href="#DejaVuSans-Bold-41" transform="translate(325.439453 0)"/>
     <use xlink:href="#DejaVuSans-Bold-6e" transform="translate(402.832031 0)"/>
     <use xlink:href="#DejaVuSans-Bold-61" transform="translate(474.023438 0)"/>
     <use xlink:href="#DejaVuSans-Bold-6c" transform="translate(541.503906 0)"/>
     <use xlink:href="#DejaVuSans-Bold-79" transform="translate(575.78125 0)"/>
     <use xlink:href="#DejaVuSans-Bold-73" transform="translate(640.966797 0)"/>
     <use xlink:href="#DejaVuSans-Bold-69" transform="translate(700.488281 0)"/>
     <use xlink:href="#DejaVuSans-Bold-73" transform="translate(734.765625 0)"/>
    </g>
    <!-- Validation -->
    <g style="fill: #10b981" transform="translate(718.168772 337.203128) scale(0.12 -0.12)">
     <defs>
      <path id="DejaVuSans-Bold-56" d="M 31 4666 
L 1241 4666 
L 2478 1222 
L 3713 4666 
L 4922 4666 
L 3194 0 
L 1759 0 
L 31 4666 
z
" transform="scale(0.015625)"/>
     </defs>
     <use xlink:href="#DejaVuSans-Bold-56"/>
     <use xlink:href="#DejaVuSans-Bold-61" transform="translate(71.892578 0)"/>
     <use xlink:href="#DejaVuSans-Bold-6c" transform="translate(139.373047 0)"/>
     <use xlink:href="#DejaVuSans-Bold-69" transform="translate(173.650391 0)"/>
     <use xlink:href="#DejaVuSans-Bold-64" transform="translate(207.927734 0)"/>
     <use xlink:href="#DejaVuSans-Bold-61" transform="translate(279.509766 0)"/>
     <use xlink:href="#DejaVuSans-Bold-74" transform="translate(346.990234 0)"/>
     <use xlink:href="#DejaVuSans-Bold-69" transform="translate(394.792969 0)"/>
     <use xlink:href="#DejaVuSans-Bold-6f" transform="translate(429.070312 0)"/>
     <use xlink:href="#DejaVuSans-Bold-6e" transform="translate(497.771484 0)"/>
    </g>
   </g>
   <g id="text_7">
    <!-- Strategic -->
    <g style="fill: #10b981" transform="translate(721.264397 433.046181) scale(0.12 -0.12)">
     <use xlink:href="#DejaVuSans-Bold-53"/>
     <use xlink:href="#DejaVuSans-Bold-74" transform="translate(72.021484 0)"/>
     <use xlink:href="#DejaVuSans-Bold-72" transform="translate(119.824219 0)"/>
     <use xlink:href="#DejaVuSans-Bold-61" transform="translate(169.140625 0)"/>
     <use xlink:href="#DejaVuSans-Bold-74" transform="translate(236.621094 0)"/>
     <use xlink:href="#DejaVuSans-Bold-65" transform="translate(284.423828 0)"/>
     <use xlink:href="#DejaVuSans-Bold-67" transform="translate(352.246094 0)"/>
     <use xlink:href="#DejaVuSans-Bold-69" transform="translate(423.828125 0)"/>
     <use xlink:href="#DejaVuSans-Bold-63" transform="translate(458.105469 0)"/>
    </g>
    <!-- Thinking -->
    <g style="fill: #10b981" transform="translate(723.001584 446.577306) scale(0.12 -0.12)">
     <defs>
      <path id="DejaVuSans-Bold-68" d="M 4056 2131 
L 4056 0 
L 2931 0 
L 2931 347 
L 2931 1625 
Q 2931 2084 2911 2256 
Q 2891 2428 2841 2509 
Q 2775 2619 2662 2680 
Q 2550 2741 2406 2741 
Q 2056 2741 1856 2470 
Q 1656 2200 1656 1722 
L 1656 0 
L 538 0 
L 538 4863 
L 1656 4863 
L 1656 2988 
Q 1909 3294 2193 3439 
Q 2478 3584 2822 3584 
Q 3428 3584 3742 3212 
Q 4056 2841 4056 2131 
z
" transform="scale(0.015625)"/>
      <path id="DejaVuSans-Bold-6b" d="M 538 4863 
L 1656 4863 
L 1656 2216 
L 2944 3500 
L 4244 3500 
L 2534 1894 
L 4378 0 
L 3022 0 
L 1656 1459 
L 1656 0 
L 538 0 
L 538 4863 
z
" transform="scale(0.015625)"/>
     </defs>
     <use xlink:href="#DejaVuSans-Bold-54"/>
     <use xlink:href="#DejaVuSans-Bold-68" transform="translate(68.212891 0)"/>
     <use xlink:href="#DejaVuSans-Bold-69" transform="translate(139.404297 0)"/>
     <use xlink:href="#DejaVuSans-Bold-6e" transform="translate(173.681641 0)"/>
     <use xlink:href="#DejaVuSans-Bold-6b" transform="translate(244.873047 0)"/>
     <use xlink:href="#DejaVuSans-Bold-69" transform="translate(311.376953 0)"/>
     <use xlink:href="#DejaVuSans-Bold-6e" transform="translate(345.654297 0)"/>
     <use xlink:href="#DejaVuSans-Bold-67" transform="translate(416.845703 0)"/>
    </g>
   </g>
   <g id="text_8">
    <!-- Multiple -->
    <g style="fill: #10b981" transform="translate(724.661897 542.560984) scale(0.12 -0.12)">
     <defs>
      <path id="DejaVuSans-Bold-75" d="M 500 1363 
L 500 3500 
L 1625 3500 
L 1625 3150 
Q 1625 2866 1622 2436 
Q 1619 2006 1619 1863 
Q 1619 1441 1641 1255 
Q 1663 1069 1716 984 
Q 1784 875 1895 815 
Q 2006 756 2150 756 
Q 2500 756 2700 1025 
Q 2900 1294 2900 1772 
L 2900 3500 
L 4019 3500 
L 4019 0 
L 2900 0 
L 2900 506 
Q 2647 200 2364 54 
Q 2081 -91 1741 -91 
Q 1134 -91 817 281 
Q 500 653 500 1363 
z
" transform="scale(0.015625)"/>
     </defs>
     <use xlink:href="#DejaVuSans-Bold-4d"/>
     <use xlink:href="#DejaVuSans-Bold-75" transform="translate(99.511719 0)"/>
     <use xlink:href="#DejaVuSans-Bold-6c" transform="translate(170.703125 0)"/>
     <use xlink:href="#DejaVuSans-Bold-74" transform="translate(204.980469 0)"/>
     <use xlink:href="#DejaVuSans-Bold-69" transform="translate(252.783203 0)"/>
     <use xlink:href="#DejaVuSans-Bold-70" transform="translate(287.060547 0)"/>
     <use xlink:href="#DejaVuSans-Bold-6c" transform="translate(358.642578 0)"/>
     <use xlink:href="#DejaVuSans-Bold-65" transform="translate(392.919922 0)"/>
    </g>
    <!-- Sources -->
    <g style="fill: #10b981" transform="translate(725.436272 555.998359) scale(0.12 -0.12)">
     <use xlink:href="#DejaVuSans-Bold-53"/>
     <use xlink:href="#DejaVuSans-Bold-6f" transform="translate(72.021484 0)"/>
     <use xlink:href="#DejaVuSans-Bold-75" transform="translate(140.722656 0)"/>
     <use xlink:href="#DejaVuSans-Bold-72" transform="translate(211.914062 0)"/>
     <use xlink:href="#DejaVuSans-Bold-63" transform="translate(261.230469 0)"/>
     <use xlink:href="#DejaVuSans-Bold-65" transform="translate(320.507812 0)"/>
     <use xlink:href="#DejaVuSans-Bold-73" transform="translate(388.330078 0)"/>
    </g>
   </g>
   <g id="text_9">
    <!-- Limitations -->
    <g style="fill: #ef4444" transform="translate(236.565603 141.846332) scale(0.14 -0.14)">
     <use xlink:href="#DejaVuSans-Bold-4c"/>
     <use xlink:href="#DejaVuSans-Bold-69" transform="translate(63.720703 0)"/>
     <use xlink:href="#DejaVuSans-Bold-6d" transform="translate(97.998047 0)"/>
     <use xlink:href="#DejaVuSans-Bold-69" transform="translate(202.197266 0)"/>
     <use xlink:href="#DejaVuSans-Bold-74" transform="translate(236.474609 0)"/>
     <use xlink:href="#DejaVuSans-Bold-61" transform="translate(284.277344 0)"/>
     <use xlink:href="#DejaVuSans-Bold-74" transform="translate(351.757812 0)"/>
     <use xlink:href="#DejaVuSans-Bold-69" transform="translate(399.560547 0)"/>
     <use xlink:href="#DejaVuSans-Bold-6f" transform="translate(433.837891 0)"/>
     <use xlink:href="#DejaVuSans-Bold-6e" transform="translate(502.539062 0)"/>
     <use xlink:href="#DejaVuSans-Bold-73" transform="translate(573.730469 0)"/>
    </g>
   </g>
   <g id="text_10">
    <!-- Workarounds -->
    <g style="fill: #10b981" transform="translate(699.795959 141.846332) scale(0.14 -0.14)">
     <defs>
      <path id="DejaVuSans-Bold-57" d="M 191 4666 
L 1344 4666 
L 2150 1275 
L 2950 4666 
L 4109 4666 
L 4909 1275 
L 5716 4666 
L 6859 4666 
L 5759 0 
L 4372 0 
L 3525 3547 
L 2688 0 
L 1300 0 
L 191 4666 
z
" transform="scale(0.015625)"/>
     </defs>
     <use xlink:href="#DejaVuSans-Bold-57"/>
     <use xlink:href="#DejaVuSans-Bold-6f" transform="translate(106.677734 0)"/>
     <use xlink:href="#DejaVuSans-Bold-72" transform="translate(175.378906 0)"/>
     <use xlink:href="#DejaVuSans-Bold-6b" transform="translate(224.695312 0)"/>
     <use xlink:href="#DejaVuSans-Bold-61" transform="translate(291.199219 0)"/>
     <use xlink:href="#DejaVuSans-Bold-72" transform="translate(358.679688 0)"/>
     <use xlink:href="#DejaVuSans-Bold-6f" transform="translate(407.996094 0)"/>
     <use xlink:href="#DejaVuSans-Bold-75" transform="translate(476.697266 0)"/>
     <use xlink:href="#DejaVuSans-Bold-6e" transform="translate(547.888672 0)"/>
     <use xlink:href="#DejaVuSans-Bold-64" transform="translate(619.080078 0)"/>
     <use xlink:href="#DejaVuSans-Bold-73" transform="translate(690.662109 0)"/>
    </g>
   </g>
  </g>
 </g>
 <defs>
  <clipPath id="p3cff895b89">
   <rect x="126" y="86.4" width="781.2" height="554.4"/>
  </clipPath>
 </defs>
</svg>
