<?xml version="1.0" encoding="utf-8" standalone="no"?>
<!DOCTYPE svg PUBLIC "-//W3C//DTD SVG 1.1//EN"
  "http://www.w3.org/Graphics/SVG/1.1/DTD/svg11.dtd">
<svg xmlns:xlink="http://www.w3.org/1999/xlink" width="684pt" height="568.8pt" viewBox="0 0 684 568.8" xmlns="http://www.w3.org/2000/svg" version="1.1">
 <metadata>
  <rdf:RDF xmlns:dc="http://purl.org/dc/elements/1.1/" xmlns:cc="http://creativecommons.org/ns#" xmlns:rdf="http://www.w3.org/1999/02/22-rdf-syntax-ns#">
   <cc:Work>
    <dc:type rdf:resource="http://purl.org/dc/dcmitype/StillImage"/>
    <dc:date>2025-12-27T10:17:16.190200</dc:date>
    <dc:format>image/svg+xml</dc:format>
    <dc:creator>
     <cc:Agent>
      <dc:title>Matplotlib v3.10.8, https://matplotlib.org/</dc:title>
     </cc:Agent>
    </dc:creator>
   </cc:Work>
  </rdf:RDF>
 </metadata>
 <defs>
  <style type="text/css">*{stroke-linejoin: round; stroke-linecap: butt}</style>
 </defs>
 <g id="figure_1">
  <g id="patch_1">
   <path d="M 0 568.8 
L 684 568.8 
L 684 0 
L 0 0 
z
" style="fill: #f8f9fa"/>
  </g>
  <g id="axes_1">
   <g id="patch_2">
    <path d="M 51.471074 203.922581 
L 300.495868 203.922581 
Q 306.029752 203.922581 306.029752 194.980645 
L 306.029752 123.445161 
Q 306.029752 114.503226 300.495868 114.503226 
L 51.471074 114.503226 
Q 45.93719 114.503226 45.93719 123.445161 
L 45.93719 194.980645 
Q 45.93719 203.922581 51.471074 203.922581 
z
" clip-path="url(#p7f3412c2d3)" style="fill: #2563eb; opacity: 0.15; stroke: #2563eb; stroke-width: 1.5; stroke-linejoin: miter"/>
   </g>
   <g id="patch_3">
    <path d="M 383.504132 203.922581 
L 632.528926 203.922581 
Q 638.06281 203.922581 638.06281 194.980645 
L 638.06281 123.445161 
Q 638.06281 114.503226 632.528926 114.503226 
L 383.504132 114.503226 
Q 377.970248 114.503226 377.970248 123.445161 
L 377.970248 194.980645 
Q 377.970248 203.922581 383.504132 203.922581 
z
" clip-path="url(#p7f3412c2d3)" style="fill: #10b981; opacity: 0.15; stroke: #10b981; stroke-width: 1.5; stroke-linejoin: miter"/>
   </g>
   <g id="patch_4">
    <path d="M 51.471074 302.283871 
L 300.495868 302.283871 
Q 306.029752 302.283871 306.029752 293.341935 
L 306.029752 221.806452 
Q 306.029752 212.864516 300.495868 212.864516 
L 51.471074 212.864516 
Q 45.93719 212.864516 45.93719 221.806452 
L 45.93719 293.341935 
Q 45.93719 302.283871 51.471074 302.283871 
z
" clip-path="url(#p7f3412c2d3)" style="fill: #2563eb; opacity: 0.15; stroke: #2563eb; stroke-width: 1.5; stroke-linejoin: miter"/>
   </g>
   <g id="patch_5">
    <path d="M 383.504132 302.283871 
L 632.528926 302.283871 
Q 638.06281 302.283871 638.06281 293.341935 
L 638.06281 221.806452 
Q 638.06281 212.864516 632.528926 212.864516 
L 383.504132 212.864516 
Q 377.970248 212.864516 377.970248 221.806452 
L 377.970248 293.341935 
Q 377.970248 302.283871 383.504132 302.283871 
z
" clip-path="url(#p7f3412c2d3)" style="fill: #10b981; opacity: 0.15; stroke: #10b981; stroke-width: 1.5; stroke-linejoin: miter"/>
   </g>
   <g id="patch_6">
    <path d="M 51.471074 400.645161 
L 300.495868 400.645161 
Q 306.029752 400.645161 306.029752 391.703226 
L 306.029752 320.167742 
Q 306.029752 311.225806 300.495868 311.225806 
L 51.471074 311.225806 
Q 45.93719 311.225806 45.93719 320.167742 
L 45.93719 391.703226 
Q 45.93719 400.645161 51.471074 400.645161 
z
" clip-path="url(#p7f3412c2d3)" style="fill: #2563eb; opacity: 0.15; stroke: #2563eb; stroke-width: 1.5; stroke-linejoin: miter"/>
   </g>
   <g id="patch_7">
    <path d="M 383.504132 400.645161 
L 632.528926 400.645161 
Q 638.06281 400.645161 638.06281 391.703226 
L 638.06281 320.167742 
Q 638.06281 311.225806 632.528926 311.225806 
L 383.504132 311.225806 
Q 377.970248 311.225806 377.970248 320.167742 
L 377.970248 391.703226 
Q 377.970248 400.645161 383.504132 400.645161 
z
" clip-path="url(#p7f3412c2d3)" style="fill: #10b981; opacity: 0.15; stroke: #10b981; stroke-width: 1.5; stroke-linejoin: miter"/>
   </g>
   <g id="patch_8">
    <path d="M 51.471074 499.006452 
L 300.495868 499.006452 
Q 306.029752 499.006452 306.029752 490.064516 
L 306.029752 418.529032 
Q 306.029752 409.587097 300.495868 409.587097 
L 51.471074 409.587097 
Q 45.93719 409.587097 45.93719 418.529032 
L 45.93719 490.064516 
Q 45.93719 499.006452 51.471074 499.006452 
z
" clip-path="url(#p7f3412c2d3)" style="fill: #2563eb; opacity: 0.15; stroke: #2563eb; stroke-width: 1.5; stroke-linejoin: miter"/>
   </g>
   <g id="patch_9">
    <path d="M 383.504132 499.006452 
L 632.528926 499.006452 
Q 638.06281 499.006452 638.06281 490.064516 
L 638.06281 418.529032 
Q 638.06281 409.587097 632.528926 409.587097 
L 383.504132 409.587097 
Q 377.970248 409.587097 377.970248 418.529032 
L 377.970248 490.064516 
Q 377.970248 499.006452 383.504132 499.006452 
z
" clip-path="url(#p7f3412c2d3)" style="fill: #10b981; opacity: 0.15; stroke: #10b981; stroke-width: 1.5; stroke-linejoin: miter"/>
   </g>
   <g id="text_1">
    <!-- Brand-focused -->
    <g style="fill: #2563eb" transform="translate(126.850971 162.524153) scale(0.12 -0.12)">
     <defs>
      <path id="DejaVuSans-Bold-42" d="M 2456 2859 
Q 2741 2859 2887 2984 
Q 3034 3109 3034 3353 
Q 3034 3594 2887 3720 
Q 2741 3847 2456 3847 
L 1791 3847 
L 1791 2859 
L 2456 2859 
z
M 2497 819 
Q 2859 819 3042 972 
Q 3225 1125 3225 1434 
Q 3225 1738 3044 1889 
Q 2863 2041 2497 2041 
L 1791 2041 
L 1791 819 
L 2497 819 
z
M 3616 2497 
Q 4003 2384 4215 2081 
Q 4428 1778 4428 1338 
Q 4428 663 3972 331 
Q 3516 0 2584 0 
L 588 0 
L 588 4666 
L 2394 4666 
Q 3366 4666 3802 4372 
Q 4238 4078 4238 3431 
Q 4238 3091 4078 2852 
Q 3919 2613 3616 2497 
z
" transform="scale(0.015625)"/>
      <path id="DejaVuSans-Bold-72" d="M 3138 2547 
Q 2991 2616 2845 2648 
Q 2700 2681 2553 2681 
Q 2122 2681 1889 2404 
Q 1656 2128 1656 1613 
L 1656 0 
L 538 0 
L 538 3500 
L 1656 3500 
L 1656 2925 
Q 1872 3269 2151 3426 
Q 2431 3584 2822 3584 
Q 2878 3584 2943 3579 
Q 3009 3575 3134 3559 
L 3138 2547 
z
" transform="scale(0.015625)"/>
      <path id="DejaVuSans-Bold-61" d="M 2106 1575 
Q 1756 1575 1579 1456 
Q 1403 1338 1403 1106 
Q 1403 894 1545 773 
Q 1688 653 1941 653 
Q 2256 653 2472 879 
Q 2688 1106 2688 1447 
L 2688 1575 
L 2106 1575 
z
M 3816 1997 
L 3816 0 
L 2688 0 
L 2688 519 
Q 2463 200 2181 54 
Q 1900 -91 1497 -91 
Q 953 -91 614 226 
Q 275 544 275 1050 
Q 275 1666 698 1953 
Q 1122 2241 2028 2241 
L 2688 2241 
L 2688 2328 
Q 2688 2594 2478 2717 
Q 2269 2841 1825 2841 
Q 1466 2841 1156 2769 
Q 847 2697 581 2553 
L 581 3406 
Q 941 3494 1303 3539 
Q 1666 3584 2028 3584 
Q 2975 3584 3395 3211 
Q 3816 2838 3816 1997 
z
" transform="scale(0.015625)"/>
      <path id="DejaVuSans-Bold-6e" d="M 4056 2131 
L 4056 0 
L 2931 0 
L 2931 347 
L 2931 1631 
Q 2931 2084 2911 2256 
Q 2891 2428 2841 2509 
Q 2775 2619 2662 2680 
Q 2550 2741 2406 2741 
Q 2056 2741 1856 2470 
Q 1656 2200 1656 1722 
L 1656 0 
L 538 0 
L 538 3500 
L 1656 3500 
L 1656 2988 
Q 1909 3294 2193 3439 
Q 2478 3584 2822 3584 
Q 3428 3584 3742 3212 
Q 4056 2841 4056 2131 
z
" transform="scale(0.015625)"/>
      <path id="DejaVuSans-Bold-64" d="M 2919 2988 
L 2919 4863 
L 4044 4863 
L 4044 0 
L 2919 0 
L 2919 506 
Q 2688 197 2409 53 
Q 2131 -91 1766 -91 
Q 1119 -91 703 423 
Q 288 938 288 1747 
Q 288 2556 703 3070 
Q 1119 3584 1766 3584 
Q 2128 3584 2408 3439 
Q 2688 3294 2919 2988 
z
M 2181 722 
Q 2541 722 2730 984 
Q 2919 1247 2919 1747 
Q 2919 2247 2730 2509 
Q 2541 2772 2181 2772 
Q 1825 2772 1636 2509 
Q 1447 2247 1447 1747 
Q 1447 1247 1636 984 
Q 1825 722 2181 722 
z
" transform="scale(0.015625)"/>
      <path id="DejaVuSans-Bold-2d" d="M 347 2297 
L 2309 2297 
L 2309 1388 
L 347 1388 
L 347 2297 
z
" transform="scale(0.015625)"/>
      <path id="DejaVuSans-Bold-66" d="M 2841 4863 
L 2841 4128 
L 2222 4128 
Q 1984 4128 1890 4042 
Q 1797 3956 1797 3744 
L 1797 3500 
L 2753 3500 
L 2753 2700 
L 1797 2700 
L 1797 0 
L 678 0 
L 678 2700 
L 122 2700 
L 122 3500 
L 678 3500 
L 678 3744 
Q 678 4316 997 4589 
Q 1316 4863 1984 4863 
L 2841 4863 
z
" transform="scale(0.015625)"/>
      <path id="DejaVuSans-Bold-6f" d="M 2203 2784 
Q 1831 2784 1636 2517 
Q 1441 2250 1441 1747 
Q 1441 1244 1636 976 
Q 1831 709 2203 709 
Q 2569 709 2762 976 
Q 2956 1244 2956 1747 
Q 2956 2250 2762 2517 
Q 2569 2784 2203 2784 
z
M 2203 3584 
Q 3106 3584 3614 3096 
Q 4122 2609 4122 1747 
Q 4122 884 3614 396 
Q 3106 -91 2203 -91 
Q 1297 -91 786 396 
Q 275 884 275 1747 
Q 275 2609 786 3096 
Q 1297 3584 2203 3584 
z
" transform="scale(0.015625)"/>
      <path id="DejaVuSans-Bold-63" d="M 3366 3391 
L 3366 2478 
Q 3138 2634 2908 2709 
Q 2678 2784 2431 2784 
Q 1963 2784 1702 2511 
Q 1441 2238 1441 1747 
Q 1441 1256 1702 982 
Q 1963 709 2431 709 
Q 2694 709 2930 787 
Q 3166 866 3366 1019 
L 3366 103 
Q 3103 6 2833 -42 
Q 2563 -91 2291 -91 
Q 1344 -91 809 395 
Q 275 881 275 1747 
Q 275 2613 809 3098 
Q 1344 3584 2291 3584 
Q 2566 3584 2833 3536 
Q 3100 3488 3366 3391 
z
" transform="scale(0.015625)"/>
      <path id="DejaVuSans-Bold-75" d="M 500 1363 
L 500 3500 
L 1625 3500 
L 1625 3150 
Q 1625 2866 1622 2436 
Q 1619 2006 1619 1863 
Q 1619 1441 1641 1255 
Q 1663 1069 1716 984 
Q 1784 875 1895 815 
Q 2006 756 2150 756 
Q 2500 756 2700 1025 
Q 2900 1294 2900 1772 
L 2900 3500 
L 4019 3500 
L 4019 0 
L 2900 0 
L 2900 506 
Q 2647 200 2364 54 
Q 2081 -91 1741 -91 
Q 1134 -91 817 281 
Q 500 653 500 1363 
z
" transform="scale(0.015625)"/>
      <path id="DejaVuSans-Bold-73" d="M 3272 3391 
L 3272 2541 
Q 2913 2691 2578 2766 
Q 2244 2841 1947 2841 
Q 1628 2841 1473 2761 
Q 1319 2681 1319 2516 
Q 1319 2381 1436 2309 
Q 1553 2238 1856 2203 
L 2053 2175 
Q 2913 2066 3209 1816 
Q 3506 1566 3506 1031 
Q 3506 472 3093 190 
Q 2681 -91 1863 -91 
Q 1516 -91 1145 -36 
Q 775 19 384 128 
L 384 978 
Q 719 816 1070 734 
Q 1422 653 1784 653 
Q 2113 653 2278 743 
Q 2444 834 2444 1013 
Q 2444 1163 2330 1236 
Q 2216 1309 1875 1350 
L 1678 1375 
Q 931 1469 631 1722 
Q 331 1975 331 2491 
Q 331 3047 712 3315 
Q 1094 3584 1881 3584 
Q 2191 3584 2531 3537 
Q 2872 3491 3272 3391 
z
" transform="scale(0.015625)"/>
      <path id="DejaVuSans-Bold-65" d="M 4031 1759 
L 4031 1441 
L 1416 1441 
Q 1456 1047 1700 850 
Q 1944 653 2381 653 
Q 2734 653 3104 758 
Q 3475 863 3866 1075 
L 3866 213 
Q 3469 63 3072 -14 
Q 2675 -91 2278 -91 
Q 1328 -91 801 392 
Q 275 875 275 1747 
Q 275 2603 792 3093 
Q 1309 3584 2216 3584 
Q 3041 3584 3536 3087 
Q 4031 2591 4031 1759 
z
M 2881 2131 
Q 2881 2450 2695 2645 
Q 2509 2841 2209 2841 
Q 1884 2841 1681 2658 
Q 1478 2475 1428 2131 
L 2881 2131 
z
" transform="scale(0.015625)"/>
     </defs>
     <use xlink:href="#DejaVuSans-Bold-42"/>
     <use xlink:href="#DejaVuSans-Bold-72" transform="translate(76.220703 0)"/>
     <use xlink:href="#DejaVuSans-Bold-61" transform="translate(125.537109 0)"/>
     <use xlink:href="#DejaVuSans-Bold-6e" transform="translate(193.017578 0)"/>
     <use xlink:href="#DejaVuSans-Bold-64" transform="translate(264.208984 0)"/>
     <use xlink:href="#DejaVuSans-Bold-2d" transform="translate(335.791016 0)"/>
     <use xlink:href="#DejaVuSans-Bold-66" transform="translate(377.294922 0)"/>
     <use xlink:href="#DejaVuSans-Bold-6f" transform="translate(420.800781 0)"/>
     <use xlink:href="#DejaVuSans-Bold-63" transform="translate(489.501953 0)"/>
     <use xlink:href="#DejaVuSans-Bold-75" transform="translate(548.779297 0)"/>
     <use xlink:href="#DejaVuSans-Bold-73" transform="translate(619.970703 0)"/>
     <use xlink:href="#DejaVuSans-Bold-65" transform="translate(679.492188 0)"/>
     <use xlink:href="#DejaVuSans-Bold-64" transform="translate(747.314453 0)"/>
    </g>
   </g>
   <g id="text_2">
    <!-- Topic-focused -->
    <g style="fill: #10b981" transform="translate(461.702154 162.524153) scale(0.12 -0.12)">
     <defs>
      <path id="DejaVuSans-Bold-54" d="M 31 4666 
L 4331 4666 
L 4331 3756 
L 2784 3756 
L 2784 0 
L 1581 0 
L 1581 3756 
L 31 3756 
L 31 4666 
z
" transform="scale(0.015625)"/>
      <path id="DejaVuSans-Bold-70" d="M 1656 506 
L 1656 -1331 
L 538 -1331 
L 538 3500 
L 1656 3500 
L 1656 2988 
Q 1888 3294 2169 3439 
Q 2450 3584 2816 3584 
Q 3463 3584 3878 3070 
Q 4294 2556 4294 1747 
Q 4294 938 3878 423 
Q 3463 -91 2816 -91 
Q 2450 -91 2169 54 
Q 1888 200 1656 506 
z
M 2400 2772 
Q 2041 2772 1848 2508 
Q 1656 2244 1656 1747 
Q 1656 1250 1848 986 
Q 2041 722 2400 722 
Q 2759 722 2948 984 
Q 3138 1247 3138 1747 
Q 3138 2247 2948 2509 
Q 2759 2772 2400 2772 
z
" transform="scale(0.015625)"/>
      <path id="DejaVuSans-Bold-69" d="M 538 3500 
L 1656 3500 
L 1656 0 
L 538 0 
L 538 3500 
z
M 538 4863 
L 1656 4863 
L 1656 3950 
L 538 3950 
L 538 4863 
z
" transform="scale(0.015625)"/>
     </defs>
     <use xlink:href="#DejaVuSans-Bold-54"/>
     <use xlink:href="#DejaVuSans-Bold-6f" transform="translate(54.962891 0)"/>
     <use xlink:href="#DejaVuSans-Bold-70" transform="translate(123.664062 0)"/>
     <use xlink:href="#DejaVuSans-Bold-69" transform="translate(195.246094 0)"/>
     <use xlink:href="#DejaVuSans-Bold-63" transform="translate(229.523438 0)"/>
     <use xlink:href="#DejaVuSans-Bold-2d" transform="translate(288.800781 0)"/>
     <use xlink:href="#DejaVuSans-Bold-66" transform="translate(330.304688 0)"/>
     <use xlink:href="#DejaVuSans-Bold-6f" transform="translate(373.810547 0)"/>
     <use xlink:href="#DejaVuSans-Bold-63" transform="translate(442.511719 0)"/>
     <use xlink:href="#DejaVuSans-Bold-75" transform="translate(501.789062 0)"/>
     <use xlink:href="#DejaVuSans-Bold-73" transform="translate(572.980469 0)"/>
     <use xlink:href="#DejaVuSans-Bold-65" transform="translate(632.501953 0)"/>
     <use xlink:href="#DejaVuSans-Bold-64" transform="translate(700.324219 0)"/>
    </g>
   </g>
   <g id="text_3">
    <!-- Service pages -->
    <g style="fill: #2563eb" transform="translate(128.671596 260.838569) scale(0.12 -0.12)">
     <defs>
      <path id="DejaVuSans-Bold-53" d="M 3834 4519 
L 3834 3531 
Q 3450 3703 3084 3790 
Q 2719 3878 2394 3878 
Q 1963 3878 1756 3759 
Q 1550 3641 1550 3391 
Q 1550 3203 1689 3098 
Q 1828 2994 2194 2919 
L 2706 2816 
Q 3484 2659 3812 2340 
Q 4141 2022 4141 1434 
Q 4141 663 3683 286 
Q 3225 -91 2284 -91 
Q 1841 -91 1394 -6 
Q 947 78 500 244 
L 500 1259 
Q 947 1022 1364 901 
Q 1781 781 2169 781 
Q 2563 781 2772 912 
Q 2981 1044 2981 1288 
Q 2981 1506 2839 1625 
Q 2697 1744 2272 1838 
L 1806 1941 
Q 1106 2091 782 2419 
Q 459 2747 459 3303 
Q 459 4000 909 4375 
Q 1359 4750 2203 4750 
Q 2588 4750 2994 4692 
Q 3400 4634 3834 4519 
z
" transform="scale(0.015625)"/>
      <path id="DejaVuSans-Bold-76" d="M 97 3500 
L 1216 3500 
L 2088 1081 
L 2956 3500 
L 4078 3500 
L 2700 0 
L 1472 0 
L 97 3500 
z
" transform="scale(0.015625)"/>
      <path id="DejaVuSans-Bold-20" transform="scale(0.015625)"/>
      <path id="DejaVuSans-Bold-67" d="M 2919 594 
Q 2688 288 2409 144 
Q 2131 0 1766 0 
Q 1125 0 706 504 
Q 288 1009 288 1791 
Q 288 2575 706 3076 
Q 1125 3578 1766 3578 
Q 2131 3578 2409 3434 
Q 2688 3291 2919 2981 
L 2919 3500 
L 4044 3500 
L 4044 353 
Q 4044 -491 3511 -936 
Q 2978 -1381 1966 -1381 
Q 1638 -1381 1331 -1331 
Q 1025 -1281 716 -1178 
L 716 -306 
Q 1009 -475 1290 -558 
Q 1572 -641 1856 -641 
Q 2406 -641 2662 -400 
Q 2919 -159 2919 353 
L 2919 594 
z
M 2181 2772 
Q 1834 2772 1640 2515 
Q 1447 2259 1447 1791 
Q 1447 1309 1634 1061 
Q 1822 813 2181 813 
Q 2531 813 2725 1069 
Q 2919 1325 2919 1791 
Q 2919 2259 2725 2515 
Q 2531 2772 2181 2772 
z
" transform="scale(0.015625)"/>
     </defs>
     <use xlink:href="#DejaVuSans-Bold-53"/>
     <use xlink:href="#DejaVuSans-Bold-65" transform="translate(72.021484 0)"/>
     <use xlink:href="#DejaVuSans-Bold-72" transform="translate(139.84375 0)"/>
     <use xlink:href="#DejaVuSans-Bold-76" transform="translate(189.160156 0)"/>
     <use xlink:href="#DejaVuSans-Bold-69" transform="translate(254.345703 0)"/>
     <use xlink:href="#DejaVuSans-Bold-63" transform="translate(288.623047 0)"/>
     <use xlink:href="#DejaVuSans-Bold-65" transform="translate(347.900391 0)"/>
     <use xlink:href="#DejaVuSans-Bold-20" transform="translate(415.722656 0)"/>
     <use xlink:href="#DejaVuSans-Bold-70" transform="translate(450.537109 0)"/>
     <use xlink:href="#DejaVuSans-Bold-61" transform="translate(522.119141 0)"/>
     <use xlink:href="#DejaVuSans-Bold-67" transform="translate(589.599609 0)"/>
     <use xlink:href="#DejaVuSans-Bold-65" transform="translate(661.181641 0)"/>
     <use xlink:href="#DejaVuSans-Bold-73" transform="translate(729.003906 0)"/>
    </g>
   </g>
   <g id="text_4">
    <!-- Blog articles -->
    <g style="fill: #10b981" transform="translate(465.694029 260.838569) scale(0.12 -0.12)">
     <defs>
      <path id="DejaVuSans-Bold-6c" d="M 538 4863 
L 1656 4863 
L 1656 0 
L 538 0 
L 538 4863 
z
" transform="scale(0.015625)"/>
      <path id="DejaVuSans-Bold-74" d="M 1759 4494 
L 1759 3500 
L 2913 3500 
L 2913 2700 
L 1759 2700 
L 1759 1216 
Q 1759 972 1856 886 
Q 1953 800 2241 800 
L 2816 800 
L 2816 0 
L 1856 0 
Q 1194 0 917 276 
Q 641 553 641 1216 
L 641 2700 
L 84 2700 
L 84 3500 
L 641 3500 
L 641 4494 
L 1759 4494 
z
" transform="scale(0.015625)"/>
     </defs>
     <use xlink:href="#DejaVuSans-Bold-42"/>
     <use xlink:href="#DejaVuSans-Bold-6c" transform="translate(76.220703 0)"/>
     <use xlink:href="#DejaVuSans-Bold-6f" transform="translate(110.498047 0)"/>
     <use xlink:href="#DejaVuSans-Bold-67" transform="translate(179.199219 0)"/>
     <use xlink:href="#DejaVuSans-Bold-20" transform="translate(250.78125 0)"/>
     <use xlink:href="#DejaVuSans-Bold-61" transform="translate(285.595703 0)"/>
     <use xlink:href="#DejaVuSans-Bold-72" transform="translate(353.076172 0)"/>
     <use xlink:href="#DejaVuSans-Bold-74" transform="translate(402.392578 0)"/>
     <use xlink:href="#DejaVuSans-Bold-69" transform="translate(450.195312 0)"/>
     <use xlink:href="#DejaVuSans-Bold-63" transform="translate(484.472656 0)"/>
     <use xlink:href="#DejaVuSans-Bold-6c" transform="translate(543.75 0)"/>
     <use xlink:href="#DejaVuSans-Bold-65" transform="translate(578.027344 0)"/>
     <use xlink:href="#DejaVuSans-Bold-73" transform="translate(645.849609 0)"/>
    </g>
   </g>
   <g id="text_5">
    <!-- Authority building -->
    <g style="fill: #2563eb" transform="translate(114.326909 359.199859) scale(0.12 -0.12)">
     <defs>
      <path id="DejaVuSans-Bold-41" d="M 3419 850 
L 1538 850 
L 1241 0 
L 31 0 
L 1759 4666 
L 3194 4666 
L 4922 0 
L 3713 0 
L 3419 850 
z
M 1838 1716 
L 3116 1716 
L 2478 3572 
L 1838 1716 
z
" transform="scale(0.015625)"/>
      <path id="DejaVuSans-Bold-68" d="M 4056 2131 
L 4056 0 
L 2931 0 
L 2931 347 
L 2931 1625 
Q 2931 2084 2911 2256 
Q 2891 2428 2841 2509 
Q 2775 2619 2662 2680 
Q 2550 2741 2406 2741 
Q 2056 2741 1856 2470 
Q 1656 2200 1656 1722 
L 1656 0 
L 538 0 
L 538 4863 
L 1656 4863 
L 1656 2988 
Q 1909 3294 2193 3439 
Q 2478 3584 2822 3584 
Q 3428 3584 3742 3212 
Q 4056 2841 4056 2131 
z
" transform="scale(0.015625)"/>
      <path id="DejaVuSans-Bold-79" d="M 78 3500 
L 1197 3500 
L 2138 1125 
L 2938 3500 
L 4056 3500 
L 2584 -331 
Q 2363 -916 2067 -1148 
Q 1772 -1381 1288 -1381 
L 641 -1381 
L 641 -647 
L 991 -647 
Q 1275 -647 1404 -556 
Q 1534 -466 1606 -231 
L 1638 -134 
L 78 3500 
z
" transform="scale(0.015625)"/>
      <path id="DejaVuSans-Bold-62" d="M 2400 722 
Q 2759 722 2948 984 
Q 3138 1247 3138 1747 
Q 3138 2247 2948 2509 
Q 2759 2772 2400 2772 
Q 2041 2772 1848 2508 
Q 1656 2244 1656 1747 
Q 1656 1250 1848 986 
Q 2041 722 2400 722 
z
M 1656 2988 
Q 1888 3294 2169 3439 
Q 2450 3584 2816 3584 
Q 3463 3584 3878 3070 
Q 4294 2556 4294 1747 
Q 4294 938 3878 423 
Q 3463 -91 2816 -91 
Q 2450 -91 2169 54 
Q 1888 200 1656 506 
L 1656 0 
L 538 0 
L 538 4863 
L 1656 4863 
L 1656 2988 
z
" transform="scale(0.015625)"/>
     </defs>
     <use xlink:href="#DejaVuSans-Bold-41"/>
     <use xlink:href="#DejaVuSans-Bold-75" transform="translate(77.392578 0)"/>
     <use xlink:href="#DejaVuSans-Bold-74" transform="translate(148.583984 0)"/>
     <use xlink:href="#DejaVuSans-Bold-68" transform="translate(196.386719 0)"/>
     <use xlink:href="#DejaVuSans-Bold-6f" transform="translate(267.578125 0)"/>
     <use xlink:href="#DejaVuSans-Bold-72" transform="translate(336.279297 0)"/>
     <use xlink:href="#DejaVuSans-Bold-69" transform="translate(385.595703 0)"/>
     <use xlink:href="#DejaVuSans-Bold-74" transform="translate(419.873047 0)"/>
     <use xlink:href="#DejaVuSans-Bold-79" transform="translate(467.675781 0)"/>
     <use xlink:href="#DejaVuSans-Bold-20" transform="translate(532.861328 0)"/>
     <use xlink:href="#DejaVuSans-Bold-62" transform="translate(567.675781 0)"/>
     <use xlink:href="#DejaVuSans-Bold-75" transform="translate(639.257812 0)"/>
     <use xlink:href="#DejaVuSans-Bold-69" transform="translate(710.449219 0)"/>
     <use xlink:href="#DejaVuSans-Bold-6c" transform="translate(744.726562 0)"/>
     <use xlink:href="#DejaVuSans-Bold-64" transform="translate(779.003906 0)"/>
     <use xlink:href="#DejaVuSans-Bold-69" transform="translate(850.585938 0)"/>
     <use xlink:href="#DejaVuSans-Bold-6e" transform="translate(884.863281 0)"/>
     <use xlink:href="#DejaVuSans-Bold-67" transform="translate(956.054688 0)"/>
    </g>
   </g>
   <g id="text_6">
    <!-- Volume publishing -->
    <g style="fill: #10b981" transform="translate(445.402779 359.199859) scale(0.12 -0.12)">
     <defs>
      <path id="DejaVuSans-Bold-56" d="M 31 4666 
L 1241 4666 
L 2478 1222 
L 3713 4666 
L 4922 4666 
L 3194 0 
L 1759 0 
L 31 4666 
z
" transform="scale(0.015625)"/>
      <path id="DejaVuSans-Bold-6d" d="M 3781 2919 
Q 3994 3244 4286 3414 
Q 4578 3584 4928 3584 
Q 5531 3584 5847 3212 
Q 6163 2841 6163 2131 
L 6163 0 
L 5038 0 
L 5038 1825 
Q 5041 1866 5042 1909 
Q 5044 1953 5044 2034 
Q 5044 2406 4934 2573 
Q 4825 2741 4581 2741 
Q 4263 2741 4089 2478 
Q 3916 2216 3909 1719 
L 3909 0 
L 2784 0 
L 2784 1825 
Q 2784 2406 2684 2573 
Q 2584 2741 2328 2741 
Q 2006 2741 1831 2477 
Q 1656 2213 1656 1722 
L 1656 0 
L 531 0 
L 531 3500 
L 1656 3500 
L 1656 2988 
Q 1863 3284 2130 3434 
Q 2397 3584 2719 3584 
Q 3081 3584 3359 3409 
Q 3638 3234 3781 2919 
z
" transform="scale(0.015625)"/>
     </defs>
     <use xlink:href="#DejaVuSans-Bold-56"/>
     <use xlink:href="#DejaVuSans-Bold-6f" transform="translate(71.892578 0)"/>
     <use xlink:href="#DejaVuSans-Bold-6c" transform="translate(140.59375 0)"/>
     <use xlink:href="#DejaVuSans-Bold-75" transform="translate(174.871094 0)"/>
     <use xlink:href="#DejaVuSans-Bold-6d" transform="translate(246.0625 0)"/>
     <use xlink:href="#DejaVuSans-Bold-65" transform="translate(350.261719 0)"/>
     <use xlink:href="#DejaVuSans-Bold-20" transform="translate(418.083984 0)"/>
     <use xlink:href="#DejaVuSans-Bold-70" transform="translate(452.898438 0)"/>
     <use xlink:href="#DejaVuSans-Bold-75" transform="translate(524.480469 0)"/>
     <use xlink:href="#DejaVuSans-Bold-62" transform="translate(595.671875 0)"/>
     <use xlink:href="#DejaVuSans-Bold-6c" transform="translate(667.253906 0)"/>
     <use xlink:href="#DejaVuSans-Bold-69" transform="translate(701.53125 0)"/>
     <use xlink:href="#DejaVuSans-Bold-73" transform="translate(735.808594 0)"/>
     <use xlink:href="#DejaVuSans-Bold-68" transform="translate(795.330078 0)"/>
     <use xlink:href="#DejaVuSans-Bold-69" transform="translate(866.521484 0)"/>
     <use xlink:href="#DejaVuSans-Bold-6e" transform="translate(900.798828 0)"/>
     <use xlink:href="#DejaVuSans-Bold-67" transform="translate(971.990234 0)"/>
    </g>
   </g>
   <g id="text_7">
    <!-- Link acquisition -->
    <g style="fill: #2563eb" transform="translate(122.578784 457.608024) scale(0.12 -0.12)">
     <defs>
      <path id="DejaVuSans-Bold-4c" d="M 588 4666 
L 1791 4666 
L 1791 909 
L 3903 909 
L 3903 0 
L 588 0 
L 588 4666 
z
" transform="scale(0.015625)"/>
      <path id="DejaVuSans-Bold-6b" d="M 538 4863 
L 1656 4863 
L 1656 2216 
L 2944 3500 
L 4244 3500 
L 2534 1894 
L 4378 0 
L 3022 0 
L 1656 1459 
L 1656 0 
L 538 0 
L 538 4863 
z
" transform="scale(0.015625)"/>
      <path id="DejaVuSans-Bold-71" d="M 2181 2772 
Q 1825 2772 1636 2509 
Q 1447 2247 1447 1747 
Q 1447 1247 1636 984 
Q 1825 722 2181 722 
Q 2541 722 2730 984 
Q 2919 1247 2919 1747 
Q 2919 2247 2730 2509 
Q 2541 2772 2181 2772 
z
M 2919 506 
Q 2688 197 2409 53 
Q 2131 -91 1766 -91 
Q 1119 -91 703 423 
Q 288 938 288 1747 
Q 288 2556 703 3067 
Q 1119 3578 1766 3578 
Q 2131 3578 2409 3434 
Q 2688 3291 2919 2981 
L 2919 3500 
L 4044 3500 
L 4044 -1331 
L 2919 -1331 
L 2919 506 
z
" transform="scale(0.015625)"/>
     </defs>
     <use xlink:href="#DejaVuSans-Bold-4c"/>
     <use xlink:href="#DejaVuSans-Bold-69" transform="translate(63.720703 0)"/>
     <use xlink:href="#DejaVuSans-Bold-6e" transform="translate(97.998047 0)"/>
     <use xlink:href="#DejaVuSans-Bold-6b" transform="translate(169.189453 0)"/>
     <use xlink:href="#DejaVuSans-Bold-20" transform="translate(235.693359 0)"/>
     <use xlink:href="#DejaVuSans-Bold-61" transform="translate(270.507812 0)"/>
     <use xlink:href="#DejaVuSans-Bold-63" transform="translate(337.988281 0)"/>
     <use xlink:href="#DejaVuSans-Bold-71" transform="translate(397.265625 0)"/>
     <use xlink:href="#DejaVuSans-Bold-75" transform="translate(468.847656 0)"/>
     <use xlink:href="#DejaVuSans-Bold-69" transform="translate(540.039062 0)"/>
     <use xlink:href="#DejaVuSans-Bold-73" transform="translate(574.316406 0)"/>
     <use xlink:href="#DejaVuSans-Bold-69" transform="translate(633.837891 0)"/>
     <use xlink:href="#DejaVuSans-Bold-74" transform="translate(668.115234 0)"/>
     <use xlink:href="#DejaVuSans-Bold-69" transform="translate(715.917969 0)"/>
     <use xlink:href="#DejaVuSans-Bold-6f" transform="translate(750.195312 0)"/>
     <use xlink:href="#DejaVuSans-Bold-6e" transform="translate(818.896484 0)"/>
    </g>
   </g>
   <g id="text_8">
    <!-- Content marketing -->
    <g style="fill: #10b981" transform="translate(444.401529 457.561149) scale(0.12 -0.12)">
     <defs>
      <path id="DejaVuSans-Bold-43" d="M 4288 256 
Q 3956 84 3597 -3 
Q 3238 -91 2847 -91 
Q 1681 -91 1000 561 
Q 319 1213 319 2328 
Q 319 3447 1000 4098 
Q 1681 4750 2847 4750 
Q 3238 4750 3597 4662 
Q 3956 4575 4288 4403 
L 4288 3438 
Q 3953 3666 3628 3772 
Q 3303 3878 2944 3878 
Q 2300 3878 1931 3465 
Q 1563 3053 1563 2328 
Q 1563 1606 1931 1193 
Q 2300 781 2944 781 
Q 3303 781 3628 887 
Q 3953 994 4288 1222 
L 4288 256 
z
" transform="scale(0.015625)"/>
     </defs>
     <use xlink:href="#DejaVuSans-Bold-43"/>
     <use xlink:href="#DejaVuSans-Bold-6f" transform="translate(73.388672 0)"/>
     <use xlink:href="#DejaVuSans-Bold-6e" transform="translate(142.089844 0)"/>
     <use xlink:href="#DejaVuSans-Bold-74" transform="translate(213.28125 0)"/>
     <use xlink:href="#DejaVuSans-Bold-65" transform="translate(261.083984 0)"/>
     <use xlink:href="#DejaVuSans-Bold-6e" transform="translate(328.90625 0)"/>
     <use xlink:href="#DejaVuSans-Bold-74" transform="translate(400.097656 0)"/>
     <use xlink:href="#DejaVuSans-Bold-20" transform="translate(447.900391 0)"/>
     <use xlink:href="#DejaVuSans-Bold-6d" transform="translate(482.714844 0)"/>
     <use xlink:href="#DejaVuSans-Bold-61" transform="translate(586.914062 0)"/>
     <use xlink:href="#DejaVuSans-Bold-72" transform="translate(654.394531 0)"/>
     <use xlink:href="#DejaVuSans-Bold-6b" transform="translate(703.710938 0)"/>
     <use xlink:href="#DejaVuSans-Bold-65" transform="translate(767.589844 0)"/>
     <use xlink:href="#DejaVuSans-Bold-74" transform="translate(835.412109 0)"/>
     <use xlink:href="#DejaVuSans-Bold-69" transform="translate(883.214844 0)"/>
     <use xlink:href="#DejaVuSans-Bold-6e" transform="translate(917.492188 0)"/>
     <use xlink:href="#DejaVuSans-Bold-67" transform="translate(988.683594 0)"/>
    </g>
   </g>
   <g id="text_9">
    <!-- Corporate SEO -->
    <g style="fill: #2563eb" transform="translate(118.284877 75.823921) scale(0.14 -0.14)">
     <defs>
      <path id="DejaVuSans-Bold-45" d="M 588 4666 
L 3834 4666 
L 3834 3756 
L 1791 3756 
L 1791 2888 
L 3713 2888 
L 3713 1978 
L 1791 1978 
L 1791 909 
L 3903 909 
L 3903 0 
L 588 0 
L 588 4666 
z
" transform="scale(0.015625)"/>
      <path id="DejaVuSans-Bold-4f" d="M 2719 3878 
Q 2169 3878 1866 3472 
Q 1563 3066 1563 2328 
Q 1563 1594 1866 1187 
Q 2169 781 2719 781 
Q 3272 781 3575 1187 
Q 3878 1594 3878 2328 
Q 3878 3066 3575 3472 
Q 3272 3878 2719 3878 
z
M 2719 4750 
Q 3844 4750 4481 4106 
Q 5119 3463 5119 2328 
Q 5119 1197 4481 553 
Q 3844 -91 2719 -91 
Q 1597 -91 958 553 
Q 319 1197 319 2328 
Q 319 3463 958 4106 
Q 1597 4750 2719 4750 
z
" transform="scale(0.015625)"/>
     </defs>
     <use xlink:href="#DejaVuSans-Bold-43"/>
     <use xlink:href="#DejaVuSans-Bold-6f" transform="translate(73.388672 0)"/>
     <use xlink:href="#DejaVuSans-Bold-72" transform="translate(142.089844 0)"/>
     <use xlink:href="#DejaVuSans-Bold-70" transform="translate(191.40625 0)"/>
     <use xlink:href="#DejaVuSans-Bold-6f" transform="translate(262.988281 0)"/>
     <use xlink:href="#DejaVuSans-Bold-72" transform="translate(331.689453 0)"/>
     <use xlink:href="#DejaVuSans-Bold-61" transform="translate(381.005859 0)"/>
     <use xlink:href="#DejaVuSans-Bold-74" transform="translate(448.486328 0)"/>
     <use xlink:href="#DejaVuSans-Bold-65" transform="translate(496.289062 0)"/>
     <use xlink:href="#DejaVuSans-Bold-20" transform="translate(564.111328 0)"/>
     <use xlink:href="#DejaVuSans-Bold-53" transform="translate(598.925781 0)"/>
     <use xlink:href="#DejaVuSans-Bold-45" transform="translate(670.947266 0)"/>
     <use xlink:href="#DejaVuSans-Bold-4f" transform="translate(739.257812 0)"/>
    </g>
   </g>
   <g id="text_10">
    <!-- Content SEO -->
    <g style="fill: #10b981" transform="translate(458.453248 75.823921) scale(0.14 -0.14)">
     <use xlink:href="#DejaVuSans-Bold-43"/>
     <use xlink:href="#DejaVuSans-Bold-6f" transform="translate(73.388672 0)"/>
     <use xlink:href="#DejaVuSans-Bold-6e" transform="translate(142.089844 0)"/>
     <use xlink:href="#DejaVuSans-Bold-74" transform="translate(213.28125 0)"/>
     <use xlink:href="#DejaVuSans-Bold-65" transform="translate(261.083984 0)"/>
     <use xlink:href="#DejaVuSans-Bold-6e" transform="translate(328.90625 0)"/>
     <use xlink:href="#DejaVuSans-Bold-74" transform="translate(400.097656 0)"/>
     <use xlink:href="#DejaVuSans-Bold-20" transform="translate(447.900391 0)"/>
     <use xlink:href="#DejaVuSans-Bold-53" transform="translate(482.714844 0)"/>
     <use xlink:href="#DejaVuSans-Bold-45" transform="translate(554.736328 0)"/>
     <use xlink:href="#DejaVuSans-Bold-4f" transform="translate(623.046875 0)"/>
    </g>
   </g>
  </g>
 </g>
 <defs>
  <clipPath id="p7f3412c2d3">
   <rect x="7.2" y="7.2" width="669.6" height="554.4"/>
  </clipPath>
 </defs>
</svg>
