<?xml version="1.0" encoding="utf-8" standalone="no"?>
<!DOCTYPE svg PUBLIC "-//W3C//DTD SVG 1.1//EN"
  "http://www.w3.org/Graphics/SVG/1.1/DTD/svg11.dtd">
<svg xmlns:xlink="http://www.w3.org/1999/xlink" width="572.4pt" height="679.68pt" viewBox="0 0 572.4 679.68" xmlns="http://www.w3.org/2000/svg" version="1.1">
 <metadata>
  <rdf:RDF xmlns:dc="http://purl.org/dc/elements/1.1/" xmlns:cc="http://creativecommons.org/ns#" xmlns:rdf="http://www.w3.org/1999/02/22-rdf-syntax-ns#">
   <cc:Work>
    <dc:type rdf:resource="http://purl.org/dc/dcmitype/StillImage"/>
    <dc:date>2025-12-26T21:31:31.471959</dc:date>
    <dc:format>image/svg+xml</dc:format>
    <dc:creator>
     <cc:Agent>
      <dc:title>Matplotlib v3.10.8, https://matplotlib.org/</dc:title>
     </cc:Agent>
    </dc:creator>
   </cc:Work>
  </rdf:RDF>
 </metadata>
 <defs>
  <style type="text/css">*{stroke-linejoin: round; stroke-linecap: butt}</style>
 </defs>
 <g id="figure_1">
  <g id="patch_1">
   <path d="M 0 679.68 
L 572.4 679.68 
L 572.4 0 
L 0 0 
z
" style="fill: #f8f9fa"/>
  </g>
  <g id="axes_1">
   <g id="patch_2">
    <path d="M 53.7 167.508434 
L 518.7 167.508434 
Q 524.5125 167.508434 524.5125 159.493012 
L 524.5125 111.400482 
Q 524.5125 103.38506 518.7 103.38506 
L 53.7 103.38506 
Q 47.8875 103.38506 47.8875 111.400482 
L 47.8875 159.493012 
Q 47.8875 167.508434 53.7 167.508434 
z
" clip-path="url(#p182bdfb0bc)" style="fill: #2563eb; opacity: 0.15; stroke: #2563eb; stroke-width: 1.5; stroke-linejoin: miter"/>
   </g>
   <g id="patch_3">
    <path d="M 53.7 231.631807 
L 518.7 231.631807 
Q 524.5125 231.631807 524.5125 223.616386 
L 524.5125 175.523855 
Q 524.5125 167.508434 518.7 167.508434 
L 53.7 167.508434 
Q 47.8875 167.508434 47.8875 175.523855 
L 47.8875 223.616386 
Q 47.8875 231.631807 53.7 231.631807 
z
" clip-path="url(#p182bdfb0bc)" style="fill: #10b981; opacity: 0.15; stroke: #10b981; stroke-width: 1.5; stroke-linejoin: miter"/>
   </g>
   <g id="patch_4">
    <path d="M 53.7 295.755181 
L 518.7 295.755181 
Q 524.5125 295.755181 524.5125 287.739759 
L 524.5125 239.647229 
Q 524.5125 231.631807 518.7 231.631807 
L 53.7 231.631807 
Q 47.8875 231.631807 47.8875 239.647229 
L 47.8875 287.739759 
Q 47.8875 295.755181 53.7 295.755181 
z
" clip-path="url(#p182bdfb0bc)" style="fill: #8b5cf6; opacity: 0.15; stroke: #8b5cf6; stroke-width: 1.5; stroke-linejoin: miter"/>
   </g>
   <g id="patch_5">
    <path d="M 53.7 359.878554 
L 518.7 359.878554 
Q 524.5125 359.878554 524.5125 351.863133 
L 524.5125 303.770602 
Q 524.5125 295.755181 518.7 295.755181 
L 53.7 295.755181 
Q 47.8875 295.755181 47.8875 303.770602 
L 47.8875 351.863133 
Q 47.8875 359.878554 53.7 359.878554 
z
" clip-path="url(#p182bdfb0bc)" style="fill: #f59e0b; opacity: 0.15; stroke: #f59e0b; stroke-width: 1.5; stroke-linejoin: miter"/>
   </g>
   <g id="patch_6">
    <path d="M 53.7 424.001928 
L 518.7 424.001928 
Q 524.5125 424.001928 524.5125 415.986506 
L 524.5125 367.893976 
Q 524.5125 359.878554 518.7 359.878554 
L 53.7 359.878554 
Q 47.8875 359.878554 47.8875 367.893976 
L 47.8875 415.986506 
Q 47.8875 424.001928 53.7 424.001928 
z
" clip-path="url(#p182bdfb0bc)" style="fill: #14b8a6; opacity: 0.15; stroke: #14b8a6; stroke-width: 1.5; stroke-linejoin: miter"/>
   </g>
   <g id="patch_7">
    <path d="M 53.7 488.125301 
L 518.7 488.125301 
Q 524.5125 488.125301 524.5125 480.10988 
L 524.5125 432.017349 
Q 524.5125 424.001928 518.7 424.001928 
L 53.7 424.001928 
Q 47.8875 424.001928 47.8875 432.017349 
L 47.8875 480.10988 
Q 47.8875 488.125301 53.7 488.125301 
z
" clip-path="url(#p182bdfb0bc)" style="fill: #06b6d4; opacity: 0.15; stroke: #06b6d4; stroke-width: 1.5; stroke-linejoin: miter"/>
   </g>
   <g id="patch_8">
    <path d="M 53.7 552.248675 
L 518.7 552.248675 
Q 524.5125 552.248675 524.5125 544.233253 
L 524.5125 496.140723 
Q 524.5125 488.125301 518.7 488.125301 
L 53.7 488.125301 
Q 47.8875 488.125301 47.8875 496.140723 
L 47.8875 544.233253 
Q 47.8875 552.248675 53.7 552.248675 
z
" clip-path="url(#p182bdfb0bc)" style="fill: #6b7280; opacity: 0.15; stroke: #6b7280; stroke-width: 1.5; stroke-linejoin: miter"/>
   </g>
   <g id="patch_9">
    <path d="M 53.7 616.372048 
L 518.7 616.372048 
Q 524.5125 616.372048 524.5125 608.356627 
L 524.5125 560.264096 
Q 524.5125 552.248675 518.7 552.248675 
L 53.7 552.248675 
Q 47.8875 552.248675 47.8875 560.264096 
L 47.8875 608.356627 
Q 47.8875 616.372048 53.7 616.372048 
z
" clip-path="url(#p182bdfb0bc)" style="fill: #fbbf24; opacity: 0.15; stroke: #fbbf24; stroke-width: 1.5; stroke-linejoin: miter"/>
   </g>
   <g id="text_1">
    <!-- Title Tag -->
    <g style="fill: #2563eb" transform="translate(71.1375 138.711122) scale(0.12 -0.12)">
     <defs>
      <path id="DejaVuSans-Bold-54" d="M 31 4666 
L 4331 4666 
L 4331 3756 
L 2784 3756 
L 2784 0 
L 1581 0 
L 1581 3756 
L 31 3756 
L 31 4666 
z
" transform="scale(0.015625)"/>
      <path id="DejaVuSans-Bold-69" d="M 538 3500 
L 1656 3500 
L 1656 0 
L 538 0 
L 538 3500 
z
M 538 4863 
L 1656 4863 
L 1656 3950 
L 538 3950 
L 538 4863 
z
" transform="scale(0.015625)"/>
      <path id="DejaVuSans-Bold-74" d="M 1759 4494 
L 1759 3500 
L 2913 3500 
L 2913 2700 
L 1759 2700 
L 1759 1216 
Q 1759 972 1856 886 
Q 1953 800 2241 800 
L 2816 800 
L 2816 0 
L 1856 0 
Q 1194 0 917 276 
Q 641 553 641 1216 
L 641 2700 
L 84 2700 
L 84 3500 
L 641 3500 
L 641 4494 
L 1759 4494 
z
" transform="scale(0.015625)"/>
      <path id="DejaVuSans-Bold-6c" d="M 538 4863 
L 1656 4863 
L 1656 0 
L 538 0 
L 538 4863 
z
" transform="scale(0.015625)"/>
      <path id="DejaVuSans-Bold-65" d="M 4031 1759 
L 4031 1441 
L 1416 1441 
Q 1456 1047 1700 850 
Q 1944 653 2381 653 
Q 2734 653 3104 758 
Q 3475 863 3866 1075 
L 3866 213 
Q 3469 63 3072 -14 
Q 2675 -91 2278 -91 
Q 1328 -91 801 392 
Q 275 875 275 1747 
Q 275 2603 792 3093 
Q 1309 3584 2216 3584 
Q 3041 3584 3536 3087 
Q 4031 2591 4031 1759 
z
M 2881 2131 
Q 2881 2450 2695 2645 
Q 2509 2841 2209 2841 
Q 1884 2841 1681 2658 
Q 1478 2475 1428 2131 
L 2881 2131 
z
" transform="scale(0.015625)"/>
      <path id="DejaVuSans-Bold-20" transform="scale(0.015625)"/>
      <path id="DejaVuSans-Bold-61" d="M 2106 1575 
Q 1756 1575 1579 1456 
Q 1403 1338 1403 1106 
Q 1403 894 1545 773 
Q 1688 653 1941 653 
Q 2256 653 2472 879 
Q 2688 1106 2688 1447 
L 2688 1575 
L 2106 1575 
z
M 3816 1997 
L 3816 0 
L 2688 0 
L 2688 519 
Q 2463 200 2181 54 
Q 1900 -91 1497 -91 
Q 953 -91 614 226 
Q 275 544 275 1050 
Q 275 1666 698 1953 
Q 1122 2241 2028 2241 
L 2688 2241 
L 2688 2328 
Q 2688 2594 2478 2717 
Q 2269 2841 1825 2841 
Q 1466 2841 1156 2769 
Q 847 2697 581 2553 
L 581 3406 
Q 941 3494 1303 3539 
Q 1666 3584 2028 3584 
Q 2975 3584 3395 3211 
Q 3816 2838 3816 1997 
z
" transform="scale(0.015625)"/>
      <path id="DejaVuSans-Bold-67" d="M 2919 594 
Q 2688 288 2409 144 
Q 2131 0 1766 0 
Q 1125 0 706 504 
Q 288 1009 288 1791 
Q 288 2575 706 3076 
Q 1125 3578 1766 3578 
Q 2131 3578 2409 3434 
Q 2688 3291 2919 2981 
L 2919 3500 
L 4044 3500 
L 4044 353 
Q 4044 -491 3511 -936 
Q 2978 -1381 1966 -1381 
Q 1638 -1381 1331 -1331 
Q 1025 -1281 716 -1178 
L 716 -306 
Q 1009 -475 1290 -558 
Q 1572 -641 1856 -641 
Q 2406 -641 2662 -400 
Q 2919 -159 2919 353 
L 2919 594 
z
M 2181 2772 
Q 1834 2772 1640 2515 
Q 1447 2259 1447 1791 
Q 1447 1309 1634 1061 
Q 1822 813 2181 813 
Q 2531 813 2725 1069 
Q 2919 1325 2919 1791 
Q 2919 2259 2725 2515 
Q 2531 2772 2181 2772 
z
" transform="scale(0.015625)"/>
     </defs>
     <use xlink:href="#DejaVuSans-Bold-54"/>
     <use xlink:href="#DejaVuSans-Bold-69" transform="translate(68.212891 0)"/>
     <use xlink:href="#DejaVuSans-Bold-74" transform="translate(102.490234 0)"/>
     <use xlink:href="#DejaVuSans-Bold-6c" transform="translate(150.292969 0)"/>
     <use xlink:href="#DejaVuSans-Bold-65" transform="translate(184.570312 0)"/>
     <use xlink:href="#DejaVuSans-Bold-20" transform="translate(252.392578 0)"/>
     <use xlink:href="#DejaVuSans-Bold-54" transform="translate(287.207031 0)"/>
     <use xlink:href="#DejaVuSans-Bold-61" transform="translate(342.544922 0)"/>
     <use xlink:href="#DejaVuSans-Bold-67" transform="translate(410.025391 0)"/>
    </g>
   </g>
   <g id="text_2">
    <!-- Primary ranking signal -->
    <g style="fill: #4b5563" transform="translate(388.853125 138.206122) scale(0.1 -0.1)">
     <defs>
      <path id="DejaVuSans-50" d="M 1259 4147 
L 1259 2394 
L 2053 2394 
Q 2494 2394 2734 2622 
Q 2975 2850 2975 3272 
Q 2975 3691 2734 3919 
Q 2494 4147 2053 4147 
L 1259 4147 
z
M 628 4666 
L 2053 4666 
Q 2838 4666 3239 4311 
Q 3641 3956 3641 3272 
Q 3641 2581 3239 2228 
Q 2838 1875 2053 1875 
L 1259 1875 
L 1259 0 
L 628 0 
L 628 4666 
z
" transform="scale(0.015625)"/>
      <path id="DejaVuSans-72" d="M 2631 2963 
Q 2534 3019 2420 3045 
Q 2306 3072 2169 3072 
Q 1681 3072 1420 2755 
Q 1159 2438 1159 1844 
L 1159 0 
L 581 0 
L 581 3500 
L 1159 3500 
L 1159 2956 
Q 1341 3275 1631 3429 
Q 1922 3584 2338 3584 
Q 2397 3584 2469 3576 
Q 2541 3569 2628 3553 
L 2631 2963 
z
" transform="scale(0.015625)"/>
      <path id="DejaVuSans-69" d="M 603 3500 
L 1178 3500 
L 1178 0 
L 603 0 
L 603 3500 
z
M 603 4863 
L 1178 4863 
L 1178 4134 
L 603 4134 
L 603 4863 
z
" transform="scale(0.015625)"/>
      <path id="DejaVuSans-6d" d="M 3328 2828 
Q 3544 3216 3844 3400 
Q 4144 3584 4550 3584 
Q 5097 3584 5394 3201 
Q 5691 2819 5691 2113 
L 5691 0 
L 5113 0 
L 5113 2094 
Q 5113 2597 4934 2840 
Q 4756 3084 4391 3084 
Q 3944 3084 3684 2787 
Q 3425 2491 3425 1978 
L 3425 0 
L 2847 0 
L 2847 2094 
Q 2847 2600 2669 2842 
Q 2491 3084 2119 3084 
Q 1678 3084 1418 2786 
Q 1159 2488 1159 1978 
L 1159 0 
L 581 0 
L 581 3500 
L 1159 3500 
L 1159 2956 
Q 1356 3278 1631 3431 
Q 1906 3584 2284 3584 
Q 2666 3584 2933 3390 
Q 3200 3197 3328 2828 
z
" transform="scale(0.015625)"/>
      <path id="DejaVuSans-61" d="M 2194 1759 
Q 1497 1759 1228 1600 
Q 959 1441 959 1056 
Q 959 750 1161 570 
Q 1363 391 1709 391 
Q 2188 391 2477 730 
Q 2766 1069 2766 1631 
L 2766 1759 
L 2194 1759 
z
M 3341 1997 
L 3341 0 
L 2766 0 
L 2766 531 
Q 2569 213 2275 61 
Q 1981 -91 1556 -91 
Q 1019 -91 701 211 
Q 384 513 384 1019 
Q 384 1609 779 1909 
Q 1175 2209 1959 2209 
L 2766 2209 
L 2766 2266 
Q 2766 2663 2505 2880 
Q 2244 3097 1772 3097 
Q 1472 3097 1187 3025 
Q 903 2953 641 2809 
L 641 3341 
Q 956 3463 1253 3523 
Q 1550 3584 1831 3584 
Q 2591 3584 2966 3190 
Q 3341 2797 3341 1997 
z
" transform="scale(0.015625)"/>
      <path id="DejaVuSans-79" d="M 2059 -325 
Q 1816 -950 1584 -1140 
Q 1353 -1331 966 -1331 
L 506 -1331 
L 506 -850 
L 844 -850 
Q 1081 -850 1212 -737 
Q 1344 -625 1503 -206 
L 1606 56 
L 191 3500 
L 800 3500 
L 1894 763 
L 2988 3500 
L 3597 3500 
L 2059 -325 
z
" transform="scale(0.015625)"/>
      <path id="DejaVuSans-20" transform="scale(0.015625)"/>
      <path id="DejaVuSans-6e" d="M 3513 2113 
L 3513 0 
L 2938 0 
L 2938 2094 
Q 2938 2591 2744 2837 
Q 2550 3084 2163 3084 
Q 1697 3084 1428 2787 
Q 1159 2491 1159 1978 
L 1159 0 
L 581 0 
L 581 3500 
L 1159 3500 
L 1159 2956 
Q 1366 3272 1645 3428 
Q 1925 3584 2291 3584 
Q 2894 3584 3203 3211 
Q 3513 2838 3513 2113 
z
" transform="scale(0.015625)"/>
      <path id="DejaVuSans-6b" d="M 581 4863 
L 1159 4863 
L 1159 1991 
L 2875 3500 
L 3609 3500 
L 1753 1863 
L 3688 0 
L 2938 0 
L 1159 1709 
L 1159 0 
L 581 0 
L 581 4863 
z
" transform="scale(0.015625)"/>
      <path id="DejaVuSans-67" d="M 2906 1791 
Q 2906 2416 2648 2759 
Q 2391 3103 1925 3103 
Q 1463 3103 1205 2759 
Q 947 2416 947 1791 
Q 947 1169 1205 825 
Q 1463 481 1925 481 
Q 2391 481 2648 825 
Q 2906 1169 2906 1791 
z
M 3481 434 
Q 3481 -459 3084 -895 
Q 2688 -1331 1869 -1331 
Q 1566 -1331 1297 -1286 
Q 1028 -1241 775 -1147 
L 775 -588 
Q 1028 -725 1275 -790 
Q 1522 -856 1778 -856 
Q 2344 -856 2625 -561 
Q 2906 -266 2906 331 
L 2906 616 
Q 2728 306 2450 153 
Q 2172 0 1784 0 
Q 1141 0 747 490 
Q 353 981 353 1791 
Q 353 2603 747 3093 
Q 1141 3584 1784 3584 
Q 2172 3584 2450 3431 
Q 2728 3278 2906 2969 
L 2906 3500 
L 3481 3500 
L 3481 434 
z
" transform="scale(0.015625)"/>
      <path id="DejaVuSans-73" d="M 2834 3397 
L 2834 2853 
Q 2591 2978 2328 3040 
Q 2066 3103 1784 3103 
Q 1356 3103 1142 2972 
Q 928 2841 928 2578 
Q 928 2378 1081 2264 
Q 1234 2150 1697 2047 
L 1894 2003 
Q 2506 1872 2764 1633 
Q 3022 1394 3022 966 
Q 3022 478 2636 193 
Q 2250 -91 1575 -91 
Q 1294 -91 989 -36 
Q 684 19 347 128 
L 347 722 
Q 666 556 975 473 
Q 1284 391 1588 391 
Q 1994 391 2212 530 
Q 2431 669 2431 922 
Q 2431 1156 2273 1281 
Q 2116 1406 1581 1522 
L 1381 1569 
Q 847 1681 609 1914 
Q 372 2147 372 2553 
Q 372 3047 722 3315 
Q 1072 3584 1716 3584 
Q 2034 3584 2315 3537 
Q 2597 3491 2834 3397 
z
" transform="scale(0.015625)"/>
      <path id="DejaVuSans-6c" d="M 603 4863 
L 1178 4863 
L 1178 0 
L 603 0 
L 603 4863 
z
" transform="scale(0.015625)"/>
     </defs>
     <use xlink:href="#DejaVuSans-50"/>
     <use xlink:href="#DejaVuSans-72" transform="translate(58.552734 0)"/>
     <use xlink:href="#DejaVuSans-69" transform="translate(99.666016 0)"/>
     <use xlink:href="#DejaVuSans-6d" transform="translate(127.449219 0)"/>
     <use xlink:href="#DejaVuSans-61" transform="translate(224.861328 0)"/>
     <use xlink:href="#DejaVuSans-72" transform="translate(286.140625 0)"/>
     <use xlink:href="#DejaVuSans-79" transform="translate(327.253906 0)"/>
     <use xlink:href="#DejaVuSans-20" transform="translate(386.433594 0)"/>
     <use xlink:href="#DejaVuSans-72" transform="translate(418.220703 0)"/>
     <use xlink:href="#DejaVuSans-61" transform="translate(459.333984 0)"/>
     <use xlink:href="#DejaVuSans-6e" transform="translate(520.613281 0)"/>
     <use xlink:href="#DejaVuSans-6b" transform="translate(583.992188 0)"/>
     <use xlink:href="#DejaVuSans-69" transform="translate(641.902344 0)"/>
     <use xlink:href="#DejaVuSans-6e" transform="translate(669.685547 0)"/>
     <use xlink:href="#DejaVuSans-67" transform="translate(733.064453 0)"/>
     <use xlink:href="#DejaVuSans-20" transform="translate(796.541016 0)"/>
     <use xlink:href="#DejaVuSans-73" transform="translate(828.328125 0)"/>
     <use xlink:href="#DejaVuSans-69" transform="translate(880.427734 0)"/>
     <use xlink:href="#DejaVuSans-67" transform="translate(908.210938 0)"/>
     <use xlink:href="#DejaVuSans-6e" transform="translate(971.6875 0)"/>
     <use xlink:href="#DejaVuSans-61" transform="translate(1035.066406 0)"/>
     <use xlink:href="#DejaVuSans-6c" transform="translate(1096.345703 0)"/>
    </g>
   </g>
   <g id="text_3">
    <!-- Meta Description -->
    <g style="fill: #10b981" transform="translate(71.1375 202.88137) scale(0.12 -0.12)">
     <defs>
      <path id="DejaVuSans-Bold-4d" d="M 588 4666 
L 2119 4666 
L 3181 2169 
L 4250 4666 
L 5778 4666 
L 5778 0 
L 4641 0 
L 4641 3413 
L 3566 897 
L 2803 897 
L 1728 3413 
L 1728 0 
L 588 0 
L 588 4666 
z
" transform="scale(0.015625)"/>
      <path id="DejaVuSans-Bold-44" d="M 1791 3756 
L 1791 909 
L 2222 909 
Q 2959 909 3348 1275 
Q 3738 1641 3738 2338 
Q 3738 3031 3350 3393 
Q 2963 3756 2222 3756 
L 1791 3756 
z
M 588 4666 
L 1856 4666 
Q 2919 4666 3439 4514 
Q 3959 4363 4331 4000 
Q 4659 3684 4818 3271 
Q 4978 2859 4978 2338 
Q 4978 1809 4818 1395 
Q 4659 981 4331 666 
Q 3956 303 3431 151 
Q 2906 0 1856 0 
L 588 0 
L 588 4666 
z
" transform="scale(0.015625)"/>
      <path id="DejaVuSans-Bold-73" d="M 3272 3391 
L 3272 2541 
Q 2913 2691 2578 2766 
Q 2244 2841 1947 2841 
Q 1628 2841 1473 2761 
Q 1319 2681 1319 2516 
Q 1319 2381 1436 2309 
Q 1553 2238 1856 2203 
L 2053 2175 
Q 2913 2066 3209 1816 
Q 3506 1566 3506 1031 
Q 3506 472 3093 190 
Q 2681 -91 1863 -91 
Q 1516 -91 1145 -36 
Q 775 19 384 128 
L 384 978 
Q 719 816 1070 734 
Q 1422 653 1784 653 
Q 2113 653 2278 743 
Q 2444 834 2444 1013 
Q 2444 1163 2330 1236 
Q 2216 1309 1875 1350 
L 1678 1375 
Q 931 1469 631 1722 
Q 331 1975 331 2491 
Q 331 3047 712 3315 
Q 1094 3584 1881 3584 
Q 2191 3584 2531 3537 
Q 2872 3491 3272 3391 
z
" transform="scale(0.015625)"/>
      <path id="DejaVuSans-Bold-63" d="M 3366 3391 
L 3366 2478 
Q 3138 2634 2908 2709 
Q 2678 2784 2431 2784 
Q 1963 2784 1702 2511 
Q 1441 2238 1441 1747 
Q 1441 1256 1702 982 
Q 1963 709 2431 709 
Q 2694 709 2930 787 
Q 3166 866 3366 1019 
L 3366 103 
Q 3103 6 2833 -42 
Q 2563 -91 2291 -91 
Q 1344 -91 809 395 
Q 275 881 275 1747 
Q 275 2613 809 3098 
Q 1344 3584 2291 3584 
Q 2566 3584 2833 3536 
Q 3100 3488 3366 3391 
z
" transform="scale(0.015625)"/>
      <path id="DejaVuSans-Bold-72" d="M 3138 2547 
Q 2991 2616 2845 2648 
Q 2700 2681 2553 2681 
Q 2122 2681 1889 2404 
Q 1656 2128 1656 1613 
L 1656 0 
L 538 0 
L 538 3500 
L 1656 3500 
L 1656 2925 
Q 1872 3269 2151 3426 
Q 2431 3584 2822 3584 
Q 2878 3584 2943 3579 
Q 3009 3575 3134 3559 
L 3138 2547 
z
" transform="scale(0.015625)"/>
      <path id="DejaVuSans-Bold-70" d="M 1656 506 
L 1656 -1331 
L 538 -1331 
L 538 3500 
L 1656 3500 
L 1656 2988 
Q 1888 3294 2169 3439 
Q 2450 3584 2816 3584 
Q 3463 3584 3878 3070 
Q 4294 2556 4294 1747 
Q 4294 938 3878 423 
Q 3463 -91 2816 -91 
Q 2450 -91 2169 54 
Q 1888 200 1656 506 
z
M 2400 2772 
Q 2041 2772 1848 2508 
Q 1656 2244 1656 1747 
Q 1656 1250 1848 986 
Q 2041 722 2400 722 
Q 2759 722 2948 984 
Q 3138 1247 3138 1747 
Q 3138 2247 2948 2509 
Q 2759 2772 2400 2772 
z
" transform="scale(0.015625)"/>
      <path id="DejaVuSans-Bold-6f" d="M 2203 2784 
Q 1831 2784 1636 2517 
Q 1441 2250 1441 1747 
Q 1441 1244 1636 976 
Q 1831 709 2203 709 
Q 2569 709 2762 976 
Q 2956 1244 2956 1747 
Q 2956 2250 2762 2517 
Q 2569 2784 2203 2784 
z
M 2203 3584 
Q 3106 3584 3614 3096 
Q 4122 2609 4122 1747 
Q 4122 884 3614 396 
Q 3106 -91 2203 -91 
Q 1297 -91 786 396 
Q 275 884 275 1747 
Q 275 2609 786 3096 
Q 1297 3584 2203 3584 
z
" transform="scale(0.015625)"/>
      <path id="DejaVuSans-Bold-6e" d="M 4056 2131 
L 4056 0 
L 2931 0 
L 2931 347 
L 2931 1631 
Q 2931 2084 2911 2256 
Q 2891 2428 2841 2509 
Q 2775 2619 2662 2680 
Q 2550 2741 2406 2741 
Q 2056 2741 1856 2470 
Q 1656 2200 1656 1722 
L 1656 0 
L 538 0 
L 538 3500 
L 1656 3500 
L 1656 2988 
Q 1909 3294 2193 3439 
Q 2478 3584 2822 3584 
Q 3428 3584 3742 3212 
Q 4056 2841 4056 2131 
z
" transform="scale(0.015625)"/>
     </defs>
     <use xlink:href="#DejaVuSans-Bold-4d"/>
     <use xlink:href="#DejaVuSans-Bold-65" transform="translate(99.511719 0)"/>
     <use xlink:href="#DejaVuSans-Bold-74" transform="translate(167.333984 0)"/>
     <use xlink:href="#DejaVuSans-Bold-61" transform="translate(215.136719 0)"/>
     <use xlink:href="#DejaVuSans-Bold-20" transform="translate(282.617188 0)"/>
     <use xlink:href="#DejaVuSans-Bold-44" transform="translate(317.431641 0)"/>
     <use xlink:href="#DejaVuSans-Bold-65" transform="translate(400.439453 0)"/>
     <use xlink:href="#DejaVuSans-Bold-73" transform="translate(468.261719 0)"/>
     <use xlink:href="#DejaVuSans-Bold-63" transform="translate(527.783203 0)"/>
     <use xlink:href="#DejaVuSans-Bold-72" transform="translate(587.060547 0)"/>
     <use xlink:href="#DejaVuSans-Bold-69" transform="translate(636.376953 0)"/>
     <use xlink:href="#DejaVuSans-Bold-70" transform="translate(670.654297 0)"/>
     <use xlink:href="#DejaVuSans-Bold-74" transform="translate(742.236328 0)"/>
     <use xlink:href="#DejaVuSans-Bold-69" transform="translate(790.039062 0)"/>
     <use xlink:href="#DejaVuSans-Bold-6f" transform="translate(824.316406 0)"/>
     <use xlink:href="#DejaVuSans-Bold-6e" transform="translate(893.017578 0)"/>
    </g>
   </g>
   <g id="text_4">
    <!-- Click-through optimization -->
    <g style="fill: #4b5563" transform="translate(369.146875 202.329495) scale(0.1 -0.1)">
     <defs>
      <path id="DejaVuSans-43" d="M 4122 4306 
L 4122 3641 
Q 3803 3938 3442 4084 
Q 3081 4231 2675 4231 
Q 1875 4231 1450 3742 
Q 1025 3253 1025 2328 
Q 1025 1406 1450 917 
Q 1875 428 2675 428 
Q 3081 428 3442 575 
Q 3803 722 4122 1019 
L 4122 359 
Q 3791 134 3420 21 
Q 3050 -91 2638 -91 
Q 1578 -91 968 557 
Q 359 1206 359 2328 
Q 359 3453 968 4101 
Q 1578 4750 2638 4750 
Q 3056 4750 3426 4639 
Q 3797 4528 4122 4306 
z
" transform="scale(0.015625)"/>
      <path id="DejaVuSans-63" d="M 3122 3366 
L 3122 2828 
Q 2878 2963 2633 3030 
Q 2388 3097 2138 3097 
Q 1578 3097 1268 2742 
Q 959 2388 959 1747 
Q 959 1106 1268 751 
Q 1578 397 2138 397 
Q 2388 397 2633 464 
Q 2878 531 3122 666 
L 3122 134 
Q 2881 22 2623 -34 
Q 2366 -91 2075 -91 
Q 1284 -91 818 406 
Q 353 903 353 1747 
Q 353 2603 823 3093 
Q 1294 3584 2113 3584 
Q 2378 3584 2631 3529 
Q 2884 3475 3122 3366 
z
" transform="scale(0.015625)"/>
      <path id="DejaVuSans-2d" d="M 313 2009 
L 1997 2009 
L 1997 1497 
L 313 1497 
L 313 2009 
z
" transform="scale(0.015625)"/>
      <path id="DejaVuSans-74" d="M 1172 4494 
L 1172 3500 
L 2356 3500 
L 2356 3053 
L 1172 3053 
L 1172 1153 
Q 1172 725 1289 603 
Q 1406 481 1766 481 
L 2356 481 
L 2356 0 
L 1766 0 
Q 1100 0 847 248 
Q 594 497 594 1153 
L 594 3053 
L 172 3053 
L 172 3500 
L 594 3500 
L 594 4494 
L 1172 4494 
z
" transform="scale(0.015625)"/>
      <path id="DejaVuSans-68" d="M 3513 2113 
L 3513 0 
L 2938 0 
L 2938 2094 
Q 2938 2591 2744 2837 
Q 2550 3084 2163 3084 
Q 1697 3084 1428 2787 
Q 1159 2491 1159 1978 
L 1159 0 
L 581 0 
L 581 4863 
L 1159 4863 
L 1159 2956 
Q 1366 3272 1645 3428 
Q 1925 3584 2291 3584 
Q 2894 3584 3203 3211 
Q 3513 2838 3513 2113 
z
" transform="scale(0.015625)"/>
      <path id="DejaVuSans-6f" d="M 1959 3097 
Q 1497 3097 1228 2736 
Q 959 2375 959 1747 
Q 959 1119 1226 758 
Q 1494 397 1959 397 
Q 2419 397 2687 759 
Q 2956 1122 2956 1747 
Q 2956 2369 2687 2733 
Q 2419 3097 1959 3097 
z
M 1959 3584 
Q 2709 3584 3137 3096 
Q 3566 2609 3566 1747 
Q 3566 888 3137 398 
Q 2709 -91 1959 -91 
Q 1206 -91 779 398 
Q 353 888 353 1747 
Q 353 2609 779 3096 
Q 1206 3584 1959 3584 
z
" transform="scale(0.015625)"/>
      <path id="DejaVuSans-75" d="M 544 1381 
L 544 3500 
L 1119 3500 
L 1119 1403 
Q 1119 906 1312 657 
Q 1506 409 1894 409 
Q 2359 409 2629 706 
Q 2900 1003 2900 1516 
L 2900 3500 
L 3475 3500 
L 3475 0 
L 2900 0 
L 2900 538 
Q 2691 219 2414 64 
Q 2138 -91 1772 -91 
Q 1169 -91 856 284 
Q 544 659 544 1381 
z
M 1991 3584 
L 1991 3584 
z
" transform="scale(0.015625)"/>
      <path id="DejaVuSans-70" d="M 1159 525 
L 1159 -1331 
L 581 -1331 
L 581 3500 
L 1159 3500 
L 1159 2969 
Q 1341 3281 1617 3432 
Q 1894 3584 2278 3584 
Q 2916 3584 3314 3078 
Q 3713 2572 3713 1747 
Q 3713 922 3314 415 
Q 2916 -91 2278 -91 
Q 1894 -91 1617 61 
Q 1341 213 1159 525 
z
M 3116 1747 
Q 3116 2381 2855 2742 
Q 2594 3103 2138 3103 
Q 1681 3103 1420 2742 
Q 1159 2381 1159 1747 
Q 1159 1113 1420 752 
Q 1681 391 2138 391 
Q 2594 391 2855 752 
Q 3116 1113 3116 1747 
z
" transform="scale(0.015625)"/>
      <path id="DejaVuSans-7a" d="M 353 3500 
L 3084 3500 
L 3084 2975 
L 922 459 
L 3084 459 
L 3084 0 
L 275 0 
L 275 525 
L 2438 3041 
L 353 3041 
L 353 3500 
z
" transform="scale(0.015625)"/>
     </defs>
     <use xlink:href="#DejaVuSans-43"/>
     <use xlink:href="#DejaVuSans-6c" transform="translate(69.824219 0)"/>
     <use xlink:href="#DejaVuSans-69" transform="translate(97.607422 0)"/>
     <use xlink:href="#DejaVuSans-63" transform="translate(125.390625 0)"/>
     <use xlink:href="#DejaVuSans-6b" transform="translate(180.371094 0)"/>
     <use xlink:href="#DejaVuSans-2d" transform="translate(238.28125 0)"/>
     <use xlink:href="#DejaVuSans-74" transform="translate(274.365234 0)"/>
     <use xlink:href="#DejaVuSans-68" transform="translate(313.574219 0)"/>
     <use xlink:href="#DejaVuSans-72" transform="translate(376.953125 0)"/>
     <use xlink:href="#DejaVuSans-6f" transform="translate(415.816406 0)"/>
     <use xlink:href="#DejaVuSans-75" transform="translate(476.998047 0)"/>
     <use xlink:href="#DejaVuSans-67" transform="translate(540.376953 0)"/>
     <use xlink:href="#DejaVuSans-68" transform="translate(603.853516 0)"/>
     <use xlink:href="#DejaVuSans-20" transform="translate(667.232422 0)"/>
     <use xlink:href="#DejaVuSans-6f" transform="translate(699.019531 0)"/>
     <use xlink:href="#DejaVuSans-70" transform="translate(760.201172 0)"/>
     <use xlink:href="#DejaVuSans-74" transform="translate(823.677734 0)"/>
     <use xlink:href="#DejaVuSans-69" transform="translate(862.886719 0)"/>
     <use xlink:href="#DejaVuSans-6d" transform="translate(890.669922 0)"/>
     <use xlink:href="#DejaVuSans-69" transform="translate(988.082031 0)"/>
     <use xlink:href="#DejaVuSans-7a" transform="translate(1015.865234 0)"/>
     <use xlink:href="#DejaVuSans-61" transform="translate(1068.355469 0)"/>
     <use xlink:href="#DejaVuSans-74" transform="translate(1129.634766 0)"/>
     <use xlink:href="#DejaVuSans-69" transform="translate(1168.84375 0)"/>
     <use xlink:href="#DejaVuSans-6f" transform="translate(1196.626953 0)"/>
     <use xlink:href="#DejaVuSans-6e" transform="translate(1257.808594 0)"/>
    </g>
   </g>
   <g id="text_5">
    <!-- H1 Tag -->
    <g style="fill: #8b5cf6" transform="translate(71.1375 266.910994) scale(0.12 -0.12)">
     <defs>
      <path id="DejaVuSans-Bold-48" d="M 588 4666 
L 1791 4666 
L 1791 2888 
L 3566 2888 
L 3566 4666 
L 4769 4666 
L 4769 0 
L 3566 0 
L 3566 1978 
L 1791 1978 
L 1791 0 
L 588 0 
L 588 4666 
z
" transform="scale(0.015625)"/>
      <path id="DejaVuSans-Bold-31" d="M 750 831 
L 1813 831 
L 1813 3847 
L 722 3622 
L 722 4441 
L 1806 4666 
L 2950 4666 
L 2950 831 
L 4013 831 
L 4013 0 
L 750 0 
L 750 831 
z
" transform="scale(0.015625)"/>
     </defs>
     <use xlink:href="#DejaVuSans-Bold-48"/>
     <use xlink:href="#DejaVuSans-Bold-31" transform="translate(83.691406 0)"/>
     <use xlink:href="#DejaVuSans-Bold-20" transform="translate(153.271484 0)"/>
     <use xlink:href="#DejaVuSans-Bold-54" transform="translate(188.085938 0)"/>
     <use xlink:href="#DejaVuSans-Bold-61" transform="translate(243.423828 0)"/>
     <use xlink:href="#DejaVuSans-Bold-67" transform="translate(310.904297 0)"/>
    </g>
   </g>
   <g id="text_6">
    <!-- Page topic indicator -->
    <g style="fill: #4b5563" transform="translate(402.014062 266.452869) scale(0.1 -0.1)">
     <defs>
      <path id="DejaVuSans-65" d="M 3597 1894 
L 3597 1613 
L 953 1613 
Q 991 1019 1311 708 
Q 1631 397 2203 397 
Q 2534 397 2845 478 
Q 3156 559 3463 722 
L 3463 178 
Q 3153 47 2828 -22 
Q 2503 -91 2169 -91 
Q 1331 -91 842 396 
Q 353 884 353 1716 
Q 353 2575 817 3079 
Q 1281 3584 2069 3584 
Q 2775 3584 3186 3129 
Q 3597 2675 3597 1894 
z
M 3022 2063 
Q 3016 2534 2758 2815 
Q 2500 3097 2075 3097 
Q 1594 3097 1305 2825 
Q 1016 2553 972 2059 
L 3022 2063 
z
" transform="scale(0.015625)"/>
      <path id="DejaVuSans-64" d="M 2906 2969 
L 2906 4863 
L 3481 4863 
L 3481 0 
L 2906 0 
L 2906 525 
Q 2725 213 2448 61 
Q 2172 -91 1784 -91 
Q 1150 -91 751 415 
Q 353 922 353 1747 
Q 353 2572 751 3078 
Q 1150 3584 1784 3584 
Q 2172 3584 2448 3432 
Q 2725 3281 2906 2969 
z
M 947 1747 
Q 947 1113 1208 752 
Q 1469 391 1925 391 
Q 2381 391 2643 752 
Q 2906 1113 2906 1747 
Q 2906 2381 2643 2742 
Q 2381 3103 1925 3103 
Q 1469 3103 1208 2742 
Q 947 2381 947 1747 
z
" transform="scale(0.015625)"/>
     </defs>
     <use xlink:href="#DejaVuSans-50"/>
     <use xlink:href="#DejaVuSans-61" transform="translate(55.802734 0)"/>
     <use xlink:href="#DejaVuSans-67" transform="translate(117.082031 0)"/>
     <use xlink:href="#DejaVuSans-65" transform="translate(180.558594 0)"/>
     <use xlink:href="#DejaVuSans-20" transform="translate(242.082031 0)"/>
     <use xlink:href="#DejaVuSans-74" transform="translate(273.869141 0)"/>
     <use xlink:href="#DejaVuSans-6f" transform="translate(313.078125 0)"/>
     <use xlink:href="#DejaVuSans-70" transform="translate(374.259766 0)"/>
     <use xlink:href="#DejaVuSans-69" transform="translate(437.736328 0)"/>
     <use xlink:href="#DejaVuSans-63" transform="translate(465.519531 0)"/>
     <use xlink:href="#DejaVuSans-20" transform="translate(520.5 0)"/>
     <use xlink:href="#DejaVuSans-69" transform="translate(552.287109 0)"/>
     <use xlink:href="#DejaVuSans-6e" transform="translate(580.070312 0)"/>
     <use xlink:href="#DejaVuSans-64" transform="translate(643.449219 0)"/>
     <use xlink:href="#DejaVuSans-69" transform="translate(706.925781 0)"/>
     <use xlink:href="#DejaVuSans-63" transform="translate(734.708984 0)"/>
     <use xlink:href="#DejaVuSans-61" transform="translate(789.689453 0)"/>
     <use xlink:href="#DejaVuSans-74" transform="translate(850.96875 0)"/>
     <use xlink:href="#DejaVuSans-6f" transform="translate(890.177734 0)"/>
     <use xlink:href="#DejaVuSans-72" transform="translate(951.359375 0)"/>
    </g>
   </g>
   <g id="text_7">
    <!-- H2-H6 Tags -->
    <g style="fill: #f59e0b" transform="translate(71.1375 331.034367) scale(0.12 -0.12)">
     <defs>
      <path id="DejaVuSans-Bold-32" d="M 1844 884 
L 3897 884 
L 3897 0 
L 506 0 
L 506 884 
L 2209 2388 
Q 2438 2594 2547 2791 
Q 2656 2988 2656 3200 
Q 2656 3528 2436 3728 
Q 2216 3928 1850 3928 
Q 1569 3928 1234 3808 
Q 900 3688 519 3450 
L 519 4475 
Q 925 4609 1322 4679 
Q 1719 4750 2100 4750 
Q 2938 4750 3402 4381 
Q 3866 4013 3866 3353 
Q 3866 2972 3669 2642 
Q 3472 2313 2841 1759 
L 1844 884 
z
" transform="scale(0.015625)"/>
      <path id="DejaVuSans-Bold-2d" d="M 347 2297 
L 2309 2297 
L 2309 1388 
L 347 1388 
L 347 2297 
z
" transform="scale(0.015625)"/>
      <path id="DejaVuSans-Bold-36" d="M 2316 2303 
Q 2000 2303 1842 2098 
Q 1684 1894 1684 1484 
Q 1684 1075 1842 870 
Q 2000 666 2316 666 
Q 2634 666 2792 870 
Q 2950 1075 2950 1484 
Q 2950 1894 2792 2098 
Q 2634 2303 2316 2303 
z
M 3803 4544 
L 3803 3681 
Q 3506 3822 3243 3889 
Q 2981 3956 2731 3956 
Q 2194 3956 1894 3657 
Q 1594 3359 1544 2772 
Q 1750 2925 1990 3001 
Q 2231 3078 2516 3078 
Q 3231 3078 3670 2659 
Q 4109 2241 4109 1563 
Q 4109 813 3618 361 
Q 3128 -91 2303 -91 
Q 1394 -91 895 523 
Q 397 1138 397 2266 
Q 397 3422 980 4083 
Q 1563 4744 2578 4744 
Q 2900 4744 3203 4694 
Q 3506 4644 3803 4544 
z
" transform="scale(0.015625)"/>
     </defs>
     <use xlink:href="#DejaVuSans-Bold-48"/>
     <use xlink:href="#DejaVuSans-Bold-32" transform="translate(83.691406 0)"/>
     <use xlink:href="#DejaVuSans-Bold-2d" transform="translate(153.271484 0)"/>
     <use xlink:href="#DejaVuSans-Bold-48" transform="translate(194.775391 0)"/>
     <use xlink:href="#DejaVuSans-Bold-36" transform="translate(278.466797 0)"/>
     <use xlink:href="#DejaVuSans-Bold-20" transform="translate(348.046875 0)"/>
     <use xlink:href="#DejaVuSans-Bold-54" transform="translate(382.861328 0)"/>
     <use xlink:href="#DejaVuSans-Bold-61" transform="translate(438.199219 0)"/>
     <use xlink:href="#DejaVuSans-Bold-67" transform="translate(505.679688 0)"/>
     <use xlink:href="#DejaVuSans-Bold-73" transform="translate(577.261719 0)"/>
    </g>
   </g>
   <g id="text_8">
    <!-- Content structure -->
    <g style="fill: #4b5563" transform="translate(412.940625 330.576242) scale(0.1 -0.1)">
     <use xlink:href="#DejaVuSans-43"/>
     <use xlink:href="#DejaVuSans-6f" transform="translate(69.824219 0)"/>
     <use xlink:href="#DejaVuSans-6e" transform="translate(131.005859 0)"/>
     <use xlink:href="#DejaVuSans-74" transform="translate(194.384766 0)"/>
     <use xlink:href="#DejaVuSans-65" transform="translate(233.59375 0)"/>
     <use xlink:href="#DejaVuSans-6e" transform="translate(295.117188 0)"/>
     <use xlink:href="#DejaVuSans-74" transform="translate(358.496094 0)"/>
     <use xlink:href="#DejaVuSans-20" transform="translate(397.705078 0)"/>
     <use xlink:href="#DejaVuSans-73" transform="translate(429.492188 0)"/>
     <use xlink:href="#DejaVuSans-74" transform="translate(481.591797 0)"/>
     <use xlink:href="#DejaVuSans-72" transform="translate(520.800781 0)"/>
     <use xlink:href="#DejaVuSans-75" transform="translate(561.914062 0)"/>
     <use xlink:href="#DejaVuSans-63" transform="translate(625.292969 0)"/>
     <use xlink:href="#DejaVuSans-74" transform="translate(680.273438 0)"/>
     <use xlink:href="#DejaVuSans-75" transform="translate(719.482422 0)"/>
     <use xlink:href="#DejaVuSans-72" transform="translate(782.861328 0)"/>
     <use xlink:href="#DejaVuSans-65" transform="translate(821.724609 0)"/>
    </g>
   </g>
   <g id="text_9">
    <!-- URL Structure -->
    <g style="fill: #14b8a6" transform="translate(71.1375 395.251491) scale(0.12 -0.12)">
     <defs>
      <path id="DejaVuSans-Bold-55" d="M 588 4666 
L 1791 4666 
L 1791 1869 
Q 1791 1291 1980 1042 
Q 2169 794 2597 794 
Q 3028 794 3217 1042 
Q 3406 1291 3406 1869 
L 3406 4666 
L 4609 4666 
L 4609 1869 
Q 4609 878 4112 393 
Q 3616 -91 2597 -91 
Q 1581 -91 1084 393 
Q 588 878 588 1869 
L 588 4666 
z
" transform="scale(0.015625)"/>
      <path id="DejaVuSans-Bold-52" d="M 2297 2597 
Q 2675 2597 2839 2737 
Q 3003 2878 3003 3200 
Q 3003 3519 2839 3656 
Q 2675 3794 2297 3794 
L 1791 3794 
L 1791 2597 
L 2297 2597 
z
M 1791 1766 
L 1791 0 
L 588 0 
L 588 4666 
L 2425 4666 
Q 3347 4666 3776 4356 
Q 4206 4047 4206 3378 
Q 4206 2916 3982 2619 
Q 3759 2322 3309 2181 
Q 3556 2125 3751 1926 
Q 3947 1728 4147 1325 
L 4800 0 
L 3519 0 
L 2950 1159 
Q 2778 1509 2601 1637 
Q 2425 1766 2131 1766 
L 1791 1766 
z
" transform="scale(0.015625)"/>
      <path id="DejaVuSans-Bold-4c" d="M 588 4666 
L 1791 4666 
L 1791 909 
L 3903 909 
L 3903 0 
L 588 0 
L 588 4666 
z
" transform="scale(0.015625)"/>
      <path id="DejaVuSans-Bold-53" d="M 3834 4519 
L 3834 3531 
Q 3450 3703 3084 3790 
Q 2719 3878 2394 3878 
Q 1963 3878 1756 3759 
Q 1550 3641 1550 3391 
Q 1550 3203 1689 3098 
Q 1828 2994 2194 2919 
L 2706 2816 
Q 3484 2659 3812 2340 
Q 4141 2022 4141 1434 
Q 4141 663 3683 286 
Q 3225 -91 2284 -91 
Q 1841 -91 1394 -6 
Q 947 78 500 244 
L 500 1259 
Q 947 1022 1364 901 
Q 1781 781 2169 781 
Q 2563 781 2772 912 
Q 2981 1044 2981 1288 
Q 2981 1506 2839 1625 
Q 2697 1744 2272 1838 
L 1806 1941 
Q 1106 2091 782 2419 
Q 459 2747 459 3303 
Q 459 4000 909 4375 
Q 1359 4750 2203 4750 
Q 2588 4750 2994 4692 
Q 3400 4634 3834 4519 
z
" transform="scale(0.015625)"/>
      <path id="DejaVuSans-Bold-75" d="M 500 1363 
L 500 3500 
L 1625 3500 
L 1625 3150 
Q 1625 2866 1622 2436 
Q 1619 2006 1619 1863 
Q 1619 1441 1641 1255 
Q 1663 1069 1716 984 
Q 1784 875 1895 815 
Q 2006 756 2150 756 
Q 2500 756 2700 1025 
Q 2900 1294 2900 1772 
L 2900 3500 
L 4019 3500 
L 4019 0 
L 2900 0 
L 2900 506 
Q 2647 200 2364 54 
Q 2081 -91 1741 -91 
Q 1134 -91 817 281 
Q 500 653 500 1363 
z
" transform="scale(0.015625)"/>
     </defs>
     <use xlink:href="#DejaVuSans-Bold-55"/>
     <use xlink:href="#DejaVuSans-Bold-52" transform="translate(81.201172 0)"/>
     <use xlink:href="#DejaVuSans-Bold-4c" transform="translate(158.203125 0)"/>
     <use xlink:href="#DejaVuSans-Bold-20" transform="translate(221.923828 0)"/>
     <use xlink:href="#DejaVuSans-Bold-53" transform="translate(256.738281 0)"/>
     <use xlink:href="#DejaVuSans-Bold-74" transform="translate(328.759766 0)"/>
     <use xlink:href="#DejaVuSans-Bold-72" transform="translate(376.5625 0)"/>
     <use xlink:href="#DejaVuSans-Bold-75" transform="translate(425.878906 0)"/>
     <use xlink:href="#DejaVuSans-Bold-63" transform="translate(497.070312 0)"/>
     <use xlink:href="#DejaVuSans-Bold-74" transform="translate(556.347656 0)"/>
     <use xlink:href="#DejaVuSans-Bold-75" transform="translate(604.150391 0)"/>
     <use xlink:href="#DejaVuSans-Bold-72" transform="translate(675.341797 0)"/>
     <use xlink:href="#DejaVuSans-Bold-65" transform="translate(724.658203 0)"/>
    </g>
   </g>
   <g id="text_10">
    <!-- Crawlability &amp; UX -->
    <g style="fill: #4b5563" transform="translate(414.110937 394.699616) scale(0.1 -0.1)">
     <defs>
      <path id="DejaVuSans-77" d="M 269 3500 
L 844 3500 
L 1563 769 
L 2278 3500 
L 2956 3500 
L 3675 769 
L 4391 3500 
L 4966 3500 
L 4050 0 
L 3372 0 
L 2619 2869 
L 1863 0 
L 1184 0 
L 269 3500 
z
" transform="scale(0.015625)"/>
      <path id="DejaVuSans-62" d="M 3116 1747 
Q 3116 2381 2855 2742 
Q 2594 3103 2138 3103 
Q 1681 3103 1420 2742 
Q 1159 2381 1159 1747 
Q 1159 1113 1420 752 
Q 1681 391 2138 391 
Q 2594 391 2855 752 
Q 3116 1113 3116 1747 
z
M 1159 2969 
Q 1341 3281 1617 3432 
Q 1894 3584 2278 3584 
Q 2916 3584 3314 3078 
Q 3713 2572 3713 1747 
Q 3713 922 3314 415 
Q 2916 -91 2278 -91 
Q 1894 -91 1617 61 
Q 1341 213 1159 525 
L 1159 0 
L 581 0 
L 581 4863 
L 1159 4863 
L 1159 2969 
z
" transform="scale(0.015625)"/>
      <path id="DejaVuSans-26" d="M 1556 2509 
Q 1272 2256 1139 2004 
Q 1006 1753 1006 1478 
Q 1006 1022 1337 719 
Q 1669 416 2169 416 
Q 2466 416 2725 514 
Q 2984 613 3213 813 
L 1556 2509 
z
M 1997 2859 
L 3584 1234 
Q 3769 1513 3872 1830 
Q 3975 2147 3994 2503 
L 4575 2503 
Q 4538 2091 4375 1687 
Q 4213 1284 3922 891 
L 4794 0 
L 4006 0 
L 3559 459 
Q 3234 181 2878 45 
Q 2522 -91 2113 -91 
Q 1359 -91 881 339 
Q 403 769 403 1441 
Q 403 1841 612 2192 
Q 822 2544 1241 2853 
Q 1091 3050 1012 3245 
Q 934 3441 934 3628 
Q 934 4134 1281 4442 
Q 1628 4750 2203 4750 
Q 2463 4750 2720 4694 
Q 2978 4638 3244 4525 
L 3244 3956 
Q 2972 4103 2725 4179 
Q 2478 4256 2266 4256 
Q 1938 4256 1733 4082 
Q 1528 3909 1528 3634 
Q 1528 3475 1620 3314 
Q 1713 3153 1997 2859 
z
" transform="scale(0.015625)"/>
      <path id="DejaVuSans-55" d="M 556 4666 
L 1191 4666 
L 1191 1831 
Q 1191 1081 1462 751 
Q 1734 422 2344 422 
Q 2950 422 3222 751 
Q 3494 1081 3494 1831 
L 3494 4666 
L 4128 4666 
L 4128 1753 
Q 4128 841 3676 375 
Q 3225 -91 2344 -91 
Q 1459 -91 1007 375 
Q 556 841 556 1753 
L 556 4666 
z
" transform="scale(0.015625)"/>
      <path id="DejaVuSans-58" d="M 403 4666 
L 1081 4666 
L 2241 2931 
L 3406 4666 
L 4084 4666 
L 2584 2425 
L 4184 0 
L 3506 0 
L 2194 1984 
L 872 0 
L 191 0 
L 1856 2491 
L 403 4666 
z
" transform="scale(0.015625)"/>
     </defs>
     <use xlink:href="#DejaVuSans-43"/>
     <use xlink:href="#DejaVuSans-72" transform="translate(69.824219 0)"/>
     <use xlink:href="#DejaVuSans-61" transform="translate(110.9375 0)"/>
     <use xlink:href="#DejaVuSans-77" transform="translate(172.216797 0)"/>
     <use xlink:href="#DejaVuSans-6c" transform="translate(254.003906 0)"/>
     <use xlink:href="#DejaVuSans-61" transform="translate(281.787109 0)"/>
     <use xlink:href="#DejaVuSans-62" transform="translate(343.066406 0)"/>
     <use xlink:href="#DejaVuSans-69" transform="translate(406.542969 0)"/>
     <use xlink:href="#DejaVuSans-6c" transform="translate(434.326172 0)"/>
     <use xlink:href="#DejaVuSans-69" transform="translate(462.109375 0)"/>
     <use xlink:href="#DejaVuSans-74" transform="translate(489.892578 0)"/>
     <use xlink:href="#DejaVuSans-79" transform="translate(529.101562 0)"/>
     <use xlink:href="#DejaVuSans-20" transform="translate(588.28125 0)"/>
     <use xlink:href="#DejaVuSans-26" transform="translate(620.068359 0)"/>
     <use xlink:href="#DejaVuSans-20" transform="translate(698.046875 0)"/>
     <use xlink:href="#DejaVuSans-55" transform="translate(729.833984 0)"/>
     <use xlink:href="#DejaVuSans-58" transform="translate(803.027344 0)"/>
    </g>
   </g>
   <g id="text_11">
    <!-- Image Alt Text -->
    <g style="fill: #06b6d4" transform="translate(71.1375 459.327989) scale(0.12 -0.12)">
     <defs>
      <path id="DejaVuSans-Bold-49" d="M 588 4666 
L 1791 4666 
L 1791 0 
L 588 0 
L 588 4666 
z
" transform="scale(0.015625)"/>
      <path id="DejaVuSans-Bold-6d" d="M 3781 2919 
Q 3994 3244 4286 3414 
Q 4578 3584 4928 3584 
Q 5531 3584 5847 3212 
Q 6163 2841 6163 2131 
L 6163 0 
L 5038 0 
L 5038 1825 
Q 5041 1866 5042 1909 
Q 5044 1953 5044 2034 
Q 5044 2406 4934 2573 
Q 4825 2741 4581 2741 
Q 4263 2741 4089 2478 
Q 3916 2216 3909 1719 
L 3909 0 
L 2784 0 
L 2784 1825 
Q 2784 2406 2684 2573 
Q 2584 2741 2328 2741 
Q 2006 2741 1831 2477 
Q 1656 2213 1656 1722 
L 1656 0 
L 531 0 
L 531 3500 
L 1656 3500 
L 1656 2988 
Q 1863 3284 2130 3434 
Q 2397 3584 2719 3584 
Q 3081 3584 3359 3409 
Q 3638 3234 3781 2919 
z
" transform="scale(0.015625)"/>
      <path id="DejaVuSans-Bold-41" d="M 3419 850 
L 1538 850 
L 1241 0 
L 31 0 
L 1759 4666 
L 3194 4666 
L 4922 0 
L 3713 0 
L 3419 850 
z
M 1838 1716 
L 3116 1716 
L 2478 3572 
L 1838 1716 
z
" transform="scale(0.015625)"/>
      <path id="DejaVuSans-Bold-78" d="M 1422 1791 
L 159 3500 
L 1344 3500 
L 2059 2463 
L 2784 3500 
L 3969 3500 
L 2706 1797 
L 4031 0 
L 2847 0 
L 2059 1106 
L 1281 0 
L 97 0 
L 1422 1791 
z
" transform="scale(0.015625)"/>
     </defs>
     <use xlink:href="#DejaVuSans-Bold-49"/>
     <use xlink:href="#DejaVuSans-Bold-6d" transform="translate(37.207031 0)"/>
     <use xlink:href="#DejaVuSans-Bold-61" transform="translate(141.40625 0)"/>
     <use xlink:href="#DejaVuSans-Bold-67" transform="translate(208.886719 0)"/>
     <use xlink:href="#DejaVuSans-Bold-65" transform="translate(280.46875 0)"/>
     <use xlink:href="#DejaVuSans-Bold-20" transform="translate(348.291016 0)"/>
     <use xlink:href="#DejaVuSans-Bold-41" transform="translate(383.105469 0)"/>
     <use xlink:href="#DejaVuSans-Bold-6c" transform="translate(460.498047 0)"/>
     <use xlink:href="#DejaVuSans-Bold-74" transform="translate(494.775391 0)"/>
     <use xlink:href="#DejaVuSans-Bold-20" transform="translate(542.578125 0)"/>
     <use xlink:href="#DejaVuSans-Bold-54" transform="translate(577.392578 0)"/>
     <use xlink:href="#DejaVuSans-Bold-65" transform="translate(632.355469 0)"/>
     <use xlink:href="#DejaVuSans-Bold-78" transform="translate(700.177734 0)"/>
     <use xlink:href="#DejaVuSans-Bold-74" transform="translate(764.679688 0)"/>
    </g>
   </g>
   <g id="text_12">
    <!-- Accessibility &amp; context -->
    <g style="fill: #4b5563" transform="translate(387.88125 458.822989) scale(0.1 -0.1)">
     <defs>
      <path id="DejaVuSans-41" d="M 2188 4044 
L 1331 1722 
L 3047 1722 
L 2188 4044 
z
M 1831 4666 
L 2547 4666 
L 4325 0 
L 3669 0 
L 3244 1197 
L 1141 1197 
L 716 0 
L 50 0 
L 1831 4666 
z
" transform="scale(0.015625)"/>
      <path id="DejaVuSans-78" d="M 3513 3500 
L 2247 1797 
L 3578 0 
L 2900 0 
L 1881 1375 
L 863 0 
L 184 0 
L 1544 1831 
L 300 3500 
L 978 3500 
L 1906 2253 
L 2834 3500 
L 3513 3500 
z
" transform="scale(0.015625)"/>
     </defs>
     <use xlink:href="#DejaVuSans-41"/>
     <use xlink:href="#DejaVuSans-63" transform="translate(66.658203 0)"/>
     <use xlink:href="#DejaVuSans-63" transform="translate(121.638672 0)"/>
     <use xlink:href="#DejaVuSans-65" transform="translate(176.619141 0)"/>
     <use xlink:href="#DejaVuSans-73" transform="translate(238.142578 0)"/>
     <use xlink:href="#DejaVuSans-73" transform="translate(290.242188 0)"/>
     <use xlink:href="#DejaVuSans-69" transform="translate(342.341797 0)"/>
     <use xlink:href="#DejaVuSans-62" transform="translate(370.125 0)"/>
     <use xlink:href="#DejaVuSans-69" transform="translate(433.601562 0)"/>
     <use xlink:href="#DejaVuSans-6c" transform="translate(461.384766 0)"/>
     <use xlink:href="#DejaVuSans-69" transform="translate(489.167969 0)"/>
     <use xlink:href="#DejaVuSans-74" transform="translate(516.951172 0)"/>
     <use xlink:href="#DejaVuSans-79" transform="translate(556.160156 0)"/>
     <use xlink:href="#DejaVuSans-20" transform="translate(615.339844 0)"/>
     <use xlink:href="#DejaVuSans-26" transform="translate(647.126953 0)"/>
     <use xlink:href="#DejaVuSans-20" transform="translate(725.105469 0)"/>
     <use xlink:href="#DejaVuSans-63" transform="translate(756.892578 0)"/>
     <use xlink:href="#DejaVuSans-6f" transform="translate(811.873047 0)"/>
     <use xlink:href="#DejaVuSans-6e" transform="translate(873.054688 0)"/>
     <use xlink:href="#DejaVuSans-74" transform="translate(936.433594 0)"/>
     <use xlink:href="#DejaVuSans-65" transform="translate(975.642578 0)"/>
     <use xlink:href="#DejaVuSans-78" transform="translate(1035.416016 0)"/>
     <use xlink:href="#DejaVuSans-74" transform="translate(1094.595703 0)"/>
    </g>
   </g>
   <g id="text_13">
    <!-- Internal Links -->
    <g style="fill: #6b7280" transform="translate(71.1375 523.498238) scale(0.12 -0.12)">
     <defs>
      <path id="DejaVuSans-Bold-6b" d="M 538 4863 
L 1656 4863 
L 1656 2216 
L 2944 3500 
L 4244 3500 
L 2534 1894 
L 4378 0 
L 3022 0 
L 1656 1459 
L 1656 0 
L 538 0 
L 538 4863 
z
" transform="scale(0.015625)"/>
     </defs>
     <use xlink:href="#DejaVuSans-Bold-49"/>
     <use xlink:href="#DejaVuSans-Bold-6e" transform="translate(37.207031 0)"/>
     <use xlink:href="#DejaVuSans-Bold-74" transform="translate(108.398438 0)"/>
     <use xlink:href="#DejaVuSans-Bold-65" transform="translate(156.201172 0)"/>
     <use xlink:href="#DejaVuSans-Bold-72" transform="translate(224.023438 0)"/>
     <use xlink:href="#DejaVuSans-Bold-6e" transform="translate(273.339844 0)"/>
     <use xlink:href="#DejaVuSans-Bold-61" transform="translate(344.53125 0)"/>
     <use xlink:href="#DejaVuSans-Bold-6c" transform="translate(412.011719 0)"/>
     <use xlink:href="#DejaVuSans-Bold-20" transform="translate(446.289062 0)"/>
     <use xlink:href="#DejaVuSans-Bold-4c" transform="translate(481.103516 0)"/>
     <use xlink:href="#DejaVuSans-Bold-69" transform="translate(544.824219 0)"/>
     <use xlink:href="#DejaVuSans-Bold-6e" transform="translate(579.101562 0)"/>
     <use xlink:href="#DejaVuSans-Bold-6b" transform="translate(650.292969 0)"/>
     <use xlink:href="#DejaVuSans-Bold-73" transform="translate(716.796875 0)"/>
    </g>
   </g>
   <g id="text_14">
    <!-- Site architecture -->
    <g style="fill: #4b5563" transform="translate(418.3875 522.946363) scale(0.1 -0.1)">
     <defs>
      <path id="DejaVuSans-53" d="M 3425 4513 
L 3425 3897 
Q 3066 4069 2747 4153 
Q 2428 4238 2131 4238 
Q 1616 4238 1336 4038 
Q 1056 3838 1056 3469 
Q 1056 3159 1242 3001 
Q 1428 2844 1947 2747 
L 2328 2669 
Q 3034 2534 3370 2195 
Q 3706 1856 3706 1288 
Q 3706 609 3251 259 
Q 2797 -91 1919 -91 
Q 1588 -91 1214 -16 
Q 841 59 441 206 
L 441 856 
Q 825 641 1194 531 
Q 1563 422 1919 422 
Q 2459 422 2753 634 
Q 3047 847 3047 1241 
Q 3047 1584 2836 1778 
Q 2625 1972 2144 2069 
L 1759 2144 
Q 1053 2284 737 2584 
Q 422 2884 422 3419 
Q 422 4038 858 4394 
Q 1294 4750 2059 4750 
Q 2388 4750 2728 4690 
Q 3069 4631 3425 4513 
z
" transform="scale(0.015625)"/>
     </defs>
     <use xlink:href="#DejaVuSans-53"/>
     <use xlink:href="#DejaVuSans-69" transform="translate(63.476562 0)"/>
     <use xlink:href="#DejaVuSans-74" transform="translate(91.259766 0)"/>
     <use xlink:href="#DejaVuSans-65" transform="translate(130.46875 0)"/>
     <use xlink:href="#DejaVuSans-20" transform="translate(191.992188 0)"/>
     <use xlink:href="#DejaVuSans-61" transform="translate(223.779297 0)"/>
     <use xlink:href="#DejaVuSans-72" transform="translate(285.058594 0)"/>
     <use xlink:href="#DejaVuSans-63" transform="translate(323.921875 0)"/>
     <use xlink:href="#DejaVuSans-68" transform="translate(378.902344 0)"/>
     <use xlink:href="#DejaVuSans-69" transform="translate(442.28125 0)"/>
     <use xlink:href="#DejaVuSans-74" transform="translate(470.064453 0)"/>
     <use xlink:href="#DejaVuSans-65" transform="translate(509.273438 0)"/>
     <use xlink:href="#DejaVuSans-63" transform="translate(570.796875 0)"/>
     <use xlink:href="#DejaVuSans-74" transform="translate(625.777344 0)"/>
     <use xlink:href="#DejaVuSans-75" transform="translate(664.986328 0)"/>
     <use xlink:href="#DejaVuSans-72" transform="translate(728.365234 0)"/>
     <use xlink:href="#DejaVuSans-65" transform="translate(767.228516 0)"/>
    </g>
   </g>
   <g id="text_15">
    <!-- Schema Markup -->
    <g style="fill: #fbbf24" transform="translate(71.1375 587.621611) scale(0.12 -0.12)">
     <defs>
      <path id="DejaVuSans-Bold-68" d="M 4056 2131 
L 4056 0 
L 2931 0 
L 2931 347 
L 2931 1625 
Q 2931 2084 2911 2256 
Q 2891 2428 2841 2509 
Q 2775 2619 2662 2680 
Q 2550 2741 2406 2741 
Q 2056 2741 1856 2470 
Q 1656 2200 1656 1722 
L 1656 0 
L 538 0 
L 538 4863 
L 1656 4863 
L 1656 2988 
Q 1909 3294 2193 3439 
Q 2478 3584 2822 3584 
Q 3428 3584 3742 3212 
Q 4056 2841 4056 2131 
z
" transform="scale(0.015625)"/>
     </defs>
     <use xlink:href="#DejaVuSans-Bold-53"/>
     <use xlink:href="#DejaVuSans-Bold-63" transform="translate(72.021484 0)"/>
     <use xlink:href="#DejaVuSans-Bold-68" transform="translate(131.298828 0)"/>
     <use xlink:href="#DejaVuSans-Bold-65" transform="translate(202.490234 0)"/>
     <use xlink:href="#DejaVuSans-Bold-6d" transform="translate(270.3125 0)"/>
     <use xlink:href="#DejaVuSans-Bold-61" transform="translate(374.511719 0)"/>
     <use xlink:href="#DejaVuSans-Bold-20" transform="translate(441.992188 0)"/>
     <use xlink:href="#DejaVuSans-Bold-4d" transform="translate(476.806641 0)"/>
     <use xlink:href="#DejaVuSans-Bold-61" transform="translate(576.318359 0)"/>
     <use xlink:href="#DejaVuSans-Bold-72" transform="translate(643.798828 0)"/>
     <use xlink:href="#DejaVuSans-Bold-6b" transform="translate(693.115234 0)"/>
     <use xlink:href="#DejaVuSans-Bold-75" transform="translate(759.619141 0)"/>
     <use xlink:href="#DejaVuSans-Bold-70" transform="translate(830.810547 0)"/>
    </g>
   </g>
   <g id="text_16">
    <!-- Rich snippets -->
    <g style="fill: #4b5563" transform="translate(434.217187 587.069736) scale(0.1 -0.1)">
     <defs>
      <path id="DejaVuSans-52" d="M 2841 2188 
Q 3044 2119 3236 1894 
Q 3428 1669 3622 1275 
L 4263 0 
L 3584 0 
L 2988 1197 
Q 2756 1666 2539 1819 
Q 2322 1972 1947 1972 
L 1259 1972 
L 1259 0 
L 628 0 
L 628 4666 
L 2053 4666 
Q 2853 4666 3247 4331 
Q 3641 3997 3641 3322 
Q 3641 2881 3436 2590 
Q 3231 2300 2841 2188 
z
M 1259 4147 
L 1259 2491 
L 2053 2491 
Q 2509 2491 2742 2702 
Q 2975 2913 2975 3322 
Q 2975 3731 2742 3939 
Q 2509 4147 2053 4147 
L 1259 4147 
z
" transform="scale(0.015625)"/>
     </defs>
     <use xlink:href="#DejaVuSans-52"/>
     <use xlink:href="#DejaVuSans-69" transform="translate(69.482422 0)"/>
     <use xlink:href="#DejaVuSans-63" transform="translate(97.265625 0)"/>
     <use xlink:href="#DejaVuSans-68" transform="translate(152.246094 0)"/>
     <use xlink:href="#DejaVuSans-20" transform="translate(215.625 0)"/>
     <use xlink:href="#DejaVuSans-73" transform="translate(247.412109 0)"/>
     <use xlink:href="#DejaVuSans-6e" transform="translate(299.511719 0)"/>
     <use xlink:href="#DejaVuSans-69" transform="translate(362.890625 0)"/>
     <use xlink:href="#DejaVuSans-70" transform="translate(390.673828 0)"/>
     <use xlink:href="#DejaVuSans-70" transform="translate(454.150391 0)"/>
     <use xlink:href="#DejaVuSans-65" transform="translate(517.626953 0)"/>
     <use xlink:href="#DejaVuSans-74" transform="translate(579.150391 0)"/>
     <use xlink:href="#DejaVuSans-73" transform="translate(618.359375 0)"/>
    </g>
   </g>
   <g id="text_17">
    <!-- On-Page SEO Elements -->
    <g style="fill: #1f2937" transform="translate(182.905 67.870873) scale(0.16 -0.16)">
     <defs>
      <path id="DejaVuSans-Bold-4f" d="M 2719 3878 
Q 2169 3878 1866 3472 
Q 1563 3066 1563 2328 
Q 1563 1594 1866 1187 
Q 2169 781 2719 781 
Q 3272 781 3575 1187 
Q 3878 1594 3878 2328 
Q 3878 3066 3575 3472 
Q 3272 3878 2719 3878 
z
M 2719 4750 
Q 3844 4750 4481 4106 
Q 5119 3463 5119 2328 
Q 5119 1197 4481 553 
Q 3844 -91 2719 -91 
Q 1597 -91 958 553 
Q 319 1197 319 2328 
Q 319 3463 958 4106 
Q 1597 4750 2719 4750 
z
" transform="scale(0.015625)"/>
      <path id="DejaVuSans-Bold-50" d="M 588 4666 
L 2584 4666 
Q 3475 4666 3951 4270 
Q 4428 3875 4428 3144 
Q 4428 2409 3951 2014 
Q 3475 1619 2584 1619 
L 1791 1619 
L 1791 0 
L 588 0 
L 588 4666 
z
M 1791 3794 
L 1791 2491 
L 2456 2491 
Q 2806 2491 2997 2661 
Q 3188 2831 3188 3144 
Q 3188 3456 2997 3625 
Q 2806 3794 2456 3794 
L 1791 3794 
z
" transform="scale(0.015625)"/>
      <path id="DejaVuSans-Bold-45" d="M 588 4666 
L 3834 4666 
L 3834 3756 
L 1791 3756 
L 1791 2888 
L 3713 2888 
L 3713 1978 
L 1791 1978 
L 1791 909 
L 3903 909 
L 3903 0 
L 588 0 
L 588 4666 
z
" transform="scale(0.015625)"/>
     </defs>
     <use xlink:href="#DejaVuSans-Bold-4f"/>
     <use xlink:href="#DejaVuSans-Bold-6e" transform="translate(85.009766 0)"/>
     <use xlink:href="#DejaVuSans-Bold-2d" transform="translate(156.201172 0)"/>
     <use xlink:href="#DejaVuSans-Bold-50" transform="translate(197.705078 0)"/>
     <use xlink:href="#DejaVuSans-Bold-61" transform="translate(268.371094 0)"/>
     <use xlink:href="#DejaVuSans-Bold-67" transform="translate(335.851562 0)"/>
     <use xlink:href="#DejaVuSans-Bold-65" transform="translate(407.433594 0)"/>
     <use xlink:href="#DejaVuSans-Bold-20" transform="translate(475.255859 0)"/>
     <use xlink:href="#DejaVuSans-Bold-53" transform="translate(510.070312 0)"/>
     <use xlink:href="#DejaVuSans-Bold-45" transform="translate(582.091797 0)"/>
     <use xlink:href="#DejaVuSans-Bold-4f" transform="translate(650.402344 0)"/>
     <use xlink:href="#DejaVuSans-Bold-20" transform="translate(735.412109 0)"/>
     <use xlink:href="#DejaVuSans-Bold-45" transform="translate(770.226562 0)"/>
     <use xlink:href="#DejaVuSans-Bold-6c" transform="translate(838.537109 0)"/>
     <use xlink:href="#DejaVuSans-Bold-65" transform="translate(872.814453 0)"/>
     <use xlink:href="#DejaVuSans-Bold-6d" transform="translate(940.636719 0)"/>
     <use xlink:href="#DejaVuSans-Bold-65" transform="translate(1044.835938 0)"/>
     <use xlink:href="#DejaVuSans-Bold-6e" transform="translate(1112.658203 0)"/>
     <use xlink:href="#DejaVuSans-Bold-74" transform="translate(1183.849609 0)"/>
     <use xlink:href="#DejaVuSans-Bold-73" transform="translate(1231.652344 0)"/>
    </g>
   </g>
  </g>
 </g>
 <defs>
  <clipPath id="p182bdfb0bc">
   <rect x="7.2" y="7.2" width="558" height="665.28"/>
  </clipPath>
 </defs>
</svg>
