<?xml version="1.0" encoding="utf-8" standalone="no"?>
<!DOCTYPE svg PUBLIC "-//W3C//DTD SVG 1.1//EN"
  "http://www.w3.org/Graphics/SVG/1.1/DTD/svg11.dtd">
<svg xmlns:xlink="http://www.w3.org/1999/xlink" width="684pt" height="568.8pt" viewBox="0 0 684 568.8" xmlns="http://www.w3.org/2000/svg" version="1.1">
 <metadata>
  <rdf:RDF xmlns:dc="http://purl.org/dc/elements/1.1/" xmlns:cc="http://creativecommons.org/ns#" xmlns:rdf="http://www.w3.org/1999/02/22-rdf-syntax-ns#">
   <cc:Work>
    <dc:type rdf:resource="http://purl.org/dc/dcmitype/StillImage"/>
    <dc:date>2025-12-26T21:31:34.125868</dc:date>
    <dc:format>image/svg+xml</dc:format>
    <dc:creator>
     <cc:Agent>
      <dc:title>Matplotlib v3.10.8, https://matplotlib.org/</dc:title>
     </cc:Agent>
    </dc:creator>
   </cc:Work>
  </rdf:RDF>
 </metadata>
 <defs>
  <style type="text/css">*{stroke-linejoin: round; stroke-linecap: butt}</style>
 </defs>
 <g id="figure_1">
  <g id="patch_1">
   <path d="M 0 568.8 
L 684 568.8 
L 684 0 
L 0 0 
z
" style="fill: #f8f9fa"/>
  </g>
  <g id="axes_1">
   <g id="patch_2">
    <path d="M 260.708053 284.4 
Q 209.842235 284.4 160.653467 284.4 
" clip-path="url(#p3fa01506bd)" style="fill: none; opacity: 0.7; stroke: #f59e0b; stroke-width: 1.5; stroke-linecap: round"/>
    <path d="M 170.653467 289.4 
L 160.653467 284.4 
L 170.653467 279.4 
" clip-path="url(#p3fa01506bd)" style="fill: none; opacity: 0.7; stroke: #f59e0b; stroke-width: 1.5; stroke-linecap: round"/>
   </g>
   <g id="patch_3">
    <path d="M 423.291947 284.4 
Q 474.157765 284.4 523.346533 284.4 
" clip-path="url(#p3fa01506bd)" style="fill: none; opacity: 0.7; stroke: #f59e0b; stroke-width: 1.5; stroke-linecap: round"/>
    <path d="M 513.346533 279.4 
L 523.346533 284.4 
L 513.346533 289.4 
" clip-path="url(#p3fa01506bd)" style="fill: none; opacity: 0.7; stroke: #f59e0b; stroke-width: 1.5; stroke-linecap: round"/>
   </g>
   <g id="patch_4">
    <path d="M 342 352.053519 
Q 342 393.820427 342 433.910284 
" clip-path="url(#p3fa01506bd)" style="fill: none; opacity: 0.7; stroke: #f59e0b; stroke-width: 1.5; stroke-linecap: round"/>
    <path d="M 347 423.910284 
L 342 433.910284 
L 337 423.910284 
" clip-path="url(#p3fa01506bd)" style="fill: none; opacity: 0.7; stroke: #f59e0b; stroke-width: 1.5; stroke-linecap: round"/>
   </g>
   <g id="patch_5">
    <path d="M 342 216.746481 
Q 342 174.979573 342 134.889716 
" clip-path="url(#p3fa01506bd)" style="fill: none; opacity: 0.7; stroke: #f59e0b; stroke-width: 1.5; stroke-linecap: round"/>
    <path d="M 337 144.889716 
L 342 134.889716 
L 347 144.889716 
" clip-path="url(#p3fa01506bd)" style="fill: none; opacity: 0.7; stroke: #f59e0b; stroke-width: 1.5; stroke-linecap: round"/>
   </g>
   <g id="patch_6">
    <path d="M 342 393.821053 
C 377.048683 393.821053 410.666582 382.29176 435.449744 361.772368 
C 460.232905 341.252976 474.157895 313.418802 474.157895 284.4 
C 474.157895 255.381198 460.232905 227.547024 435.449744 207.027632 
C 410.666582 186.50824 377.048683 174.978947 342 174.978947 
C 306.951317 174.978947 273.333418 186.50824 248.550256 207.027632 
C 223.767095 227.547024 209.842105 255.381198 209.842105 284.4 
C 209.842105 313.418802 223.767095 341.252976 248.550256 361.772368 
C 273.333418 382.29176 306.951317 393.821053 342 393.821053 
z
" clip-path="url(#p3fa01506bd)" style="fill: #2563eb; opacity: 0.3; stroke: #2563eb; stroke-width: 2; stroke-linejoin: miter"/>
   </g>
   <g id="patch_7">
    <path d="M 77.684211 360.994737 
C 102.218289 360.994737 125.750818 352.924232 143.099031 338.560658 
C 160.447244 324.197083 170.194737 304.713162 170.194737 284.4 
C 170.194737 264.086838 160.447244 244.602917 143.099031 230.239342 
C 125.750818 215.875768 102.218289 207.805263 77.684211 207.805263 
C 53.150132 207.805263 29.617603 215.875768 12.26939 230.239342 
C -5.078823 244.602917 -14.826316 264.086838 -14.826316 284.4 
C -14.826316 304.713162 -5.078823 324.197083 12.26939 338.560658 
C 29.617603 352.924232 53.150132 360.994737 77.684211 360.994737 
z
" clip-path="url(#p3fa01506bd)" style="fill: #10b981; opacity: 0.3; stroke: #10b981; stroke-width: 1.5; stroke-linejoin: miter"/>
   </g>
   <g id="patch_8">
    <path d="M 606.315789 360.994737 
C 630.849868 360.994737 654.382397 352.924232 671.73061 338.560658 
C 689.078823 324.197083 698.826316 304.713162 698.826316 284.4 
C 698.826316 264.086838 689.078823 244.602917 671.73061 230.239342 
C 654.382397 215.875768 630.849868 207.805263 606.315789 207.805263 
C 581.781711 207.805263 558.249182 215.875768 540.900969 230.239342 
C 523.552756 244.602917 513.805263 264.086838 513.805263 284.4 
C 513.805263 304.713162 523.552756 324.197083 540.900969 338.560658 
C 558.249182 352.924232 581.781711 360.994737 606.315789 360.994737 
z
" clip-path="url(#p3fa01506bd)" style="fill: #10b981; opacity: 0.3; stroke: #10b981; stroke-width: 1.5; stroke-linejoin: miter"/>
   </g>
   <g id="patch_9">
    <path d="M 342 579.836842 
C 366.534078 579.836842 390.066607 571.766337 407.41482 557.402763 
C 424.763034 543.039189 434.510526 523.555267 434.510526 503.242105 
C 434.510526 482.928944 424.763034 463.445022 407.41482 449.081447 
C 390.066607 434.717873 366.534078 426.647368 342 426.647368 
C 317.465922 426.647368 293.933393 434.717873 276.58518 449.081447 
C 259.236966 463.445022 249.489474 482.928944 249.489474 503.242105 
C 249.489474 523.555267 259.236966 543.039189 276.58518 557.402763 
C 293.933393 571.766337 317.465922 579.836842 342 579.836842 
z
" clip-path="url(#p3fa01506bd)" style="fill: #10b981; opacity: 0.3; stroke: #10b981; stroke-width: 1.5; stroke-linejoin: miter"/>
   </g>
   <g id="patch_10">
    <path d="M 342 142.152632 
C 366.534078 142.152632 390.066607 134.082127 407.41482 119.718553 
C 424.763034 105.354978 434.510526 85.871056 434.510526 65.557895 
C 434.510526 45.244733 424.763034 25.760811 407.41482 11.397237 
C 390.066607 -2.966337 366.534078 -11.036842 342 -11.036842 
C 317.465922 -11.036842 293.933393 -2.966337 276.58518 11.397237 
C 259.236966 25.760811 249.489474 45.244733 249.489474 65.557895 
C 249.489474 85.871056 259.236966 105.354978 276.58518 119.718553 
C 293.933393 134.082127 317.465922 142.152632 342 142.152632 
z
" clip-path="url(#p3fa01506bd)" style="fill: #10b981; opacity: 0.3; stroke: #10b981; stroke-width: 1.5; stroke-linejoin: miter"/>
   </g>
   <g id="text_1">
    <!-- Homepage -->
    <g style="fill: #2563eb" transform="translate(305.826563 280.851938) scale(0.12 -0.12)">
     <defs>
      <path id="DejaVuSans-Bold-48" d="M 588 4666 
L 1791 4666 
L 1791 2888 
L 3566 2888 
L 3566 4666 
L 4769 4666 
L 4769 0 
L 3566 0 
L 3566 1978 
L 1791 1978 
L 1791 0 
L 588 0 
L 588 4666 
z
" transform="scale(0.015625)"/>
      <path id="DejaVuSans-Bold-6f" d="M 2203 2784 
Q 1831 2784 1636 2517 
Q 1441 2250 1441 1747 
Q 1441 1244 1636 976 
Q 1831 709 2203 709 
Q 2569 709 2762 976 
Q 2956 1244 2956 1747 
Q 2956 2250 2762 2517 
Q 2569 2784 2203 2784 
z
M 2203 3584 
Q 3106 3584 3614 3096 
Q 4122 2609 4122 1747 
Q 4122 884 3614 396 
Q 3106 -91 2203 -91 
Q 1297 -91 786 396 
Q 275 884 275 1747 
Q 275 2609 786 3096 
Q 1297 3584 2203 3584 
z
" transform="scale(0.015625)"/>
      <path id="DejaVuSans-Bold-6d" d="M 3781 2919 
Q 3994 3244 4286 3414 
Q 4578 3584 4928 3584 
Q 5531 3584 5847 3212 
Q 6163 2841 6163 2131 
L 6163 0 
L 5038 0 
L 5038 1825 
Q 5041 1866 5042 1909 
Q 5044 1953 5044 2034 
Q 5044 2406 4934 2573 
Q 4825 2741 4581 2741 
Q 4263 2741 4089 2478 
Q 3916 2216 3909 1719 
L 3909 0 
L 2784 0 
L 2784 1825 
Q 2784 2406 2684 2573 
Q 2584 2741 2328 2741 
Q 2006 2741 1831 2477 
Q 1656 2213 1656 1722 
L 1656 0 
L 531 0 
L 531 3500 
L 1656 3500 
L 1656 2988 
Q 1863 3284 2130 3434 
Q 2397 3584 2719 3584 
Q 3081 3584 3359 3409 
Q 3638 3234 3781 2919 
z
" transform="scale(0.015625)"/>
      <path id="DejaVuSans-Bold-65" d="M 4031 1759 
L 4031 1441 
L 1416 1441 
Q 1456 1047 1700 850 
Q 1944 653 2381 653 
Q 2734 653 3104 758 
Q 3475 863 3866 1075 
L 3866 213 
Q 3469 63 3072 -14 
Q 2675 -91 2278 -91 
Q 1328 -91 801 392 
Q 275 875 275 1747 
Q 275 2603 792 3093 
Q 1309 3584 2216 3584 
Q 3041 3584 3536 3087 
Q 4031 2591 4031 1759 
z
M 2881 2131 
Q 2881 2450 2695 2645 
Q 2509 2841 2209 2841 
Q 1884 2841 1681 2658 
Q 1478 2475 1428 2131 
L 2881 2131 
z
" transform="scale(0.015625)"/>
      <path id="DejaVuSans-Bold-70" d="M 1656 506 
L 1656 -1331 
L 538 -1331 
L 538 3500 
L 1656 3500 
L 1656 2988 
Q 1888 3294 2169 3439 
Q 2450 3584 2816 3584 
Q 3463 3584 3878 3070 
Q 4294 2556 4294 1747 
Q 4294 938 3878 423 
Q 3463 -91 2816 -91 
Q 2450 -91 2169 54 
Q 1888 200 1656 506 
z
M 2400 2772 
Q 2041 2772 1848 2508 
Q 1656 2244 1656 1747 
Q 1656 1250 1848 986 
Q 2041 722 2400 722 
Q 2759 722 2948 984 
Q 3138 1247 3138 1747 
Q 3138 2247 2948 2509 
Q 2759 2772 2400 2772 
z
" transform="scale(0.015625)"/>
      <path id="DejaVuSans-Bold-61" d="M 2106 1575 
Q 1756 1575 1579 1456 
Q 1403 1338 1403 1106 
Q 1403 894 1545 773 
Q 1688 653 1941 653 
Q 2256 653 2472 879 
Q 2688 1106 2688 1447 
L 2688 1575 
L 2106 1575 
z
M 3816 1997 
L 3816 0 
L 2688 0 
L 2688 519 
Q 2463 200 2181 54 
Q 1900 -91 1497 -91 
Q 953 -91 614 226 
Q 275 544 275 1050 
Q 275 1666 698 1953 
Q 1122 2241 2028 2241 
L 2688 2241 
L 2688 2328 
Q 2688 2594 2478 2717 
Q 2269 2841 1825 2841 
Q 1466 2841 1156 2769 
Q 847 2697 581 2553 
L 581 3406 
Q 941 3494 1303 3539 
Q 1666 3584 2028 3584 
Q 2975 3584 3395 3211 
Q 3816 2838 3816 1997 
z
" transform="scale(0.015625)"/>
      <path id="DejaVuSans-Bold-67" d="M 2919 594 
Q 2688 288 2409 144 
Q 2131 0 1766 0 
Q 1125 0 706 504 
Q 288 1009 288 1791 
Q 288 2575 706 3076 
Q 1125 3578 1766 3578 
Q 2131 3578 2409 3434 
Q 2688 3291 2919 2981 
L 2919 3500 
L 4044 3500 
L 4044 353 
Q 4044 -491 3511 -936 
Q 2978 -1381 1966 -1381 
Q 1638 -1381 1331 -1331 
Q 1025 -1281 716 -1178 
L 716 -306 
Q 1009 -475 1290 -558 
Q 1572 -641 1856 -641 
Q 2406 -641 2662 -400 
Q 2919 -159 2919 353 
L 2919 594 
z
M 2181 2772 
Q 1834 2772 1640 2515 
Q 1447 2259 1447 1791 
Q 1447 1309 1634 1061 
Q 1822 813 2181 813 
Q 2531 813 2725 1069 
Q 2919 1325 2919 1791 
Q 2919 2259 2725 2515 
Q 2531 2772 2181 2772 
z
" transform="scale(0.015625)"/>
     </defs>
     <use xlink:href="#DejaVuSans-Bold-48"/>
     <use xlink:href="#DejaVuSans-Bold-6f" transform="translate(83.691406 0)"/>
     <use xlink:href="#DejaVuSans-Bold-6d" transform="translate(152.392578 0)"/>
     <use xlink:href="#DejaVuSans-Bold-65" transform="translate(256.591797 0)"/>
     <use xlink:href="#DejaVuSans-Bold-70" transform="translate(324.414062 0)"/>
     <use xlink:href="#DejaVuSans-Bold-61" transform="translate(395.996094 0)"/>
     <use xlink:href="#DejaVuSans-Bold-67" transform="translate(463.476562 0)"/>
     <use xlink:href="#DejaVuSans-Bold-65" transform="translate(535.058594 0)"/>
    </g>
    <!-- (High Authority) -->
    <g style="fill: #2563eb" transform="translate(286.812187 294.383063) scale(0.12 -0.12)">
     <defs>
      <path id="DejaVuSans-Bold-28" d="M 2413 -844 
L 1484 -844 
Q 1006 -72 778 623 
Q 550 1319 550 2003 
Q 550 2688 779 3389 
Q 1009 4091 1484 4856 
L 2413 4856 
Q 2013 4116 1813 3408 
Q 1613 2700 1613 2009 
Q 1613 1319 1811 609 
Q 2009 -100 2413 -844 
z
" transform="scale(0.015625)"/>
      <path id="DejaVuSans-Bold-69" d="M 538 3500 
L 1656 3500 
L 1656 0 
L 538 0 
L 538 3500 
z
M 538 4863 
L 1656 4863 
L 1656 3950 
L 538 3950 
L 538 4863 
z
" transform="scale(0.015625)"/>
      <path id="DejaVuSans-Bold-68" d="M 4056 2131 
L 4056 0 
L 2931 0 
L 2931 347 
L 2931 1625 
Q 2931 2084 2911 2256 
Q 2891 2428 2841 2509 
Q 2775 2619 2662 2680 
Q 2550 2741 2406 2741 
Q 2056 2741 1856 2470 
Q 1656 2200 1656 1722 
L 1656 0 
L 538 0 
L 538 4863 
L 1656 4863 
L 1656 2988 
Q 1909 3294 2193 3439 
Q 2478 3584 2822 3584 
Q 3428 3584 3742 3212 
Q 4056 2841 4056 2131 
z
" transform="scale(0.015625)"/>
      <path id="DejaVuSans-Bold-20" transform="scale(0.015625)"/>
      <path id="DejaVuSans-Bold-41" d="M 3419 850 
L 1538 850 
L 1241 0 
L 31 0 
L 1759 4666 
L 3194 4666 
L 4922 0 
L 3713 0 
L 3419 850 
z
M 1838 1716 
L 3116 1716 
L 2478 3572 
L 1838 1716 
z
" transform="scale(0.015625)"/>
      <path id="DejaVuSans-Bold-75" d="M 500 1363 
L 500 3500 
L 1625 3500 
L 1625 3150 
Q 1625 2866 1622 2436 
Q 1619 2006 1619 1863 
Q 1619 1441 1641 1255 
Q 1663 1069 1716 984 
Q 1784 875 1895 815 
Q 2006 756 2150 756 
Q 2500 756 2700 1025 
Q 2900 1294 2900 1772 
L 2900 3500 
L 4019 3500 
L 4019 0 
L 2900 0 
L 2900 506 
Q 2647 200 2364 54 
Q 2081 -91 1741 -91 
Q 1134 -91 817 281 
Q 500 653 500 1363 
z
" transform="scale(0.015625)"/>
      <path id="DejaVuSans-Bold-74" d="M 1759 4494 
L 1759 3500 
L 2913 3500 
L 2913 2700 
L 1759 2700 
L 1759 1216 
Q 1759 972 1856 886 
Q 1953 800 2241 800 
L 2816 800 
L 2816 0 
L 1856 0 
Q 1194 0 917 276 
Q 641 553 641 1216 
L 641 2700 
L 84 2700 
L 84 3500 
L 641 3500 
L 641 4494 
L 1759 4494 
z
" transform="scale(0.015625)"/>
      <path id="DejaVuSans-Bold-72" d="M 3138 2547 
Q 2991 2616 2845 2648 
Q 2700 2681 2553 2681 
Q 2122 2681 1889 2404 
Q 1656 2128 1656 1613 
L 1656 0 
L 538 0 
L 538 3500 
L 1656 3500 
L 1656 2925 
Q 1872 3269 2151 3426 
Q 2431 3584 2822 3584 
Q 2878 3584 2943 3579 
Q 3009 3575 3134 3559 
L 3138 2547 
z
" transform="scale(0.015625)"/>
      <path id="DejaVuSans-Bold-79" d="M 78 3500 
L 1197 3500 
L 2138 1125 
L 2938 3500 
L 4056 3500 
L 2584 -331 
Q 2363 -916 2067 -1148 
Q 1772 -1381 1288 -1381 
L 641 -1381 
L 641 -647 
L 991 -647 
Q 1275 -647 1404 -556 
Q 1534 -466 1606 -231 
L 1638 -134 
L 78 3500 
z
" transform="scale(0.015625)"/>
      <path id="DejaVuSans-Bold-29" d="M 513 -844 
Q 913 -100 1113 609 
Q 1313 1319 1313 2009 
Q 1313 2700 1113 3408 
Q 913 4116 513 4856 
L 1441 4856 
Q 1916 4091 2145 3389 
Q 2375 2688 2375 2003 
Q 2375 1319 2147 623 
Q 1919 -72 1441 -844 
L 513 -844 
z
" transform="scale(0.015625)"/>
     </defs>
     <use xlink:href="#DejaVuSans-Bold-28"/>
     <use xlink:href="#DejaVuSans-Bold-48" transform="translate(45.703125 0)"/>
     <use xlink:href="#DejaVuSans-Bold-69" transform="translate(129.394531 0)"/>
     <use xlink:href="#DejaVuSans-Bold-67" transform="translate(163.671875 0)"/>
     <use xlink:href="#DejaVuSans-Bold-68" transform="translate(235.253906 0)"/>
     <use xlink:href="#DejaVuSans-Bold-20" transform="translate(306.445312 0)"/>
     <use xlink:href="#DejaVuSans-Bold-41" transform="translate(341.259766 0)"/>
     <use xlink:href="#DejaVuSans-Bold-75" transform="translate(418.652344 0)"/>
     <use xlink:href="#DejaVuSans-Bold-74" transform="translate(489.84375 0)"/>
     <use xlink:href="#DejaVuSans-Bold-68" transform="translate(537.646484 0)"/>
     <use xlink:href="#DejaVuSans-Bold-6f" transform="translate(608.837891 0)"/>
     <use xlink:href="#DejaVuSans-Bold-72" transform="translate(677.539062 0)"/>
     <use xlink:href="#DejaVuSans-Bold-69" transform="translate(726.855469 0)"/>
     <use xlink:href="#DejaVuSans-Bold-74" transform="translate(761.132812 0)"/>
     <use xlink:href="#DejaVuSans-Bold-79" transform="translate(808.935547 0)"/>
     <use xlink:href="#DejaVuSans-Bold-29" transform="translate(874.121094 0)"/>
    </g>
   </g>
   <g id="text_2">
    <!-- Page A -->
    <g style="fill: #10b981" transform="translate(54.298273 287.6175) scale(0.12 -0.12)">
     <defs>
      <path id="DejaVuSans-Bold-50" d="M 588 4666 
L 2584 4666 
Q 3475 4666 3951 4270 
Q 4428 3875 4428 3144 
Q 4428 2409 3951 2014 
Q 3475 1619 2584 1619 
L 1791 1619 
L 1791 0 
L 588 0 
L 588 4666 
z
M 1791 3794 
L 1791 2491 
L 2456 2491 
Q 2806 2491 2997 2661 
Q 3188 2831 3188 3144 
Q 3188 3456 2997 3625 
Q 2806 3794 2456 3794 
L 1791 3794 
z
" transform="scale(0.015625)"/>
     </defs>
     <use xlink:href="#DejaVuSans-Bold-50"/>
     <use xlink:href="#DejaVuSans-Bold-61" transform="translate(70.666016 0)"/>
     <use xlink:href="#DejaVuSans-Bold-67" transform="translate(138.146484 0)"/>
     <use xlink:href="#DejaVuSans-Bold-65" transform="translate(209.728516 0)"/>
     <use xlink:href="#DejaVuSans-Bold-20" transform="translate(277.550781 0)"/>
     <use xlink:href="#DejaVuSans-Bold-41" transform="translate(312.365234 0)"/>
    </g>
   </g>
   <g id="text_3">
    <g id="patch_11">
     <path d="M 184.688355 289.9025 
L 234.995855 289.9025 
Q 236.595855 289.9025 236.595855 288.3025 
L 236.595855 280.4975 
Q 236.595855 278.8975 234.995855 278.8975 
L 184.688355 278.8975 
Q 183.088355 278.8975 183.088355 280.4975 
L 183.088355 288.3025 
Q 183.088355 289.9025 184.688355 289.9025 
z
" style="fill: #ffffff; opacity: 0.8; stroke: #000000; stroke-linejoin: miter"/>
    </g>
    <!-- Link Equity -->
    <g style="fill: #f59e0b" transform="translate(184.688355 286.57625) scale(0.08 -0.08)">
     <defs>
      <path id="DejaVuSans-Bold-4c" d="M 588 4666 
L 1791 4666 
L 1791 909 
L 3903 909 
L 3903 0 
L 588 0 
L 588 4666 
z
" transform="scale(0.015625)"/>
      <path id="DejaVuSans-Bold-6e" d="M 4056 2131 
L 4056 0 
L 2931 0 
L 2931 347 
L 2931 1631 
Q 2931 2084 2911 2256 
Q 2891 2428 2841 2509 
Q 2775 2619 2662 2680 
Q 2550 2741 2406 2741 
Q 2056 2741 1856 2470 
Q 1656 2200 1656 1722 
L 1656 0 
L 538 0 
L 538 3500 
L 1656 3500 
L 1656 2988 
Q 1909 3294 2193 3439 
Q 2478 3584 2822 3584 
Q 3428 3584 3742 3212 
Q 4056 2841 4056 2131 
z
" transform="scale(0.015625)"/>
      <path id="DejaVuSans-Bold-6b" d="M 538 4863 
L 1656 4863 
L 1656 2216 
L 2944 3500 
L 4244 3500 
L 2534 1894 
L 4378 0 
L 3022 0 
L 1656 1459 
L 1656 0 
L 538 0 
L 538 4863 
z
" transform="scale(0.015625)"/>
      <path id="DejaVuSans-Bold-45" d="M 588 4666 
L 3834 4666 
L 3834 3756 
L 1791 3756 
L 1791 2888 
L 3713 2888 
L 3713 1978 
L 1791 1978 
L 1791 909 
L 3903 909 
L 3903 0 
L 588 0 
L 588 4666 
z
" transform="scale(0.015625)"/>
      <path id="DejaVuSans-Bold-71" d="M 2181 2772 
Q 1825 2772 1636 2509 
Q 1447 2247 1447 1747 
Q 1447 1247 1636 984 
Q 1825 722 2181 722 
Q 2541 722 2730 984 
Q 2919 1247 2919 1747 
Q 2919 2247 2730 2509 
Q 2541 2772 2181 2772 
z
M 2919 506 
Q 2688 197 2409 53 
Q 2131 -91 1766 -91 
Q 1119 -91 703 423 
Q 288 938 288 1747 
Q 288 2556 703 3067 
Q 1119 3578 1766 3578 
Q 2131 3578 2409 3434 
Q 2688 3291 2919 2981 
L 2919 3500 
L 4044 3500 
L 4044 -1331 
L 2919 -1331 
L 2919 506 
z
" transform="scale(0.015625)"/>
     </defs>
     <use xlink:href="#DejaVuSans-Bold-4c"/>
     <use xlink:href="#DejaVuSans-Bold-69" transform="translate(63.720703 0)"/>
     <use xlink:href="#DejaVuSans-Bold-6e" transform="translate(97.998047 0)"/>
     <use xlink:href="#DejaVuSans-Bold-6b" transform="translate(169.189453 0)"/>
     <use xlink:href="#DejaVuSans-Bold-20" transform="translate(235.693359 0)"/>
     <use xlink:href="#DejaVuSans-Bold-45" transform="translate(270.507812 0)"/>
     <use xlink:href="#DejaVuSans-Bold-71" transform="translate(338.818359 0)"/>
     <use xlink:href="#DejaVuSans-Bold-75" transform="translate(410.400391 0)"/>
     <use xlink:href="#DejaVuSans-Bold-69" transform="translate(481.591797 0)"/>
     <use xlink:href="#DejaVuSans-Bold-74" transform="translate(515.869141 0)"/>
     <use xlink:href="#DejaVuSans-Bold-79" transform="translate(563.671875 0)"/>
    </g>
   </g>
   <g id="text_4">
    <!-- Page B -->
    <g style="fill: #10b981" transform="translate(583.000164 287.6175) scale(0.12 -0.12)">
     <defs>
      <path id="DejaVuSans-Bold-42" d="M 2456 2859 
Q 2741 2859 2887 2984 
Q 3034 3109 3034 3353 
Q 3034 3594 2887 3720 
Q 2741 3847 2456 3847 
L 1791 3847 
L 1791 2859 
L 2456 2859 
z
M 2497 819 
Q 2859 819 3042 972 
Q 3225 1125 3225 1434 
Q 3225 1738 3044 1889 
Q 2863 2041 2497 2041 
L 1791 2041 
L 1791 819 
L 2497 819 
z
M 3616 2497 
Q 4003 2384 4215 2081 
Q 4428 1778 4428 1338 
Q 4428 663 3972 331 
Q 3516 0 2584 0 
L 588 0 
L 588 4666 
L 2394 4666 
Q 3366 4666 3802 4372 
Q 4238 4078 4238 3431 
Q 4238 3091 4078 2852 
Q 3919 2613 3616 2497 
z
" transform="scale(0.015625)"/>
     </defs>
     <use xlink:href="#DejaVuSans-Bold-50"/>
     <use xlink:href="#DejaVuSans-Bold-61" transform="translate(70.666016 0)"/>
     <use xlink:href="#DejaVuSans-Bold-67" transform="translate(138.146484 0)"/>
     <use xlink:href="#DejaVuSans-Bold-65" transform="translate(209.728516 0)"/>
     <use xlink:href="#DejaVuSans-Bold-20" transform="translate(277.550781 0)"/>
     <use xlink:href="#DejaVuSans-Bold-42" transform="translate(312.365234 0)"/>
    </g>
   </g>
   <g id="text_5">
    <g id="patch_12">
     <path d="M 449.004145 289.9025 
L 499.311645 289.9025 
Q 500.911645 289.9025 500.911645 288.3025 
L 500.911645 280.4975 
Q 500.911645 278.8975 499.311645 278.8975 
L 449.004145 278.8975 
Q 447.404145 278.8975 447.404145 280.4975 
L 447.404145 288.3025 
Q 447.404145 289.9025 449.004145 289.9025 
z
" style="fill: #ffffff; opacity: 0.8; stroke: #000000; stroke-linejoin: miter"/>
    </g>
    <!-- Link Equity -->
    <g style="fill: #f59e0b" transform="translate(449.004145 286.57625) scale(0.08 -0.08)">
     <use xlink:href="#DejaVuSans-Bold-4c"/>
     <use xlink:href="#DejaVuSans-Bold-69" transform="translate(63.720703 0)"/>
     <use xlink:href="#DejaVuSans-Bold-6e" transform="translate(97.998047 0)"/>
     <use xlink:href="#DejaVuSans-Bold-6b" transform="translate(169.189453 0)"/>
     <use xlink:href="#DejaVuSans-Bold-20" transform="translate(235.693359 0)"/>
     <use xlink:href="#DejaVuSans-Bold-45" transform="translate(270.507812 0)"/>
     <use xlink:href="#DejaVuSans-Bold-71" transform="translate(338.818359 0)"/>
     <use xlink:href="#DejaVuSans-Bold-75" transform="translate(410.400391 0)"/>
     <use xlink:href="#DejaVuSans-Bold-69" transform="translate(481.591797 0)"/>
     <use xlink:href="#DejaVuSans-Bold-74" transform="translate(515.869141 0)"/>
     <use xlink:href="#DejaVuSans-Bold-79" transform="translate(563.671875 0)"/>
    </g>
   </g>
   <g id="text_6">
    <!-- Page C -->
    <g style="fill: #10b981" transform="translate(318.854062 506.459605) scale(0.12 -0.12)">
     <defs>
      <path id="DejaVuSans-Bold-43" d="M 4288 256 
Q 3956 84 3597 -3 
Q 3238 -91 2847 -91 
Q 1681 -91 1000 561 
Q 319 1213 319 2328 
Q 319 3447 1000 4098 
Q 1681 4750 2847 4750 
Q 3238 4750 3597 4662 
Q 3956 4575 4288 4403 
L 4288 3438 
Q 3953 3666 3628 3772 
Q 3303 3878 2944 3878 
Q 2300 3878 1931 3465 
Q 1563 3053 1563 2328 
Q 1563 1606 1931 1193 
Q 2300 781 2944 781 
Q 3303 781 3628 887 
Q 3953 994 4288 1222 
L 4288 256 
z
" transform="scale(0.015625)"/>
     </defs>
     <use xlink:href="#DejaVuSans-Bold-50"/>
     <use xlink:href="#DejaVuSans-Bold-61" transform="translate(70.666016 0)"/>
     <use xlink:href="#DejaVuSans-Bold-67" transform="translate(138.146484 0)"/>
     <use xlink:href="#DejaVuSans-Bold-65" transform="translate(209.728516 0)"/>
     <use xlink:href="#DejaVuSans-Bold-20" transform="translate(277.550781 0)"/>
     <use xlink:href="#DejaVuSans-Bold-43" transform="translate(312.365234 0)"/>
    </g>
   </g>
   <g id="text_7">
    <g id="patch_13">
     <path d="M 316.84625 399.323553 
L 367.15375 399.323553 
Q 368.75375 399.323553 368.75375 397.723553 
L 368.75375 389.918553 
Q 368.75375 388.318553 367.15375 388.318553 
L 316.84625 388.318553 
Q 315.24625 388.318553 315.24625 389.918553 
L 315.24625 397.723553 
Q 315.24625 399.323553 316.84625 399.323553 
z
" style="fill: #ffffff; opacity: 0.8; stroke: #000000; stroke-linejoin: miter"/>
    </g>
    <!-- Link Equity -->
    <g style="fill: #f59e0b" transform="translate(316.84625 395.997303) scale(0.08 -0.08)">
     <use xlink:href="#DejaVuSans-Bold-4c"/>
     <use xlink:href="#DejaVuSans-Bold-69" transform="translate(63.720703 0)"/>
     <use xlink:href="#DejaVuSans-Bold-6e" transform="translate(97.998047 0)"/>
     <use xlink:href="#DejaVuSans-Bold-6b" transform="translate(169.189453 0)"/>
     <use xlink:href="#DejaVuSans-Bold-20" transform="translate(235.693359 0)"/>
     <use xlink:href="#DejaVuSans-Bold-45" transform="translate(270.507812 0)"/>
     <use xlink:href="#DejaVuSans-Bold-71" transform="translate(338.818359 0)"/>
     <use xlink:href="#DejaVuSans-Bold-75" transform="translate(410.400391 0)"/>
     <use xlink:href="#DejaVuSans-Bold-69" transform="translate(481.591797 0)"/>
     <use xlink:href="#DejaVuSans-Bold-74" transform="translate(515.869141 0)"/>
     <use xlink:href="#DejaVuSans-Bold-79" transform="translate(563.671875 0)"/>
    </g>
   </g>
   <g id="text_8">
    <!-- Page D -->
    <g style="fill: #10b981" transform="translate(318.276563 68.775395) scale(0.12 -0.12)">
     <defs>
      <path id="DejaVuSans-Bold-44" d="M 1791 3756 
L 1791 909 
L 2222 909 
Q 2959 909 3348 1275 
Q 3738 1641 3738 2338 
Q 3738 3031 3350 3393 
Q 2963 3756 2222 3756 
L 1791 3756 
z
M 588 4666 
L 1856 4666 
Q 2919 4666 3439 4514 
Q 3959 4363 4331 4000 
Q 4659 3684 4818 3271 
Q 4978 2859 4978 2338 
Q 4978 1809 4818 1395 
Q 4659 981 4331 666 
Q 3956 303 3431 151 
Q 2906 0 1856 0 
L 588 0 
L 588 4666 
z
" transform="scale(0.015625)"/>
     </defs>
     <use xlink:href="#DejaVuSans-Bold-50"/>
     <use xlink:href="#DejaVuSans-Bold-61" transform="translate(70.666016 0)"/>
     <use xlink:href="#DejaVuSans-Bold-67" transform="translate(138.146484 0)"/>
     <use xlink:href="#DejaVuSans-Bold-65" transform="translate(209.728516 0)"/>
     <use xlink:href="#DejaVuSans-Bold-20" transform="translate(277.550781 0)"/>
     <use xlink:href="#DejaVuSans-Bold-44" transform="translate(312.365234 0)"/>
    </g>
   </g>
   <g id="text_9">
    <g id="patch_14">
     <path d="M 316.84625 180.481447 
L 367.15375 180.481447 
Q 368.75375 180.481447 368.75375 178.881447 
L 368.75375 171.076447 
Q 368.75375 169.476447 367.15375 169.476447 
L 316.84625 169.476447 
Q 315.24625 169.476447 315.24625 171.076447 
L 315.24625 178.881447 
Q 315.24625 180.481447 316.84625 180.481447 
z
" style="fill: #ffffff; opacity: 0.8; stroke: #000000; stroke-linejoin: miter"/>
    </g>
    <!-- Link Equity -->
    <g style="fill: #f59e0b" transform="translate(316.84625 177.155197) scale(0.08 -0.08)">
     <use xlink:href="#DejaVuSans-Bold-4c"/>
     <use xlink:href="#DejaVuSans-Bold-69" transform="translate(63.720703 0)"/>
     <use xlink:href="#DejaVuSans-Bold-6e" transform="translate(97.998047 0)"/>
     <use xlink:href="#DejaVuSans-Bold-6b" transform="translate(169.189453 0)"/>
     <use xlink:href="#DejaVuSans-Bold-20" transform="translate(235.693359 0)"/>
     <use xlink:href="#DejaVuSans-Bold-45" transform="translate(270.507812 0)"/>
     <use xlink:href="#DejaVuSans-Bold-71" transform="translate(338.818359 0)"/>
     <use xlink:href="#DejaVuSans-Bold-75" transform="translate(410.400391 0)"/>
     <use xlink:href="#DejaVuSans-Bold-69" transform="translate(481.591797 0)"/>
     <use xlink:href="#DejaVuSans-Bold-74" transform="translate(515.869141 0)"/>
     <use xlink:href="#DejaVuSans-Bold-79" transform="translate(563.671875 0)"/>
    </g>
   </g>
  </g>
 </g>
 <defs>
  <clipPath id="p3fa01506bd">
   <rect x="7.2" y="7.2" width="669.6" height="554.4"/>
  </clipPath>
 </defs>
</svg>
