<?xml version="1.0" encoding="utf-8" standalone="no"?>
<!DOCTYPE svg PUBLIC "-//W3C//DTD SVG 1.1//EN"
  "http://www.w3.org/Graphics/SVG/1.1/DTD/svg11.dtd">
<svg xmlns:xlink="http://www.w3.org/1999/xlink" width="572.4pt" height="679.68pt" viewBox="0 0 572.4 679.68" xmlns="http://www.w3.org/2000/svg" version="1.1">
 <metadata>
  <rdf:RDF xmlns:dc="http://purl.org/dc/elements/1.1/" xmlns:cc="http://creativecommons.org/ns#" xmlns:rdf="http://www.w3.org/1999/02/22-rdf-syntax-ns#">
   <cc:Work>
    <dc:type rdf:resource="http://purl.org/dc/dcmitype/StillImage"/>
    <dc:date>2025-12-26T21:31:29.255370</dc:date>
    <dc:format>image/svg+xml</dc:format>
    <dc:creator>
     <cc:Agent>
      <dc:title>Matplotlib v3.10.8, https://matplotlib.org/</dc:title>
     </cc:Agent>
    </dc:creator>
   </cc:Work>
  </rdf:RDF>
 </metadata>
 <defs>
  <style type="text/css">*{stroke-linejoin: round; stroke-linecap: butt}</style>
 </defs>
 <g id="figure_1">
  <g id="patch_1">
   <path d="M 0 679.68 
L 572.4 679.68 
L 572.4 0 
L 0 0 
z
" style="fill: #f8f9fa"/>
  </g>
  <g id="axes_1">
   <g id="patch_2">
    <path d="M 53.7 161.264842 
L 518.7 161.264842 
Q 524.5125 161.264842 524.5125 154.261895 
L 524.5125 98.238316 
Q 524.5125 91.235368 518.7 91.235368 
L 53.7 91.235368 
Q 47.8875 91.235368 47.8875 98.238316 
L 47.8875 154.261895 
Q 47.8875 161.264842 53.7 161.264842 
z
" clip-path="url(#p963f8dbe48)" style="fill: #2563eb; opacity: 0.15; stroke: #2563eb; stroke-width: 1.5; stroke-linejoin: miter"/>
   </g>
   <g id="patch_3">
    <path d="M 53.7 238.297263 
L 518.7 238.297263 
Q 524.5125 238.297263 524.5125 231.294316 
L 524.5125 175.270737 
Q 524.5125 168.267789 518.7 168.267789 
L 53.7 168.267789 
Q 47.8875 168.267789 47.8875 175.270737 
L 47.8875 231.294316 
Q 47.8875 238.297263 53.7 238.297263 
z
" clip-path="url(#p963f8dbe48)" style="fill: #8b5cf6; opacity: 0.15; stroke: #8b5cf6; stroke-width: 1.5; stroke-linejoin: miter"/>
   </g>
   <g id="patch_4">
    <path d="M 53.7 315.329684 
L 518.7 315.329684 
Q 524.5125 315.329684 524.5125 308.326737 
L 524.5125 252.303158 
Q 524.5125 245.300211 518.7 245.300211 
L 53.7 245.300211 
Q 47.8875 245.300211 47.8875 252.303158 
L 47.8875 308.326737 
Q 47.8875 315.329684 53.7 315.329684 
z
" clip-path="url(#p963f8dbe48)" style="fill: #10b981; opacity: 0.15; stroke: #10b981; stroke-width: 1.5; stroke-linejoin: miter"/>
   </g>
   <g id="patch_5">
    <path d="M 53.7 392.362105 
L 518.7 392.362105 
Q 524.5125 392.362105 524.5125 385.359158 
L 524.5125 329.335579 
Q 524.5125 322.332632 518.7 322.332632 
L 53.7 322.332632 
Q 47.8875 322.332632 47.8875 329.335579 
L 47.8875 385.359158 
Q 47.8875 392.362105 53.7 392.362105 
z
" clip-path="url(#p963f8dbe48)" style="fill: #f59e0b; opacity: 0.15; stroke: #f59e0b; stroke-width: 1.5; stroke-linejoin: miter"/>
   </g>
   <g id="patch_6">
    <path d="M 53.7 469.394526 
L 518.7 469.394526 
Q 524.5125 469.394526 524.5125 462.391579 
L 524.5125 406.368 
Q 524.5125 399.365053 518.7 399.365053 
L 53.7 399.365053 
Q 47.8875 399.365053 47.8875 406.368 
L 47.8875 462.391579 
Q 47.8875 469.394526 53.7 469.394526 
z
" clip-path="url(#p963f8dbe48)" style="fill: #14b8a6; opacity: 0.15; stroke: #14b8a6; stroke-width: 1.5; stroke-linejoin: miter"/>
   </g>
   <g id="patch_7">
    <path d="M 53.7 546.426947 
L 518.7 546.426947 
Q 524.5125 546.426947 524.5125 539.424 
L 524.5125 483.400421 
Q 524.5125 476.397474 518.7 476.397474 
L 53.7 476.397474 
Q 47.8875 476.397474 47.8875 483.400421 
L 47.8875 539.424 
Q 47.8875 546.426947 53.7 546.426947 
z
" clip-path="url(#p963f8dbe48)" style="fill: #06b6d4; opacity: 0.15; stroke: #06b6d4; stroke-width: 1.5; stroke-linejoin: miter"/>
   </g>
   <g id="patch_8">
    <path d="M 53.7 623.459368 
L 518.7 623.459368 
Q 524.5125 623.459368 524.5125 616.456421 
L 524.5125 560.432842 
Q 524.5125 553.429895 518.7 553.429895 
L 53.7 553.429895 
Q 47.8875 553.429895 47.8875 560.432842 
L 47.8875 616.456421 
Q 47.8875 623.459368 53.7 623.459368 
z
" clip-path="url(#p963f8dbe48)" style="fill: #6b7280; opacity: 0.15; stroke: #6b7280; stroke-width: 1.5; stroke-linejoin: miter"/>
   </g>
   <g id="text_1">
    <!-- Featured Snippet -->
    <g style="fill: #2563eb" transform="translate(71.1375 129.561355) scale(0.12 -0.12)">
     <defs>
      <path id="DejaVuSans-Bold-46" d="M 588 4666 
L 3834 4666 
L 3834 3756 
L 1791 3756 
L 1791 2888 
L 3713 2888 
L 3713 1978 
L 1791 1978 
L 1791 0 
L 588 0 
L 588 4666 
z
" transform="scale(0.015625)"/>
      <path id="DejaVuSans-Bold-65" d="M 4031 1759 
L 4031 1441 
L 1416 1441 
Q 1456 1047 1700 850 
Q 1944 653 2381 653 
Q 2734 653 3104 758 
Q 3475 863 3866 1075 
L 3866 213 
Q 3469 63 3072 -14 
Q 2675 -91 2278 -91 
Q 1328 -91 801 392 
Q 275 875 275 1747 
Q 275 2603 792 3093 
Q 1309 3584 2216 3584 
Q 3041 3584 3536 3087 
Q 4031 2591 4031 1759 
z
M 2881 2131 
Q 2881 2450 2695 2645 
Q 2509 2841 2209 2841 
Q 1884 2841 1681 2658 
Q 1478 2475 1428 2131 
L 2881 2131 
z
" transform="scale(0.015625)"/>
      <path id="DejaVuSans-Bold-61" d="M 2106 1575 
Q 1756 1575 1579 1456 
Q 1403 1338 1403 1106 
Q 1403 894 1545 773 
Q 1688 653 1941 653 
Q 2256 653 2472 879 
Q 2688 1106 2688 1447 
L 2688 1575 
L 2106 1575 
z
M 3816 1997 
L 3816 0 
L 2688 0 
L 2688 519 
Q 2463 200 2181 54 
Q 1900 -91 1497 -91 
Q 953 -91 614 226 
Q 275 544 275 1050 
Q 275 1666 698 1953 
Q 1122 2241 2028 2241 
L 2688 2241 
L 2688 2328 
Q 2688 2594 2478 2717 
Q 2269 2841 1825 2841 
Q 1466 2841 1156 2769 
Q 847 2697 581 2553 
L 581 3406 
Q 941 3494 1303 3539 
Q 1666 3584 2028 3584 
Q 2975 3584 3395 3211 
Q 3816 2838 3816 1997 
z
" transform="scale(0.015625)"/>
      <path id="DejaVuSans-Bold-74" d="M 1759 4494 
L 1759 3500 
L 2913 3500 
L 2913 2700 
L 1759 2700 
L 1759 1216 
Q 1759 972 1856 886 
Q 1953 800 2241 800 
L 2816 800 
L 2816 0 
L 1856 0 
Q 1194 0 917 276 
Q 641 553 641 1216 
L 641 2700 
L 84 2700 
L 84 3500 
L 641 3500 
L 641 4494 
L 1759 4494 
z
" transform="scale(0.015625)"/>
      <path id="DejaVuSans-Bold-75" d="M 500 1363 
L 500 3500 
L 1625 3500 
L 1625 3150 
Q 1625 2866 1622 2436 
Q 1619 2006 1619 1863 
Q 1619 1441 1641 1255 
Q 1663 1069 1716 984 
Q 1784 875 1895 815 
Q 2006 756 2150 756 
Q 2500 756 2700 1025 
Q 2900 1294 2900 1772 
L 2900 3500 
L 4019 3500 
L 4019 0 
L 2900 0 
L 2900 506 
Q 2647 200 2364 54 
Q 2081 -91 1741 -91 
Q 1134 -91 817 281 
Q 500 653 500 1363 
z
" transform="scale(0.015625)"/>
      <path id="DejaVuSans-Bold-72" d="M 3138 2547 
Q 2991 2616 2845 2648 
Q 2700 2681 2553 2681 
Q 2122 2681 1889 2404 
Q 1656 2128 1656 1613 
L 1656 0 
L 538 0 
L 538 3500 
L 1656 3500 
L 1656 2925 
Q 1872 3269 2151 3426 
Q 2431 3584 2822 3584 
Q 2878 3584 2943 3579 
Q 3009 3575 3134 3559 
L 3138 2547 
z
" transform="scale(0.015625)"/>
      <path id="DejaVuSans-Bold-64" d="M 2919 2988 
L 2919 4863 
L 4044 4863 
L 4044 0 
L 2919 0 
L 2919 506 
Q 2688 197 2409 53 
Q 2131 -91 1766 -91 
Q 1119 -91 703 423 
Q 288 938 288 1747 
Q 288 2556 703 3070 
Q 1119 3584 1766 3584 
Q 2128 3584 2408 3439 
Q 2688 3294 2919 2988 
z
M 2181 722 
Q 2541 722 2730 984 
Q 2919 1247 2919 1747 
Q 2919 2247 2730 2509 
Q 2541 2772 2181 2772 
Q 1825 2772 1636 2509 
Q 1447 2247 1447 1747 
Q 1447 1247 1636 984 
Q 1825 722 2181 722 
z
" transform="scale(0.015625)"/>
      <path id="DejaVuSans-Bold-20" transform="scale(0.015625)"/>
      <path id="DejaVuSans-Bold-53" d="M 3834 4519 
L 3834 3531 
Q 3450 3703 3084 3790 
Q 2719 3878 2394 3878 
Q 1963 3878 1756 3759 
Q 1550 3641 1550 3391 
Q 1550 3203 1689 3098 
Q 1828 2994 2194 2919 
L 2706 2816 
Q 3484 2659 3812 2340 
Q 4141 2022 4141 1434 
Q 4141 663 3683 286 
Q 3225 -91 2284 -91 
Q 1841 -91 1394 -6 
Q 947 78 500 244 
L 500 1259 
Q 947 1022 1364 901 
Q 1781 781 2169 781 
Q 2563 781 2772 912 
Q 2981 1044 2981 1288 
Q 2981 1506 2839 1625 
Q 2697 1744 2272 1838 
L 1806 1941 
Q 1106 2091 782 2419 
Q 459 2747 459 3303 
Q 459 4000 909 4375 
Q 1359 4750 2203 4750 
Q 2588 4750 2994 4692 
Q 3400 4634 3834 4519 
z
" transform="scale(0.015625)"/>
      <path id="DejaVuSans-Bold-6e" d="M 4056 2131 
L 4056 0 
L 2931 0 
L 2931 347 
L 2931 1631 
Q 2931 2084 2911 2256 
Q 2891 2428 2841 2509 
Q 2775 2619 2662 2680 
Q 2550 2741 2406 2741 
Q 2056 2741 1856 2470 
Q 1656 2200 1656 1722 
L 1656 0 
L 538 0 
L 538 3500 
L 1656 3500 
L 1656 2988 
Q 1909 3294 2193 3439 
Q 2478 3584 2822 3584 
Q 3428 3584 3742 3212 
Q 4056 2841 4056 2131 
z
" transform="scale(0.015625)"/>
      <path id="DejaVuSans-Bold-69" d="M 538 3500 
L 1656 3500 
L 1656 0 
L 538 0 
L 538 3500 
z
M 538 4863 
L 1656 4863 
L 1656 3950 
L 538 3950 
L 538 4863 
z
" transform="scale(0.015625)"/>
      <path id="DejaVuSans-Bold-70" d="M 1656 506 
L 1656 -1331 
L 538 -1331 
L 538 3500 
L 1656 3500 
L 1656 2988 
Q 1888 3294 2169 3439 
Q 2450 3584 2816 3584 
Q 3463 3584 3878 3070 
Q 4294 2556 4294 1747 
Q 4294 938 3878 423 
Q 3463 -91 2816 -91 
Q 2450 -91 2169 54 
Q 1888 200 1656 506 
z
M 2400 2772 
Q 2041 2772 1848 2508 
Q 1656 2244 1656 1747 
Q 1656 1250 1848 986 
Q 2041 722 2400 722 
Q 2759 722 2948 984 
Q 3138 1247 3138 1747 
Q 3138 2247 2948 2509 
Q 2759 2772 2400 2772 
z
" transform="scale(0.015625)"/>
     </defs>
     <use xlink:href="#DejaVuSans-Bold-46"/>
     <use xlink:href="#DejaVuSans-Bold-65" transform="translate(64.310547 0)"/>
     <use xlink:href="#DejaVuSans-Bold-61" transform="translate(132.132812 0)"/>
     <use xlink:href="#DejaVuSans-Bold-74" transform="translate(199.613281 0)"/>
     <use xlink:href="#DejaVuSans-Bold-75" transform="translate(247.416016 0)"/>
     <use xlink:href="#DejaVuSans-Bold-72" transform="translate(318.607422 0)"/>
     <use xlink:href="#DejaVuSans-Bold-65" transform="translate(367.923828 0)"/>
     <use xlink:href="#DejaVuSans-Bold-64" transform="translate(435.746094 0)"/>
     <use xlink:href="#DejaVuSans-Bold-20" transform="translate(507.328125 0)"/>
     <use xlink:href="#DejaVuSans-Bold-53" transform="translate(542.142578 0)"/>
     <use xlink:href="#DejaVuSans-Bold-6e" transform="translate(614.164062 0)"/>
     <use xlink:href="#DejaVuSans-Bold-69" transform="translate(685.355469 0)"/>
     <use xlink:href="#DejaVuSans-Bold-70" transform="translate(719.632812 0)"/>
     <use xlink:href="#DejaVuSans-Bold-70" transform="translate(791.214844 0)"/>
     <use xlink:href="#DejaVuSans-Bold-65" transform="translate(862.796875 0)"/>
     <use xlink:href="#DejaVuSans-Bold-74" transform="translate(930.619141 0)"/>
    </g>
   </g>
   <g id="text_2">
    <!-- Direct answer format -->
    <g style="fill: #4b5563" transform="translate(395.489062 129.00948) scale(0.1 -0.1)">
     <defs>
      <path id="DejaVuSans-44" d="M 1259 4147 
L 1259 519 
L 2022 519 
Q 2988 519 3436 956 
Q 3884 1394 3884 2338 
Q 3884 3275 3436 3711 
Q 2988 4147 2022 4147 
L 1259 4147 
z
M 628 4666 
L 1925 4666 
Q 3281 4666 3915 4102 
Q 4550 3538 4550 2338 
Q 4550 1131 3912 565 
Q 3275 0 1925 0 
L 628 0 
L 628 4666 
z
" transform="scale(0.015625)"/>
      <path id="DejaVuSans-69" d="M 603 3500 
L 1178 3500 
L 1178 0 
L 603 0 
L 603 3500 
z
M 603 4863 
L 1178 4863 
L 1178 4134 
L 603 4134 
L 603 4863 
z
" transform="scale(0.015625)"/>
      <path id="DejaVuSans-72" d="M 2631 2963 
Q 2534 3019 2420 3045 
Q 2306 3072 2169 3072 
Q 1681 3072 1420 2755 
Q 1159 2438 1159 1844 
L 1159 0 
L 581 0 
L 581 3500 
L 1159 3500 
L 1159 2956 
Q 1341 3275 1631 3429 
Q 1922 3584 2338 3584 
Q 2397 3584 2469 3576 
Q 2541 3569 2628 3553 
L 2631 2963 
z
" transform="scale(0.015625)"/>
      <path id="DejaVuSans-65" d="M 3597 1894 
L 3597 1613 
L 953 1613 
Q 991 1019 1311 708 
Q 1631 397 2203 397 
Q 2534 397 2845 478 
Q 3156 559 3463 722 
L 3463 178 
Q 3153 47 2828 -22 
Q 2503 -91 2169 -91 
Q 1331 -91 842 396 
Q 353 884 353 1716 
Q 353 2575 817 3079 
Q 1281 3584 2069 3584 
Q 2775 3584 3186 3129 
Q 3597 2675 3597 1894 
z
M 3022 2063 
Q 3016 2534 2758 2815 
Q 2500 3097 2075 3097 
Q 1594 3097 1305 2825 
Q 1016 2553 972 2059 
L 3022 2063 
z
" transform="scale(0.015625)"/>
      <path id="DejaVuSans-63" d="M 3122 3366 
L 3122 2828 
Q 2878 2963 2633 3030 
Q 2388 3097 2138 3097 
Q 1578 3097 1268 2742 
Q 959 2388 959 1747 
Q 959 1106 1268 751 
Q 1578 397 2138 397 
Q 2388 397 2633 464 
Q 2878 531 3122 666 
L 3122 134 
Q 2881 22 2623 -34 
Q 2366 -91 2075 -91 
Q 1284 -91 818 406 
Q 353 903 353 1747 
Q 353 2603 823 3093 
Q 1294 3584 2113 3584 
Q 2378 3584 2631 3529 
Q 2884 3475 3122 3366 
z
" transform="scale(0.015625)"/>
      <path id="DejaVuSans-74" d="M 1172 4494 
L 1172 3500 
L 2356 3500 
L 2356 3053 
L 1172 3053 
L 1172 1153 
Q 1172 725 1289 603 
Q 1406 481 1766 481 
L 2356 481 
L 2356 0 
L 1766 0 
Q 1100 0 847 248 
Q 594 497 594 1153 
L 594 3053 
L 172 3053 
L 172 3500 
L 594 3500 
L 594 4494 
L 1172 4494 
z
" transform="scale(0.015625)"/>
      <path id="DejaVuSans-20" transform="scale(0.015625)"/>
      <path id="DejaVuSans-61" d="M 2194 1759 
Q 1497 1759 1228 1600 
Q 959 1441 959 1056 
Q 959 750 1161 570 
Q 1363 391 1709 391 
Q 2188 391 2477 730 
Q 2766 1069 2766 1631 
L 2766 1759 
L 2194 1759 
z
M 3341 1997 
L 3341 0 
L 2766 0 
L 2766 531 
Q 2569 213 2275 61 
Q 1981 -91 1556 -91 
Q 1019 -91 701 211 
Q 384 513 384 1019 
Q 384 1609 779 1909 
Q 1175 2209 1959 2209 
L 2766 2209 
L 2766 2266 
Q 2766 2663 2505 2880 
Q 2244 3097 1772 3097 
Q 1472 3097 1187 3025 
Q 903 2953 641 2809 
L 641 3341 
Q 956 3463 1253 3523 
Q 1550 3584 1831 3584 
Q 2591 3584 2966 3190 
Q 3341 2797 3341 1997 
z
" transform="scale(0.015625)"/>
      <path id="DejaVuSans-6e" d="M 3513 2113 
L 3513 0 
L 2938 0 
L 2938 2094 
Q 2938 2591 2744 2837 
Q 2550 3084 2163 3084 
Q 1697 3084 1428 2787 
Q 1159 2491 1159 1978 
L 1159 0 
L 581 0 
L 581 3500 
L 1159 3500 
L 1159 2956 
Q 1366 3272 1645 3428 
Q 1925 3584 2291 3584 
Q 2894 3584 3203 3211 
Q 3513 2838 3513 2113 
z
" transform="scale(0.015625)"/>
      <path id="DejaVuSans-73" d="M 2834 3397 
L 2834 2853 
Q 2591 2978 2328 3040 
Q 2066 3103 1784 3103 
Q 1356 3103 1142 2972 
Q 928 2841 928 2578 
Q 928 2378 1081 2264 
Q 1234 2150 1697 2047 
L 1894 2003 
Q 2506 1872 2764 1633 
Q 3022 1394 3022 966 
Q 3022 478 2636 193 
Q 2250 -91 1575 -91 
Q 1294 -91 989 -36 
Q 684 19 347 128 
L 347 722 
Q 666 556 975 473 
Q 1284 391 1588 391 
Q 1994 391 2212 530 
Q 2431 669 2431 922 
Q 2431 1156 2273 1281 
Q 2116 1406 1581 1522 
L 1381 1569 
Q 847 1681 609 1914 
Q 372 2147 372 2553 
Q 372 3047 722 3315 
Q 1072 3584 1716 3584 
Q 2034 3584 2315 3537 
Q 2597 3491 2834 3397 
z
" transform="scale(0.015625)"/>
      <path id="DejaVuSans-77" d="M 269 3500 
L 844 3500 
L 1563 769 
L 2278 3500 
L 2956 3500 
L 3675 769 
L 4391 3500 
L 4966 3500 
L 4050 0 
L 3372 0 
L 2619 2869 
L 1863 0 
L 1184 0 
L 269 3500 
z
" transform="scale(0.015625)"/>
      <path id="DejaVuSans-66" d="M 2375 4863 
L 2375 4384 
L 1825 4384 
Q 1516 4384 1395 4259 
Q 1275 4134 1275 3809 
L 1275 3500 
L 2222 3500 
L 2222 3053 
L 1275 3053 
L 1275 0 
L 697 0 
L 697 3053 
L 147 3053 
L 147 3500 
L 697 3500 
L 697 3744 
Q 697 4328 969 4595 
Q 1241 4863 1831 4863 
L 2375 4863 
z
" transform="scale(0.015625)"/>
      <path id="DejaVuSans-6f" d="M 1959 3097 
Q 1497 3097 1228 2736 
Q 959 2375 959 1747 
Q 959 1119 1226 758 
Q 1494 397 1959 397 
Q 2419 397 2687 759 
Q 2956 1122 2956 1747 
Q 2956 2369 2687 2733 
Q 2419 3097 1959 3097 
z
M 1959 3584 
Q 2709 3584 3137 3096 
Q 3566 2609 3566 1747 
Q 3566 888 3137 398 
Q 2709 -91 1959 -91 
Q 1206 -91 779 398 
Q 353 888 353 1747 
Q 353 2609 779 3096 
Q 1206 3584 1959 3584 
z
" transform="scale(0.015625)"/>
      <path id="DejaVuSans-6d" d="M 3328 2828 
Q 3544 3216 3844 3400 
Q 4144 3584 4550 3584 
Q 5097 3584 5394 3201 
Q 5691 2819 5691 2113 
L 5691 0 
L 5113 0 
L 5113 2094 
Q 5113 2597 4934 2840 
Q 4756 3084 4391 3084 
Q 3944 3084 3684 2787 
Q 3425 2491 3425 1978 
L 3425 0 
L 2847 0 
L 2847 2094 
Q 2847 2600 2669 2842 
Q 2491 3084 2119 3084 
Q 1678 3084 1418 2786 
Q 1159 2488 1159 1978 
L 1159 0 
L 581 0 
L 581 3500 
L 1159 3500 
L 1159 2956 
Q 1356 3278 1631 3431 
Q 1906 3584 2284 3584 
Q 2666 3584 2933 3390 
Q 3200 3197 3328 2828 
z
" transform="scale(0.015625)"/>
     </defs>
     <use xlink:href="#DejaVuSans-44"/>
     <use xlink:href="#DejaVuSans-69" transform="translate(77.001953 0)"/>
     <use xlink:href="#DejaVuSans-72" transform="translate(104.785156 0)"/>
     <use xlink:href="#DejaVuSans-65" transform="translate(143.648438 0)"/>
     <use xlink:href="#DejaVuSans-63" transform="translate(205.171875 0)"/>
     <use xlink:href="#DejaVuSans-74" transform="translate(260.152344 0)"/>
     <use xlink:href="#DejaVuSans-20" transform="translate(299.361328 0)"/>
     <use xlink:href="#DejaVuSans-61" transform="translate(331.148438 0)"/>
     <use xlink:href="#DejaVuSans-6e" transform="translate(392.427734 0)"/>
     <use xlink:href="#DejaVuSans-73" transform="translate(455.806641 0)"/>
     <use xlink:href="#DejaVuSans-77" transform="translate(507.90625 0)"/>
     <use xlink:href="#DejaVuSans-65" transform="translate(589.693359 0)"/>
     <use xlink:href="#DejaVuSans-72" transform="translate(651.216797 0)"/>
     <use xlink:href="#DejaVuSans-20" transform="translate(692.330078 0)"/>
     <use xlink:href="#DejaVuSans-66" transform="translate(724.117188 0)"/>
     <use xlink:href="#DejaVuSans-6f" transform="translate(759.322266 0)"/>
     <use xlink:href="#DejaVuSans-72" transform="translate(820.503906 0)"/>
     <use xlink:href="#DejaVuSans-6d" transform="translate(859.867188 0)"/>
     <use xlink:href="#DejaVuSans-61" transform="translate(957.279297 0)"/>
     <use xlink:href="#DejaVuSans-74" transform="translate(1018.558594 0)"/>
    </g>
   </g>
   <g id="text_3">
    <!-- People Also Ask -->
    <g style="fill: #8b5cf6" transform="translate(71.1375 206.593776) scale(0.12 -0.12)">
     <defs>
      <path id="DejaVuSans-Bold-50" d="M 588 4666 
L 2584 4666 
Q 3475 4666 3951 4270 
Q 4428 3875 4428 3144 
Q 4428 2409 3951 2014 
Q 3475 1619 2584 1619 
L 1791 1619 
L 1791 0 
L 588 0 
L 588 4666 
z
M 1791 3794 
L 1791 2491 
L 2456 2491 
Q 2806 2491 2997 2661 
Q 3188 2831 3188 3144 
Q 3188 3456 2997 3625 
Q 2806 3794 2456 3794 
L 1791 3794 
z
" transform="scale(0.015625)"/>
      <path id="DejaVuSans-Bold-6f" d="M 2203 2784 
Q 1831 2784 1636 2517 
Q 1441 2250 1441 1747 
Q 1441 1244 1636 976 
Q 1831 709 2203 709 
Q 2569 709 2762 976 
Q 2956 1244 2956 1747 
Q 2956 2250 2762 2517 
Q 2569 2784 2203 2784 
z
M 2203 3584 
Q 3106 3584 3614 3096 
Q 4122 2609 4122 1747 
Q 4122 884 3614 396 
Q 3106 -91 2203 -91 
Q 1297 -91 786 396 
Q 275 884 275 1747 
Q 275 2609 786 3096 
Q 1297 3584 2203 3584 
z
" transform="scale(0.015625)"/>
      <path id="DejaVuSans-Bold-6c" d="M 538 4863 
L 1656 4863 
L 1656 0 
L 538 0 
L 538 4863 
z
" transform="scale(0.015625)"/>
      <path id="DejaVuSans-Bold-41" d="M 3419 850 
L 1538 850 
L 1241 0 
L 31 0 
L 1759 4666 
L 3194 4666 
L 4922 0 
L 3713 0 
L 3419 850 
z
M 1838 1716 
L 3116 1716 
L 2478 3572 
L 1838 1716 
z
" transform="scale(0.015625)"/>
      <path id="DejaVuSans-Bold-73" d="M 3272 3391 
L 3272 2541 
Q 2913 2691 2578 2766 
Q 2244 2841 1947 2841 
Q 1628 2841 1473 2761 
Q 1319 2681 1319 2516 
Q 1319 2381 1436 2309 
Q 1553 2238 1856 2203 
L 2053 2175 
Q 2913 2066 3209 1816 
Q 3506 1566 3506 1031 
Q 3506 472 3093 190 
Q 2681 -91 1863 -91 
Q 1516 -91 1145 -36 
Q 775 19 384 128 
L 384 978 
Q 719 816 1070 734 
Q 1422 653 1784 653 
Q 2113 653 2278 743 
Q 2444 834 2444 1013 
Q 2444 1163 2330 1236 
Q 2216 1309 1875 1350 
L 1678 1375 
Q 931 1469 631 1722 
Q 331 1975 331 2491 
Q 331 3047 712 3315 
Q 1094 3584 1881 3584 
Q 2191 3584 2531 3537 
Q 2872 3491 3272 3391 
z
" transform="scale(0.015625)"/>
      <path id="DejaVuSans-Bold-6b" d="M 538 4863 
L 1656 4863 
L 1656 2216 
L 2944 3500 
L 4244 3500 
L 2534 1894 
L 4378 0 
L 3022 0 
L 1656 1459 
L 1656 0 
L 538 0 
L 538 4863 
z
" transform="scale(0.015625)"/>
     </defs>
     <use xlink:href="#DejaVuSans-Bold-50"/>
     <use xlink:href="#DejaVuSans-Bold-65" transform="translate(73.291016 0)"/>
     <use xlink:href="#DejaVuSans-Bold-6f" transform="translate(141.113281 0)"/>
     <use xlink:href="#DejaVuSans-Bold-70" transform="translate(209.814453 0)"/>
     <use xlink:href="#DejaVuSans-Bold-6c" transform="translate(281.396484 0)"/>
     <use xlink:href="#DejaVuSans-Bold-65" transform="translate(315.673828 0)"/>
     <use xlink:href="#DejaVuSans-Bold-20" transform="translate(383.496094 0)"/>
     <use xlink:href="#DejaVuSans-Bold-41" transform="translate(418.310547 0)"/>
     <use xlink:href="#DejaVuSans-Bold-6c" transform="translate(495.703125 0)"/>
     <use xlink:href="#DejaVuSans-Bold-73" transform="translate(529.980469 0)"/>
     <use xlink:href="#DejaVuSans-Bold-6f" transform="translate(589.501953 0)"/>
     <use xlink:href="#DejaVuSans-Bold-20" transform="translate(658.203125 0)"/>
     <use xlink:href="#DejaVuSans-Bold-41" transform="translate(693.017578 0)"/>
     <use xlink:href="#DejaVuSans-Bold-73" transform="translate(770.410156 0)"/>
     <use xlink:href="#DejaVuSans-Bold-6b" transform="translate(829.931641 0)"/>
    </g>
   </g>
   <g id="text_4">
    <!-- Question-based content -->
    <g style="fill: #4b5563" transform="translate(381.276562 206.041901) scale(0.1 -0.1)">
     <defs>
      <path id="DejaVuSans-51" d="M 2522 4238 
Q 1834 4238 1429 3725 
Q 1025 3213 1025 2328 
Q 1025 1447 1429 934 
Q 1834 422 2522 422 
Q 3209 422 3611 934 
Q 4013 1447 4013 2328 
Q 4013 3213 3611 3725 
Q 3209 4238 2522 4238 
z
M 3406 84 
L 4238 -825 
L 3475 -825 
L 2784 -78 
Q 2681 -84 2626 -87 
Q 2572 -91 2522 -91 
Q 1538 -91 948 567 
Q 359 1225 359 2328 
Q 359 3434 948 4092 
Q 1538 4750 2522 4750 
Q 3503 4750 4090 4092 
Q 4678 3434 4678 2328 
Q 4678 1516 4351 937 
Q 4025 359 3406 84 
z
" transform="scale(0.015625)"/>
      <path id="DejaVuSans-75" d="M 544 1381 
L 544 3500 
L 1119 3500 
L 1119 1403 
Q 1119 906 1312 657 
Q 1506 409 1894 409 
Q 2359 409 2629 706 
Q 2900 1003 2900 1516 
L 2900 3500 
L 3475 3500 
L 3475 0 
L 2900 0 
L 2900 538 
Q 2691 219 2414 64 
Q 2138 -91 1772 -91 
Q 1169 -91 856 284 
Q 544 659 544 1381 
z
M 1991 3584 
L 1991 3584 
z
" transform="scale(0.015625)"/>
      <path id="DejaVuSans-2d" d="M 313 2009 
L 1997 2009 
L 1997 1497 
L 313 1497 
L 313 2009 
z
" transform="scale(0.015625)"/>
      <path id="DejaVuSans-62" d="M 3116 1747 
Q 3116 2381 2855 2742 
Q 2594 3103 2138 3103 
Q 1681 3103 1420 2742 
Q 1159 2381 1159 1747 
Q 1159 1113 1420 752 
Q 1681 391 2138 391 
Q 2594 391 2855 752 
Q 3116 1113 3116 1747 
z
M 1159 2969 
Q 1341 3281 1617 3432 
Q 1894 3584 2278 3584 
Q 2916 3584 3314 3078 
Q 3713 2572 3713 1747 
Q 3713 922 3314 415 
Q 2916 -91 2278 -91 
Q 1894 -91 1617 61 
Q 1341 213 1159 525 
L 1159 0 
L 581 0 
L 581 4863 
L 1159 4863 
L 1159 2969 
z
" transform="scale(0.015625)"/>
      <path id="DejaVuSans-64" d="M 2906 2969 
L 2906 4863 
L 3481 4863 
L 3481 0 
L 2906 0 
L 2906 525 
Q 2725 213 2448 61 
Q 2172 -91 1784 -91 
Q 1150 -91 751 415 
Q 353 922 353 1747 
Q 353 2572 751 3078 
Q 1150 3584 1784 3584 
Q 2172 3584 2448 3432 
Q 2725 3281 2906 2969 
z
M 947 1747 
Q 947 1113 1208 752 
Q 1469 391 1925 391 
Q 2381 391 2643 752 
Q 2906 1113 2906 1747 
Q 2906 2381 2643 2742 
Q 2381 3103 1925 3103 
Q 1469 3103 1208 2742 
Q 947 2381 947 1747 
z
" transform="scale(0.015625)"/>
     </defs>
     <use xlink:href="#DejaVuSans-51"/>
     <use xlink:href="#DejaVuSans-75" transform="translate(78.710938 0)"/>
     <use xlink:href="#DejaVuSans-65" transform="translate(142.089844 0)"/>
     <use xlink:href="#DejaVuSans-73" transform="translate(203.613281 0)"/>
     <use xlink:href="#DejaVuSans-74" transform="translate(255.712891 0)"/>
     <use xlink:href="#DejaVuSans-69" transform="translate(294.921875 0)"/>
     <use xlink:href="#DejaVuSans-6f" transform="translate(322.705078 0)"/>
     <use xlink:href="#DejaVuSans-6e" transform="translate(383.886719 0)"/>
     <use xlink:href="#DejaVuSans-2d" transform="translate(447.265625 0)"/>
     <use xlink:href="#DejaVuSans-62" transform="translate(483.349609 0)"/>
     <use xlink:href="#DejaVuSans-61" transform="translate(546.826172 0)"/>
     <use xlink:href="#DejaVuSans-73" transform="translate(608.105469 0)"/>
     <use xlink:href="#DejaVuSans-65" transform="translate(660.205078 0)"/>
     <use xlink:href="#DejaVuSans-64" transform="translate(721.728516 0)"/>
     <use xlink:href="#DejaVuSans-20" transform="translate(785.205078 0)"/>
     <use xlink:href="#DejaVuSans-63" transform="translate(816.992188 0)"/>
     <use xlink:href="#DejaVuSans-6f" transform="translate(871.972656 0)"/>
     <use xlink:href="#DejaVuSans-6e" transform="translate(933.154297 0)"/>
     <use xlink:href="#DejaVuSans-74" transform="translate(996.533203 0)"/>
     <use xlink:href="#DejaVuSans-65" transform="translate(1035.742188 0)"/>
     <use xlink:href="#DejaVuSans-6e" transform="translate(1097.265625 0)"/>
     <use xlink:href="#DejaVuSans-74" transform="translate(1160.644531 0)"/>
    </g>
   </g>
   <g id="text_5">
    <!-- Image Pack -->
    <g style="fill: #10b981" transform="translate(71.1375 283.579322) scale(0.12 -0.12)">
     <defs>
      <path id="DejaVuSans-Bold-49" d="M 588 4666 
L 1791 4666 
L 1791 0 
L 588 0 
L 588 4666 
z
" transform="scale(0.015625)"/>
      <path id="DejaVuSans-Bold-6d" d="M 3781 2919 
Q 3994 3244 4286 3414 
Q 4578 3584 4928 3584 
Q 5531 3584 5847 3212 
Q 6163 2841 6163 2131 
L 6163 0 
L 5038 0 
L 5038 1825 
Q 5041 1866 5042 1909 
Q 5044 1953 5044 2034 
Q 5044 2406 4934 2573 
Q 4825 2741 4581 2741 
Q 4263 2741 4089 2478 
Q 3916 2216 3909 1719 
L 3909 0 
L 2784 0 
L 2784 1825 
Q 2784 2406 2684 2573 
Q 2584 2741 2328 2741 
Q 2006 2741 1831 2477 
Q 1656 2213 1656 1722 
L 1656 0 
L 531 0 
L 531 3500 
L 1656 3500 
L 1656 2988 
Q 1863 3284 2130 3434 
Q 2397 3584 2719 3584 
Q 3081 3584 3359 3409 
Q 3638 3234 3781 2919 
z
" transform="scale(0.015625)"/>
      <path id="DejaVuSans-Bold-67" d="M 2919 594 
Q 2688 288 2409 144 
Q 2131 0 1766 0 
Q 1125 0 706 504 
Q 288 1009 288 1791 
Q 288 2575 706 3076 
Q 1125 3578 1766 3578 
Q 2131 3578 2409 3434 
Q 2688 3291 2919 2981 
L 2919 3500 
L 4044 3500 
L 4044 353 
Q 4044 -491 3511 -936 
Q 2978 -1381 1966 -1381 
Q 1638 -1381 1331 -1331 
Q 1025 -1281 716 -1178 
L 716 -306 
Q 1009 -475 1290 -558 
Q 1572 -641 1856 -641 
Q 2406 -641 2662 -400 
Q 2919 -159 2919 353 
L 2919 594 
z
M 2181 2772 
Q 1834 2772 1640 2515 
Q 1447 2259 1447 1791 
Q 1447 1309 1634 1061 
Q 1822 813 2181 813 
Q 2531 813 2725 1069 
Q 2919 1325 2919 1791 
Q 2919 2259 2725 2515 
Q 2531 2772 2181 2772 
z
" transform="scale(0.015625)"/>
      <path id="DejaVuSans-Bold-63" d="M 3366 3391 
L 3366 2478 
Q 3138 2634 2908 2709 
Q 2678 2784 2431 2784 
Q 1963 2784 1702 2511 
Q 1441 2238 1441 1747 
Q 1441 1256 1702 982 
Q 1963 709 2431 709 
Q 2694 709 2930 787 
Q 3166 866 3366 1019 
L 3366 103 
Q 3103 6 2833 -42 
Q 2563 -91 2291 -91 
Q 1344 -91 809 395 
Q 275 881 275 1747 
Q 275 2613 809 3098 
Q 1344 3584 2291 3584 
Q 2566 3584 2833 3536 
Q 3100 3488 3366 3391 
z
" transform="scale(0.015625)"/>
     </defs>
     <use xlink:href="#DejaVuSans-Bold-49"/>
     <use xlink:href="#DejaVuSans-Bold-6d" transform="translate(37.207031 0)"/>
     <use xlink:href="#DejaVuSans-Bold-61" transform="translate(141.40625 0)"/>
     <use xlink:href="#DejaVuSans-Bold-67" transform="translate(208.886719 0)"/>
     <use xlink:href="#DejaVuSans-Bold-65" transform="translate(280.46875 0)"/>
     <use xlink:href="#DejaVuSans-Bold-20" transform="translate(348.291016 0)"/>
     <use xlink:href="#DejaVuSans-Bold-50" transform="translate(383.105469 0)"/>
     <use xlink:href="#DejaVuSans-Bold-61" transform="translate(453.771484 0)"/>
     <use xlink:href="#DejaVuSans-Bold-63" transform="translate(521.251953 0)"/>
     <use xlink:href="#DejaVuSans-Bold-6b" transform="translate(580.529297 0)"/>
    </g>
   </g>
   <g id="text_6">
    <!-- Optimized images + alt text -->
    <g style="fill: #4b5563" transform="translate(360.060937 283.074322) scale(0.1 -0.1)">
     <defs>
      <path id="DejaVuSans-4f" d="M 2522 4238 
Q 1834 4238 1429 3725 
Q 1025 3213 1025 2328 
Q 1025 1447 1429 934 
Q 1834 422 2522 422 
Q 3209 422 3611 934 
Q 4013 1447 4013 2328 
Q 4013 3213 3611 3725 
Q 3209 4238 2522 4238 
z
M 2522 4750 
Q 3503 4750 4090 4092 
Q 4678 3434 4678 2328 
Q 4678 1225 4090 567 
Q 3503 -91 2522 -91 
Q 1538 -91 948 565 
Q 359 1222 359 2328 
Q 359 3434 948 4092 
Q 1538 4750 2522 4750 
z
" transform="scale(0.015625)"/>
      <path id="DejaVuSans-70" d="M 1159 525 
L 1159 -1331 
L 581 -1331 
L 581 3500 
L 1159 3500 
L 1159 2969 
Q 1341 3281 1617 3432 
Q 1894 3584 2278 3584 
Q 2916 3584 3314 3078 
Q 3713 2572 3713 1747 
Q 3713 922 3314 415 
Q 2916 -91 2278 -91 
Q 1894 -91 1617 61 
Q 1341 213 1159 525 
z
M 3116 1747 
Q 3116 2381 2855 2742 
Q 2594 3103 2138 3103 
Q 1681 3103 1420 2742 
Q 1159 2381 1159 1747 
Q 1159 1113 1420 752 
Q 1681 391 2138 391 
Q 2594 391 2855 752 
Q 3116 1113 3116 1747 
z
" transform="scale(0.015625)"/>
      <path id="DejaVuSans-7a" d="M 353 3500 
L 3084 3500 
L 3084 2975 
L 922 459 
L 3084 459 
L 3084 0 
L 275 0 
L 275 525 
L 2438 3041 
L 353 3041 
L 353 3500 
z
" transform="scale(0.015625)"/>
      <path id="DejaVuSans-67" d="M 2906 1791 
Q 2906 2416 2648 2759 
Q 2391 3103 1925 3103 
Q 1463 3103 1205 2759 
Q 947 2416 947 1791 
Q 947 1169 1205 825 
Q 1463 481 1925 481 
Q 2391 481 2648 825 
Q 2906 1169 2906 1791 
z
M 3481 434 
Q 3481 -459 3084 -895 
Q 2688 -1331 1869 -1331 
Q 1566 -1331 1297 -1286 
Q 1028 -1241 775 -1147 
L 775 -588 
Q 1028 -725 1275 -790 
Q 1522 -856 1778 -856 
Q 2344 -856 2625 -561 
Q 2906 -266 2906 331 
L 2906 616 
Q 2728 306 2450 153 
Q 2172 0 1784 0 
Q 1141 0 747 490 
Q 353 981 353 1791 
Q 353 2603 747 3093 
Q 1141 3584 1784 3584 
Q 2172 3584 2450 3431 
Q 2728 3278 2906 2969 
L 2906 3500 
L 3481 3500 
L 3481 434 
z
" transform="scale(0.015625)"/>
      <path id="DejaVuSans-2b" d="M 2944 4013 
L 2944 2272 
L 4684 2272 
L 4684 1741 
L 2944 1741 
L 2944 0 
L 2419 0 
L 2419 1741 
L 678 1741 
L 678 2272 
L 2419 2272 
L 2419 4013 
L 2944 4013 
z
" transform="scale(0.015625)"/>
      <path id="DejaVuSans-6c" d="M 603 4863 
L 1178 4863 
L 1178 0 
L 603 0 
L 603 4863 
z
" transform="scale(0.015625)"/>
      <path id="DejaVuSans-78" d="M 3513 3500 
L 2247 1797 
L 3578 0 
L 2900 0 
L 1881 1375 
L 863 0 
L 184 0 
L 1544 1831 
L 300 3500 
L 978 3500 
L 1906 2253 
L 2834 3500 
L 3513 3500 
z
" transform="scale(0.015625)"/>
     </defs>
     <use xlink:href="#DejaVuSans-4f"/>
     <use xlink:href="#DejaVuSans-70" transform="translate(78.710938 0)"/>
     <use xlink:href="#DejaVuSans-74" transform="translate(142.1875 0)"/>
     <use xlink:href="#DejaVuSans-69" transform="translate(181.396484 0)"/>
     <use xlink:href="#DejaVuSans-6d" transform="translate(209.179688 0)"/>
     <use xlink:href="#DejaVuSans-69" transform="translate(306.591797 0)"/>
     <use xlink:href="#DejaVuSans-7a" transform="translate(334.375 0)"/>
     <use xlink:href="#DejaVuSans-65" transform="translate(386.865234 0)"/>
     <use xlink:href="#DejaVuSans-64" transform="translate(448.388672 0)"/>
     <use xlink:href="#DejaVuSans-20" transform="translate(511.865234 0)"/>
     <use xlink:href="#DejaVuSans-69" transform="translate(543.652344 0)"/>
     <use xlink:href="#DejaVuSans-6d" transform="translate(571.435547 0)"/>
     <use xlink:href="#DejaVuSans-61" transform="translate(668.847656 0)"/>
     <use xlink:href="#DejaVuSans-67" transform="translate(730.126953 0)"/>
     <use xlink:href="#DejaVuSans-65" transform="translate(793.603516 0)"/>
     <use xlink:href="#DejaVuSans-73" transform="translate(855.126953 0)"/>
     <use xlink:href="#DejaVuSans-20" transform="translate(907.226562 0)"/>
     <use xlink:href="#DejaVuSans-2b" transform="translate(939.013672 0)"/>
     <use xlink:href="#DejaVuSans-20" transform="translate(1022.802734 0)"/>
     <use xlink:href="#DejaVuSans-61" transform="translate(1054.589844 0)"/>
     <use xlink:href="#DejaVuSans-6c" transform="translate(1115.869141 0)"/>
     <use xlink:href="#DejaVuSans-74" transform="translate(1143.652344 0)"/>
     <use xlink:href="#DejaVuSans-20" transform="translate(1182.861328 0)"/>
     <use xlink:href="#DejaVuSans-74" transform="translate(1214.648438 0)"/>
     <use xlink:href="#DejaVuSans-65" transform="translate(1253.857422 0)"/>
     <use xlink:href="#DejaVuSans-78" transform="translate(1313.630859 0)"/>
     <use xlink:href="#DejaVuSans-74" transform="translate(1372.810547 0)"/>
    </g>
   </g>
   <g id="text_7">
    <!-- Video Carousel -->
    <g style="fill: #f59e0b" transform="translate(71.1375 360.658618) scale(0.12 -0.12)">
     <defs>
      <path id="DejaVuSans-Bold-56" d="M 31 4666 
L 1241 4666 
L 2478 1222 
L 3713 4666 
L 4922 4666 
L 3194 0 
L 1759 0 
L 31 4666 
z
" transform="scale(0.015625)"/>
      <path id="DejaVuSans-Bold-43" d="M 4288 256 
Q 3956 84 3597 -3 
Q 3238 -91 2847 -91 
Q 1681 -91 1000 561 
Q 319 1213 319 2328 
Q 319 3447 1000 4098 
Q 1681 4750 2847 4750 
Q 3238 4750 3597 4662 
Q 3956 4575 4288 4403 
L 4288 3438 
Q 3953 3666 3628 3772 
Q 3303 3878 2944 3878 
Q 2300 3878 1931 3465 
Q 1563 3053 1563 2328 
Q 1563 1606 1931 1193 
Q 2300 781 2944 781 
Q 3303 781 3628 887 
Q 3953 994 4288 1222 
L 4288 256 
z
" transform="scale(0.015625)"/>
     </defs>
     <use xlink:href="#DejaVuSans-Bold-56"/>
     <use xlink:href="#DejaVuSans-Bold-69" transform="translate(75.642578 0)"/>
     <use xlink:href="#DejaVuSans-Bold-64" transform="translate(109.919922 0)"/>
     <use xlink:href="#DejaVuSans-Bold-65" transform="translate(181.501953 0)"/>
     <use xlink:href="#DejaVuSans-Bold-6f" transform="translate(249.324219 0)"/>
     <use xlink:href="#DejaVuSans-Bold-20" transform="translate(318.025391 0)"/>
     <use xlink:href="#DejaVuSans-Bold-43" transform="translate(352.839844 0)"/>
     <use xlink:href="#DejaVuSans-Bold-61" transform="translate(426.228516 0)"/>
     <use xlink:href="#DejaVuSans-Bold-72" transform="translate(493.708984 0)"/>
     <use xlink:href="#DejaVuSans-Bold-6f" transform="translate(543.025391 0)"/>
     <use xlink:href="#DejaVuSans-Bold-75" transform="translate(611.726562 0)"/>
     <use xlink:href="#DejaVuSans-Bold-73" transform="translate(682.917969 0)"/>
     <use xlink:href="#DejaVuSans-Bold-65" transform="translate(742.439453 0)"/>
     <use xlink:href="#DejaVuSans-Bold-6c" transform="translate(810.261719 0)"/>
    </g>
   </g>
   <g id="text_8">
    <!-- Video content + transcripts -->
    <g style="fill: #4b5563" transform="translate(363.476562 360.106743) scale(0.1 -0.1)">
     <defs>
      <path id="DejaVuSans-56" d="M 1831 0 
L 50 4666 
L 709 4666 
L 2188 738 
L 3669 4666 
L 4325 4666 
L 2547 0 
L 1831 0 
z
" transform="scale(0.015625)"/>
     </defs>
     <use xlink:href="#DejaVuSans-56"/>
     <use xlink:href="#DejaVuSans-69" transform="translate(66.158203 0)"/>
     <use xlink:href="#DejaVuSans-64" transform="translate(93.941406 0)"/>
     <use xlink:href="#DejaVuSans-65" transform="translate(157.417969 0)"/>
     <use xlink:href="#DejaVuSans-6f" transform="translate(218.941406 0)"/>
     <use xlink:href="#DejaVuSans-20" transform="translate(280.123047 0)"/>
     <use xlink:href="#DejaVuSans-63" transform="translate(311.910156 0)"/>
     <use xlink:href="#DejaVuSans-6f" transform="translate(366.890625 0)"/>
     <use xlink:href="#DejaVuSans-6e" transform="translate(428.072266 0)"/>
     <use xlink:href="#DejaVuSans-74" transform="translate(491.451172 0)"/>
     <use xlink:href="#DejaVuSans-65" transform="translate(530.660156 0)"/>
     <use xlink:href="#DejaVuSans-6e" transform="translate(592.183594 0)"/>
     <use xlink:href="#DejaVuSans-74" transform="translate(655.5625 0)"/>
     <use xlink:href="#DejaVuSans-20" transform="translate(694.771484 0)"/>
     <use xlink:href="#DejaVuSans-2b" transform="translate(726.558594 0)"/>
     <use xlink:href="#DejaVuSans-20" transform="translate(810.347656 0)"/>
     <use xlink:href="#DejaVuSans-74" transform="translate(842.134766 0)"/>
     <use xlink:href="#DejaVuSans-72" transform="translate(881.34375 0)"/>
     <use xlink:href="#DejaVuSans-61" transform="translate(922.457031 0)"/>
     <use xlink:href="#DejaVuSans-6e" transform="translate(983.736328 0)"/>
     <use xlink:href="#DejaVuSans-73" transform="translate(1047.115234 0)"/>
     <use xlink:href="#DejaVuSans-63" transform="translate(1099.214844 0)"/>
     <use xlink:href="#DejaVuSans-72" transform="translate(1154.195312 0)"/>
     <use xlink:href="#DejaVuSans-69" transform="translate(1195.308594 0)"/>
     <use xlink:href="#DejaVuSans-70" transform="translate(1223.091797 0)"/>
     <use xlink:href="#DejaVuSans-74" transform="translate(1286.568359 0)"/>
     <use xlink:href="#DejaVuSans-73" transform="translate(1325.777344 0)"/>
    </g>
   </g>
   <g id="text_9">
    <!-- Local Pack -->
    <g style="fill: #14b8a6" transform="translate(71.1375 437.691039) scale(0.12 -0.12)">
     <defs>
      <path id="DejaVuSans-Bold-4c" d="M 588 4666 
L 1791 4666 
L 1791 909 
L 3903 909 
L 3903 0 
L 588 0 
L 588 4666 
z
" transform="scale(0.015625)"/>
     </defs>
     <use xlink:href="#DejaVuSans-Bold-4c"/>
     <use xlink:href="#DejaVuSans-Bold-6f" transform="translate(63.720703 0)"/>
     <use xlink:href="#DejaVuSans-Bold-63" transform="translate(132.421875 0)"/>
     <use xlink:href="#DejaVuSans-Bold-61" transform="translate(191.699219 0)"/>
     <use xlink:href="#DejaVuSans-Bold-6c" transform="translate(259.179688 0)"/>
     <use xlink:href="#DejaVuSans-Bold-20" transform="translate(293.457031 0)"/>
     <use xlink:href="#DejaVuSans-Bold-50" transform="translate(328.271484 0)"/>
     <use xlink:href="#DejaVuSans-Bold-61" transform="translate(398.9375 0)"/>
     <use xlink:href="#DejaVuSans-Bold-63" transform="translate(466.417969 0)"/>
     <use xlink:href="#DejaVuSans-Bold-6b" transform="translate(525.695312 0)"/>
    </g>
   </g>
   <g id="text_10">
    <!-- Local SEO signals -->
    <g style="fill: #4b5563" transform="translate(413.657812 437.139164) scale(0.1 -0.1)">
     <defs>
      <path id="DejaVuSans-4c" d="M 628 4666 
L 1259 4666 
L 1259 531 
L 3531 531 
L 3531 0 
L 628 0 
L 628 4666 
z
" transform="scale(0.015625)"/>
      <path id="DejaVuSans-53" d="M 3425 4513 
L 3425 3897 
Q 3066 4069 2747 4153 
Q 2428 4238 2131 4238 
Q 1616 4238 1336 4038 
Q 1056 3838 1056 3469 
Q 1056 3159 1242 3001 
Q 1428 2844 1947 2747 
L 2328 2669 
Q 3034 2534 3370 2195 
Q 3706 1856 3706 1288 
Q 3706 609 3251 259 
Q 2797 -91 1919 -91 
Q 1588 -91 1214 -16 
Q 841 59 441 206 
L 441 856 
Q 825 641 1194 531 
Q 1563 422 1919 422 
Q 2459 422 2753 634 
Q 3047 847 3047 1241 
Q 3047 1584 2836 1778 
Q 2625 1972 2144 2069 
L 1759 2144 
Q 1053 2284 737 2584 
Q 422 2884 422 3419 
Q 422 4038 858 4394 
Q 1294 4750 2059 4750 
Q 2388 4750 2728 4690 
Q 3069 4631 3425 4513 
z
" transform="scale(0.015625)"/>
      <path id="DejaVuSans-45" d="M 628 4666 
L 3578 4666 
L 3578 4134 
L 1259 4134 
L 1259 2753 
L 3481 2753 
L 3481 2222 
L 1259 2222 
L 1259 531 
L 3634 531 
L 3634 0 
L 628 0 
L 628 4666 
z
" transform="scale(0.015625)"/>
     </defs>
     <use xlink:href="#DejaVuSans-4c"/>
     <use xlink:href="#DejaVuSans-6f" transform="translate(53.962891 0)"/>
     <use xlink:href="#DejaVuSans-63" transform="translate(115.144531 0)"/>
     <use xlink:href="#DejaVuSans-61" transform="translate(170.125 0)"/>
     <use xlink:href="#DejaVuSans-6c" transform="translate(231.404297 0)"/>
     <use xlink:href="#DejaVuSans-20" transform="translate(259.1875 0)"/>
     <use xlink:href="#DejaVuSans-53" transform="translate(290.974609 0)"/>
     <use xlink:href="#DejaVuSans-45" transform="translate(354.451172 0)"/>
     <use xlink:href="#DejaVuSans-4f" transform="translate(417.634766 0)"/>
     <use xlink:href="#DejaVuSans-20" transform="translate(496.345703 0)"/>
     <use xlink:href="#DejaVuSans-73" transform="translate(528.132812 0)"/>
     <use xlink:href="#DejaVuSans-69" transform="translate(580.232422 0)"/>
     <use xlink:href="#DejaVuSans-67" transform="translate(608.015625 0)"/>
     <use xlink:href="#DejaVuSans-6e" transform="translate(671.492188 0)"/>
     <use xlink:href="#DejaVuSans-61" transform="translate(734.871094 0)"/>
     <use xlink:href="#DejaVuSans-6c" transform="translate(796.150391 0)"/>
     <use xlink:href="#DejaVuSans-73" transform="translate(823.933594 0)"/>
    </g>
   </g>
   <g id="text_11">
    <!-- Knowledge Panel -->
    <g style="fill: #06b6d4" transform="translate(71.1375 514.676586) scale(0.12 -0.12)">
     <defs>
      <path id="DejaVuSans-Bold-4b" d="M 588 4666 
L 1791 4666 
L 1791 2963 
L 3525 4666 
L 4922 4666 
L 2675 2456 
L 5153 0 
L 3647 0 
L 1791 1838 
L 1791 0 
L 588 0 
L 588 4666 
z
" transform="scale(0.015625)"/>
      <path id="DejaVuSans-Bold-77" d="M 225 3500 
L 1313 3500 
L 1900 1088 
L 2491 3500 
L 3425 3500 
L 4013 1113 
L 4603 3500 
L 5691 3500 
L 4769 0 
L 3547 0 
L 2956 2406 
L 2369 0 
L 1147 0 
L 225 3500 
z
" transform="scale(0.015625)"/>
     </defs>
     <use xlink:href="#DejaVuSans-Bold-4b"/>
     <use xlink:href="#DejaVuSans-Bold-6e" transform="translate(77.490234 0)"/>
     <use xlink:href="#DejaVuSans-Bold-6f" transform="translate(148.681641 0)"/>
     <use xlink:href="#DejaVuSans-Bold-77" transform="translate(217.382812 0)"/>
     <use xlink:href="#DejaVuSans-Bold-6c" transform="translate(309.765625 0)"/>
     <use xlink:href="#DejaVuSans-Bold-65" transform="translate(344.042969 0)"/>
     <use xlink:href="#DejaVuSans-Bold-64" transform="translate(411.865234 0)"/>
     <use xlink:href="#DejaVuSans-Bold-67" transform="translate(483.447266 0)"/>
     <use xlink:href="#DejaVuSans-Bold-65" transform="translate(555.029297 0)"/>
     <use xlink:href="#DejaVuSans-Bold-20" transform="translate(622.851562 0)"/>
     <use xlink:href="#DejaVuSans-Bold-50" transform="translate(657.666016 0)"/>
     <use xlink:href="#DejaVuSans-Bold-61" transform="translate(728.332031 0)"/>
     <use xlink:href="#DejaVuSans-Bold-6e" transform="translate(795.8125 0)"/>
     <use xlink:href="#DejaVuSans-Bold-65" transform="translate(867.003906 0)"/>
     <use xlink:href="#DejaVuSans-Bold-6c" transform="translate(934.826172 0)"/>
    </g>
   </g>
   <g id="text_12">
    <!-- Structured data -->
    <g style="fill: #4b5563" transform="translate(422.698437 514.171586) scale(0.1 -0.1)">
     <use xlink:href="#DejaVuSans-53"/>
     <use xlink:href="#DejaVuSans-74" transform="translate(63.476562 0)"/>
     <use xlink:href="#DejaVuSans-72" transform="translate(102.685547 0)"/>
     <use xlink:href="#DejaVuSans-75" transform="translate(143.798828 0)"/>
     <use xlink:href="#DejaVuSans-63" transform="translate(207.177734 0)"/>
     <use xlink:href="#DejaVuSans-74" transform="translate(262.158203 0)"/>
     <use xlink:href="#DejaVuSans-75" transform="translate(301.367188 0)"/>
     <use xlink:href="#DejaVuSans-72" transform="translate(364.746094 0)"/>
     <use xlink:href="#DejaVuSans-65" transform="translate(403.609375 0)"/>
     <use xlink:href="#DejaVuSans-64" transform="translate(465.132812 0)"/>
     <use xlink:href="#DejaVuSans-20" transform="translate(528.609375 0)"/>
     <use xlink:href="#DejaVuSans-64" transform="translate(560.396484 0)"/>
     <use xlink:href="#DejaVuSans-61" transform="translate(623.873047 0)"/>
     <use xlink:href="#DejaVuSans-74" transform="translate(685.152344 0)"/>
     <use xlink:href="#DejaVuSans-61" transform="translate(724.361328 0)"/>
    </g>
   </g>
   <g id="text_13">
    <!-- Organic Listings -->
    <g style="fill: #6b7280" transform="translate(71.1375 591.709007) scale(0.12 -0.12)">
     <defs>
      <path id="DejaVuSans-Bold-4f" d="M 2719 3878 
Q 2169 3878 1866 3472 
Q 1563 3066 1563 2328 
Q 1563 1594 1866 1187 
Q 2169 781 2719 781 
Q 3272 781 3575 1187 
Q 3878 1594 3878 2328 
Q 3878 3066 3575 3472 
Q 3272 3878 2719 3878 
z
M 2719 4750 
Q 3844 4750 4481 4106 
Q 5119 3463 5119 2328 
Q 5119 1197 4481 553 
Q 3844 -91 2719 -91 
Q 1597 -91 958 553 
Q 319 1197 319 2328 
Q 319 3463 958 4106 
Q 1597 4750 2719 4750 
z
" transform="scale(0.015625)"/>
     </defs>
     <use xlink:href="#DejaVuSans-Bold-4f"/>
     <use xlink:href="#DejaVuSans-Bold-72" transform="translate(85.009766 0)"/>
     <use xlink:href="#DejaVuSans-Bold-67" transform="translate(134.326172 0)"/>
     <use xlink:href="#DejaVuSans-Bold-61" transform="translate(205.908203 0)"/>
     <use xlink:href="#DejaVuSans-Bold-6e" transform="translate(273.388672 0)"/>
     <use xlink:href="#DejaVuSans-Bold-69" transform="translate(344.580078 0)"/>
     <use xlink:href="#DejaVuSans-Bold-63" transform="translate(378.857422 0)"/>
     <use xlink:href="#DejaVuSans-Bold-20" transform="translate(438.134766 0)"/>
     <use xlink:href="#DejaVuSans-Bold-4c" transform="translate(472.949219 0)"/>
     <use xlink:href="#DejaVuSans-Bold-69" transform="translate(536.669922 0)"/>
     <use xlink:href="#DejaVuSans-Bold-73" transform="translate(570.947266 0)"/>
     <use xlink:href="#DejaVuSans-Bold-74" transform="translate(630.46875 0)"/>
     <use xlink:href="#DejaVuSans-Bold-69" transform="translate(678.271484 0)"/>
     <use xlink:href="#DejaVuSans-Bold-6e" transform="translate(712.548828 0)"/>
     <use xlink:href="#DejaVuSans-Bold-67" transform="translate(783.740234 0)"/>
     <use xlink:href="#DejaVuSans-Bold-73" transform="translate(855.322266 0)"/>
    </g>
   </g>
   <g id="text_14">
    <!-- Traditional SEO -->
    <g style="fill: #4b5563" transform="translate(425.485937 591.204007) scale(0.1 -0.1)">
     <defs>
      <path id="DejaVuSans-54" d="M -19 4666 
L 3928 4666 
L 3928 4134 
L 2272 4134 
L 2272 0 
L 1638 0 
L 1638 4134 
L -19 4134 
L -19 4666 
z
" transform="scale(0.015625)"/>
     </defs>
     <use xlink:href="#DejaVuSans-54"/>
     <use xlink:href="#DejaVuSans-72" transform="translate(46.333984 0)"/>
     <use xlink:href="#DejaVuSans-61" transform="translate(87.447266 0)"/>
     <use xlink:href="#DejaVuSans-64" transform="translate(148.726562 0)"/>
     <use xlink:href="#DejaVuSans-69" transform="translate(212.203125 0)"/>
     <use xlink:href="#DejaVuSans-74" transform="translate(239.986328 0)"/>
     <use xlink:href="#DejaVuSans-69" transform="translate(279.195312 0)"/>
     <use xlink:href="#DejaVuSans-6f" transform="translate(306.978516 0)"/>
     <use xlink:href="#DejaVuSans-6e" transform="translate(368.160156 0)"/>
     <use xlink:href="#DejaVuSans-61" transform="translate(431.539062 0)"/>
     <use xlink:href="#DejaVuSans-6c" transform="translate(492.818359 0)"/>
     <use xlink:href="#DejaVuSans-20" transform="translate(520.601562 0)"/>
     <use xlink:href="#DejaVuSans-53" transform="translate(552.388672 0)"/>
     <use xlink:href="#DejaVuSans-45" transform="translate(615.865234 0)"/>
     <use xlink:href="#DejaVuSans-4f" transform="translate(679.048828 0)"/>
    </g>
   </g>
   <g id="text_15">
    <!-- SERP Features &amp; Optimization Opportunities -->
    <g style="fill: #1f2937" transform="translate(84.8225 59.896079) scale(0.16 -0.16)">
     <defs>
      <path id="DejaVuSans-Bold-45" d="M 588 4666 
L 3834 4666 
L 3834 3756 
L 1791 3756 
L 1791 2888 
L 3713 2888 
L 3713 1978 
L 1791 1978 
L 1791 909 
L 3903 909 
L 3903 0 
L 588 0 
L 588 4666 
z
" transform="scale(0.015625)"/>
      <path id="DejaVuSans-Bold-52" d="M 2297 2597 
Q 2675 2597 2839 2737 
Q 3003 2878 3003 3200 
Q 3003 3519 2839 3656 
Q 2675 3794 2297 3794 
L 1791 3794 
L 1791 2597 
L 2297 2597 
z
M 1791 1766 
L 1791 0 
L 588 0 
L 588 4666 
L 2425 4666 
Q 3347 4666 3776 4356 
Q 4206 4047 4206 3378 
Q 4206 2916 3982 2619 
Q 3759 2322 3309 2181 
Q 3556 2125 3751 1926 
Q 3947 1728 4147 1325 
L 4800 0 
L 3519 0 
L 2950 1159 
Q 2778 1509 2601 1637 
Q 2425 1766 2131 1766 
L 1791 1766 
z
" transform="scale(0.015625)"/>
      <path id="DejaVuSans-Bold-26" d="M 2497 3097 
L 3775 1691 
Q 3941 1909 4027 2181 
Q 4113 2453 4128 2797 
L 5100 2797 
Q 5053 2228 4879 1784 
Q 4706 1341 4397 1006 
L 5313 0 
L 3988 0 
L 3681 341 
Q 3353 122 2990 15 
Q 2628 -91 2222 -91 
Q 1400 -91 892 342 
Q 384 775 384 1459 
Q 384 1916 607 2267 
Q 831 2619 1338 2950 
Q 1206 3116 1143 3281 
Q 1081 3447 1081 3628 
Q 1081 4138 1478 4444 
Q 1875 4750 2534 4750 
Q 2819 4750 3126 4704 
Q 3434 4659 3769 4569 
L 3769 3700 
Q 3475 3850 3212 3922 
Q 2950 3994 2700 3994 
Q 2459 3994 2326 3901 
Q 2194 3809 2194 3641 
Q 2194 3534 2270 3398 
Q 2347 3263 2497 3097 
z
M 1875 2322 
Q 1672 2175 1569 1989 
Q 1466 1803 1466 1581 
Q 1466 1222 1731 969 
Q 1997 716 2369 716 
Q 2578 716 2759 780 
Q 2941 844 3097 972 
L 1875 2322 
z
" transform="scale(0.015625)"/>
      <path id="DejaVuSans-Bold-7a" d="M 366 3500 
L 3419 3500 
L 3419 2719 
L 1575 800 
L 3419 800 
L 3419 0 
L 288 0 
L 288 781 
L 2131 2700 
L 366 2700 
L 366 3500 
z
" transform="scale(0.015625)"/>
     </defs>
     <use xlink:href="#DejaVuSans-Bold-53"/>
     <use xlink:href="#DejaVuSans-Bold-45" transform="translate(72.021484 0)"/>
     <use xlink:href="#DejaVuSans-Bold-52" transform="translate(140.332031 0)"/>
     <use xlink:href="#DejaVuSans-Bold-50" transform="translate(217.333984 0)"/>
     <use xlink:href="#DejaVuSans-Bold-20" transform="translate(290.625 0)"/>
     <use xlink:href="#DejaVuSans-Bold-46" transform="translate(325.439453 0)"/>
     <use xlink:href="#DejaVuSans-Bold-65" transform="translate(389.75 0)"/>
     <use xlink:href="#DejaVuSans-Bold-61" transform="translate(457.572266 0)"/>
     <use xlink:href="#DejaVuSans-Bold-74" transform="translate(525.052734 0)"/>
     <use xlink:href="#DejaVuSans-Bold-75" transform="translate(572.855469 0)"/>
     <use xlink:href="#DejaVuSans-Bold-72" transform="translate(644.046875 0)"/>
     <use xlink:href="#DejaVuSans-Bold-65" transform="translate(693.363281 0)"/>
     <use xlink:href="#DejaVuSans-Bold-73" transform="translate(761.185547 0)"/>
     <use xlink:href="#DejaVuSans-Bold-20" transform="translate(820.707031 0)"/>
     <use xlink:href="#DejaVuSans-Bold-26" transform="translate(855.521484 0)"/>
     <use xlink:href="#DejaVuSans-Bold-20" transform="translate(942.728516 0)"/>
     <use xlink:href="#DejaVuSans-Bold-4f" transform="translate(977.542969 0)"/>
     <use xlink:href="#DejaVuSans-Bold-70" transform="translate(1062.552734 0)"/>
     <use xlink:href="#DejaVuSans-Bold-74" transform="translate(1134.134766 0)"/>
     <use xlink:href="#DejaVuSans-Bold-69" transform="translate(1181.9375 0)"/>
     <use xlink:href="#DejaVuSans-Bold-6d" transform="translate(1216.214844 0)"/>
     <use xlink:href="#DejaVuSans-Bold-69" transform="translate(1320.414062 0)"/>
     <use xlink:href="#DejaVuSans-Bold-7a" transform="translate(1354.691406 0)"/>
     <use xlink:href="#DejaVuSans-Bold-61" transform="translate(1412.894531 0)"/>
     <use xlink:href="#DejaVuSans-Bold-74" transform="translate(1480.375 0)"/>
     <use xlink:href="#DejaVuSans-Bold-69" transform="translate(1528.177734 0)"/>
     <use xlink:href="#DejaVuSans-Bold-6f" transform="translate(1562.455078 0)"/>
     <use xlink:href="#DejaVuSans-Bold-6e" transform="translate(1631.15625 0)"/>
     <use xlink:href="#DejaVuSans-Bold-20" transform="translate(1702.347656 0)"/>
     <use xlink:href="#DejaVuSans-Bold-4f" transform="translate(1737.162109 0)"/>
     <use xlink:href="#DejaVuSans-Bold-70" transform="translate(1822.171875 0)"/>
     <use xlink:href="#DejaVuSans-Bold-70" transform="translate(1893.753906 0)"/>
     <use xlink:href="#DejaVuSans-Bold-6f" transform="translate(1965.335938 0)"/>
     <use xlink:href="#DejaVuSans-Bold-72" transform="translate(2034.037109 0)"/>
     <use xlink:href="#DejaVuSans-Bold-74" transform="translate(2083.353516 0)"/>
     <use xlink:href="#DejaVuSans-Bold-75" transform="translate(2131.15625 0)"/>
     <use xlink:href="#DejaVuSans-Bold-6e" transform="translate(2202.347656 0)"/>
     <use xlink:href="#DejaVuSans-Bold-69" transform="translate(2273.539062 0)"/>
     <use xlink:href="#DejaVuSans-Bold-74" transform="translate(2307.816406 0)"/>
     <use xlink:href="#DejaVuSans-Bold-69" transform="translate(2355.619141 0)"/>
     <use xlink:href="#DejaVuSans-Bold-65" transform="translate(2389.896484 0)"/>
     <use xlink:href="#DejaVuSans-Bold-73" transform="translate(2457.71875 0)"/>
    </g>
   </g>
  </g>
 </g>
 <defs>
  <clipPath id="p963f8dbe48">
   <rect x="7.2" y="7.2" width="558" height="665.28"/>
  </clipPath>
 </defs>
</svg>
